<svg width="187" height="109" viewBox="0 0 187 109" fill="none" xmlns="http://www.w3.org/2000/svg">
<rect x="0.5" y="0.5" width="186" height="36" fill="#D1FAE5"/>
<rect x="0.5" y="0.5" width="186" height="36" stroke="#292524"/>
<path fill-rule="evenodd" clip-rule="evenodd" d="M15.375 12.25C15.5408 12.25 15.6997 12.3158 15.8169 12.4331C15.9342 12.5503 16 12.7092 16 12.875V14.75H21V12.875C21 12.7092 21.0658 12.5503 21.1831 12.4331C21.3003 12.3158 21.4592 12.25 21.625 12.25C21.7908 12.25 21.9497 12.3158 22.0669 12.4331C22.1842 12.5503 22.25 12.7092 22.25 12.875V14.75H24.125C24.2908 14.75 24.4497 14.8158 24.5669 14.9331C24.6842 15.0503 24.75 15.2092 24.75 15.375C24.75 15.5408 24.6842 15.6997 24.5669 15.8169C24.4497 15.9342 24.2908 16 24.125 16H22.25V21H24.125C24.2908 21 24.4497 21.0658 24.5669 21.1831C24.6842 21.3003 24.75 21.4592 24.75 21.625C24.75 21.7908 24.6842 21.9497 24.5669 22.0669C24.4497 22.1842 24.2908 22.25 24.125 22.25H22.25V24.125C22.25 24.2908 22.1842 24.4497 22.0669 24.5669C21.9497 24.6842 21.7908 24.75 21.625 24.75C21.4592 24.75 21.3003 24.6842 21.1831 24.5669C21.0658 24.4497 21 24.2908 21 24.125V22.25H16V24.125C16 24.2908 15.9342 24.4497 15.8169 24.5669C15.6997 24.6842 15.5408 24.75 15.375 24.75C15.2092 24.75 15.0503 24.6842 14.9331 24.5669C14.8158 24.4497 14.75 24.2908 14.75 24.125V22.25H12.875C12.7092 22.25 12.5503 22.1842 12.4331 22.0669C12.3158 21.9497 12.25 21.7908 12.25 21.625C12.25 21.4592 12.3158 21.3003 12.4331 21.1831C12.5503 21.0658 12.7092 21 12.875 21H14.75V16H12.875C12.7092 16 12.5503 15.9342 12.4331 15.8169C12.3158 15.6997 12.25 15.5408 12.25 15.375C12.25 15.2092 12.3158 15.0503 12.4331 14.9331C12.5503 14.8158 12.7092 14.75 12.875 14.75H14.75V12.875C14.75 12.7092 14.8158 12.5503 14.9331 12.4331C15.0503 12.3158 15.2092 12.25 15.375 12.25ZM21 21V16H16V21H21Z" fill="#44403C"/>
<path d="M44.0232 21.68L38.1432 19.51V17.69L44.0232 15.52V16.962L39.5712 18.488V18.712L44.0232 20.238V21.68ZM50.4788 23.696C49.8068 23.696 49.2888 23.5747 48.9248 23.332C48.5701 23.0893 48.3041 22.8187 48.1268 22.52H47.9028V23.5H46.4888V13.7H47.9308V17.536H48.1548C48.2668 17.3493 48.4161 17.172 48.6028 17.004C48.7895 16.8267 49.0368 16.682 49.3448 16.57C49.6528 16.458 50.0308 16.402 50.4788 16.402C51.0575 16.402 51.5895 16.542 52.0748 16.822C52.5601 17.102 52.9475 17.508 53.2368 18.04C53.5261 18.572 53.6708 19.2067 53.6708 19.944V20.154C53.6708 20.9007 53.5215 21.54 53.2228 22.072C52.9335 22.5947 52.5461 22.996 52.0608 23.276C51.5848 23.556 51.0575 23.696 50.4788 23.696ZM50.0588 22.436C50.6841 22.436 51.1975 22.2353 51.5988 21.834C52.0095 21.4327 52.2148 20.8587 52.2148 20.112V19.986C52.2148 19.2487 52.0141 18.6793 51.6128 18.278C51.2115 17.8767 50.6935 17.676 50.0588 17.676C49.4428 17.676 48.9295 17.8767 48.5188 18.278C48.1175 18.6793 47.9168 19.2487 47.9168 19.986V20.112C47.9168 20.8587 48.1175 21.4327 48.5188 21.834C48.9295 22.2353 49.4428 22.436 50.0588 22.436ZM58.6916 23.696C58.0009 23.696 57.3849 23.556 56.8436 23.276C56.3116 22.9867 55.8916 22.576 55.5836 22.044C55.2756 21.512 55.1216 20.882 55.1216 20.154V19.944C55.1216 19.216 55.2756 18.5907 55.5836 18.068C55.8916 17.536 56.3116 17.1253 56.8436 16.836C57.3849 16.5467 58.0009 16.402 58.6916 16.402C59.3822 16.402 59.9982 16.5467 60.5396 16.836C61.0809 17.1253 61.5056 17.536 61.8136 18.068C62.1216 18.5907 62.2756 19.216 62.2756 19.944V20.154C62.2756 20.882 62.1216 21.512 61.8136 22.044C61.5056 22.576 61.0809 22.9867 60.5396 23.276C59.9982 23.556 59.3822 23.696 58.6916 23.696ZM58.6916 22.408C59.3262 22.408 59.8396 22.2073 60.2316 21.806C60.6329 21.3953 60.8336 20.8307 60.8336 20.112V19.986C60.8336 19.2673 60.6376 18.7073 60.2456 18.306C59.8536 17.8953 59.3356 17.69 58.6916 17.69C58.0662 17.69 57.5529 17.8953 57.1516 18.306C56.7596 18.7073 56.5636 19.2673 56.5636 19.986V20.112C56.5636 20.8307 56.7596 21.3953 57.1516 21.806C57.5529 22.2073 58.0662 22.408 58.6916 22.408ZM66.9268 23.696C66.3575 23.696 65.8302 23.556 65.3448 23.276C64.8595 22.996 64.4675 22.5947 64.1688 22.072C63.8795 21.54 63.7348 20.9007 63.7348 20.154V19.944C63.7348 19.2067 63.8795 18.572 64.1688 18.04C64.4582 17.508 64.8455 17.102 65.3308 16.822C65.8162 16.542 66.3482 16.402 66.9268 16.402C67.3748 16.402 67.7482 16.458 68.0468 16.57C68.3548 16.682 68.6068 16.8267 68.8028 17.004C68.9988 17.172 69.1482 17.3493 69.2508 17.536H69.4748V13.7H70.9168V23.5H69.5028V22.52H69.2788C69.1015 22.8187 68.8308 23.0893 68.4668 23.332C68.1122 23.5747 67.5988 23.696 66.9268 23.696ZM67.3328 22.436C67.9582 22.436 68.4715 22.2353 68.8728 21.834C69.2835 21.4327 69.4888 20.8587 69.4888 20.112V19.986C69.4888 19.2487 69.2882 18.6793 68.8868 18.278C68.4855 17.8767 67.9675 17.676 67.3328 17.676C66.7168 17.676 66.2035 17.8767 65.7928 18.278C65.3915 18.6793 65.1908 19.2487 65.1908 19.986V20.112C65.1908 20.8587 65.3915 21.4327 65.7928 21.834C66.2035 22.2353 66.7168 22.436 67.3328 22.436ZM73.8376 26.3V25.04H77.6876C77.9489 25.04 78.0796 24.9 78.0796 24.62V22.492H77.8556C77.7716 22.6787 77.6409 22.8607 77.4636 23.038C77.2956 23.206 77.0669 23.346 76.7776 23.458C76.4883 23.57 76.1243 23.626 75.6856 23.626C75.1629 23.626 74.6963 23.5093 74.2856 23.276C73.8749 23.0427 73.5529 22.7113 73.3196 22.282C73.0863 21.8527 72.9696 21.344 72.9696 20.756V16.598H74.4116V20.644C74.4116 21.2413 74.5609 21.6847 74.8596 21.974C75.1583 22.254 75.5736 22.394 76.1056 22.394C76.6936 22.394 77.1649 22.198 77.5196 21.806C77.8836 21.414 78.0656 20.8447 78.0656 20.098V16.598H79.5076V24.914C79.5076 25.334 79.3816 25.67 79.1296 25.922C78.8869 26.174 78.5509 26.3 78.1216 26.3H73.8376ZM81.9752 21.68V20.238L86.4412 18.712V18.488L81.9752 16.962V15.52L87.8552 17.69V19.51L81.9752 21.68Z" fill="#1C1917"/>
<rect x="0.5" y="36.5" width="186" height="36" fill="#ECFDF5"/>
<rect x="0.5" y="36.5" width="186" height="36" stroke="#292524"/>
<path fill-rule="evenodd" clip-rule="evenodd" d="M23.375 48.25C23.5408 48.25 23.6997 48.3158 23.8169 48.4331C23.9342 48.5503 24 48.7092 24 48.875V50.75H29V48.875C29 48.7092 29.0658 48.5503 29.1831 48.4331C29.3003 48.3158 29.4592 48.25 29.625 48.25C29.7908 48.25 29.9497 48.3158 30.0669 48.4331C30.1842 48.5503 30.25 48.7092 30.25 48.875V50.75H32.125C32.2908 50.75 32.4497 50.8158 32.5669 50.9331C32.6842 51.0503 32.75 51.2092 32.75 51.375C32.75 51.5408 32.6842 51.6997 32.5669 51.8169C32.4497 51.9342 32.2908 52 32.125 52H30.25V57H32.125C32.2908 57 32.4497 57.0658 32.5669 57.1831C32.6842 57.3003 32.75 57.4592 32.75 57.625C32.75 57.7908 32.6842 57.9497 32.5669 58.0669C32.4497 58.1842 32.2908 58.25 32.125 58.25H30.25V60.125C30.25 60.2908 30.1842 60.4497 30.0669 60.5669C29.9497 60.6842 29.7908 60.75 29.625 60.75C29.4592 60.75 29.3003 60.6842 29.1831 60.5669C29.0658 60.4497 29 60.2908 29 60.125V58.25H24V60.125C24 60.2908 23.9342 60.4497 23.8169 60.5669C23.6997 60.6842 23.5408 60.75 23.375 60.75C23.2092 60.75 23.0503 60.6842 22.9331 60.5669C22.8158 60.4497 22.75 60.2908 22.75 60.125V58.25H20.875C20.7092 58.25 20.5503 58.1842 20.4331 58.0669C20.3158 57.9497 20.25 57.7908 20.25 57.625C20.25 57.4592 20.3158 57.3003 20.4331 57.1831C20.5503 57.0658 20.7092 57 20.875 57H22.75V52H20.875C20.7092 52 20.5503 51.9342 20.4331 51.8169C20.3158 51.6997 20.25 51.5408 20.25 51.375C20.25 51.2092 20.3158 51.0503 20.4331 50.9331C20.5503 50.8158 20.7092 50.75 20.875 50.75H22.75V48.875C22.75 48.7092 22.8158 48.5503 22.9331 48.4331C23.0503 48.3158 23.2092 48.25 23.375 48.25ZM29 57V52H24V57H29Z" fill="#44403C"/>
<path d="M52.2497 57.68L46.3697 55.51V53.69L52.2497 51.52V52.962L47.7977 54.488V54.712L52.2497 56.238V57.68ZM54.7154 59.5V49.7H56.1574V53.578H56.3814C56.4747 53.4007 56.6054 53.228 56.7734 53.06C56.9507 52.892 57.1794 52.7567 57.4594 52.654C57.7487 52.542 58.1127 52.486 58.5514 52.486C59.074 52.486 59.536 52.6027 59.9374 52.836C60.348 53.0693 60.67 53.4007 60.9034 53.83C61.1367 54.25 61.2534 54.7587 61.2534 55.356V59.5H59.8114V55.468C59.8114 54.8707 59.662 54.432 59.3634 54.152C59.0647 53.8627 58.654 53.718 58.1314 53.718C57.534 53.718 57.0534 53.914 56.6894 54.306C56.3347 54.698 56.1574 55.2673 56.1574 56.014V59.5H54.7154ZM65.8626 59.5V50.736H65.6386L64.0286 54.04H62.4746L64.6446 49.7H67.3326V59.5H65.8626ZM69.7486 57.68V56.238L74.2146 54.712V54.488L69.7486 52.962V51.52L75.6286 53.69V55.51L69.7486 57.68Z" fill="#1C1917"/>
<rect x="0.5" y="72.5" width="186" height="36" fill="#ECFDF5"/>
<rect x="0.5" y="72.5" width="186" height="36" stroke="#292524"/>
<path fill-rule="evenodd" clip-rule="evenodd" d="M23.375 84.25C23.5408 84.25 23.6997 84.3158 23.8169 84.4331C23.9342 84.5503 24 84.7092 24 84.875V86.75H29V84.875C29 84.7092 29.0658 84.5503 29.1831 84.4331C29.3003 84.3158 29.4592 84.25 29.625 84.25C29.7908 84.25 29.9497 84.3158 30.0669 84.4331C30.1842 84.5503 30.25 84.7092 30.25 84.875V86.75H32.125C32.2908 86.75 32.4497 86.8158 32.5669 86.9331C32.6842 87.0503 32.75 87.2092 32.75 87.375C32.75 87.5408 32.6842 87.6997 32.5669 87.8169C32.4497 87.9342 32.2908 88 32.125 88H30.25V93H32.125C32.2908 93 32.4497 93.0658 32.5669 93.1831C32.6842 93.3003 32.75 93.4592 32.75 93.625C32.75 93.7908 32.6842 93.9497 32.5669 94.0669C32.4497 94.1842 32.2908 94.25 32.125 94.25H30.25V96.125C30.25 96.2908 30.1842 96.4497 30.0669 96.5669C29.9497 96.6842 29.7908 96.75 29.625 96.75C29.4592 96.75 29.3003 96.6842 29.1831 96.5669C29.0658 96.4497 29 96.2908 29 96.125V94.25H24V96.125C24 96.2908 23.9342 96.4497 23.8169 96.5669C23.6997 96.6842 23.5408 96.75 23.375 96.75C23.2092 96.75 23.0503 96.6842 22.9331 96.5669C22.8158 96.4497 22.75 96.2908 22.75 96.125V94.25H20.875C20.7092 94.25 20.5503 94.1842 20.4331 94.0669C20.3158 93.9497 20.25 93.7908 20.25 93.625C20.25 93.4592 20.3158 93.3003 20.4331 93.1831C20.5503 93.0658 20.7092 93 20.875 93H22.75V88H20.875C20.7092 88 20.5503 87.9342 20.4331 87.8169C20.3158 87.6997 20.25 87.5408 20.25 87.375C20.25 87.2092 20.3158 87.0503 20.4331 86.9331C20.5503 86.8158 20.7092 86.75 20.875 86.75H22.75V84.875C22.75 84.7092 22.8158 84.5503 22.9331 84.4331C23.0503 84.3158 23.2092 84.25 23.375 84.25ZM29 93V88H24V93H29Z" fill="#44403C"/>
<path d="M52.114 93.68L46.234 91.51V89.69L52.114 87.52V88.962L47.662 90.488V90.712L52.114 92.238V93.68ZM54.5796 98.3V88.598H55.9936V89.592H56.2176C56.395 89.284 56.661 89.0087 57.0156 88.766C57.3796 88.5233 57.8976 88.402 58.5696 88.402C59.1483 88.402 59.6756 88.542 60.1516 88.822C60.637 89.102 61.0243 89.508 61.3136 90.04C61.6123 90.5627 61.7616 91.1973 61.7616 91.944V92.154C61.7616 92.9007 61.617 93.54 61.3276 94.072C61.0383 94.5947 60.651 94.996 60.1656 95.276C59.6803 95.556 59.1483 95.696 58.5696 95.696C58.1216 95.696 57.7436 95.64 57.4356 95.528C57.1276 95.416 56.8803 95.276 56.6936 95.108C56.507 94.9307 56.3576 94.7487 56.2456 94.562H56.0216V98.3H54.5796ZM58.1496 94.436C58.7843 94.436 59.3023 94.2353 59.7036 93.834C60.105 93.4327 60.3056 92.8587 60.3056 92.112V91.986C60.3056 91.2487 60.1003 90.6793 59.6896 90.278C59.2883 89.8767 58.775 89.676 58.1496 89.676C57.5336 89.676 57.0203 89.8767 56.6096 90.278C56.2083 90.6793 56.0076 91.2487 56.0076 91.986V92.112C56.0076 92.8587 56.2083 93.4327 56.6096 93.834C57.0203 94.2353 57.5336 94.436 58.1496 94.436ZM63.8844 93.68V92.238L68.3504 90.712V90.488L63.8844 88.962V87.52L69.7644 89.69V91.51L63.8844 93.68Z" fill="#1C1917"/>
</svg>
