<svg width="674" height="140" viewBox="0 0 674 140" fill="none" xmlns="http://www.w3.org/2000/svg">
<path d="M17 2C17 0.895432 17.8954 0 19 0H262.159C263.264 0 264.159 0.895431 264.159 2V56C264.159 57.1046 263.264 58 262.159 58H19C17.8954 58 17 57.1046 17 56V2Z" fill="#292524"/>
<path d="M52.5081 22.0568C52.7034 21.8627 53.0161 21.8637 53.2102 22.0591C53.4043 22.2545 53.4032 22.5779 53.2078 22.772L47.4554 28.4863L59.8323 28.5274C60.1062 28.5283 60.3315 28.7552 60.3306 29.0291C60.3296 29.3028 60.1027 29.5283 59.829 29.5274L47.4521 29.4863L53.1664 35.2387C53.3605 35.4341 53.3594 35.7477 53.1641 35.9418C52.9688 36.1354 52.6559 36.1344 52.4619 35.9395L45.894 29.3268C45.6999 29.1314 45.701 28.8188 45.8964 28.6247L52.5081 22.0568Z" fill="black" stroke="#FAFAFA"/>
<path d="M78.2196 40.7C77.7796 40.7 77.4063 40.5467 77.0996 40.24C76.8063 39.9467 76.6596 39.5733 76.6596 39.12V32.66C76.6596 31.9933 76.2996 31.66 75.5796 31.66H73.8596V30.14H75.5796C76.2996 30.14 76.6596 29.8067 76.6596 29.14V22.68C76.6596 22.2267 76.8063 21.8533 77.0996 21.56C77.4063 21.2533 77.7796 21.1 78.2196 21.1H81.3396V22.48H78.7396C78.3796 22.48 78.1996 22.68 78.1996 23.08V29.16C78.1996 29.64 78.0663 30.0267 77.7996 30.32C77.5463 30.6133 77.1863 30.76 76.7196 30.76H76.5796V31.04H76.7196C77.1863 31.04 77.5463 31.1867 77.7996 31.48C78.0663 31.7733 78.1996 32.16 78.1996 32.64V38.72C78.1996 39.12 78.3796 39.32 78.7396 39.32H81.3396V40.7H78.2196ZM88.7924 36.28C87.7791 36.28 86.9857 36.0867 86.4124 35.7C85.8524 35.3133 85.4457 34.8733 85.1924 34.38H84.9124V36H83.3724V22H84.9524V27.76H85.2324C85.3924 27.4533 85.6191 27.1667 85.9124 26.9C86.2057 26.62 86.5857 26.3933 87.0524 26.22C87.5324 26.0333 88.1124 25.94 88.7924 25.94C89.6457 25.94 90.4191 26.1467 91.1124 26.56C91.8191 26.96 92.3791 27.54 92.7924 28.3C93.2057 29.0467 93.4124 29.94 93.4124 30.98V31.24C93.4124 32.28 93.1991 33.18 92.7724 33.94C92.3591 34.7 91.7991 35.28 91.0924 35.68C90.3991 36.08 89.6324 36.28 88.7924 36.28ZM88.3724 34.88C89.3857 34.88 90.2057 34.56 90.8324 33.92C91.4724 33.2667 91.7924 32.36 91.7924 31.2V31.02C91.7924 29.86 91.4724 28.96 90.8324 28.32C90.2057 27.6667 89.3857 27.34 88.3724 27.34C87.3724 27.34 86.5457 27.6667 85.8924 28.32C85.2524 28.96 84.9324 29.86 84.9324 31.02V31.2C84.9324 32.36 85.2524 33.2667 85.8924 33.92C86.5457 34.56 87.3724 34.88 88.3724 34.88ZM99.9835 36.18C99.2768 36.18 98.6235 36.0267 98.0235 35.72C97.4368 35.4133 96.9702 34.96 96.6235 34.36C96.2902 33.7467 96.1235 33.0067 96.1235 32.14V26.22H97.7035V32.02C97.7035 32.9933 97.9435 33.7 98.4235 34.14C98.9168 34.58 99.5768 34.8 100.403 34.8C101.337 34.8 102.103 34.4933 102.703 33.88C103.303 33.2667 103.603 32.3533 103.603 31.14V26.22H105.183V36H103.643V34.34H103.363C103.15 34.8067 102.783 35.2333 102.263 35.62C101.743 35.9933 100.983 36.18 99.9835 36.18ZM112.09 36C111.53 36 111.096 35.8467 110.79 35.54C110.496 35.2333 110.35 34.8133 110.35 34.28V27.6H107.41V26.22H110.35V22.74H111.93V26.22H114.49V27.6H111.93V34.04C111.93 34.44 112.123 34.64 112.51 34.64H114.69V36H112.09ZM118.53 36C117.97 36 117.536 35.8467 117.23 35.54C116.923 35.2333 116.77 34.8133 116.77 34.28V27.6H114.49V26.22H116.77V22.74H118.35V26.22H121.57V27.6H118.35V34.04C118.35 34.44 118.55 34.64 118.95 34.64H121.13V36H118.53ZM128.654 36.28C127.667 36.28 126.794 36.0733 126.034 35.66C125.287 35.2467 124.701 34.6667 124.274 33.92C123.861 33.16 123.654 32.2667 123.654 31.24V30.98C123.654 29.9667 123.861 29.08 124.274 28.32C124.701 27.56 125.287 26.9733 126.034 26.56C126.794 26.1467 127.667 25.94 128.654 25.94C129.641 25.94 130.507 26.1467 131.254 26.56C132.014 26.9733 132.601 27.56 133.014 28.32C133.441 29.08 133.654 29.9667 133.654 30.98V31.24C133.654 32.2667 133.441 33.16 133.014 33.92C132.601 34.6667 132.014 35.2467 131.254 35.66C130.507 36.0733 129.641 36.28 128.654 36.28ZM128.654 34.86C129.694 34.86 130.521 34.5333 131.134 33.88C131.761 33.2133 132.074 32.32 132.074 31.2V31.02C132.074 29.9 131.761 29.0133 131.134 28.36C130.521 27.6933 129.694 27.36 128.654 27.36C127.627 27.36 126.801 27.6933 126.174 28.36C125.547 29.0133 125.234 29.9 125.234 31.02V31.2C125.234 32.32 125.547 33.2133 126.174 33.88C126.801 34.5333 127.627 34.86 128.654 34.86ZM136.497 36V26.22H138.037V27.88H138.317C138.531 27.4133 138.891 26.9933 139.397 26.62C139.917 26.2333 140.677 26.04 141.677 26.04C142.411 26.04 143.064 26.1933 143.637 26.5C144.224 26.8067 144.691 27.26 145.037 27.86C145.384 28.46 145.557 29.2 145.557 30.08V36H143.977V30.2C143.977 29.2267 143.731 28.52 143.237 28.08C142.757 27.64 142.104 27.42 141.277 27.42C140.331 27.42 139.557 27.7267 138.957 28.34C138.371 28.9533 138.077 29.8667 138.077 31.08V36H136.497ZM148.703 36V22H150.383V34.48H157.463V36H148.703ZM162.681 36.28C162.001 36.28 161.381 36.16 160.821 35.92C160.261 35.68 159.821 35.3333 159.501 34.88C159.181 34.4267 159.021 33.8733 159.021 33.22C159.021 32.5533 159.181 32.0067 159.501 31.58C159.821 31.14 160.261 30.8133 160.821 30.6C161.381 30.3733 162.008 30.26 162.701 30.26H166.001V29.54C166.001 28.8467 165.794 28.3 165.381 27.9C164.981 27.5 164.381 27.3 163.581 27.3C162.794 27.3 162.181 27.4933 161.741 27.88C161.301 28.2533 161.001 28.76 160.841 29.4L159.361 28.92C159.521 28.3733 159.774 27.88 160.121 27.44C160.468 26.9867 160.928 26.6267 161.501 26.36C162.088 26.08 162.788 25.94 163.601 25.94C164.854 25.94 165.828 26.2667 166.521 26.92C167.214 27.56 167.561 28.4667 167.561 29.64V34.06C167.561 34.46 167.748 34.66 168.121 34.66H169.021V36H167.641C167.201 36 166.848 35.88 166.581 35.64C166.314 35.3867 166.181 35.0533 166.181 34.64V34.54H165.941C165.794 34.7933 165.594 35.06 165.341 35.34C165.101 35.6067 164.768 35.8267 164.341 36C163.914 36.1867 163.361 36.28 162.681 36.28ZM162.861 34.92C163.794 34.92 164.548 34.6467 165.121 34.1C165.708 33.54 166.001 32.76 166.001 31.76V31.54H162.761C162.134 31.54 161.614 31.68 161.201 31.96C160.801 32.2267 160.601 32.6333 160.601 33.18C160.601 33.7267 160.808 34.1533 161.221 34.46C161.648 34.7667 162.194 34.92 162.861 34.92ZM176.605 36.28C175.592 36.28 174.798 36.0867 174.225 35.7C173.665 35.3133 173.258 34.8733 173.005 34.38H172.725V36H171.185V22H172.765V27.76H173.045C173.205 27.4533 173.432 27.1667 173.725 26.9C174.018 26.62 174.398 26.3933 174.865 26.22C175.345 26.0333 175.925 25.94 176.605 25.94C177.458 25.94 178.232 26.1467 178.925 26.56C179.632 26.96 180.192 27.54 180.605 28.3C181.018 29.0467 181.225 29.94 181.225 30.98V31.24C181.225 32.28 181.012 33.18 180.585 33.94C180.172 34.7 179.612 35.28 178.905 35.68C178.212 36.08 177.445 36.28 176.605 36.28ZM176.185 34.88C177.198 34.88 178.018 34.56 178.645 33.92C179.285 33.2667 179.605 32.36 179.605 31.2V31.02C179.605 29.86 179.285 28.96 178.645 28.32C178.018 27.6667 177.198 27.34 176.185 27.34C175.185 27.34 174.358 27.6667 173.705 28.32C173.065 28.96 172.745 29.86 172.745 31.02V31.2C172.745 32.36 173.065 33.2667 173.705 33.92C174.358 34.56 175.185 34.88 176.185 34.88ZM188.536 36.28C187.549 36.28 186.683 36.0733 185.936 35.66C185.189 35.2333 184.609 34.64 184.196 33.88C183.783 33.12 183.576 32.24 183.576 31.24V31C183.576 29.9867 183.783 29.1 184.196 28.34C184.609 27.58 185.183 26.9933 185.916 26.58C186.649 26.1533 187.489 25.94 188.436 25.94C189.356 25.94 190.169 26.14 190.876 26.54C191.583 26.9267 192.136 27.4867 192.536 28.22C192.936 28.9533 193.136 29.8133 193.136 30.8V31.52H185.156C185.196 32.5733 185.536 33.4 186.176 34C186.816 34.5867 187.616 34.88 188.576 34.88C189.416 34.88 190.063 34.6867 190.516 34.3C190.969 33.9133 191.316 33.4533 191.556 32.92L192.916 33.58C192.716 33.9933 192.436 34.4067 192.076 34.82C191.729 35.2333 191.269 35.58 190.696 35.86C190.136 36.14 189.416 36.28 188.536 36.28ZM185.176 30.22H191.536C191.483 29.3133 191.169 28.6067 190.596 28.1C190.036 27.5933 189.316 27.34 188.436 27.34C187.543 27.34 186.809 27.5933 186.236 28.1C185.663 28.6067 185.309 29.3133 185.176 30.22ZM195.892 36V22H197.472V36H195.892ZM199.514 40.7V39.32H202.114C202.474 39.32 202.654 39.12 202.654 38.72V32.64C202.654 32.16 202.781 31.7733 203.034 31.48C203.301 31.1867 203.668 31.04 204.134 31.04H204.274V30.76H204.134C203.668 30.76 203.301 30.6133 203.034 30.32C202.781 30.0267 202.654 29.64 202.654 29.16V23.08C202.654 22.68 202.474 22.48 202.114 22.48H199.514V21.1H202.634C203.074 21.1 203.441 21.2533 203.734 21.56C204.028 21.8533 204.174 22.2267 204.174 22.68V29.14C204.174 29.8067 204.534 30.14 205.254 30.14H206.994V31.66H205.254C204.534 31.66 204.174 31.9933 204.174 32.66V39.12C204.174 39.5733 204.028 39.9467 203.734 40.24C203.441 40.5467 203.074 40.7 202.634 40.7H199.514Z" fill="#FAFAFA"/>
<path d="M228.005 22.0533C228.176 21.8835 228.437 21.8625 228.63 21.9909L228.708 22.0556L235.265 28.6761L235.266 28.6771C235.46 28.8724 235.459 29.1861 235.264 29.3802L228.652 35.9481C228.456 36.1421 228.143 36.1411 227.949 35.9457C227.755 35.7504 227.756 35.4269 227.951 35.2329L233.703 29.5185L221.327 29.4774C221.053 29.4765 220.828 29.2495 220.828 28.9757C220.829 28.7019 221.056 28.4765 221.33 28.4774L233.704 28.5185L232.857 27.6622L228.003 22.7564L228.002 22.7554C227.809 22.5601 227.81 22.2473 228.005 22.0533Z" fill="black" stroke="#FAFAFA"/>
<path d="M5.40493 136.196C4.7796 136.196 4.29893 136.089 3.96293 135.874C3.62693 135.659 3.3796 135.421 3.22093 135.16H2.96893V136H1.23293V126.2H2.99693V129.854H3.24893C3.3516 129.686 3.48693 129.527 3.65493 129.378C3.83226 129.229 4.06093 129.107 4.34093 129.014C4.63026 128.911 4.98493 128.86 5.40493 128.86C5.96493 128.86 6.48293 129 6.95893 129.28C7.43493 129.551 7.8176 129.952 8.10693 130.484C8.39626 131.016 8.54093 131.66 8.54093 132.416V132.64C8.54093 133.396 8.39626 134.04 8.10693 134.572C7.8176 135.104 7.43493 135.51 6.95893 135.79C6.48293 136.061 5.96493 136.196 5.40493 136.196ZM4.87293 134.656C5.41426 134.656 5.86693 134.483 6.23093 134.138C6.59493 133.783 6.77693 133.27 6.77693 132.598V132.458C6.77693 131.786 6.59493 131.277 6.23093 130.932C5.87626 130.577 5.4236 130.4 4.87293 130.4C4.3316 130.4 3.87893 130.577 3.51493 130.932C3.15093 131.277 2.96893 131.786 2.96893 132.458V132.598C2.96893 133.27 3.15093 133.783 3.51493 134.138C3.87893 134.483 4.3316 134.656 4.87293 134.656ZM12.8067 136.112C12.2653 136.112 11.7893 135.991 11.3787 135.748C10.9773 135.496 10.6647 135.151 10.4407 134.712C10.2167 134.273 10.1047 133.769 10.1047 133.2V129.056H11.8687V133.06C11.8687 133.583 11.9947 133.975 12.2467 134.236C12.508 134.497 12.8767 134.628 13.3527 134.628C13.894 134.628 14.314 134.451 14.6127 134.096C14.9113 133.732 15.0607 133.228 15.0607 132.584V129.056H16.8247V136H15.0887V135.09H14.8367C14.7247 135.323 14.5147 135.552 14.2067 135.776C13.8987 136 13.432 136.112 12.8067 136.112ZM21.4476 136C20.9903 136 20.617 135.86 20.3276 135.58C20.0476 135.291 19.9076 134.908 19.9076 134.432V130.512H18.1716V129.056H19.9076V126.9H21.6716V129.056H23.1556V130.512H21.6716V134.124C21.6716 134.404 21.8023 134.544 22.0636 134.544H23.4076V136H21.4476ZM26.0116 136C25.5543 136 25.181 135.86 24.8916 135.58C24.6116 135.291 24.4716 134.908 24.4716 134.432V130.512H23.1556V129.056H24.4716V126.9H26.2356V129.056H28.1396V130.512H26.2356V134.124C26.2356 134.404 26.3663 134.544 26.6276 134.544H27.9716V136H26.0116ZM33.0428 136.196C32.3521 136.196 31.7315 136.056 31.1808 135.776C30.6301 135.496 30.1961 135.09 29.8788 134.558C29.5615 134.026 29.4028 133.387 29.4028 132.64V132.416C29.4028 131.669 29.5615 131.03 29.8788 130.498C30.1961 129.966 30.6301 129.56 31.1808 129.28C31.7315 129 32.3521 128.86 33.0428 128.86C33.7335 128.86 34.3541 129 34.9048 129.28C35.4555 129.56 35.8895 129.966 36.2068 130.498C36.5241 131.03 36.6828 131.669 36.6828 132.416V132.64C36.6828 133.387 36.5241 134.026 36.2068 134.558C35.8895 135.09 35.4555 135.496 34.9048 135.776C34.3541 136.056 33.7335 136.196 33.0428 136.196ZM33.0428 134.628C33.5841 134.628 34.0321 134.455 34.3868 134.11C34.7415 133.755 34.9188 133.251 34.9188 132.598V132.458C34.9188 131.805 34.7415 131.305 34.3868 130.96C34.0415 130.605 33.5935 130.428 33.0428 130.428C32.5015 130.428 32.0535 130.605 31.6988 130.96C31.3441 131.305 31.1668 131.805 31.1668 132.458V132.598C31.1668 133.251 31.3441 133.755 31.6988 134.11C32.0535 134.455 32.5015 134.628 33.0428 134.628ZM38.3111 136V129.056H40.0471V129.966H40.2991C40.4111 129.723 40.6211 129.495 40.9291 129.28C41.2371 129.056 41.7037 128.944 42.3291 128.944C42.8704 128.944 43.3417 129.07 43.7431 129.322C44.1537 129.565 44.4711 129.905 44.6951 130.344C44.9191 130.773 45.0311 131.277 45.0311 131.856V136H43.2671V131.996C43.2671 131.473 43.1364 131.081 42.8751 130.82C42.6231 130.559 42.2591 130.428 41.7831 130.428C41.2417 130.428 40.8217 130.61 40.5231 130.974C40.2244 131.329 40.0751 131.828 40.0751 132.472V136H38.3111ZM46.91 133.228V131.632H51.054V133.228H46.91ZM52.981 136V126.2H54.745V136H52.981ZM58.8557 136.196C58.3611 136.196 57.9177 136.112 57.5257 135.944C57.1337 135.767 56.8211 135.515 56.5877 135.188C56.3637 134.852 56.2517 134.446 56.2517 133.97C56.2517 133.494 56.3637 133.097 56.5877 132.78C56.8211 132.453 57.1384 132.211 57.5397 132.052C57.9504 131.884 58.4171 131.8 58.9397 131.8H60.8437V131.408C60.8437 131.081 60.7411 130.815 60.5357 130.61C60.3304 130.395 60.0037 130.288 59.5557 130.288C59.1171 130.288 58.7904 130.391 58.5757 130.596C58.3611 130.792 58.2211 131.049 58.1557 131.366L56.5317 130.82C56.6437 130.465 56.8211 130.143 57.0637 129.854C57.3157 129.555 57.6471 129.317 58.0577 129.14C58.4777 128.953 58.9864 128.86 59.5837 128.86C60.4984 128.86 61.2217 129.089 61.7537 129.546C62.2857 130.003 62.5517 130.666 62.5517 131.534V134.124C62.5517 134.404 62.6824 134.544 62.9437 134.544H63.5037V136H62.3277C61.9824 136 61.6977 135.916 61.4737 135.748C61.2497 135.58 61.1377 135.356 61.1377 135.076V135.062H60.8717C60.8344 135.174 60.7504 135.323 60.6197 135.51C60.4891 135.687 60.2837 135.846 60.0037 135.986C59.7237 136.126 59.3411 136.196 58.8557 136.196ZM59.1637 134.768C59.6584 134.768 60.0597 134.633 60.3677 134.362C60.6851 134.082 60.8437 133.713 60.8437 133.256V133.116H59.0657C58.7391 133.116 58.4824 133.186 58.2957 133.326C58.1091 133.466 58.0157 133.662 58.0157 133.914C58.0157 134.166 58.1137 134.371 58.3097 134.53C58.5057 134.689 58.7904 134.768 59.1637 134.768ZM68.9655 136.196C68.3401 136.196 67.8595 136.089 67.5235 135.874C67.1875 135.659 66.9401 135.421 66.7815 135.16H66.5295V136H64.7935V126.2H66.5575V129.854H66.8095C66.9121 129.686 67.0475 129.527 67.2155 129.378C67.3928 129.229 67.6215 129.107 67.9015 129.014C68.1908 128.911 68.5455 128.86 68.9655 128.86C69.5255 128.86 70.0435 129 70.5195 129.28C70.9955 129.551 71.3781 129.952 71.6675 130.484C71.9568 131.016 72.1015 131.66 72.1015 132.416V132.64C72.1015 133.396 71.9568 134.04 71.6675 134.572C71.3781 135.104 70.9955 135.51 70.5195 135.79C70.0435 136.061 69.5255 136.196 68.9655 136.196ZM68.4335 134.656C68.9748 134.656 69.4275 134.483 69.7915 134.138C70.1555 133.783 70.3375 133.27 70.3375 132.598V132.458C70.3375 131.786 70.1555 131.277 69.7915 130.932C69.4368 130.577 68.9841 130.4 68.4335 130.4C67.8921 130.4 67.4395 130.577 67.0755 130.932C66.7115 131.277 66.5295 131.786 66.5295 132.458V132.598C66.5295 133.27 66.7115 133.783 67.0755 134.138C67.4395 134.483 67.8921 134.656 68.4335 134.656ZM76.8852 136.196C76.1945 136.196 75.5832 136.051 75.0512 135.762C74.5285 135.463 74.1179 135.048 73.8192 134.516C73.5299 133.975 73.3852 133.34 73.3852 132.612V132.444C73.3852 131.716 73.5299 131.086 73.8192 130.554C74.1085 130.013 74.5145 129.597 75.0372 129.308C75.5599 129.009 76.1665 128.86 76.8572 128.86C77.5385 128.86 78.1312 129.014 78.6352 129.322C79.1392 129.621 79.5312 130.041 79.8112 130.582C80.0912 131.114 80.2312 131.735 80.2312 132.444V133.046H75.1772C75.1959 133.522 75.3732 133.909 75.7092 134.208C76.0452 134.507 76.4559 134.656 76.9412 134.656C77.4359 134.656 77.7999 134.549 78.0332 134.334C78.2665 134.119 78.4439 133.881 78.5652 133.62L80.0072 134.376C79.8765 134.619 79.6852 134.885 79.4332 135.174C79.1905 135.454 78.8639 135.697 78.4532 135.902C78.0425 136.098 77.5199 136.196 76.8852 136.196ZM75.1912 131.73H78.4392C78.4019 131.329 78.2385 131.007 77.9492 130.764C77.6692 130.521 77.3005 130.4 76.8432 130.4C76.3672 130.4 75.9892 130.521 75.7092 130.764C75.4292 131.007 75.2565 131.329 75.1912 131.73ZM81.8013 136V126.2H83.5653V136H81.8013ZM85.492 133.228V131.632H89.636V133.228H85.492ZM91.563 138.8V129.056H93.299V129.896H93.551C93.7097 129.625 93.957 129.387 94.293 129.182C94.629 128.967 95.1097 128.86 95.735 128.86C96.295 128.86 96.813 129 97.289 129.28C97.765 129.551 98.1477 129.952 98.437 130.484C98.7263 131.016 98.871 131.66 98.871 132.416V132.64C98.871 133.396 98.7263 134.04 98.437 134.572C98.1477 135.104 97.765 135.51 97.289 135.79C96.813 136.061 96.295 136.196 95.735 136.196C95.315 136.196 94.9603 136.145 94.671 136.042C94.391 135.949 94.1623 135.827 93.985 135.678C93.817 135.519 93.6817 135.361 93.579 135.202H93.327V138.8H91.563ZM95.203 134.656C95.7537 134.656 96.2063 134.483 96.561 134.138C96.925 133.783 97.107 133.27 97.107 132.598V132.458C97.107 131.786 96.925 131.277 96.561 130.932C96.197 130.577 95.7443 130.4 95.203 130.4C94.6617 130.4 94.209 130.577 93.845 130.932C93.481 131.277 93.299 131.786 93.299 132.458V132.598C93.299 133.27 93.481 133.783 93.845 134.138C94.209 134.483 94.6617 134.656 95.203 134.656ZM100.491 136V129.056H102.227V129.84H102.479C102.581 129.56 102.749 129.355 102.983 129.224C103.225 129.093 103.505 129.028 103.823 129.028H104.663V130.596H103.795C103.347 130.596 102.978 130.717 102.689 130.96C102.399 131.193 102.255 131.557 102.255 132.052V136H100.491ZM106.042 136V129.056H107.806V136H106.042ZM106.924 128.244C106.606 128.244 106.336 128.141 106.112 127.936C105.897 127.731 105.79 127.46 105.79 127.124C105.79 126.788 105.897 126.517 106.112 126.312C106.336 126.107 106.606 126.004 106.924 126.004C107.25 126.004 107.521 126.107 107.736 126.312C107.95 126.517 108.058 126.788 108.058 127.124C108.058 127.46 107.95 127.731 107.736 127.936C107.521 128.141 107.25 128.244 106.924 128.244ZM109.76 136V129.056H111.496V129.812H111.748C111.87 129.579 112.07 129.378 112.35 129.21C112.63 129.033 112.999 128.944 113.456 128.944C113.951 128.944 114.348 129.042 114.646 129.238C114.945 129.425 115.174 129.672 115.332 129.98H115.584C115.743 129.681 115.967 129.434 116.256 129.238C116.546 129.042 116.956 128.944 117.488 128.944C117.918 128.944 118.305 129.037 118.65 129.224C119.005 129.401 119.285 129.677 119.49 130.05C119.705 130.414 119.812 130.876 119.812 131.436V136H118.048V131.562C118.048 131.179 117.95 130.895 117.754 130.708C117.558 130.512 117.283 130.414 116.928 130.414C116.527 130.414 116.214 130.545 115.99 130.806C115.776 131.058 115.668 131.422 115.668 131.898V136H113.904V131.562C113.904 131.179 113.806 130.895 113.61 130.708C113.414 130.512 113.139 130.414 112.784 130.414C112.383 130.414 112.07 130.545 111.846 130.806C111.632 131.058 111.524 131.422 111.524 131.898V136H109.76ZM123.865 136.196C123.371 136.196 122.927 136.112 122.535 135.944C122.143 135.767 121.831 135.515 121.597 135.188C121.373 134.852 121.261 134.446 121.261 133.97C121.261 133.494 121.373 133.097 121.597 132.78C121.831 132.453 122.148 132.211 122.549 132.052C122.96 131.884 123.427 131.8 123.949 131.8H125.853V131.408C125.853 131.081 125.751 130.815 125.545 130.61C125.34 130.395 125.013 130.288 124.565 130.288C124.127 130.288 123.8 130.391 123.585 130.596C123.371 130.792 123.231 131.049 123.165 131.366L121.541 130.82C121.653 130.465 121.831 130.143 122.073 129.854C122.325 129.555 122.657 129.317 123.067 129.14C123.487 128.953 123.996 128.86 124.593 128.86C125.508 128.86 126.231 129.089 126.763 129.546C127.295 130.003 127.561 130.666 127.561 131.534V134.124C127.561 134.404 127.692 134.544 127.953 134.544H128.513V136H127.337C126.992 136 126.707 135.916 126.483 135.748C126.259 135.58 126.147 135.356 126.147 135.076V135.062H125.881C125.844 135.174 125.76 135.323 125.629 135.51C125.499 135.687 125.293 135.846 125.013 135.986C124.733 136.126 124.351 136.196 123.865 136.196ZM124.173 134.768C124.668 134.768 125.069 134.633 125.377 134.362C125.695 134.082 125.853 133.713 125.853 133.256V133.116H124.075C123.749 133.116 123.492 133.186 123.305 133.326C123.119 133.466 123.025 133.662 123.025 133.914C123.025 134.166 123.123 134.371 123.319 134.53C123.515 134.689 123.8 134.768 124.173 134.768ZM129.803 136V129.056H131.539V129.84H131.791C131.894 129.56 132.062 129.355 132.295 129.224C132.538 129.093 132.818 129.028 133.135 129.028H133.975V130.596H133.107C132.659 130.596 132.291 130.717 132.001 130.96C131.712 131.193 131.567 131.557 131.567 132.052V136H129.803ZM136.11 138.8V137.26H139.89C140.151 137.26 140.282 137.12 140.282 136.84V135.09H140.03C139.955 135.249 139.839 135.407 139.68 135.566C139.521 135.725 139.307 135.855 139.036 135.958C138.765 136.061 138.42 136.112 138 136.112C137.459 136.112 136.983 135.991 136.572 135.748C136.171 135.496 135.858 135.151 135.634 134.712C135.41 134.273 135.298 133.769 135.298 133.2V129.056H137.062V133.06C137.062 133.583 137.188 133.975 137.44 134.236C137.701 134.497 138.07 134.628 138.546 134.628C139.087 134.628 139.507 134.451 139.806 134.096C140.105 133.732 140.254 133.228 140.254 132.584V129.056H142.018V137.232C142.018 137.708 141.878 138.086 141.598 138.366C141.318 138.655 140.945 138.8 140.478 138.8H136.11ZM145.087 136.196C144.714 136.196 144.396 136.075 144.135 135.832C143.883 135.58 143.757 135.258 143.757 134.866C143.757 134.474 143.883 134.157 144.135 133.914C144.396 133.662 144.714 133.536 145.087 133.536C145.47 133.536 145.787 133.662 146.039 133.914C146.291 134.157 146.417 134.474 146.417 134.866C146.417 135.258 146.291 135.58 146.039 135.832C145.787 136.075 145.47 136.196 145.087 136.196ZM145.087 131.52C144.714 131.52 144.396 131.399 144.135 131.156C143.883 130.904 143.757 130.582 143.757 130.19C143.757 129.798 143.883 129.481 144.135 129.238C144.396 128.986 144.714 128.86 145.087 128.86C145.47 128.86 145.787 128.986 146.039 129.238C146.291 129.481 146.417 129.798 146.417 130.19C146.417 130.582 146.291 130.904 146.039 131.156C145.787 131.399 145.47 131.52 145.087 131.52ZM152.84 136L151.468 129.154H152.588L153.722 135.258H153.918L155.416 129.154H157.25L158.748 135.258H158.944L160.078 129.154H161.198L159.826 136H157.936L156.424 129.896H156.242L154.73 136H152.84ZM163.099 136V126.2H164.205V130.246H164.401C164.494 130.041 164.634 129.849 164.821 129.672C165.017 129.485 165.264 129.331 165.563 129.21C165.871 129.089 166.258 129.028 166.725 129.028C167.238 129.028 167.695 129.14 168.097 129.364C168.507 129.579 168.834 129.896 169.077 130.316C169.319 130.727 169.441 131.24 169.441 131.856V136H168.335V131.94C168.335 131.259 168.162 130.764 167.817 130.456C167.481 130.148 167.023 129.994 166.445 129.994C165.782 129.994 165.241 130.209 164.821 130.638C164.41 131.067 164.205 131.707 164.205 132.556V136H163.099ZM171.684 136V129.154H172.79V136H171.684ZM172.244 128.09C172.002 128.09 171.796 128.011 171.628 127.852C171.47 127.693 171.39 127.493 171.39 127.25C171.39 126.998 171.47 126.793 171.628 126.634C171.796 126.475 172.002 126.396 172.244 126.396C172.487 126.396 172.688 126.475 172.846 126.634C173.005 126.793 173.084 126.998 173.084 127.25C173.084 127.493 173.005 127.693 172.846 127.852C172.688 128.011 172.487 128.09 172.244 128.09ZM177.636 136C177.244 136 176.941 135.893 176.726 135.678C176.521 135.463 176.418 135.169 176.418 134.796V130.12H174.36V129.154H176.418V126.718H177.524V129.154H179.764V130.12H177.524V134.628C177.524 134.908 177.659 135.048 177.93 135.048H179.456V136H177.636ZM184.445 136.196C183.755 136.196 183.148 136.051 182.625 135.762C182.103 135.463 181.697 135.048 181.407 134.516C181.118 133.984 180.973 133.368 180.973 132.668V132.5C180.973 131.791 181.118 131.17 181.407 130.638C181.697 130.106 182.098 129.695 182.611 129.406C183.125 129.107 183.713 128.958 184.375 128.958C185.019 128.958 185.589 129.098 186.083 129.378C186.578 129.649 186.965 130.041 187.245 130.554C187.525 131.067 187.665 131.669 187.665 132.36V132.864H182.079C182.107 133.601 182.345 134.18 182.793 134.6C183.241 135.011 183.801 135.216 184.473 135.216C185.061 135.216 185.514 135.081 185.831 134.81C186.149 134.539 186.391 134.217 186.559 133.844L187.511 134.306C187.371 134.595 187.175 134.885 186.923 135.174C186.681 135.463 186.359 135.706 185.957 135.902C185.565 136.098 185.061 136.196 184.445 136.196ZM182.093 131.954H186.545C186.508 131.319 186.289 130.825 185.887 130.47C185.495 130.115 184.991 129.938 184.375 129.938C183.75 129.938 183.237 130.115 182.835 130.47C182.434 130.825 182.187 131.319 182.093 131.954ZM189.539 132.906V131.884H193.683V132.906H189.539ZM198.402 136V126.956H198.192L196.288 130.442H195.056L197.394 126.2H199.536V136H198.402ZM205.135 136.196C204.025 136.196 203.138 135.869 202.475 135.216C201.822 134.553 201.495 133.564 201.495 132.248V129.952C201.495 128.645 201.822 127.661 202.475 126.998C203.138 126.335 204.025 126.004 205.135 126.004C206.255 126.004 207.142 126.335 207.795 126.998C208.458 127.661 208.789 128.645 208.789 129.952V132.248C208.789 133.564 208.458 134.553 207.795 135.216C207.142 135.869 206.255 136.196 205.135 136.196ZM205.135 135.174C205.975 135.174 206.605 134.922 207.025 134.418C207.445 133.914 207.655 133.209 207.655 132.304V129.882C207.655 128.977 207.441 128.277 207.011 127.782C206.582 127.278 205.957 127.026 205.135 127.026C204.314 127.026 203.689 127.278 203.259 127.782C202.839 128.286 202.629 128.986 202.629 129.882V132.304C202.629 133.219 202.839 133.928 203.259 134.432C203.679 134.927 204.305 135.174 205.135 135.174ZM218.386 139.29C217.49 139.29 216.715 139.131 216.062 138.814C215.418 138.497 214.923 137.997 214.578 137.316C214.232 136.644 214.06 135.771 214.06 134.698V130.162C214.06 129.079 214.232 128.202 214.578 127.53C214.923 126.858 215.418 126.363 216.062 126.046C216.715 125.729 217.49 125.57 218.386 125.57V126.536C217.275 126.545 216.454 126.853 215.922 127.46C215.39 128.057 215.124 128.981 215.124 130.232V134.628C215.124 135.869 215.39 136.793 215.922 137.4C216.454 138.007 217.275 138.315 218.386 138.324V139.29ZM220.89 136V133.144H219.126V132.178H220.89V130.022H219.126V129.056H220.89V126.2H221.912V129.056H223.914V126.2H224.936V129.056H226.714V130.022H224.936V132.178H226.714V133.144H224.936V136H223.914V133.144H221.912V136H220.89ZM221.912 132.178H223.914V130.022H221.912V132.178ZM228.435 136V126.2H234.357V127.264H229.611V130.554H233.979V131.618H229.611V136H228.435ZM234.611 136L237.635 126.2H239.707L242.731 136H241.513L240.757 133.522H236.585L235.829 136H234.611ZM236.879 132.458H240.449L238.769 126.914H238.573L236.879 132.458ZM244.199 136V126.2H250.121V127.264H245.375V130.554H249.743V131.618H245.375V136H244.199ZM250.374 136L253.398 126.2H255.47L258.494 136H257.276L256.52 133.522H252.348L251.592 136H250.374ZM252.642 132.458H256.212L254.532 126.914H254.336L252.642 132.458ZM259.963 136V126.2H265.885V127.264H261.139V130.554H265.507V131.618H261.139V136H259.963ZM266.138 136L269.162 126.2H271.234L274.258 136H273.04L272.284 133.522H268.112L267.356 136H266.138ZM268.406 132.458H271.976L270.296 126.914H270.1L268.406 132.458ZM274.568 139.29V138.324C275.697 138.315 276.523 138.007 277.046 137.4C277.568 136.793 277.83 135.869 277.83 134.628V130.232C277.83 128.981 277.568 128.057 277.046 127.46C276.523 126.853 275.697 126.545 274.568 126.536V125.57C275.473 125.57 276.248 125.729 276.892 126.046C277.536 126.363 278.03 126.858 278.376 127.53C278.73 128.202 278.908 129.079 278.908 130.162V134.698C278.908 135.771 278.73 136.644 278.376 137.316C278.03 137.997 277.536 138.497 276.892 138.814C276.248 139.131 275.473 139.29 274.568 139.29Z" fill="#1C1917"/>
<path d="M141 42.6667C138.054 42.6667 135.667 45.0545 135.667 48C135.667 50.9455 138.054 53.3333 141 53.3333C143.946 53.3333 146.333 50.9455 146.333 48C146.333 45.0545 143.946 42.6667 141 42.6667ZM141 113.774L146.774 108L141 102.226L135.226 108L141 113.774ZM141 48L140 48L140 108L141 108L142 108L142 48L141 48Z" fill="#2DD4BF"/>
<path d="M49.4167 48C49.4167 50.9455 51.8045 53.3333 54.75 53.3333C57.6955 53.3333 60.0833 50.9455 60.0833 48C60.0833 45.0545 57.6955 42.6667 54.75 42.6667C51.8045 42.6667 49.4167 45.0545 49.4167 48ZM54.75 77H53.75V78H54.75V77ZM54.75 48H53.75V77H54.75H55.75V48H54.75ZM54.75 77V78H140.75V77V76H54.75V77Z" fill="#2DD4BF"/>
<path d="M232.333 48C232.333 50.9455 229.946 53.3333 227 53.3333C224.054 53.3333 221.667 50.9455 221.667 48C221.667 45.0545 224.054 42.6667 227 42.6667C229.946 42.6667 232.333 45.0545 232.333 48ZM227 77H228V78H227V77ZM227 48H228V77H227H226V48H227ZM227 77V78H141V77V76H227V77Z" fill="#2DD4BF"/>
<path d="M374 0.5H617.159C617.988 0.5 618.659 1.17157 618.659 2V56C618.659 56.8284 617.988 57.5 617.159 57.5H374C373.172 57.5 372.5 56.8284 372.5 56V2L372.508 1.84668C372.579 1.14069 373.141 0.579491 373.847 0.507812L374 0.5Z" fill="#FFFBEB"/>
<path d="M374 0.5H617.159C617.988 0.5 618.659 1.17157 618.659 2V56C618.659 56.8284 617.988 57.5 617.159 57.5H374C373.172 57.5 372.5 56.8284 372.5 56V2L372.508 1.84668C372.579 1.14069 373.141 0.579491 373.847 0.507812L374 0.5Z" stroke="#1C1917"/>
<path d="M407.508 22.0568C407.703 21.8627 408.016 21.8637 408.21 22.0591C408.404 22.2545 408.403 22.5779 408.208 22.772L402.455 28.4863L414.832 28.5274C415.106 28.5283 415.332 28.7552 415.331 29.0291C415.33 29.3028 415.103 29.5283 414.829 29.5274L402.452 29.4863L408.166 35.2387C408.36 35.4341 408.359 35.7477 408.164 35.9418C407.969 36.1354 407.656 36.1344 407.462 35.9395L400.894 29.3268C400.7 29.1314 400.701 28.8188 400.896 28.6247L407.508 22.0568Z" fill="black" stroke="#44403C"/>
<path d="M433.22 40.7C432.78 40.7 432.406 40.5467 432.1 40.24C431.806 39.9467 431.66 39.5733 431.66 39.12V32.66C431.66 31.9933 431.3 31.66 430.58 31.66H428.86V30.14H430.58C431.3 30.14 431.66 29.8067 431.66 29.14V22.68C431.66 22.2267 431.806 21.8533 432.1 21.56C432.406 21.2533 432.78 21.1 433.22 21.1H436.34V22.48H433.74C433.38 22.48 433.2 22.68 433.2 23.08V29.16C433.2 29.64 433.066 30.0267 432.8 30.32C432.546 30.6133 432.186 30.76 431.72 30.76H431.58V31.04H431.72C432.186 31.04 432.546 31.1867 432.8 31.48C433.066 31.7733 433.2 32.16 433.2 32.64V38.72C433.2 39.12 433.38 39.32 433.74 39.32H436.34V40.7H433.22ZM443.792 36.28C442.779 36.28 441.986 36.0867 441.412 35.7C440.852 35.3133 440.446 34.8733 440.192 34.38H439.912V36H438.372V22H439.952V27.76H440.232C440.392 27.4533 440.619 27.1667 440.912 26.9C441.206 26.62 441.586 26.3933 442.052 26.22C442.532 26.0333 443.112 25.94 443.792 25.94C444.646 25.94 445.419 26.1467 446.112 26.56C446.819 26.96 447.379 27.54 447.792 28.3C448.206 29.0467 448.412 29.94 448.412 30.98V31.24C448.412 32.28 448.199 33.18 447.772 33.94C447.359 34.7 446.799 35.28 446.092 35.68C445.399 36.08 444.632 36.28 443.792 36.28ZM443.372 34.88C444.386 34.88 445.206 34.56 445.832 33.92C446.472 33.2667 446.792 32.36 446.792 31.2V31.02C446.792 29.86 446.472 28.96 445.832 28.32C445.206 27.6667 444.386 27.34 443.372 27.34C442.372 27.34 441.546 27.6667 440.892 28.32C440.252 28.96 439.932 29.86 439.932 31.02V31.2C439.932 32.36 440.252 33.2667 440.892 33.92C441.546 34.56 442.372 34.88 443.372 34.88ZM454.983 36.18C454.277 36.18 453.623 36.0267 453.023 35.72C452.437 35.4133 451.97 34.96 451.623 34.36C451.29 33.7467 451.123 33.0067 451.123 32.14V26.22H452.703V32.02C452.703 32.9933 452.943 33.7 453.423 34.14C453.917 34.58 454.577 34.8 455.403 34.8C456.337 34.8 457.103 34.4933 457.703 33.88C458.303 33.2667 458.603 32.3533 458.603 31.14V26.22H460.183V36H458.643V34.34H458.363C458.15 34.8067 457.783 35.2333 457.263 35.62C456.743 35.9933 455.983 36.18 454.983 36.18ZM467.09 36C466.53 36 466.096 35.8467 465.79 35.54C465.496 35.2333 465.35 34.8133 465.35 34.28V27.6H462.41V26.22H465.35V22.74H466.93V26.22H469.49V27.6H466.93V34.04C466.93 34.44 467.123 34.64 467.51 34.64H469.69V36H467.09ZM473.53 36C472.97 36 472.536 35.8467 472.23 35.54C471.923 35.2333 471.77 34.8133 471.77 34.28V27.6H469.49V26.22H471.77V22.74H473.35V26.22H476.57V27.6H473.35V34.04C473.35 34.44 473.55 34.64 473.95 34.64H476.13V36H473.53ZM483.654 36.28C482.667 36.28 481.794 36.0733 481.034 35.66C480.287 35.2467 479.701 34.6667 479.274 33.92C478.861 33.16 478.654 32.2667 478.654 31.24V30.98C478.654 29.9667 478.861 29.08 479.274 28.32C479.701 27.56 480.287 26.9733 481.034 26.56C481.794 26.1467 482.667 25.94 483.654 25.94C484.641 25.94 485.507 26.1467 486.254 26.56C487.014 26.9733 487.601 27.56 488.014 28.32C488.441 29.08 488.654 29.9667 488.654 30.98V31.24C488.654 32.2667 488.441 33.16 488.014 33.92C487.601 34.6667 487.014 35.2467 486.254 35.66C485.507 36.0733 484.641 36.28 483.654 36.28ZM483.654 34.86C484.694 34.86 485.521 34.5333 486.134 33.88C486.761 33.2133 487.074 32.32 487.074 31.2V31.02C487.074 29.9 486.761 29.0133 486.134 28.36C485.521 27.6933 484.694 27.36 483.654 27.36C482.627 27.36 481.801 27.6933 481.174 28.36C480.547 29.0133 480.234 29.9 480.234 31.02V31.2C480.234 32.32 480.547 33.2133 481.174 33.88C481.801 34.5333 482.627 34.86 483.654 34.86ZM491.497 36V26.22H493.037V27.88H493.317C493.531 27.4133 493.891 26.9933 494.397 26.62C494.917 26.2333 495.677 26.04 496.677 26.04C497.411 26.04 498.064 26.1933 498.637 26.5C499.224 26.8067 499.691 27.26 500.037 27.86C500.384 28.46 500.557 29.2 500.557 30.08V36H498.977V30.2C498.977 29.2267 498.731 28.52 498.237 28.08C497.757 27.64 497.104 27.42 496.277 27.42C495.331 27.42 494.557 27.7267 493.957 28.34C493.371 28.9533 493.077 29.8667 493.077 31.08V36H491.497ZM503.703 36V22H505.383V34.48H512.463V36H503.703ZM517.681 36.28C517.001 36.28 516.381 36.16 515.821 35.92C515.261 35.68 514.821 35.3333 514.501 34.88C514.181 34.4267 514.021 33.8733 514.021 33.22C514.021 32.5533 514.181 32.0067 514.501 31.58C514.821 31.14 515.261 30.8133 515.821 30.6C516.381 30.3733 517.008 30.26 517.701 30.26H521.001V29.54C521.001 28.8467 520.794 28.3 520.381 27.9C519.981 27.5 519.381 27.3 518.581 27.3C517.794 27.3 517.181 27.4933 516.741 27.88C516.301 28.2533 516.001 28.76 515.841 29.4L514.361 28.92C514.521 28.3733 514.774 27.88 515.121 27.44C515.468 26.9867 515.928 26.6267 516.501 26.36C517.088 26.08 517.788 25.94 518.601 25.94C519.854 25.94 520.828 26.2667 521.521 26.92C522.214 27.56 522.561 28.4667 522.561 29.64V34.06C522.561 34.46 522.748 34.66 523.121 34.66H524.021V36H522.641C522.201 36 521.848 35.88 521.581 35.64C521.314 35.3867 521.181 35.0533 521.181 34.64V34.54H520.941C520.794 34.7933 520.594 35.06 520.341 35.34C520.101 35.6067 519.768 35.8267 519.341 36C518.914 36.1867 518.361 36.28 517.681 36.28ZM517.861 34.92C518.794 34.92 519.548 34.6467 520.121 34.1C520.708 33.54 521.001 32.76 521.001 31.76V31.54H517.761C517.134 31.54 516.614 31.68 516.201 31.96C515.801 32.2267 515.601 32.6333 515.601 33.18C515.601 33.7267 515.808 34.1533 516.221 34.46C516.648 34.7667 517.194 34.92 517.861 34.92ZM531.605 36.28C530.592 36.28 529.798 36.0867 529.225 35.7C528.665 35.3133 528.258 34.8733 528.005 34.38H527.725V36H526.185V22H527.765V27.76H528.045C528.205 27.4533 528.432 27.1667 528.725 26.9C529.018 26.62 529.398 26.3933 529.865 26.22C530.345 26.0333 530.925 25.94 531.605 25.94C532.458 25.94 533.232 26.1467 533.925 26.56C534.632 26.96 535.192 27.54 535.605 28.3C536.018 29.0467 536.225 29.94 536.225 30.98V31.24C536.225 32.28 536.012 33.18 535.585 33.94C535.172 34.7 534.612 35.28 533.905 35.68C533.212 36.08 532.445 36.28 531.605 36.28ZM531.185 34.88C532.198 34.88 533.018 34.56 533.645 33.92C534.285 33.2667 534.605 32.36 534.605 31.2V31.02C534.605 29.86 534.285 28.96 533.645 28.32C533.018 27.6667 532.198 27.34 531.185 27.34C530.185 27.34 529.358 27.6667 528.705 28.32C528.065 28.96 527.745 29.86 527.745 31.02V31.2C527.745 32.36 528.065 33.2667 528.705 33.92C529.358 34.56 530.185 34.88 531.185 34.88ZM543.536 36.28C542.549 36.28 541.683 36.0733 540.936 35.66C540.189 35.2333 539.609 34.64 539.196 33.88C538.783 33.12 538.576 32.24 538.576 31.24V31C538.576 29.9867 538.783 29.1 539.196 28.34C539.609 27.58 540.183 26.9933 540.916 26.58C541.649 26.1533 542.489 25.94 543.436 25.94C544.356 25.94 545.169 26.14 545.876 26.54C546.583 26.9267 547.136 27.4867 547.536 28.22C547.936 28.9533 548.136 29.8133 548.136 30.8V31.52H540.156C540.196 32.5733 540.536 33.4 541.176 34C541.816 34.5867 542.616 34.88 543.576 34.88C544.416 34.88 545.063 34.6867 545.516 34.3C545.969 33.9133 546.316 33.4533 546.556 32.92L547.916 33.58C547.716 33.9933 547.436 34.4067 547.076 34.82C546.729 35.2333 546.269 35.58 545.696 35.86C545.136 36.14 544.416 36.28 543.536 36.28ZM540.176 30.22H546.536C546.483 29.3133 546.169 28.6067 545.596 28.1C545.036 27.5933 544.316 27.34 543.436 27.34C542.543 27.34 541.809 27.5933 541.236 28.1C540.663 28.6067 540.309 29.3133 540.176 30.22ZM550.892 36V22H552.472V36H550.892ZM554.514 40.7V39.32H557.114C557.474 39.32 557.654 39.12 557.654 38.72V32.64C557.654 32.16 557.781 31.7733 558.034 31.48C558.301 31.1867 558.668 31.04 559.134 31.04H559.274V30.76H559.134C558.668 30.76 558.301 30.6133 558.034 30.32C557.781 30.0267 557.654 29.64 557.654 29.16V23.08C557.654 22.68 557.474 22.48 557.114 22.48H554.514V21.1H557.634C558.074 21.1 558.441 21.2533 558.734 21.56C559.028 21.8533 559.174 22.2267 559.174 22.68V29.14C559.174 29.8067 559.534 30.14 560.254 30.14H561.994V31.66H560.254C559.534 31.66 559.174 31.9933 559.174 32.66V39.12C559.174 39.5733 559.028 39.9467 558.734 40.24C558.441 40.5467 558.074 40.7 557.634 40.7H554.514Z" fill="#44403C"/>
<path d="M583.005 22.0533C583.176 21.8835 583.437 21.8625 583.63 21.9909L583.708 22.0556L590.265 28.6761L590.266 28.6771C590.46 28.8724 590.459 29.1861 590.264 29.3802L583.652 35.9481C583.456 36.1421 583.143 36.1411 582.949 35.9457C582.755 35.7504 582.756 35.4269 582.951 35.2329L588.703 29.5185L576.327 29.4774C576.053 29.4765 575.828 29.2495 575.828 28.9757C575.829 28.7019 576.056 28.4765 576.33 28.4774L588.704 28.5185L587.857 27.6622L583.003 22.7564L583.002 22.7554C582.809 22.5601 582.81 22.2473 583.005 22.0533Z" fill="black" stroke="#44403C"/>
<path d="M336.472 136.196C335.847 136.196 335.366 136.089 335.03 135.874C334.694 135.659 334.447 135.421 334.288 135.16H334.036V136H332.3V126.2H334.064V129.854H334.316C334.419 129.686 334.554 129.527 334.722 129.378C334.9 129.229 335.128 129.107 335.408 129.014C335.698 128.911 336.052 128.86 336.472 128.86C337.032 128.86 337.55 129 338.026 129.28C338.502 129.551 338.885 129.952 339.174 130.484C339.464 131.016 339.608 131.66 339.608 132.416V132.64C339.608 133.396 339.464 134.04 339.174 134.572C338.885 135.104 338.502 135.51 338.026 135.79C337.55 136.061 337.032 136.196 336.472 136.196ZM335.94 134.656C336.482 134.656 336.934 134.483 337.298 134.138C337.662 133.783 337.844 133.27 337.844 132.598V132.458C337.844 131.786 337.662 131.277 337.298 130.932C336.944 130.577 336.491 130.4 335.94 130.4C335.399 130.4 334.946 130.577 334.582 130.932C334.218 131.277 334.036 131.786 334.036 132.458V132.598C334.036 133.27 334.218 133.783 334.582 134.138C334.946 134.483 335.399 134.656 335.94 134.656ZM343.874 136.112C343.333 136.112 342.857 135.991 342.446 135.748C342.045 135.496 341.732 135.151 341.508 134.712C341.284 134.273 341.172 133.769 341.172 133.2V129.056H342.936V133.06C342.936 133.583 343.062 133.975 343.314 134.236C343.575 134.497 343.944 134.628 344.42 134.628C344.961 134.628 345.381 134.451 345.68 134.096C345.979 133.732 346.128 133.228 346.128 132.584V129.056H347.892V136H346.156V135.09H345.904C345.792 135.323 345.582 135.552 345.274 135.776C344.966 136 344.499 136.112 343.874 136.112ZM352.515 136C352.058 136 351.684 135.86 351.395 135.58C351.115 135.291 350.975 134.908 350.975 134.432V130.512H349.239V129.056H350.975V126.9H352.739V129.056H354.223V130.512H352.739V134.124C352.739 134.404 352.87 134.544 353.131 134.544H354.475V136H352.515ZM357.079 136C356.622 136 356.248 135.86 355.959 135.58C355.679 135.291 355.539 134.908 355.539 134.432V130.512H354.223V129.056H355.539V126.9H357.303V129.056H359.207V130.512H357.303V134.124C357.303 134.404 357.434 134.544 357.695 134.544H359.039V136H357.079ZM364.11 136.196C363.42 136.196 362.799 136.056 362.248 135.776C361.698 135.496 361.264 135.09 360.946 134.558C360.629 134.026 360.47 133.387 360.47 132.64V132.416C360.47 131.669 360.629 131.03 360.946 130.498C361.264 129.966 361.698 129.56 362.248 129.28C362.799 129 363.42 128.86 364.11 128.86C364.801 128.86 365.422 129 365.972 129.28C366.523 129.56 366.957 129.966 367.274 130.498C367.592 131.03 367.75 131.669 367.75 132.416V132.64C367.75 133.387 367.592 134.026 367.274 134.558C366.957 135.09 366.523 135.496 365.972 135.776C365.422 136.056 364.801 136.196 364.11 136.196ZM364.11 134.628C364.652 134.628 365.1 134.455 365.454 134.11C365.809 133.755 365.986 133.251 365.986 132.598V132.458C365.986 131.805 365.809 131.305 365.454 130.96C365.109 130.605 364.661 130.428 364.11 130.428C363.569 130.428 363.121 130.605 362.766 130.96C362.412 131.305 362.234 131.805 362.234 132.458V132.598C362.234 133.251 362.412 133.755 362.766 134.11C363.121 134.455 363.569 134.628 364.11 134.628ZM369.378 136V129.056H371.114V129.966H371.366C371.478 129.723 371.688 129.495 371.996 129.28C372.304 129.056 372.771 128.944 373.396 128.944C373.938 128.944 374.409 129.07 374.81 129.322C375.221 129.565 375.538 129.905 375.762 130.344C375.986 130.773 376.098 131.277 376.098 131.856V136H374.334V131.996C374.334 131.473 374.204 131.081 373.942 130.82C373.69 130.559 373.326 130.428 372.85 130.428C372.309 130.428 371.889 130.61 371.59 130.974C371.292 131.329 371.142 131.828 371.142 132.472V136H369.378ZM377.977 133.228V131.632H382.121V133.228H377.977ZM386.932 136.196C386.027 136.196 385.285 136 384.706 135.608C384.128 135.216 383.778 134.656 383.656 133.928L385.28 133.508C385.346 133.835 385.453 134.091 385.602 134.278C385.761 134.465 385.952 134.6 386.176 134.684C386.41 134.759 386.662 134.796 386.932 134.796C387.343 134.796 387.646 134.726 387.842 134.586C388.038 134.437 388.136 134.255 388.136 134.04C388.136 133.825 388.043 133.662 387.856 133.55C387.67 133.429 387.371 133.331 386.96 133.256L386.568 133.186C386.083 133.093 385.64 132.967 385.238 132.808C384.837 132.64 384.515 132.411 384.272 132.122C384.03 131.833 383.908 131.459 383.908 131.002C383.908 130.311 384.16 129.784 384.664 129.42C385.168 129.047 385.831 128.86 386.652 128.86C387.427 128.86 388.071 129.033 388.584 129.378C389.098 129.723 389.434 130.176 389.592 130.736L387.954 131.24C387.88 130.885 387.726 130.633 387.492 130.484C387.268 130.335 386.988 130.26 386.652 130.26C386.316 130.26 386.06 130.321 385.882 130.442C385.705 130.554 385.616 130.713 385.616 130.918C385.616 131.142 385.71 131.31 385.896 131.422C386.083 131.525 386.335 131.604 386.652 131.66L387.044 131.73C387.567 131.823 388.038 131.949 388.458 132.108C388.888 132.257 389.224 132.477 389.466 132.766C389.718 133.046 389.844 133.429 389.844 133.914C389.844 134.642 389.578 135.207 389.046 135.608C388.524 136 387.819 136.196 386.932 136.196ZM394.036 136.112C393.495 136.112 393.019 135.991 392.608 135.748C392.207 135.496 391.894 135.151 391.67 134.712C391.446 134.273 391.334 133.769 391.334 133.2V129.056H393.098V133.06C393.098 133.583 393.224 133.975 393.476 134.236C393.737 134.497 394.106 134.628 394.582 134.628C395.123 134.628 395.543 134.451 395.842 134.096C396.141 133.732 396.29 133.228 396.29 132.584V129.056H398.054V136H396.318V135.09H396.066C395.954 135.323 395.744 135.552 395.436 135.776C395.128 136 394.661 136.112 394.036 136.112ZM400.017 136V129.056H401.753V129.84H402.005C402.108 129.56 402.276 129.355 402.509 129.224C402.752 129.093 403.032 129.028 403.349 129.028H404.189V130.596H403.321C402.873 130.596 402.504 130.717 402.215 130.96C401.926 131.193 401.781 131.557 401.781 132.052V136H400.017ZM406.716 136V130.512H404.952V129.056H406.716V127.768C406.716 127.292 406.856 126.914 407.136 126.634C407.425 126.345 407.799 126.2 408.256 126.2H410.076V127.656H408.872C408.611 127.656 408.48 127.796 408.48 128.076V129.056H410.3V130.512H408.48V136H406.716ZM413.712 136.196C413.218 136.196 412.774 136.112 412.382 135.944C411.99 135.767 411.678 135.515 411.444 135.188C411.22 134.852 411.108 134.446 411.108 133.97C411.108 133.494 411.22 133.097 411.444 132.78C411.678 132.453 411.995 132.211 412.396 132.052C412.807 131.884 413.274 131.8 413.796 131.8H415.7V131.408C415.7 131.081 415.598 130.815 415.392 130.61C415.187 130.395 414.86 130.288 414.412 130.288C413.974 130.288 413.647 130.391 413.432 130.596C413.218 130.792 413.078 131.049 413.012 131.366L411.388 130.82C411.5 130.465 411.678 130.143 411.92 129.854C412.172 129.555 412.504 129.317 412.914 129.14C413.334 128.953 413.843 128.86 414.44 128.86C415.355 128.86 416.078 129.089 416.61 129.546C417.142 130.003 417.408 130.666 417.408 131.534V134.124C417.408 134.404 417.539 134.544 417.8 134.544H418.36V136H417.184C416.839 136 416.554 135.916 416.33 135.748C416.106 135.58 415.994 135.356 415.994 135.076V135.062H415.728C415.691 135.174 415.607 135.323 415.476 135.51C415.346 135.687 415.14 135.846 414.86 135.986C414.58 136.126 414.198 136.196 413.712 136.196ZM414.02 134.768C414.515 134.768 414.916 134.633 415.224 134.362C415.542 134.082 415.7 133.713 415.7 133.256V133.116H413.922C413.596 133.116 413.339 133.186 413.152 133.326C412.966 133.466 412.872 133.662 412.872 133.914C412.872 134.166 412.97 134.371 413.166 134.53C413.362 134.689 413.647 134.768 414.02 134.768ZM422.775 136.196C422.103 136.196 421.492 136.056 420.941 135.776C420.4 135.496 419.971 135.09 419.653 134.558C419.336 134.026 419.177 133.382 419.177 132.626V132.43C419.177 131.674 419.336 131.03 419.653 130.498C419.971 129.966 420.4 129.56 420.941 129.28C421.492 129 422.103 128.86 422.775 128.86C423.438 128.86 424.007 128.977 424.483 129.21C424.959 129.443 425.342 129.765 425.631 130.176C425.93 130.577 426.126 131.035 426.219 131.548L424.511 131.912C424.474 131.632 424.39 131.38 424.259 131.156C424.129 130.932 423.942 130.755 423.699 130.624C423.466 130.493 423.172 130.428 422.817 130.428C422.463 130.428 422.141 130.507 421.851 130.666C421.571 130.815 421.347 131.044 421.179 131.352C421.021 131.651 420.941 132.019 420.941 132.458V132.598C420.941 133.037 421.021 133.41 421.179 133.718C421.347 134.017 421.571 134.245 421.851 134.404C422.141 134.553 422.463 134.628 422.817 134.628C423.349 134.628 423.751 134.493 424.021 134.222C424.301 133.942 424.479 133.578 424.553 133.13L426.261 133.536C426.14 134.031 425.93 134.483 425.631 134.894C425.342 135.295 424.959 135.613 424.483 135.846C424.007 136.079 423.438 136.196 422.775 136.196ZM430.88 136.196C430.19 136.196 429.578 136.051 429.046 135.762C428.524 135.463 428.113 135.048 427.814 134.516C427.525 133.975 427.38 133.34 427.38 132.612V132.444C427.38 131.716 427.525 131.086 427.814 130.554C428.104 130.013 428.51 129.597 429.032 129.308C429.555 129.009 430.162 128.86 430.852 128.86C431.534 128.86 432.126 129.014 432.63 129.322C433.134 129.621 433.526 130.041 433.806 130.582C434.086 131.114 434.226 131.735 434.226 132.444V133.046H429.172C429.191 133.522 429.368 133.909 429.704 134.208C430.04 134.507 430.451 134.656 430.936 134.656C431.431 134.656 431.795 134.549 432.028 134.334C432.262 134.119 432.439 133.881 432.56 133.62L434.002 134.376C433.872 134.619 433.68 134.885 433.428 135.174C433.186 135.454 432.859 135.697 432.448 135.902C432.038 136.098 431.515 136.196 430.88 136.196ZM429.186 131.73H432.434C432.397 131.329 432.234 131.007 431.944 130.764C431.664 130.521 431.296 130.4 430.838 130.4C430.362 130.4 429.984 130.521 429.704 130.764C429.424 131.007 429.252 131.329 429.186 131.73ZM435.768 133.228V131.632H439.912V133.228H435.768ZM444.723 136.196C443.818 136.196 443.076 136 442.497 135.608C441.919 135.216 441.569 134.656 441.447 133.928L443.071 133.508C443.137 133.835 443.244 134.091 443.393 134.278C443.552 134.465 443.743 134.6 443.967 134.684C444.201 134.759 444.453 134.796 444.723 134.796C445.134 134.796 445.437 134.726 445.633 134.586C445.829 134.437 445.927 134.255 445.927 134.04C445.927 133.825 445.834 133.662 445.647 133.55C445.461 133.429 445.162 133.331 444.751 133.256L444.359 133.186C443.874 133.093 443.431 132.967 443.029 132.808C442.628 132.64 442.306 132.411 442.063 132.122C441.821 131.833 441.699 131.459 441.699 131.002C441.699 130.311 441.951 129.784 442.455 129.42C442.959 129.047 443.622 128.86 444.443 128.86C445.218 128.86 445.862 129.033 446.375 129.378C446.889 129.723 447.225 130.176 447.383 130.736L445.745 131.24C445.671 130.885 445.517 130.633 445.283 130.484C445.059 130.335 444.779 130.26 444.443 130.26C444.107 130.26 443.851 130.321 443.673 130.442C443.496 130.554 443.407 130.713 443.407 130.918C443.407 131.142 443.501 131.31 443.687 131.422C443.874 131.525 444.126 131.604 444.443 131.66L444.835 131.73C445.358 131.823 445.829 131.949 446.249 132.108C446.679 132.257 447.015 132.477 447.257 132.766C447.509 133.046 447.635 133.429 447.635 133.914C447.635 134.642 447.369 135.207 446.837 135.608C446.315 136 445.61 136.196 444.723 136.196ZM452.345 136.196C451.655 136.196 451.043 136.051 450.511 135.762C449.989 135.463 449.578 135.048 449.279 134.516C448.99 133.975 448.845 133.34 448.845 132.612V132.444C448.845 131.716 448.99 131.086 449.279 130.554C449.569 130.013 449.975 129.597 450.497 129.308C451.02 129.009 451.627 128.86 452.317 128.86C452.999 128.86 453.591 129.014 454.095 129.322C454.599 129.621 454.991 130.041 455.271 130.582C455.551 131.114 455.691 131.735 455.691 132.444V133.046H450.637C450.656 133.522 450.833 133.909 451.169 134.208C451.505 134.507 451.916 134.656 452.401 134.656C452.896 134.656 453.26 134.549 453.493 134.334C453.727 134.119 453.904 133.881 454.025 133.62L455.467 134.376C455.337 134.619 455.145 134.885 454.893 135.174C454.651 135.454 454.324 135.697 453.913 135.902C453.503 136.098 452.98 136.196 452.345 136.196ZM450.651 131.73H453.899C453.862 131.329 453.699 131.007 453.409 130.764C453.129 130.521 452.761 130.4 452.303 130.4C451.827 130.4 451.449 130.521 451.169 130.764C450.889 131.007 450.717 131.329 450.651 131.73ZM460.523 136.196C459.851 136.196 459.24 136.056 458.689 135.776C458.148 135.496 457.719 135.09 457.401 134.558C457.084 134.026 456.925 133.382 456.925 132.626V132.43C456.925 131.674 457.084 131.03 457.401 130.498C457.719 129.966 458.148 129.56 458.689 129.28C459.24 129 459.851 128.86 460.523 128.86C461.186 128.86 461.755 128.977 462.231 129.21C462.707 129.443 463.09 129.765 463.379 130.176C463.678 130.577 463.874 131.035 463.967 131.548L462.259 131.912C462.222 131.632 462.138 131.38 462.007 131.156C461.877 130.932 461.69 130.755 461.447 130.624C461.214 130.493 460.92 130.428 460.565 130.428C460.211 130.428 459.889 130.507 459.599 130.666C459.319 130.815 459.095 131.044 458.927 131.352C458.769 131.651 458.689 132.019 458.689 132.458V132.598C458.689 133.037 458.769 133.41 458.927 133.718C459.095 134.017 459.319 134.245 459.599 134.404C459.889 134.553 460.211 134.628 460.565 134.628C461.097 134.628 461.499 134.493 461.769 134.222C462.049 133.942 462.227 133.578 462.301 133.13L464.009 133.536C463.888 134.031 463.678 134.483 463.379 134.894C463.09 135.295 462.707 135.613 462.231 135.846C461.755 136.079 461.186 136.196 460.523 136.196ZM468.768 136.196C468.078 136.196 467.457 136.056 466.906 135.776C466.356 135.496 465.922 135.09 465.604 134.558C465.287 134.026 465.128 133.387 465.128 132.64V132.416C465.128 131.669 465.287 131.03 465.604 130.498C465.922 129.966 466.356 129.56 466.906 129.28C467.457 129 468.078 128.86 468.768 128.86C469.459 128.86 470.08 129 470.63 129.28C471.181 129.56 471.615 129.966 471.932 130.498C472.25 131.03 472.408 131.669 472.408 132.416V132.64C472.408 133.387 472.25 134.026 471.932 134.558C471.615 135.09 471.181 135.496 470.63 135.776C470.08 136.056 469.459 136.196 468.768 136.196ZM468.768 134.628C469.31 134.628 469.758 134.455 470.112 134.11C470.467 133.755 470.644 133.251 470.644 132.598V132.458C470.644 131.805 470.467 131.305 470.112 130.96C469.767 130.605 469.319 130.428 468.768 130.428C468.227 130.428 467.779 130.605 467.424 130.96C467.07 131.305 466.892 131.805 466.892 132.458V132.598C466.892 133.251 467.07 133.755 467.424 134.11C467.779 134.455 468.227 134.628 468.768 134.628ZM474.037 136V129.056H475.773V129.966H476.025C476.137 129.723 476.347 129.495 476.655 129.28C476.963 129.056 477.429 128.944 478.055 128.944C478.596 128.944 479.067 129.07 479.469 129.322C479.879 129.565 480.197 129.905 480.421 130.344C480.645 130.773 480.757 131.277 480.757 131.856V136H478.993V131.996C478.993 131.473 478.862 131.081 478.601 130.82C478.349 130.559 477.985 130.428 477.509 130.428C476.967 130.428 476.547 130.61 476.249 130.974C475.95 131.329 475.801 131.828 475.801 132.472V136H474.037ZM485.464 136.196C484.913 136.196 484.395 136.061 483.91 135.79C483.434 135.51 483.051 135.104 482.762 134.572C482.472 134.04 482.328 133.396 482.328 132.64V132.416C482.328 131.66 482.472 131.016 482.762 130.484C483.051 129.952 483.434 129.551 483.91 129.28C484.386 129 484.904 128.86 485.464 128.86C485.884 128.86 486.234 128.911 486.514 129.014C486.803 129.107 487.036 129.229 487.214 129.378C487.391 129.527 487.526 129.686 487.62 129.854H487.872V126.2H489.636V136H487.9V135.16H487.648C487.489 135.421 487.242 135.659 486.906 135.874C486.579 136.089 486.098 136.196 485.464 136.196ZM485.996 134.656C486.537 134.656 486.99 134.483 487.354 134.138C487.718 133.783 487.9 133.27 487.9 132.598V132.458C487.9 131.786 487.718 131.277 487.354 130.932C486.999 130.577 486.546 130.4 485.996 130.4C485.454 130.4 485.002 130.577 484.638 130.932C484.274 131.277 484.092 131.786 484.092 132.458V132.598C484.092 133.27 484.274 133.783 484.638 134.138C485.002 134.483 485.454 134.656 485.996 134.656ZM493.747 136.196C493.253 136.196 492.809 136.112 492.417 135.944C492.025 135.767 491.713 135.515 491.479 135.188C491.255 134.852 491.143 134.446 491.143 133.97C491.143 133.494 491.255 133.097 491.479 132.78C491.713 132.453 492.03 132.211 492.431 132.052C492.842 131.884 493.309 131.8 493.831 131.8H495.735V131.408C495.735 131.081 495.633 130.815 495.427 130.61C495.222 130.395 494.895 130.288 494.447 130.288C494.009 130.288 493.682 130.391 493.467 130.596C493.253 130.792 493.113 131.049 493.047 131.366L491.423 130.82C491.535 130.465 491.713 130.143 491.955 129.854C492.207 129.555 492.539 129.317 492.949 129.14C493.369 128.953 493.878 128.86 494.475 128.86C495.39 128.86 496.113 129.089 496.645 129.546C497.177 130.003 497.443 130.666 497.443 131.534V134.124C497.443 134.404 497.574 134.544 497.835 134.544H498.395V136H497.219C496.874 136 496.589 135.916 496.365 135.748C496.141 135.58 496.029 135.356 496.029 135.076V135.062H495.763C495.726 135.174 495.642 135.323 495.511 135.51C495.381 135.687 495.175 135.846 494.895 135.986C494.615 136.126 494.233 136.196 493.747 136.196ZM494.055 134.768C494.55 134.768 494.951 134.633 495.259 134.362C495.577 134.082 495.735 133.713 495.735 133.256V133.116H493.957C493.631 133.116 493.374 133.186 493.187 133.326C493.001 133.466 492.907 133.662 492.907 133.914C492.907 134.166 493.005 134.371 493.201 134.53C493.397 134.689 493.682 134.768 494.055 134.768ZM499.685 136V129.056H501.421V129.84H501.673C501.776 129.56 501.944 129.355 502.177 129.224C502.42 129.093 502.7 129.028 503.017 129.028H503.857V130.596H502.989C502.541 130.596 502.172 130.717 501.883 130.96C501.594 131.193 501.449 131.557 501.449 132.052V136H499.685ZM505.992 138.8V137.26H509.772C510.033 137.26 510.164 137.12 510.164 136.84V135.09H509.912C509.837 135.249 509.721 135.407 509.562 135.566C509.403 135.725 509.189 135.855 508.918 135.958C508.647 136.061 508.302 136.112 507.882 136.112C507.341 136.112 506.865 135.991 506.454 135.748C506.053 135.496 505.74 135.151 505.516 134.712C505.292 134.273 505.18 133.769 505.18 133.2V129.056H506.944V133.06C506.944 133.583 507.07 133.975 507.322 134.236C507.583 134.497 507.952 134.628 508.428 134.628C508.969 134.628 509.389 134.451 509.688 134.096C509.987 133.732 510.136 133.228 510.136 132.584V129.056H511.9V137.232C511.9 137.708 511.76 138.086 511.48 138.366C511.2 138.655 510.827 138.8 510.36 138.8H505.992ZM514.969 136.196C514.595 136.196 514.278 136.075 514.017 135.832C513.765 135.58 513.639 135.258 513.639 134.866C513.639 134.474 513.765 134.157 514.017 133.914C514.278 133.662 514.595 133.536 514.969 133.536C515.351 133.536 515.669 133.662 515.921 133.914C516.173 134.157 516.299 134.474 516.299 134.866C516.299 135.258 516.173 135.58 515.921 135.832C515.669 136.075 515.351 136.196 514.969 136.196ZM514.969 131.52C514.595 131.52 514.278 131.399 514.017 131.156C513.765 130.904 513.639 130.582 513.639 130.19C513.639 129.798 513.765 129.481 514.017 129.238C514.278 128.986 514.595 128.86 514.969 128.86C515.351 128.86 515.669 128.986 515.921 129.238C516.173 129.481 516.299 129.798 516.299 130.19C516.299 130.582 516.173 130.904 515.921 131.156C515.669 131.399 515.351 131.52 514.969 131.52ZM523.869 136.196C523.393 136.196 522.959 136.112 522.567 135.944C522.175 135.776 521.867 135.533 521.643 135.216C521.419 134.899 521.307 134.511 521.307 134.054C521.307 133.587 521.419 133.205 521.643 132.906C521.867 132.598 522.175 132.369 522.567 132.22C522.959 132.061 523.398 131.982 523.883 131.982H526.193V131.478C526.193 130.993 526.049 130.61 525.759 130.33C525.479 130.05 525.059 129.91 524.499 129.91C523.949 129.91 523.519 130.045 523.211 130.316C522.903 130.577 522.693 130.932 522.581 131.38L521.545 131.044C521.657 130.661 521.835 130.316 522.077 130.008C522.32 129.691 522.642 129.439 523.043 129.252C523.454 129.056 523.944 128.958 524.513 128.958C525.391 128.958 526.072 129.187 526.557 129.644C527.043 130.092 527.285 130.727 527.285 131.548V134.642C527.285 134.922 527.416 135.062 527.677 135.062H528.307V136H527.341C527.033 136 526.786 135.916 526.599 135.748C526.413 135.571 526.319 135.337 526.319 135.048V134.978H526.151C526.049 135.155 525.909 135.342 525.731 135.538C525.563 135.725 525.33 135.879 525.031 136C524.733 136.131 524.345 136.196 523.869 136.196ZM523.995 135.244C524.649 135.244 525.176 135.053 525.577 134.67C525.988 134.278 526.193 133.732 526.193 133.032V132.878H523.925C523.487 132.878 523.123 132.976 522.833 133.172C522.553 133.359 522.413 133.643 522.413 134.026C522.413 134.409 522.558 134.707 522.847 134.922C523.146 135.137 523.529 135.244 523.995 135.244ZM529.822 136V129.154H530.9V130.008H531.096C531.227 129.765 531.441 129.541 531.74 129.336C532.039 129.131 532.459 129.028 533 129.028C533.532 129.028 533.961 129.145 534.288 129.378C534.624 129.611 534.867 129.896 535.016 130.232H535.212C535.371 129.896 535.609 129.611 535.926 129.378C536.253 129.145 536.705 129.028 537.284 129.028C537.741 129.028 538.143 129.121 538.488 129.308C538.833 129.495 539.104 129.765 539.3 130.12C539.505 130.465 539.608 130.881 539.608 131.366V136H538.502V131.464C538.502 131.007 538.367 130.647 538.096 130.386C537.835 130.115 537.466 129.98 536.99 129.98C536.486 129.98 536.071 130.143 535.744 130.47C535.427 130.797 535.268 131.268 535.268 131.884V136H534.162V131.464C534.162 131.007 534.027 130.647 533.756 130.386C533.495 130.115 533.126 129.98 532.65 129.98C532.146 129.98 531.731 130.143 531.404 130.47C531.087 130.797 530.928 131.268 530.928 131.884V136H529.822ZM545.661 136.196C544.952 136.196 544.396 136.061 543.995 135.79C543.603 135.519 543.318 135.211 543.141 134.866H542.945V136H541.867V126.2H542.973V130.232H543.169C543.281 130.017 543.44 129.817 543.645 129.63C543.85 129.434 544.116 129.275 544.443 129.154C544.779 129.023 545.185 128.958 545.661 128.958C546.258 128.958 546.8 129.103 547.285 129.392C547.78 129.672 548.172 130.078 548.461 130.61C548.75 131.133 548.895 131.758 548.895 132.486V132.668C548.895 133.396 548.746 134.026 548.447 134.558C548.158 135.09 547.766 135.496 547.271 135.776C546.786 136.056 546.249 136.196 545.661 136.196ZM545.367 135.216C546.076 135.216 546.65 134.992 547.089 134.544C547.537 134.087 547.761 133.452 547.761 132.64V132.514C547.761 131.702 547.537 131.072 547.089 130.624C546.65 130.167 546.076 129.938 545.367 129.938C544.667 129.938 544.088 130.167 543.631 130.624C543.183 131.072 542.959 131.702 542.959 132.514V132.64C542.959 133.452 543.183 134.087 543.631 134.544C544.088 134.992 544.667 135.216 545.367 135.216ZM554.013 136.196C553.322 136.196 552.716 136.051 552.193 135.762C551.67 135.463 551.264 135.048 550.975 134.516C550.686 133.984 550.541 133.368 550.541 132.668V132.5C550.541 131.791 550.686 131.17 550.975 130.638C551.264 130.106 551.666 129.695 552.179 129.406C552.692 129.107 553.28 128.958 553.943 128.958C554.587 128.958 555.156 129.098 555.651 129.378C556.146 129.649 556.533 130.041 556.813 130.554C557.093 131.067 557.233 131.669 557.233 132.36V132.864H551.647C551.675 133.601 551.913 134.18 552.361 134.6C552.809 135.011 553.369 135.216 554.041 135.216C554.629 135.216 555.082 135.081 555.399 134.81C555.716 134.539 555.959 134.217 556.127 133.844L557.079 134.306C556.939 134.595 556.743 134.885 556.491 135.174C556.248 135.463 555.926 135.706 555.525 135.902C555.133 136.098 554.629 136.196 554.013 136.196ZM551.661 131.954H556.113C556.076 131.319 555.856 130.825 555.455 130.47C555.063 130.115 554.559 129.938 553.943 129.938C553.318 129.938 552.804 130.115 552.403 130.47C552.002 130.825 551.754 131.319 551.661 131.954ZM559.162 136V129.154H560.24V129.994H560.436C560.557 129.695 560.744 129.476 560.996 129.336C561.248 129.196 561.579 129.126 561.99 129.126H562.802V130.134H561.92C561.425 130.134 561.024 130.274 560.716 130.554C560.417 130.825 560.268 131.249 560.268 131.828V136H559.162ZM564.083 132.906V131.884H568.227V132.906H564.083ZM573.576 136.196C572.857 136.196 572.236 136.061 571.714 135.79C571.191 135.51 570.785 135.127 570.496 134.642C570.206 134.147 570.062 133.578 570.062 132.934V132.766H571.196V132.892C571.196 133.629 571.41 134.194 571.84 134.586C572.269 134.978 572.838 135.174 573.548 135.174C574.294 135.174 574.878 134.964 575.298 134.544C575.718 134.124 575.928 133.55 575.928 132.822V132.696C575.928 131.996 575.722 131.441 575.312 131.03C574.91 130.61 574.388 130.4 573.744 130.4C573.37 130.4 573.062 130.461 572.82 130.582C572.577 130.694 572.386 130.839 572.246 131.016C572.106 131.184 571.989 131.347 571.896 131.506H570.356V126.2H576.796V127.222H571.49V130.61H571.686C571.788 130.423 571.928 130.241 572.106 130.064C572.292 129.887 572.54 129.737 572.848 129.616C573.156 129.495 573.538 129.434 573.996 129.434C574.565 129.434 575.078 129.565 575.536 129.826C576.002 130.087 576.371 130.461 576.642 130.946C576.922 131.431 577.062 132.01 577.062 132.682V132.836C577.062 133.499 576.922 134.082 576.642 134.586C576.362 135.09 575.96 135.487 575.438 135.776C574.915 136.056 574.294 136.196 573.576 136.196ZM582.209 136.196C581.098 136.196 580.211 135.869 579.549 135.216C578.895 134.553 578.569 133.564 578.569 132.248V129.952C578.569 128.645 578.895 127.661 579.549 126.998C580.211 126.335 581.098 126.004 582.209 126.004C583.329 126.004 584.215 126.335 584.869 126.998C585.531 127.661 585.863 128.645 585.863 129.952V132.248C585.863 133.564 585.531 134.553 584.869 135.216C584.215 135.869 583.329 136.196 582.209 136.196ZM582.209 135.174C583.049 135.174 583.679 134.922 584.099 134.418C584.519 133.914 584.729 133.209 584.729 132.304V129.882C584.729 128.977 584.514 128.277 584.085 127.782C583.655 127.278 583.03 127.026 582.209 127.026C581.387 127.026 580.762 127.278 580.333 127.782C579.913 128.286 579.703 128.986 579.703 129.882V132.304C579.703 133.219 579.913 133.928 580.333 134.432C580.753 134.927 581.378 135.174 582.209 135.174ZM595.459 139.29C594.563 139.29 593.788 139.131 593.135 138.814C592.491 138.497 591.996 137.997 591.651 137.316C591.306 136.644 591.133 135.771 591.133 134.698V130.162C591.133 129.079 591.306 128.202 591.651 127.53C591.996 126.858 592.491 126.363 593.135 126.046C593.788 125.729 594.563 125.57 595.459 125.57V126.536C594.348 126.545 593.527 126.853 592.995 127.46C592.463 128.057 592.197 128.981 592.197 130.232V134.628C592.197 135.869 592.463 136.793 592.995 137.4C593.527 138.007 594.348 138.315 595.459 138.324V139.29ZM597.964 136V133.144H596.2V132.178H597.964V130.022H596.2V129.056H597.964V126.2H598.986V129.056H600.988V126.2H602.01V129.056H603.788V130.022H602.01V132.178H603.788V133.144H602.01V136H600.988V133.144H598.986V136H597.964ZM598.986 132.178H600.988V130.022H598.986V132.178ZM605.509 136V126.2H611.431V127.264H606.685V130.554H611.053V131.618H606.685V136H605.509ZM613.069 136V126.2H618.991V127.264H614.245V130.554H618.613V131.618H614.245V136H613.069ZM620.63 136V126.2H626.552V127.264H621.806V130.554H626.174V131.618H621.806V136H620.63ZM627.728 136V134.95H629.1V127.25H627.728V126.2H632.642C633.212 126.2 633.716 126.303 634.154 126.508C634.602 126.713 634.948 127.003 635.19 127.376C635.442 127.74 635.568 128.169 635.568 128.664V128.776C635.568 129.233 635.48 129.611 635.302 129.91C635.125 130.199 634.915 130.428 634.672 130.596C634.43 130.755 634.192 130.871 633.958 130.946V131.142C634.192 131.198 634.434 131.31 634.686 131.478C634.938 131.637 635.148 131.865 635.316 132.164C635.494 132.463 635.582 132.841 635.582 133.298V133.438C635.582 133.97 635.452 134.432 635.19 134.824C634.938 135.207 634.588 135.501 634.14 135.706C633.702 135.902 633.198 136 632.628 136H627.728ZM630.276 134.936H632.502C633.118 134.936 633.59 134.791 633.916 134.502C634.243 134.213 634.406 133.821 634.406 133.326V133.2C634.406 132.705 634.243 132.313 633.916 132.024C633.59 131.735 633.118 131.59 632.502 131.59H630.276V134.936ZM630.276 130.526H632.544C633.104 130.526 633.552 130.386 633.888 130.106C634.224 129.817 634.392 129.439 634.392 128.972V128.832C634.392 128.356 634.224 127.978 633.888 127.698C633.562 127.409 633.114 127.264 632.544 127.264H630.276V130.526ZM637.446 136V126.2H643.48V127.264H638.622V130.54H643.088V131.604H638.622V134.936H643.55V136H637.446ZM644.873 136V134.95H646.245V127.25H644.873V126.2H649.787C650.356 126.2 650.86 126.303 651.299 126.508C651.747 126.713 652.092 127.003 652.335 127.376C652.587 127.74 652.713 128.169 652.713 128.664V128.776C652.713 129.233 652.624 129.611 652.447 129.91C652.27 130.199 652.06 130.428 651.817 130.596C651.574 130.755 651.336 130.871 651.103 130.946V131.142C651.336 131.198 651.579 131.31 651.831 131.478C652.083 131.637 652.293 131.865 652.461 132.164C652.638 132.463 652.727 132.841 652.727 133.298V133.438C652.727 133.97 652.596 134.432 652.335 134.824C652.083 135.207 651.733 135.501 651.285 135.706C650.846 135.902 650.342 136 649.773 136H644.873ZM647.421 134.936H649.647C650.263 134.936 650.734 134.791 651.061 134.502C651.388 134.213 651.551 133.821 651.551 133.326V133.2C651.551 132.705 651.388 132.313 651.061 132.024C650.734 131.735 650.263 131.59 649.647 131.59H647.421V134.936ZM647.421 130.526H649.689C650.249 130.526 650.697 130.386 651.033 130.106C651.369 129.817 651.537 129.439 651.537 128.972V128.832C651.537 128.356 651.369 127.978 651.033 127.698C650.706 127.409 650.258 127.264 649.689 127.264H647.421V130.526ZM653.5 139.29V138.324C654.63 138.315 655.456 138.007 655.978 137.4C656.501 136.793 656.762 135.869 656.762 134.628V130.232C656.762 128.981 656.501 128.057 655.978 127.46C655.456 126.853 654.63 126.545 653.5 126.536V125.57C654.406 125.57 655.18 125.729 655.824 126.046C656.468 126.363 656.963 126.858 657.308 127.53C657.663 128.202 657.84 129.079 657.84 130.162V134.698C657.84 135.771 657.663 136.644 657.308 137.316C656.963 137.997 656.468 138.497 655.824 138.814C655.18 139.131 654.406 139.29 653.5 139.29Z" fill="#1C1917"/>
<path d="M496 42.6667C493.054 42.6667 490.667 45.0545 490.667 48C490.667 50.9455 493.054 53.3333 496 53.3333C498.946 53.3333 501.333 50.9455 501.333 48C501.333 45.0545 498.946 42.6667 496 42.6667ZM496 113.774L501.774 108L496 102.226L490.226 108L496 113.774ZM496 48L495 48L495 108L496 108L497 108L497 48L496 48Z" fill="#2DD4BF"/>
</svg>
