<svg width="720" height="445" viewBox="0 0 720 445" fill="none" xmlns="http://www.w3.org/2000/svg">
<rect x="0.5" y="0.5" width="319" height="62" rx="23.5" fill="#CCFBF1"/>
<rect x="0.5" y="0.5" width="319" height="62" rx="23.5" stroke="#292524"/>
<path d="M48.814 38V25.4H53.818C54.586 25.4 55.27 25.556 55.87 25.868C56.482 26.168 56.956 26.6 57.292 27.164C57.64 27.716 57.814 28.382 57.814 29.162V29.396C57.814 30.176 57.634 30.848 57.274 31.412C56.926 31.976 56.452 32.408 55.852 32.708C55.252 33.008 54.574 33.158 53.818 33.158H50.758V38H48.814ZM50.758 31.394H53.62C54.304 31.394 54.85 31.214 55.258 30.854C55.666 30.494 55.87 30.002 55.87 29.378V29.198C55.87 28.562 55.666 28.064 55.258 27.704C54.85 27.344 54.304 27.164 53.62 27.164H50.758V31.394ZM59.7137 38V29.126H61.5317V30.17H61.8197C61.9637 29.798 62.1917 29.528 62.5037 29.36C62.8277 29.18 63.2237 29.09 63.6917 29.09H64.7537V30.764H63.6197C63.0197 30.764 62.5277 30.932 62.1437 31.268C61.7597 31.592 61.5677 32.096 61.5677 32.78V38H59.7137ZM70.5162 38.252C69.6282 38.252 68.8362 38.072 68.1402 37.712C67.4562 37.34 66.9162 36.812 66.5202 36.128C66.1242 35.444 65.9262 34.634 65.9262 33.698V33.428C65.9262 32.492 66.1242 31.688 66.5202 31.016C66.9162 30.332 67.4562 29.804 68.1402 29.432C68.8362 29.06 69.6282 28.874 70.5162 28.874C71.4042 28.874 72.1962 29.06 72.8922 29.432C73.5882 29.804 74.1342 30.332 74.5302 31.016C74.9262 31.688 75.1242 32.492 75.1242 33.428V33.698C75.1242 34.634 74.9262 35.444 74.5302 36.128C74.1342 36.812 73.5882 37.34 72.8922 37.712C72.1962 38.072 71.4042 38.252 70.5162 38.252ZM70.5162 36.596C71.3322 36.596 71.9922 36.338 72.4962 35.822C73.0122 35.294 73.2702 34.568 73.2702 33.644V33.482C73.2702 32.558 73.0182 31.838 72.5142 31.322C72.0102 30.794 71.3442 30.53 70.5162 30.53C69.7122 30.53 69.0522 30.794 68.5362 31.322C68.0322 31.838 67.7802 32.558 67.7802 33.482V33.644C67.7802 34.568 68.0322 35.294 68.5362 35.822C69.0522 36.338 69.7122 36.596 70.5162 36.596ZM77.4325 41.6V29.126H79.2505V30.404H79.5385C79.7665 30.008 80.1085 29.654 80.5645 29.342C81.0325 29.03 81.6985 28.874 82.5625 28.874C83.3065 28.874 83.9845 29.054 84.5965 29.414C85.2205 29.774 85.7185 30.296 86.0905 30.98C86.4745 31.652 86.6665 32.468 86.6665 33.428V33.698C86.6665 34.658 86.4805 35.48 86.1085 36.164C85.7365 36.836 85.2385 37.352 84.6145 37.712C83.9905 38.072 83.3065 38.252 82.5625 38.252C81.9865 38.252 81.5005 38.18 81.1045 38.036C80.7085 37.892 80.3905 37.712 80.1505 37.496C79.9105 37.268 79.7185 37.034 79.5745 36.794H79.2865V41.6H77.4325ZM82.0225 36.632C82.8385 36.632 83.5045 36.374 84.0205 35.858C84.5365 35.342 84.7945 34.604 84.7945 33.644V33.482C84.7945 32.534 84.5305 31.802 84.0025 31.286C83.4865 30.77 82.8265 30.512 82.0225 30.512C81.2305 30.512 80.5705 30.77 80.0425 31.286C79.5265 31.802 79.2685 32.534 79.2685 33.482V33.644C79.2685 34.604 79.5265 35.342 80.0425 35.858C80.5705 36.374 81.2305 36.632 82.0225 36.632ZM93.0317 38.252C92.1317 38.252 91.3457 38.066 90.6737 37.694C90.0017 37.31 89.4737 36.776 89.0897 36.092C88.7177 35.396 88.5317 34.592 88.5317 33.68V33.464C88.5317 32.54 88.7177 31.736 89.0897 31.052C89.4617 30.356 89.9777 29.822 90.6377 29.45C91.3097 29.066 92.0837 28.874 92.9597 28.874C93.8117 28.874 94.5557 29.066 95.1917 29.45C95.8397 29.822 96.3437 30.344 96.7037 31.016C97.0637 31.688 97.2437 32.474 97.2437 33.374V34.076H90.4217C90.4457 34.856 90.7037 35.48 91.1957 35.948C91.6997 36.404 92.3237 36.632 93.0677 36.632C93.7637 36.632 94.2857 36.476 94.6337 36.164C94.9937 35.852 95.2697 35.492 95.4617 35.084L96.9917 35.876C96.8237 36.212 96.5777 36.566 96.2537 36.938C95.9417 37.31 95.5277 37.622 95.0117 37.874C94.4957 38.126 93.8357 38.252 93.0317 38.252ZM90.4397 32.654H95.3537C95.3057 31.982 95.0657 31.46 94.6337 31.088C94.2017 30.704 93.6377 30.512 92.9417 30.512C92.2457 30.512 91.6757 30.704 91.2317 31.088C90.7997 31.46 90.5357 31.982 90.4397 32.654ZM99.4754 38V29.126H101.293V30.17H101.581C101.725 29.798 101.953 29.528 102.265 29.36C102.589 29.18 102.985 29.09 103.453 29.09H104.515V30.764H103.381C102.781 30.764 102.289 30.932 101.905 31.268C101.521 31.592 101.329 32.096 101.329 32.78V38H99.4754ZM109.766 38C109.226 38 108.794 37.838 108.47 37.514C108.158 37.19 108.002 36.758 108.002 36.218V30.692H105.554V29.126H108.002V26.192H109.856V29.126H112.502V30.692H109.856V35.894C109.856 36.254 110.024 36.434 110.36 36.434H112.214V38H109.766ZM114.681 38V29.126H116.535V38H114.681ZM115.617 27.92C115.257 27.92 114.951 27.806 114.699 27.578C114.459 27.338 114.339 27.032 114.339 26.66C114.339 26.288 114.459 25.988 114.699 25.76C114.951 25.52 115.257 25.4 115.617 25.4C115.989 25.4 116.295 25.52 116.535 25.76C116.775 25.988 116.895 26.288 116.895 26.66C116.895 27.032 116.775 27.338 116.535 27.578C116.295 27.806 115.989 27.92 115.617 27.92ZM123.354 38.252C122.454 38.252 121.668 38.066 120.996 37.694C120.324 37.31 119.796 36.776 119.412 36.092C119.04 35.396 118.854 34.592 118.854 33.68V33.464C118.854 32.54 119.04 31.736 119.412 31.052C119.784 30.356 120.3 29.822 120.96 29.45C121.632 29.066 122.406 28.874 123.282 28.874C124.134 28.874 124.878 29.066 125.514 29.45C126.162 29.822 126.666 30.344 127.026 31.016C127.386 31.688 127.566 32.474 127.566 33.374V34.076H120.744C120.768 34.856 121.026 35.48 121.518 35.948C122.022 36.404 122.646 36.632 123.39 36.632C124.086 36.632 124.608 36.476 124.956 36.164C125.316 35.852 125.592 35.492 125.784 35.084L127.314 35.876C127.146 36.212 126.9 36.566 126.576 36.938C126.264 37.31 125.85 37.622 125.334 37.874C124.818 38.126 124.158 38.252 123.354 38.252ZM120.762 32.654H125.676C125.628 31.982 125.388 31.46 124.956 31.088C124.524 30.704 123.96 30.512 123.264 30.512C122.568 30.512 121.998 30.704 121.554 31.088C121.122 31.46 120.858 31.982 120.762 32.654ZM133.434 38.252C132.306 38.252 131.37 38 130.626 37.496C129.882 36.992 129.426 36.23 129.258 35.21L130.986 34.796C131.082 35.288 131.244 35.678 131.472 35.966C131.7 36.254 131.982 36.458 132.318 36.578C132.666 36.698 133.038 36.758 133.434 36.758C134.022 36.758 134.472 36.644 134.784 36.416C135.108 36.188 135.27 35.894 135.27 35.534C135.27 35.174 135.12 34.91 134.82 34.742C134.52 34.574 134.076 34.436 133.488 34.328L132.876 34.22C132.276 34.112 131.73 33.956 131.238 33.752C130.746 33.548 130.356 33.266 130.068 32.906C129.78 32.546 129.636 32.084 129.636 31.52C129.636 30.68 129.948 30.032 130.572 29.576C131.196 29.108 132.024 28.874 133.056 28.874C134.052 28.874 134.868 29.102 135.504 29.558C136.152 30.002 136.572 30.608 136.764 31.376L135.036 31.862C134.928 31.322 134.7 30.944 134.352 30.728C134.004 30.5 133.572 30.386 133.056 30.386C132.552 30.386 132.156 30.482 131.868 30.674C131.58 30.854 131.436 31.112 131.436 31.448C131.436 31.808 131.574 32.072 131.85 32.24C132.138 32.408 132.522 32.534 133.002 32.618L133.632 32.726C134.268 32.834 134.85 32.984 135.378 33.176C135.906 33.368 136.32 33.644 136.62 34.004C136.932 34.364 137.088 34.844 137.088 35.444C137.088 36.332 136.758 37.022 136.098 37.514C135.438 38.006 134.55 38.252 133.434 38.252ZM148.001 38.252C147.113 38.252 146.321 38.072 145.625 37.712C144.941 37.34 144.401 36.812 144.005 36.128C143.609 35.444 143.411 34.634 143.411 33.698V33.428C143.411 32.492 143.609 31.688 144.005 31.016C144.401 30.332 144.941 29.804 145.625 29.432C146.321 29.06 147.113 28.874 148.001 28.874C148.889 28.874 149.681 29.06 150.377 29.432C151.073 29.804 151.619 30.332 152.015 31.016C152.411 31.688 152.609 32.492 152.609 33.428V33.698C152.609 34.634 152.411 35.444 152.015 36.128C151.619 36.812 151.073 37.34 150.377 37.712C149.681 38.072 148.889 38.252 148.001 38.252ZM148.001 36.596C148.817 36.596 149.477 36.338 149.981 35.822C150.497 35.294 150.755 34.568 150.755 33.644V33.482C150.755 32.558 150.503 31.838 149.999 31.322C149.495 30.794 148.829 30.53 148.001 30.53C147.197 30.53 146.537 30.794 146.021 31.322C145.517 31.838 145.265 32.558 145.265 33.482V33.644C145.265 34.568 145.517 35.294 146.021 35.822C146.537 36.338 147.197 36.596 148.001 36.596ZM156.185 38V30.692H153.701V29.126H156.185V27.182C156.185 26.642 156.347 26.21 156.671 25.886C156.995 25.562 157.427 25.4 157.967 25.4H160.253V26.966H158.561C158.213 26.966 158.039 27.146 158.039 27.506V29.126H160.595V30.692H158.039V38H156.185ZM170.411 38C169.871 38 169.439 37.838 169.115 37.514C168.803 37.19 168.647 36.758 168.647 36.218V30.692H166.199V29.126H168.647V26.192H170.501V29.126H173.147V30.692H170.501V35.894C170.501 36.254 170.669 36.434 171.005 36.434H172.859V38H170.411ZM175.325 38V25.4H177.179V30.386H177.467C177.587 30.158 177.755 29.936 177.971 29.72C178.199 29.504 178.493 29.33 178.853 29.198C179.225 29.054 179.693 28.982 180.257 28.982C180.929 28.982 181.523 29.132 182.039 29.432C182.567 29.732 182.981 30.158 183.281 30.71C183.581 31.25 183.731 31.904 183.731 32.672V38H181.877V32.816C181.877 32.048 181.685 31.484 181.301 31.124C180.917 30.752 180.389 30.566 179.717 30.566C178.949 30.566 178.331 30.818 177.863 31.322C177.407 31.826 177.179 32.558 177.179 33.518V38H175.325ZM190.467 38.252C189.567 38.252 188.781 38.066 188.109 37.694C187.437 37.31 186.909 36.776 186.525 36.092C186.153 35.396 185.967 34.592 185.967 33.68V33.464C185.967 32.54 186.153 31.736 186.525 31.052C186.897 30.356 187.413 29.822 188.073 29.45C188.745 29.066 189.519 28.874 190.395 28.874C191.247 28.874 191.991 29.066 192.627 29.45C193.275 29.822 193.779 30.344 194.139 31.016C194.499 31.688 194.679 32.474 194.679 33.374V34.076H187.857C187.881 34.856 188.139 35.48 188.631 35.948C189.135 36.404 189.759 36.632 190.503 36.632C191.199 36.632 191.721 36.476 192.069 36.164C192.429 35.852 192.705 35.492 192.897 35.084L194.427 35.876C194.259 36.212 194.013 36.566 193.689 36.938C193.377 37.31 192.963 37.622 192.447 37.874C191.931 38.126 191.271 38.252 190.467 38.252ZM187.875 32.654H192.789C192.741 31.982 192.501 31.46 192.069 31.088C191.637 30.704 191.073 30.512 190.377 30.512C189.681 30.512 189.111 30.704 188.667 31.088C188.235 31.46 187.971 31.982 187.875 32.654ZM201.445 38V25.4H209.221V27.164H203.389V30.8H208.753V32.564H203.389V38H201.445ZM211.167 38V29.126H213.021V38H211.167ZM212.103 27.92C211.743 27.92 211.437 27.806 211.185 27.578C210.945 27.338 210.825 27.032 210.825 26.66C210.825 26.288 210.945 25.988 211.185 25.76C211.437 25.52 211.743 25.4 212.103 25.4C212.475 25.4 212.781 25.52 213.021 25.76C213.261 25.988 213.381 26.288 213.381 26.66C213.381 27.032 213.261 27.338 213.021 27.578C212.781 27.806 212.475 27.92 212.103 27.92ZM215.772 38V29.126H217.59V30.17H217.878C218.022 29.798 218.25 29.528 218.562 29.36C218.886 29.18 219.282 29.09 219.75 29.09H220.812V30.764H219.678C219.078 30.764 218.586 30.932 218.202 31.268C217.818 31.592 217.626 32.096 217.626 32.78V38H215.772ZM226.176 38.252C225.048 38.252 224.112 38 223.368 37.496C222.624 36.992 222.168 36.23 222 35.21L223.728 34.796C223.824 35.288 223.986 35.678 224.214 35.966C224.442 36.254 224.724 36.458 225.06 36.578C225.408 36.698 225.78 36.758 226.176 36.758C226.764 36.758 227.214 36.644 227.526 36.416C227.85 36.188 228.012 35.894 228.012 35.534C228.012 35.174 227.862 34.91 227.562 34.742C227.262 34.574 226.818 34.436 226.23 34.328L225.618 34.22C225.018 34.112 224.472 33.956 223.98 33.752C223.488 33.548 223.098 33.266 222.81 32.906C222.522 32.546 222.378 32.084 222.378 31.52C222.378 30.68 222.69 30.032 223.314 29.576C223.938 29.108 224.766 28.874 225.798 28.874C226.794 28.874 227.61 29.102 228.246 29.558C228.894 30.002 229.314 30.608 229.506 31.376L227.778 31.862C227.67 31.322 227.442 30.944 227.094 30.728C226.746 30.5 226.314 30.386 225.798 30.386C225.294 30.386 224.898 30.482 224.61 30.674C224.322 30.854 224.178 31.112 224.178 31.448C224.178 31.808 224.316 32.072 224.592 32.24C224.88 32.408 225.264 32.534 225.744 32.618L226.374 32.726C227.01 32.834 227.592 32.984 228.12 33.176C228.648 33.368 229.062 33.644 229.362 34.004C229.674 34.364 229.83 34.844 229.83 35.444C229.83 36.332 229.5 37.022 228.84 37.514C228.18 38.006 227.292 38.252 226.176 38.252ZM235.134 38C234.594 38 234.162 37.838 233.838 37.514C233.526 37.19 233.37 36.758 233.37 36.218V30.692H230.922V29.126H233.37V26.192H235.224V29.126H237.87V30.692H235.224V35.894C235.224 36.254 235.392 36.434 235.728 36.434H237.582V38H235.134ZM249.262 38.252C247.726 38.252 246.508 37.82 245.608 36.956C244.708 36.08 244.258 34.82 244.258 33.176V30.224C244.258 28.58 244.708 27.326 245.608 26.462C246.508 25.586 247.726 25.148 249.262 25.148C250.774 25.148 251.938 25.568 252.754 26.408C253.582 27.248 253.996 28.394 253.996 29.846V29.954H252.07V29.792C252.07 28.94 251.836 28.244 251.368 27.704C250.912 27.164 250.21 26.894 249.262 26.894C248.302 26.894 247.552 27.188 247.012 27.776C246.472 28.352 246.202 29.156 246.202 30.188V33.212C246.202 34.232 246.472 35.036 247.012 35.624C247.552 36.212 248.302 36.506 249.262 36.506C250.21 36.506 250.912 36.236 251.368 35.696C251.836 35.144 252.07 34.448 252.07 33.608V33.302H253.996V33.554C253.996 35.006 253.582 36.152 252.754 36.992C251.938 37.832 250.774 38.252 249.262 38.252ZM258.956 38.252C258.32 38.252 257.75 38.144 257.246 37.928C256.754 37.712 256.358 37.394 256.058 36.974C255.77 36.554 255.626 36.044 255.626 35.444C255.626 34.832 255.77 34.328 256.058 33.932C256.358 33.524 256.76 33.218 257.264 33.014C257.78 32.81 258.362 32.708 259.01 32.708H261.71V32.132C261.71 31.616 261.554 31.202 261.242 30.89C260.93 30.578 260.45 30.422 259.802 30.422C259.166 30.422 258.68 30.572 258.344 30.872C258.008 31.172 257.786 31.562 257.678 32.042L255.95 31.484C256.094 31.004 256.322 30.572 256.634 30.188C256.958 29.792 257.384 29.474 257.912 29.234C258.44 28.994 259.076 28.874 259.82 28.874C260.972 28.874 261.878 29.168 262.538 29.756C263.198 30.344 263.528 31.178 263.528 32.258V35.912C263.528 36.272 263.696 36.452 264.032 36.452H264.788V38H263.402C262.982 38 262.64 37.892 262.376 37.676C262.112 37.46 261.98 37.166 261.98 36.794V36.74H261.71C261.614 36.92 261.47 37.13 261.278 37.37C261.086 37.61 260.804 37.82 260.432 38C260.06 38.168 259.568 38.252 258.956 38.252ZM259.226 36.722C259.97 36.722 260.57 36.512 261.026 36.092C261.482 35.66 261.71 35.072 261.71 34.328V34.148H259.118C258.626 34.148 258.23 34.256 257.93 34.472C257.63 34.676 257.48 34.982 257.48 35.39C257.48 35.798 257.636 36.122 257.948 36.362C258.26 36.602 258.686 36.722 259.226 36.722ZM266.591 38V29.126H268.409V30.17H268.697C268.841 29.798 269.069 29.528 269.381 29.36C269.705 29.18 270.101 29.09 270.569 29.09H271.631V30.764H270.497C269.897 30.764 269.405 30.932 269.021 31.268C268.637 31.592 268.445 32.096 268.445 32.78V38H266.591Z" fill="#1C1917"/>
<rect x="0.5" y="103.5" width="149" height="62" rx="23.5" fill="#EEF2FF"/>
<rect x="0.5" y="103.5" width="149" height="62" rx="23.5" stroke="#292524"/>
<path d="M49.846 141V139.272H51.538V130.128H49.846V128.4H56.236C56.992 128.4 57.652 128.532 58.216 128.796C58.78 129.048 59.218 129.414 59.53 129.894C59.854 130.362 60.016 130.92 60.016 131.568V131.748C60.016 132.324 59.908 132.798 59.692 133.17C59.476 133.542 59.212 133.83 58.9 134.034C58.6 134.238 58.312 134.382 58.036 134.466V134.754C58.312 134.826 58.606 134.97 58.918 135.186C59.242 135.39 59.512 135.678 59.728 136.05C59.956 136.422 60.07 136.908 60.07 137.508V137.688C60.07 138.384 59.908 138.978 59.584 139.47C59.26 139.962 58.81 140.34 58.234 140.604C57.67 140.868 57.016 141 56.272 141H49.846ZM53.5 139.236H56.038C56.686 139.236 57.196 139.08 57.568 138.768C57.94 138.456 58.126 138.024 58.126 137.472V137.31C58.126 136.758 57.94 136.326 57.568 136.014C57.208 135.702 56.698 135.546 56.038 135.546H53.5V139.236ZM53.5 133.764H56.038C56.65 133.764 57.142 133.614 57.514 133.314C57.886 133.002 58.072 132.582 58.072 132.054V131.874C58.072 131.346 57.886 130.932 57.514 130.632C57.154 130.32 56.662 130.164 56.038 130.164H53.5V133.764ZM62.3035 141V132.126H64.1215V133.17H64.4095C64.5535 132.798 64.7815 132.528 65.0935 132.36C65.4175 132.18 65.8135 132.09 66.2815 132.09H67.3435V133.764H66.2095C65.6095 133.764 65.1175 133.932 64.7335 134.268C64.3495 134.592 64.1575 135.096 64.1575 135.78V141H62.3035ZM71.7724 141.252C71.1364 141.252 70.5664 141.144 70.0624 140.928C69.5704 140.712 69.1744 140.394 68.8744 139.974C68.5864 139.554 68.4424 139.044 68.4424 138.444C68.4424 137.832 68.5864 137.328 68.8744 136.932C69.1744 136.524 69.5764 136.218 70.0804 136.014C70.5964 135.81 71.1784 135.708 71.8264 135.708H74.5264V135.132C74.5264 134.616 74.3704 134.202 74.0584 133.89C73.7464 133.578 73.2664 133.422 72.6184 133.422C71.9824 133.422 71.4964 133.572 71.1604 133.872C70.8244 134.172 70.6024 134.562 70.4944 135.042L68.7664 134.484C68.9104 134.004 69.1384 133.572 69.4504 133.188C69.7744 132.792 70.2004 132.474 70.7284 132.234C71.2564 131.994 71.8924 131.874 72.6364 131.874C73.7884 131.874 74.6944 132.168 75.3544 132.756C76.0144 133.344 76.3444 134.178 76.3444 135.258V138.912C76.3444 139.272 76.5124 139.452 76.8484 139.452H77.6044V141H76.2184C75.7984 141 75.4564 140.892 75.1924 140.676C74.9284 140.46 74.7964 140.166 74.7964 139.794V139.74H74.5264C74.4304 139.92 74.2864 140.13 74.0944 140.37C73.9024 140.61 73.6204 140.82 73.2484 141C72.8764 141.168 72.3844 141.252 71.7724 141.252ZM72.0424 139.722C72.7864 139.722 73.3864 139.512 73.8424 139.092C74.2984 138.66 74.5264 138.072 74.5264 137.328V137.148H71.9344C71.4424 137.148 71.0464 137.256 70.7464 137.472C70.4464 137.676 70.2964 137.982 70.2964 138.39C70.2964 138.798 70.4524 139.122 70.7644 139.362C71.0764 139.602 71.5024 139.722 72.0424 139.722ZM79.4071 141V132.126H81.2251V133.458H81.5131C81.6811 133.098 81.9811 132.762 82.4131 132.45C82.8451 132.138 83.4871 131.982 84.3391 131.982C85.0111 131.982 85.6051 132.132 86.1211 132.432C86.6491 132.732 87.0631 133.158 87.3631 133.71C87.6631 134.25 87.8131 134.904 87.8131 135.672V141H85.9591V135.816C85.9591 135.048 85.7671 134.484 85.3831 134.124C84.9991 133.752 84.4711 133.566 83.7991 133.566C83.0311 133.566 82.4131 133.818 81.9451 134.322C81.4891 134.826 81.2611 135.558 81.2611 136.518V141H79.4071ZM94.1533 141.252C93.4213 141.252 92.7433 141.072 92.1193 140.712C91.4953 140.352 90.9913 139.836 90.6073 139.164C90.2353 138.48 90.0493 137.658 90.0493 136.698V136.428C90.0493 135.48 90.2353 134.664 90.6073 133.98C90.9793 133.296 91.4773 132.774 92.1013 132.414C92.7253 132.054 93.4093 131.874 94.1533 131.874C94.7293 131.874 95.2093 131.946 95.5933 132.09C95.9893 132.234 96.3133 132.42 96.5653 132.648C96.8173 132.864 97.0093 133.092 97.1413 133.332H97.4293V128.4H99.2833V141H97.4653V139.74H97.1773C96.9493 140.124 96.6013 140.472 96.1333 140.784C95.6773 141.096 95.0173 141.252 94.1533 141.252ZM94.6753 139.632C95.4793 139.632 96.1393 139.374 96.6553 138.858C97.1833 138.342 97.4473 137.604 97.4473 136.644V136.482C97.4473 135.534 97.1893 134.802 96.6733 134.286C96.1573 133.77 95.4913 133.512 94.6753 133.512C93.8833 133.512 93.2233 133.77 92.6953 134.286C92.1793 134.802 91.9213 135.534 91.9213 136.482V136.644C91.9213 137.604 92.1793 138.342 92.6953 138.858C93.2233 139.374 93.8833 139.632 94.6753 139.632Z" fill="#1C1917"/>
<rect x="0.5" y="196.5" width="149" height="62" rx="23.5" fill="#EEF2FF"/>
<rect x="0.5" y="196.5" width="149" height="62" rx="23.5" stroke="#292524"/>
<path d="M49.314 234V221.4H52.968L55.722 232.704H56.01L58.764 221.4H62.418V234H60.528V222.768H60.24L57.504 234H54.228L51.492 222.768H51.204V234H49.314ZM69.2584 234.252C68.3704 234.252 67.5784 234.072 66.8824 233.712C66.1984 233.34 65.6584 232.812 65.2624 232.128C64.8664 231.444 64.6684 230.634 64.6684 229.698V229.428C64.6684 228.492 64.8664 227.688 65.2624 227.016C65.6584 226.332 66.1984 225.804 66.8824 225.432C67.5784 225.06 68.3704 224.874 69.2584 224.874C70.1464 224.874 70.9384 225.06 71.6344 225.432C72.3304 225.804 72.8764 226.332 73.2724 227.016C73.6684 227.688 73.8664 228.492 73.8664 229.428V229.698C73.8664 230.634 73.6684 231.444 73.2724 232.128C72.8764 232.812 72.3304 233.34 71.6344 233.712C70.9384 234.072 70.1464 234.252 69.2584 234.252ZM69.2584 232.596C70.0744 232.596 70.7344 232.338 71.2384 231.822C71.7544 231.294 72.0124 230.568 72.0124 229.644V229.482C72.0124 228.558 71.7604 227.838 71.2564 227.322C70.7524 226.794 70.0864 226.53 69.2584 226.53C68.4544 226.53 67.7944 226.794 67.2784 227.322C66.7744 227.838 66.5224 228.558 66.5224 229.482V229.644C66.5224 230.568 66.7744 231.294 67.2784 231.822C67.7944 232.338 68.4544 232.596 69.2584 232.596ZM79.8466 234.252C79.1146 234.252 78.4366 234.072 77.8126 233.712C77.1886 233.352 76.6846 232.836 76.3006 232.164C75.9286 231.48 75.7426 230.658 75.7426 229.698V229.428C75.7426 228.48 75.9286 227.664 76.3006 226.98C76.6726 226.296 77.1706 225.774 77.7946 225.414C78.4186 225.054 79.1026 224.874 79.8466 224.874C80.4226 224.874 80.9026 224.946 81.2866 225.09C81.6826 225.234 82.0066 225.42 82.2586 225.648C82.5106 225.864 82.7026 226.092 82.8346 226.332H83.1226V221.4H84.9766V234H83.1586V232.74H82.8706C82.6426 233.124 82.2946 233.472 81.8266 233.784C81.3706 234.096 80.7106 234.252 79.8466 234.252ZM80.3686 232.632C81.1726 232.632 81.8326 232.374 82.3486 231.858C82.8766 231.342 83.1406 230.604 83.1406 229.644V229.482C83.1406 228.534 82.8826 227.802 82.3666 227.286C81.8506 226.77 81.1846 226.512 80.3686 226.512C79.5766 226.512 78.9166 226.77 78.3886 227.286C77.8726 227.802 77.6146 228.534 77.6146 229.482V229.644C77.6146 230.604 77.8726 231.342 78.3886 231.858C78.9166 232.374 79.5766 232.632 80.3686 232.632ZM91.7739 234.252C90.8739 234.252 90.0879 234.066 89.4159 233.694C88.7439 233.31 88.2159 232.776 87.8319 232.092C87.4599 231.396 87.2739 230.592 87.2739 229.68V229.464C87.2739 228.54 87.4599 227.736 87.8319 227.052C88.2039 226.356 88.7199 225.822 89.3799 225.45C90.0519 225.066 90.8259 224.874 91.7019 224.874C92.5539 224.874 93.2979 225.066 93.9339 225.45C94.5819 225.822 95.0859 226.344 95.4459 227.016C95.8059 227.688 95.9859 228.474 95.9859 229.374V230.076H89.1639C89.1879 230.856 89.4459 231.48 89.9379 231.948C90.4419 232.404 91.0659 232.632 91.8099 232.632C92.5059 232.632 93.0279 232.476 93.3759 232.164C93.7359 231.852 94.0119 231.492 94.2039 231.084L95.7339 231.876C95.5659 232.212 95.3199 232.566 94.9959 232.938C94.6839 233.31 94.2699 233.622 93.7539 233.874C93.2379 234.126 92.5779 234.252 91.7739 234.252ZM89.1819 228.654H94.0959C94.0479 227.982 93.8079 227.46 93.3759 227.088C92.9439 226.704 92.3799 226.512 91.6839 226.512C90.9879 226.512 90.4179 226.704 89.9739 227.088C89.5419 227.46 89.2779 227.982 89.1819 228.654ZM98.2176 234V221.4H100.072V234H98.2176Z" fill="#1C1917"/>
<rect x="0.5" y="289.5" width="149" height="62" rx="23.5" fill="#EEF2FF"/>
<rect x="0.5" y="289.5" width="149" height="62" rx="23.5" stroke="#292524"/>
<path d="M60.572 327V322.428L56.198 314.4H58.394L61.418 320.106H61.688L64.712 314.4H66.908L62.534 322.428V327H60.572ZM70.9809 327.252C70.0809 327.252 69.2949 327.066 68.6229 326.694C67.9509 326.31 67.4229 325.776 67.0389 325.092C66.6669 324.396 66.4809 323.592 66.4809 322.68V322.464C66.4809 321.54 66.6669 320.736 67.0389 320.052C67.4109 319.356 67.9269 318.822 68.5869 318.45C69.2589 318.066 70.0329 317.874 70.9089 317.874C71.7609 317.874 72.5049 318.066 73.1409 318.45C73.7889 318.822 74.2929 319.344 74.6529 320.016C75.0129 320.688 75.1929 321.474 75.1929 322.374V323.076H68.3709C68.3949 323.856 68.6529 324.48 69.1449 324.948C69.6489 325.404 70.2729 325.632 71.0169 325.632C71.7129 325.632 72.2349 325.476 72.5829 325.164C72.9429 324.852 73.2189 324.492 73.4109 324.084L74.9409 324.876C74.7729 325.212 74.5269 325.566 74.2029 325.938C73.8909 326.31 73.4769 326.622 72.9609 326.874C72.4449 327.126 71.7849 327.252 70.9809 327.252ZM68.3889 321.654H73.3029C73.2549 320.982 73.0149 320.46 72.5829 320.088C72.1509 319.704 71.5869 319.512 70.8909 319.512C70.1949 319.512 69.6249 319.704 69.1809 320.088C68.7489 320.46 68.4849 320.982 68.3889 321.654ZM80.1786 327.252C79.5426 327.252 78.9726 327.144 78.4686 326.928C77.9766 326.712 77.5806 326.394 77.2806 325.974C76.9926 325.554 76.8486 325.044 76.8486 324.444C76.8486 323.832 76.9926 323.328 77.2806 322.932C77.5806 322.524 77.9826 322.218 78.4866 322.014C79.0026 321.81 79.5846 321.708 80.2326 321.708H82.9326V321.132C82.9326 320.616 82.7766 320.202 82.4646 319.89C82.1526 319.578 81.6726 319.422 81.0246 319.422C80.3886 319.422 79.9026 319.572 79.5666 319.872C79.2306 320.172 79.0086 320.562 78.9006 321.042L77.1726 320.484C77.3166 320.004 77.5446 319.572 77.8566 319.188C78.1806 318.792 78.6066 318.474 79.1346 318.234C79.6626 317.994 80.2986 317.874 81.0426 317.874C82.1946 317.874 83.1006 318.168 83.7606 318.756C84.4206 319.344 84.7506 320.178 84.7506 321.258V324.912C84.7506 325.272 84.9186 325.452 85.2546 325.452H86.0106V327H84.6246C84.2046 327 83.8626 326.892 83.5986 326.676C83.3346 326.46 83.2026 326.166 83.2026 325.794V325.74H82.9326C82.8366 325.92 82.6926 326.13 82.5006 326.37C82.3086 326.61 82.0266 326.82 81.6546 327C81.2826 327.168 80.7906 327.252 80.1786 327.252ZM80.4486 325.722C81.1926 325.722 81.7926 325.512 82.2486 325.092C82.7046 324.66 82.9326 324.072 82.9326 323.328V323.148H80.3406C79.8486 323.148 79.4526 323.256 79.1526 323.472C78.8526 323.676 78.7026 323.982 78.7026 324.39C78.7026 324.798 78.8586 325.122 79.1706 325.362C79.4826 325.602 79.9086 325.722 80.4486 325.722ZM87.8133 327V318.126H89.6313V319.17H89.9193C90.0633 318.798 90.2913 318.528 90.6033 318.36C90.9273 318.18 91.3233 318.09 91.7913 318.09H92.8533V319.764H91.7193C91.1193 319.764 90.6273 319.932 90.2433 320.268C89.8593 320.592 89.6673 321.096 89.6673 321.78V327H87.8133Z" fill="#1C1917"/>
<rect x="0.5" y="382.5" width="149" height="62" rx="23.5" fill="#EEF2FF"/>
<rect x="0.5" y="382.5" width="149" height="62" rx="23.5" stroke="#292524"/>
<path d="M41.494 420.252C39.958 420.252 38.74 419.82 37.84 418.956C36.94 418.08 36.49 416.82 36.49 415.176V412.224C36.49 410.58 36.94 409.326 37.84 408.462C38.74 407.586 39.958 407.148 41.494 407.148C43.006 407.148 44.17 407.568 44.986 408.408C45.814 409.248 46.228 410.394 46.228 411.846V411.954H44.302V411.792C44.302 410.94 44.068 410.244 43.6 409.704C43.144 409.164 42.442 408.894 41.494 408.894C40.534 408.894 39.784 409.188 39.244 409.776C38.704 410.352 38.434 411.156 38.434 412.188V415.212C38.434 416.232 38.704 417.036 39.244 417.624C39.784 418.212 40.534 418.506 41.494 418.506C42.442 418.506 43.144 418.236 43.6 417.696C44.068 417.144 44.302 416.448 44.302 415.608V415.302H46.228V415.554C46.228 417.006 45.814 418.152 44.986 418.992C44.17 419.832 43.006 420.252 41.494 420.252ZM51.1884 420.252C50.5524 420.252 49.9824 420.144 49.4784 419.928C48.9864 419.712 48.5904 419.394 48.2904 418.974C48.0024 418.554 47.8584 418.044 47.8584 417.444C47.8584 416.832 48.0024 416.328 48.2904 415.932C48.5904 415.524 48.9924 415.218 49.4964 415.014C50.0124 414.81 50.5944 414.708 51.2424 414.708H53.9424V414.132C53.9424 413.616 53.7864 413.202 53.4744 412.89C53.1624 412.578 52.6824 412.422 52.0344 412.422C51.3984 412.422 50.9124 412.572 50.5764 412.872C50.2404 413.172 50.0184 413.562 49.9104 414.042L48.1824 413.484C48.3264 413.004 48.5544 412.572 48.8664 412.188C49.1904 411.792 49.6164 411.474 50.1444 411.234C50.6724 410.994 51.3084 410.874 52.0524 410.874C53.2044 410.874 54.1104 411.168 54.7704 411.756C55.4304 412.344 55.7604 413.178 55.7604 414.258V417.912C55.7604 418.272 55.9284 418.452 56.2644 418.452H57.0204V420H55.6344C55.2144 420 54.8724 419.892 54.6084 419.676C54.3444 419.46 54.2124 419.166 54.2124 418.794V418.74H53.9424C53.8464 418.92 53.7024 419.13 53.5104 419.37C53.3184 419.61 53.0364 419.82 52.6644 420C52.2924 420.168 51.8004 420.252 51.1884 420.252ZM51.4584 418.722C52.2024 418.722 52.8024 418.512 53.2584 418.092C53.7144 417.66 53.9424 417.072 53.9424 416.328V416.148H51.3504C50.8584 416.148 50.4624 416.256 50.1624 416.472C49.8624 416.676 49.7124 416.982 49.7124 417.39C49.7124 417.798 49.8684 418.122 50.1804 418.362C50.4924 418.602 50.9184 418.722 51.4584 418.722ZM58.8231 423.6V411.126H60.6411V412.404H60.9291C61.1571 412.008 61.4991 411.654 61.9551 411.342C62.4231 411.03 63.0891 410.874 63.9531 410.874C64.6971 410.874 65.3751 411.054 65.9871 411.414C66.6111 411.774 67.1091 412.296 67.4811 412.98C67.8651 413.652 68.0571 414.468 68.0571 415.428V415.698C68.0571 416.658 67.8711 417.48 67.4991 418.164C67.1271 418.836 66.6291 419.352 66.0051 419.712C65.3811 420.072 64.6971 420.252 63.9531 420.252C63.3771 420.252 62.8911 420.18 62.4951 420.036C62.0991 419.892 61.7811 419.712 61.5411 419.496C61.3011 419.268 61.1091 419.034 60.9651 418.794H60.6771V423.6H58.8231ZM63.4131 418.632C64.2291 418.632 64.8951 418.374 65.4111 417.858C65.9271 417.342 66.1851 416.604 66.1851 415.644V415.482C66.1851 414.534 65.9211 413.802 65.3931 413.286C64.8771 412.77 64.2171 412.512 63.4131 412.512C62.6211 412.512 61.9611 412.77 61.4331 413.286C60.9171 413.802 60.6591 414.534 60.6591 415.482V415.644C60.6591 416.604 60.9171 417.342 61.4331 417.858C61.9611 418.374 62.6211 418.632 63.4131 418.632ZM73.1083 420.252C72.4723 420.252 71.9023 420.144 71.3983 419.928C70.9063 419.712 70.5103 419.394 70.2103 418.974C69.9223 418.554 69.7783 418.044 69.7783 417.444C69.7783 416.832 69.9223 416.328 70.2103 415.932C70.5103 415.524 70.9123 415.218 71.4163 415.014C71.9323 414.81 72.5143 414.708 73.1623 414.708H75.8623V414.132C75.8623 413.616 75.7063 413.202 75.3943 412.89C75.0823 412.578 74.6023 412.422 73.9543 412.422C73.3183 412.422 72.8323 412.572 72.4963 412.872C72.1603 413.172 71.9383 413.562 71.8303 414.042L70.1023 413.484C70.2463 413.004 70.4743 412.572 70.7863 412.188C71.1103 411.792 71.5363 411.474 72.0643 411.234C72.5923 410.994 73.2283 410.874 73.9723 410.874C75.1243 410.874 76.0303 411.168 76.6903 411.756C77.3503 412.344 77.6803 413.178 77.6803 414.258V417.912C77.6803 418.272 77.8483 418.452 78.1843 418.452H78.9403V420H77.5543C77.1343 420 76.7923 419.892 76.5283 419.676C76.2643 419.46 76.1323 419.166 76.1323 418.794V418.74H75.8623C75.7663 418.92 75.6223 419.13 75.4303 419.37C75.2383 419.61 74.9563 419.82 74.5843 420C74.2123 420.168 73.7203 420.252 73.1083 420.252ZM73.3783 418.722C74.1223 418.722 74.7223 418.512 75.1783 418.092C75.6343 417.66 75.8623 417.072 75.8623 416.328V416.148H73.2703C72.7783 416.148 72.3823 416.256 72.0823 416.472C71.7823 416.676 71.6323 416.982 71.6323 417.39C71.6323 417.798 71.7883 418.122 72.1003 418.362C72.4123 418.602 72.8383 418.722 73.3783 418.722ZM84.6541 420.252C83.8021 420.252 83.0281 420.072 82.3321 419.712C81.6481 419.352 81.1021 418.83 80.6941 418.146C80.2981 417.462 80.1001 416.64 80.1001 415.68V415.446C80.1001 414.486 80.2981 413.67 80.6941 412.998C81.1021 412.314 81.6481 411.792 82.3321 411.432C83.0281 411.06 83.8021 410.874 84.6541 410.874C85.5061 410.874 86.2321 411.03 86.8321 411.342C87.4321 411.654 87.9121 412.068 88.2721 412.584C88.6441 413.1 88.8841 413.67 88.9921 414.294L87.1921 414.672C87.1321 414.276 87.0061 413.916 86.8141 413.592C86.6221 413.268 86.3521 413.01 86.0041 412.818C85.6561 412.626 85.2181 412.53 84.6901 412.53C84.1741 412.53 83.7061 412.65 83.2861 412.89C82.8781 413.118 82.5541 413.454 82.3141 413.898C82.0741 414.33 81.9541 414.858 81.9541 415.482V415.644C81.9541 416.268 82.0741 416.802 82.3141 417.246C82.5541 417.69 82.8781 418.026 83.2861 418.254C83.7061 418.482 84.1741 418.596 84.6901 418.596C85.4701 418.596 86.0641 418.398 86.4721 418.002C86.8801 417.594 87.1381 417.078 87.2461 416.454L89.0461 416.868C88.9021 417.48 88.6441 418.044 88.2721 418.56C87.9121 419.076 87.4321 419.49 86.8321 419.802C86.2321 420.102 85.5061 420.252 84.6541 420.252ZM91.1844 420V411.126H93.0384V420H91.1844ZM92.1204 409.92C91.7604 409.92 91.4544 409.806 91.2024 409.578C90.9624 409.338 90.8424 409.032 90.8424 408.66C90.8424 408.288 90.9624 407.988 91.2024 407.76C91.4544 407.52 91.7604 407.4 92.1204 407.4C92.4924 407.4 92.7984 407.52 93.0384 407.76C93.2784 407.988 93.3984 408.288 93.3984 408.66C93.3984 409.032 93.2784 409.338 93.0384 409.578C92.7984 409.806 92.4924 409.92 92.1204 409.92ZM99.1199 420C98.5799 420 98.1479 419.838 97.8239 419.514C97.5119 419.19 97.3559 418.758 97.3559 418.218V412.692H94.9079V411.126H97.3559V408.192H99.2099V411.126H101.856V412.692H99.2099V417.894C99.2099 418.254 99.3779 418.434 99.7139 418.434H101.568V420H99.1199ZM105.06 423.6V421.98H110.01C110.346 421.98 110.514 421.8 110.514 421.44V418.704H110.226C110.118 418.944 109.95 419.178 109.722 419.406C109.506 419.622 109.212 419.802 108.84 419.946C108.468 420.09 108 420.162 107.436 420.162C106.764 420.162 106.164 420.012 105.636 419.712C105.108 419.412 104.694 418.986 104.394 418.434C104.094 417.882 103.944 417.228 103.944 416.472V411.126H105.798V416.328C105.798 417.096 105.99 417.666 106.374 418.038C106.758 418.398 107.292 418.578 107.976 418.578C108.732 418.578 109.338 418.326 109.794 417.822C110.262 417.318 110.496 416.586 110.496 415.626V411.126H112.35V421.818C112.35 422.358 112.188 422.79 111.864 423.114C111.552 423.438 111.12 423.6 110.568 423.6H105.06Z" fill="#1C1917"/>
<rect x="170.5" y="103.5" width="149" height="62" rx="23.5" fill="#F7FEE7"/>
<rect x="170.5" y="103.5" width="149" height="62" rx="23.5" stroke="#292524"/>
<path d="M218.82 141V130.164H214.95V128.4H224.634V130.164H220.764V141H218.82ZM228.868 141.252C227.98 141.252 227.188 141.072 226.492 140.712C225.808 140.34 225.268 139.812 224.872 139.128C224.476 138.444 224.278 137.634 224.278 136.698V136.428C224.278 135.492 224.476 134.688 224.872 134.016C225.268 133.332 225.808 132.804 226.492 132.432C227.188 132.06 227.98 131.874 228.868 131.874C229.756 131.874 230.548 132.06 231.244 132.432C231.94 132.804 232.486 133.332 232.882 134.016C233.278 134.688 233.476 135.492 233.476 136.428V136.698C233.476 137.634 233.278 138.444 232.882 139.128C232.486 139.812 231.94 140.34 231.244 140.712C230.548 141.072 229.756 141.252 228.868 141.252ZM228.868 139.596C229.684 139.596 230.344 139.338 230.848 138.822C231.364 138.294 231.622 137.568 231.622 136.644V136.482C231.622 135.558 231.37 134.838 230.866 134.322C230.362 133.794 229.696 133.53 228.868 133.53C228.064 133.53 227.404 133.794 226.888 134.322C226.384 134.838 226.132 135.558 226.132 136.482V136.644C226.132 137.568 226.384 138.294 226.888 138.822C227.404 139.338 228.064 139.596 228.868 139.596ZM236.81 144.6V142.98H241.76C242.096 142.98 242.264 142.8 242.264 142.44V139.704H241.976C241.868 139.944 241.7 140.178 241.472 140.406C241.256 140.622 240.962 140.802 240.59 140.946C240.218 141.09 239.75 141.162 239.186 141.162C238.514 141.162 237.914 141.012 237.386 140.712C236.858 140.412 236.444 139.986 236.144 139.434C235.844 138.882 235.694 138.228 235.694 137.472V132.126H237.548V137.328C237.548 138.096 237.74 138.666 238.124 139.038C238.508 139.398 239.042 139.578 239.726 139.578C240.482 139.578 241.088 139.326 241.544 138.822C242.012 138.318 242.246 137.586 242.246 136.626V132.126H244.1V142.818C244.1 143.358 243.938 143.79 243.614 144.114C243.302 144.438 242.87 144.6 242.318 144.6H236.81ZM250.999 141.252C250.111 141.252 249.319 141.072 248.623 140.712C247.939 140.34 247.399 139.812 247.003 139.128C246.607 138.444 246.409 137.634 246.409 136.698V136.428C246.409 135.492 246.607 134.688 247.003 134.016C247.399 133.332 247.939 132.804 248.623 132.432C249.319 132.06 250.111 131.874 250.999 131.874C251.887 131.874 252.679 132.06 253.375 132.432C254.071 132.804 254.617 133.332 255.013 134.016C255.409 134.688 255.607 135.492 255.607 136.428V136.698C255.607 137.634 255.409 138.444 255.013 139.128C254.617 139.812 254.071 140.34 253.375 140.712C252.679 141.072 251.887 141.252 250.999 141.252ZM250.999 139.596C251.815 139.596 252.475 139.338 252.979 138.822C253.495 138.294 253.753 137.568 253.753 136.644V136.482C253.753 135.558 253.501 134.838 252.997 134.322C252.493 133.794 251.827 133.53 250.999 133.53C250.195 133.53 249.535 133.794 249.019 134.322C248.515 134.838 248.263 135.558 248.263 136.482V136.644C248.263 137.568 248.515 138.294 249.019 138.822C249.535 139.338 250.195 139.596 250.999 139.596ZM260.911 141C260.371 141 259.939 140.838 259.615 140.514C259.303 140.19 259.147 139.758 259.147 139.218V133.692H256.699V132.126H259.147V129.192H261.001V132.126H263.647V133.692H261.001V138.894C261.001 139.254 261.169 139.434 261.505 139.434H263.359V141H260.911ZM268.561 141.252C267.925 141.252 267.355 141.144 266.851 140.928C266.359 140.712 265.963 140.394 265.663 139.974C265.375 139.554 265.231 139.044 265.231 138.444C265.231 137.832 265.375 137.328 265.663 136.932C265.963 136.524 266.365 136.218 266.869 136.014C267.385 135.81 267.967 135.708 268.615 135.708H271.315V135.132C271.315 134.616 271.159 134.202 270.847 133.89C270.535 133.578 270.055 133.422 269.407 133.422C268.771 133.422 268.285 133.572 267.949 133.872C267.613 134.172 267.391 134.562 267.283 135.042L265.555 134.484C265.699 134.004 265.927 133.572 266.239 133.188C266.563 132.792 266.989 132.474 267.517 132.234C268.045 131.994 268.681 131.874 269.425 131.874C270.577 131.874 271.483 132.168 272.143 132.756C272.803 133.344 273.133 134.178 273.133 135.258V138.912C273.133 139.272 273.301 139.452 273.637 139.452H274.393V141H273.007C272.587 141 272.245 140.892 271.981 140.676C271.717 140.46 271.585 140.166 271.585 139.794V139.74H271.315C271.219 139.92 271.075 140.13 270.883 140.37C270.691 140.61 270.409 140.82 270.037 141C269.665 141.168 269.173 141.252 268.561 141.252ZM268.831 139.722C269.575 139.722 270.175 139.512 270.631 139.092C271.087 138.66 271.315 138.072 271.315 137.328V137.148H268.723C268.231 137.148 267.835 137.256 267.535 137.472C267.235 137.676 267.085 137.982 267.085 138.39C267.085 138.798 267.241 139.122 267.553 139.362C267.865 139.602 268.291 139.722 268.831 139.722Z" fill="#1C1917"/>
<rect x="170.5" y="196.5" width="149" height="62" rx="23.5" fill="#F7FEE7"/>
<rect x="170.5" y="196.5" width="149" height="62" rx="23.5" stroke="#292524"/>
<path d="M220.994 234.252C219.458 234.252 218.24 233.82 217.34 232.956C216.44 232.08 215.99 230.82 215.99 229.176V226.224C215.99 224.58 216.44 223.326 217.34 222.462C218.24 221.586 219.458 221.148 220.994 221.148C222.506 221.148 223.67 221.568 224.486 222.408C225.314 223.248 225.728 224.394 225.728 225.846V225.954H223.802V225.792C223.802 224.94 223.568 224.244 223.1 223.704C222.644 223.164 221.942 222.894 220.994 222.894C220.034 222.894 219.284 223.188 218.744 223.776C218.204 224.352 217.934 225.156 217.934 226.188V229.212C217.934 230.232 218.204 231.036 218.744 231.624C219.284 232.212 220.034 232.506 220.994 232.506C221.942 232.506 222.644 232.236 223.1 231.696C223.568 231.144 223.802 230.448 223.802 229.608V229.302H225.728V229.554C225.728 231.006 225.314 232.152 224.486 232.992C223.67 233.832 222.506 234.252 220.994 234.252ZM232.092 234.252C231.204 234.252 230.412 234.072 229.716 233.712C229.032 233.34 228.492 232.812 228.096 232.128C227.7 231.444 227.502 230.634 227.502 229.698V229.428C227.502 228.492 227.7 227.688 228.096 227.016C228.492 226.332 229.032 225.804 229.716 225.432C230.412 225.06 231.204 224.874 232.092 224.874C232.98 224.874 233.772 225.06 234.468 225.432C235.164 225.804 235.71 226.332 236.106 227.016C236.502 227.688 236.7 228.492 236.7 229.428V229.698C236.7 230.634 236.502 231.444 236.106 232.128C235.71 232.812 235.164 233.34 234.468 233.712C233.772 234.072 232.98 234.252 232.092 234.252ZM232.092 232.596C232.908 232.596 233.568 232.338 234.072 231.822C234.588 231.294 234.846 230.568 234.846 229.644V229.482C234.846 228.558 234.594 227.838 234.09 227.322C233.586 226.794 232.92 226.53 232.092 226.53C231.288 226.53 230.628 226.794 230.112 227.322C229.608 227.838 229.356 228.558 229.356 229.482V229.644C229.356 230.568 229.608 231.294 230.112 231.822C230.628 232.338 231.288 232.596 232.092 232.596ZM239.009 234V225.126H240.827V226.17H241.115C241.259 225.798 241.487 225.528 241.799 225.36C242.123 225.18 242.519 225.09 242.987 225.09H244.049V226.764H242.915C242.315 226.764 241.823 226.932 241.439 227.268C241.055 227.592 240.863 228.096 240.863 228.78V234H239.009ZM249.811 234.252C248.923 234.252 248.131 234.072 247.435 233.712C246.751 233.34 246.211 232.812 245.815 232.128C245.419 231.444 245.221 230.634 245.221 229.698V229.428C245.221 228.492 245.419 227.688 245.815 227.016C246.211 226.332 246.751 225.804 247.435 225.432C248.131 225.06 248.923 224.874 249.811 224.874C250.699 224.874 251.491 225.06 252.187 225.432C252.883 225.804 253.429 226.332 253.825 227.016C254.221 227.688 254.419 228.492 254.419 229.428V229.698C254.419 230.634 254.221 231.444 253.825 232.128C253.429 232.812 252.883 233.34 252.187 233.712C251.491 234.072 250.699 234.252 249.811 234.252ZM249.811 232.596C250.627 232.596 251.287 232.338 251.791 231.822C252.307 231.294 252.565 230.568 252.565 229.644V229.482C252.565 228.558 252.313 227.838 251.809 227.322C251.305 226.794 250.639 226.53 249.811 226.53C249.007 226.53 248.347 226.794 247.831 227.322C247.327 227.838 247.075 228.558 247.075 229.482V229.644C247.075 230.568 247.327 231.294 247.831 231.822C248.347 232.338 249.007 232.596 249.811 232.596ZM256.727 234V221.4H258.581V234H256.727ZM261.333 234V221.4H263.187V234H261.333ZM268.692 234.252C268.056 234.252 267.486 234.144 266.982 233.928C266.49 233.712 266.094 233.394 265.794 232.974C265.506 232.554 265.362 232.044 265.362 231.444C265.362 230.832 265.506 230.328 265.794 229.932C266.094 229.524 266.496 229.218 267 229.014C267.516 228.81 268.098 228.708 268.746 228.708H271.446V228.132C271.446 227.616 271.29 227.202 270.978 226.89C270.666 226.578 270.186 226.422 269.538 226.422C268.902 226.422 268.416 226.572 268.08 226.872C267.744 227.172 267.522 227.562 267.414 228.042L265.686 227.484C265.83 227.004 266.058 226.572 266.37 226.188C266.694 225.792 267.12 225.474 267.648 225.234C268.176 224.994 268.812 224.874 269.556 224.874C270.708 224.874 271.614 225.168 272.274 225.756C272.934 226.344 273.264 227.178 273.264 228.258V231.912C273.264 232.272 273.432 232.452 273.768 232.452H274.524V234H273.138C272.718 234 272.376 233.892 272.112 233.676C271.848 233.46 271.716 233.166 271.716 232.794V232.74H271.446C271.35 232.92 271.206 233.13 271.014 233.37C270.822 233.61 270.54 233.82 270.168 234C269.796 234.168 269.304 234.252 268.692 234.252ZM268.962 232.722C269.706 232.722 270.306 232.512 270.762 232.092C271.218 231.66 271.446 231.072 271.446 230.328V230.148H268.854C268.362 230.148 267.966 230.256 267.666 230.472C267.366 230.676 267.216 230.982 267.216 231.39C267.216 231.798 267.372 232.122 267.684 232.362C267.996 232.602 268.422 232.722 268.962 232.722Z" fill="#1C1917"/>
<rect x="170.5" y="289.5" width="149" height="62" rx="23.5" fill="#F7FEE7"/>
<rect x="170.5" y="289.5" width="149" height="62" rx="23.5" stroke="#292524"/>
<path d="M223.364 327V325.578C223.364 324.702 223.514 323.982 223.814 323.418C224.114 322.854 224.54 322.398 225.092 322.05C225.656 321.69 226.334 321.39 227.126 321.15L228.224 320.808C228.716 320.652 229.136 320.46 229.484 320.232C229.844 320.004 230.12 319.722 230.312 319.386C230.504 319.038 230.6 318.636 230.6 318.18V318.108C230.6 317.4 230.36 316.848 229.88 316.452C229.4 316.044 228.77 315.84 227.99 315.84C227.186 315.84 226.532 316.056 226.028 316.488C225.536 316.92 225.29 317.556 225.29 318.396V318.684H223.418V318.414C223.418 317.502 223.616 316.734 224.012 316.11C224.408 315.474 224.954 314.988 225.65 314.652C226.346 314.316 227.126 314.148 227.99 314.148C228.854 314.148 229.622 314.31 230.294 314.634C230.978 314.958 231.512 315.414 231.896 316.002C232.292 316.59 232.49 317.28 232.49 318.072V318.234C232.49 319.05 232.328 319.728 232.004 320.268C231.68 320.808 231.23 321.252 230.654 321.6C230.09 321.948 229.436 322.242 228.692 322.482L227.63 322.806C227.066 322.974 226.61 323.16 226.262 323.364C225.926 323.556 225.674 323.79 225.506 324.066C225.35 324.342 225.272 324.696 225.272 325.128V325.308H232.382V327H223.364ZM239.054 327.252C237.59 327.252 236.42 326.838 235.544 326.01C234.68 325.17 234.248 323.91 234.248 322.23V319.17C234.248 317.526 234.68 316.278 235.544 315.426C236.42 314.574 237.59 314.148 239.054 314.148C240.53 314.148 241.7 314.574 242.564 315.426C243.44 316.278 243.878 317.526 243.878 319.17V322.23C243.878 323.91 243.44 325.17 242.564 326.01C241.7 326.838 240.53 327.252 239.054 327.252ZM239.054 325.56C240.05 325.56 240.788 325.278 241.268 324.714C241.748 324.138 241.988 323.334 241.988 322.302V319.062C241.988 318.03 241.73 317.238 241.214 316.686C240.698 316.122 239.978 315.84 239.054 315.84C238.118 315.84 237.398 316.128 236.894 316.704C236.39 317.268 236.138 318.054 236.138 319.062V322.302C236.138 323.358 236.378 324.168 236.858 324.732C237.35 325.284 238.082 325.56 239.054 325.56ZM245.723 327V325.578C245.723 324.702 245.873 323.982 246.173 323.418C246.473 322.854 246.899 322.398 247.451 322.05C248.015 321.69 248.693 321.39 249.485 321.15L250.583 320.808C251.075 320.652 251.495 320.46 251.843 320.232C252.203 320.004 252.479 319.722 252.671 319.386C252.863 319.038 252.959 318.636 252.959 318.18V318.108C252.959 317.4 252.719 316.848 252.239 316.452C251.759 316.044 251.129 315.84 250.349 315.84C249.545 315.84 248.891 316.056 248.387 316.488C247.895 316.92 247.649 317.556 247.649 318.396V318.684H245.777V318.414C245.777 317.502 245.975 316.734 246.371 316.11C246.767 315.474 247.313 314.988 248.009 314.652C248.705 314.316 249.485 314.148 250.349 314.148C251.213 314.148 251.981 314.31 252.653 314.634C253.337 314.958 253.871 315.414 254.255 316.002C254.651 316.59 254.849 317.28 254.849 318.072V318.234C254.849 319.05 254.687 319.728 254.363 320.268C254.039 320.808 253.589 321.252 253.013 321.6C252.449 321.948 251.795 322.242 251.051 322.482L249.989 322.806C249.425 322.974 248.969 323.16 248.621 323.364C248.285 323.556 248.033 323.79 247.865 324.066C247.709 324.342 247.631 324.696 247.631 325.128V325.308H254.741V327H245.723ZM261.413 327.252C259.949 327.252 258.779 326.838 257.903 326.01C257.039 325.17 256.607 323.91 256.607 322.23V319.17C256.607 317.526 257.039 316.278 257.903 315.426C258.779 314.574 259.949 314.148 261.413 314.148C262.889 314.148 264.059 314.574 264.923 315.426C265.799 316.278 266.237 317.526 266.237 319.17V322.23C266.237 323.91 265.799 325.17 264.923 326.01C264.059 326.838 262.889 327.252 261.413 327.252ZM261.413 325.56C262.409 325.56 263.147 325.278 263.627 324.714C264.107 324.138 264.347 323.334 264.347 322.302V319.062C264.347 318.03 264.089 317.238 263.573 316.686C263.057 316.122 262.337 315.84 261.413 315.84C260.477 315.84 259.757 316.128 259.253 316.704C258.749 317.268 258.497 318.054 258.497 319.062V322.302C258.497 323.358 258.737 324.168 259.217 324.732C259.709 325.284 260.441 325.56 261.413 325.56Z" fill="#1C1917"/>
<rect x="170.5" y="382.5" width="149" height="62" rx="23.5" fill="#F7FEE7"/>
<rect x="170.5" y="382.5" width="149" height="62" rx="23.5" stroke="#292524"/>
<path d="M244.936 420.252C243.988 420.252 243.166 420.078 242.47 419.73C241.774 419.382 241.234 418.89 240.85 418.254C240.478 417.618 240.292 416.88 240.292 416.04V415.842H242.218V416.022C242.218 416.79 242.452 417.408 242.92 417.876C243.4 418.332 244.066 418.56 244.918 418.56C245.794 418.56 246.472 418.32 246.952 417.84C247.432 417.36 247.672 416.712 247.672 415.896V415.734C247.672 414.954 247.432 414.33 246.952 413.862C246.484 413.394 245.884 413.16 245.152 413.16C244.744 413.16 244.402 413.226 244.126 413.358C243.862 413.478 243.646 413.628 243.478 413.808C243.322 413.988 243.19 414.162 243.082 414.33H240.688V407.4H249.13V409.11H242.578V412.818H242.866C242.986 412.614 243.154 412.422 243.37 412.242C243.598 412.05 243.892 411.894 244.252 411.774C244.612 411.654 245.044 411.594 245.548 411.594C246.292 411.594 246.964 411.756 247.564 412.08C248.176 412.392 248.662 412.86 249.022 413.484C249.382 414.096 249.562 414.84 249.562 415.716V415.914C249.562 416.79 249.376 417.552 249.004 418.2C248.632 418.848 248.098 419.352 247.402 419.712C246.718 420.072 245.896 420.252 244.936 420.252Z" fill="#1C1917"/>
<path d="M160 63L160 71.5714C160 77.8832 165.117 83 171.429 83L233.571 83C239.883 83 245 88.1167 245 94.4286L245 103" stroke="#292524"/>
<path d="M160 63L160 71.5714C160 77.8832 154.883 83 148.571 83L86.4286 83C80.1167 83 75 88.1167 75 94.4286L75 103" stroke="#292524"/>
<line x1="75.5" y1="166" x2="75.5" y2="196" stroke="#292524"/>
<line x1="75.5" y1="259" x2="75.5" y2="289" stroke="#292524"/>
<line x1="75.5" y1="352" x2="75.5" y2="382" stroke="#292524"/>
<line x1="245.5" y1="166" x2="245.5" y2="196" stroke="#292524"/>
<line x1="245.5" y1="259" x2="245.5" y2="289" stroke="#292524"/>
<line x1="245.5" y1="352" x2="245.5" y2="382" stroke="#292524"/>
<rect x="400.5" y="0.5" width="319" height="62" rx="23.5" fill="#CCFBF1"/>
<rect x="400.5" y="0.5" width="319" height="62" rx="23.5" stroke="#292524"/>
<path d="M435.314 38V25.4H440.318C441.086 25.4 441.77 25.556 442.37 25.868C442.982 26.168 443.456 26.6 443.792 27.164C444.14 27.716 444.314 28.382 444.314 29.162V29.396C444.314 30.176 444.134 30.848 443.774 31.412C443.426 31.976 442.952 32.408 442.352 32.708C441.752 33.008 441.074 33.158 440.318 33.158H437.258V38H435.314ZM437.258 31.394H440.12C440.804 31.394 441.35 31.214 441.758 30.854C442.166 30.494 442.37 30.002 442.37 29.378V29.198C442.37 28.562 442.166 28.064 441.758 27.704C441.35 27.344 440.804 27.164 440.12 27.164H437.258V31.394ZM446.214 38V29.126H448.032V30.17H448.32C448.464 29.798 448.692 29.528 449.004 29.36C449.328 29.18 449.724 29.09 450.192 29.09H451.254V30.764H450.12C449.52 30.764 449.028 30.932 448.644 31.268C448.26 31.592 448.068 32.096 448.068 32.78V38H446.214ZM457.016 38.252C456.128 38.252 455.336 38.072 454.64 37.712C453.956 37.34 453.416 36.812 453.02 36.128C452.624 35.444 452.426 34.634 452.426 33.698V33.428C452.426 32.492 452.624 31.688 453.02 31.016C453.416 30.332 453.956 29.804 454.64 29.432C455.336 29.06 456.128 28.874 457.016 28.874C457.904 28.874 458.696 29.06 459.392 29.432C460.088 29.804 460.634 30.332 461.03 31.016C461.426 31.688 461.624 32.492 461.624 33.428V33.698C461.624 34.634 461.426 35.444 461.03 36.128C460.634 36.812 460.088 37.34 459.392 37.712C458.696 38.072 457.904 38.252 457.016 38.252ZM457.016 36.596C457.832 36.596 458.492 36.338 458.996 35.822C459.512 35.294 459.77 34.568 459.77 33.644V33.482C459.77 32.558 459.518 31.838 459.014 31.322C458.51 30.794 457.844 30.53 457.016 30.53C456.212 30.53 455.552 30.794 455.036 31.322C454.532 31.838 454.28 32.558 454.28 33.482V33.644C454.28 34.568 454.532 35.294 455.036 35.822C455.552 36.338 456.212 36.596 457.016 36.596ZM463.932 41.6V29.126H465.75V30.404H466.038C466.266 30.008 466.608 29.654 467.064 29.342C467.532 29.03 468.198 28.874 469.062 28.874C469.806 28.874 470.484 29.054 471.096 29.414C471.72 29.774 472.218 30.296 472.59 30.98C472.974 31.652 473.166 32.468 473.166 33.428V33.698C473.166 34.658 472.98 35.48 472.608 36.164C472.236 36.836 471.738 37.352 471.114 37.712C470.49 38.072 469.806 38.252 469.062 38.252C468.486 38.252 468 38.18 467.604 38.036C467.208 37.892 466.89 37.712 466.65 37.496C466.41 37.268 466.218 37.034 466.074 36.794H465.786V41.6H463.932ZM468.522 36.632C469.338 36.632 470.004 36.374 470.52 35.858C471.036 35.342 471.294 34.604 471.294 33.644V33.482C471.294 32.534 471.03 31.802 470.502 31.286C469.986 30.77 469.326 30.512 468.522 30.512C467.73 30.512 467.07 30.77 466.542 31.286C466.026 31.802 465.768 32.534 465.768 33.482V33.644C465.768 34.604 466.026 35.342 466.542 35.858C467.07 36.374 467.73 36.632 468.522 36.632ZM479.532 38.252C478.632 38.252 477.846 38.066 477.174 37.694C476.502 37.31 475.974 36.776 475.59 36.092C475.218 35.396 475.032 34.592 475.032 33.68V33.464C475.032 32.54 475.218 31.736 475.59 31.052C475.962 30.356 476.478 29.822 477.138 29.45C477.81 29.066 478.584 28.874 479.46 28.874C480.312 28.874 481.056 29.066 481.692 29.45C482.34 29.822 482.844 30.344 483.204 31.016C483.564 31.688 483.744 32.474 483.744 33.374V34.076H476.922C476.946 34.856 477.204 35.48 477.696 35.948C478.2 36.404 478.824 36.632 479.568 36.632C480.264 36.632 480.786 36.476 481.134 36.164C481.494 35.852 481.77 35.492 481.962 35.084L483.492 35.876C483.324 36.212 483.078 36.566 482.754 36.938C482.442 37.31 482.028 37.622 481.512 37.874C480.996 38.126 480.336 38.252 479.532 38.252ZM476.94 32.654H481.854C481.806 31.982 481.566 31.46 481.134 31.088C480.702 30.704 480.138 30.512 479.442 30.512C478.746 30.512 478.176 30.704 477.732 31.088C477.3 31.46 477.036 31.982 476.94 32.654ZM485.975 38V29.126H487.793V30.17H488.081C488.225 29.798 488.453 29.528 488.765 29.36C489.089 29.18 489.485 29.09 489.953 29.09H491.015V30.764H489.881C489.281 30.764 488.789 30.932 488.405 31.268C488.021 31.592 487.829 32.096 487.829 32.78V38H485.975ZM496.266 38C495.726 38 495.294 37.838 494.97 37.514C494.658 37.19 494.502 36.758 494.502 36.218V30.692H492.054V29.126H494.502V26.192H496.356V29.126H499.002V30.692H496.356V35.894C496.356 36.254 496.524 36.434 496.86 36.434H498.714V38H496.266ZM501.181 38V29.126H503.035V38H501.181ZM502.117 27.92C501.757 27.92 501.451 27.806 501.199 27.578C500.959 27.338 500.839 27.032 500.839 26.66C500.839 26.288 500.959 25.988 501.199 25.76C501.451 25.52 501.757 25.4 502.117 25.4C502.489 25.4 502.795 25.52 503.035 25.76C503.275 25.988 503.395 26.288 503.395 26.66C503.395 27.032 503.275 27.338 503.035 27.578C502.795 27.806 502.489 27.92 502.117 27.92ZM509.854 38.252C508.954 38.252 508.168 38.066 507.496 37.694C506.824 37.31 506.296 36.776 505.912 36.092C505.54 35.396 505.354 34.592 505.354 33.68V33.464C505.354 32.54 505.54 31.736 505.912 31.052C506.284 30.356 506.8 29.822 507.46 29.45C508.132 29.066 508.906 28.874 509.782 28.874C510.634 28.874 511.378 29.066 512.014 29.45C512.662 29.822 513.166 30.344 513.526 31.016C513.886 31.688 514.066 32.474 514.066 33.374V34.076H507.244C507.268 34.856 507.526 35.48 508.018 35.948C508.522 36.404 509.146 36.632 509.89 36.632C510.586 36.632 511.108 36.476 511.456 36.164C511.816 35.852 512.092 35.492 512.284 35.084L513.814 35.876C513.646 36.212 513.4 36.566 513.076 36.938C512.764 37.31 512.35 37.622 511.834 37.874C511.318 38.126 510.658 38.252 509.854 38.252ZM507.262 32.654H512.176C512.128 31.982 511.888 31.46 511.456 31.088C511.024 30.704 510.46 30.512 509.764 30.512C509.068 30.512 508.498 30.704 508.054 31.088C507.622 31.46 507.358 31.982 507.262 32.654ZM519.934 38.252C518.806 38.252 517.87 38 517.126 37.496C516.382 36.992 515.926 36.23 515.758 35.21L517.486 34.796C517.582 35.288 517.744 35.678 517.972 35.966C518.2 36.254 518.482 36.458 518.818 36.578C519.166 36.698 519.538 36.758 519.934 36.758C520.522 36.758 520.972 36.644 521.284 36.416C521.608 36.188 521.77 35.894 521.77 35.534C521.77 35.174 521.62 34.91 521.32 34.742C521.02 34.574 520.576 34.436 519.988 34.328L519.376 34.22C518.776 34.112 518.23 33.956 517.738 33.752C517.246 33.548 516.856 33.266 516.568 32.906C516.28 32.546 516.136 32.084 516.136 31.52C516.136 30.68 516.448 30.032 517.072 29.576C517.696 29.108 518.524 28.874 519.556 28.874C520.552 28.874 521.368 29.102 522.004 29.558C522.652 30.002 523.072 30.608 523.264 31.376L521.536 31.862C521.428 31.322 521.2 30.944 520.852 30.728C520.504 30.5 520.072 30.386 519.556 30.386C519.052 30.386 518.656 30.482 518.368 30.674C518.08 30.854 517.936 31.112 517.936 31.448C517.936 31.808 518.074 32.072 518.35 32.24C518.638 32.408 519.022 32.534 519.502 32.618L520.132 32.726C520.768 32.834 521.35 32.984 521.878 33.176C522.406 33.368 522.82 33.644 523.12 34.004C523.432 34.364 523.588 34.844 523.588 35.444C523.588 36.332 523.258 37.022 522.598 37.514C521.938 38.006 521.05 38.252 519.934 38.252ZM534.501 38.252C533.613 38.252 532.821 38.072 532.125 37.712C531.441 37.34 530.901 36.812 530.505 36.128C530.109 35.444 529.911 34.634 529.911 33.698V33.428C529.911 32.492 530.109 31.688 530.505 31.016C530.901 30.332 531.441 29.804 532.125 29.432C532.821 29.06 533.613 28.874 534.501 28.874C535.389 28.874 536.181 29.06 536.877 29.432C537.573 29.804 538.119 30.332 538.515 31.016C538.911 31.688 539.109 32.492 539.109 33.428V33.698C539.109 34.634 538.911 35.444 538.515 36.128C538.119 36.812 537.573 37.34 536.877 37.712C536.181 38.072 535.389 38.252 534.501 38.252ZM534.501 36.596C535.317 36.596 535.977 36.338 536.481 35.822C536.997 35.294 537.255 34.568 537.255 33.644V33.482C537.255 32.558 537.003 31.838 536.499 31.322C535.995 30.794 535.329 30.53 534.501 30.53C533.697 30.53 533.037 30.794 532.521 31.322C532.017 31.838 531.765 32.558 531.765 33.482V33.644C531.765 34.568 532.017 35.294 532.521 35.822C533.037 36.338 533.697 36.596 534.501 36.596ZM542.685 38V30.692H540.201V29.126H542.685V27.182C542.685 26.642 542.847 26.21 543.171 25.886C543.495 25.562 543.927 25.4 544.467 25.4H546.753V26.966H545.061C544.713 26.966 544.539 27.146 544.539 27.506V29.126H547.095V30.692H544.539V38H542.685ZM556.911 38C556.371 38 555.939 37.838 555.615 37.514C555.303 37.19 555.147 36.758 555.147 36.218V30.692H552.699V29.126H555.147V26.192H557.001V29.126H559.647V30.692H557.001V35.894C557.001 36.254 557.169 36.434 557.505 36.434H559.359V38H556.911ZM561.825 38V25.4H563.679V30.386H563.967C564.087 30.158 564.255 29.936 564.471 29.72C564.699 29.504 564.993 29.33 565.353 29.198C565.725 29.054 566.193 28.982 566.757 28.982C567.429 28.982 568.023 29.132 568.539 29.432C569.067 29.732 569.481 30.158 569.781 30.71C570.081 31.25 570.231 31.904 570.231 32.672V38H568.377V32.816C568.377 32.048 568.185 31.484 567.801 31.124C567.417 30.752 566.889 30.566 566.217 30.566C565.449 30.566 564.831 30.818 564.363 31.322C563.907 31.826 563.679 32.558 563.679 33.518V38H561.825ZM576.967 38.252C576.067 38.252 575.281 38.066 574.609 37.694C573.937 37.31 573.409 36.776 573.025 36.092C572.653 35.396 572.467 34.592 572.467 33.68V33.464C572.467 32.54 572.653 31.736 573.025 31.052C573.397 30.356 573.913 29.822 574.573 29.45C575.245 29.066 576.019 28.874 576.895 28.874C577.747 28.874 578.491 29.066 579.127 29.45C579.775 29.822 580.279 30.344 580.639 31.016C580.999 31.688 581.179 32.474 581.179 33.374V34.076H574.357C574.381 34.856 574.639 35.48 575.131 35.948C575.635 36.404 576.259 36.632 577.003 36.632C577.699 36.632 578.221 36.476 578.569 36.164C578.929 35.852 579.205 35.492 579.397 35.084L580.927 35.876C580.759 36.212 580.513 36.566 580.189 36.938C579.877 37.31 579.463 37.622 578.947 37.874C578.431 38.126 577.771 38.252 576.967 38.252ZM574.375 32.654H579.289C579.241 31.982 579.001 31.46 578.569 31.088C578.137 30.704 577.573 30.512 576.877 30.512C576.181 30.512 575.611 30.704 575.167 31.088C574.735 31.46 574.471 31.982 574.375 32.654ZM592.229 38.252C591.281 38.252 590.441 38.084 589.709 37.748C588.977 37.412 588.401 36.92 587.981 36.272C587.573 35.612 587.369 34.814 587.369 33.878V33.428H589.295V33.878C589.295 34.766 589.559 35.432 590.087 35.876C590.627 36.32 591.341 36.542 592.229 36.542C593.129 36.542 593.807 36.356 594.263 35.984C594.719 35.6 594.947 35.108 594.947 34.508C594.947 34.112 594.839 33.788 594.623 33.536C594.407 33.284 594.101 33.086 593.705 32.942C593.309 32.786 592.835 32.642 592.283 32.51L591.617 32.348C590.813 32.156 590.111 31.922 589.511 31.646C588.923 31.358 588.467 30.98 588.143 30.512C587.819 30.044 587.657 29.444 587.657 28.712C587.657 27.968 587.837 27.332 588.197 26.804C588.569 26.276 589.079 25.868 589.727 25.58C590.375 25.292 591.137 25.148 592.013 25.148C592.889 25.148 593.669 25.298 594.353 25.598C595.049 25.898 595.595 26.342 595.991 26.93C596.387 27.518 596.585 28.256 596.585 29.144V29.792H594.659V29.144C594.659 28.604 594.545 28.166 594.317 27.83C594.101 27.494 593.795 27.248 593.399 27.092C593.003 26.936 592.541 26.858 592.013 26.858C591.245 26.858 590.645 27.02 590.213 27.344C589.793 27.656 589.583 28.094 589.583 28.658C589.583 29.042 589.673 29.36 589.853 29.612C590.045 29.852 590.321 30.05 590.681 30.206C591.041 30.362 591.491 30.5 592.031 30.62L592.697 30.782C593.513 30.962 594.233 31.196 594.857 31.484C595.481 31.76 595.973 32.138 596.333 32.618C596.693 33.098 596.873 33.716 596.873 34.472C596.873 35.228 596.681 35.888 596.297 36.452C595.925 37.016 595.391 37.46 594.695 37.784C593.999 38.096 593.177 38.252 592.229 38.252ZM603.036 38.252C602.136 38.252 601.35 38.066 600.678 37.694C600.006 37.31 599.478 36.776 599.094 36.092C598.722 35.396 598.536 34.592 598.536 33.68V33.464C598.536 32.54 598.722 31.736 599.094 31.052C599.466 30.356 599.982 29.822 600.642 29.45C601.314 29.066 602.088 28.874 602.964 28.874C603.816 28.874 604.56 29.066 605.196 29.45C605.844 29.822 606.348 30.344 606.708 31.016C607.068 31.688 607.248 32.474 607.248 33.374V34.076H600.426C600.45 34.856 600.708 35.48 601.2 35.948C601.704 36.404 602.328 36.632 603.072 36.632C603.768 36.632 604.29 36.476 604.638 36.164C604.998 35.852 605.274 35.492 605.466 35.084L606.996 35.876C606.828 36.212 606.582 36.566 606.258 36.938C605.946 37.31 605.532 37.622 605.016 37.874C604.5 38.126 603.84 38.252 603.036 38.252ZM600.444 32.654H605.358C605.31 31.982 605.07 31.46 604.638 31.088C604.206 30.704 603.642 30.512 602.946 30.512C602.25 30.512 601.68 30.704 601.236 31.088C600.804 31.46 600.54 31.982 600.444 32.654ZM613.601 38.252C612.749 38.252 611.975 38.072 611.279 37.712C610.595 37.352 610.049 36.83 609.641 36.146C609.245 35.462 609.047 34.64 609.047 33.68V33.446C609.047 32.486 609.245 31.67 609.641 30.998C610.049 30.314 610.595 29.792 611.279 29.432C611.975 29.06 612.749 28.874 613.601 28.874C614.453 28.874 615.179 29.03 615.779 29.342C616.379 29.654 616.859 30.068 617.219 30.584C617.591 31.1 617.831 31.67 617.939 32.294L616.139 32.672C616.079 32.276 615.953 31.916 615.761 31.592C615.569 31.268 615.299 31.01 614.951 30.818C614.603 30.626 614.165 30.53 613.637 30.53C613.121 30.53 612.653 30.65 612.233 30.89C611.825 31.118 611.501 31.454 611.261 31.898C611.021 32.33 610.901 32.858 610.901 33.482V33.644C610.901 34.268 611.021 34.802 611.261 35.246C611.501 35.69 611.825 36.026 612.233 36.254C612.653 36.482 613.121 36.596 613.637 36.596C614.417 36.596 615.011 36.398 615.419 36.002C615.827 35.594 616.085 35.078 616.193 34.454L617.993 34.868C617.849 35.48 617.591 36.044 617.219 36.56C616.859 37.076 616.379 37.49 615.779 37.802C615.179 38.102 614.453 38.252 613.601 38.252ZM624.29 38.252C623.402 38.252 622.61 38.072 621.914 37.712C621.23 37.34 620.69 36.812 620.294 36.128C619.898 35.444 619.7 34.634 619.7 33.698V33.428C619.7 32.492 619.898 31.688 620.294 31.016C620.69 30.332 621.23 29.804 621.914 29.432C622.61 29.06 623.402 28.874 624.29 28.874C625.178 28.874 625.97 29.06 626.666 29.432C627.362 29.804 627.908 30.332 628.304 31.016C628.7 31.688 628.898 32.492 628.898 33.428V33.698C628.898 34.634 628.7 35.444 628.304 36.128C627.908 36.812 627.362 37.34 626.666 37.712C625.97 38.072 625.178 38.252 624.29 38.252ZM624.29 36.596C625.106 36.596 625.766 36.338 626.27 35.822C626.786 35.294 627.044 34.568 627.044 33.644V33.482C627.044 32.558 626.792 31.838 626.288 31.322C625.784 30.794 625.118 30.53 624.29 30.53C623.486 30.53 622.826 30.794 622.31 31.322C621.806 31.838 621.554 32.558 621.554 33.482V33.644C621.554 34.568 621.806 35.294 622.31 35.822C622.826 36.338 623.486 36.596 624.29 36.596ZM631.206 38V29.126H633.024V30.458H633.312C633.48 30.098 633.78 29.762 634.212 29.45C634.644 29.138 635.286 28.982 636.138 28.982C636.81 28.982 637.404 29.132 637.92 29.432C638.448 29.732 638.862 30.158 639.162 30.71C639.462 31.25 639.612 31.904 639.612 32.672V38H637.758V32.816C637.758 32.048 637.566 31.484 637.182 31.124C636.798 30.752 636.27 30.566 635.598 30.566C634.83 30.566 634.212 30.818 633.744 31.322C633.288 31.826 633.06 32.558 633.06 33.518V38H631.206ZM645.952 38.252C645.22 38.252 644.542 38.072 643.918 37.712C643.294 37.352 642.79 36.836 642.406 36.164C642.034 35.48 641.848 34.658 641.848 33.698V33.428C641.848 32.48 642.034 31.664 642.406 30.98C642.778 30.296 643.276 29.774 643.9 29.414C644.524 29.054 645.208 28.874 645.952 28.874C646.528 28.874 647.008 28.946 647.392 29.09C647.788 29.234 648.112 29.42 648.364 29.648C648.616 29.864 648.808 30.092 648.94 30.332H649.228V25.4H651.082V38H649.264V36.74H648.976C648.748 37.124 648.4 37.472 647.932 37.784C647.476 38.096 646.816 38.252 645.952 38.252ZM646.474 36.632C647.278 36.632 647.938 36.374 648.454 35.858C648.982 35.342 649.246 34.604 649.246 33.644V33.482C649.246 32.534 648.988 31.802 648.472 31.286C647.956 30.77 647.29 30.512 646.474 30.512C645.682 30.512 645.022 30.77 644.494 31.286C643.978 31.802 643.72 32.534 643.72 33.482V33.644C643.72 34.604 643.978 35.342 644.494 35.858C645.022 36.374 645.682 36.632 646.474 36.632ZM663.025 38.252C661.489 38.252 660.271 37.82 659.371 36.956C658.471 36.08 658.021 34.82 658.021 33.176V30.224C658.021 28.58 658.471 27.326 659.371 26.462C660.271 25.586 661.489 25.148 663.025 25.148C664.537 25.148 665.701 25.568 666.517 26.408C667.345 27.248 667.759 28.394 667.759 29.846V29.954H665.833V29.792C665.833 28.94 665.599 28.244 665.131 27.704C664.675 27.164 663.973 26.894 663.025 26.894C662.065 26.894 661.315 27.188 660.775 27.776C660.235 28.352 659.965 29.156 659.965 30.188V33.212C659.965 34.232 660.235 35.036 660.775 35.624C661.315 36.212 662.065 36.506 663.025 36.506C663.973 36.506 664.675 36.236 665.131 35.696C665.599 35.144 665.833 34.448 665.833 33.608V33.302H667.759V33.554C667.759 35.006 667.345 36.152 666.517 36.992C665.701 37.832 664.537 38.252 663.025 38.252ZM672.72 38.252C672.084 38.252 671.514 38.144 671.01 37.928C670.518 37.712 670.122 37.394 669.822 36.974C669.534 36.554 669.39 36.044 669.39 35.444C669.39 34.832 669.534 34.328 669.822 33.932C670.122 33.524 670.524 33.218 671.028 33.014C671.544 32.81 672.126 32.708 672.774 32.708H675.474V32.132C675.474 31.616 675.318 31.202 675.006 30.89C674.694 30.578 674.214 30.422 673.566 30.422C672.93 30.422 672.444 30.572 672.108 30.872C671.772 31.172 671.55 31.562 671.442 32.042L669.714 31.484C669.858 31.004 670.086 30.572 670.398 30.188C670.722 29.792 671.148 29.474 671.676 29.234C672.204 28.994 672.84 28.874 673.584 28.874C674.736 28.874 675.642 29.168 676.302 29.756C676.962 30.344 677.292 31.178 677.292 32.258V35.912C677.292 36.272 677.46 36.452 677.796 36.452H678.552V38H677.166C676.746 38 676.404 37.892 676.14 37.676C675.876 37.46 675.744 37.166 675.744 36.794V36.74H675.474C675.378 36.92 675.234 37.13 675.042 37.37C674.85 37.61 674.568 37.82 674.196 38C673.824 38.168 673.332 38.252 672.72 38.252ZM672.99 36.722C673.734 36.722 674.334 36.512 674.79 36.092C675.246 35.66 675.474 35.072 675.474 34.328V34.148H672.882C672.39 34.148 671.994 34.256 671.694 34.472C671.394 34.676 671.244 34.982 671.244 35.39C671.244 35.798 671.4 36.122 671.712 36.362C672.024 36.602 672.45 36.722 672.99 36.722ZM680.354 38V29.126H682.172V30.17H682.46C682.604 29.798 682.832 29.528 683.144 29.36C683.468 29.18 683.864 29.09 684.332 29.09H685.394V30.764H684.26C683.66 30.764 683.168 30.932 682.784 31.268C682.4 31.592 682.208 32.096 682.208 32.78V38H680.354Z" fill="#1C1917"/>
<rect x="400.5" y="103.5" width="149" height="62" rx="23.5" fill="#EEF2FF"/>
<rect x="400.5" y="103.5" width="149" height="62" rx="23.5" stroke="#292524"/>
<path d="M449.846 141V139.272H451.538V130.128H449.846V128.4H456.236C456.992 128.4 457.652 128.532 458.216 128.796C458.78 129.048 459.218 129.414 459.53 129.894C459.854 130.362 460.016 130.92 460.016 131.568V131.748C460.016 132.324 459.908 132.798 459.692 133.17C459.476 133.542 459.212 133.83 458.9 134.034C458.6 134.238 458.312 134.382 458.036 134.466V134.754C458.312 134.826 458.606 134.97 458.918 135.186C459.242 135.39 459.512 135.678 459.728 136.05C459.956 136.422 460.07 136.908 460.07 137.508V137.688C460.07 138.384 459.908 138.978 459.584 139.47C459.26 139.962 458.81 140.34 458.234 140.604C457.67 140.868 457.016 141 456.272 141H449.846ZM453.5 139.236H456.038C456.686 139.236 457.196 139.08 457.568 138.768C457.94 138.456 458.126 138.024 458.126 137.472V137.31C458.126 136.758 457.94 136.326 457.568 136.014C457.208 135.702 456.698 135.546 456.038 135.546H453.5V139.236ZM453.5 133.764H456.038C456.65 133.764 457.142 133.614 457.514 133.314C457.886 133.002 458.072 132.582 458.072 132.054V131.874C458.072 131.346 457.886 130.932 457.514 130.632C457.154 130.32 456.662 130.164 456.038 130.164H453.5V133.764ZM462.304 141V132.126H464.122V133.17H464.41C464.554 132.798 464.782 132.528 465.094 132.36C465.418 132.18 465.814 132.09 466.282 132.09H467.344V133.764H466.21C465.61 133.764 465.118 133.932 464.734 134.268C464.35 134.592 464.158 135.096 464.158 135.78V141H462.304ZM471.772 141.252C471.136 141.252 470.566 141.144 470.062 140.928C469.57 140.712 469.174 140.394 468.874 139.974C468.586 139.554 468.442 139.044 468.442 138.444C468.442 137.832 468.586 137.328 468.874 136.932C469.174 136.524 469.576 136.218 470.08 136.014C470.596 135.81 471.178 135.708 471.826 135.708H474.526V135.132C474.526 134.616 474.37 134.202 474.058 133.89C473.746 133.578 473.266 133.422 472.618 133.422C471.982 133.422 471.496 133.572 471.16 133.872C470.824 134.172 470.602 134.562 470.494 135.042L468.766 134.484C468.91 134.004 469.138 133.572 469.45 133.188C469.774 132.792 470.2 132.474 470.728 132.234C471.256 131.994 471.892 131.874 472.636 131.874C473.788 131.874 474.694 132.168 475.354 132.756C476.014 133.344 476.344 134.178 476.344 135.258V138.912C476.344 139.272 476.512 139.452 476.848 139.452H477.604V141H476.218C475.798 141 475.456 140.892 475.192 140.676C474.928 140.46 474.796 140.166 474.796 139.794V139.74H474.526C474.43 139.92 474.286 140.13 474.094 140.37C473.902 140.61 473.62 140.82 473.248 141C472.876 141.168 472.384 141.252 471.772 141.252ZM472.042 139.722C472.786 139.722 473.386 139.512 473.842 139.092C474.298 138.66 474.526 138.072 474.526 137.328V137.148H471.934C471.442 137.148 471.046 137.256 470.746 137.472C470.446 137.676 470.296 137.982 470.296 138.39C470.296 138.798 470.452 139.122 470.764 139.362C471.076 139.602 471.502 139.722 472.042 139.722ZM479.407 141V132.126H481.225V133.458H481.513C481.681 133.098 481.981 132.762 482.413 132.45C482.845 132.138 483.487 131.982 484.339 131.982C485.011 131.982 485.605 132.132 486.121 132.432C486.649 132.732 487.063 133.158 487.363 133.71C487.663 134.25 487.813 134.904 487.813 135.672V141H485.959V135.816C485.959 135.048 485.767 134.484 485.383 134.124C484.999 133.752 484.471 133.566 483.799 133.566C483.031 133.566 482.413 133.818 481.945 134.322C481.489 134.826 481.261 135.558 481.261 136.518V141H479.407ZM494.153 141.252C493.421 141.252 492.743 141.072 492.119 140.712C491.495 140.352 490.991 139.836 490.607 139.164C490.235 138.48 490.049 137.658 490.049 136.698V136.428C490.049 135.48 490.235 134.664 490.607 133.98C490.979 133.296 491.477 132.774 492.101 132.414C492.725 132.054 493.409 131.874 494.153 131.874C494.729 131.874 495.209 131.946 495.593 132.09C495.989 132.234 496.313 132.42 496.565 132.648C496.817 132.864 497.009 133.092 497.141 133.332H497.429V128.4H499.283V141H497.465V139.74H497.177C496.949 140.124 496.601 140.472 496.133 140.784C495.677 141.096 495.017 141.252 494.153 141.252ZM494.675 139.632C495.479 139.632 496.139 139.374 496.655 138.858C497.183 138.342 497.447 137.604 497.447 136.644V136.482C497.447 135.534 497.189 134.802 496.673 134.286C496.157 133.77 495.491 133.512 494.675 133.512C493.883 133.512 493.223 133.77 492.695 134.286C492.179 134.802 491.921 135.534 491.921 136.482V136.644C491.921 137.604 492.179 138.342 492.695 138.858C493.223 139.374 493.883 139.632 494.675 139.632Z" fill="#1C1917"/>
<rect x="400.5" y="196.5" width="149" height="62" rx="23.5" fill="#EEF2FF"/>
<rect x="400.5" y="196.5" width="149" height="62" rx="23.5" stroke="#292524"/>
<path d="M449.314 234V221.4H452.968L455.722 232.704H456.01L458.764 221.4H462.418V234H460.528V222.768H460.24L457.504 234H454.228L451.492 222.768H451.204V234H449.314ZM469.258 234.252C468.37 234.252 467.578 234.072 466.882 233.712C466.198 233.34 465.658 232.812 465.262 232.128C464.866 231.444 464.668 230.634 464.668 229.698V229.428C464.668 228.492 464.866 227.688 465.262 227.016C465.658 226.332 466.198 225.804 466.882 225.432C467.578 225.06 468.37 224.874 469.258 224.874C470.146 224.874 470.938 225.06 471.634 225.432C472.33 225.804 472.876 226.332 473.272 227.016C473.668 227.688 473.866 228.492 473.866 229.428V229.698C473.866 230.634 473.668 231.444 473.272 232.128C472.876 232.812 472.33 233.34 471.634 233.712C470.938 234.072 470.146 234.252 469.258 234.252ZM469.258 232.596C470.074 232.596 470.734 232.338 471.238 231.822C471.754 231.294 472.012 230.568 472.012 229.644V229.482C472.012 228.558 471.76 227.838 471.256 227.322C470.752 226.794 470.086 226.53 469.258 226.53C468.454 226.53 467.794 226.794 467.278 227.322C466.774 227.838 466.522 228.558 466.522 229.482V229.644C466.522 230.568 466.774 231.294 467.278 231.822C467.794 232.338 468.454 232.596 469.258 232.596ZM479.847 234.252C479.115 234.252 478.437 234.072 477.813 233.712C477.189 233.352 476.685 232.836 476.301 232.164C475.929 231.48 475.743 230.658 475.743 229.698V229.428C475.743 228.48 475.929 227.664 476.301 226.98C476.673 226.296 477.171 225.774 477.795 225.414C478.419 225.054 479.103 224.874 479.847 224.874C480.423 224.874 480.903 224.946 481.287 225.09C481.683 225.234 482.007 225.42 482.259 225.648C482.511 225.864 482.703 226.092 482.835 226.332H483.123V221.4H484.977V234H483.159V232.74H482.871C482.643 233.124 482.295 233.472 481.827 233.784C481.371 234.096 480.711 234.252 479.847 234.252ZM480.369 232.632C481.173 232.632 481.833 232.374 482.349 231.858C482.877 231.342 483.141 230.604 483.141 229.644V229.482C483.141 228.534 482.883 227.802 482.367 227.286C481.851 226.77 481.185 226.512 480.369 226.512C479.577 226.512 478.917 226.77 478.389 227.286C477.873 227.802 477.615 228.534 477.615 229.482V229.644C477.615 230.604 477.873 231.342 478.389 231.858C478.917 232.374 479.577 232.632 480.369 232.632ZM491.774 234.252C490.874 234.252 490.088 234.066 489.416 233.694C488.744 233.31 488.216 232.776 487.832 232.092C487.46 231.396 487.274 230.592 487.274 229.68V229.464C487.274 228.54 487.46 227.736 487.832 227.052C488.204 226.356 488.72 225.822 489.38 225.45C490.052 225.066 490.826 224.874 491.702 224.874C492.554 224.874 493.298 225.066 493.934 225.45C494.582 225.822 495.086 226.344 495.446 227.016C495.806 227.688 495.986 228.474 495.986 229.374V230.076H489.164C489.188 230.856 489.446 231.48 489.938 231.948C490.442 232.404 491.066 232.632 491.81 232.632C492.506 232.632 493.028 232.476 493.376 232.164C493.736 231.852 494.012 231.492 494.204 231.084L495.734 231.876C495.566 232.212 495.32 232.566 494.996 232.938C494.684 233.31 494.27 233.622 493.754 233.874C493.238 234.126 492.578 234.252 491.774 234.252ZM489.182 228.654H494.096C494.048 227.982 493.808 227.46 493.376 227.088C492.944 226.704 492.38 226.512 491.684 226.512C490.988 226.512 490.418 226.704 489.974 227.088C489.542 227.46 489.278 227.982 489.182 228.654ZM498.218 234V221.4H500.072V234H498.218Z" fill="#1C1917"/>
<rect x="400.5" y="289.5" width="149" height="62" rx="23.5" fill="#EEF2FF"/>
<rect x="400.5" y="289.5" width="149" height="62" rx="23.5" stroke="#292524"/>
<path d="M460.572 327V322.428L456.198 314.4H458.394L461.418 320.106H461.688L464.712 314.4H466.908L462.534 322.428V327H460.572ZM470.981 327.252C470.081 327.252 469.295 327.066 468.623 326.694C467.951 326.31 467.423 325.776 467.039 325.092C466.667 324.396 466.481 323.592 466.481 322.68V322.464C466.481 321.54 466.667 320.736 467.039 320.052C467.411 319.356 467.927 318.822 468.587 318.45C469.259 318.066 470.033 317.874 470.909 317.874C471.761 317.874 472.505 318.066 473.141 318.45C473.789 318.822 474.293 319.344 474.653 320.016C475.013 320.688 475.193 321.474 475.193 322.374V323.076H468.371C468.395 323.856 468.653 324.48 469.145 324.948C469.649 325.404 470.273 325.632 471.017 325.632C471.713 325.632 472.235 325.476 472.583 325.164C472.943 324.852 473.219 324.492 473.411 324.084L474.941 324.876C474.773 325.212 474.527 325.566 474.203 325.938C473.891 326.31 473.477 326.622 472.961 326.874C472.445 327.126 471.785 327.252 470.981 327.252ZM468.389 321.654H473.303C473.255 320.982 473.015 320.46 472.583 320.088C472.151 319.704 471.587 319.512 470.891 319.512C470.195 319.512 469.625 319.704 469.181 320.088C468.749 320.46 468.485 320.982 468.389 321.654ZM480.179 327.252C479.543 327.252 478.973 327.144 478.469 326.928C477.977 326.712 477.581 326.394 477.281 325.974C476.993 325.554 476.849 325.044 476.849 324.444C476.849 323.832 476.993 323.328 477.281 322.932C477.581 322.524 477.983 322.218 478.487 322.014C479.003 321.81 479.585 321.708 480.233 321.708H482.933V321.132C482.933 320.616 482.777 320.202 482.465 319.89C482.153 319.578 481.673 319.422 481.025 319.422C480.389 319.422 479.903 319.572 479.567 319.872C479.231 320.172 479.009 320.562 478.901 321.042L477.173 320.484C477.317 320.004 477.545 319.572 477.857 319.188C478.181 318.792 478.607 318.474 479.135 318.234C479.663 317.994 480.299 317.874 481.043 317.874C482.195 317.874 483.101 318.168 483.761 318.756C484.421 319.344 484.751 320.178 484.751 321.258V324.912C484.751 325.272 484.919 325.452 485.255 325.452H486.011V327H484.625C484.205 327 483.863 326.892 483.599 326.676C483.335 326.46 483.203 326.166 483.203 325.794V325.74H482.933C482.837 325.92 482.693 326.13 482.501 326.37C482.309 326.61 482.027 326.82 481.655 327C481.283 327.168 480.791 327.252 480.179 327.252ZM480.449 325.722C481.193 325.722 481.793 325.512 482.249 325.092C482.705 324.66 482.933 324.072 482.933 323.328V323.148H480.341C479.849 323.148 479.453 323.256 479.153 323.472C478.853 323.676 478.703 323.982 478.703 324.39C478.703 324.798 478.859 325.122 479.171 325.362C479.483 325.602 479.909 325.722 480.449 325.722ZM487.813 327V318.126H489.631V319.17H489.919C490.063 318.798 490.291 318.528 490.603 318.36C490.927 318.18 491.323 318.09 491.791 318.09H492.853V319.764H491.719C491.119 319.764 490.627 319.932 490.243 320.268C489.859 320.592 489.667 321.096 489.667 321.78V327H487.813Z" fill="#1C1917"/>
<rect x="400.5" y="382.5" width="149" height="62" rx="23.5" fill="#EEF2FF"/>
<rect x="400.5" y="382.5" width="149" height="62" rx="23.5" stroke="#292524"/>
<path d="M441.494 420.252C439.958 420.252 438.74 419.82 437.84 418.956C436.94 418.08 436.49 416.82 436.49 415.176V412.224C436.49 410.58 436.94 409.326 437.84 408.462C438.74 407.586 439.958 407.148 441.494 407.148C443.006 407.148 444.17 407.568 444.986 408.408C445.814 409.248 446.228 410.394 446.228 411.846V411.954H444.302V411.792C444.302 410.94 444.068 410.244 443.6 409.704C443.144 409.164 442.442 408.894 441.494 408.894C440.534 408.894 439.784 409.188 439.244 409.776C438.704 410.352 438.434 411.156 438.434 412.188V415.212C438.434 416.232 438.704 417.036 439.244 417.624C439.784 418.212 440.534 418.506 441.494 418.506C442.442 418.506 443.144 418.236 443.6 417.696C444.068 417.144 444.302 416.448 444.302 415.608V415.302H446.228V415.554C446.228 417.006 445.814 418.152 444.986 418.992C444.17 419.832 443.006 420.252 441.494 420.252ZM451.188 420.252C450.552 420.252 449.982 420.144 449.478 419.928C448.986 419.712 448.59 419.394 448.29 418.974C448.002 418.554 447.858 418.044 447.858 417.444C447.858 416.832 448.002 416.328 448.29 415.932C448.59 415.524 448.992 415.218 449.496 415.014C450.012 414.81 450.594 414.708 451.242 414.708H453.942V414.132C453.942 413.616 453.786 413.202 453.474 412.89C453.162 412.578 452.682 412.422 452.034 412.422C451.398 412.422 450.912 412.572 450.576 412.872C450.24 413.172 450.018 413.562 449.91 414.042L448.182 413.484C448.326 413.004 448.554 412.572 448.866 412.188C449.19 411.792 449.616 411.474 450.144 411.234C450.672 410.994 451.308 410.874 452.052 410.874C453.204 410.874 454.11 411.168 454.77 411.756C455.43 412.344 455.76 413.178 455.76 414.258V417.912C455.76 418.272 455.928 418.452 456.264 418.452H457.02V420H455.634C455.214 420 454.872 419.892 454.608 419.676C454.344 419.46 454.212 419.166 454.212 418.794V418.74H453.942C453.846 418.92 453.702 419.13 453.51 419.37C453.318 419.61 453.036 419.82 452.664 420C452.292 420.168 451.8 420.252 451.188 420.252ZM451.458 418.722C452.202 418.722 452.802 418.512 453.258 418.092C453.714 417.66 453.942 417.072 453.942 416.328V416.148H451.35C450.858 416.148 450.462 416.256 450.162 416.472C449.862 416.676 449.712 416.982 449.712 417.39C449.712 417.798 449.868 418.122 450.18 418.362C450.492 418.602 450.918 418.722 451.458 418.722ZM458.823 423.6V411.126H460.641V412.404H460.929C461.157 412.008 461.499 411.654 461.955 411.342C462.423 411.03 463.089 410.874 463.953 410.874C464.697 410.874 465.375 411.054 465.987 411.414C466.611 411.774 467.109 412.296 467.481 412.98C467.865 413.652 468.057 414.468 468.057 415.428V415.698C468.057 416.658 467.871 417.48 467.499 418.164C467.127 418.836 466.629 419.352 466.005 419.712C465.381 420.072 464.697 420.252 463.953 420.252C463.377 420.252 462.891 420.18 462.495 420.036C462.099 419.892 461.781 419.712 461.541 419.496C461.301 419.268 461.109 419.034 460.965 418.794H460.677V423.6H458.823ZM463.413 418.632C464.229 418.632 464.895 418.374 465.411 417.858C465.927 417.342 466.185 416.604 466.185 415.644V415.482C466.185 414.534 465.921 413.802 465.393 413.286C464.877 412.77 464.217 412.512 463.413 412.512C462.621 412.512 461.961 412.77 461.433 413.286C460.917 413.802 460.659 414.534 460.659 415.482V415.644C460.659 416.604 460.917 417.342 461.433 417.858C461.961 418.374 462.621 418.632 463.413 418.632ZM473.108 420.252C472.472 420.252 471.902 420.144 471.398 419.928C470.906 419.712 470.51 419.394 470.21 418.974C469.922 418.554 469.778 418.044 469.778 417.444C469.778 416.832 469.922 416.328 470.21 415.932C470.51 415.524 470.912 415.218 471.416 415.014C471.932 414.81 472.514 414.708 473.162 414.708H475.862V414.132C475.862 413.616 475.706 413.202 475.394 412.89C475.082 412.578 474.602 412.422 473.954 412.422C473.318 412.422 472.832 412.572 472.496 412.872C472.16 413.172 471.938 413.562 471.83 414.042L470.102 413.484C470.246 413.004 470.474 412.572 470.786 412.188C471.11 411.792 471.536 411.474 472.064 411.234C472.592 410.994 473.228 410.874 473.972 410.874C475.124 410.874 476.03 411.168 476.69 411.756C477.35 412.344 477.68 413.178 477.68 414.258V417.912C477.68 418.272 477.848 418.452 478.184 418.452H478.94V420H477.554C477.134 420 476.792 419.892 476.528 419.676C476.264 419.46 476.132 419.166 476.132 418.794V418.74H475.862C475.766 418.92 475.622 419.13 475.43 419.37C475.238 419.61 474.956 419.82 474.584 420C474.212 420.168 473.72 420.252 473.108 420.252ZM473.378 418.722C474.122 418.722 474.722 418.512 475.178 418.092C475.634 417.66 475.862 417.072 475.862 416.328V416.148H473.27C472.778 416.148 472.382 416.256 472.082 416.472C471.782 416.676 471.632 416.982 471.632 417.39C471.632 417.798 471.788 418.122 472.1 418.362C472.412 418.602 472.838 418.722 473.378 418.722ZM484.654 420.252C483.802 420.252 483.028 420.072 482.332 419.712C481.648 419.352 481.102 418.83 480.694 418.146C480.298 417.462 480.1 416.64 480.1 415.68V415.446C480.1 414.486 480.298 413.67 480.694 412.998C481.102 412.314 481.648 411.792 482.332 411.432C483.028 411.06 483.802 410.874 484.654 410.874C485.506 410.874 486.232 411.03 486.832 411.342C487.432 411.654 487.912 412.068 488.272 412.584C488.644 413.1 488.884 413.67 488.992 414.294L487.192 414.672C487.132 414.276 487.006 413.916 486.814 413.592C486.622 413.268 486.352 413.01 486.004 412.818C485.656 412.626 485.218 412.53 484.69 412.53C484.174 412.53 483.706 412.65 483.286 412.89C482.878 413.118 482.554 413.454 482.314 413.898C482.074 414.33 481.954 414.858 481.954 415.482V415.644C481.954 416.268 482.074 416.802 482.314 417.246C482.554 417.69 482.878 418.026 483.286 418.254C483.706 418.482 484.174 418.596 484.69 418.596C485.47 418.596 486.064 418.398 486.472 418.002C486.88 417.594 487.138 417.078 487.246 416.454L489.046 416.868C488.902 417.48 488.644 418.044 488.272 418.56C487.912 419.076 487.432 419.49 486.832 419.802C486.232 420.102 485.506 420.252 484.654 420.252ZM491.184 420V411.126H493.038V420H491.184ZM492.12 409.92C491.76 409.92 491.454 409.806 491.202 409.578C490.962 409.338 490.842 409.032 490.842 408.66C490.842 408.288 490.962 407.988 491.202 407.76C491.454 407.52 491.76 407.4 492.12 407.4C492.492 407.4 492.798 407.52 493.038 407.76C493.278 407.988 493.398 408.288 493.398 408.66C493.398 409.032 493.278 409.338 493.038 409.578C492.798 409.806 492.492 409.92 492.12 409.92ZM499.12 420C498.58 420 498.148 419.838 497.824 419.514C497.512 419.19 497.356 418.758 497.356 418.218V412.692H494.908V411.126H497.356V408.192H499.21V411.126H501.856V412.692H499.21V417.894C499.21 418.254 499.378 418.434 499.714 418.434H501.568V420H499.12ZM505.06 423.6V421.98H510.01C510.346 421.98 510.514 421.8 510.514 421.44V418.704H510.226C510.118 418.944 509.95 419.178 509.722 419.406C509.506 419.622 509.212 419.802 508.84 419.946C508.468 420.09 508 420.162 507.436 420.162C506.764 420.162 506.164 420.012 505.636 419.712C505.108 419.412 504.694 418.986 504.394 418.434C504.094 417.882 503.944 417.228 503.944 416.472V411.126H505.798V416.328C505.798 417.096 505.99 417.666 506.374 418.038C506.758 418.398 507.292 418.578 507.976 418.578C508.732 418.578 509.338 418.326 509.794 417.822C510.262 417.318 510.496 416.586 510.496 415.626V411.126H512.35V421.818C512.35 422.358 512.188 422.79 511.864 423.114C511.552 423.438 511.12 423.6 510.568 423.6H505.06Z" fill="#1C1917"/>
<rect x="570.5" y="103.5" width="149" height="62" rx="23.5" fill="#F7FEE7"/>
<rect x="570.5" y="103.5" width="149" height="62" rx="23.5" stroke="#292524"/>
<path d="M618.314 141V128.4H620.258V133.8H625.55V128.4H627.494V141H625.55V135.564H620.258V141H618.314ZM634.339 141.252C633.451 141.252 632.659 141.072 631.963 140.712C631.279 140.34 630.739 139.812 630.343 139.128C629.947 138.444 629.749 137.634 629.749 136.698V136.428C629.749 135.492 629.947 134.688 630.343 134.016C630.739 133.332 631.279 132.804 631.963 132.432C632.659 132.06 633.451 131.874 634.339 131.874C635.227 131.874 636.019 132.06 636.715 132.432C637.411 132.804 637.957 133.332 638.353 134.016C638.749 134.688 638.947 135.492 638.947 136.428V136.698C638.947 137.634 638.749 138.444 638.353 139.128C637.957 139.812 637.411 140.34 636.715 140.712C636.019 141.072 635.227 141.252 634.339 141.252ZM634.339 139.596C635.155 139.596 635.815 139.338 636.319 138.822C636.835 138.294 637.093 137.568 637.093 136.644V136.482C637.093 135.558 636.841 134.838 636.337 134.322C635.833 133.794 635.167 133.53 634.339 133.53C633.535 133.53 632.875 133.794 632.359 134.322C631.855 134.838 631.603 135.558 631.603 136.482V136.644C631.603 137.568 631.855 138.294 632.359 138.822C632.875 139.338 633.535 139.596 634.339 139.596ZM641.255 141V132.126H643.073V133.458H643.361C643.529 133.098 643.829 132.762 644.261 132.45C644.693 132.138 645.335 131.982 646.187 131.982C646.859 131.982 647.453 132.132 647.969 132.432C648.497 132.732 648.911 133.158 649.211 133.71C649.511 134.25 649.661 134.904 649.661 135.672V141H647.807V135.816C647.807 135.048 647.615 134.484 647.231 134.124C646.847 133.752 646.319 133.566 645.647 133.566C644.879 133.566 644.261 133.818 643.793 134.322C643.337 134.826 643.109 135.558 643.109 136.518V141H641.255ZM656.001 141.252C655.269 141.252 654.591 141.072 653.967 140.712C653.343 140.352 652.839 139.836 652.455 139.164C652.083 138.48 651.897 137.658 651.897 136.698V136.428C651.897 135.48 652.083 134.664 652.455 133.98C652.827 133.296 653.325 132.774 653.949 132.414C654.573 132.054 655.257 131.874 656.001 131.874C656.577 131.874 657.057 131.946 657.441 132.09C657.837 132.234 658.161 132.42 658.413 132.648C658.665 132.864 658.857 133.092 658.989 133.332H659.277V128.4H661.131V141H659.313V139.74H659.025C658.797 140.124 658.449 140.472 657.981 140.784C657.525 141.096 656.865 141.252 656.001 141.252ZM656.523 139.632C657.327 139.632 657.987 139.374 658.503 138.858C659.031 138.342 659.295 137.604 659.295 136.644V136.482C659.295 135.534 659.037 134.802 658.521 134.286C658.005 133.77 657.339 133.512 656.523 133.512C655.731 133.512 655.071 133.77 654.543 134.286C654.027 134.802 653.769 135.534 653.769 136.482V136.644C653.769 137.604 654.027 138.342 654.543 138.858C655.071 139.374 655.731 139.632 656.523 139.632ZM666.614 141.252C665.978 141.252 665.408 141.144 664.904 140.928C664.412 140.712 664.016 140.394 663.716 139.974C663.428 139.554 663.284 139.044 663.284 138.444C663.284 137.832 663.428 137.328 663.716 136.932C664.016 136.524 664.418 136.218 664.922 136.014C665.438 135.81 666.02 135.708 666.668 135.708H669.368V135.132C669.368 134.616 669.212 134.202 668.9 133.89C668.588 133.578 668.108 133.422 667.46 133.422C666.824 133.422 666.338 133.572 666.002 133.872C665.666 134.172 665.444 134.562 665.336 135.042L663.608 134.484C663.752 134.004 663.98 133.572 664.292 133.188C664.616 132.792 665.042 132.474 665.57 132.234C666.098 131.994 666.734 131.874 667.478 131.874C668.63 131.874 669.536 132.168 670.196 132.756C670.856 133.344 671.186 134.178 671.186 135.258V138.912C671.186 139.272 671.354 139.452 671.69 139.452H672.446V141H671.06C670.64 141 670.298 140.892 670.034 140.676C669.77 140.46 669.638 140.166 669.638 139.794V139.74H669.368C669.272 139.92 669.128 140.13 668.936 140.37C668.744 140.61 668.462 140.82 668.09 141C667.718 141.168 667.226 141.252 666.614 141.252ZM666.884 139.722C667.628 139.722 668.228 139.512 668.684 139.092C669.14 138.66 669.368 138.072 669.368 137.328V137.148H666.776C666.284 137.148 665.888 137.256 665.588 137.472C665.288 137.676 665.138 137.982 665.138 138.39C665.138 138.798 665.294 139.122 665.606 139.362C665.918 139.602 666.344 139.722 666.884 139.722Z" fill="#1C1917"/>
<rect x="570.5" y="196.5" width="149" height="62" rx="23.5" fill="#F7FEE7"/>
<rect x="570.5" y="196.5" width="149" height="62" rx="23.5" stroke="#292524"/>
<path d="M629.994 234.252C628.458 234.252 627.24 233.82 626.34 232.956C625.44 232.08 624.99 230.82 624.99 229.176V226.224C624.99 224.58 625.44 223.326 626.34 222.462C627.24 221.586 628.458 221.148 629.994 221.148C631.506 221.148 632.67 221.568 633.486 222.408C634.314 223.248 634.728 224.394 634.728 225.846V225.954H632.802V225.792C632.802 224.94 632.568 224.244 632.1 223.704C631.644 223.164 630.942 222.894 629.994 222.894C629.034 222.894 628.284 223.188 627.744 223.776C627.204 224.352 626.934 225.156 626.934 226.188V229.212C626.934 230.232 627.204 231.036 627.744 231.624C628.284 232.212 629.034 232.506 629.994 232.506C630.942 232.506 631.644 232.236 632.1 231.696C632.568 231.144 632.802 230.448 632.802 229.608V229.302H634.728V229.554C634.728 231.006 634.314 232.152 633.486 232.992C632.67 233.832 631.506 234.252 629.994 234.252ZM636.934 234V225.126H638.788V234H636.934ZM637.87 223.92C637.51 223.92 637.204 223.806 636.952 223.578C636.712 223.338 636.592 223.032 636.592 222.66C636.592 222.288 636.712 221.988 636.952 221.76C637.204 221.52 637.51 221.4 637.87 221.4C638.242 221.4 638.548 221.52 638.788 221.76C639.028 221.988 639.148 222.288 639.148 222.66C639.148 223.032 639.028 223.338 638.788 223.578C638.548 223.806 638.242 223.92 637.87 223.92ZM643.592 234L640.604 225.126H642.566L644.924 232.632H645.212L647.57 225.126H649.532L646.544 234H643.592ZM651.331 234V225.126H653.185V234H651.331ZM652.267 223.92C651.907 223.92 651.601 223.806 651.349 223.578C651.109 223.338 650.989 223.032 650.989 222.66C650.989 222.288 651.109 221.988 651.349 221.76C651.601 221.52 651.907 221.4 652.267 221.4C652.639 221.4 652.945 221.52 653.185 221.76C653.425 221.988 653.545 222.288 653.545 222.66C653.545 223.032 653.425 223.338 653.185 223.578C652.945 223.806 652.639 223.92 652.267 223.92ZM660.058 234.252C659.206 234.252 658.432 234.072 657.736 233.712C657.052 233.352 656.506 232.83 656.098 232.146C655.702 231.462 655.504 230.64 655.504 229.68V229.446C655.504 228.486 655.702 227.67 656.098 226.998C656.506 226.314 657.052 225.792 657.736 225.432C658.432 225.06 659.206 224.874 660.058 224.874C660.91 224.874 661.636 225.03 662.236 225.342C662.836 225.654 663.316 226.068 663.676 226.584C664.048 227.1 664.288 227.67 664.396 228.294L662.596 228.672C662.536 228.276 662.41 227.916 662.218 227.592C662.026 227.268 661.756 227.01 661.408 226.818C661.06 226.626 660.622 226.53 660.094 226.53C659.578 226.53 659.11 226.65 658.69 226.89C658.282 227.118 657.958 227.454 657.718 227.898C657.478 228.33 657.358 228.858 657.358 229.482V229.644C657.358 230.268 657.478 230.802 657.718 231.246C657.958 231.69 658.282 232.026 658.69 232.254C659.11 232.482 659.578 232.596 660.094 232.596C660.874 232.596 661.468 232.398 661.876 232.002C662.284 231.594 662.542 231.078 662.65 230.454L664.45 230.868C664.306 231.48 664.048 232.044 663.676 232.56C663.316 233.076 662.836 233.49 662.236 233.802C661.636 234.102 660.91 234.252 660.058 234.252Z" fill="#1C1917"/>
<rect x="570.5" y="289.5" width="149" height="62" rx="23.5" fill="#F7FEE7"/>
<rect x="570.5" y="289.5" width="149" height="62" rx="23.5" stroke="#292524"/>
<path d="M625.364 327V325.578C625.364 324.702 625.514 323.982 625.814 323.418C626.114 322.854 626.54 322.398 627.092 322.05C627.656 321.69 628.334 321.39 629.126 321.15L630.224 320.808C630.716 320.652 631.136 320.46 631.484 320.232C631.844 320.004 632.12 319.722 632.312 319.386C632.504 319.038 632.6 318.636 632.6 318.18V318.108C632.6 317.4 632.36 316.848 631.88 316.452C631.4 316.044 630.77 315.84 629.99 315.84C629.186 315.84 628.532 316.056 628.028 316.488C627.536 316.92 627.29 317.556 627.29 318.396V318.684H625.418V318.414C625.418 317.502 625.616 316.734 626.012 316.11C626.408 315.474 626.954 314.988 627.65 314.652C628.346 314.316 629.126 314.148 629.99 314.148C630.854 314.148 631.622 314.31 632.294 314.634C632.978 314.958 633.512 315.414 633.896 316.002C634.292 316.59 634.49 317.28 634.49 318.072V318.234C634.49 319.05 634.328 319.728 634.004 320.268C633.68 320.808 633.23 321.252 632.654 321.6C632.09 321.948 631.436 322.242 630.692 322.482L629.63 322.806C629.066 322.974 628.61 323.16 628.262 323.364C627.926 323.556 627.674 323.79 627.506 324.066C627.35 324.342 627.272 324.696 627.272 325.128V325.308H634.382V327H625.364ZM641.054 327.252C639.59 327.252 638.42 326.838 637.544 326.01C636.68 325.17 636.248 323.91 636.248 322.23V319.17C636.248 317.526 636.68 316.278 637.544 315.426C638.42 314.574 639.59 314.148 641.054 314.148C642.53 314.148 643.7 314.574 644.564 315.426C645.44 316.278 645.878 317.526 645.878 319.17V322.23C645.878 323.91 645.44 325.17 644.564 326.01C643.7 326.838 642.53 327.252 641.054 327.252ZM641.054 325.56C642.05 325.56 642.788 325.278 643.268 324.714C643.748 324.138 643.988 323.334 643.988 322.302V319.062C643.988 318.03 643.73 317.238 643.214 316.686C642.698 316.122 641.978 315.84 641.054 315.84C640.118 315.84 639.398 316.128 638.894 316.704C638.39 317.268 638.138 318.054 638.138 319.062V322.302C638.138 323.358 638.378 324.168 638.858 324.732C639.35 325.284 640.082 325.56 641.054 325.56ZM647.723 327V325.578C647.723 324.702 647.873 323.982 648.173 323.418C648.473 322.854 648.899 322.398 649.451 322.05C650.015 321.69 650.693 321.39 651.485 321.15L652.583 320.808C653.075 320.652 653.495 320.46 653.843 320.232C654.203 320.004 654.479 319.722 654.671 319.386C654.863 319.038 654.959 318.636 654.959 318.18V318.108C654.959 317.4 654.719 316.848 654.239 316.452C653.759 316.044 653.129 315.84 652.349 315.84C651.545 315.84 650.891 316.056 650.387 316.488C649.895 316.92 649.649 317.556 649.649 318.396V318.684H647.777V318.414C647.777 317.502 647.975 316.734 648.371 316.11C648.767 315.474 649.313 314.988 650.009 314.652C650.705 314.316 651.485 314.148 652.349 314.148C653.213 314.148 653.981 314.31 654.653 314.634C655.337 314.958 655.871 315.414 656.255 316.002C656.651 316.59 656.849 317.28 656.849 318.072V318.234C656.849 319.05 656.687 319.728 656.363 320.268C656.039 320.808 655.589 321.252 655.013 321.6C654.449 321.948 653.795 322.242 653.051 322.482L651.989 322.806C651.425 322.974 650.969 323.16 650.621 323.364C650.285 323.556 650.033 323.79 649.865 324.066C649.709 324.342 649.631 324.696 649.631 325.128V325.308H656.741V327H647.723ZM662.243 327V315.732H661.955L659.885 319.98H657.887L660.677 314.4H664.133V327H662.243Z" fill="#1C1917"/>
<rect x="570.5" y="382.5" width="149" height="62" rx="23.5" fill="#F7FEE7"/>
<rect x="570.5" y="382.5" width="149" height="62" rx="23.5" stroke="#292524"/>
<path d="M644.936 420.252C643.988 420.252 643.166 420.078 642.47 419.73C641.774 419.382 641.234 418.89 640.85 418.254C640.478 417.618 640.292 416.88 640.292 416.04V415.842H642.218V416.022C642.218 416.79 642.452 417.408 642.92 417.876C643.4 418.332 644.066 418.56 644.918 418.56C645.794 418.56 646.472 418.32 646.952 417.84C647.432 417.36 647.672 416.712 647.672 415.896V415.734C647.672 414.954 647.432 414.33 646.952 413.862C646.484 413.394 645.884 413.16 645.152 413.16C644.744 413.16 644.402 413.226 644.126 413.358C643.862 413.478 643.646 413.628 643.478 413.808C643.322 413.988 643.19 414.162 643.082 414.33H640.688V407.4H649.13V409.11H642.578V412.818H642.866C642.986 412.614 643.154 412.422 643.37 412.242C643.598 412.05 643.892 411.894 644.252 411.774C644.612 411.654 645.044 411.594 645.548 411.594C646.292 411.594 646.964 411.756 647.564 412.08C648.176 412.392 648.662 412.86 649.022 413.484C649.382 414.096 649.562 414.84 649.562 415.716V415.914C649.562 416.79 649.376 417.552 649.004 418.2C648.632 418.848 648.098 419.352 647.402 419.712C646.718 420.072 645.896 420.252 644.936 420.252Z" fill="#1C1917"/>
<path d="M560 63L560 71.5714C560 77.8832 565.117 83 571.429 83L633.571 83C639.883 83 645 88.1167 645 94.4286L645 103" stroke="#292524"/>
<path d="M560 63L560 71.5714C560 77.8832 554.883 83 548.571 83L486.429 83C480.117 83 475 88.1167 475 94.4286L475 103" stroke="#292524"/>
<line x1="475.5" y1="166" x2="475.5" y2="196" stroke="#292524"/>
<line x1="475.5" y1="259" x2="475.5" y2="289" stroke="#292524"/>
<line x1="475.5" y1="352" x2="475.5" y2="382" stroke="#292524"/>
<line x1="645.5" y1="166" x2="645.5" y2="196" stroke="#292524"/>
<line x1="645.5" y1="259" x2="645.5" y2="289" stroke="#292524"/>
<line x1="645.5" y1="352" x2="645.5" y2="382" stroke="#292524"/>
</svg>
