<svg width="519" height="420" viewBox="0 0 519 420" fill="none" xmlns="http://www.w3.org/2000/svg">
<rect x="0.5" y="178.5" width="148" height="63" rx="23.5" fill="#CCFBF1"/>
<rect x="0.5" y="178.5" width="148" height="63" rx="23.5" stroke="#292524"/>
<path d="M40.8388 205.401C41.2288 205.011 41.2288 204.381 40.8388 203.991L38.0088 201.161C37.6188 200.771 36.9888 200.771 36.5988 201.161L32.1088 205.651L28.2188 201.761C27.4388 200.981 26.1688 200.981 25.3888 201.761L23.4888 203.661C22.7088 204.441 22.7088 205.711 23.4888 206.491L27.3788 210.381L22.8688 214.891V219.131H27.1088L31.6288 214.611L35.5188 218.501C36.4688 219.451 37.7488 219.101 38.3488 218.501L40.2488 216.601C41.0288 215.821 41.0288 214.551 40.2488 213.771L36.3588 209.881L40.8388 205.401ZM24.9088 205.071L26.7988 203.171L28.0688 204.441L26.8888 205.631L28.2988 207.041L29.4888 205.851L30.6888 207.051L28.7888 208.951L24.9088 205.071ZM36.1388 212.511L34.9488 213.701L36.3588 215.111L37.5488 213.921L38.8188 215.191L36.9188 217.091L33.0288 213.201L34.9288 211.301L36.1388 212.511ZM26.2788 217.131H24.8688V215.721L34.4788 206.111L35.8888 207.521L26.2788 217.131ZM35.8888 204.691L37.2988 203.281L38.7088 204.691L37.2988 206.101L35.8888 204.691Z" fill="#44403C"/>
<path d="M52.846 216.5V214.772H54.538V205.628H52.846V203.9H57.886C59.566 203.9 60.85 204.326 61.738 205.178C62.638 206.03 63.088 207.314 63.088 209.03V211.388C63.088 213.104 62.638 214.388 61.738 215.24C60.85 216.08 59.566 216.5 57.886 216.5H52.846ZM56.5 214.736H57.904C58.996 214.736 59.806 214.46 60.334 213.908C60.862 213.356 61.126 212.534 61.126 211.442V208.958C61.126 207.854 60.862 207.032 60.334 206.492C59.806 205.952 58.996 205.682 57.904 205.682H56.5V214.736ZM69.4067 216.752C68.5067 216.752 67.7207 216.566 67.0487 216.194C66.3767 215.81 65.8487 215.276 65.4647 214.592C65.0927 213.896 64.9067 213.092 64.9067 212.18V211.964C64.9067 211.04 65.0927 210.236 65.4647 209.552C65.8367 208.856 66.3527 208.322 67.0127 207.95C67.6847 207.566 68.4587 207.374 69.3347 207.374C70.1867 207.374 70.9307 207.566 71.5667 207.95C72.2147 208.322 72.7187 208.844 73.0787 209.516C73.4387 210.188 73.6187 210.974 73.6187 211.874V212.576H66.7967C66.8207 213.356 67.0787 213.98 67.5707 214.448C68.0747 214.904 68.6987 215.132 69.4427 215.132C70.1387 215.132 70.6607 214.976 71.0087 214.664C71.3687 214.352 71.6447 213.992 71.8367 213.584L73.3667 214.376C73.1987 214.712 72.9527 215.066 72.6287 215.438C72.3167 215.81 71.9027 216.122 71.3867 216.374C70.8707 216.626 70.2107 216.752 69.4067 216.752ZM66.8147 211.154H71.7287C71.6807 210.482 71.4407 209.96 71.0087 209.588C70.5767 209.204 70.0127 209.012 69.3167 209.012C68.6207 209.012 68.0507 209.204 67.6067 209.588C67.1747 209.96 66.9107 210.482 66.8147 211.154ZM79.4864 216.752C78.3584 216.752 77.4224 216.5 76.6784 215.996C75.9344 215.492 75.4784 214.73 75.3104 213.71L77.0384 213.296C77.1344 213.788 77.2964 214.178 77.5244 214.466C77.7524 214.754 78.0344 214.958 78.3704 215.078C78.7184 215.198 79.0904 215.258 79.4864 215.258C80.0744 215.258 80.5244 215.144 80.8364 214.916C81.1604 214.688 81.3224 214.394 81.3224 214.034C81.3224 213.674 81.1724 213.41 80.8724 213.242C80.5724 213.074 80.1284 212.936 79.5404 212.828L78.9284 212.72C78.3284 212.612 77.7824 212.456 77.2904 212.252C76.7984 212.048 76.4084 211.766 76.1204 211.406C75.8324 211.046 75.6884 210.584 75.6884 210.02C75.6884 209.18 76.0004 208.532 76.6244 208.076C77.2484 207.608 78.0764 207.374 79.1084 207.374C80.1044 207.374 80.9204 207.602 81.5564 208.058C82.2044 208.502 82.6244 209.108 82.8164 209.876L81.0884 210.362C80.9804 209.822 80.7524 209.444 80.4044 209.228C80.0564 209 79.6244 208.886 79.1084 208.886C78.6044 208.886 78.2084 208.982 77.9204 209.174C77.6324 209.354 77.4884 209.612 77.4884 209.948C77.4884 210.308 77.6264 210.572 77.9024 210.74C78.1904 210.908 78.5744 211.034 79.0544 211.118L79.6844 211.226C80.3204 211.334 80.9024 211.484 81.4304 211.676C81.9584 211.868 82.3724 212.144 82.6724 212.504C82.9844 212.864 83.1404 213.344 83.1404 213.944C83.1404 214.832 82.8104 215.522 82.1504 216.014C81.4904 216.506 80.6024 216.752 79.4864 216.752ZM85.3075 216.5V207.626H87.1615V216.5H85.3075ZM86.2435 206.42C85.8835 206.42 85.5775 206.306 85.3255 206.078C85.0855 205.838 84.9655 205.532 84.9655 205.16C84.9655 204.788 85.0855 204.488 85.3255 204.26C85.5775 204.02 85.8835 203.9 86.2435 203.9C86.6155 203.9 86.9215 204.02 87.1615 204.26C87.4015 204.488 87.5215 204.788 87.5215 205.16C87.5215 205.532 87.4015 205.838 87.1615 206.078C86.9215 206.306 86.6155 206.42 86.2435 206.42ZM89.4809 212.108V211.838C89.4809 210.902 89.6669 210.104 90.0389 209.444C90.4229 208.784 90.9269 208.274 91.5509 207.914C92.1749 207.554 92.8589 207.374 93.6029 207.374C94.4669 207.374 95.1269 207.536 95.5829 207.86C96.0509 208.184 96.3929 208.532 96.6089 208.904H96.8969V207.626H98.6969V218.318C98.6969 218.858 98.5349 219.29 98.2109 219.614C97.8989 219.938 97.4669 220.1 96.9149 220.1H90.9389V218.48H96.3389C96.6869 218.48 96.8609 218.3 96.8609 217.94V215.114H96.5729C96.4409 215.33 96.2549 215.552 96.0149 215.78C95.7749 216.008 95.4569 216.194 95.0609 216.338C94.6769 216.482 94.1909 216.554 93.6029 216.554C92.8589 216.554 92.1689 216.38 91.5329 216.032C90.9089 215.672 90.4109 215.162 90.0389 214.502C89.6669 213.83 89.4809 213.032 89.4809 212.108ZM94.1069 214.934C94.9109 214.934 95.5709 214.682 96.0869 214.178C96.6149 213.662 96.8789 212.954 96.8789 212.054V211.892C96.8789 210.968 96.6209 210.26 96.1049 209.768C95.5889 209.264 94.9229 209.012 94.1069 209.012C93.3149 209.012 92.6549 209.264 92.1269 209.768C91.6109 210.26 91.3529 210.968 91.3529 211.892V212.054C91.3529 212.954 91.6109 213.662 92.1269 214.178C92.6549 214.682 93.3149 214.934 94.1069 214.934ZM101.427 216.5V207.626H103.245V208.958H103.533C103.701 208.598 104.001 208.262 104.433 207.95C104.865 207.638 105.507 207.482 106.359 207.482C107.031 207.482 107.625 207.632 108.141 207.932C108.669 208.232 109.083 208.658 109.383 209.21C109.683 209.75 109.833 210.404 109.833 211.172V216.5H107.979V211.316C107.979 210.548 107.787 209.984 107.403 209.624C107.019 209.252 106.491 209.066 105.819 209.066C105.051 209.066 104.433 209.318 103.965 209.822C103.509 210.326 103.281 211.058 103.281 212.018V216.5H101.427ZM116.569 216.752C115.669 216.752 114.883 216.566 114.211 216.194C113.539 215.81 113.011 215.276 112.627 214.592C112.255 213.896 112.069 213.092 112.069 212.18V211.964C112.069 211.04 112.255 210.236 112.627 209.552C112.999 208.856 113.515 208.322 114.175 207.95C114.847 207.566 115.621 207.374 116.497 207.374C117.349 207.374 118.093 207.566 118.729 207.95C119.377 208.322 119.881 208.844 120.241 209.516C120.601 210.188 120.781 210.974 120.781 211.874V212.576H113.959C113.983 213.356 114.241 213.98 114.733 214.448C115.237 214.904 115.861 215.132 116.605 215.132C117.301 215.132 117.823 214.976 118.171 214.664C118.531 214.352 118.807 213.992 118.999 213.584L120.529 214.376C120.361 214.712 120.115 215.066 119.791 215.438C119.479 215.81 119.065 216.122 118.549 216.374C118.033 216.626 117.373 216.752 116.569 216.752ZM113.977 211.154H118.891C118.843 210.482 118.603 209.96 118.171 209.588C117.739 209.204 117.175 209.012 116.479 209.012C115.783 209.012 115.213 209.204 114.769 209.588C114.337 209.96 114.073 210.482 113.977 211.154ZM123.013 216.5V207.626H124.831V208.67H125.119C125.263 208.298 125.491 208.028 125.803 207.86C126.127 207.68 126.523 207.59 126.991 207.59H128.053V209.264H126.919C126.319 209.264 125.827 209.432 125.443 209.768C125.059 210.092 124.867 210.596 124.867 211.28V216.5H123.013Z" fill="#1C1917"/>
<rect x="242.5" y="0.5" width="212" height="63" rx="23.5" fill="#FFFBEB"/>
<rect x="242.5" y="0.5" width="212" height="63" rx="23.5" stroke="#292524"/>
<path d="M271.4 36.6L266.8 32L271.4 27.4L270 26L264 32L270 38L271.4 36.6ZM276.6 36.6L281.2 32L276.6 27.4L278 26L284 32L278 38L276.6 36.6Z" fill="#44403C"/>
<path d="M294.846 38.5V36.772H296.538V27.628H294.846V25.9H299.886C301.566 25.9 302.85 26.326 303.738 27.178C304.638 28.03 305.088 29.314 305.088 31.03V33.388C305.088 35.104 304.638 36.388 303.738 37.24C302.85 38.08 301.566 38.5 299.886 38.5H294.846ZM298.5 36.736H299.904C300.996 36.736 301.806 36.46 302.334 35.908C302.862 35.356 303.126 34.534 303.126 33.442V30.958C303.126 29.854 302.862 29.032 302.334 28.492C301.806 27.952 300.996 27.682 299.904 27.682H298.5V36.736ZM311.407 38.752C310.507 38.752 309.721 38.566 309.049 38.194C308.377 37.81 307.849 37.276 307.465 36.592C307.093 35.896 306.907 35.092 306.907 34.18V33.964C306.907 33.04 307.093 32.236 307.465 31.552C307.837 30.856 308.353 30.322 309.013 29.95C309.685 29.566 310.459 29.374 311.335 29.374C312.187 29.374 312.931 29.566 313.567 29.95C314.215 30.322 314.719 30.844 315.079 31.516C315.439 32.188 315.619 32.974 315.619 33.874V34.576H308.797C308.821 35.356 309.079 35.98 309.571 36.448C310.075 36.904 310.699 37.132 311.443 37.132C312.139 37.132 312.661 36.976 313.009 36.664C313.369 36.352 313.645 35.992 313.837 35.584L315.367 36.376C315.199 36.712 314.953 37.066 314.629 37.438C314.317 37.81 313.903 38.122 313.387 38.374C312.871 38.626 312.211 38.752 311.407 38.752ZM308.815 33.154H313.729C313.681 32.482 313.441 31.96 313.009 31.588C312.577 31.204 312.013 31.012 311.317 31.012C310.621 31.012 310.051 31.204 309.607 31.588C309.175 31.96 308.911 32.482 308.815 33.154ZM319.586 38.5L316.598 29.626H318.56L320.918 37.132H321.206L323.564 29.626H325.526L322.538 38.5H319.586ZM331.077 38.752C330.177 38.752 329.391 38.566 328.719 38.194C328.047 37.81 327.519 37.276 327.135 36.592C326.763 35.896 326.577 35.092 326.577 34.18V33.964C326.577 33.04 326.763 32.236 327.135 31.552C327.507 30.856 328.023 30.322 328.683 29.95C329.355 29.566 330.129 29.374 331.005 29.374C331.857 29.374 332.601 29.566 333.237 29.95C333.885 30.322 334.389 30.844 334.749 31.516C335.109 32.188 335.289 32.974 335.289 33.874V34.576H328.467C328.491 35.356 328.749 35.98 329.241 36.448C329.745 36.904 330.369 37.132 331.113 37.132C331.809 37.132 332.331 36.976 332.679 36.664C333.039 36.352 333.315 35.992 333.507 35.584L335.037 36.376C334.869 36.712 334.623 37.066 334.299 37.438C333.987 37.81 333.573 38.122 333.057 38.374C332.541 38.626 331.881 38.752 331.077 38.752ZM328.485 33.154H333.399C333.351 32.482 333.111 31.96 332.679 31.588C332.247 31.204 331.683 31.012 330.987 31.012C330.291 31.012 329.721 31.204 329.277 31.588C328.845 31.96 328.581 32.482 328.485 33.154ZM337.52 38.5V25.9H339.374V38.5H337.52ZM346.284 38.752C345.396 38.752 344.604 38.572 343.908 38.212C343.224 37.84 342.684 37.312 342.288 36.628C341.892 35.944 341.694 35.134 341.694 34.198V33.928C341.694 32.992 341.892 32.188 342.288 31.516C342.684 30.832 343.224 30.304 343.908 29.932C344.604 29.56 345.396 29.374 346.284 29.374C347.172 29.374 347.964 29.56 348.66 29.932C349.356 30.304 349.902 30.832 350.298 31.516C350.694 32.188 350.892 32.992 350.892 33.928V34.198C350.892 35.134 350.694 35.944 350.298 36.628C349.902 37.312 349.356 37.84 348.66 38.212C347.964 38.572 347.172 38.752 346.284 38.752ZM346.284 37.096C347.1 37.096 347.76 36.838 348.264 36.322C348.78 35.794 349.038 35.068 349.038 34.144V33.982C349.038 33.058 348.786 32.338 348.282 31.822C347.778 31.294 347.112 31.03 346.284 31.03C345.48 31.03 344.82 31.294 344.304 31.822C343.8 32.338 343.548 33.058 343.548 33.982V34.144C343.548 35.068 343.8 35.794 344.304 36.322C344.82 36.838 345.48 37.096 346.284 37.096ZM353.2 42.1V29.626H355.018V30.904H355.306C355.534 30.508 355.876 30.154 356.332 29.842C356.8 29.53 357.466 29.374 358.33 29.374C359.074 29.374 359.752 29.554 360.364 29.914C360.988 30.274 361.486 30.796 361.858 31.48C362.242 32.152 362.434 32.968 362.434 33.928V34.198C362.434 35.158 362.248 35.98 361.876 36.664C361.504 37.336 361.006 37.852 360.382 38.212C359.758 38.572 359.074 38.752 358.33 38.752C357.754 38.752 357.268 38.68 356.872 38.536C356.476 38.392 356.158 38.212 355.918 37.996C355.678 37.768 355.486 37.534 355.342 37.294H355.054V42.1H353.2ZM357.79 37.132C358.606 37.132 359.272 36.874 359.788 36.358C360.304 35.842 360.562 35.104 360.562 34.144V33.982C360.562 33.034 360.298 32.302 359.77 31.786C359.254 31.27 358.594 31.012 357.79 31.012C356.998 31.012 356.338 31.27 355.81 31.786C355.294 32.302 355.036 33.034 355.036 33.982V34.144C355.036 35.104 355.294 35.842 355.81 36.358C356.338 36.874 356.998 37.132 357.79 37.132ZM368.799 38.752C367.899 38.752 367.113 38.566 366.441 38.194C365.769 37.81 365.241 37.276 364.857 36.592C364.485 35.896 364.299 35.092 364.299 34.18V33.964C364.299 33.04 364.485 32.236 364.857 31.552C365.229 30.856 365.745 30.322 366.405 29.95C367.077 29.566 367.851 29.374 368.727 29.374C369.579 29.374 370.323 29.566 370.959 29.95C371.607 30.322 372.111 30.844 372.471 31.516C372.831 32.188 373.011 32.974 373.011 33.874V34.576H366.189C366.213 35.356 366.471 35.98 366.963 36.448C367.467 36.904 368.091 37.132 368.835 37.132C369.531 37.132 370.053 36.976 370.401 36.664C370.761 36.352 371.037 35.992 371.229 35.584L372.759 36.376C372.591 36.712 372.345 37.066 372.021 37.438C371.709 37.81 371.295 38.122 370.779 38.374C370.263 38.626 369.603 38.752 368.799 38.752ZM366.207 33.154H371.121C371.073 32.482 370.833 31.96 370.401 31.588C369.969 31.204 369.405 31.012 368.709 31.012C368.013 31.012 367.443 31.204 366.999 31.588C366.567 31.96 366.303 32.482 366.207 33.154ZM375.243 38.5V29.626H377.061V30.67H377.349C377.493 30.298 377.721 30.028 378.033 29.86C378.357 29.68 378.753 29.59 379.221 29.59H380.283V31.264H379.149C378.549 31.264 378.057 31.432 377.673 31.768C377.289 32.092 377.097 32.596 377.097 33.28V38.5H375.243Z" fill="#1C1917"/>
<rect x="389" y="22" width="6" height="20" rx="3" fill="#44403C"/>
<rect x="399" y="22" width="6" height="20" rx="3" fill="#44403C"/>
<rect x="409" y="22" width="6" height="20" rx="3" fill="#44403C"/>
<rect x="419" y="22" width="6" height="20" rx="3" fill="#44403C"/>
<rect x="429" y="22" width="6" height="20" rx="3" fill="#44403C"/>
<rect x="242.5" y="89.5" width="276" height="63" rx="23.5" fill="#FFFBEB"/>
<rect x="242.5" y="89.5" width="276" height="63" rx="23.5" stroke="#292524"/>
<path d="M276.55 114.25C277.65 114.25 278.55 113.35 278.55 112.25C278.55 111.15 277.65 110.25 276.55 110.25C275.45 110.25 274.55 111.15 274.55 112.25C274.55 113.35 275.45 114.25 276.55 114.25ZM272.95 128.15L273.95 123.75L276.05 125.75V131.75H278.05V124.25L275.95 122.25L276.55 119.25C277.85 120.75 279.85 121.75 282.05 121.75V119.75C280.15 119.75 278.55 118.75 277.75 117.35L276.75 115.75C276.35 115.15 275.75 114.75 275.05 114.75C274.75 114.75 274.55 114.85 274.25 114.85L269.05 117.05V121.75H271.05V118.35L272.85 117.65L271.25 125.75L266.35 124.75L265.95 126.75L272.95 128.15Z" fill="#44403C"/>
<path d="M295.314 127.5V114.9H300.318C301.086 114.9 301.77 115.056 302.37 115.368C302.982 115.668 303.456 116.1 303.792 116.664C304.14 117.216 304.314 117.882 304.314 118.662V118.896C304.314 119.676 304.134 120.348 303.774 120.912C303.426 121.476 302.952 121.908 302.352 122.208C301.752 122.508 301.074 122.658 300.318 122.658H297.258V127.5H295.314ZM297.258 120.894H300.12C300.804 120.894 301.35 120.714 301.758 120.354C302.166 119.994 302.37 119.502 302.37 118.878V118.698C302.37 118.062 302.166 117.564 301.758 117.204C301.35 116.844 300.804 116.664 300.12 116.664H297.258V120.894ZM306.214 127.5V118.626H308.032V119.67H308.32C308.464 119.298 308.692 119.028 309.004 118.86C309.328 118.68 309.724 118.59 310.192 118.59H311.254V120.264H310.12C309.52 120.264 309.028 120.432 308.644 120.768C308.26 121.092 308.068 121.596 308.068 122.28V127.5H306.214ZM317.016 127.752C316.128 127.752 315.336 127.572 314.64 127.212C313.956 126.84 313.416 126.312 313.02 125.628C312.624 124.944 312.426 124.134 312.426 123.198V122.928C312.426 121.992 312.624 121.188 313.02 120.516C313.416 119.832 313.956 119.304 314.64 118.932C315.336 118.56 316.128 118.374 317.016 118.374C317.904 118.374 318.696 118.56 319.392 118.932C320.088 119.304 320.634 119.832 321.03 120.516C321.426 121.188 321.624 121.992 321.624 122.928V123.198C321.624 124.134 321.426 124.944 321.03 125.628C320.634 126.312 320.088 126.84 319.392 127.212C318.696 127.572 317.904 127.752 317.016 127.752ZM317.016 126.096C317.832 126.096 318.492 125.838 318.996 125.322C319.512 124.794 319.77 124.068 319.77 123.144V122.982C319.77 122.058 319.518 121.338 319.014 120.822C318.51 120.294 317.844 120.03 317.016 120.03C316.212 120.03 315.552 120.294 315.036 120.822C314.532 121.338 314.28 122.058 314.28 122.982V123.144C314.28 124.068 314.532 124.794 315.036 125.322C315.552 125.838 316.212 126.096 317.016 126.096ZM327.604 127.752C326.872 127.752 326.194 127.572 325.57 127.212C324.946 126.852 324.442 126.336 324.058 125.664C323.686 124.98 323.5 124.158 323.5 123.198V122.928C323.5 121.98 323.686 121.164 324.058 120.48C324.43 119.796 324.928 119.274 325.552 118.914C326.176 118.554 326.86 118.374 327.604 118.374C328.18 118.374 328.66 118.446 329.044 118.59C329.44 118.734 329.764 118.92 330.016 119.148C330.268 119.364 330.46 119.592 330.592 119.832H330.88V114.9H332.734V127.5H330.916V126.24H330.628C330.4 126.624 330.052 126.972 329.584 127.284C329.128 127.596 328.468 127.752 327.604 127.752ZM328.126 126.132C328.93 126.132 329.59 125.874 330.106 125.358C330.634 124.842 330.898 124.104 330.898 123.144V122.982C330.898 122.034 330.64 121.302 330.124 120.786C329.608 120.27 328.942 120.012 328.126 120.012C327.334 120.012 326.674 120.27 326.146 120.786C325.63 121.302 325.372 122.034 325.372 122.982V123.144C325.372 124.104 325.63 124.842 326.146 125.358C326.674 125.874 327.334 126.132 328.126 126.132ZM338.866 127.662C338.194 127.662 337.594 127.512 337.066 127.212C336.538 126.912 336.124 126.486 335.824 125.934C335.524 125.382 335.374 124.722 335.374 123.954V118.626H337.228V123.828C337.228 124.596 337.42 125.166 337.804 125.538C338.188 125.898 338.722 126.078 339.406 126.078C340.162 126.078 340.768 125.826 341.224 125.322C341.692 124.806 341.926 124.068 341.926 123.108V118.626H343.78V127.5H341.962V126.168H341.674C341.506 126.528 341.206 126.87 340.774 127.194C340.342 127.506 339.706 127.662 338.866 127.662ZM350.642 127.752C349.79 127.752 349.016 127.572 348.32 127.212C347.636 126.852 347.09 126.33 346.682 125.646C346.286 124.962 346.088 124.14 346.088 123.18V122.946C346.088 121.986 346.286 121.17 346.682 120.498C347.09 119.814 347.636 119.292 348.32 118.932C349.016 118.56 349.79 118.374 350.642 118.374C351.494 118.374 352.22 118.53 352.82 118.842C353.42 119.154 353.9 119.568 354.26 120.084C354.632 120.6 354.872 121.17 354.98 121.794L353.18 122.172C353.12 121.776 352.994 121.416 352.802 121.092C352.61 120.768 352.34 120.51 351.992 120.318C351.644 120.126 351.206 120.03 350.678 120.03C350.162 120.03 349.694 120.15 349.274 120.39C348.866 120.618 348.542 120.954 348.302 121.398C348.062 121.83 347.942 122.358 347.942 122.982V123.144C347.942 123.768 348.062 124.302 348.302 124.746C348.542 125.19 348.866 125.526 349.274 125.754C349.694 125.982 350.162 126.096 350.678 126.096C351.458 126.096 352.052 125.898 352.46 125.502C352.868 125.094 353.126 124.578 353.234 123.954L355.034 124.368C354.89 124.98 354.632 125.544 354.26 126.06C353.9 126.576 353.42 126.99 352.82 127.302C352.22 127.602 351.494 127.752 350.642 127.752ZM360.169 127.5C359.629 127.5 359.197 127.338 358.873 127.014C358.561 126.69 358.405 126.258 358.405 125.718V120.192H355.957V118.626H358.405V115.692H360.259V118.626H362.905V120.192H360.259V125.394C360.259 125.754 360.427 125.934 360.763 125.934H362.617V127.5H360.169ZM369.617 127.5V114.9H373.271L376.025 126.204H376.313L379.067 114.9H382.721V127.5H380.831V116.268H380.543L377.807 127.5H374.531L371.795 116.268H371.507V127.5H369.617ZM388.157 127.752C387.521 127.752 386.951 127.644 386.447 127.428C385.955 127.212 385.559 126.894 385.259 126.474C384.971 126.054 384.827 125.544 384.827 124.944C384.827 124.332 384.971 123.828 385.259 123.432C385.559 123.024 385.961 122.718 386.465 122.514C386.981 122.31 387.563 122.208 388.211 122.208H390.911V121.632C390.911 121.116 390.755 120.702 390.443 120.39C390.131 120.078 389.651 119.922 389.003 119.922C388.367 119.922 387.881 120.072 387.545 120.372C387.209 120.672 386.987 121.062 386.879 121.542L385.151 120.984C385.295 120.504 385.523 120.072 385.835 119.688C386.159 119.292 386.585 118.974 387.113 118.734C387.641 118.494 388.277 118.374 389.021 118.374C390.173 118.374 391.079 118.668 391.739 119.256C392.399 119.844 392.729 120.678 392.729 121.758V125.412C392.729 125.772 392.897 125.952 393.233 125.952H393.989V127.5H392.603C392.183 127.5 391.841 127.392 391.577 127.176C391.313 126.96 391.181 126.666 391.181 126.294V126.24H390.911C390.815 126.42 390.671 126.63 390.479 126.87C390.287 127.11 390.005 127.32 389.633 127.5C389.261 127.668 388.769 127.752 388.157 127.752ZM388.427 126.222C389.171 126.222 389.771 126.012 390.227 125.592C390.683 125.16 390.911 124.572 390.911 123.828V123.648H388.319C387.827 123.648 387.431 123.756 387.131 123.972C386.831 124.176 386.681 124.482 386.681 124.89C386.681 125.298 386.837 125.622 387.149 125.862C387.461 126.102 387.887 126.222 388.427 126.222ZM395.792 127.5V118.626H397.61V119.958H397.898C398.066 119.598 398.366 119.262 398.798 118.95C399.23 118.638 399.872 118.482 400.724 118.482C401.396 118.482 401.99 118.632 402.506 118.932C403.034 119.232 403.448 119.658 403.748 120.21C404.048 120.75 404.198 121.404 404.198 122.172V127.5H402.344V122.316C402.344 121.548 402.152 120.984 401.768 120.624C401.384 120.252 400.856 120.066 400.184 120.066C399.416 120.066 398.798 120.318 398.33 120.822C397.874 121.326 397.646 122.058 397.646 123.018V127.5H395.792ZM409.62 127.752C408.984 127.752 408.414 127.644 407.91 127.428C407.418 127.212 407.022 126.894 406.722 126.474C406.434 126.054 406.29 125.544 406.29 124.944C406.29 124.332 406.434 123.828 406.722 123.432C407.022 123.024 407.424 122.718 407.928 122.514C408.444 122.31 409.026 122.208 409.674 122.208H412.374V121.632C412.374 121.116 412.218 120.702 411.906 120.39C411.594 120.078 411.114 119.922 410.466 119.922C409.83 119.922 409.344 120.072 409.008 120.372C408.672 120.672 408.45 121.062 408.342 121.542L406.614 120.984C406.758 120.504 406.986 120.072 407.298 119.688C407.622 119.292 408.048 118.974 408.576 118.734C409.104 118.494 409.74 118.374 410.484 118.374C411.636 118.374 412.542 118.668 413.202 119.256C413.862 119.844 414.192 120.678 414.192 121.758V125.412C414.192 125.772 414.36 125.952 414.696 125.952H415.452V127.5H414.066C413.646 127.5 413.304 127.392 413.04 127.176C412.776 126.96 412.644 126.666 412.644 126.294V126.24H412.374C412.278 126.42 412.134 126.63 411.942 126.87C411.75 127.11 411.468 127.32 411.096 127.5C410.724 127.668 410.232 127.752 409.62 127.752ZM409.89 126.222C410.634 126.222 411.234 126.012 411.69 125.592C412.146 125.16 412.374 124.572 412.374 123.828V123.648H409.782C409.29 123.648 408.894 123.756 408.594 123.972C408.294 124.176 408.144 124.482 408.144 124.89C408.144 125.298 408.3 125.622 408.612 125.862C408.924 126.102 409.35 126.222 409.89 126.222ZM416.612 123.108V122.838C416.612 121.902 416.798 121.104 417.17 120.444C417.554 119.784 418.058 119.274 418.682 118.914C419.306 118.554 419.99 118.374 420.734 118.374C421.598 118.374 422.258 118.536 422.714 118.86C423.182 119.184 423.524 119.532 423.74 119.904H424.028V118.626H425.828V129.318C425.828 129.858 425.666 130.29 425.342 130.614C425.03 130.938 424.598 131.1 424.046 131.1H418.07V129.48H423.47C423.818 129.48 423.992 129.3 423.992 128.94V126.114H423.704C423.572 126.33 423.386 126.552 423.146 126.78C422.906 127.008 422.588 127.194 422.192 127.338C421.808 127.482 421.322 127.554 420.734 127.554C419.99 127.554 419.3 127.38 418.664 127.032C418.04 126.672 417.542 126.162 417.17 125.502C416.798 124.83 416.612 124.032 416.612 123.108ZM421.238 125.934C422.042 125.934 422.702 125.682 423.218 125.178C423.746 124.662 424.01 123.954 424.01 123.054V122.892C424.01 121.968 423.752 121.26 423.236 120.768C422.72 120.264 422.054 120.012 421.238 120.012C420.446 120.012 419.786 120.264 419.258 120.768C418.742 121.26 418.484 121.968 418.484 122.892V123.054C418.484 123.954 418.742 124.662 419.258 125.178C419.786 125.682 420.446 125.934 421.238 125.934ZM432.625 127.752C431.725 127.752 430.939 127.566 430.267 127.194C429.595 126.81 429.067 126.276 428.683 125.592C428.311 124.896 428.125 124.092 428.125 123.18V122.964C428.125 122.04 428.311 121.236 428.683 120.552C429.055 119.856 429.571 119.322 430.231 118.95C430.903 118.566 431.677 118.374 432.553 118.374C433.405 118.374 434.149 118.566 434.785 118.95C435.433 119.322 435.937 119.844 436.297 120.516C436.657 121.188 436.837 121.974 436.837 122.874V123.576H430.015C430.039 124.356 430.297 124.98 430.789 125.448C431.293 125.904 431.917 126.132 432.661 126.132C433.357 126.132 433.879 125.976 434.227 125.664C434.587 125.352 434.863 124.992 435.055 124.584L436.585 125.376C436.417 125.712 436.171 126.066 435.847 126.438C435.535 126.81 435.121 127.122 434.605 127.374C434.089 127.626 433.429 127.752 432.625 127.752ZM430.033 122.154H434.947C434.899 121.482 434.659 120.96 434.227 120.588C433.795 120.204 433.231 120.012 432.535 120.012C431.839 120.012 431.269 120.204 430.825 120.588C430.393 120.96 430.129 121.482 430.033 122.154ZM439.069 127.5V118.626H440.887V119.67H441.175C441.319 119.298 441.547 119.028 441.859 118.86C442.183 118.68 442.579 118.59 443.047 118.59H444.109V120.264H442.975C442.375 120.264 441.883 120.432 441.499 120.768C441.115 121.092 440.923 121.596 440.923 122.28V127.5H439.069Z" fill="#1C1917"/>
<rect x="453" y="111" width="6" height="20" rx="3" fill="#44403C"/>
<rect x="463" y="111" width="6" height="20" rx="3" fill="#44403C"/>
<rect x="473" y="111" width="6" height="20" rx="3" fill="#44403C"/>
<rect x="483" y="111" width="6" height="20" rx="3" fill="#44403C"/>
<rect x="493" y="111" width="6" height="20" rx="3" fill="#E7E5E4"/>
<rect x="242.5" y="178.5" width="224" height="63" rx="23.5" fill="#FFFBEB"/>
<rect x="242.5" y="178.5" width="224" height="63" rx="23.5" stroke="#292524"/>
<path d="M269 217.5C267.9 217.5 267 218.4 267 219.5H281C281 218.4 280.1 217.5 279 217.5H275V215.5H278C279.1 215.5 280 214.6 280 213.5H272C270.34 213.5 269 212.16 269 210.5C269 209.41 269.59 208.46 270.47 207.93C270.88 208.52 271.53 208.93 272.3 208.99C273 209.05 273.66 208.8 274.15 208.37L274.74 209.98L275.68 209.64L276.02 210.58L277.9 209.9L277.56 208.96L278.5 208.62L275.76 201.1L274.82 201.44L274.48 200.5L272.6 201.18L272.94 202.12L272 202.47L272.56 204.02C271.39 203.98 270.37 204.77 270.08 205.88C268.27 206.64 267 208.42 267 210.5C267 213.26 269.24 215.5 272 215.5V217.5H269ZM274.86 203.02L276.57 207.72L275.63 208.06L273.92 203.36L274.86 203.02ZM272.5 205.5C273.05 205.5 273.5 205.95 273.5 206.5C273.5 207.05 273.05 207.5 272.5 207.5C271.95 207.5 271.5 207.05 271.5 206.5C271.5 205.95 271.95 205.5 272.5 205.5Z" fill="#44403C"/>
<path d="M295.314 216.5V203.9H300.606C301.386 203.9 302.07 204.038 302.658 204.314C303.258 204.578 303.72 204.962 304.044 205.466C304.38 205.97 304.548 206.57 304.548 207.266V207.464C304.548 208.256 304.356 208.892 303.972 209.372C303.6 209.84 303.144 210.17 302.604 210.362V210.65C303.06 210.674 303.426 210.83 303.702 211.118C303.978 211.394 304.116 211.796 304.116 212.324V216.5H302.154V212.594C302.154 212.27 302.07 212.012 301.902 211.82C301.734 211.628 301.464 211.532 301.092 211.532H297.258V216.5H295.314ZM297.258 209.768H300.39C301.086 209.768 301.626 209.594 302.01 209.246C302.394 208.886 302.586 208.4 302.586 207.788V207.644C302.586 207.032 302.394 206.552 302.01 206.204C301.638 205.844 301.098 205.664 300.39 205.664H297.258V209.768ZM310.809 216.752C309.909 216.752 309.123 216.566 308.451 216.194C307.779 215.81 307.251 215.276 306.867 214.592C306.495 213.896 306.309 213.092 306.309 212.18V211.964C306.309 211.04 306.495 210.236 306.867 209.552C307.239 208.856 307.755 208.322 308.415 207.95C309.087 207.566 309.861 207.374 310.737 207.374C311.589 207.374 312.333 207.566 312.969 207.95C313.617 208.322 314.121 208.844 314.481 209.516C314.841 210.188 315.021 210.974 315.021 211.874V212.576H308.199C308.223 213.356 308.481 213.98 308.973 214.448C309.477 214.904 310.101 215.132 310.845 215.132C311.541 215.132 312.063 214.976 312.411 214.664C312.771 214.352 313.047 213.992 313.239 213.584L314.769 214.376C314.601 214.712 314.355 215.066 314.031 215.438C313.719 215.81 313.305 216.122 312.789 216.374C312.273 216.626 311.613 216.752 310.809 216.752ZM308.217 211.154H313.131C313.083 210.482 312.843 209.96 312.411 209.588C311.979 209.204 311.415 209.012 310.719 209.012C310.023 209.012 309.453 209.204 309.009 209.588C308.577 209.96 308.313 210.482 308.217 211.154ZM320.889 216.752C319.761 216.752 318.825 216.5 318.081 215.996C317.337 215.492 316.881 214.73 316.713 213.71L318.441 213.296C318.537 213.788 318.699 214.178 318.927 214.466C319.155 214.754 319.437 214.958 319.773 215.078C320.121 215.198 320.493 215.258 320.889 215.258C321.477 215.258 321.927 215.144 322.239 214.916C322.563 214.688 322.725 214.394 322.725 214.034C322.725 213.674 322.575 213.41 322.275 213.242C321.975 213.074 321.531 212.936 320.943 212.828L320.331 212.72C319.731 212.612 319.185 212.456 318.693 212.252C318.201 212.048 317.811 211.766 317.523 211.406C317.235 211.046 317.091 210.584 317.091 210.02C317.091 209.18 317.403 208.532 318.027 208.076C318.651 207.608 319.479 207.374 320.511 207.374C321.507 207.374 322.323 207.602 322.959 208.058C323.607 208.502 324.027 209.108 324.219 209.876L322.491 210.362C322.383 209.822 322.155 209.444 321.807 209.228C321.459 209 321.027 208.886 320.511 208.886C320.007 208.886 319.611 208.982 319.323 209.174C319.035 209.354 318.891 209.612 318.891 209.948C318.891 210.308 319.029 210.572 319.305 210.74C319.593 210.908 319.977 211.034 320.457 211.118L321.087 211.226C321.723 211.334 322.305 211.484 322.833 211.676C323.361 211.868 323.775 212.144 324.075 212.504C324.387 212.864 324.543 213.344 324.543 213.944C324.543 214.832 324.213 215.522 323.553 216.014C322.893 216.506 322.005 216.752 320.889 216.752ZM330.778 216.752C329.878 216.752 329.092 216.566 328.42 216.194C327.748 215.81 327.22 215.276 326.836 214.592C326.464 213.896 326.278 213.092 326.278 212.18V211.964C326.278 211.04 326.464 210.236 326.836 209.552C327.208 208.856 327.724 208.322 328.384 207.95C329.056 207.566 329.83 207.374 330.706 207.374C331.558 207.374 332.302 207.566 332.938 207.95C333.586 208.322 334.09 208.844 334.45 209.516C334.81 210.188 334.99 210.974 334.99 211.874V212.576H328.168C328.192 213.356 328.45 213.98 328.942 214.448C329.446 214.904 330.07 215.132 330.814 215.132C331.51 215.132 332.032 214.976 332.38 214.664C332.74 214.352 333.016 213.992 333.208 213.584L334.738 214.376C334.57 214.712 334.324 215.066 334 215.438C333.688 215.81 333.274 216.122 332.758 216.374C332.242 216.626 331.582 216.752 330.778 216.752ZM328.186 211.154H333.1C333.052 210.482 332.812 209.96 332.38 209.588C331.948 209.204 331.384 209.012 330.688 209.012C329.992 209.012 329.422 209.204 328.978 209.588C328.546 209.96 328.282 210.482 328.186 211.154ZM339.976 216.752C339.34 216.752 338.77 216.644 338.266 216.428C337.774 216.212 337.378 215.894 337.078 215.474C336.79 215.054 336.646 214.544 336.646 213.944C336.646 213.332 336.79 212.828 337.078 212.432C337.378 212.024 337.78 211.718 338.284 211.514C338.8 211.31 339.382 211.208 340.03 211.208H342.73V210.632C342.73 210.116 342.574 209.702 342.262 209.39C341.95 209.078 341.47 208.922 340.822 208.922C340.186 208.922 339.7 209.072 339.364 209.372C339.028 209.672 338.806 210.062 338.698 210.542L336.97 209.984C337.114 209.504 337.342 209.072 337.654 208.688C337.978 208.292 338.404 207.974 338.932 207.734C339.46 207.494 340.096 207.374 340.84 207.374C341.992 207.374 342.898 207.668 343.558 208.256C344.218 208.844 344.548 209.678 344.548 210.758V214.412C344.548 214.772 344.716 214.952 345.052 214.952H345.808V216.5H344.422C344.002 216.5 343.66 216.392 343.396 216.176C343.132 215.96 343 215.666 343 215.294V215.24H342.73C342.634 215.42 342.49 215.63 342.298 215.87C342.106 216.11 341.824 216.32 341.452 216.5C341.08 216.668 340.588 216.752 339.976 216.752ZM340.246 215.222C340.99 215.222 341.59 215.012 342.046 214.592C342.502 214.16 342.73 213.572 342.73 212.828V212.648H340.138C339.646 212.648 339.25 212.756 338.95 212.972C338.65 213.176 338.5 213.482 338.5 213.89C338.5 214.298 338.656 214.622 338.968 214.862C339.28 215.102 339.706 215.222 340.246 215.222ZM347.61 216.5V207.626H349.428V208.67H349.716C349.86 208.298 350.088 208.028 350.4 207.86C350.724 207.68 351.12 207.59 351.588 207.59H352.65V209.264H351.516C350.916 209.264 350.424 209.432 350.04 209.768C349.656 210.092 349.464 210.596 349.464 211.28V216.5H347.61ZM358.377 216.752C357.525 216.752 356.751 216.572 356.055 216.212C355.371 215.852 354.825 215.33 354.417 214.646C354.021 213.962 353.823 213.14 353.823 212.18V211.946C353.823 210.986 354.021 210.17 354.417 209.498C354.825 208.814 355.371 208.292 356.055 207.932C356.751 207.56 357.525 207.374 358.377 207.374C359.229 207.374 359.955 207.53 360.555 207.842C361.155 208.154 361.635 208.568 361.995 209.084C362.367 209.6 362.607 210.17 362.715 210.794L360.915 211.172C360.855 210.776 360.729 210.416 360.537 210.092C360.345 209.768 360.075 209.51 359.727 209.318C359.379 209.126 358.941 209.03 358.413 209.03C357.897 209.03 357.429 209.15 357.009 209.39C356.601 209.618 356.277 209.954 356.037 210.398C355.797 210.83 355.677 211.358 355.677 211.982V212.144C355.677 212.768 355.797 213.302 356.037 213.746C356.277 214.19 356.601 214.526 357.009 214.754C357.429 214.982 357.897 215.096 358.413 215.096C359.193 215.096 359.787 214.898 360.195 214.502C360.603 214.094 360.861 213.578 360.969 212.954L362.769 213.368C362.625 213.98 362.367 214.544 361.995 215.06C361.635 215.576 361.155 215.99 360.555 216.302C359.955 216.602 359.229 216.752 358.377 216.752ZM364.907 216.5V203.9H366.761V208.886H367.049C367.169 208.658 367.337 208.436 367.553 208.22C367.781 208.004 368.075 207.83 368.435 207.698C368.807 207.554 369.275 207.482 369.839 207.482C370.511 207.482 371.105 207.632 371.621 207.932C372.149 208.232 372.563 208.658 372.863 209.21C373.163 209.75 373.313 210.404 373.313 211.172V216.5H371.459V211.316C371.459 210.548 371.267 209.984 370.883 209.624C370.499 209.252 369.971 209.066 369.299 209.066C368.531 209.066 367.913 209.318 367.445 209.822C366.989 210.326 366.761 211.058 366.761 212.018V216.5H364.907ZM380.049 216.752C379.149 216.752 378.363 216.566 377.691 216.194C377.019 215.81 376.491 215.276 376.107 214.592C375.735 213.896 375.549 213.092 375.549 212.18V211.964C375.549 211.04 375.735 210.236 376.107 209.552C376.479 208.856 376.995 208.322 377.655 207.95C378.327 207.566 379.101 207.374 379.977 207.374C380.829 207.374 381.573 207.566 382.209 207.95C382.857 208.322 383.361 208.844 383.721 209.516C384.081 210.188 384.261 210.974 384.261 211.874V212.576H377.439C377.463 213.356 377.721 213.98 378.213 214.448C378.717 214.904 379.341 215.132 380.085 215.132C380.781 215.132 381.303 214.976 381.651 214.664C382.011 214.352 382.287 213.992 382.479 213.584L384.009 214.376C383.841 214.712 383.595 215.066 383.271 215.438C382.959 215.81 382.545 216.122 382.029 216.374C381.513 216.626 380.853 216.752 380.049 216.752ZM377.457 211.154H382.371C382.323 210.482 382.083 209.96 381.651 209.588C381.219 209.204 380.655 209.012 379.959 209.012C379.263 209.012 378.693 209.204 378.249 209.588C377.817 209.96 377.553 210.482 377.457 211.154ZM386.493 216.5V207.626H388.311V208.67H388.599C388.743 208.298 388.971 208.028 389.283 207.86C389.607 207.68 390.003 207.59 390.471 207.59H391.533V209.264H390.399C389.799 209.264 389.307 209.432 388.923 209.768C388.539 210.092 388.347 210.596 388.347 211.28V216.5H386.493Z" fill="#1C1917"/>
<rect x="401" y="200" width="6" height="20" rx="3" fill="#44403C"/>
<rect x="411" y="200" width="6" height="20" rx="3" fill="#44403C"/>
<rect x="421" y="200" width="6" height="20" rx="3" fill="#44403C"/>
<rect x="431" y="200" width="6" height="20" rx="3" fill="#E7E5E4"/>
<rect x="441" y="200" width="6" height="20" rx="3" fill="#E7E5E4"/>
<rect x="242.5" y="267.5" width="207" height="63" rx="23.5" fill="#FFFBEB"/>
<rect x="242.5" y="267.5" width="207" height="63" rx="23.5" stroke="#292524"/>
<path d="M281.279 291.93L279.159 289.81C278.379 289.03 277.109 289.03 276.329 289.81L273.499 292.64L275.619 294.76L277.739 292.64L281.279 296.18C282.449 295 282.449 293.1 281.279 291.93Z" fill="#44403C"/>
<path d="M267.489 300.77C268.079 301.36 269.029 301.36 269.609 300.77L272.079 298.3L269.959 296.17L267.489 298.64C266.899 299.23 266.899 300.18 267.489 300.77Z" fill="#44403C"/>
<path d="M277.039 294.76L275.619 296.18L272.439 293C271.849 292.4 270.899 292.4 270.319 292.99C269.729 293.58 269.729 294.53 270.319 295.11L273.499 298.29L266.429 305.36C265.649 306.14 265.649 307.41 266.429 308.19C267.209 308.97 268.479 308.97 269.259 308.19L278.449 299C278.839 299.39 279.469 299.39 279.859 299C280.249 298.61 280.249 297.98 279.859 297.59L277.039 294.76Z" fill="#44403C"/>
<path d="M300.048 305.752C298.5 305.752 297.27 305.32 296.358 304.456C295.446 303.58 294.99 302.32 294.99 300.676V297.724C294.99 296.08 295.446 294.826 296.358 293.962C297.27 293.086 298.5 292.648 300.048 292.648C301.596 292.648 302.826 293.086 303.738 293.962C304.662 294.826 305.124 296.08 305.124 297.724V300.676C305.124 302.32 304.662 303.58 303.738 304.456C302.826 305.32 301.596 305.752 300.048 305.752ZM300.048 304.006C301.044 304.006 301.812 303.718 302.352 303.142C302.892 302.554 303.162 301.756 303.162 300.748V297.652C303.162 296.644 302.892 295.852 302.352 295.276C301.812 294.688 301.044 294.394 300.048 294.394C299.076 294.394 298.314 294.688 297.762 295.276C297.21 295.852 296.934 296.644 296.934 297.652V300.748C296.934 301.756 297.21 302.554 297.762 303.142C298.314 303.718 299.076 304.006 300.048 304.006ZM300.822 308.578C300.306 308.578 299.886 308.416 299.562 308.092C299.25 307.78 299.094 307.354 299.094 306.814V305.5H301.002V306.49C301.002 306.85 301.17 307.03 301.506 307.03H302.622V308.578H300.822ZM306.349 305.5L309.949 292.9H313.369L316.951 305.5H314.953L314.125 302.53H309.193L308.365 305.5H306.349ZM309.679 300.73H313.639L311.803 294.106H311.515L309.679 300.73ZM325.513 305.5V294.664H321.643V292.9H331.327V294.664H327.457V305.5H325.513ZM335.471 305.752C334.571 305.752 333.785 305.566 333.113 305.194C332.441 304.81 331.913 304.276 331.529 303.592C331.157 302.896 330.971 302.092 330.971 301.18V300.964C330.971 300.04 331.157 299.236 331.529 298.552C331.901 297.856 332.417 297.322 333.077 296.95C333.749 296.566 334.523 296.374 335.399 296.374C336.251 296.374 336.995 296.566 337.631 296.95C338.279 297.322 338.783 297.844 339.143 298.516C339.503 299.188 339.683 299.974 339.683 300.874V301.576H332.861C332.885 302.356 333.143 302.98 333.635 303.448C334.139 303.904 334.763 304.132 335.507 304.132C336.203 304.132 336.725 303.976 337.073 303.664C337.433 303.352 337.709 302.992 337.901 302.584L339.431 303.376C339.263 303.712 339.017 304.066 338.693 304.438C338.381 304.81 337.967 305.122 337.451 305.374C336.935 305.626 336.275 305.752 335.471 305.752ZM332.879 300.154H337.793C337.745 299.482 337.505 298.96 337.073 298.588C336.641 298.204 336.077 298.012 335.381 298.012C334.685 298.012 334.115 298.204 333.671 298.588C333.239 298.96 332.975 299.482 332.879 300.154ZM345.551 305.752C344.423 305.752 343.487 305.5 342.743 304.996C341.999 304.492 341.543 303.73 341.375 302.71L343.103 302.296C343.199 302.788 343.361 303.178 343.589 303.466C343.817 303.754 344.099 303.958 344.435 304.078C344.783 304.198 345.155 304.258 345.551 304.258C346.139 304.258 346.589 304.144 346.901 303.916C347.225 303.688 347.387 303.394 347.387 303.034C347.387 302.674 347.237 302.41 346.937 302.242C346.637 302.074 346.193 301.936 345.605 301.828L344.993 301.72C344.393 301.612 343.847 301.456 343.355 301.252C342.863 301.048 342.473 300.766 342.185 300.406C341.897 300.046 341.753 299.584 341.753 299.02C341.753 298.18 342.065 297.532 342.689 297.076C343.313 296.608 344.141 296.374 345.173 296.374C346.169 296.374 346.985 296.602 347.621 297.058C348.269 297.502 348.689 298.108 348.881 298.876L347.153 299.362C347.045 298.822 346.817 298.444 346.469 298.228C346.121 298 345.689 297.886 345.173 297.886C344.669 297.886 344.273 297.982 343.985 298.174C343.697 298.354 343.553 298.612 343.553 298.948C343.553 299.308 343.691 299.572 343.967 299.74C344.255 299.908 344.639 300.034 345.119 300.118L345.749 300.226C346.385 300.334 346.967 300.484 347.495 300.676C348.023 300.868 348.437 301.144 348.737 301.504C349.049 301.864 349.205 302.344 349.205 302.944C349.205 303.832 348.875 304.522 348.215 305.014C347.555 305.506 346.667 305.752 345.551 305.752ZM354.509 305.5C353.969 305.5 353.537 305.338 353.213 305.014C352.901 304.69 352.745 304.258 352.745 303.718V298.192H350.297V296.626H352.745V293.692H354.599V296.626H357.245V298.192H354.599V303.394C354.599 303.754 354.767 303.934 355.103 303.934H356.957V305.5H354.509ZM363.174 305.752C362.274 305.752 361.488 305.566 360.816 305.194C360.144 304.81 359.616 304.276 359.232 303.592C358.86 302.896 358.674 302.092 358.674 301.18V300.964C358.674 300.04 358.86 299.236 359.232 298.552C359.604 297.856 360.12 297.322 360.78 296.95C361.452 296.566 362.226 296.374 363.102 296.374C363.954 296.374 364.698 296.566 365.334 296.95C365.982 297.322 366.486 297.844 366.846 298.516C367.206 299.188 367.386 299.974 367.386 300.874V301.576H360.564C360.588 302.356 360.846 302.98 361.338 303.448C361.842 303.904 362.466 304.132 363.21 304.132C363.906 304.132 364.428 303.976 364.776 303.664C365.136 303.352 365.412 302.992 365.604 302.584L367.134 303.376C366.966 303.712 366.72 304.066 366.396 304.438C366.084 304.81 365.67 305.122 365.154 305.374C364.638 305.626 363.978 305.752 363.174 305.752ZM360.582 300.154H365.496C365.448 299.482 365.208 298.96 364.776 298.588C364.344 298.204 363.78 298.012 363.084 298.012C362.388 298.012 361.818 298.204 361.374 298.588C360.942 298.96 360.678 299.482 360.582 300.154ZM369.618 305.5V296.626H371.436V297.67H371.724C371.868 297.298 372.096 297.028 372.408 296.86C372.732 296.68 373.128 296.59 373.596 296.59H374.658V298.264H373.524C372.924 298.264 372.432 298.432 372.048 298.768C371.664 299.092 371.472 299.596 371.472 300.28V305.5H369.618Z" fill="#1C1917"/>
<rect x="384" y="289" width="6" height="20" rx="3" fill="#44403C"/>
<rect x="394" y="289" width="6" height="20" rx="3" fill="#44403C"/>
<rect x="404" y="289" width="6" height="20" rx="3" fill="#E7E5E4"/>
<rect x="414" y="289" width="6" height="20" rx="3" fill="#E7E5E4"/>
<rect x="424" y="289" width="6" height="20" rx="3" fill="#E7E5E4"/>
<rect x="242.5" y="356.5" width="220" height="63" rx="23.5" fill="#FFFBEB"/>
<rect x="242.5" y="356.5" width="220" height="63" rx="23.5" stroke="#292524"/>
<path d="M274 393.77L280.18 397.5L278.54 390.47L284 385.74L276.81 385.13L274 378.5L271.19 385.13L264 385.74L269.46 390.47L267.82 397.5L274 393.77Z" fill="#44403C"/>
<path d="M295.314 394.5V381.9H303.252V383.664H297.258V387.282H302.748V389.046H297.258V392.736H303.342V394.5H295.314ZM304.667 394.5L308.051 390.018L304.739 385.626H306.917L309.239 388.812H309.527L311.849 385.626H314.045L310.715 390.018L314.099 394.5H311.885L309.527 391.242H309.239L306.881 394.5H304.667ZM319.581 394.752C318.681 394.752 317.895 394.566 317.223 394.194C316.551 393.81 316.023 393.276 315.639 392.592C315.267 391.896 315.081 391.092 315.081 390.18V389.964C315.081 389.04 315.267 388.236 315.639 387.552C316.011 386.856 316.527 386.322 317.187 385.95C317.859 385.566 318.633 385.374 319.509 385.374C320.361 385.374 321.105 385.566 321.741 385.95C322.389 386.322 322.893 386.844 323.253 387.516C323.613 388.188 323.793 388.974 323.793 389.874V390.576H316.971C316.995 391.356 317.253 391.98 317.745 392.448C318.249 392.904 318.873 393.132 319.617 393.132C320.313 393.132 320.835 392.976 321.183 392.664C321.543 392.352 321.819 391.992 322.011 391.584L323.541 392.376C323.373 392.712 323.127 393.066 322.803 393.438C322.491 393.81 322.077 394.122 321.561 394.374C321.045 394.626 320.385 394.752 319.581 394.752ZM316.989 389.154H321.903C321.855 388.482 321.615 387.96 321.183 387.588C320.751 387.204 320.187 387.012 319.491 387.012C318.795 387.012 318.225 387.204 317.781 387.588C317.349 387.96 317.085 388.482 316.989 389.154ZM330.146 394.752C329.294 394.752 328.52 394.572 327.824 394.212C327.14 393.852 326.594 393.33 326.186 392.646C325.79 391.962 325.592 391.14 325.592 390.18V389.946C325.592 388.986 325.79 388.17 326.186 387.498C326.594 386.814 327.14 386.292 327.824 385.932C328.52 385.56 329.294 385.374 330.146 385.374C330.998 385.374 331.724 385.53 332.324 385.842C332.924 386.154 333.404 386.568 333.764 387.084C334.136 387.6 334.376 388.17 334.484 388.794L332.684 389.172C332.624 388.776 332.498 388.416 332.306 388.092C332.114 387.768 331.844 387.51 331.496 387.318C331.148 387.126 330.71 387.03 330.182 387.03C329.666 387.03 329.198 387.15 328.778 387.39C328.37 387.618 328.046 387.954 327.806 388.398C327.566 388.83 327.446 389.358 327.446 389.982V390.144C327.446 390.768 327.566 391.302 327.806 391.746C328.046 392.19 328.37 392.526 328.778 392.754C329.198 392.982 329.666 393.096 330.182 393.096C330.962 393.096 331.556 392.898 331.964 392.502C332.372 392.094 332.63 391.578 332.738 390.954L334.538 391.368C334.394 391.98 334.136 392.544 333.764 393.06C333.404 393.576 332.924 393.99 332.324 394.302C331.724 394.602 330.998 394.752 330.146 394.752ZM340.079 394.662C339.407 394.662 338.807 394.512 338.279 394.212C337.751 393.912 337.337 393.486 337.037 392.934C336.737 392.382 336.587 391.722 336.587 390.954V385.626H338.441V390.828C338.441 391.596 338.633 392.166 339.017 392.538C339.401 392.898 339.935 393.078 340.619 393.078C341.375 393.078 341.981 392.826 342.437 392.322C342.905 391.806 343.139 391.068 343.139 390.108V385.626H344.993V394.5H343.175V393.168H342.887C342.719 393.528 342.419 393.87 341.987 394.194C341.555 394.506 340.919 394.662 340.079 394.662ZM351.063 394.5C350.523 394.5 350.091 394.338 349.767 394.014C349.455 393.69 349.299 393.258 349.299 392.718V387.192H346.851V385.626H349.299V382.692H351.153V385.626H353.799V387.192H351.153V392.394C351.153 392.754 351.321 392.934 351.657 392.934H353.511V394.5H351.063ZM355.977 394.5V385.626H357.831V394.5H355.977ZM356.913 384.42C356.553 384.42 356.247 384.306 355.995 384.078C355.755 383.838 355.635 383.532 355.635 383.16C355.635 382.788 355.755 382.488 355.995 382.26C356.247 382.02 356.553 381.9 356.913 381.9C357.285 381.9 357.591 382.02 357.831 382.26C358.071 382.488 358.191 382.788 358.191 383.16C358.191 383.532 358.071 383.838 357.831 384.078C357.591 384.306 357.285 384.42 356.913 384.42ZM362.635 394.5L359.647 385.626H361.609L363.967 393.132H364.255L366.613 385.626H368.575L365.587 394.5H362.635ZM374.125 394.752C373.225 394.752 372.439 394.566 371.767 394.194C371.095 393.81 370.567 393.276 370.183 392.592C369.811 391.896 369.625 391.092 369.625 390.18V389.964C369.625 389.04 369.811 388.236 370.183 387.552C370.555 386.856 371.071 386.322 371.731 385.95C372.403 385.566 373.177 385.374 374.053 385.374C374.905 385.374 375.649 385.566 376.285 385.95C376.933 386.322 377.437 386.844 377.797 387.516C378.157 388.188 378.337 388.974 378.337 389.874V390.576H371.515C371.539 391.356 371.797 391.98 372.289 392.448C372.793 392.904 373.417 393.132 374.161 393.132C374.857 393.132 375.379 392.976 375.727 392.664C376.087 392.352 376.363 391.992 376.555 391.584L378.085 392.376C377.917 392.712 377.671 393.066 377.347 393.438C377.035 393.81 376.621 394.122 376.105 394.374C375.589 394.626 374.929 394.752 374.125 394.752ZM371.533 389.154H376.447C376.399 388.482 376.159 387.96 375.727 387.588C375.295 387.204 374.731 387.012 374.035 387.012C373.339 387.012 372.769 387.204 372.325 387.588C371.893 387.96 371.629 388.482 371.533 389.154ZM384.205 394.752C383.077 394.752 382.141 394.5 381.397 393.996C380.653 393.492 380.197 392.73 380.029 391.71L381.757 391.296C381.853 391.788 382.015 392.178 382.243 392.466C382.471 392.754 382.753 392.958 383.089 393.078C383.437 393.198 383.809 393.258 384.205 393.258C384.793 393.258 385.243 393.144 385.555 392.916C385.879 392.688 386.041 392.394 386.041 392.034C386.041 391.674 385.891 391.41 385.591 391.242C385.291 391.074 384.847 390.936 384.259 390.828L383.647 390.72C383.047 390.612 382.501 390.456 382.009 390.252C381.517 390.048 381.127 389.766 380.839 389.406C380.551 389.046 380.407 388.584 380.407 388.02C380.407 387.18 380.719 386.532 381.343 386.076C381.967 385.608 382.795 385.374 383.827 385.374C384.823 385.374 385.639 385.602 386.275 386.058C386.923 386.502 387.343 387.108 387.535 387.876L385.807 388.362C385.699 387.822 385.471 387.444 385.123 387.228C384.775 387 384.343 386.886 383.827 386.886C383.323 386.886 382.927 386.982 382.639 387.174C382.351 387.354 382.207 387.612 382.207 387.948C382.207 388.308 382.345 388.572 382.621 388.74C382.909 388.908 383.293 389.034 383.773 389.118L384.403 389.226C385.039 389.334 385.621 389.484 386.149 389.676C386.677 389.868 387.091 390.144 387.391 390.504C387.703 390.864 387.859 391.344 387.859 391.944C387.859 392.832 387.529 393.522 386.869 394.014C386.209 394.506 385.321 394.752 384.205 394.752Z" fill="#1C1917"/>
<rect x="397" y="378" width="6" height="20" rx="3" fill="#44403C"/>
<rect x="407" y="378" width="6" height="20" rx="3" fill="#E7E5E4"/>
<rect x="417" y="378" width="6" height="20" rx="3" fill="#E7E5E4"/>
<rect x="427" y="378" width="6" height="20" rx="3" fill="#E7E5E4"/>
<rect x="437" y="378" width="6" height="20" rx="3" fill="#E7E5E4"/>
<path d="M148.204 211H168.346H183.533C189.979 211 195.204 205.775 195.204 199.33V44.6701C195.204 38.2249 200.429 33 206.874 33H222.061H242.204" stroke="#292524"/>
<path d="M148.204 211H168.346H183.533C189.979 211 195.204 205.775 195.204 199.33V132.67C195.204 126.225 200.429 121 206.874 121H222.061H242.204" stroke="#292524"/>
<path d="M148.204 211H168.346H183.533C189.979 211 195.204 216.225 195.204 222.67V290.33C195.204 296.775 200.429 302 206.874 302H222.061H242.204" stroke="#292524"/>
<path d="M148.204 211H168.346H183.533C189.979 211 195.204 216.225 195.204 222.67V379.33C195.204 385.775 200.429 391 206.874 391H222.061H242.204" stroke="#292524"/>
<line x1="187" y1="211.5" x2="242" y2="211.5" stroke="#292524"/>
</svg>
