<svg width="404" height="103" viewBox="0 0 404 103" fill="none" xmlns="http://www.w3.org/2000/svg">
<path fill-rule="evenodd" clip-rule="evenodd" d="M29.1665 33.3332C29.1665 32.2281 29.6055 31.1683 30.3869 30.3869C31.1683 29.6055 32.2281 29.1665 33.3332 29.1665C33.8857 29.1665 34.4156 29.386 34.8063 29.7767C35.197 30.1674 35.4165 30.6973 35.4165 31.2498C35.4165 31.8024 35.197 32.3323 34.8063 32.723C34.4156 33.1137 33.8857 33.3332 33.3332 33.3332C33.3332 33.8857 33.1137 34.4156 32.723 34.8063C32.3323 35.197 31.8024 35.4165 31.2498 35.4165C30.6973 35.4165 30.1674 35.197 29.7767 34.8063C29.386 34.4156 29.1665 33.8857 29.1665 33.3332ZM39.5832 31.2498C39.5832 30.6973 39.8027 30.1674 40.1934 29.7767C40.5841 29.386 41.114 29.1665 41.6665 29.1665H45.8332C46.3857 29.1665 46.9156 29.386 47.3063 29.7767C47.697 30.1674 47.9165 30.6973 47.9165 31.2498C47.9165 31.8024 47.697 32.3323 47.3063 32.723C46.9156 33.1137 46.3857 33.3332 45.8332 33.3332H41.6665C41.114 33.3332 40.5841 33.1137 40.1934 32.723C39.8027 32.3323 39.5832 31.8024 39.5832 31.2498ZM52.0832 31.2498C52.0832 30.6973 52.3027 30.1674 52.6934 29.7767C53.0841 29.386 53.614 29.1665 54.1665 29.1665H58.3332C58.8857 29.1665 59.4156 29.386 59.8063 29.7767C60.197 30.1674 60.4165 30.6973 60.4165 31.2498C60.4165 31.8024 60.197 32.3323 59.8063 32.723C59.4156 33.1137 58.8857 33.3332 58.3332 33.3332H54.1665C53.614 33.3332 53.0841 33.1137 52.6934 32.723C52.3027 32.3323 52.0832 31.8024 52.0832 31.2498ZM64.5832 31.2498C64.5832 30.6973 64.8027 30.1674 65.1934 29.7767C65.5841 29.386 66.114 29.1665 66.6665 29.1665C67.7716 29.1665 68.8314 29.6055 69.6128 30.3869C70.3942 31.1683 70.8332 32.2281 70.8332 33.3332C70.8332 33.8857 70.6137 34.4156 70.223 34.8063C69.8323 35.197 69.3024 35.4165 68.7498 35.4165C68.1973 35.4165 67.6674 35.197 67.2767 34.8063C66.886 34.4156 66.6665 33.8857 66.6665 33.3332C66.114 33.3332 65.5841 33.1137 65.1934 32.723C64.8027 32.3323 64.5832 31.8024 64.5832 31.2498ZM31.2498 39.5832C31.8024 39.5832 32.3323 39.8027 32.723 40.1934C33.1137 40.5841 33.3332 41.114 33.3332 41.6665V45.8332C33.3332 46.3857 33.1137 46.9156 32.723 47.3063C32.3323 47.697 31.8024 47.9165 31.2498 47.9165C30.6973 47.9165 30.1674 47.697 29.7767 47.3063C29.386 46.9156 29.1665 46.3857 29.1665 45.8332V41.6665C29.1665 41.114 29.386 40.5841 29.7767 40.1934C30.1674 39.8027 30.6973 39.5832 31.2498 39.5832ZM68.7498 39.5832C69.3024 39.5832 69.8323 39.8027 70.223 40.1934C70.6137 40.5841 70.8332 41.114 70.8332 41.6665V45.8332C70.8332 46.3857 70.6137 46.9156 70.223 47.3063C69.8323 47.697 69.3024 47.9165 68.7498 47.9165C68.1973 47.9165 67.6674 47.697 67.2767 47.3063C66.886 46.9156 66.6665 46.3857 66.6665 45.8332V41.6665C66.6665 41.114 66.886 40.5841 67.2767 40.1934C67.6674 39.8027 68.1973 39.5832 68.7498 39.5832ZM31.2498 52.0832C31.8024 52.0832 32.3323 52.3027 32.723 52.6934C33.1137 53.0841 33.3332 53.614 33.3332 54.1665V58.3332C33.3332 58.8857 33.1137 59.4156 32.723 59.8063C32.3323 60.197 31.8024 60.4165 31.2498 60.4165C30.6973 60.4165 30.1674 60.197 29.7767 59.8063C29.386 59.4156 29.1665 58.8857 29.1665 58.3332V54.1665C29.1665 53.614 29.386 53.0841 29.7767 52.6934C30.1674 52.3027 30.6973 52.0832 31.2498 52.0832ZM68.7498 52.0832C69.3024 52.0832 69.8323 52.3027 70.223 52.6934C70.6137 53.0841 70.8332 53.614 70.8332 54.1665V58.3332C70.8332 58.8857 70.6137 59.4156 70.223 59.8063C69.8323 60.197 69.3024 60.4165 68.7498 60.4165C68.1973 60.4165 67.6674 60.197 67.2767 59.8063C66.886 59.4156 66.6665 58.8857 66.6665 58.3332V54.1665C66.6665 53.614 66.886 53.0841 67.2767 52.6934C67.6674 52.3027 68.1973 52.0832 68.7498 52.0832ZM31.2498 64.5832C31.8024 64.5832 32.3323 64.8027 32.723 65.1934C33.1137 65.5841 33.3332 66.114 33.3332 66.6665C33.8857 66.6665 34.4156 66.886 34.8063 67.2767C35.197 67.6674 35.4165 68.1973 35.4165 68.7498C35.4165 69.3024 35.197 69.8323 34.8063 70.223C34.4156 70.6137 33.8857 70.8332 33.3332 70.8332C32.2281 70.8332 31.1683 70.3942 30.3869 69.6128C29.6055 68.8314 29.1665 67.7716 29.1665 66.6665C29.1665 66.114 29.386 65.5841 29.7767 65.1934C30.1674 64.8027 30.6973 64.5832 31.2498 64.5832ZM68.7498 64.5832C69.3024 64.5832 69.8323 64.8027 70.223 65.1934C70.6137 65.5841 70.8332 66.114 70.8332 66.6665C70.8332 67.7716 70.3942 68.8314 69.6128 69.6128C68.8314 70.3942 67.7716 70.8332 66.6665 70.8332C66.114 70.8332 65.5841 70.6137 65.1934 70.223C64.8027 69.8323 64.5832 69.3024 64.5832 68.7498C64.5832 68.1973 64.8027 67.6674 65.1934 67.2767C65.5841 66.886 66.114 66.6665 66.6665 66.6665C66.6665 66.114 66.886 65.5841 67.2767 65.1934C67.6674 64.8027 68.1973 64.5832 68.7498 64.5832ZM39.5832 68.7498C39.5832 68.1973 39.8027 67.6674 40.1934 67.2767C40.5841 66.886 41.114 66.6665 41.6665 66.6665H45.8332C46.3857 66.6665 46.9156 66.886 47.3063 67.2767C47.697 67.6674 47.9165 68.1973 47.9165 68.7498C47.9165 69.3024 47.697 69.8323 47.3063 70.223C46.9156 70.6137 46.3857 70.8332 45.8332 70.8332H41.6665C41.114 70.8332 40.5841 70.6137 40.1934 70.223C39.8027 69.8323 39.5832 69.3024 39.5832 68.7498ZM52.0832 68.7498C52.0832 68.1973 52.3027 67.6674 52.6934 67.2767C53.0841 66.886 53.614 66.6665 54.1665 66.6665H58.3332C58.8857 66.6665 59.4156 66.886 59.8063 67.2767C60.197 67.6674 60.4165 68.1973 60.4165 68.7498C60.4165 69.3024 60.197 69.8323 59.8063 70.223C59.4156 70.6137 58.8857 70.8332 58.3332 70.8332H54.1665C53.614 70.8332 53.0841 70.6137 52.6934 70.223C52.3027 69.8323 52.0832 69.3024 52.0832 68.7498Z" fill="#292524"/>
<path d="M40.4375 94.5C40.3516 94.237 40.2383 94.0013 40.0977 93.793C39.9596 93.582 39.7943 93.4023 39.6016 93.2539C39.4115 93.1055 39.1953 92.9922 38.9531 92.9141C38.7109 92.8359 38.4453 92.7969 38.1562 92.7969C37.6823 92.7969 37.2513 92.9193 36.8633 93.1641C36.4753 93.4089 36.1667 93.7695 35.9375 94.2461C35.7083 94.7227 35.5938 95.3073 35.5938 96C35.5938 96.6927 35.7096 97.2773 35.9414 97.7539C36.1732 98.2305 36.487 98.5911 36.8828 98.8359C37.2786 99.0807 37.724 99.2031 38.2188 99.2031C38.6771 99.2031 39.0807 99.1055 39.4297 98.9102C39.7813 98.7122 40.0547 98.4336 40.25 98.0742C40.4479 97.7122 40.5469 97.2865 40.5469 96.7969L40.8438 96.8594H38.4375V96H41.4844V96.8594C41.4844 97.5182 41.3438 98.0911 41.0625 98.5781C40.7839 99.0651 40.3984 99.4427 39.9062 99.7109C39.4167 99.9766 38.8542 100.109 38.2188 100.109C37.5104 100.109 36.888 99.9427 36.3516 99.6094C35.8177 99.276 35.401 98.8021 35.1016 98.1875C34.8047 97.5729 34.6563 96.8437 34.6563 96C34.6563 95.3672 34.7409 94.7982 34.9102 94.293C35.082 93.7852 35.3242 93.3529 35.6367 92.9961C35.9492 92.6393 36.319 92.3659 36.7461 92.1758C37.1732 91.9857 37.6432 91.8906 38.1562 91.8906C38.5781 91.8906 38.9714 91.9544 39.3359 92.082C39.7031 92.207 40.0299 92.3854 40.3164 92.6172C40.6055 92.8464 40.8464 93.1211 41.0391 93.4414C41.2318 93.7591 41.3646 94.112 41.4375 94.5H40.4375ZM43.0736 100V94H43.9642V94.9062H44.0267C44.1361 94.6094 44.334 94.3685 44.6204 94.1836C44.9069 93.9987 45.2298 93.9062 45.5892 93.9062C45.6569 93.9062 45.7415 93.9076 45.8431 93.9102C45.9446 93.9128 46.0215 93.9167 46.0736 93.9219V94.8594C46.0423 94.8516 45.9707 94.8398 45.8587 94.8242C45.7493 94.806 45.6335 94.7969 45.5111 94.7969C45.2194 94.7969 44.959 94.8581 44.7298 94.9805C44.5032 95.1003 44.3236 95.2669 44.1907 95.4805C44.0605 95.6914 43.9954 95.9323 43.9954 96.2031V100H43.0736ZM49.4762 100.125C48.9345 100.125 48.4593 99.9961 48.0504 99.7383C47.6442 99.4805 47.3265 99.1198 47.0973 98.6562C46.8707 98.1927 46.7575 97.651 46.7575 97.0312C46.7575 96.4062 46.8707 95.8607 47.0973 95.3945C47.3265 94.9284 47.6442 94.5664 48.0504 94.3086C48.4593 94.0508 48.9345 93.9219 49.4762 93.9219C50.0179 93.9219 50.4918 94.0508 50.8981 94.3086C51.3069 94.5664 51.6246 94.9284 51.8512 95.3945C52.0804 95.8607 52.195 96.4062 52.195 97.0312C52.195 97.651 52.0804 98.1927 51.8512 98.6562C51.6246 99.1198 51.3069 99.4805 50.8981 99.7383C50.4918 99.9961 50.0179 100.125 49.4762 100.125ZM49.4762 99.2969C49.8877 99.2969 50.2262 99.1914 50.4918 98.9805C50.7575 98.7695 50.9541 98.4922 51.0817 98.1484C51.2093 97.8047 51.2731 97.4323 51.2731 97.0312C51.2731 96.6302 51.2093 96.2565 51.0817 95.9102C50.9541 95.5638 50.7575 95.2839 50.4918 95.0703C50.2262 94.8568 49.8877 94.75 49.4762 94.75C49.0648 94.75 48.7262 94.8568 48.4606 95.0703C48.195 95.2839 47.9983 95.5638 47.8707 95.9102C47.7431 96.2565 47.6793 96.6302 47.6793 97.0312C47.6793 97.4323 47.7431 97.8047 47.8707 98.1484C47.9983 98.4922 48.195 98.7695 48.4606 98.9805C48.7262 99.1914 49.0648 99.2969 49.4762 99.2969ZM57.4384 97.5469V94H58.3603V100H57.4384V98.9844H57.3759C57.2353 99.2891 57.0166 99.5482 56.7197 99.7617C56.4228 99.9727 56.0478 100.078 55.5947 100.078C55.2197 100.078 54.8864 99.9961 54.5947 99.832C54.303 99.6654 54.0739 99.4154 53.9072 99.082C53.7405 98.7461 53.6572 98.3229 53.6572 97.8125V94H54.5791V97.75C54.5791 98.1875 54.7015 98.5365 54.9463 98.7969C55.1936 99.0573 55.5088 99.1875 55.8916 99.1875C56.1207 99.1875 56.3538 99.1289 56.5908 99.0117C56.8304 98.8945 57.0309 98.7148 57.1923 98.4727C57.3564 98.2305 57.4384 97.9219 57.4384 97.5469ZM60.1038 102.25V94H60.9944V94.9531H61.1038C61.1715 94.849 61.2652 94.7161 61.385 94.5547C61.5074 94.3906 61.6819 94.2448 61.9085 94.1172C62.1376 93.987 62.4475 93.9219 62.8382 93.9219C63.3434 93.9219 63.7887 94.0482 64.1741 94.3008C64.5595 94.5534 64.8603 94.9115 65.0764 95.375C65.2926 95.8385 65.4007 96.3854 65.4007 97.0156C65.4007 97.651 65.2926 98.2018 65.0764 98.668C64.8603 99.1315 64.5608 99.4909 64.178 99.7461C63.7952 99.9987 63.3538 100.125 62.8538 100.125C62.4684 100.125 62.1598 100.061 61.928 99.9336C61.6962 99.8034 61.5179 99.6562 61.3929 99.4922C61.2679 99.3255 61.1715 99.1875 61.1038 99.0781H61.0257V102.25H60.1038ZM61.01 97C61.01 97.4531 61.0764 97.8529 61.2093 98.1992C61.3421 98.543 61.5361 98.8125 61.7913 99.0078C62.0465 99.2005 62.359 99.2969 62.7288 99.2969C63.1142 99.2969 63.4358 99.1953 63.6936 98.9922C63.954 98.7865 64.1494 98.5104 64.2796 98.1641C64.4124 97.8151 64.4788 97.4271 64.4788 97C64.4788 96.5781 64.4137 96.1979 64.2835 95.8594C64.1559 95.5182 63.9619 95.2487 63.7014 95.0508C63.4436 94.8503 63.1194 94.75 62.7288 94.75C62.3538 94.75 62.0387 94.8451 61.7835 95.0352C61.5283 95.2227 61.3356 95.4857 61.2054 95.8242C61.0751 96.1602 61.01 96.5521 61.01 97Z" fill="#292524"/>
<path fill-rule="evenodd" clip-rule="evenodd" d="M184.583 29.1665C185.136 29.1665 185.666 29.386 186.056 29.7767C186.447 30.1674 186.667 30.6973 186.667 31.2498V37.4998H203.333V31.2498C203.333 30.6973 203.553 30.1674 203.943 29.7767C204.334 29.386 204.864 29.1665 205.417 29.1665C205.969 29.1665 206.499 29.386 206.89 29.7767C207.28 30.1674 207.5 30.6973 207.5 31.2498V37.4998H213.75C214.302 37.4998 214.832 37.7193 215.223 38.11C215.614 38.5007 215.833 39.0306 215.833 39.5832C215.833 40.1357 215.614 40.6656 215.223 41.0563C214.832 41.447 214.302 41.6665 213.75 41.6665H207.5V58.3332H213.75C214.302 58.3332 214.832 58.5527 215.223 58.9434C215.614 59.3341 215.833 59.864 215.833 60.4165C215.833 60.969 215.614 61.4989 215.223 61.8896C214.832 62.2803 214.302 62.4998 213.75 62.4998H207.5V68.7498C207.5 69.3024 207.28 69.8323 206.89 70.223C206.499 70.6137 205.969 70.8332 205.417 70.8332C204.864 70.8332 204.334 70.6137 203.943 70.223C203.553 69.8323 203.333 69.3024 203.333 68.7498V62.4998H186.667V68.7498C186.667 69.3024 186.447 69.8323 186.056 70.223C185.666 70.6137 185.136 70.8332 184.583 70.8332C184.031 70.8332 183.501 70.6137 183.11 70.223C182.719 69.8323 182.5 69.3024 182.5 68.7498V62.4998H176.25C175.697 62.4998 175.167 62.2803 174.777 61.8896C174.386 61.4989 174.167 60.969 174.167 60.4165C174.167 59.864 174.386 59.3341 174.777 58.9434C175.167 58.5527 175.697 58.3332 176.25 58.3332H182.5V41.6665H176.25C175.697 41.6665 175.167 41.447 174.777 41.0563C174.386 40.6656 174.167 40.1357 174.167 39.5832C174.167 39.0306 174.386 38.5007 174.777 38.11C175.167 37.7193 175.697 37.4998 176.25 37.4998H182.5V31.2498C182.5 30.6973 182.719 30.1674 183.11 29.7767C183.501 29.386 184.031 29.1665 184.583 29.1665ZM203.333 58.3332V41.6665H186.667V58.3332H203.333Z" fill="#292524"/>
<path d="M179.469 100V92H184.266V92.8594H180.438V95.5625H183.906V96.4219H180.438V100H179.469ZM185.79 100V94H186.681V94.9062H186.743C186.853 94.6094 187.051 94.3685 187.337 94.1836C187.624 93.9987 187.947 93.9062 188.306 93.9062C188.374 93.9062 188.458 93.9076 188.56 93.9102C188.661 93.9128 188.738 93.9167 188.79 93.9219V94.8594C188.759 94.8516 188.687 94.8398 188.576 94.8242C188.466 94.806 188.35 94.7969 188.228 94.7969C187.936 94.7969 187.676 94.8581 187.447 94.9805C187.22 95.1003 187.04 95.2669 186.908 95.4805C186.777 95.6914 186.712 95.9323 186.712 96.2031V100H185.79ZM191.704 100.141C191.324 100.141 190.978 100.069 190.669 99.9258C190.359 99.7799 190.113 99.5703 189.93 99.2969C189.748 99.0208 189.657 98.6875 189.657 98.2969C189.657 97.9531 189.725 97.6745 189.86 97.4609C189.995 97.2448 190.176 97.0755 190.403 96.9531C190.63 96.8307 190.88 96.7396 191.153 96.6797C191.429 96.6172 191.706 96.5677 191.985 96.5313C192.35 96.4844 192.645 96.4492 192.872 96.4258C193.101 96.3997 193.268 96.3568 193.372 96.2969C193.478 96.237 193.532 96.1328 193.532 95.9844V95.9531C193.532 95.5677 193.426 95.2682 193.215 95.0547C193.007 94.8411 192.691 94.7344 192.266 94.7344C191.826 94.7344 191.481 94.8307 191.231 95.0234C190.981 95.2161 190.805 95.4219 190.704 95.6406L189.829 95.3281C189.985 94.9635 190.193 94.6797 190.454 94.4766C190.717 94.2708 191.003 94.1276 191.313 94.0469C191.626 93.9635 191.933 93.9219 192.235 93.9219C192.428 93.9219 192.649 93.9453 192.899 93.9922C193.152 94.0365 193.395 94.1289 193.63 94.2695C193.867 94.4102 194.063 94.6224 194.219 94.9062C194.376 95.1901 194.454 95.5703 194.454 96.0469V100H193.532V99.1875H193.485C193.422 99.3177 193.318 99.457 193.172 99.6055C193.027 99.7539 192.833 99.8802 192.59 99.9844C192.348 100.089 192.053 100.141 191.704 100.141ZM191.844 99.3125C192.209 99.3125 192.516 99.2409 192.766 99.0977C193.019 98.9544 193.209 98.7695 193.337 98.543C193.467 98.3164 193.532 98.0781 193.532 97.8281V96.9844C193.493 97.0312 193.407 97.0742 193.274 97.1133C193.144 97.1497 192.993 97.1823 192.821 97.2109C192.652 97.237 192.486 97.2604 192.325 97.2812C192.166 97.2995 192.037 97.3151 191.938 97.3281C191.699 97.3594 191.475 97.4102 191.266 97.4805C191.061 97.5482 190.894 97.651 190.766 97.7891C190.641 97.9245 190.579 98.1094 190.579 98.3437C190.579 98.6641 190.697 98.9062 190.934 99.0703C191.174 99.2318 191.477 99.3125 191.844 99.3125ZM196.191 100V94H197.082V94.9375H197.16C197.285 94.6172 197.487 94.3685 197.766 94.1914C198.044 94.0117 198.379 93.9219 198.769 93.9219C199.165 93.9219 199.495 94.0117 199.758 94.1914C200.023 94.3685 200.23 94.6172 200.379 94.9375H200.441C200.595 94.6276 200.825 94.3815 201.133 94.1992C201.44 94.0143 201.809 93.9219 202.238 93.9219C202.775 93.9219 203.214 94.0898 203.555 94.4258C203.896 94.7591 204.066 95.2786 204.066 95.9844V100H203.144V95.9844C203.144 95.5417 203.023 95.2253 202.781 95.0352C202.539 94.8451 202.254 94.75 201.926 94.75C201.504 94.75 201.177 94.8776 200.945 95.1328C200.714 95.3854 200.598 95.7057 200.598 96.0937V100H199.66V95.8906C199.66 95.5495 199.549 95.2747 199.328 95.0664C199.107 94.8555 198.822 94.75 198.473 94.75C198.233 94.75 198.009 94.8138 197.801 94.9414C197.595 95.069 197.428 95.2461 197.301 95.4727C197.176 95.6966 197.113 95.9557 197.113 96.25V100H196.191ZM208.323 100.125C207.744 100.125 207.246 99.9974 206.826 99.7422C206.41 99.4844 206.088 99.125 205.862 98.6641C205.638 98.2005 205.526 97.6615 205.526 97.0469C205.526 96.4323 205.638 95.8906 205.862 95.4219C206.088 94.9505 206.403 94.5833 206.807 94.3203C207.213 94.0547 207.687 93.9219 208.229 93.9219C208.541 93.9219 208.85 93.974 209.155 94.0781C209.459 94.1823 209.737 94.3516 209.987 94.5859C210.237 94.8177 210.436 95.125 210.584 95.5078C210.733 95.8906 210.807 96.362 210.807 96.9219V97.3125H206.182V96.5156H209.869C209.869 96.1771 209.802 95.875 209.666 95.6094C209.533 95.3437 209.343 95.1341 209.096 94.9805C208.851 94.8268 208.562 94.75 208.229 94.75C207.862 94.75 207.544 94.8411 207.276 95.0234C207.01 95.2031 206.806 95.4375 206.662 95.7266C206.519 96.0156 206.448 96.3255 206.448 96.6562V97.1875C206.448 97.6406 206.526 98.0247 206.682 98.3398C206.841 98.6523 207.061 98.8906 207.342 99.0547C207.623 99.2161 207.95 99.2969 208.323 99.2969C208.565 99.2969 208.783 99.263 208.979 99.1953C209.177 99.125 209.347 99.0208 209.491 98.8828C209.634 98.7422 209.744 98.5677 209.823 98.3594L210.713 98.6094C210.619 98.9115 210.462 99.1771 210.241 99.4062C210.019 99.6328 209.746 99.8099 209.42 99.9375C209.095 100.063 208.729 100.125 208.323 100.125Z" fill="#292524"/>
<path fill-rule="evenodd" clip-rule="evenodd" d="M328.888 38.8883H334.444V61.1116H328.888V38.8883ZM326.11 38.8883C326.11 38.1515 326.403 37.4449 326.924 36.924C327.445 36.403 328.152 36.1104 328.888 36.1104H334.444C335.181 36.1104 335.887 36.403 336.408 36.924C336.929 37.4449 337.222 38.1515 337.222 38.8883V61.1116C337.222 61.8484 336.929 62.5549 336.408 63.0759C335.887 63.5968 335.181 63.8895 334.444 63.8895H328.888C328.152 63.8895 327.445 63.5968 326.924 63.0759C326.403 62.5549 326.11 61.8484 326.11 61.1116V38.8883ZM345.556 44.4441H351.112V55.5558H345.556V44.4441ZM342.778 44.4441C342.778 43.7074 343.071 43.0008 343.591 42.4798C344.112 41.9589 344.819 41.6662 345.556 41.6662H351.112C351.848 41.6662 352.555 41.9589 353.076 42.4798C353.597 43.0008 353.89 43.7074 353.89 44.4441V55.5558C353.89 56.2925 353.597 56.9991 353.076 57.5201C352.555 58.041 351.848 58.3337 351.112 58.3337H345.556C344.819 58.3337 344.112 58.041 343.591 57.5201C343.071 56.9991 342.778 56.2925 342.778 55.5558V44.4441Z" fill="#292524"/>
<path d="M277.969 100V92H282.766V92.8594H278.938V95.5625H282.406V96.4219H278.938V100H277.969ZM284.29 100V94H285.181V94.9062H285.243C285.353 94.6094 285.551 94.3685 285.837 94.1836C286.124 93.9987 286.447 93.9062 286.806 93.9062C286.874 93.9062 286.958 93.9076 287.06 93.9102C287.161 93.9128 287.238 93.9167 287.29 93.9219V94.8594C287.259 94.8516 287.187 94.8398 287.076 94.8242C286.966 94.806 286.85 94.7969 286.728 94.7969C286.436 94.7969 286.176 94.8581 285.947 94.9805C285.72 95.1003 285.54 95.2669 285.408 95.4805C285.277 95.6914 285.212 95.9323 285.212 96.2031V100H284.29ZM290.204 100.141C289.824 100.141 289.478 100.069 289.169 99.9258C288.859 99.7799 288.613 99.5703 288.43 99.2969C288.248 99.0208 288.157 98.6875 288.157 98.2969C288.157 97.9531 288.225 97.6745 288.36 97.4609C288.495 97.2448 288.676 97.0755 288.903 96.9531C289.13 96.8307 289.38 96.7396 289.653 96.6797C289.929 96.6172 290.206 96.5677 290.485 96.5313C290.85 96.4844 291.145 96.4492 291.372 96.4258C291.601 96.3997 291.768 96.3568 291.872 96.2969C291.978 96.237 292.032 96.1328 292.032 95.9844V95.9531C292.032 95.5677 291.926 95.2682 291.715 95.0547C291.507 94.8411 291.191 94.7344 290.766 94.7344C290.326 94.7344 289.981 94.8307 289.731 95.0234C289.481 95.2161 289.305 95.4219 289.204 95.6406L288.329 95.3281C288.485 94.9635 288.693 94.6797 288.954 94.4766C289.217 94.2708 289.503 94.1276 289.813 94.0469C290.126 93.9635 290.433 93.9219 290.735 93.9219C290.928 93.9219 291.149 93.9453 291.399 93.9922C291.652 94.0365 291.895 94.1289 292.13 94.2695C292.367 94.4102 292.563 94.6224 292.719 94.9062C292.876 95.1901 292.954 95.5703 292.954 96.0469V100H292.032V99.1875H291.985C291.922 99.3177 291.818 99.457 291.672 99.6055C291.527 99.7539 291.333 99.8802 291.09 99.9844C290.848 100.089 290.553 100.141 290.204 100.141ZM290.344 99.3125C290.709 99.3125 291.016 99.2409 291.266 99.0977C291.519 98.9544 291.709 98.7695 291.837 98.543C291.967 98.3164 292.032 98.0781 292.032 97.8281V96.9844C291.993 97.0312 291.907 97.0742 291.774 97.1133C291.644 97.1497 291.493 97.1823 291.321 97.2109C291.152 97.237 290.986 97.2604 290.825 97.2812C290.666 97.2995 290.537 97.3151 290.438 97.3281C290.199 97.3594 289.975 97.4102 289.766 97.4805C289.561 97.5482 289.394 97.651 289.266 97.7891C289.141 97.9245 289.079 98.1094 289.079 98.3437C289.079 98.6641 289.197 98.9062 289.434 99.0703C289.674 99.2318 289.977 99.3125 290.344 99.3125ZM294.691 100V94H295.582V94.9375H295.66C295.785 94.6172 295.987 94.3685 296.266 94.1914C296.544 94.0117 296.879 93.9219 297.269 93.9219C297.665 93.9219 297.995 94.0117 298.258 94.1914C298.523 94.3685 298.73 94.6172 298.879 94.9375H298.941C299.095 94.6276 299.325 94.3815 299.633 94.1992C299.94 94.0143 300.309 93.9219 300.738 93.9219C301.275 93.9219 301.714 94.0898 302.055 94.4258C302.396 94.7591 302.566 95.2786 302.566 95.9844V100H301.644V95.9844C301.644 95.5417 301.523 95.2253 301.281 95.0352C301.039 94.8451 300.754 94.75 300.426 94.75C300.004 94.75 299.677 94.8776 299.445 95.1328C299.214 95.3854 299.098 95.7057 299.098 96.0937V100H298.16V95.8906C298.16 95.5495 298.049 95.2747 297.828 95.0664C297.607 94.8555 297.322 94.75 296.973 94.75C296.733 94.75 296.509 94.8138 296.301 94.9414C296.095 95.069 295.928 95.2461 295.801 95.4727C295.676 95.6966 295.613 95.9557 295.613 96.25V100H294.691ZM306.823 100.125C306.244 100.125 305.746 99.9974 305.326 99.7422C304.91 99.4844 304.588 99.125 304.362 98.6641C304.138 98.2005 304.026 97.6615 304.026 97.0469C304.026 96.4323 304.138 95.8906 304.362 95.4219C304.588 94.9505 304.903 94.5833 305.307 94.3203C305.713 94.0547 306.187 93.9219 306.729 93.9219C307.041 93.9219 307.35 93.974 307.655 94.0781C307.959 94.1823 308.237 94.3516 308.487 94.5859C308.737 94.8177 308.936 95.125 309.084 95.5078C309.233 95.8906 309.307 96.362 309.307 96.9219V97.3125H304.682V96.5156H308.369C308.369 96.1771 308.302 95.875 308.166 95.6094C308.033 95.3437 307.843 95.1341 307.596 94.9805C307.351 94.8268 307.062 94.75 306.729 94.75C306.362 94.75 306.044 94.8411 305.776 95.0234C305.51 95.2031 305.306 95.4375 305.162 95.7266C305.019 96.0156 304.948 96.3255 304.948 96.6562V97.1875C304.948 97.6406 305.026 98.0247 305.182 98.3398C305.341 98.6523 305.561 98.8906 305.842 99.0547C306.123 99.2161 306.45 99.2969 306.823 99.2969C307.065 99.2969 307.283 99.263 307.479 99.1953C307.677 99.125 307.847 99.0208 307.991 98.8828C308.134 98.7422 308.244 98.5677 308.323 98.3594L309.213 98.6094C309.119 98.9115 308.962 99.1771 308.741 99.4062C308.519 99.6328 308.246 99.8099 307.92 99.9375C307.595 100.063 307.229 100.125 306.823 100.125ZM315.272 100L313.444 94H314.413L315.71 98.5938H315.772L317.054 94H318.038L319.304 98.5781H319.366L320.663 94H321.632L319.804 100H318.897L317.585 95.3906H317.491L316.179 100H315.272ZM322.906 100V94H323.827V100H322.906ZM323.374 93C323.195 93 323.04 92.9388 322.909 92.8164C322.782 92.694 322.718 92.5469 322.718 92.375C322.718 92.2031 322.782 92.056 322.909 91.9336C323.04 91.8112 323.195 91.75 323.374 91.75C323.554 91.75 323.708 91.8112 323.835 91.9336C323.965 92.056 324.031 92.2031 324.031 92.375C324.031 92.5469 323.965 92.694 323.835 92.8164C323.708 92.9388 323.554 93 323.374 93ZM328.18 94V94.7812H325.071V94H328.18ZM325.977 92.5625H326.899V98.2812C326.899 98.5417 326.937 98.737 327.012 98.8672C327.09 98.9948 327.189 99.0807 327.309 99.125C327.432 99.1667 327.56 99.1875 327.696 99.1875C327.797 99.1875 327.881 99.1823 327.946 99.1719C328.011 99.1589 328.063 99.1484 328.102 99.1406L328.29 99.9687C328.227 99.9922 328.14 100.016 328.028 100.039C327.916 100.065 327.774 100.078 327.602 100.078C327.342 100.078 327.086 100.022 326.836 99.9102C326.589 99.7982 326.383 99.6276 326.219 99.3984C326.058 99.1693 325.977 98.8802 325.977 98.5312V92.5625ZM330.673 96.3906V100H329.751V92H330.673V94.9375H330.751C330.891 94.6276 331.102 94.3815 331.384 94.1992C331.668 94.0143 332.045 93.9219 332.516 93.9219C332.925 93.9219 333.283 94.0039 333.591 94.168C333.898 94.3294 334.136 94.5781 334.306 94.9141C334.477 95.2474 334.563 95.6719 334.563 96.1875V100H333.641V96.25C333.641 95.7734 333.518 95.4049 333.27 95.1445C333.026 94.8815 332.686 94.75 332.251 94.75C331.949 94.75 331.678 94.8138 331.438 94.9414C331.201 95.069 331.014 95.2552 330.876 95.5C330.74 95.7448 330.673 96.0417 330.673 96.3906ZM339.907 100H338.891L341.829 92H342.829L345.766 100H344.751L342.36 93.2656H342.297L339.907 100ZM340.282 96.875H344.376V97.7344H340.282V96.875ZM350.723 97.5469V94H351.645V100H350.723V98.9844H350.661C350.52 99.2891 350.302 99.5482 350.005 99.7617C349.708 99.9727 349.333 100.078 348.88 100.078C348.505 100.078 348.171 99.9961 347.88 99.832C347.588 99.6654 347.359 99.4154 347.192 99.082C347.026 98.7461 346.942 98.3229 346.942 97.8125V94H347.864V97.75C347.864 98.1875 347.987 98.5365 348.231 98.7969C348.479 99.0573 348.794 99.1875 349.177 99.1875C349.406 99.1875 349.639 99.1289 349.876 99.0117C350.115 98.8945 350.316 98.7148 350.477 98.4727C350.641 98.2305 350.723 97.9219 350.723 97.5469ZM355.998 94V94.7812H352.889V94H355.998ZM353.795 92.5625H354.717V98.2812C354.717 98.5417 354.755 98.737 354.83 98.8672C354.908 98.9948 355.007 99.0807 355.127 99.125C355.25 99.1667 355.378 99.1875 355.514 99.1875C355.615 99.1875 355.699 99.1823 355.764 99.1719C355.829 99.1589 355.881 99.1484 355.92 99.1406L356.108 99.9687C356.045 99.9922 355.958 100.016 355.846 100.039C355.734 100.065 355.592 100.078 355.42 100.078C355.16 100.078 354.904 100.022 354.654 99.9102C354.407 99.7982 354.201 99.6276 354.037 99.3984C353.876 99.1693 353.795 98.8802 353.795 98.5312V92.5625ZM359.813 100.125C359.271 100.125 358.796 99.9961 358.387 99.7383C357.981 99.4805 357.663 99.1198 357.434 98.6562C357.207 98.1927 357.094 97.651 357.094 97.0312C357.094 96.4062 357.207 95.8607 357.434 95.3945C357.663 94.9284 357.981 94.5664 358.387 94.3086C358.796 94.0508 359.271 93.9219 359.813 93.9219C360.355 93.9219 360.829 94.0508 361.235 94.3086C361.644 94.5664 361.961 94.9284 362.188 95.3945C362.417 95.8607 362.532 96.4062 362.532 97.0312C362.532 97.651 362.417 98.1927 362.188 98.6562C361.961 99.1198 361.644 99.4805 361.235 99.7383C360.829 99.9961 360.355 100.125 359.813 100.125ZM359.813 99.2969C360.224 99.2969 360.563 99.1914 360.829 98.9805C361.094 98.7695 361.291 98.4922 361.418 98.1484C361.546 97.8047 361.61 97.4323 361.61 97.0312C361.61 96.6302 361.546 96.2565 361.418 95.9102C361.291 95.5638 361.094 95.2839 360.829 95.0703C360.563 94.8568 360.224 94.75 359.813 94.75C359.402 94.75 359.063 94.8568 358.797 95.0703C358.532 95.2839 358.335 95.5638 358.207 95.9102C358.08 96.2565 358.016 96.6302 358.016 97.0312C358.016 97.4323 358.08 97.8047 358.207 98.1484C358.335 98.4922 358.532 98.7695 358.797 98.9805C359.063 99.1914 359.402 99.2969 359.813 99.2969ZM367.431 96.1406V97H363.931V96.1406H367.431ZM369.234 100V92H370.202V99.1406H373.921V100H369.234ZM377.117 100.141C376.736 100.141 376.391 100.069 376.081 99.9258C375.772 99.7799 375.525 99.5703 375.343 99.2969C375.161 99.0208 375.07 98.6875 375.07 98.2969C375.07 97.9531 375.137 97.6745 375.273 97.4609C375.408 97.2448 375.589 97.0755 375.816 96.9531C376.042 96.8307 376.292 96.7396 376.566 96.6797C376.842 96.6172 377.119 96.5677 377.398 96.5313C377.762 96.4844 378.058 96.4492 378.285 96.4258C378.514 96.3997 378.68 96.3568 378.785 96.2969C378.891 96.237 378.945 96.1328 378.945 95.9844V95.9531C378.945 95.5677 378.839 95.2682 378.628 95.0547C378.42 94.8411 378.104 94.7344 377.679 94.7344C377.239 94.7344 376.894 94.8307 376.644 95.0234C376.394 95.2161 376.218 95.4219 376.117 95.6406L375.242 95.3281C375.398 94.9635 375.606 94.6797 375.867 94.4766C376.13 94.2708 376.416 94.1276 376.726 94.0469C377.039 93.9635 377.346 93.9219 377.648 93.9219C377.841 93.9219 378.062 93.9453 378.312 93.9922C378.565 94.0365 378.808 94.1289 379.042 94.2695C379.279 94.4102 379.476 94.6224 379.632 94.9062C379.789 95.1901 379.867 95.5703 379.867 96.0469V100H378.945V99.1875H378.898C378.835 99.3177 378.731 99.457 378.585 99.6055C378.44 99.7539 378.246 99.8802 378.003 99.9844C377.761 100.089 377.466 100.141 377.117 100.141ZM377.257 99.3125C377.622 99.3125 377.929 99.2409 378.179 99.0977C378.432 98.9544 378.622 98.7695 378.749 98.543C378.88 98.3164 378.945 98.0781 378.945 97.8281V96.9844C378.906 97.0312 378.82 97.0742 378.687 97.1133C378.557 97.1497 378.406 97.1823 378.234 97.2109C378.065 97.237 377.899 97.2604 377.738 97.2812C377.579 97.2995 377.45 97.3151 377.351 97.3281C377.111 97.3594 376.887 97.4102 376.679 97.4805C376.473 97.5482 376.307 97.651 376.179 97.7891C376.054 97.9245 375.992 98.1094 375.992 98.3437C375.992 98.6641 376.11 98.9062 376.347 99.0703C376.587 99.2318 376.89 99.3125 377.257 99.3125ZM381.983 102.25C381.827 102.25 381.688 102.237 381.565 102.211C381.443 102.188 381.358 102.164 381.311 102.141L381.546 101.328C381.77 101.385 381.968 101.406 382.139 101.391C382.311 101.375 382.464 101.298 382.596 101.16C382.732 101.025 382.856 100.805 382.968 100.5L383.139 100.031L380.921 94H381.921L383.577 98.7812H383.639L385.296 94H386.296L383.749 100.875C383.634 101.185 383.492 101.441 383.323 101.645C383.154 101.85 382.957 102.003 382.733 102.102C382.512 102.201 382.262 102.25 381.983 102.25ZM389.79 100.125C389.248 100.125 388.773 99.9961 388.364 99.7383C387.958 99.4805 387.64 99.1198 387.411 98.6562C387.185 98.1927 387.071 97.651 387.071 97.0312C387.071 96.4062 387.185 95.8607 387.411 95.3945C387.64 94.9284 387.958 94.5664 388.364 94.3086C388.773 94.0508 389.248 93.9219 389.79 93.9219C390.332 93.9219 390.806 94.0508 391.212 94.3086C391.621 94.5664 391.939 94.9284 392.165 95.3945C392.394 95.8607 392.509 96.4062 392.509 97.0312C392.509 97.651 392.394 98.1927 392.165 98.6562C391.939 99.1198 391.621 99.4805 391.212 99.7383C390.806 99.9961 390.332 100.125 389.79 100.125ZM389.79 99.2969C390.202 99.2969 390.54 99.1914 390.806 98.9805C391.071 98.7695 391.268 98.4922 391.396 98.1484C391.523 97.8047 391.587 97.4323 391.587 97.0312C391.587 96.6302 391.523 96.2565 391.396 95.9102C391.268 95.5638 391.071 95.2839 390.806 95.0703C390.54 94.8568 390.202 94.75 389.79 94.75C389.379 94.75 389.04 94.8568 388.774 95.0703C388.509 95.2839 388.312 95.5638 388.185 95.9102C388.057 96.2565 387.993 96.6302 387.993 97.0312C387.993 97.4323 388.057 97.8047 388.185 98.1484C388.312 98.4922 388.509 98.7695 388.774 98.9805C389.04 99.1914 389.379 99.2969 389.79 99.2969ZM397.752 97.5469V94H398.674V100H397.752V98.9844H397.69C397.549 99.2891 397.33 99.5482 397.034 99.7617C396.737 99.9727 396.362 100.078 395.909 100.078C395.534 100.078 395.2 99.9961 394.909 99.832C394.617 99.6654 394.388 99.4154 394.221 99.082C394.054 98.7461 393.971 98.3229 393.971 97.8125V94H394.893V97.75C394.893 98.1875 395.015 98.5365 395.26 98.7969C395.508 99.0573 395.823 99.1875 396.205 99.1875C396.435 99.1875 396.668 99.1289 396.905 99.0117C397.144 98.8945 397.345 98.7148 397.506 98.4727C397.67 98.2305 397.752 97.9219 397.752 97.5469ZM403.027 94V94.7812H399.918V94H403.027ZM400.824 92.5625H401.746V98.2812C401.746 98.5417 401.784 98.737 401.859 98.8672C401.937 98.9948 402.036 99.0807 402.156 99.125C402.278 99.1667 402.407 99.1875 402.543 99.1875C402.644 99.1875 402.728 99.1823 402.793 99.1719C402.858 99.1589 402.91 99.1484 402.949 99.1406L403.136 99.9687C403.074 99.9922 402.987 100.016 402.875 100.039C402.763 100.065 402.621 100.078 402.449 100.078C402.189 100.078 401.933 100.022 401.683 99.9102C401.436 99.7982 401.23 99.6276 401.066 99.3984C400.905 99.1693 400.824 98.8802 400.824 98.5312V92.5625Z" fill="#292524"/>
</svg>
