<svg width="653" height="48" viewBox="0 0 653 48" fill="none" xmlns="http://www.w3.org/2000/svg">
<rect x="127.5" y="0.5" width="165" height="47" rx="7.5" fill="#1C1917"/>
<rect x="127.5" y="0.5" width="165" height="47" rx="7.5" stroke="#44403C"/>
<path fill-rule="evenodd" clip-rule="evenodd" d="M157 29.5C157 29.776 157.224 30 157.5 30H158C158.265 30 158.52 30.1054 158.707 30.2929C158.895 30.4804 159 30.7348 159 31C159 31.2652 158.895 31.5196 158.707 31.7071C158.52 31.8946 158.265 32 158 32H157.5C156.12 32 155 30.88 155 29.5V16.5C155 15.12 156.12 14 157.5 14H158C158.265 14 158.52 14.1054 158.707 14.2929C158.895 14.4804 159 14.7348 159 15C159 15.2652 158.895 15.5196 158.707 15.7071C158.52 15.8946 158.265 16 158 16H157.5C157.367 16 157.24 16.0527 157.146 16.1464C157.053 16.2402 157 16.3674 157 16.5V29.5ZM141 31C141 30.7348 141.105 30.4804 141.293 30.2929C141.48 30.1054 141.735 30 142 30H142.5C142.633 30 142.76 29.9473 142.854 29.8536C142.947 29.7598 143 29.6326 143 29.5V16.5C143 16.3674 142.947 16.2402 142.854 16.1464C142.76 16.0527 142.633 16 142.5 16H142C141.735 16 141.48 15.8946 141.293 15.7071C141.105 15.5196 141 15.2652 141 15C141 14.7348 141.105 14.4804 141.293 14.2929C141.48 14.1054 141.735 14 142 14H142.5C143.88 14 145 15.12 145 16.5V29.5C145 30.88 143.88 32 142.5 32H142C141.735 32 141.48 31.8946 141.293 31.7071C141.105 31.5196 141 31.2652 141 31ZM149 27C149 27.2652 149.105 27.5196 149.293 27.7071C149.48 27.8946 149.735 28 150 28C150.265 28 150.52 27.8946 150.707 27.7071C150.895 27.5196 151 27.2652 151 27V19C151 18.7348 150.895 18.4804 150.707 18.2929C150.52 18.1054 150.265 18 150 18C149.735 18 149.48 18.1054 149.293 18.2929C149.105 18.4804 149 18.7348 149 19V27Z" fill="#F5F5F4"/>
<path fill-rule="evenodd" clip-rule="evenodd" d="M193.5 30C193.224 30 193 30.224 193 30.5V31C193 31.2652 192.895 31.5196 192.707 31.7071C192.52 31.8946 192.265 32 192 32C191.735 32 191.48 31.8946 191.293 31.7071C191.105 31.5196 191 31.2652 191 31V30.5C191 29.12 192.12 28 193.5 28H206.5C207.88 28 209 29.12 209 30.5V31C209 31.2652 208.895 31.5196 208.707 31.7071C208.52 31.8946 208.265 32 208 32C207.735 32 207.48 31.8946 207.293 31.7071C207.105 31.5196 207 31.2652 207 31V30.5C207 30.3674 206.947 30.2402 206.854 30.1464C206.76 30.0527 206.633 30 206.5 30H193.5ZM192 14C192.265 14 192.52 14.1054 192.707 14.2929C192.895 14.4804 193 14.7348 193 15V15.5C193 15.6326 193.053 15.7598 193.146 15.8536C193.24 15.9473 193.367 16 193.5 16H206.5C206.633 16 206.76 15.9473 206.854 15.8536C206.947 15.7598 207 15.6326 207 15.5V15C207 14.7348 207.105 14.4804 207.293 14.2929C207.48 14.1054 207.735 14 208 14C208.265 14 208.52 14.1054 208.707 14.2929C208.895 14.4804 209 14.7348 209 15V15.5C209 16.88 207.88 18 206.5 18H193.5C192.12 18 191 16.88 191 15.5V15C191 14.7348 191.105 14.4804 191.293 14.2929C191.48 14.1054 191.735 14 192 14ZM196 22C195.735 22 195.48 22.1054 195.293 22.2929C195.105 22.4804 195 22.7348 195 23C195 23.2652 195.105 23.5196 195.293 23.7071C195.48 23.8946 195.735 24 196 24H204C204.265 24 204.52 23.8946 204.707 23.7071C204.895 23.5196 205 23.2652 205 23C205 22.7348 204.895 22.4804 204.707 22.2929C204.52 22.1054 204.265 22 204 22H196Z" fill="#F5F5F4"/>
<path d="M249.045 21C248.858 20.4261 248.611 19.9119 248.304 19.4574C248.003 18.9972 247.642 18.6051 247.222 18.2812C246.807 17.9574 246.335 17.7102 245.807 17.5398C245.278 17.3693 244.699 17.2841 244.068 17.2841C243.034 17.2841 242.094 17.5511 241.247 18.0852C240.401 18.6193 239.727 19.4062 239.227 20.446C238.727 21.4858 238.477 22.7614 238.477 24.2727C238.477 25.7841 238.73 27.0597 239.236 28.0994C239.741 29.1392 240.426 29.9261 241.29 30.4602C242.153 30.9943 243.125 31.2614 244.205 31.2614C245.205 31.2614 246.085 31.0483 246.847 30.6222C247.614 30.1903 248.21 29.5824 248.636 28.7983C249.068 28.0085 249.284 27.0795 249.284 26.0114L249.932 26.1477H244.682V24.2727H251.33V26.1477C251.33 27.5852 251.023 28.8352 250.409 29.8977C249.801 30.9602 248.96 31.7841 247.886 32.3693C246.818 32.9489 245.591 33.2386 244.205 33.2386C242.659 33.2386 241.301 32.875 240.131 32.1477C238.966 31.4205 238.057 30.3864 237.403 29.0455C236.756 27.7045 236.432 26.1136 236.432 24.2727C236.432 22.892 236.616 21.6506 236.986 20.5483C237.361 19.4403 237.889 18.4972 238.571 17.7188C239.253 16.9403 240.06 16.3438 240.991 15.929C241.923 15.5142 242.949 15.3068 244.068 15.3068C244.989 15.3068 245.847 15.446 246.642 15.7244C247.443 15.9972 248.156 16.3864 248.781 16.892C249.412 17.392 249.938 17.9915 250.358 18.6903C250.778 19.3835 251.068 20.1534 251.227 21H249.045ZM258.529 33.3068C257.7 33.3068 256.947 33.1506 256.271 32.8381C255.594 32.5199 255.058 32.0625 254.66 31.4659C254.262 30.8636 254.063 30.1364 254.063 29.2841C254.063 28.5341 254.211 27.9261 254.506 27.4602C254.802 26.9886 255.197 26.6193 255.691 26.3523C256.185 26.0852 256.731 25.8864 257.327 25.7557C257.93 25.6193 258.535 25.5114 259.143 25.4318C259.938 25.3295 260.583 25.2528 261.077 25.2017C261.577 25.1449 261.941 25.0511 262.168 24.9205C262.401 24.7898 262.518 24.5625 262.518 24.2386V24.1705C262.518 23.3295 262.288 22.6761 261.827 22.2102C261.373 21.7443 260.683 21.5114 259.756 21.5114C258.796 21.5114 258.043 21.7216 257.498 22.142C256.952 22.5625 256.569 23.0114 256.347 23.4886L254.438 22.8068C254.779 22.0114 255.234 21.392 255.802 20.9489C256.376 20.5 257.001 20.1875 257.677 20.0114C258.359 19.8295 259.029 19.7386 259.688 19.7386C260.109 19.7386 260.592 19.7898 261.137 19.892C261.688 19.9886 262.219 20.1903 262.731 20.4972C263.248 20.804 263.677 21.267 264.018 21.8864C264.359 22.5057 264.529 23.3352 264.529 24.375V33H262.518V31.2273H262.415C262.279 31.5114 262.052 31.8153 261.734 32.1392C261.415 32.4631 260.992 32.7386 260.464 32.9659C259.935 33.1932 259.29 33.3068 258.529 33.3068ZM258.836 31.5C259.631 31.5 260.302 31.3438 260.847 31.0312C261.398 30.7188 261.813 30.3153 262.092 29.821C262.376 29.3267 262.518 28.8068 262.518 28.2614V26.4205C262.433 26.5227 262.245 26.6165 261.955 26.7017C261.671 26.7812 261.342 26.8523 260.967 26.9148C260.597 26.9716 260.237 27.0227 259.884 27.0682C259.538 27.108 259.256 27.142 259.04 27.1705C258.518 27.2386 258.029 27.3494 257.575 27.5028C257.126 27.6506 256.762 27.875 256.484 28.1761C256.211 28.4716 256.075 28.875 256.075 29.3864C256.075 30.0852 256.333 30.6136 256.85 30.9716C257.373 31.3239 258.035 31.5 258.836 31.5ZM268.2 37.9091V19.9091H270.143V21.9886H270.382C270.53 21.7614 270.734 21.4716 270.996 21.1193C271.263 20.7614 271.643 20.4432 272.138 20.1648C272.638 19.8807 273.314 19.7386 274.166 19.7386C275.268 19.7386 276.24 20.0142 277.081 20.5653C277.922 21.1165 278.578 21.8977 279.05 22.9091C279.521 23.9205 279.757 25.1136 279.757 26.4886C279.757 27.875 279.521 29.0767 279.05 30.0938C278.578 31.1051 277.925 31.8892 277.089 32.446C276.254 32.9972 275.291 33.2727 274.2 33.2727C273.359 33.2727 272.686 33.1335 272.18 32.8551C271.675 32.571 271.286 32.25 271.013 31.892C270.74 31.5284 270.53 31.2273 270.382 30.9886H270.212V37.9091H268.2ZM270.178 26.4545C270.178 27.4432 270.322 28.3153 270.612 29.071C270.902 29.821 271.325 30.4091 271.882 30.8352C272.439 31.2557 273.121 31.4659 273.928 31.4659C274.768 31.4659 275.47 31.2443 276.033 30.8011C276.601 30.3523 277.027 29.75 277.311 28.9943C277.601 28.233 277.746 27.3864 277.746 26.4545C277.746 25.5341 277.604 24.7045 277.32 23.9659C277.041 23.2216 276.618 22.6335 276.05 22.2017C275.487 21.7642 274.78 21.5455 273.928 21.5455C273.109 21.5455 272.422 21.7528 271.865 22.1676C271.308 22.5767 270.888 23.1506 270.604 23.8892C270.32 24.6222 270.178 25.4773 270.178 26.4545Z" fill="#F5F5F4"/>
<rect x="313.5" y="0.5" width="212" height="47" rx="7.5" fill="#1C1917"/>
<rect x="313.5" y="0.5" width="212" height="47" rx="7.5" stroke="#44403C"/>
<path fill-rule="evenodd" clip-rule="evenodd" d="M329 15C329 14.7348 328.895 14.4804 328.707 14.2929C328.52 14.1054 328.265 14 328 14C327.735 14 327.48 14.1054 327.293 14.2929C327.105 14.4804 327 14.7348 327 15V33C327 33.2652 327.105 33.5196 327.293 33.7071C327.48 33.8946 327.735 34 328 34C328.265 34 328.52 33.8946 328.707 33.7071C328.895 33.5196 329 33.2652 329 33V15ZM346 14C346.265 14 346.52 14.1054 346.707 14.2929C346.895 14.4804 347 14.7348 347 15V33C347 33.2652 346.895 33.5196 346.707 33.7071C346.52 33.8946 346.265 34 346 34C345.735 34 345.48 33.8946 345.293 33.7071C345.105 33.5196 345 33.2652 345 33V15C345 14.7348 345.105 14.4804 345.293 14.2929C345.48 14.1054 345.735 14 346 14ZM339 26V22H335V26H339ZM341 22C341 21.4696 340.789 20.9609 340.414 20.5858C340.039 20.2107 339.53 20 339 20H335C334.47 20 333.961 20.2107 333.586 20.5858C333.211 20.9609 333 21.4696 333 22V26C333 26.5304 333.211 27.0391 333.586 27.4142C333.961 27.7893 334.47 28 335 28H339C339.53 28 340.039 27.7893 340.414 27.4142C340.789 27.0391 341 26.5304 341 26V22Z" fill="#F5F5F4"/>
<path fill-rule="evenodd" clip-rule="evenodd" d="M394 16C394.265 16 394.52 15.8946 394.707 15.7071C394.895 15.5196 395 15.2652 395 15C395 14.7348 394.895 14.4804 394.707 14.2929C394.52 14.1054 394.265 14 394 14H376C375.735 14 375.48 14.1054 375.293 14.2929C375.105 14.4804 375 14.7348 375 15C375 15.2652 375.105 15.5196 375.293 15.7071C375.48 15.8946 375.735 16 376 16H394ZM395 33C395 33.2652 394.895 33.5196 394.707 33.7071C394.52 33.8946 394.265 34 394 34H376C375.735 34 375.48 33.8946 375.293 33.7071C375.105 33.5196 375 33.2652 375 33C375 32.7348 375.105 32.4804 375.293 32.2929C375.48 32.1054 375.735 32 376 32H394C394.265 32 394.52 32.1054 394.707 32.2929C394.895 32.4804 395 32.7348 395 33ZM383 26H387V22H383V26ZM387 28C387.53 28 388.039 27.7893 388.414 27.4142C388.789 27.0391 389 26.5304 389 26V22C389 21.4696 388.789 20.9609 388.414 20.5858C388.039 20.2107 387.53 20 387 20H383C382.47 20 381.961 20.2107 381.586 20.5858C381.211 20.9609 381 21.4696 381 22V26C381 26.5304 381.211 27.0391 381.586 27.4142C381.961 27.7893 382.47 28 383 28H387Z" fill="#F5F5F4"/>
<path d="M423.114 33V15.5455H429.011C430.381 15.5455 431.5 15.7926 432.369 16.2869C433.244 16.7756 433.892 17.4375 434.312 18.2727C434.733 19.108 434.943 20.0398 434.943 21.0682C434.943 22.0966 434.733 23.0312 434.312 23.8722C433.898 24.7131 433.256 25.3835 432.386 25.8835C431.517 26.3778 430.403 26.625 429.045 26.625H424.818V24.75H428.977C429.915 24.75 430.668 24.5881 431.236 24.2642C431.804 23.9403 432.216 23.5028 432.472 22.9517C432.733 22.3949 432.864 21.767 432.864 21.0682C432.864 20.3693 432.733 19.7443 432.472 19.1932C432.216 18.642 431.801 18.2102 431.227 17.8977C430.653 17.5795 429.892 17.4205 428.943 17.4205H425.227V33H423.114ZM441.928 33.3068C441.098 33.3068 440.345 33.1506 439.669 32.8381C438.993 32.5199 438.456 32.0625 438.058 31.4659C437.661 30.8636 437.462 30.1364 437.462 29.2841C437.462 28.5341 437.609 27.9261 437.905 27.4602C438.2 26.9886 438.595 26.6193 439.089 26.3523C439.584 26.0852 440.129 25.8864 440.726 25.7557C441.328 25.6193 441.933 25.5114 442.541 25.4318C443.337 25.3295 443.982 25.2528 444.476 25.2017C444.976 25.1449 445.339 25.0511 445.567 24.9205C445.8 24.7898 445.916 24.5625 445.916 24.2386V24.1705C445.916 23.3295 445.686 22.6761 445.226 22.2102C444.771 21.7443 444.081 21.5114 443.155 21.5114C442.195 21.5114 441.442 21.7216 440.896 22.142C440.351 22.5625 439.967 23.0114 439.746 23.4886L437.837 22.8068C438.178 22.0114 438.632 21.392 439.2 20.9489C439.774 20.5 440.399 20.1875 441.075 20.0114C441.757 19.8295 442.428 19.7386 443.087 19.7386C443.507 19.7386 443.99 19.7898 444.536 19.892C445.087 19.9886 445.618 20.1903 446.129 20.4972C446.646 20.804 447.075 21.267 447.416 21.8864C447.757 22.5057 447.928 23.3352 447.928 24.375V33H445.916V31.2273H445.814C445.678 31.5114 445.45 31.8153 445.132 32.1392C444.814 32.4631 444.391 32.7386 443.862 32.9659C443.334 33.1932 442.689 33.3068 441.928 33.3068ZM442.234 31.5C443.03 31.5 443.7 31.3438 444.246 31.0312C444.797 30.7188 445.212 30.3153 445.49 29.821C445.774 29.3267 445.916 28.8068 445.916 28.2614V26.4205C445.831 26.5227 445.643 26.6165 445.354 26.7017C445.07 26.7812 444.74 26.8523 444.365 26.9148C443.996 26.9716 443.635 27.0227 443.283 27.0682C442.936 27.108 442.655 27.142 442.439 27.1705C441.916 27.2386 441.428 27.3494 440.973 27.5028C440.524 27.6506 440.161 27.875 439.882 28.1761C439.609 28.4716 439.473 28.875 439.473 29.3864C439.473 30.0852 439.732 30.6136 440.249 30.9716C440.771 31.3239 441.433 31.5 442.234 31.5ZM456.542 33.2727C455.451 33.2727 454.488 32.9972 453.653 32.446C452.817 31.8892 452.164 31.1051 451.692 30.0938C451.221 29.0767 450.985 27.875 450.985 26.4886C450.985 25.1136 451.221 23.9205 451.692 22.9091C452.164 21.8977 452.82 21.1165 453.661 20.5653C454.502 20.0142 455.474 19.7386 456.576 19.7386C457.428 19.7386 458.102 19.8807 458.596 20.1648C459.096 20.4432 459.477 20.7614 459.738 21.1193C460.005 21.4716 460.212 21.7614 460.36 21.9886H460.531V15.5455H462.542V33H460.599V30.9886H460.36C460.212 31.2273 460.002 31.5284 459.729 31.892C459.457 32.25 459.067 32.571 458.562 32.8551C458.056 33.1335 457.383 33.2727 456.542 33.2727ZM456.815 31.4659C457.621 31.4659 458.303 31.2557 458.86 30.8352C459.417 30.4091 459.84 29.821 460.13 29.071C460.42 28.3153 460.565 27.4432 460.565 26.4545C460.565 25.4773 460.423 24.6222 460.138 23.8892C459.854 23.1506 459.434 22.5767 458.877 22.1676C458.32 21.7528 457.633 21.5455 456.815 21.5455C455.962 21.5455 455.252 21.7642 454.684 22.2017C454.121 22.6335 453.698 23.2216 453.414 23.9659C453.136 24.7045 452.996 25.5341 452.996 26.4545C452.996 27.3864 453.138 28.233 453.423 28.9943C453.712 29.75 454.138 30.3523 454.701 30.8011C455.269 31.2443 455.974 31.4659 456.815 31.4659ZM471.448 33.2727C470.357 33.2727 469.394 32.9972 468.559 32.446C467.724 31.8892 467.07 31.1051 466.599 30.0938C466.127 29.0767 465.891 27.875 465.891 26.4886C465.891 25.1136 466.127 23.9205 466.599 22.9091C467.07 21.8977 467.727 21.1165 468.567 20.5653C469.408 20.0142 470.38 19.7386 471.482 19.7386C472.335 19.7386 473.008 19.8807 473.502 20.1648C474.002 20.4432 474.383 20.7614 474.644 21.1193C474.911 21.4716 475.119 21.7614 475.266 21.9886H475.437V15.5455H477.448V33H475.505V30.9886H475.266C475.119 31.2273 474.908 31.5284 474.636 31.892C474.363 32.25 473.974 32.571 473.468 32.8551C472.962 33.1335 472.289 33.2727 471.448 33.2727ZM471.721 31.4659C472.528 31.4659 473.21 31.2557 473.766 30.8352C474.323 30.4091 474.746 29.821 475.036 29.071C475.326 28.3153 475.471 27.4432 475.471 26.4545C475.471 25.4773 475.329 24.6222 475.045 23.8892C474.761 23.1506 474.34 22.5767 473.783 22.1676C473.227 21.7528 472.539 21.5455 471.721 21.5455C470.869 21.5455 470.158 21.7642 469.59 22.2017C469.028 22.6335 468.604 23.2216 468.32 23.9659C468.042 24.7045 467.903 25.5341 467.903 26.4545C467.903 27.3864 468.045 28.233 468.329 28.9943C468.619 29.75 469.045 30.3523 469.607 30.8011C470.175 31.2443 470.88 31.4659 471.721 31.4659ZM481.411 33V19.9091H483.423V33H481.411ZM482.434 17.7273C482.042 17.7273 481.704 17.5938 481.42 17.3267C481.141 17.0597 481.002 16.7386 481.002 16.3636C481.002 15.9886 481.141 15.6676 481.42 15.4006C481.704 15.1335 482.042 15 482.434 15C482.826 15 483.161 15.1335 483.44 15.4006C483.724 15.6676 483.866 15.9886 483.866 16.3636C483.866 16.7386 483.724 17.0597 483.44 17.3267C483.161 17.5938 482.826 17.7273 482.434 17.7273ZM489.118 25.125V33H487.107V19.9091H489.05V21.9545H489.22C489.527 21.2898 489.993 20.7557 490.618 20.3523C491.243 19.9432 492.05 19.7386 493.038 19.7386C493.925 19.7386 494.7 19.9205 495.365 20.2841C496.03 20.642 496.547 21.1875 496.916 21.9205C497.286 22.6477 497.47 23.5682 497.47 24.6818V33H495.459V24.8182C495.459 23.7898 495.192 22.9886 494.658 22.4148C494.124 21.8352 493.391 21.5455 492.459 21.5455C491.817 21.5455 491.243 21.6847 490.737 21.9631C490.237 22.2415 489.842 22.6477 489.553 23.1818C489.263 23.7159 489.118 24.3636 489.118 25.125ZM506.43 38.1818C505.458 38.1818 504.623 38.0568 503.924 37.8068C503.225 37.5625 502.643 37.2386 502.177 36.8352C501.717 36.4375 501.35 36.0114 501.077 35.5568L502.68 34.4318C502.862 34.6705 503.092 34.9432 503.37 35.25C503.648 35.5625 504.029 35.8324 504.512 36.0597C505.001 36.2926 505.64 36.4091 506.43 36.4091C507.487 36.4091 508.359 36.1534 509.046 35.642C509.734 35.1307 510.077 34.3295 510.077 33.2386V30.5795H509.907C509.759 30.8182 509.549 31.1136 509.276 31.4659C509.009 31.8125 508.623 32.1222 508.117 32.3949C507.617 32.6619 506.941 32.7955 506.089 32.7955C505.032 32.7955 504.083 32.5455 503.242 32.0455C502.407 31.5455 501.745 30.8182 501.256 29.8636C500.773 28.9091 500.532 27.75 500.532 26.3864C500.532 25.0455 500.768 23.8778 501.239 22.8835C501.711 21.8835 502.367 21.1108 503.208 20.5653C504.049 20.0142 505.021 19.7386 506.123 19.7386C506.975 19.7386 507.651 19.8807 508.151 20.1648C508.657 20.4432 509.043 20.7614 509.31 21.1193C509.583 21.4716 509.793 21.7614 509.941 21.9886H510.146V19.9091H512.089V33.375C512.089 34.5 511.833 35.4148 511.322 36.1193C510.816 36.8295 510.134 37.3494 509.276 37.679C508.424 38.0142 507.475 38.1818 506.43 38.1818ZM506.362 30.9886C507.168 30.9886 507.85 30.804 508.407 30.4347C508.964 30.0653 509.387 29.5341 509.677 28.8409C509.967 28.1477 510.112 27.3182 510.112 26.3523C510.112 25.4091 509.969 24.5767 509.685 23.8551C509.401 23.1335 508.981 22.5682 508.424 22.1591C507.867 21.75 507.18 21.5455 506.362 21.5455C505.509 21.5455 504.799 21.7614 504.231 22.1932C503.668 22.625 503.245 23.2045 502.961 23.9318C502.683 24.6591 502.543 25.4659 502.543 26.3523C502.543 27.2614 502.685 28.0653 502.969 28.7642C503.259 29.4574 503.685 30.0028 504.248 30.4006C504.816 30.7926 505.521 30.9886 506.362 30.9886Z" fill="#F5F5F4"/>
</svg>
