<svg width="653" height="48" viewBox="0 0 653 48" fill="none" xmlns="http://www.w3.org/2000/svg">
<rect x="0.5" y="0.5" width="162" height="47" rx="7.5" fill="#1C1917"/>
<rect x="0.5" y="0.5" width="162" height="47" rx="7.5" stroke="#44403C"/>
<path d="M23.306 26.016C24.0447 26.0917 24.7291 26.4388 25.2268 26.99C25.7244 27.5412 25.9999 28.2574 26 29V33L25.984 33.306C25.914 33.9926 25.6094 34.634 25.1216 35.1222C24.6338 35.6104 23.9925 35.9155 23.306 35.986L23 36H19L18.694 35.984C18.0074 35.914 17.366 35.6094 16.8778 35.1216C16.3896 34.6338 16.0845 33.9925 16.014 33.306L16 33V29C16.0001 28.2574 16.2756 27.5412 16.7732 26.99C17.2709 26.4388 17.9553 26.0917 18.694 26.016L19 26H23L23.306 26.016ZM19 28C18.7348 28 18.4804 28.1054 18.2929 28.2929C18.1054 28.4804 18 28.7348 18 29V33C18 33.2652 18.1054 33.5196 18.2929 33.7071C18.4804 33.8946 18.7348 34 19 34H23C23.2652 34 23.5196 33.8946 23.7071 33.7071C23.8946 33.5196 24 33.2652 24 33V29C24 28.7348 23.8946 28.4804 23.7071 28.2929C23.5196 28.1054 23.2652 28 23 28H19ZM33.306 16.016C34.0447 16.0917 34.7291 16.4388 35.2268 16.99C35.7244 17.5412 35.9999 18.2574 36 19V23L35.984 23.306C35.914 23.9926 35.6094 24.634 35.1216 25.1222C34.6338 25.6104 33.9925 25.9155 33.306 25.986L33 26H29L28.694 25.984C28.0074 25.914 27.366 25.6094 26.8778 25.1216C26.3896 24.6338 26.0845 23.9925 26.014 23.306L26 23V19C26.0001 18.2574 26.2756 17.5412 26.7732 16.99C27.2709 16.4388 27.9553 16.0917 28.694 16.016L29 16H33L33.306 16.016ZM29 18C28.7348 18 28.4804 18.1054 28.2929 18.2929C28.1054 18.4804 28 18.7348 28 19V23C28 23.2652 28.1054 23.5196 28.2929 23.7071C28.4804 23.8946 28.7348 24 29 24H33C33.2652 24 33.5196 23.8946 33.7071 23.7071C33.8946 23.5196 34 23.2652 34 23V19C34 18.7348 33.8946 18.4804 33.7071 18.2929C33.5196 18.1054 33.2652 18 33 18H29ZM19.306 12.016C20.0447 12.0917 20.7291 12.4388 21.2268 12.99C21.7244 13.5412 21.9999 14.2574 22 15V19L21.984 19.306C21.914 19.9926 21.6094 20.634 21.1216 21.1222C20.6338 21.6104 19.9925 21.9155 19.306 21.986L19 22H15L14.694 21.984C14.0074 21.914 13.366 21.6094 12.8778 21.1216C12.3896 20.6338 12.0845 19.9925 12.014 19.306L12 19V15C12.0001 14.2574 12.2756 13.5412 12.7732 12.99C13.2709 12.4388 13.9553 12.0917 14.694 12.016L15 12H19L19.306 12.016ZM15 14C14.7348 14 14.4804 14.1054 14.2929 14.2929C14.1054 14.4804 14 14.7348 14 15V19C14 19.2652 14.1054 19.5196 14.2929 19.7071C14.4804 19.8946 14.7348 20 15 20H19C19.2652 20 19.5196 19.8946 19.7071 19.7071C19.8946 19.5196 20 19.2652 20 19V15C20 14.7348 19.8946 14.4804 19.7071 14.2929C19.5196 14.1054 19.2652 14 19 14H15Z" fill="#F5F5F4"/>
<path d="M50.1136 33V15.5455H60.5795V17.4205H52.2273V23.3182H59.7955V25.1932H52.2273V33H50.1136ZM63.7862 33V19.9091H65.7294V21.8864H65.8658C66.1044 21.2386 66.5362 20.7131 67.1612 20.3097C67.7862 19.9062 68.4908 19.7045 69.2749 19.7045C69.4226 19.7045 69.6072 19.7074 69.8288 19.7131C70.0504 19.7187 70.218 19.7273 70.3317 19.7386V21.7841C70.2635 21.767 70.1072 21.7415 69.8629 21.7074C69.6243 21.6676 69.3714 21.6477 69.1044 21.6477C68.468 21.6477 67.8999 21.7812 67.3999 22.0483C66.9055 22.3097 66.5135 22.6733 66.2237 23.1392C65.9396 23.5994 65.7976 24.125 65.7976 24.7159V33H63.7862ZM77.8061 33.2727C76.5447 33.2727 75.4567 32.9943 74.5419 32.4375C73.6328 31.875 72.9311 31.0909 72.4368 30.0852C71.9482 29.0739 71.7038 27.8977 71.7038 26.5568C71.7038 25.2159 71.9482 24.0341 72.4368 23.0114C72.9311 21.983 73.6186 21.1818 74.4993 20.608C75.3857 20.0284 76.4197 19.7386 77.6016 19.7386C78.2834 19.7386 78.9567 19.8523 79.6214 20.0795C80.2862 20.3068 80.8913 20.6761 81.4368 21.1875C81.9822 21.6932 82.4169 22.3636 82.7408 23.1989C83.0646 24.0341 83.2266 25.0625 83.2266 26.2841V27.1364H73.1357V25.3977H81.1811C81.1811 24.6591 81.0334 24 80.7379 23.4205C80.4482 22.8409 80.0334 22.3835 79.4936 22.0483C78.9595 21.7131 78.3288 21.5455 77.6016 21.5455C76.8004 21.5455 76.1072 21.7443 75.522 22.142C74.9425 22.5341 74.4964 23.0455 74.1839 23.6761C73.8714 24.3068 73.7152 24.983 73.7152 25.7045V26.8636C73.7152 27.8523 73.8857 28.6903 74.2266 29.3778C74.5732 30.0597 75.0533 30.5795 75.6669 30.9375C76.2805 31.2898 76.9936 31.4659 77.8061 31.4659C78.3345 31.4659 78.8118 31.392 79.2379 31.2443C79.6697 31.0909 80.0419 30.8636 80.3544 30.5625C80.6669 30.2557 80.9084 29.875 81.0788 29.4205L83.022 29.9659C82.8175 30.625 82.4737 31.2045 81.9908 31.7045C81.5078 32.1989 80.9112 32.5852 80.201 32.8636C79.4908 33.1364 78.6925 33.2727 77.8061 33.2727ZM91.7749 33.2727C90.5135 33.2727 89.4254 32.9943 88.5107 32.4375C87.6016 31.875 86.8999 31.0909 86.4055 30.0852C85.9169 29.0739 85.6726 27.8977 85.6726 26.5568C85.6726 25.2159 85.9169 24.0341 86.4055 23.0114C86.8999 21.983 87.5874 21.1818 88.468 20.608C89.3544 20.0284 90.3885 19.7386 91.5703 19.7386C92.2521 19.7386 92.9254 19.8523 93.5902 20.0795C94.255 20.3068 94.8601 20.6761 95.4055 21.1875C95.951 21.6932 96.3857 22.3636 96.7095 23.1989C97.0334 24.0341 97.1953 25.0625 97.1953 26.2841V27.1364H87.1044V25.3977H95.1499C95.1499 24.6591 95.0021 24 94.7067 23.4205C94.4169 22.8409 94.0021 22.3835 93.4624 22.0483C92.9283 21.7131 92.2976 21.5455 91.5703 21.5455C90.7692 21.5455 90.076 21.7443 89.4908 22.142C88.9112 22.5341 88.4652 23.0455 88.1527 23.6761C87.8402 24.3068 87.6839 24.983 87.6839 25.7045V26.8636C87.6839 27.8523 87.8544 28.6903 88.1953 29.3778C88.5419 30.0597 89.022 30.5795 89.6357 30.9375C90.2493 31.2898 90.9624 31.4659 91.7749 31.4659C92.3033 31.4659 92.7805 31.392 93.2067 31.2443C93.6385 31.0909 94.0107 30.8636 94.3232 30.5625C94.6357 30.2557 94.8771 29.875 95.0476 29.4205L96.9908 29.9659C96.7862 30.625 96.4425 31.2045 95.9595 31.7045C95.4766 32.1989 94.88 32.5852 94.1697 32.8636C93.4595 33.1364 92.6612 33.2727 91.7749 33.2727ZM106.085 19.9091V21.6136H99.0277V19.9091H106.085ZM101.141 33V18.1023C101.141 17.3523 101.317 16.7273 101.67 16.2273C102.022 15.7273 102.479 15.3523 103.042 15.1023C103.604 14.8523 104.198 14.7273 104.823 14.7273C105.317 14.7273 105.721 14.767 106.033 14.8466C106.346 14.9261 106.579 15 106.732 15.0682L106.153 16.8068C106.05 16.7727 105.908 16.7301 105.727 16.679C105.55 16.6278 105.317 16.6023 105.028 16.6023C104.363 16.6023 103.883 16.7699 103.587 17.1051C103.298 17.4403 103.153 17.9318 103.153 18.5795V33H101.141ZM113.683 33.2727C112.501 33.2727 111.464 32.9915 110.572 32.429C109.685 31.8665 108.992 31.0795 108.492 30.0682C107.998 29.0568 107.751 27.875 107.751 26.5227C107.751 25.1591 107.998 23.9687 108.492 22.9517C108.992 21.9347 109.685 21.1449 110.572 20.5824C111.464 20.0199 112.501 19.7386 113.683 19.7386C114.864 19.7386 115.898 20.0199 116.785 20.5824C117.677 21.1449 118.37 21.9347 118.864 22.9517C119.364 23.9687 119.614 25.1591 119.614 26.5227C119.614 27.875 119.364 29.0568 118.864 30.0682C118.37 31.0795 117.677 31.8665 116.785 32.429C115.898 32.9915 114.864 33.2727 113.683 33.2727ZM113.683 31.4659C114.58 31.4659 115.319 31.2358 115.898 30.7756C116.478 30.3153 116.907 29.7102 117.185 28.9602C117.464 28.2102 117.603 27.3977 117.603 26.5227C117.603 25.6477 117.464 24.8324 117.185 24.0767C116.907 23.321 116.478 22.7102 115.898 22.2443C115.319 21.7784 114.58 21.5455 113.683 21.5455C112.785 21.5455 112.046 21.7784 111.467 22.2443C110.887 22.7102 110.458 23.321 110.18 24.0767C109.901 24.8324 109.762 25.6477 109.762 26.5227C109.762 27.3977 109.901 28.2102 110.18 28.9602C110.458 29.7102 110.887 30.3153 111.467 30.7756C112.046 31.2358 112.785 31.4659 113.683 31.4659ZM122.685 33V19.9091H124.628V21.8864H124.764C125.003 21.2386 125.435 20.7131 126.06 20.3097C126.685 19.9062 127.389 19.7045 128.173 19.7045C128.321 19.7045 128.506 19.7074 128.727 19.7131C128.949 19.7187 129.116 19.7273 129.23 19.7386V21.7841C129.162 21.767 129.006 21.7415 128.761 21.7074C128.523 21.6676 128.27 21.6477 128.003 21.6477C127.366 21.6477 126.798 21.7812 126.298 22.0483C125.804 22.3097 125.412 22.6733 125.122 23.1392C124.838 23.5994 124.696 24.125 124.696 24.7159V33H122.685ZM131.614 33V19.9091H133.558V21.9545H133.728C134.001 21.2557 134.441 20.7131 135.049 20.3267C135.657 19.9347 136.387 19.7386 137.239 19.7386C138.103 19.7386 138.822 19.9347 139.396 20.3267C139.975 20.7131 140.427 21.2557 140.751 21.9545H140.887C141.222 21.2784 141.725 20.7415 142.396 20.3438C143.066 19.9403 143.87 19.7386 144.808 19.7386C145.978 19.7386 146.935 20.1051 147.68 20.8381C148.424 21.5653 148.796 22.6989 148.796 24.2386V33H146.785V24.2386C146.785 23.2727 146.521 22.5824 145.992 22.1676C145.464 21.7528 144.842 21.5455 144.126 21.5455C143.205 21.5455 142.492 21.8239 141.987 22.3807C141.481 22.9318 141.228 23.6307 141.228 24.4773V33H139.183V24.0341C139.183 23.2898 138.941 22.6903 138.458 22.2358C137.975 21.7756 137.353 21.5455 136.592 21.5455C136.069 21.5455 135.58 21.6847 135.126 21.9631C134.677 22.2415 134.313 22.6278 134.035 23.1222C133.762 23.6108 133.626 24.1761 133.626 24.8182V33H131.614Z" fill="#F5F5F4"/>
<rect x="183.5" y="0.5" width="145" height="47" rx="7.5" fill="#1C1917"/>
<rect x="183.5" y="0.5" width="145" height="47" rx="7.5" stroke="#44403C"/>
<path d="M202.308 26.016C203.046 26.0922 203.73 26.4395 204.228 26.9906C204.725 27.5418 205 28.2577 205 29V33L204.984 33.306C204.914 33.9923 204.61 34.6335 204.122 35.1216C203.635 35.6098 202.994 35.9151 202.308 35.986L202 36H198L197.694 35.984C197.008 35.9136 196.367 35.6088 195.879 35.121C195.391 34.6332 195.086 33.9922 195.016 33.306L195 33V29C195 28.2574 195.276 27.5412 195.773 26.99C196.271 26.4388 196.955 26.0917 197.694 26.016L198 26H202L202.308 26.016ZM214 12C214.231 12 214.454 12.0796 214.633 12.2253C214.811 12.3711 214.934 12.5741 214.98 12.8L215 13V32.588L217.292 30.296C217.483 30.1245 217.732 30.0327 217.988 30.0394C218.245 30.0461 218.489 30.1508 218.67 30.332C218.851 30.5132 218.957 30.7571 218.964 31.0134C218.971 31.2698 218.879 31.5191 218.708 31.71L214.708 35.71C214.52 35.8975 214.266 36.0028 214.001 36.0028C213.736 36.0028 213.482 35.8975 213.294 35.71L209.294 31.71C209.112 31.5214 209.011 31.2688 209.013 31.0066C209.016 30.7444 209.121 30.4936 209.306 30.3082C209.492 30.1228 209.742 30.0176 210.005 30.0153C210.267 30.013 210.519 30.1138 210.708 30.296L213 32.588V13L213.02 12.8C213.066 12.5741 213.189 12.3711 213.367 12.2253C213.546 12.0796 213.769 12 214 12ZM198 28C197.735 28 197.48 28.1054 197.293 28.2929C197.105 28.4804 197 28.7348 197 29V33C197 33.2652 197.105 33.5196 197.293 33.7071C197.48 33.8946 197.735 34 198 34H202C202.265 34 202.52 33.8946 202.707 33.7071C202.895 33.5196 203 33.2652 203 33V29C203 28.7348 202.895 28.4804 202.707 28.2929C202.52 28.1054 202.265 28 202 28H198ZM202.308 12.016C203.046 12.0922 203.73 12.4395 204.228 12.9906C204.725 13.5418 205 14.2577 205 15V19L204.984 19.306C204.914 19.9923 204.61 20.6335 204.122 21.1216C203.635 21.6098 202.994 21.9151 202.308 21.986L202 22H198L197.694 21.984C197.008 21.9136 196.367 21.6088 195.879 21.121C195.391 20.6332 195.086 19.9922 195.016 19.306L195 19V15C195 14.2574 195.276 13.5412 195.773 12.99C196.271 12.4388 196.955 12.0917 197.694 12.016L198 12H202L202.308 12.016ZM198 14C197.735 14 197.48 14.1054 197.293 14.2929C197.105 14.4804 197 14.7348 197 15V19C197 19.2652 197.105 19.5196 197.293 19.7071C197.48 19.8946 197.735 20 198 20H202C202.265 20 202.52 19.8946 202.707 19.7071C202.895 19.5196 203 19.2652 203 19V15C203 14.7348 202.895 14.4804 202.707 14.2929C202.52 14.1054 202.265 14 202 14H198Z" fill="#F5F5F4"/>
<path d="M233.83 15.5455L239.011 30.2386H239.216L244.398 15.5455H246.614L240.205 33H238.023L231.614 15.5455H233.83ZM253.33 33.2727C252.068 33.2727 250.98 32.9943 250.065 32.4375C249.156 31.875 248.455 31.0909 247.96 30.0852C247.472 29.0739 247.227 27.8977 247.227 26.5568C247.227 25.2159 247.472 24.0341 247.96 23.0114C248.455 21.983 249.142 21.1818 250.023 20.608C250.909 20.0284 251.943 19.7386 253.125 19.7386C253.807 19.7386 254.48 19.8523 255.145 20.0795C255.81 20.3068 256.415 20.6761 256.96 21.1875C257.506 21.6932 257.94 22.3636 258.264 23.1989C258.588 24.0341 258.75 25.0625 258.75 26.2841V27.1364H248.659V25.3977H256.705C256.705 24.6591 256.557 24 256.261 23.4205C255.972 22.8409 255.557 22.3835 255.017 22.0483C254.483 21.7131 253.852 21.5455 253.125 21.5455C252.324 21.5455 251.631 21.7443 251.045 22.142C250.466 22.5341 250.02 23.0455 249.707 23.6761C249.395 24.3068 249.239 24.983 249.239 25.7045V26.8636C249.239 27.8523 249.409 28.6903 249.75 29.3778C250.097 30.0597 250.577 30.5795 251.19 30.9375C251.804 31.2898 252.517 31.4659 253.33 31.4659C253.858 31.4659 254.335 31.392 254.761 31.2443C255.193 31.0909 255.565 30.8636 255.878 30.5625C256.19 30.2557 256.432 29.875 256.602 29.4205L258.545 29.9659C258.341 30.625 257.997 31.2045 257.514 31.7045C257.031 32.1989 256.435 32.5852 255.724 32.8636C255.014 33.1364 254.216 33.2727 253.33 33.2727ZM261.81 33V19.9091H263.753V21.8864H263.889C264.128 21.2386 264.56 20.7131 265.185 20.3097C265.81 19.9062 266.514 19.7045 267.298 19.7045C267.446 19.7045 267.631 19.7074 267.852 19.7131C268.074 19.7187 268.241 19.7273 268.355 19.7386V21.7841C268.287 21.767 268.131 21.7415 267.886 21.7074C267.648 21.6676 267.395 21.6477 267.128 21.6477C266.491 21.6477 265.923 21.7812 265.423 22.0483C264.929 22.3097 264.537 22.6733 264.247 23.1392C263.963 23.5994 263.821 24.125 263.821 24.7159V33H261.81ZM277.253 19.9091V21.6136H270.469V19.9091H277.253ZM272.446 16.7727H274.457V29.25C274.457 29.8182 274.54 30.2443 274.705 30.5284C274.875 30.8068 275.091 30.9943 275.352 31.0909C275.619 31.1818 275.901 31.2273 276.196 31.2273C276.418 31.2273 276.599 31.2159 276.741 31.1932C276.884 31.1648 276.997 31.142 277.082 31.125L277.491 32.9318C277.355 32.983 277.165 33.0341 276.92 33.0852C276.676 33.142 276.366 33.1705 275.991 33.1705C275.423 33.1705 274.866 33.0483 274.321 32.804C273.781 32.5597 273.332 32.1875 272.974 31.6875C272.622 31.1875 272.446 30.5568 272.446 29.7955V16.7727ZM280.278 33V19.9091H282.29V33H280.278ZM281.301 17.7273C280.909 17.7273 280.571 17.5938 280.287 17.3267C280.009 17.0597 279.869 16.7386 279.869 16.3636C279.869 15.9886 280.009 15.6676 280.287 15.4006C280.571 15.1335 280.909 15 281.301 15C281.693 15 282.028 15.1335 282.307 15.4006C282.591 15.6676 282.733 15.9886 282.733 16.3636C282.733 16.7386 282.591 17.0597 282.307 17.3267C282.028 17.5938 281.693 17.7273 281.301 17.7273ZM291.292 33.2727C290.065 33.2727 289.008 32.983 288.121 32.4034C287.235 31.8239 286.553 31.0256 286.076 30.0085C285.599 28.9915 285.36 27.8295 285.36 26.5227C285.36 25.1932 285.604 24.0199 286.093 23.0028C286.587 21.9801 287.275 21.1818 288.156 20.608C289.042 20.0284 290.076 19.7386 291.258 19.7386C292.178 19.7386 293.008 19.9091 293.746 20.25C294.485 20.5909 295.09 21.0682 295.562 21.6818C296.033 22.2955 296.326 23.0114 296.44 23.8295H294.428C294.275 23.233 293.934 22.7045 293.406 22.2443C292.883 21.7784 292.178 21.5455 291.292 21.5455C290.508 21.5455 289.82 21.75 289.229 22.1591C288.644 22.5625 288.187 23.1335 287.857 23.8722C287.533 24.6051 287.371 25.4659 287.371 26.4545C287.371 27.4659 287.531 28.3466 287.849 29.0966C288.173 29.8466 288.627 30.429 289.212 30.8438C289.803 31.2585 290.496 31.4659 291.292 31.4659C291.815 31.4659 292.289 31.375 292.715 31.1932C293.141 31.0114 293.502 30.75 293.798 30.4091C294.093 30.0682 294.303 29.6591 294.428 29.1818H296.44C296.326 29.9545 296.045 30.6506 295.596 31.2699C295.153 31.8835 294.565 32.3722 293.832 32.7358C293.104 33.0938 292.258 33.2727 291.292 33.2727ZM303.232 33.3068C302.403 33.3068 301.65 33.1506 300.974 32.8381C300.298 32.5199 299.761 32.0625 299.363 31.4659C298.965 30.8636 298.766 30.1364 298.766 29.2841C298.766 28.5341 298.914 27.9261 299.21 27.4602C299.505 26.9886 299.9 26.6193 300.394 26.3523C300.888 26.0852 301.434 25.8864 302.031 25.7557C302.633 25.6193 303.238 25.5114 303.846 25.4318C304.641 25.3295 305.286 25.2528 305.781 25.2017C306.281 25.1449 306.644 25.0511 306.871 24.9205C307.104 24.7898 307.221 24.5625 307.221 24.2386V24.1705C307.221 23.3295 306.991 22.6761 306.531 22.2102C306.076 21.7443 305.386 21.5114 304.46 21.5114C303.499 21.5114 302.746 21.7216 302.201 22.142C301.656 22.5625 301.272 23.0114 301.05 23.4886L299.141 22.8068C299.482 22.0114 299.937 21.392 300.505 20.9489C301.079 20.5 301.704 20.1875 302.38 20.0114C303.062 19.8295 303.732 19.7386 304.391 19.7386C304.812 19.7386 305.295 19.7898 305.84 19.892C306.391 19.9886 306.923 20.1903 307.434 20.4972C307.951 20.804 308.38 21.267 308.721 21.8864C309.062 22.5057 309.232 23.3352 309.232 24.375V33H307.221V31.2273H307.119C306.982 31.5114 306.755 31.8153 306.437 32.1392C306.119 32.4631 305.695 32.7386 305.167 32.9659C304.638 33.1932 303.994 33.3068 303.232 33.3068ZM303.539 31.5C304.335 31.5 305.005 31.3438 305.55 31.0312C306.102 30.7188 306.516 30.3153 306.795 29.821C307.079 29.3267 307.221 28.8068 307.221 28.2614V26.4205C307.136 26.5227 306.948 26.6165 306.658 26.7017C306.374 26.7812 306.045 26.8523 305.67 26.9148C305.3 26.9716 304.94 27.0227 304.587 27.0682C304.241 27.108 303.96 27.142 303.744 27.1705C303.221 27.2386 302.732 27.3494 302.278 27.5028C301.829 27.6506 301.465 27.875 301.187 28.1761C300.914 28.4716 300.778 28.875 300.778 29.3864C300.778 30.0852 301.036 30.6136 301.553 30.9716C302.076 31.3239 302.738 31.5 303.539 31.5ZM314.915 15.5455V33H312.903V15.5455H314.915Z" fill="#F5F5F4"/>
<rect x="349.5" y="0.5" width="175" height="47" rx="7.5" fill="#1C1917"/>
<rect x="349.5" y="0.5" width="175" height="47" rx="7.5" stroke="#44403C"/>
<path d="M379.294 26.294C379.481 26.1065 379.736 26.0012 380.001 26.0012C380.266 26.0012 380.52 26.1065 380.708 26.294L384.708 30.294C384.895 30.4815 385.001 30.7358 385.001 31.001C385.001 31.2662 384.895 31.5205 384.708 31.708L380.708 35.708C380.519 35.8902 380.267 35.991 380.005 35.9887C379.742 35.9864 379.492 35.8812 379.306 35.6958C379.121 35.5104 379.016 35.2596 379.013 34.9974C379.011 34.7352 379.112 34.4826 379.294 34.294L381.586 32H362L361.798 31.98C361.572 31.9341 361.369 31.8115 361.223 31.6329C361.077 31.4543 360.997 31.2307 360.997 31C360.997 30.7693 361.077 30.5457 361.223 30.3671C361.369 30.1885 361.572 30.0659 361.798 30.02L362 30H381.586L379.294 27.708C379.106 27.5205 379.001 27.2662 379.001 27.001C379.001 26.7358 379.106 26.4815 379.294 26.294ZM368.308 12.014C369.047 12.0902 369.731 12.4378 370.228 12.9894C370.725 13.5409 371 14.2574 371 15V19L370.986 19.306C370.916 19.9929 370.611 20.6346 370.123 21.1228C369.635 21.611 368.993 21.9159 368.306 21.986L368 22H364L363.694 21.984C363.008 21.9136 362.367 21.6088 361.879 21.121C361.391 20.6332 361.086 19.9922 361.016 19.306L361 19V15C361 14.2574 361.276 13.5412 361.773 12.99C362.271 12.4388 362.955 12.0917 363.694 12.016L364 12H368L368.308 12.014ZM382.308 12.014C383.047 12.0902 383.731 12.4378 384.228 12.9894C384.725 13.5409 385 14.2574 385 15V19L384.986 19.306C384.916 19.9929 384.611 20.6346 384.123 21.1228C383.635 21.611 382.993 21.9159 382.306 21.986L382 22H378L377.694 21.984C377.008 21.9136 376.367 21.6088 375.879 21.121C375.391 20.6332 375.086 19.9922 375.016 19.306L375 19V15C375 14.2574 375.276 13.5412 375.773 12.99C376.271 12.4388 376.955 12.0917 377.694 12.016L378 12H382L382.308 12.014ZM378 14C377.735 14 377.48 14.1054 377.293 14.2929C377.105 14.4804 377 14.7348 377 15V19C377 19.2652 377.105 19.5196 377.293 19.7071C377.48 19.8946 377.735 20 378 20H382C382.265 20 382.52 19.8946 382.707 19.7071C382.895 19.5196 383 19.2652 383 19V15C383 14.7348 382.895 14.4804 382.707 14.2929C382.52 14.1054 382.265 14 382 14H378ZM364 14C363.735 14 363.48 14.1054 363.293 14.2929C363.105 14.4804 363 14.7348 363 15V19C363 19.2652 363.105 19.5196 363.293 19.7071C363.48 19.8946 363.735 20 364 20H368C368.265 20 368.52 19.8946 368.707 19.7071C368.895 19.5196 369 19.2652 369 19V15C369 14.7348 368.895 14.4804 368.707 14.2929C368.52 14.1054 368.265 14 368 14H364Z" fill="#F5F5F4"/>
<path d="M399.114 33V15.5455H401.227V23.3182H410.534V15.5455H412.648V33H410.534V25.1932H401.227V33H399.114ZM421.925 33.2727C420.743 33.2727 419.706 32.9915 418.814 32.429C417.928 31.8665 417.234 31.0795 416.734 30.0682C416.24 29.0568 415.993 27.875 415.993 26.5227C415.993 25.1591 416.24 23.9687 416.734 22.9517C417.234 21.9347 417.928 21.1449 418.814 20.5824C419.706 20.0199 420.743 19.7386 421.925 19.7386C423.107 19.7386 424.141 20.0199 425.027 20.5824C425.919 21.1449 426.612 21.9347 427.107 22.9517C427.607 23.9687 427.857 25.1591 427.857 26.5227C427.857 27.875 427.607 29.0568 427.107 30.0682C426.612 31.0795 425.919 31.8665 425.027 32.429C424.141 32.9915 423.107 33.2727 421.925 33.2727ZM421.925 31.4659C422.822 31.4659 423.561 31.2358 424.141 30.7756C424.72 30.3153 425.149 29.7102 425.428 28.9602C425.706 28.2102 425.845 27.3977 425.845 26.5227C425.845 25.6477 425.706 24.8324 425.428 24.0767C425.149 23.321 424.72 22.7102 424.141 22.2443C423.561 21.7784 422.822 21.5455 421.925 21.5455C421.027 21.5455 420.288 21.7784 419.709 22.2443C419.129 22.7102 418.7 23.321 418.422 24.0767C418.143 24.8324 418.004 25.6477 418.004 26.5227C418.004 27.3977 418.143 28.2102 418.422 28.9602C418.7 29.7102 419.129 30.3153 419.709 30.7756C420.288 31.2358 421.027 31.4659 421.925 31.4659ZM430.927 33V19.9091H432.87V21.8864H433.006C433.245 21.2386 433.677 20.7131 434.302 20.3097C434.927 19.9062 435.631 19.7045 436.415 19.7045C436.563 19.7045 436.748 19.7074 436.969 19.7131C437.191 19.7187 437.359 19.7273 437.472 19.7386V21.7841C437.404 21.767 437.248 21.7415 437.004 21.7074C436.765 21.6676 436.512 21.6477 436.245 21.6477C435.609 21.6477 435.04 21.7812 434.54 22.0483C434.046 22.3097 433.654 22.6733 433.364 23.1392C433.08 23.5994 432.938 24.125 432.938 24.7159V33H430.927ZM439.857 33V19.9091H441.868V33H439.857ZM440.879 17.7273C440.487 17.7273 440.149 17.5938 439.865 17.3267C439.587 17.0597 439.447 16.7386 439.447 16.3636C439.447 15.9886 439.587 15.6676 439.865 15.4006C440.149 15.1335 440.487 15 440.879 15C441.271 15 441.607 15.1335 441.885 15.4006C442.169 15.6676 442.311 15.9886 442.311 16.3636C442.311 16.7386 442.169 17.0597 441.885 17.3267C441.607 17.5938 441.271 17.7273 440.879 17.7273ZM445.177 33V31.4659L452.609 21.9205V21.7841H445.415V19.9091H455.2V21.5114L447.972 30.9886V31.125H455.438V33H445.177ZM463.479 33.2727C462.298 33.2727 461.261 32.9915 460.369 32.429C459.482 31.8665 458.789 31.0795 458.289 30.0682C457.795 29.0568 457.548 27.875 457.548 26.5227C457.548 25.1591 457.795 23.9687 458.289 22.9517C458.789 21.9347 459.482 21.1449 460.369 20.5824C461.261 20.0199 462.298 19.7386 463.479 19.7386C464.661 19.7386 465.695 20.0199 466.582 20.5824C467.474 21.1449 468.167 21.9347 468.661 22.9517C469.161 23.9687 469.411 25.1591 469.411 26.5227C469.411 27.875 469.161 29.0568 468.661 30.0682C468.167 31.0795 467.474 31.8665 466.582 32.429C465.695 32.9915 464.661 33.2727 463.479 33.2727ZM463.479 31.4659C464.377 31.4659 465.116 31.2358 465.695 30.7756C466.275 30.3153 466.704 29.7102 466.982 28.9602C467.261 28.2102 467.4 27.3977 467.4 26.5227C467.4 25.6477 467.261 24.8324 466.982 24.0767C466.704 23.321 466.275 22.7102 465.695 22.2443C465.116 21.7784 464.377 21.5455 463.479 21.5455C462.582 21.5455 461.843 21.7784 461.263 22.2443C460.684 22.7102 460.255 23.321 459.977 24.0767C459.698 24.8324 459.559 25.6477 459.559 26.5227C459.559 27.3977 459.698 28.2102 459.977 28.9602C460.255 29.7102 460.684 30.3153 461.263 30.7756C461.843 31.2358 462.582 31.4659 463.479 31.4659ZM474.493 25.125V33H472.482V19.9091H474.425V21.9545H474.595C474.902 21.2898 475.368 20.7557 475.993 20.3523C476.618 19.9432 477.425 19.7386 478.413 19.7386C479.3 19.7386 480.075 19.9205 480.74 20.2841C481.405 20.642 481.922 21.1875 482.291 21.9205C482.661 22.6477 482.845 23.5682 482.845 24.6818V33H480.834V24.8182C480.834 23.7898 480.567 22.9886 480.033 22.4148C479.499 21.8352 478.766 21.5455 477.834 21.5455C477.192 21.5455 476.618 21.6847 476.112 21.9631C475.612 22.2415 475.217 22.6477 474.928 23.1818C474.638 23.7159 474.493 24.3636 474.493 25.125ZM492.214 19.9091V21.6136H485.43V19.9091H492.214ZM487.407 16.7727H489.418V29.25C489.418 29.8182 489.501 30.2443 489.665 30.5284C489.836 30.8068 490.052 30.9943 490.313 31.0909C490.58 31.1818 490.862 31.2273 491.157 31.2273C491.379 31.2273 491.56 31.2159 491.702 31.1932C491.844 31.1648 491.958 31.142 492.043 31.125L492.452 32.9318C492.316 32.983 492.126 33.0341 491.881 33.0852C491.637 33.142 491.327 33.1705 490.952 33.1705C490.384 33.1705 489.827 33.0483 489.282 32.804C488.742 32.5597 488.293 32.1875 487.935 31.6875C487.583 31.1875 487.407 30.5568 487.407 29.7955V16.7727ZM499.092 33.3068C498.262 33.3068 497.509 33.1506 496.833 32.8381C496.157 32.5199 495.62 32.0625 495.222 31.4659C494.825 30.8636 494.626 30.1364 494.626 29.2841C494.626 28.5341 494.773 27.9261 495.069 27.4602C495.364 26.9886 495.759 26.6193 496.254 26.3523C496.748 26.0852 497.293 25.8864 497.89 25.7557C498.492 25.6193 499.097 25.5114 499.705 25.4318C500.501 25.3295 501.146 25.2528 501.64 25.2017C502.14 25.1449 502.504 25.0511 502.731 24.9205C502.964 24.7898 503.08 24.5625 503.08 24.2386V24.1705C503.08 23.3295 502.85 22.6761 502.39 22.2102C501.935 21.7443 501.245 21.5114 500.319 21.5114C499.359 21.5114 498.606 21.7216 498.06 22.142C497.515 22.5625 497.131 23.0114 496.91 23.4886L495.001 22.8068C495.342 22.0114 495.796 21.392 496.364 20.9489C496.938 20.5 497.563 20.1875 498.239 20.0114C498.921 19.8295 499.592 19.7386 500.251 19.7386C500.671 19.7386 501.154 19.7898 501.7 19.892C502.251 19.9886 502.782 20.1903 503.293 20.4972C503.81 20.804 504.239 21.267 504.58 21.8864C504.921 22.5057 505.092 23.3352 505.092 24.375V33H503.08V31.2273H502.978C502.842 31.5114 502.614 31.8153 502.296 32.1392C501.978 32.4631 501.555 32.7386 501.026 32.9659C500.498 33.1932 499.853 33.3068 499.092 33.3068ZM499.398 31.5C500.194 31.5 500.864 31.3438 501.41 31.0312C501.961 30.7188 502.376 30.3153 502.654 29.821C502.938 29.3267 503.08 28.8068 503.08 28.2614V26.4205C502.995 26.5227 502.808 26.6165 502.518 26.7017C502.234 26.7812 501.904 26.8523 501.529 26.9148C501.16 26.9716 500.799 27.0227 500.447 27.0682C500.1 27.108 499.819 27.142 499.603 27.1705C499.08 27.2386 498.592 27.3494 498.137 27.5028C497.688 27.6506 497.325 27.875 497.046 28.1761C496.773 28.4716 496.637 28.875 496.637 29.3864C496.637 30.0852 496.896 30.6136 497.413 30.9716C497.935 31.3239 498.597 31.5 499.398 31.5ZM510.774 15.5455V33H508.763V15.5455H510.774Z" fill="#F5F5F4"/>
<rect x="545.5" y="0.5" width="107" height="47" rx="7.5" fill="#1C1917"/>
<rect x="545.5" y="0.5" width="107" height="47" rx="7.5" stroke="#44403C"/>
<path fill-rule="evenodd" clip-rule="evenodd" d="M560 14H564C564.552 14 565 14.448 565 15V19C565 19.552 564.552 20 564 20H560C559.448 20 559 19.552 559 19V15C559 14.448 559.448 14 560 14ZM557 15C557 13.344 558.344 12 560 12H564C565.656 12 567 13.344 567 15V19C567 20.656 565.656 22 564 22H560C558.344 22 557 20.656 557 19V15ZM560 28H564C564.552 28 565 28.448 565 29V33C565 33.552 564.552 34 564 34H560C559.448 34 559 33.552 559 33V29C559 28.448 559.448 28 560 28ZM557 29C557 27.344 558.344 26 560 26H564C565.656 26 567 27.344 567 29V33C567 34.656 565.656 36 564 36H560C558.344 36 557 34.656 557 33V29ZM578 14H574C573.448 14 573 14.448 573 15V19C573 19.552 573.448 20 574 20H578C578.552 20 579 19.552 579 19V15C579 14.448 578.552 14 578 14ZM574 12C572.344 12 571 13.344 571 15V19C571 20.656 572.344 22 574 22H578C579.656 22 581 20.656 581 19V15C581 13.344 579.656 12 578 12H574ZM574 28H578C578.552 28 579 28.448 579 29V33C579 33.552 578.552 34 578 34H574C573.448 34 573 33.552 573 33V29C573 28.448 573.448 28 574 28ZM571 29C571 27.344 572.344 26 574 26H578C579.656 26 581 27.344 581 29V33C581 34.656 579.656 36 578 36H574C572.344 36 571 34.656 571 33V29Z" fill="#F5F5F4"/>
<path d="M607.045 21C606.858 20.4261 606.611 19.9119 606.304 19.4574C606.003 18.9972 605.642 18.6051 605.222 18.2812C604.807 17.9574 604.335 17.7102 603.807 17.5398C603.278 17.3693 602.699 17.2841 602.068 17.2841C601.034 17.2841 600.094 17.5511 599.247 18.0852C598.401 18.6193 597.727 19.4062 597.227 20.446C596.727 21.4858 596.477 22.7614 596.477 24.2727C596.477 25.7841 596.73 27.0597 597.236 28.0994C597.741 29.1392 598.426 29.9261 599.29 30.4602C600.153 30.9943 601.125 31.2614 602.205 31.2614C603.205 31.2614 604.085 31.0483 604.847 30.6222C605.614 30.1903 606.21 29.5824 606.636 28.7983C607.068 28.0085 607.284 27.0795 607.284 26.0114L607.932 26.1477H602.682V24.2727H609.33V26.1477C609.33 27.5852 609.023 28.8352 608.409 29.8977C607.801 30.9602 606.96 31.7841 605.886 32.3693C604.818 32.9489 603.591 33.2386 602.205 33.2386C600.659 33.2386 599.301 32.875 598.131 32.1477C596.966 31.4205 596.057 30.3864 595.403 29.0455C594.756 27.7045 594.432 26.1136 594.432 24.2727C594.432 22.892 594.616 21.6506 594.986 20.5483C595.361 19.4403 595.889 18.4972 596.571 17.7188C597.253 16.9403 598.06 16.3438 598.991 15.929C599.923 15.5142 600.949 15.3068 602.068 15.3068C602.989 15.3068 603.847 15.446 604.642 15.7244C605.443 15.9972 606.156 16.3864 606.781 16.892C607.412 17.392 607.938 17.9915 608.358 18.6903C608.778 19.3835 609.068 20.1534 609.227 21H607.045ZM612.677 33V19.9091H614.62V21.8864H614.756C614.995 21.2386 615.427 20.7131 616.052 20.3097C616.677 19.9062 617.381 19.7045 618.165 19.7045C618.313 19.7045 618.498 19.7074 618.719 19.7131C618.941 19.7187 619.109 19.7273 619.222 19.7386V21.7841C619.154 21.767 618.998 21.7415 618.754 21.7074C618.515 21.6676 618.262 21.6477 617.995 21.6477C617.359 21.6477 616.79 21.7812 616.29 22.0483C615.796 22.3097 615.404 22.6733 615.114 23.1392C614.83 23.5994 614.688 24.125 614.688 24.7159V33H612.677ZM621.607 33V19.9091H623.618V33H621.607ZM622.629 17.7273C622.237 17.7273 621.899 17.5938 621.615 17.3267C621.337 17.0597 621.197 16.7386 621.197 16.3636C621.197 15.9886 621.337 15.6676 621.615 15.4006C621.899 15.1335 622.237 15 622.629 15C623.021 15 623.357 15.1335 623.635 15.4006C623.919 15.6676 624.061 15.9886 624.061 16.3636C624.061 16.7386 623.919 17.0597 623.635 17.3267C623.357 17.5938 623.021 17.7273 622.629 17.7273ZM632.245 33.2727C631.154 33.2727 630.191 32.9972 629.356 32.446C628.521 31.8892 627.867 31.1051 627.396 30.0938C626.924 29.0767 626.688 27.875 626.688 26.4886C626.688 25.1136 626.924 23.9205 627.396 22.9091C627.867 21.8977 628.523 21.1165 629.364 20.5653C630.205 20.0142 631.177 19.7386 632.279 19.7386C633.131 19.7386 633.805 19.8807 634.299 20.1648C634.799 20.4432 635.18 20.7614 635.441 21.1193C635.708 21.4716 635.915 21.7614 636.063 21.9886H636.234V15.5455H638.245V33H636.302V30.9886H636.063C635.915 31.2273 635.705 31.5284 635.433 31.892C635.16 32.25 634.771 32.571 634.265 32.8551C633.759 33.1335 633.086 33.2727 632.245 33.2727ZM632.518 31.4659C633.325 31.4659 634.006 31.2557 634.563 30.8352C635.12 30.4091 635.543 29.821 635.833 29.071C636.123 28.3153 636.268 27.4432 636.268 26.4545C636.268 25.4773 636.126 24.6222 635.842 23.8892C635.558 23.1506 635.137 22.5767 634.58 22.1676C634.023 21.7528 633.336 21.5455 632.518 21.5455C631.665 21.5455 630.955 21.7642 630.387 22.2017C629.825 22.6335 629.401 23.2216 629.117 23.9659C628.839 24.7045 628.7 25.5341 628.7 26.4545C628.7 27.3864 628.842 28.233 629.126 28.9943C629.415 29.75 629.842 30.3523 630.404 30.8011C630.972 31.2443 631.677 31.4659 632.518 31.4659Z" fill="#F5F5F4"/>
</svg>
