<svg width="251" height="90" viewBox="0 0 251 90" fill="none" xmlns="http://www.w3.org/2000/svg">
<rect x="1" y="10" width="70" height="70" stroke="#292524" stroke-dasharray="6 6"/>
<path d="M26.4375 43.5C26.3516 43.237 26.2383 43.0013 26.0977 42.793C25.9596 42.582 25.7943 42.4023 25.6016 42.2539C25.4115 42.1055 25.1953 41.9922 24.9531 41.9141C24.7109 41.8359 24.4453 41.7969 24.1562 41.7969C23.6823 41.7969 23.2513 41.9193 22.8633 42.1641C22.4753 42.4089 22.1667 42.7695 21.9375 43.2461C21.7083 43.7227 21.5938 44.3073 21.5938 45C21.5938 45.6927 21.7096 46.2773 21.9414 46.7539C22.1732 47.2305 22.487 47.5911 22.8828 47.8359C23.2786 48.0807 23.724 48.2031 24.2188 48.2031C24.6771 48.2031 25.0807 48.1055 25.4297 47.9102C25.7813 47.7122 26.0547 47.4336 26.25 47.0742C26.4479 46.7122 26.5469 46.2865 26.5469 45.7969L26.8438 45.8594H24.4375V45H27.4844V45.8594C27.4844 46.5182 27.3438 47.0911 27.0625 47.5781C26.7839 48.0651 26.3984 48.4427 25.9062 48.7109C25.4167 48.9766 24.8542 49.1094 24.2188 49.1094C23.5104 49.1094 22.888 48.9427 22.3516 48.6094C21.8177 48.276 21.401 47.8021 21.1016 47.1875C20.8047 46.5729 20.6563 45.8437 20.6563 45C20.6563 44.3672 20.7409 43.7982 20.9102 43.293C21.082 42.7852 21.3242 42.3529 21.6367 41.9961C21.9492 41.6393 22.319 41.3659 22.7461 41.1758C23.1732 40.9857 23.6432 40.8906 24.1562 40.8906C24.5781 40.8906 24.9714 40.9544 25.3359 41.082C25.7031 41.207 26.0299 41.3854 26.3164 41.6172C26.6055 41.8464 26.8464 42.1211 27.0391 42.4414C27.2318 42.7591 27.3646 43.112 27.4375 43.5H26.4375ZM29.0736 49V43H29.9642V43.9062H30.0267C30.1361 43.6094 30.334 43.3685 30.6204 43.1836C30.9069 42.9987 31.2298 42.9062 31.5892 42.9062C31.6569 42.9062 31.7415 42.9076 31.8431 42.9102C31.9446 42.9128 32.0215 42.9167 32.0736 42.9219V43.8594C32.0423 43.8516 31.9707 43.8398 31.8587 43.8242C31.7493 43.806 31.6335 43.7969 31.5111 43.7969C31.2194 43.7969 30.959 43.8581 30.7298 43.9805C30.5032 44.1003 30.3236 44.2669 30.1907 44.4805C30.0605 44.6914 29.9954 44.9323 29.9954 45.2031V49H29.0736ZM35.4762 49.125C34.9345 49.125 34.4593 48.9961 34.0504 48.7383C33.6442 48.4805 33.3265 48.1198 33.0973 47.6562C32.8707 47.1927 32.7575 46.651 32.7575 46.0312C32.7575 45.4062 32.8707 44.8607 33.0973 44.3945C33.3265 43.9284 33.6442 43.5664 34.0504 43.3086C34.4593 43.0508 34.9345 42.9219 35.4762 42.9219C36.0179 42.9219 36.4918 43.0508 36.8981 43.3086C37.3069 43.5664 37.6246 43.9284 37.8512 44.3945C38.0804 44.8607 38.195 45.4062 38.195 46.0312C38.195 46.651 38.0804 47.1927 37.8512 47.6562C37.6246 48.1198 37.3069 48.4805 36.8981 48.7383C36.4918 48.9961 36.0179 49.125 35.4762 49.125ZM35.4762 48.2969C35.8877 48.2969 36.2262 48.1914 36.4918 47.9805C36.7575 47.7695 36.9541 47.4922 37.0817 47.1484C37.2093 46.8047 37.2731 46.4323 37.2731 46.0312C37.2731 45.6302 37.2093 45.2565 37.0817 44.9102C36.9541 44.5638 36.7575 44.2839 36.4918 44.0703C36.2262 43.8568 35.8877 43.75 35.4762 43.75C35.0648 43.75 34.7262 43.8568 34.4606 44.0703C34.195 44.2839 33.9983 44.5638 33.8707 44.9102C33.7431 45.2565 33.6793 45.6302 33.6793 46.0312C33.6793 46.4323 33.7431 46.8047 33.8707 47.1484C33.9983 47.4922 34.195 47.7695 34.4606 47.9805C34.7262 48.1914 35.0648 48.2969 35.4762 48.2969ZM43.4384 46.5469V43H44.3603V49H43.4384V47.9844H43.3759C43.2353 48.2891 43.0166 48.5482 42.7197 48.7617C42.4228 48.9727 42.0478 49.0781 41.5947 49.0781C41.2197 49.0781 40.8864 48.9961 40.5947 48.832C40.303 48.6654 40.0739 48.4154 39.9072 48.082C39.7405 47.7461 39.6572 47.3229 39.6572 46.8125V43H40.5791V46.75C40.5791 47.1875 40.7015 47.5365 40.9463 47.7969C41.1936 48.0573 41.5088 48.1875 41.8916 48.1875C42.1207 48.1875 42.3538 48.1289 42.5908 48.0117C42.8304 47.8945 43.0309 47.7148 43.1923 47.4727C43.3564 47.2305 43.4384 46.9219 43.4384 46.5469ZM46.1038 51.25V43H46.9944V43.9531H47.1038C47.1715 43.849 47.2652 43.7161 47.385 43.5547C47.5074 43.3906 47.6819 43.2448 47.9085 43.1172C48.1376 42.987 48.4475 42.9219 48.8382 42.9219C49.3434 42.9219 49.7887 43.0482 50.1741 43.3008C50.5595 43.5534 50.8603 43.9115 51.0764 44.375C51.2926 44.8385 51.4007 45.3854 51.4007 46.0156C51.4007 46.651 51.2926 47.2018 51.0764 47.668C50.8603 48.1315 50.5608 48.4909 50.178 48.7461C49.7952 48.9987 49.3538 49.125 48.8538 49.125C48.4684 49.125 48.1598 49.0612 47.928 48.9336C47.6962 48.8034 47.5179 48.6562 47.3929 48.4922C47.2679 48.3255 47.1715 48.1875 47.1038 48.0781H47.0257V51.25H46.1038ZM47.01 46C47.01 46.4531 47.0764 46.8529 47.2093 47.1992C47.3421 47.543 47.5361 47.8125 47.7913 48.0078C48.0465 48.2005 48.359 48.2969 48.7288 48.2969C49.1142 48.2969 49.4358 48.1953 49.6936 47.9922C49.954 47.7865 50.1494 47.5104 50.2796 47.1641C50.4124 46.8151 50.4788 46.4271 50.4788 46C50.4788 45.5781 50.4137 45.1979 50.2835 44.8594C50.1559 44.5182 49.9619 44.2487 49.7014 44.0508C49.4436 43.8503 49.1194 43.75 48.7288 43.75C48.3538 43.75 48.0387 43.8451 47.7835 44.0352C47.5283 44.2227 47.3356 44.4857 47.2054 44.8242C47.0751 45.1602 47.01 45.5521 47.01 46Z" fill="#292524"/>
<line x1="241.5" y1="2.18557e-08" x2="241.5" y2="90" stroke="#292524"/>
<line x1="171.5" y1="2.18557e-08" x2="171.5" y2="90" stroke="#292524"/>
<line x1="251" y1="10.5" x2="161" y2="10.5" stroke="#292524"/>
<line x1="251" y1="80.5" x2="161" y2="80.5" stroke="#292524"/>
<path d="M190.969 49V41H195.766V41.8594H191.938V44.5625H195.406V45.4219H191.938V49H190.969ZM197.29 49V43H198.181V43.9062H198.243C198.353 43.6094 198.551 43.3685 198.837 43.1836C199.124 42.9987 199.447 42.9062 199.806 42.9062C199.874 42.9062 199.958 42.9076 200.06 42.9102C200.161 42.9128 200.238 42.9167 200.29 42.9219V43.8594C200.259 43.8516 200.187 43.8398 200.076 43.8242C199.966 43.806 199.85 43.7969 199.728 43.7969C199.436 43.7969 199.176 43.8581 198.947 43.9805C198.72 44.1003 198.54 44.2669 198.408 44.4805C198.277 44.6914 198.212 44.9323 198.212 45.2031V49H197.29ZM203.204 49.1406C202.824 49.1406 202.478 49.069 202.169 48.9258C201.859 48.7799 201.613 48.5703 201.43 48.2969C201.248 48.0208 201.157 47.6875 201.157 47.2969C201.157 46.9531 201.225 46.6745 201.36 46.4609C201.495 46.2448 201.676 46.0755 201.903 45.9531C202.13 45.8307 202.38 45.7396 202.653 45.6797C202.929 45.6172 203.206 45.5677 203.485 45.5313C203.85 45.4844 204.145 45.4492 204.372 45.4258C204.601 45.3997 204.768 45.3568 204.872 45.2969C204.978 45.237 205.032 45.1328 205.032 44.9844V44.9531C205.032 44.5677 204.926 44.2682 204.715 44.0547C204.507 43.8411 204.191 43.7344 203.766 43.7344C203.326 43.7344 202.981 43.8307 202.731 44.0234C202.481 44.2161 202.305 44.4219 202.204 44.6406L201.329 44.3281C201.485 43.9635 201.693 43.6797 201.954 43.4766C202.217 43.2708 202.503 43.1276 202.813 43.0469C203.126 42.9635 203.433 42.9219 203.735 42.9219C203.928 42.9219 204.149 42.9453 204.399 42.9922C204.652 43.0365 204.895 43.1289 205.13 43.2695C205.367 43.4102 205.563 43.6224 205.719 43.9062C205.876 44.1901 205.954 44.5703 205.954 45.0469V49H205.032V48.1875H204.985C204.922 48.3177 204.818 48.457 204.672 48.6055C204.527 48.7539 204.333 48.8802 204.09 48.9844C203.848 49.0885 203.553 49.1406 203.204 49.1406ZM203.344 48.3125C203.709 48.3125 204.016 48.2409 204.266 48.0977C204.519 47.9544 204.709 47.7695 204.837 47.543C204.967 47.3164 205.032 47.0781 205.032 46.8281V45.9844C204.993 46.0312 204.907 46.0742 204.774 46.1133C204.644 46.1497 204.493 46.1823 204.321 46.2109C204.152 46.237 203.986 46.2604 203.825 46.2812C203.666 46.2995 203.537 46.3151 203.438 46.3281C203.199 46.3594 202.975 46.4102 202.766 46.4805C202.561 46.5482 202.394 46.651 202.266 46.7891C202.141 46.9245 202.079 47.1094 202.079 47.3437C202.079 47.6641 202.197 47.9062 202.434 48.0703C202.674 48.2318 202.977 48.3125 203.344 48.3125ZM207.691 49V43H208.582V43.9375H208.66C208.785 43.6172 208.987 43.3685 209.266 43.1914C209.544 43.0117 209.879 42.9219 210.269 42.9219C210.665 42.9219 210.995 43.0117 211.258 43.1914C211.523 43.3685 211.73 43.6172 211.879 43.9375H211.941C212.095 43.6276 212.325 43.3815 212.633 43.1992C212.94 43.0143 213.309 42.9219 213.738 42.9219C214.275 42.9219 214.714 43.0898 215.055 43.4258C215.396 43.7591 215.566 44.2786 215.566 44.9844V49H214.644V44.9844C214.644 44.5417 214.523 44.2253 214.281 44.0352C214.039 43.8451 213.754 43.75 213.426 43.75C213.004 43.75 212.677 43.8776 212.445 44.1328C212.214 44.3854 212.098 44.7057 212.098 45.0937V49H211.16V44.8906C211.16 44.5495 211.049 44.2747 210.828 44.0664C210.607 43.8555 210.322 43.75 209.973 43.75C209.733 43.75 209.509 43.8138 209.301 43.9414C209.095 44.069 208.928 44.2461 208.801 44.4727C208.676 44.6966 208.613 44.9557 208.613 45.25V49H207.691ZM219.823 49.125C219.244 49.125 218.746 48.9974 218.326 48.7422C217.91 48.4844 217.588 48.125 217.362 47.6641C217.138 47.2005 217.026 46.6615 217.026 46.0469C217.026 45.4323 217.138 44.8906 217.362 44.4219C217.588 43.9505 217.903 43.5833 218.307 43.3203C218.713 43.0547 219.187 42.9219 219.729 42.9219C220.041 42.9219 220.35 42.974 220.655 43.0781C220.959 43.1823 221.237 43.3516 221.487 43.5859C221.737 43.8177 221.936 44.125 222.084 44.5078C222.233 44.8906 222.307 45.362 222.307 45.9219V46.3125H217.682V45.5156H221.369C221.369 45.1771 221.302 44.875 221.166 44.6094C221.033 44.3437 220.843 44.1341 220.596 43.9805C220.351 43.8268 220.062 43.75 219.729 43.75C219.362 43.75 219.044 43.8411 218.776 44.0234C218.51 44.2031 218.306 44.4375 218.162 44.7266C218.019 45.0156 217.948 45.3255 217.948 45.6562V46.1875C217.948 46.6406 218.026 47.0247 218.182 47.3398C218.341 47.6523 218.561 47.8906 218.842 48.0547C219.123 48.2161 219.45 48.2969 219.823 48.2969C220.065 48.2969 220.283 48.263 220.479 48.1953C220.677 48.125 220.847 48.0208 220.991 47.8828C221.134 47.7422 221.244 47.5677 221.323 47.3594L222.213 47.6094C222.119 47.9115 221.962 48.1771 221.741 48.4062C221.519 48.6328 221.246 48.8099 220.92 48.9375C220.595 49.0625 220.229 49.125 219.823 49.125Z" fill="#292524"/>
<path d="M120.787 43L118.569 49H117.631L115.412 43H116.412L118.069 47.7812H118.131L119.787 43H120.787ZM126.309 44.3437L125.481 44.5781C125.429 44.4401 125.352 44.306 125.251 44.1758C125.152 44.043 125.016 43.9336 124.844 43.8477C124.673 43.7617 124.452 43.7187 124.184 43.7187C123.817 43.7187 123.511 43.8034 123.266 43.9727C123.024 44.1393 122.903 44.3516 122.903 44.6094C122.903 44.8385 122.986 45.0195 123.153 45.1523C123.32 45.2852 123.58 45.3958 123.934 45.4844L124.825 45.7031C125.361 45.8333 125.761 46.0326 126.024 46.3008C126.287 46.5664 126.419 46.9089 126.419 47.3281C126.419 47.6719 126.32 47.9792 126.122 48.25C125.926 48.5208 125.653 48.7344 125.301 48.8906C124.95 49.0469 124.541 49.125 124.075 49.125C123.463 49.125 122.956 48.9922 122.555 48.7266C122.154 48.4609 121.9 48.0729 121.794 47.5625L122.669 47.3437C122.752 47.6667 122.909 47.9089 123.141 48.0703C123.376 48.2318 123.682 48.3125 124.059 48.3125C124.489 48.3125 124.83 48.2214 125.083 48.0391C125.338 47.8542 125.465 47.6328 125.465 47.375C125.465 47.1667 125.393 46.9922 125.247 46.8516C125.101 46.7083 124.877 46.6016 124.575 46.5312L123.575 46.2969C123.025 46.1667 122.622 45.9648 122.364 45.6914C122.109 45.4154 121.981 45.0703 121.981 44.6562C121.981 44.3177 122.076 44.0182 122.266 43.7578C122.459 43.4974 122.721 43.293 123.051 43.1445C123.385 42.9961 123.762 42.9219 124.184 42.9219C124.778 42.9219 125.244 43.0521 125.583 43.3125C125.924 43.5729 126.166 43.9167 126.309 44.3437Z" fill="#292524"/>
</svg>
