<svg width="399" height="48" viewBox="0 0 399 48" fill="none" xmlns="http://www.w3.org/2000/svg">
<rect x="0.5" y="0.5" width="165" height="47" rx="7.5" fill="#1C1917"/>
<rect x="0.5" y="0.5" width="165" height="47" rx="7.5" stroke="#44403C"/>
<path fill-rule="evenodd" clip-rule="evenodd" d="M30 29.5C30 29.776 30.224 30 30.5 30H31C31.2652 30 31.5196 30.1054 31.7071 30.2929C31.8946 30.4804 32 30.7348 32 31C32 31.2652 31.8946 31.5196 31.7071 31.7071C31.5196 31.8946 31.2652 32 31 32H30.5C29.12 32 28 30.88 28 29.5V16.5C28 15.12 29.12 14 30.5 14H31C31.2652 14 31.5196 14.1054 31.7071 14.2929C31.8946 14.4804 32 14.7348 32 15C32 15.2652 31.8946 15.5196 31.7071 15.7071C31.5196 15.8946 31.2652 16 31 16H30.5C30.3674 16 30.2402 16.0527 30.1464 16.1464C30.0527 16.2402 30 16.3674 30 16.5V29.5ZM14 31C14 30.7348 14.1054 30.4804 14.2929 30.2929C14.4804 30.1054 14.7348 30 15 30H15.5C15.6326 30 15.7598 29.9473 15.8536 29.8536C15.9473 29.7598 16 29.6326 16 29.5V16.5C16 16.3674 15.9473 16.2402 15.8536 16.1464C15.7598 16.0527 15.6326 16 15.5 16H15C14.7348 16 14.4804 15.8946 14.2929 15.7071C14.1054 15.5196 14 15.2652 14 15C14 14.7348 14.1054 14.4804 14.2929 14.2929C14.4804 14.1054 14.7348 14 15 14H15.5C16.88 14 18 15.12 18 16.5V29.5C18 30.88 16.88 32 15.5 32H15C14.7348 32 14.4804 31.8946 14.2929 31.7071C14.1054 31.5196 14 31.2652 14 31ZM22 27C22 27.2652 22.1054 27.5196 22.2929 27.7071C22.4804 27.8946 22.7348 28 23 28C23.2652 28 23.5196 27.8946 23.7071 27.7071C23.8946 27.5196 24 27.2652 24 27V19C24 18.7348 23.8946 18.4804 23.7071 18.2929C23.5196 18.1054 23.2652 18 23 18C22.7348 18 22.4804 18.1054 22.2929 18.2929C22.1054 18.4804 22 18.7348 22 19V27Z" fill="#F5F5F4"/>
<path fill-rule="evenodd" clip-rule="evenodd" d="M66.5 30C66.224 30 66 30.224 66 30.5V31C66 31.2652 65.8946 31.5196 65.7071 31.7071C65.5196 31.8946 65.2652 32 65 32C64.7348 32 64.4804 31.8946 64.2929 31.7071C64.1054 31.5196 64 31.2652 64 31V30.5C64 29.12 65.12 28 66.5 28H79.5C80.88 28 82 29.12 82 30.5V31C82 31.2652 81.8946 31.5196 81.7071 31.7071C81.5196 31.8946 81.2652 32 81 32C80.7348 32 80.4804 31.8946 80.2929 31.7071C80.1054 31.5196 80 31.2652 80 31V30.5C80 30.3674 79.9473 30.2402 79.8536 30.1464C79.7598 30.0527 79.6326 30 79.5 30H66.5ZM65 14C65.2652 14 65.5196 14.1054 65.7071 14.2929C65.8946 14.4804 66 14.7348 66 15V15.5C66 15.6326 66.0527 15.7598 66.1464 15.8536C66.2402 15.9473 66.3674 16 66.5 16H79.5C79.6326 16 79.7598 15.9473 79.8536 15.8536C79.9473 15.7598 80 15.6326 80 15.5V15C80 14.7348 80.1054 14.4804 80.2929 14.2929C80.4804 14.1054 80.7348 14 81 14C81.2652 14 81.5196 14.1054 81.7071 14.2929C81.8946 14.4804 82 14.7348 82 15V15.5C82 16.88 80.88 18 79.5 18H66.5C65.12 18 64 16.88 64 15.5V15C64 14.7348 64.1054 14.4804 64.2929 14.2929C64.4804 14.1054 64.7348 14 65 14ZM69 22C68.7348 22 68.4804 22.1054 68.2929 22.2929C68.1054 22.4804 68 22.7348 68 23C68 23.2652 68.1054 23.5196 68.2929 23.7071C68.4804 23.8946 68.7348 24 69 24H77C77.2652 24 77.5196 23.8946 77.7071 23.7071C77.8946 23.5196 78 23.2652 78 23C78 22.7348 77.8946 22.4804 77.7071 22.2929C77.5196 22.1054 77.2652 22 77 22H69Z" fill="#F5F5F4"/>
<path d="M122.045 21C121.858 20.4261 121.611 19.9119 121.304 19.4574C121.003 18.9972 120.642 18.6051 120.222 18.2812C119.807 17.9574 119.335 17.7102 118.807 17.5398C118.278 17.3693 117.699 17.2841 117.068 17.2841C116.034 17.2841 115.094 17.5511 114.247 18.0852C113.401 18.6193 112.727 19.4062 112.227 20.446C111.727 21.4858 111.477 22.7614 111.477 24.2727C111.477 25.7841 111.73 27.0597 112.236 28.0994C112.741 29.1392 113.426 29.9261 114.29 30.4602C115.153 30.9943 116.125 31.2614 117.205 31.2614C118.205 31.2614 119.085 31.0483 119.847 30.6222C120.614 30.1903 121.21 29.5824 121.636 28.7983C122.068 28.0085 122.284 27.0795 122.284 26.0114L122.932 26.1477H117.682V24.2727H124.33V26.1477C124.33 27.5852 124.023 28.8352 123.409 29.8977C122.801 30.9602 121.96 31.7841 120.886 32.3693C119.818 32.9489 118.591 33.2386 117.205 33.2386C115.659 33.2386 114.301 32.875 113.131 32.1477C111.966 31.4205 111.057 30.3864 110.403 29.0455C109.756 27.7045 109.432 26.1136 109.432 24.2727C109.432 22.892 109.616 21.6506 109.986 20.5483C110.361 19.4403 110.889 18.4972 111.571 17.7188C112.253 16.9403 113.06 16.3438 113.991 15.929C114.923 15.5142 115.949 15.3068 117.068 15.3068C117.989 15.3068 118.847 15.446 119.642 15.7244C120.443 15.9972 121.156 16.3864 121.781 16.892C122.412 17.392 122.938 17.9915 123.358 18.6903C123.778 19.3835 124.068 20.1534 124.227 21H122.045ZM131.529 33.3068C130.7 33.3068 129.947 33.1506 129.271 32.8381C128.594 32.5199 128.058 32.0625 127.66 31.4659C127.262 30.8636 127.063 30.1364 127.063 29.2841C127.063 28.5341 127.211 27.9261 127.506 27.4602C127.802 26.9886 128.197 26.6193 128.691 26.3523C129.185 26.0852 129.731 25.8864 130.327 25.7557C130.93 25.6193 131.535 25.5114 132.143 25.4318C132.938 25.3295 133.583 25.2528 134.077 25.2017C134.577 25.1449 134.941 25.0511 135.168 24.9205C135.401 24.7898 135.518 24.5625 135.518 24.2386V24.1705C135.518 23.3295 135.288 22.6761 134.827 22.2102C134.373 21.7443 133.683 21.5114 132.756 21.5114C131.796 21.5114 131.043 21.7216 130.498 22.142C129.952 22.5625 129.569 23.0114 129.347 23.4886L127.438 22.8068C127.779 22.0114 128.234 21.392 128.802 20.9489C129.376 20.5 130.001 20.1875 130.677 20.0114C131.359 19.8295 132.029 19.7386 132.688 19.7386C133.109 19.7386 133.592 19.7898 134.137 19.892C134.688 19.9886 135.219 20.1903 135.731 20.4972C136.248 20.804 136.677 21.267 137.018 21.8864C137.359 22.5057 137.529 23.3352 137.529 24.375V33H135.518V31.2273H135.415C135.279 31.5114 135.052 31.8153 134.734 32.1392C134.415 32.4631 133.992 32.7386 133.464 32.9659C132.935 33.1932 132.29 33.3068 131.529 33.3068ZM131.836 31.5C132.631 31.5 133.302 31.3438 133.847 31.0312C134.398 30.7188 134.813 30.3153 135.092 29.821C135.376 29.3267 135.518 28.8068 135.518 28.2614V26.4205C135.433 26.5227 135.245 26.6165 134.955 26.7017C134.671 26.7812 134.342 26.8523 133.967 26.9148C133.597 26.9716 133.237 27.0227 132.884 27.0682C132.538 27.108 132.256 27.142 132.04 27.1705C131.518 27.2386 131.029 27.3494 130.575 27.5028C130.126 27.6506 129.762 27.875 129.484 28.1761C129.211 28.4716 129.075 28.875 129.075 29.3864C129.075 30.0852 129.333 30.6136 129.85 30.9716C130.373 31.3239 131.035 31.5 131.836 31.5ZM141.2 37.9091V19.9091H143.143V21.9886H143.382C143.53 21.7614 143.734 21.4716 143.996 21.1193C144.263 20.7614 144.643 20.4432 145.138 20.1648C145.638 19.8807 146.314 19.7386 147.166 19.7386C148.268 19.7386 149.24 20.0142 150.081 20.5653C150.922 21.1165 151.578 21.8977 152.05 22.9091C152.521 23.9205 152.757 25.1136 152.757 26.4886C152.757 27.875 152.521 29.0767 152.05 30.0938C151.578 31.1051 150.925 31.8892 150.089 32.446C149.254 32.9972 148.291 33.2727 147.2 33.2727C146.359 33.2727 145.686 33.1335 145.18 32.8551C144.675 32.571 144.286 32.25 144.013 31.892C143.74 31.5284 143.53 31.2273 143.382 30.9886H143.212V37.9091H141.2ZM143.178 26.4545C143.178 27.4432 143.322 28.3153 143.612 29.071C143.902 29.821 144.325 30.4091 144.882 30.8352C145.439 31.2557 146.121 31.4659 146.928 31.4659C147.768 31.4659 148.47 31.2443 149.033 30.8011C149.601 30.3523 150.027 29.75 150.311 28.9943C150.601 28.233 150.746 27.3864 150.746 26.4545C150.746 25.5341 150.604 24.7045 150.32 23.9659C150.041 23.2216 149.618 22.6335 149.05 22.2017C148.487 21.7642 147.78 21.5455 146.928 21.5455C146.109 21.5455 145.422 21.7528 144.865 22.1676C144.308 22.5767 143.888 23.1506 143.604 23.8892C143.32 24.6222 143.178 25.4773 143.178 26.4545Z" fill="#F5F5F4"/>
<rect x="186.5" y="0.5" width="212" height="47" rx="7.5" fill="#1C1917"/>
<rect x="186.5" y="0.5" width="212" height="47" rx="7.5" stroke="#44403C"/>
<path fill-rule="evenodd" clip-rule="evenodd" d="M202 15C202 14.7348 201.895 14.4804 201.707 14.2929C201.52 14.1054 201.265 14 201 14C200.735 14 200.48 14.1054 200.293 14.2929C200.105 14.4804 200 14.7348 200 15V33C200 33.2652 200.105 33.5196 200.293 33.7071C200.48 33.8946 200.735 34 201 34C201.265 34 201.52 33.8946 201.707 33.7071C201.895 33.5196 202 33.2652 202 33V15ZM219 14C219.265 14 219.52 14.1054 219.707 14.2929C219.895 14.4804 220 14.7348 220 15V33C220 33.2652 219.895 33.5196 219.707 33.7071C219.52 33.8946 219.265 34 219 34C218.735 34 218.48 33.8946 218.293 33.7071C218.105 33.5196 218 33.2652 218 33V15C218 14.7348 218.105 14.4804 218.293 14.2929C218.48 14.1054 218.735 14 219 14ZM212 26V22H208V26H212ZM214 22C214 21.4696 213.789 20.9609 213.414 20.5858C213.039 20.2107 212.53 20 212 20H208C207.47 20 206.961 20.2107 206.586 20.5858C206.211 20.9609 206 21.4696 206 22V26C206 26.5304 206.211 27.0391 206.586 27.4142C206.961 27.7893 207.47 28 208 28H212C212.53 28 213.039 27.7893 213.414 27.4142C213.789 27.0391 214 26.5304 214 26V22Z" fill="#F5F5F4"/>
<path fill-rule="evenodd" clip-rule="evenodd" d="M267 16C267.265 16 267.52 15.8946 267.707 15.7071C267.895 15.5196 268 15.2652 268 15C268 14.7348 267.895 14.4804 267.707 14.2929C267.52 14.1054 267.265 14 267 14H249C248.735 14 248.48 14.1054 248.293 14.2929C248.105 14.4804 248 14.7348 248 15C248 15.2652 248.105 15.5196 248.293 15.7071C248.48 15.8946 248.735 16 249 16H267ZM268 33C268 33.2652 267.895 33.5196 267.707 33.7071C267.52 33.8946 267.265 34 267 34H249C248.735 34 248.48 33.8946 248.293 33.7071C248.105 33.5196 248 33.2652 248 33C248 32.7348 248.105 32.4804 248.293 32.2929C248.48 32.1054 248.735 32 249 32H267C267.265 32 267.52 32.1054 267.707 32.2929C267.895 32.4804 268 32.7348 268 33ZM256 26H260V22H256V26ZM260 28C260.53 28 261.039 27.7893 261.414 27.4142C261.789 27.0391 262 26.5304 262 26V22C262 21.4696 261.789 20.9609 261.414 20.5858C261.039 20.2107 260.53 20 260 20H256C255.47 20 254.961 20.2107 254.586 20.5858C254.211 20.9609 254 21.4696 254 22V26C254 26.5304 254.211 27.0391 254.586 27.4142C254.961 27.7893 255.47 28 256 28H260Z" fill="#F5F5F4"/>
<path d="M296.114 33V15.5455H302.011C303.381 15.5455 304.5 15.7926 305.369 16.2869C306.244 16.7756 306.892 17.4375 307.312 18.2727C307.733 19.108 307.943 20.0398 307.943 21.0682C307.943 22.0966 307.733 23.0312 307.312 23.8722C306.898 24.7131 306.256 25.3835 305.386 25.8835C304.517 26.3778 303.403 26.625 302.045 26.625H297.818V24.75H301.977C302.915 24.75 303.668 24.5881 304.236 24.2642C304.804 23.9403 305.216 23.5028 305.472 22.9517C305.733 22.3949 305.864 21.767 305.864 21.0682C305.864 20.3693 305.733 19.7443 305.472 19.1932C305.216 18.642 304.801 18.2102 304.227 17.8977C303.653 17.5795 302.892 17.4205 301.943 17.4205H298.227V33H296.114ZM314.928 33.3068C314.098 33.3068 313.345 33.1506 312.669 32.8381C311.993 32.5199 311.456 32.0625 311.058 31.4659C310.661 30.8636 310.462 30.1364 310.462 29.2841C310.462 28.5341 310.609 27.9261 310.905 27.4602C311.2 26.9886 311.595 26.6193 312.089 26.3523C312.584 26.0852 313.129 25.8864 313.726 25.7557C314.328 25.6193 314.933 25.5114 315.541 25.4318C316.337 25.3295 316.982 25.2528 317.476 25.2017C317.976 25.1449 318.339 25.0511 318.567 24.9205C318.8 24.7898 318.916 24.5625 318.916 24.2386V24.1705C318.916 23.3295 318.686 22.6761 318.226 22.2102C317.771 21.7443 317.081 21.5114 316.155 21.5114C315.195 21.5114 314.442 21.7216 313.896 22.142C313.351 22.5625 312.967 23.0114 312.746 23.4886L310.837 22.8068C311.178 22.0114 311.632 21.392 312.2 20.9489C312.774 20.5 313.399 20.1875 314.075 20.0114C314.757 19.8295 315.428 19.7386 316.087 19.7386C316.507 19.7386 316.99 19.7898 317.536 19.892C318.087 19.9886 318.618 20.1903 319.129 20.4972C319.646 20.804 320.075 21.267 320.416 21.8864C320.757 22.5057 320.928 23.3352 320.928 24.375V33H318.916V31.2273H318.814C318.678 31.5114 318.45 31.8153 318.132 32.1392C317.814 32.4631 317.391 32.7386 316.862 32.9659C316.334 33.1932 315.689 33.3068 314.928 33.3068ZM315.234 31.5C316.03 31.5 316.7 31.3438 317.246 31.0312C317.797 30.7188 318.212 30.3153 318.49 29.821C318.774 29.3267 318.916 28.8068 318.916 28.2614V26.4205C318.831 26.5227 318.643 26.6165 318.354 26.7017C318.07 26.7812 317.74 26.8523 317.365 26.9148C316.996 26.9716 316.635 27.0227 316.283 27.0682C315.936 27.108 315.655 27.142 315.439 27.1705C314.916 27.2386 314.428 27.3494 313.973 27.5028C313.524 27.6506 313.161 27.875 312.882 28.1761C312.609 28.4716 312.473 28.875 312.473 29.3864C312.473 30.0852 312.732 30.6136 313.249 30.9716C313.771 31.3239 314.433 31.5 315.234 31.5ZM329.542 33.2727C328.451 33.2727 327.488 32.9972 326.653 32.446C325.817 31.8892 325.164 31.1051 324.692 30.0938C324.221 29.0767 323.985 27.875 323.985 26.4886C323.985 25.1136 324.221 23.9205 324.692 22.9091C325.164 21.8977 325.82 21.1165 326.661 20.5653C327.502 20.0142 328.474 19.7386 329.576 19.7386C330.428 19.7386 331.102 19.8807 331.596 20.1648C332.096 20.4432 332.477 20.7614 332.738 21.1193C333.005 21.4716 333.212 21.7614 333.36 21.9886H333.531V15.5455H335.542V33H333.599V30.9886H333.36C333.212 31.2273 333.002 31.5284 332.729 31.892C332.457 32.25 332.067 32.571 331.562 32.8551C331.056 33.1335 330.383 33.2727 329.542 33.2727ZM329.815 31.4659C330.621 31.4659 331.303 31.2557 331.86 30.8352C332.417 30.4091 332.84 29.821 333.13 29.071C333.42 28.3153 333.565 27.4432 333.565 26.4545C333.565 25.4773 333.423 24.6222 333.138 23.8892C332.854 23.1506 332.434 22.5767 331.877 22.1676C331.32 21.7528 330.633 21.5455 329.815 21.5455C328.962 21.5455 328.252 21.7642 327.684 22.2017C327.121 22.6335 326.698 23.2216 326.414 23.9659C326.136 24.7045 325.996 25.5341 325.996 26.4545C325.996 27.3864 326.138 28.233 326.423 28.9943C326.712 29.75 327.138 30.3523 327.701 30.8011C328.269 31.2443 328.974 31.4659 329.815 31.4659ZM344.448 33.2727C343.357 33.2727 342.394 32.9972 341.559 32.446C340.724 31.8892 340.07 31.1051 339.599 30.0938C339.127 29.0767 338.891 27.875 338.891 26.4886C338.891 25.1136 339.127 23.9205 339.599 22.9091C340.07 21.8977 340.727 21.1165 341.567 20.5653C342.408 20.0142 343.38 19.7386 344.482 19.7386C345.335 19.7386 346.008 19.8807 346.502 20.1648C347.002 20.4432 347.383 20.7614 347.644 21.1193C347.911 21.4716 348.119 21.7614 348.266 21.9886H348.437V15.5455H350.448V33H348.505V30.9886H348.266C348.119 31.2273 347.908 31.5284 347.636 31.892C347.363 32.25 346.974 32.571 346.468 32.8551C345.962 33.1335 345.289 33.2727 344.448 33.2727ZM344.721 31.4659C345.528 31.4659 346.21 31.2557 346.766 30.8352C347.323 30.4091 347.746 29.821 348.036 29.071C348.326 28.3153 348.471 27.4432 348.471 26.4545C348.471 25.4773 348.329 24.6222 348.045 23.8892C347.761 23.1506 347.34 22.5767 346.783 22.1676C346.227 21.7528 345.539 21.5455 344.721 21.5455C343.869 21.5455 343.158 21.7642 342.59 22.2017C342.028 22.6335 341.604 23.2216 341.32 23.9659C341.042 24.7045 340.903 25.5341 340.903 26.4545C340.903 27.3864 341.045 28.233 341.329 28.9943C341.619 29.75 342.045 30.3523 342.607 30.8011C343.175 31.2443 343.88 31.4659 344.721 31.4659ZM354.411 33V19.9091H356.423V33H354.411ZM355.434 17.7273C355.042 17.7273 354.704 17.5938 354.42 17.3267C354.141 17.0597 354.002 16.7386 354.002 16.3636C354.002 15.9886 354.141 15.6676 354.42 15.4006C354.704 15.1335 355.042 15 355.434 15C355.826 15 356.161 15.1335 356.44 15.4006C356.724 15.6676 356.866 15.9886 356.866 16.3636C356.866 16.7386 356.724 17.0597 356.44 17.3267C356.161 17.5938 355.826 17.7273 355.434 17.7273ZM362.118 25.125V33H360.107V19.9091H362.05V21.9545H362.22C362.527 21.2898 362.993 20.7557 363.618 20.3523C364.243 19.9432 365.05 19.7386 366.038 19.7386C366.925 19.7386 367.7 19.9205 368.365 20.2841C369.03 20.642 369.547 21.1875 369.916 21.9205C370.286 22.6477 370.47 23.5682 370.47 24.6818V33H368.459V24.8182C368.459 23.7898 368.192 22.9886 367.658 22.4148C367.124 21.8352 366.391 21.5455 365.459 21.5455C364.817 21.5455 364.243 21.6847 363.737 21.9631C363.237 22.2415 362.842 22.6477 362.553 23.1818C362.263 23.7159 362.118 24.3636 362.118 25.125ZM379.43 38.1818C378.458 38.1818 377.623 38.0568 376.924 37.8068C376.225 37.5625 375.643 37.2386 375.177 36.8352C374.717 36.4375 374.35 36.0114 374.077 35.5568L375.68 34.4318C375.862 34.6705 376.092 34.9432 376.37 35.25C376.648 35.5625 377.029 35.8324 377.512 36.0597C378.001 36.2926 378.64 36.4091 379.43 36.4091C380.487 36.4091 381.359 36.1534 382.046 35.642C382.734 35.1307 383.077 34.3295 383.077 33.2386V30.5795H382.907C382.759 30.8182 382.549 31.1136 382.276 31.4659C382.009 31.8125 381.623 32.1222 381.117 32.3949C380.617 32.6619 379.941 32.7955 379.089 32.7955C378.032 32.7955 377.083 32.5455 376.242 32.0455C375.407 31.5455 374.745 30.8182 374.256 29.8636C373.773 28.9091 373.532 27.75 373.532 26.3864C373.532 25.0455 373.768 23.8778 374.239 22.8835C374.711 21.8835 375.367 21.1108 376.208 20.5653C377.049 20.0142 378.021 19.7386 379.123 19.7386C379.975 19.7386 380.651 19.8807 381.151 20.1648C381.657 20.4432 382.043 20.7614 382.31 21.1193C382.583 21.4716 382.793 21.7614 382.941 21.9886H383.146V19.9091H385.089V33.375C385.089 34.5 384.833 35.4148 384.322 36.1193C383.816 36.8295 383.134 37.3494 382.276 37.679C381.424 38.0142 380.475 38.1818 379.43 38.1818ZM379.362 30.9886C380.168 30.9886 380.85 30.804 381.407 30.4347C381.964 30.0653 382.387 29.5341 382.677 28.8409C382.967 28.1477 383.112 27.3182 383.112 26.3523C383.112 25.4091 382.969 24.5767 382.685 23.8551C382.401 23.1335 381.981 22.5682 381.424 22.1591C380.867 21.75 380.18 21.5455 379.362 21.5455C378.509 21.5455 377.799 21.7614 377.231 22.1932C376.668 22.625 376.245 23.2045 375.961 23.9318C375.683 24.6591 375.543 25.4659 375.543 26.3523C375.543 27.2614 375.685 28.0653 375.969 28.7642C376.259 29.4574 376.685 30.0028 377.248 30.4006C377.816 30.7926 378.521 30.9886 379.362 30.9886Z" fill="#F5F5F4"/>
</svg>
