<svg width="688" height="48" viewBox="0 0 688 48" fill="none" xmlns="http://www.w3.org/2000/svg">
<rect x="0.5" y="0.5" width="108" height="47" rx="7.5" fill="#F5F5F5"/>
<rect x="0.5" y="0.5" width="108" height="47" rx="7.5" stroke="#D6D3D1"/>
<path fill-rule="evenodd" clip-rule="evenodd" d="M16 14H32C32.5304 14 33.0391 14.2107 33.4142 14.5858C33.7893 14.9609 34 15.4696 34 16V32C34 32.5304 33.7893 33.0391 33.4142 33.4142C33.0391 33.7893 32.5304 34 32 34H16C15.4696 34 14.9609 33.7893 14.5858 33.4142C14.2107 33.0391 14 32.5304 14 32V16C14 15.4696 14.2107 14.9609 14.5858 14.5858C14.9609 14.2107 15.4696 14 16 14ZM12 16C12 14.9391 12.4214 13.9217 13.1716 13.1716C13.9217 12.4214 14.9391 12 16 12H32C33.0609 12 34.0783 12.4214 34.8284 13.1716C35.5786 13.9217 36 14.9391 36 16V32C36 33.0609 35.5786 34.0783 34.8284 34.8284C34.0783 35.5786 33.0609 36 32 36H16C14.9391 36 13.9217 35.5786 13.1716 34.8284C12.4214 34.0783 12 33.0609 12 32V16ZM19 18C18.7348 18 18.4804 18.1054 18.2929 18.2929C18.1054 18.4804 18 18.7348 18 19V21C18 21.2652 18.1054 21.5196 18.2929 21.7071C18.4804 21.8946 18.7348 22 19 22C19.2652 22 19.5196 21.8946 19.7071 21.7071C19.8946 21.5196 20 21.2652 20 21V20H23V28H22C21.7348 28 21.4804 28.1054 21.2929 28.2929C21.1054 28.4804 21 28.7348 21 29C21 29.2652 21.1054 29.5196 21.2929 29.7071C21.4804 29.8946 21.7348 30 22 30H26C26.2652 30 26.5196 29.8946 26.7071 29.7071C26.8946 29.5196 27 29.2652 27 29C27 28.7348 26.8946 28.4804 26.7071 28.2929C26.5196 28.1054 26.2652 28 26 28H25V20H28V21C28 21.2652 28.1054 21.5196 28.2929 21.7071C28.4804 21.8946 28.7348 22 29 22C29.2652 22 29.5196 21.8946 29.7071 21.7071C29.8946 21.5196 30 21.2652 30 21V19C30 18.7348 29.8946 18.4804 29.7071 18.2929C29.5196 18.1054 29.2652 18 29 18H19Z" fill="#717171"/>
<path d="M49.1591 17.4205V15.5455H62.25V17.4205H56.7614V33H54.6477V17.4205H49.1591ZM68.8295 33.2727C67.5682 33.2727 66.4801 32.9943 65.5653 32.4375C64.6562 31.875 63.9545 31.0909 63.4602 30.0852C62.9716 29.0739 62.7273 27.8977 62.7273 26.5568C62.7273 25.2159 62.9716 24.0341 63.4602 23.0114C63.9545 21.983 64.642 21.1818 65.5227 20.608C66.4091 20.0284 67.4432 19.7386 68.625 19.7386C69.3068 19.7386 69.9801 19.8523 70.6449 20.0795C71.3097 20.3068 71.9148 20.6761 72.4602 21.1875C73.0057 21.6932 73.4403 22.3636 73.7642 23.1989C74.0881 24.0341 74.25 25.0625 74.25 26.2841V27.1364H64.1591V25.3977H72.2045C72.2045 24.6591 72.0568 24 71.7614 23.4205C71.4716 22.8409 71.0568 22.3835 70.517 22.0483C69.983 21.7131 69.3523 21.5455 68.625 21.5455C67.8239 21.5455 67.1307 21.7443 66.5455 22.142C65.9659 22.5341 65.5199 23.0455 65.2074 23.6761C64.8949 24.3068 64.7386 24.983 64.7386 25.7045V26.8636C64.7386 27.8523 64.9091 28.6903 65.25 29.3778C65.5966 30.0597 66.0767 30.5795 66.6903 30.9375C67.304 31.2898 68.017 31.4659 68.8295 31.4659C69.358 31.4659 69.8352 31.392 70.2614 31.2443C70.6932 31.0909 71.0653 30.8636 71.3778 30.5625C71.6903 30.2557 71.9318 29.875 72.1023 29.4205L74.0455 29.9659C73.8409 30.625 73.4972 31.2045 73.0142 31.7045C72.5313 32.1989 71.9347 32.5852 71.2244 32.8636C70.5142 33.1364 69.7159 33.2727 68.8295 33.2727ZM78.4581 19.9091L81.5945 25.2614L84.7308 19.9091H87.049L82.8217 26.4545L87.049 33H84.7308L81.5945 27.9205L78.4581 33H76.1399L80.299 26.4545L76.1399 19.9091H78.4581ZM95.6122 19.9091V21.6136H88.8281V19.9091H95.6122ZM90.8054 16.7727H92.8168V29.25C92.8168 29.8182 92.8991 30.2443 93.0639 30.5284C93.2344 30.8068 93.4503 30.9943 93.7116 31.0909C93.9787 31.1818 94.2599 31.2273 94.5554 31.2273C94.777 31.2273 94.9588 31.2159 95.1009 31.1932C95.2429 31.1648 95.3565 31.142 95.4418 31.125L95.8509 32.9318C95.7145 32.983 95.5241 33.0341 95.2798 33.0852C95.0355 33.142 94.7259 33.1705 94.3509 33.1705C93.7827 33.1705 93.2259 33.0483 92.6804 32.804C92.1406 32.5597 91.6918 32.1875 91.3338 31.6875C90.9815 31.1875 90.8054 30.5568 90.8054 29.7955V16.7727Z" fill="#121212"/>
<rect x="129.5" y="0.5" width="151" height="47" rx="7.5" fill="#F5F5F5"/>
<rect x="129.5" y="0.5" width="151" height="47" rx="7.5" stroke="#D6D3D1"/>
<path fill-rule="evenodd" clip-rule="evenodd" d="M149 16H157C159.122 16 161.157 16.8429 162.657 18.3431C164.157 19.8434 165 21.8783 165 24C165 26.1217 164.157 28.1566 162.657 29.6569C161.157 31.1571 159.122 32 157 32H149C146.878 32 144.843 31.1571 143.343 29.6569C141.843 28.1566 141 26.1217 141 24C141 21.8783 141.843 19.8434 143.343 18.3431C144.843 16.8429 146.878 16 149 16ZM139 24C139 21.3478 140.054 18.8043 141.929 16.9289C143.804 15.0536 146.348 14 149 14H157C159.652 14 162.196 15.0536 164.071 16.9289C165.946 18.8043 167 21.3478 167 24C167 26.6522 165.946 29.1957 164.071 31.0711C162.196 32.9464 159.652 34 157 34H149C146.348 34 143.804 32.9464 141.929 31.0711C140.054 29.1957 139 26.6522 139 24ZM149 28C147.939 28 146.922 27.5786 146.172 26.8284C145.421 26.0783 145 25.0609 145 24C145 22.9391 145.421 21.9217 146.172 21.1716C146.922 20.4214 147.939 20 149 20C150.061 20 151.078 20.4214 151.828 21.1716C152.579 21.9217 153 22.9391 153 24C153 25.0609 152.579 26.0783 151.828 26.8284C151.078 27.5786 150.061 28 149 28ZM143 24C143 22.4087 143.632 20.8826 144.757 19.7574C145.883 18.6321 147.409 18 149 18C150.591 18 152.117 18.6321 153.243 19.7574C154.368 20.8826 155 22.4087 155 24C155 25.5913 154.368 27.1174 153.243 28.2426C152.117 29.3679 150.591 30 149 30C147.409 30 145.883 29.3679 144.757 28.2426C143.632 27.1174 143 25.5913 143 24Z" fill="#717171"/>
<path d="M179.114 33V15.5455H185.216C186.432 15.5455 187.435 15.7557 188.224 16.1761C189.014 16.5909 189.602 17.1506 189.989 17.8551C190.375 18.554 190.568 19.3295 190.568 20.1818C190.568 20.9318 190.435 21.5511 190.168 22.0398C189.906 22.5284 189.56 22.9148 189.128 23.1989C188.702 23.483 188.239 23.6932 187.739 23.8295V24C188.273 24.0341 188.81 24.2216 189.349 24.5625C189.889 24.9034 190.341 25.392 190.705 26.0284C191.068 26.6648 191.25 27.4432 191.25 28.3636C191.25 29.2386 191.051 30.0256 190.653 30.7244C190.256 31.4233 189.628 31.9773 188.77 32.3864C187.912 32.7955 186.795 33 185.42 33H179.114ZM181.227 31.125H185.42C186.801 31.125 187.781 30.858 188.361 30.3239C188.946 29.7841 189.239 29.1307 189.239 28.3636C189.239 27.7727 189.088 27.2273 188.787 26.7273C188.486 26.2216 188.057 25.8182 187.5 25.517C186.943 25.2102 186.284 25.0568 185.523 25.0568H181.227V31.125ZM181.227 23.2159H185.148C185.784 23.2159 186.358 23.0909 186.869 22.8409C187.386 22.5909 187.795 22.2386 188.097 21.7841C188.403 21.3295 188.557 20.7955 188.557 20.1818C188.557 19.4148 188.29 18.7642 187.756 18.2301C187.222 17.6903 186.375 17.4205 185.216 17.4205H181.227V23.2159ZM199.768 33.2727C198.587 33.2727 197.55 32.9915 196.658 32.429C195.771 31.8665 195.078 31.0795 194.578 30.0682C194.084 29.0568 193.837 27.875 193.837 26.5227C193.837 25.1591 194.084 23.9687 194.578 22.9517C195.078 21.9347 195.771 21.1449 196.658 20.5824C197.55 20.0199 198.587 19.7386 199.768 19.7386C200.95 19.7386 201.984 20.0199 202.871 20.5824C203.763 21.1449 204.456 21.9347 204.95 22.9517C205.45 23.9687 205.7 25.1591 205.7 26.5227C205.7 27.875 205.45 29.0568 204.95 30.0682C204.456 31.0795 203.763 31.8665 202.871 32.429C201.984 32.9915 200.95 33.2727 199.768 33.2727ZM199.768 31.4659C200.666 31.4659 201.405 31.2358 201.984 30.7756C202.564 30.3153 202.993 29.7102 203.271 28.9602C203.55 28.2102 203.689 27.3977 203.689 26.5227C203.689 25.6477 203.55 24.8324 203.271 24.0767C202.993 23.321 202.564 22.7102 201.984 22.2443C201.405 21.7784 200.666 21.5455 199.768 21.5455C198.871 21.5455 198.132 21.7784 197.553 22.2443C196.973 22.7102 196.544 23.321 196.266 24.0767C195.987 24.8324 195.848 25.6477 195.848 26.5227C195.848 27.3977 195.987 28.2102 196.266 28.9602C196.544 29.7102 196.973 30.3153 197.553 30.7756C198.132 31.2358 198.871 31.4659 199.768 31.4659ZM214.089 33.2727C212.907 33.2727 211.87 32.9915 210.978 32.429C210.092 31.8665 209.398 31.0795 208.898 30.0682C208.404 29.0568 208.157 27.875 208.157 26.5227C208.157 25.1591 208.404 23.9687 208.898 22.9517C209.398 21.9347 210.092 21.1449 210.978 20.5824C211.87 20.0199 212.907 19.7386 214.089 19.7386C215.271 19.7386 216.305 20.0199 217.191 20.5824C218.083 21.1449 218.776 21.9347 219.271 22.9517C219.771 23.9687 220.021 25.1591 220.021 26.5227C220.021 27.875 219.771 29.0568 219.271 30.0682C218.776 31.0795 218.083 31.8665 217.191 32.429C216.305 32.9915 215.271 33.2727 214.089 33.2727ZM214.089 31.4659C214.987 31.4659 215.725 31.2358 216.305 30.7756C216.884 30.3153 217.313 29.7102 217.592 28.9602C217.87 28.2102 218.009 27.3977 218.009 26.5227C218.009 25.6477 217.87 24.8324 217.592 24.0767C217.313 23.321 216.884 22.7102 216.305 22.2443C215.725 21.7784 214.987 21.5455 214.089 21.5455C213.191 21.5455 212.452 21.7784 211.873 22.2443C211.293 22.7102 210.864 23.321 210.586 24.0767C210.308 24.8324 210.168 25.6477 210.168 26.5227C210.168 27.3977 210.308 28.2102 210.586 28.9602C210.864 29.7102 211.293 30.3153 211.873 30.7756C212.452 31.2358 213.191 31.4659 214.089 31.4659ZM225.102 15.5455V33H223.091V15.5455H225.102ZM234.275 33.2727C233.013 33.2727 231.925 32.9943 231.011 32.4375C230.102 31.875 229.4 31.0909 228.906 30.0852C228.417 29.0739 228.173 27.8977 228.173 26.5568C228.173 25.2159 228.417 24.0341 228.906 23.0114C229.4 21.983 230.087 21.1818 230.968 20.608C231.854 20.0284 232.888 19.7386 234.07 19.7386C234.752 19.7386 235.425 19.8523 236.09 20.0795C236.755 20.3068 237.36 20.6761 237.906 21.1875C238.451 21.6932 238.886 22.3636 239.21 23.1989C239.533 24.0341 239.695 25.0625 239.695 26.2841V27.1364H229.604V25.3977H237.65C237.65 24.6591 237.502 24 237.207 23.4205C236.917 22.8409 236.502 22.3835 235.962 22.0483C235.428 21.7131 234.798 21.5455 234.07 21.5455C233.269 21.5455 232.576 21.7443 231.991 22.142C231.411 22.5341 230.965 23.0455 230.653 23.6761C230.34 24.3068 230.184 24.983 230.184 25.7045V26.8636C230.184 27.8523 230.354 28.6903 230.695 29.3778C231.042 30.0597 231.522 30.5795 232.136 30.9375C232.749 31.2898 233.462 31.4659 234.275 31.4659C234.803 31.4659 235.281 31.392 235.707 31.2443C236.138 31.0909 236.511 30.8636 236.823 30.5625C237.136 30.2557 237.377 29.875 237.548 29.4205L239.491 29.9659C239.286 30.625 238.942 31.2045 238.46 31.7045C237.977 32.1989 237.38 32.5852 236.67 32.8636C235.96 33.1364 235.161 33.2727 234.275 33.2727ZM246.607 33.3068C245.778 33.3068 245.025 33.1506 244.349 32.8381C243.673 32.5199 243.136 32.0625 242.738 31.4659C242.34 30.8636 242.141 30.1364 242.141 29.2841C242.141 28.5341 242.289 27.9261 242.585 27.4602C242.88 26.9886 243.275 26.6193 243.769 26.3523C244.263 26.0852 244.809 25.8864 245.406 25.7557C246.008 25.6193 246.613 25.5114 247.221 25.4318C248.016 25.3295 248.661 25.2528 249.156 25.2017C249.656 25.1449 250.019 25.0511 250.246 24.9205C250.479 24.7898 250.596 24.5625 250.596 24.2386V24.1705C250.596 23.3295 250.366 22.6761 249.906 22.2102C249.451 21.7443 248.761 21.5114 247.835 21.5114C246.874 21.5114 246.121 21.7216 245.576 22.142C245.031 22.5625 244.647 23.0114 244.425 23.4886L242.516 22.8068C242.857 22.0114 243.312 21.392 243.88 20.9489C244.454 20.5 245.079 20.1875 245.755 20.0114C246.437 19.8295 247.107 19.7386 247.766 19.7386C248.187 19.7386 248.67 19.7898 249.215 19.892C249.766 19.9886 250.298 20.1903 250.809 20.4972C251.326 20.804 251.755 21.267 252.096 21.8864C252.437 22.5057 252.607 23.3352 252.607 24.375V33H250.596V31.2273H250.494C250.357 31.5114 250.13 31.8153 249.812 32.1392C249.494 32.4631 249.07 32.7386 248.542 32.9659C248.013 33.1932 247.369 33.3068 246.607 33.3068ZM246.914 31.5C247.71 31.5 248.38 31.3438 248.925 31.0312C249.477 30.7188 249.891 30.3153 250.17 29.821C250.454 29.3267 250.596 28.8068 250.596 28.2614V26.4205C250.511 26.5227 250.323 26.6165 250.033 26.7017C249.749 26.7812 249.42 26.8523 249.045 26.9148C248.675 26.9716 248.315 27.0227 247.962 27.0682C247.616 27.108 247.335 27.142 247.119 27.1705C246.596 27.2386 246.107 27.3494 245.653 27.5028C245.204 27.6506 244.84 27.875 244.562 28.1761C244.289 28.4716 244.153 28.875 244.153 29.3864C244.153 30.0852 244.411 30.6136 244.928 30.9716C245.451 31.3239 246.113 31.5 246.914 31.5ZM258.29 25.125V33H256.278V19.9091H258.222V21.9545H258.392C258.699 21.2898 259.165 20.7557 259.79 20.3523C260.415 19.9432 261.222 19.7386 262.21 19.7386C263.097 19.7386 263.872 19.9205 264.537 20.2841C265.202 20.642 265.719 21.1875 266.088 21.9205C266.457 22.6477 266.642 23.5682 266.642 24.6818V33H264.631V24.8182C264.631 23.7898 264.364 22.9886 263.83 22.4148C263.295 21.8352 262.563 21.5455 261.631 21.5455C260.989 21.5455 260.415 21.6847 259.909 21.9631C259.409 22.2415 259.014 22.6477 258.724 23.1818C258.435 23.7159 258.29 24.3636 258.29 25.125Z" fill="#121212"/>
<rect x="301.5" y="0.5" width="139" height="47" rx="7.5" fill="#F5F5F5"/>
<rect x="301.5" y="0.5" width="139" height="47" rx="7.5" stroke="#D6D3D1"/>
<path fill-rule="evenodd" clip-rule="evenodd" d="M324.292 12.12C324.479 11.9325 324.734 11.8272 324.999 11.8272C325.264 11.8272 325.518 11.9325 325.706 12.12L336.878 23.292C337.065 23.4795 337.171 23.7339 337.171 23.999C337.171 24.2642 337.065 24.5185 336.878 24.706L325.708 35.878C325.615 35.9711 325.505 36.045 325.383 36.0954C325.262 36.1459 325.131 36.1718 325 36.1718C324.868 36.1718 324.738 36.1459 324.617 36.0954C324.495 36.045 324.385 35.9711 324.292 35.878L313.122 24.706C312.934 24.5185 312.829 24.2642 312.829 23.999C312.829 23.7339 312.934 23.4795 313.122 23.292L324.292 12.12ZM327.122 10.706C326.843 10.4272 326.513 10.2061 326.148 10.0552C325.784 9.90432 325.394 9.82666 325 9.82666C324.606 9.82666 324.216 9.90432 323.851 10.0552C323.487 10.2061 323.157 10.4272 322.878 10.706L311.708 21.88C311.146 22.4426 310.83 23.2055 310.83 24.001C310.83 24.7965 311.146 25.5594 311.708 26.122L322.878 37.294C323.157 37.5728 323.487 37.7939 323.851 37.9448C324.216 38.0957 324.606 38.1734 325 38.1734C325.394 38.1734 325.784 38.0957 326.148 37.9448C326.513 37.7939 326.843 37.5728 327.122 37.294L338.292 26.122C338.854 25.5595 339.169 24.797 339.169 24.002C339.169 23.207 338.854 22.4445 338.292 21.882L327.122 10.706Z" fill="#717171"/>
<path d="M351.83 15.5455L357.011 30.2386H357.216L362.398 15.5455H364.614L358.205 33H356.023L349.614 15.5455H351.83ZM369.693 33.3068C368.864 33.3068 368.111 33.1506 367.435 32.8381C366.759 32.5199 366.222 32.0625 365.824 31.4659C365.426 30.8636 365.227 30.1364 365.227 29.2841C365.227 28.5341 365.375 27.9261 365.67 27.4602C365.966 26.9886 366.361 26.6193 366.855 26.3523C367.349 26.0852 367.895 25.8864 368.491 25.7557C369.094 25.6193 369.699 25.5114 370.307 25.4318C371.102 25.3295 371.747 25.2528 372.241 25.2017C372.741 25.1449 373.105 25.0511 373.332 24.9205C373.565 24.7898 373.682 24.5625 373.682 24.2386V24.1705C373.682 23.3295 373.452 22.6761 372.991 22.2102C372.537 21.7443 371.847 21.5114 370.92 21.5114C369.96 21.5114 369.207 21.7216 368.662 22.142C368.116 22.5625 367.733 23.0114 367.511 23.4886L365.602 22.8068C365.943 22.0114 366.398 21.392 366.966 20.9489C367.54 20.5 368.165 20.1875 368.841 20.0114C369.523 19.8295 370.193 19.7386 370.852 19.7386C371.273 19.7386 371.756 19.7898 372.301 19.892C372.852 19.9886 373.384 20.1903 373.895 20.4972C374.412 20.804 374.841 21.267 375.182 21.8864C375.523 22.5057 375.693 23.3352 375.693 24.375V33H373.682V31.2273H373.58C373.443 31.5114 373.216 31.8153 372.898 32.1392C372.58 32.4631 372.156 32.7386 371.628 32.9659C371.099 33.1932 370.455 33.3068 369.693 33.3068ZM370 31.5C370.795 31.5 371.466 31.3438 372.011 31.0312C372.563 30.7188 372.977 30.3153 373.256 29.821C373.54 29.3267 373.682 28.8068 373.682 28.2614V26.4205C373.597 26.5227 373.409 26.6165 373.119 26.7017C372.835 26.7812 372.506 26.8523 372.131 26.9148C371.761 26.9716 371.401 27.0227 371.048 27.0682C370.702 27.108 370.42 27.142 370.205 27.1705C369.682 27.2386 369.193 27.3494 368.739 27.5028C368.29 27.6506 367.926 27.875 367.648 28.1761C367.375 28.4716 367.239 28.875 367.239 29.3864C367.239 30.0852 367.497 30.6136 368.014 30.9716C368.537 31.3239 369.199 31.5 370 31.5ZM379.364 33V19.9091H381.308V21.8864H381.444C381.683 21.2386 382.114 20.7131 382.739 20.3097C383.364 19.9062 384.069 19.7045 384.853 19.7045C385.001 19.7045 385.185 19.7074 385.407 19.7131C385.629 19.7187 385.796 19.7273 385.91 19.7386V21.7841C385.842 21.767 385.685 21.7415 385.441 21.7074C385.202 21.6676 384.95 21.6477 384.683 21.6477C384.046 21.6477 383.478 21.7812 382.978 22.0483C382.484 22.3097 382.092 22.6733 381.802 23.1392C381.518 23.5994 381.376 24.125 381.376 24.7159V33H379.364ZM388.294 33V19.9091H390.305V33H388.294ZM389.317 17.7273C388.925 17.7273 388.587 17.5938 388.303 17.3267C388.024 17.0597 387.885 16.7386 387.885 16.3636C387.885 15.9886 388.024 15.6676 388.303 15.4006C388.587 15.1335 388.925 15 389.317 15C389.709 15 390.044 15.1335 390.322 15.4006C390.607 15.6676 390.749 15.9886 390.749 16.3636C390.749 16.7386 390.607 17.0597 390.322 17.3267C390.044 17.5938 389.709 17.7273 389.317 17.7273ZM397.842 33.3068C397.012 33.3068 396.259 33.1506 395.583 32.8381C394.907 32.5199 394.37 32.0625 393.972 31.4659C393.575 30.8636 393.376 30.1364 393.376 29.2841C393.376 28.5341 393.523 27.9261 393.819 27.4602C394.114 26.9886 394.509 26.6193 395.004 26.3523C395.498 26.0852 396.043 25.8864 396.64 25.7557C397.242 25.6193 397.847 25.5114 398.455 25.4318C399.251 25.3295 399.896 25.2528 400.39 25.2017C400.89 25.1449 401.254 25.0511 401.481 24.9205C401.714 24.7898 401.83 24.5625 401.83 24.2386V24.1705C401.83 23.3295 401.6 22.6761 401.14 22.2102C400.685 21.7443 399.995 21.5114 399.069 21.5114C398.109 21.5114 397.356 21.7216 396.81 22.142C396.265 22.5625 395.881 23.0114 395.66 23.4886L393.751 22.8068C394.092 22.0114 394.546 21.392 395.114 20.9489C395.688 20.5 396.313 20.1875 396.989 20.0114C397.671 19.8295 398.342 19.7386 399.001 19.7386C399.421 19.7386 399.904 19.7898 400.45 19.892C401.001 19.9886 401.532 20.1903 402.043 20.4972C402.56 20.804 402.989 21.267 403.33 21.8864C403.671 22.5057 403.842 23.3352 403.842 24.375V33H401.83V31.2273H401.728C401.592 31.5114 401.364 31.8153 401.046 32.1392C400.728 32.4631 400.305 32.7386 399.776 32.9659C399.248 33.1932 398.603 33.3068 397.842 33.3068ZM398.148 31.5C398.944 31.5 399.614 31.3438 400.16 31.0312C400.711 30.7188 401.126 30.3153 401.404 29.821C401.688 29.3267 401.83 28.8068 401.83 28.2614V26.4205C401.745 26.5227 401.558 26.6165 401.268 26.7017C400.984 26.7812 400.654 26.8523 400.279 26.9148C399.91 26.9716 399.549 27.0227 399.197 27.0682C398.85 27.108 398.569 27.142 398.353 27.1705C397.83 27.2386 397.342 27.3494 396.887 27.5028C396.438 27.6506 396.075 27.875 395.796 28.1761C395.523 28.4716 395.387 28.875 395.387 29.3864C395.387 30.0852 395.646 30.6136 396.163 30.9716C396.685 31.3239 397.347 31.5 398.148 31.5ZM409.524 25.125V33H407.513V19.9091H409.456V21.9545H409.626C409.933 21.2898 410.399 20.7557 411.024 20.3523C411.649 19.9432 412.456 19.7386 413.445 19.7386C414.331 19.7386 415.107 19.9205 415.771 20.2841C416.436 20.642 416.953 21.1875 417.322 21.9205C417.692 22.6477 417.876 23.5682 417.876 24.6818V33H415.865V24.8182C415.865 23.7898 415.598 22.9886 415.064 22.4148C414.53 21.8352 413.797 21.5455 412.865 21.5455C412.223 21.5455 411.649 21.6847 411.143 21.9631C410.643 22.2415 410.249 22.6477 409.959 23.1818C409.669 23.7159 409.524 24.3636 409.524 25.125ZM427.245 19.9091V21.6136H420.461V19.9091H427.245ZM422.438 16.7727H424.45V29.25C424.45 29.8182 424.532 30.2443 424.697 30.5284C424.867 30.8068 425.083 30.9943 425.344 31.0909C425.612 31.1818 425.893 31.2273 426.188 31.2273C426.41 31.2273 426.592 31.2159 426.734 31.1932C426.876 31.1648 426.989 31.142 427.075 31.125L427.484 32.9318C427.347 32.983 427.157 33.0341 426.913 33.0852C426.668 33.142 426.359 33.1705 425.984 33.1705C425.415 33.1705 424.859 33.0483 424.313 32.804C423.773 32.5597 423.325 32.1875 422.967 31.6875C422.614 31.1875 422.438 30.5568 422.438 29.7955V16.7727Z" fill="#121212"/>
<rect x="461.5" y="0.5" width="226" height="47" rx="7.5" fill="#F5F5F5"/>
<rect x="461.5" y="0.5" width="226" height="47" rx="7.5" stroke="#D6D3D1"/>
<path fill-rule="evenodd" clip-rule="evenodd" d="M477.414 20.0001C477.679 20.0001 477.933 19.895 478.12 19.7081L484.646 13.1821C484.692 13.1355 484.748 13.0986 484.808 13.0734C484.869 13.0482 484.934 13.0352 485 13.0352C485.066 13.0352 485.131 13.0482 485.192 13.0734C485.252 13.0986 485.308 13.1355 485.354 13.1821L495.818 23.6461C495.865 23.6926 495.902 23.7477 495.927 23.8085C495.952 23.8692 495.965 23.9343 495.965 24.0001C495.965 24.0659 495.952 24.131 495.927 24.1917C495.902 24.2525 495.865 24.3077 495.818 24.3541L485.354 34.8181C485.308 34.8647 485.252 34.9016 485.192 34.9268C485.131 34.952 485.066 34.965 485 34.965C484.934 34.965 484.869 34.952 484.808 34.9268C484.748 34.9016 484.692 34.8647 484.646 34.8181L478.122 28.2921C477.934 28.1046 477.68 27.9994 477.414 27.9996C477.149 27.9997 476.895 28.1053 476.707 28.2931C476.519 28.4809 476.414 28.7355 476.414 29.0008C476.415 29.2662 476.52 29.5206 476.708 29.7081L483.232 36.2321C483.464 36.4643 483.74 36.6485 484.043 36.7742C484.346 36.8999 484.672 36.9646 485 36.9646C485.328 36.9646 485.654 36.8999 485.957 36.7742C486.26 36.6485 486.536 36.4643 486.768 36.2321L497.232 25.7681C497.464 25.536 497.648 25.2603 497.774 24.957C497.9 24.6536 497.964 24.3285 497.964 24.0001C497.964 23.6718 497.9 23.3466 497.774 23.0432C497.648 22.7399 497.464 22.4643 497.232 22.2321L486.768 11.7681C486.536 11.5359 486.26 11.3517 485.957 11.226C485.654 11.1003 485.328 11.0356 485 11.0356C484.672 11.0356 484.346 11.1003 484.043 11.226C483.74 11.3517 483.464 11.5359 483.232 11.7681L476.706 18.2921C476.566 18.432 476.47 18.6103 476.432 18.8045C476.393 18.9987 476.413 19.2001 476.488 19.383C476.564 19.566 476.693 19.7223 476.857 19.8322C477.022 19.942 477.216 20.0005 477.414 20.0001ZM489 24.0001C489.001 24.9744 488.646 25.9155 488.003 26.6468C487.359 27.3782 486.47 27.8494 485.504 27.9722C484.537 28.0949 483.559 27.8607 482.753 27.3135C481.947 26.7663 481.369 25.9437 481.126 25.0001H473C472.735 25.0001 472.48 24.8948 472.293 24.7072C472.105 24.5197 472 24.2653 472 24.0001C472 23.7349 472.105 23.4805 472.293 23.293C472.48 23.1055 472.735 23.0001 473 23.0001H481.126C481.369 22.0565 481.947 21.2339 482.753 20.6867C483.559 20.1395 484.537 19.9053 485.504 20.028C486.47 20.1508 487.359 20.622 488.003 21.3534C488.646 22.0847 489.001 23.0258 489 24.0001ZM483 24.0001C483 24.5305 483.211 25.0393 483.586 25.4143C483.961 25.7894 484.47 26.0001 485 26.0001C485.53 26.0001 486.039 25.7894 486.414 25.4143C486.789 25.0393 487 24.5305 487 24.0001C487 23.4697 486.789 22.961 486.414 22.5859C486.039 22.2108 485.53 22.0001 485 22.0001C484.47 22.0001 483.961 22.2108 483.586 22.5859C483.211 22.961 483 23.4697 483 24.0001Z" fill="#717171"/>
<path d="M513.227 15.5455V33H511.114V15.5455H513.227ZM519.204 25.125V33H517.192V19.9091H519.136V21.9545H519.306C519.613 21.2898 520.079 20.7557 520.704 20.3523C521.329 19.9432 522.136 19.7386 523.124 19.7386C524.011 19.7386 524.786 19.9205 525.451 20.2841C526.116 20.642 526.633 21.1875 527.002 21.9205C527.371 22.6477 527.556 23.5682 527.556 24.6818V33H525.545V24.8182C525.545 23.7898 525.278 22.9886 524.744 22.4148C524.21 21.8352 523.477 21.5455 522.545 21.5455C521.903 21.5455 521.329 21.6847 520.823 21.9631C520.323 22.2415 519.928 22.6477 519.638 23.1818C519.349 23.7159 519.204 24.3636 519.204 25.125ZM540.504 22.8409L538.697 23.3523C538.584 23.0511 538.416 22.7585 538.195 22.4744C537.979 22.1847 537.683 21.946 537.308 21.7585C536.933 21.571 536.453 21.4773 535.868 21.4773C535.067 21.4773 534.399 21.6619 533.865 22.0312C533.337 22.3949 533.072 22.858 533.072 23.4205C533.072 23.9205 533.254 24.3153 533.618 24.6051C533.982 24.8949 534.55 25.1364 535.322 25.3295L537.266 25.8068C538.436 26.0909 539.308 26.5256 539.882 27.1108C540.456 27.6903 540.743 28.4375 540.743 29.3523C540.743 30.1023 540.527 30.7727 540.095 31.3636C539.669 31.9545 539.072 32.4205 538.305 32.7614C537.538 33.1023 536.646 33.2727 535.629 33.2727C534.294 33.2727 533.189 32.983 532.314 32.4034C531.439 31.8239 530.885 30.9773 530.652 29.8636L532.561 29.3864C532.743 30.0909 533.087 30.6193 533.592 30.9716C534.104 31.3239 534.771 31.5 535.595 31.5C536.533 31.5 537.277 31.3011 537.828 30.9034C538.385 30.5 538.663 30.017 538.663 29.4545C538.663 29 538.504 28.6193 538.186 28.3125C537.868 28 537.379 27.767 536.72 27.6136L534.538 27.1023C533.339 26.8182 532.459 26.3778 531.896 25.7812C531.339 25.179 531.061 24.4261 531.061 23.5227C531.061 22.7841 531.268 22.1307 531.683 21.5625C532.104 20.9943 532.675 20.5483 533.396 20.2244C534.124 19.9006 534.947 19.7386 535.868 19.7386C537.163 19.7386 538.18 20.0227 538.919 20.5909C539.663 21.1591 540.192 21.9091 540.504 22.8409ZM549.464 19.9091V21.6136H542.68V19.9091H549.464ZM544.657 16.7727H546.668V29.25C546.668 29.8182 546.751 30.2443 546.915 30.5284C547.086 30.8068 547.302 30.9943 547.563 31.0909C547.83 31.1818 548.112 31.2273 548.407 31.2273C548.629 31.2273 548.81 31.2159 548.952 31.1932C549.094 31.1648 549.208 31.142 549.293 31.125L549.702 32.9318C549.566 32.983 549.376 33.0341 549.131 33.0852C548.887 33.142 548.577 33.1705 548.202 33.1705C547.634 33.1705 547.077 33.0483 546.532 32.804C545.992 32.5597 545.543 32.1875 545.185 31.6875C544.833 31.1875 544.657 30.5568 544.657 29.7955V16.7727ZM556.342 33.3068C555.512 33.3068 554.759 33.1506 554.083 32.8381C553.407 32.5199 552.87 32.0625 552.472 31.4659C552.075 30.8636 551.876 30.1364 551.876 29.2841C551.876 28.5341 552.023 27.9261 552.319 27.4602C552.614 26.9886 553.009 26.6193 553.504 26.3523C553.998 26.0852 554.543 25.8864 555.14 25.7557C555.742 25.6193 556.347 25.5114 556.955 25.4318C557.751 25.3295 558.396 25.2528 558.89 25.2017C559.39 25.1449 559.754 25.0511 559.981 24.9205C560.214 24.7898 560.33 24.5625 560.33 24.2386V24.1705C560.33 23.3295 560.1 22.6761 559.64 22.2102C559.185 21.7443 558.495 21.5114 557.569 21.5114C556.609 21.5114 555.856 21.7216 555.31 22.142C554.765 22.5625 554.381 23.0114 554.16 23.4886L552.251 22.8068C552.592 22.0114 553.046 21.392 553.614 20.9489C554.188 20.5 554.813 20.1875 555.489 20.0114C556.171 19.8295 556.842 19.7386 557.501 19.7386C557.921 19.7386 558.404 19.7898 558.95 19.892C559.501 19.9886 560.032 20.1903 560.543 20.4972C561.06 20.804 561.489 21.267 561.83 21.8864C562.171 22.5057 562.342 23.3352 562.342 24.375V33H560.33V31.2273H560.228C560.092 31.5114 559.864 31.8153 559.546 32.1392C559.228 32.4631 558.805 32.7386 558.276 32.9659C557.748 33.1932 557.103 33.3068 556.342 33.3068ZM556.648 31.5C557.444 31.5 558.114 31.3438 558.66 31.0312C559.211 30.7188 559.626 30.3153 559.904 29.821C560.188 29.3267 560.33 28.8068 560.33 28.2614V26.4205C560.245 26.5227 560.058 26.6165 559.768 26.7017C559.484 26.7812 559.154 26.8523 558.779 26.9148C558.41 26.9716 558.049 27.0227 557.697 27.0682C557.35 27.108 557.069 27.142 556.853 27.1705C556.33 27.2386 555.842 27.3494 555.387 27.5028C554.938 27.6506 554.575 27.875 554.296 28.1761C554.023 28.4716 553.887 28.875 553.887 29.3864C553.887 30.0852 554.146 30.6136 554.663 30.9716C555.185 31.3239 555.847 31.5 556.648 31.5ZM568.024 25.125V33H566.013V19.9091H567.956V21.9545H568.126C568.433 21.2898 568.899 20.7557 569.524 20.3523C570.149 19.9432 570.956 19.7386 571.945 19.7386C572.831 19.7386 573.607 19.9205 574.271 20.2841C574.936 20.642 575.453 21.1875 575.822 21.9205C576.192 22.6477 576.376 23.5682 576.376 24.6818V33H574.365V24.8182C574.365 23.7898 574.098 22.9886 573.564 22.4148C573.03 21.8352 572.297 21.5455 571.365 21.5455C570.723 21.5455 570.149 21.6847 569.643 21.9631C569.143 22.2415 568.749 22.6477 568.459 23.1818C568.169 23.7159 568.024 24.3636 568.024 25.125ZM585.37 33.2727C584.143 33.2727 583.086 32.983 582.2 32.4034C581.313 31.8239 580.631 31.0256 580.154 30.0085C579.677 28.9915 579.438 27.8295 579.438 26.5227C579.438 25.1932 579.683 24.0199 580.171 23.0028C580.665 21.9801 581.353 21.1818 582.234 20.608C583.12 20.0284 584.154 19.7386 585.336 19.7386C586.256 19.7386 587.086 19.9091 587.825 20.25C588.563 20.5909 589.168 21.0682 589.64 21.6818C590.112 22.2955 590.404 23.0114 590.518 23.8295H588.506C588.353 23.233 588.012 22.7045 587.484 22.2443C586.961 21.7784 586.256 21.5455 585.37 21.5455C584.586 21.5455 583.898 21.75 583.308 22.1591C582.722 22.5625 582.265 23.1335 581.935 23.8722C581.612 24.6051 581.45 25.4659 581.45 26.4545C581.45 27.4659 581.609 28.3466 581.927 29.0966C582.251 29.8466 582.705 30.429 583.29 30.8438C583.881 31.2585 584.575 31.4659 585.37 31.4659C585.893 31.4659 586.367 31.375 586.793 31.1932C587.219 31.0114 587.58 30.75 587.876 30.4091C588.171 30.0682 588.381 29.6591 588.506 29.1818H590.518C590.404 29.9545 590.123 30.6506 589.674 31.2699C589.231 31.8835 588.643 32.3722 587.91 32.7358C587.183 33.0938 586.336 33.2727 585.37 33.2727ZM598.947 33.2727C597.685 33.2727 596.597 32.9943 595.683 32.4375C594.773 31.875 594.072 31.0909 593.577 30.0852C593.089 29.0739 592.844 27.8977 592.844 26.5568C592.844 25.2159 593.089 24.0341 593.577 23.0114C594.072 21.983 594.759 21.1818 595.64 20.608C596.526 20.0284 597.56 19.7386 598.742 19.7386C599.424 19.7386 600.097 19.8523 600.762 20.0795C601.427 20.3068 602.032 20.6761 602.577 21.1875C603.123 21.6932 603.558 22.3636 603.881 23.1989C604.205 24.0341 604.367 25.0625 604.367 26.2841V27.1364H594.276V25.3977H602.322C602.322 24.6591 602.174 24 601.879 23.4205C601.589 22.8409 601.174 22.3835 600.634 22.0483C600.1 21.7131 599.469 21.5455 598.742 21.5455C597.941 21.5455 597.248 21.7443 596.663 22.142C596.083 22.5341 595.637 23.0455 595.325 23.6761C595.012 24.3068 594.856 24.983 594.856 25.7045V26.8636C594.856 27.8523 595.026 28.6903 595.367 29.3778C595.714 30.0597 596.194 30.5795 596.808 30.9375C597.421 31.2898 598.134 31.4659 598.947 31.4659C599.475 31.4659 599.952 31.392 600.379 31.2443C600.81 31.0909 601.183 30.8636 601.495 30.5625C601.808 30.2557 602.049 29.875 602.219 29.4205L604.163 29.9659C603.958 30.625 603.614 31.2045 603.131 31.7045C602.648 32.1989 602.052 32.5852 601.342 32.8636C600.631 33.1364 599.833 33.2727 598.947 33.2727ZM623.995 19.9091C623.893 19.0455 623.478 18.375 622.751 17.8977C622.023 17.4205 621.131 17.1818 620.075 17.1818C619.302 17.1818 618.626 17.3068 618.046 17.5568C617.472 17.8068 617.023 18.1506 616.7 18.5881C616.381 19.0256 616.222 19.5227 616.222 20.0795C616.222 20.5455 616.333 20.946 616.555 21.2812C616.782 21.6108 617.072 21.8864 617.424 22.108C617.776 22.3239 618.146 22.5028 618.532 22.6449C618.918 22.7812 619.273 22.892 619.597 22.9773L621.37 23.4545C621.825 23.5739 622.33 23.7386 622.887 23.9489C623.45 24.1591 623.987 24.446 624.498 24.8097C625.015 25.1676 625.441 25.6278 625.776 26.1903C626.112 26.7528 626.279 27.4432 626.279 28.2614C626.279 29.2045 626.032 30.0568 625.538 30.8182C625.049 31.5795 624.333 32.1847 623.39 32.6335C622.452 33.0824 621.313 33.3068 619.972 33.3068C618.722 33.3068 617.64 33.1051 616.725 32.7017C615.816 32.2983 615.1 31.7358 614.577 31.0142C614.06 30.2926 613.768 29.4545 613.7 28.5H615.881C615.938 29.1591 616.16 29.7045 616.546 30.1364C616.938 30.5625 617.433 30.8807 618.029 31.0909C618.631 31.2955 619.279 31.3977 619.972 31.3977C620.779 31.3977 621.504 31.267 622.146 31.0057C622.788 30.7386 623.296 30.3693 623.671 29.8977C624.046 29.4205 624.234 28.8636 624.234 28.2273C624.234 27.6477 624.072 27.1761 623.748 26.8125C623.424 26.4489 622.998 26.1534 622.469 25.9261C621.941 25.6989 621.37 25.5 620.756 25.3295L618.609 24.7159C617.245 24.3239 616.165 23.7642 615.37 23.0369C614.575 22.3097 614.177 21.358 614.177 20.1818C614.177 19.2045 614.441 18.3523 614.969 17.625C615.504 16.892 616.219 16.3239 617.117 15.9205C618.021 15.5114 619.029 15.3068 620.143 15.3068C621.268 15.3068 622.268 15.5085 623.143 15.9119C624.018 16.3097 624.711 16.8551 625.222 17.5483C625.739 18.2415 626.012 19.0284 626.04 19.9091H623.995ZM632.447 33L628.459 19.9091H630.572L633.402 29.9318H633.538L636.334 19.9091H638.482L641.243 29.8977H641.379L644.209 19.9091H646.322L642.334 33H640.357L637.493 22.9432H637.288L634.425 33H632.447ZM652.834 33.3068C652.004 33.3068 651.251 33.1506 650.575 32.8381C649.899 32.5199 649.362 32.0625 648.964 31.4659C648.567 30.8636 648.368 30.1364 648.368 29.2841C648.368 28.5341 648.516 27.9261 648.811 27.4602C649.107 26.9886 649.501 26.6193 649.996 26.3523C650.49 26.0852 651.036 25.8864 651.632 25.7557C652.234 25.6193 652.839 25.5114 653.447 25.4318C654.243 25.3295 654.888 25.2528 655.382 25.2017C655.882 25.1449 656.246 25.0511 656.473 24.9205C656.706 24.7898 656.822 24.5625 656.822 24.2386V24.1705C656.822 23.3295 656.592 22.6761 656.132 22.2102C655.678 21.7443 654.987 21.5114 654.061 21.5114C653.101 21.5114 652.348 21.7216 651.803 22.142C651.257 22.5625 650.874 23.0114 650.652 23.4886L648.743 22.8068C649.084 22.0114 649.538 21.392 650.107 20.9489C650.68 20.5 651.305 20.1875 651.982 20.0114C652.663 19.8295 653.334 19.7386 653.993 19.7386C654.413 19.7386 654.896 19.7898 655.442 19.892C655.993 19.9886 656.524 20.1903 657.036 20.4972C657.553 20.804 657.982 21.267 658.322 21.8864C658.663 22.5057 658.834 23.3352 658.834 24.375V33H656.822V31.2273H656.72C656.584 31.5114 656.357 31.8153 656.038 32.1392C655.72 32.4631 655.297 32.7386 654.768 32.9659C654.24 33.1932 653.595 33.3068 652.834 33.3068ZM653.141 31.5C653.936 31.5 654.607 31.3438 655.152 31.0312C655.703 30.7188 656.118 30.3153 656.396 29.821C656.68 29.3267 656.822 28.8068 656.822 28.2614V26.4205C656.737 26.5227 656.55 26.6165 656.26 26.7017C655.976 26.7812 655.646 26.8523 655.271 26.9148C654.902 26.9716 654.541 27.0227 654.189 27.0682C653.842 27.108 653.561 27.142 653.345 27.1705C652.822 27.2386 652.334 27.3494 651.879 27.5028C651.43 27.6506 651.067 27.875 650.788 28.1761C650.516 28.4716 650.379 28.875 650.379 29.3864C650.379 30.0852 650.638 30.6136 651.155 30.9716C651.678 31.3239 652.339 31.5 653.141 31.5ZM662.505 37.9091V19.9091H664.448V21.9886H664.687C664.835 21.7614 665.039 21.4716 665.3 21.1193C665.567 20.7614 665.948 20.4432 666.442 20.1648C666.942 19.8807 667.619 19.7386 668.471 19.7386C669.573 19.7386 670.545 20.0142 671.386 20.5653C672.227 21.1165 672.883 21.8977 673.354 22.9091C673.826 23.9205 674.062 25.1136 674.062 26.4886C674.062 27.875 673.826 29.0767 673.354 30.0938C672.883 31.1051 672.229 31.8892 671.394 32.446C670.559 32.9972 669.596 33.2727 668.505 33.2727C667.664 33.2727 666.991 33.1335 666.485 32.8551C665.979 32.571 665.59 32.25 665.317 31.892C665.045 31.5284 664.835 31.2273 664.687 30.9886H664.516V37.9091H662.505ZM664.482 26.4545C664.482 27.4432 664.627 28.3153 664.917 29.071C665.207 29.821 665.63 30.4091 666.187 30.8352C666.744 31.2557 667.425 31.4659 668.232 31.4659C669.073 31.4659 669.775 31.2443 670.337 30.8011C670.906 30.3523 671.332 29.75 671.616 28.9943C671.906 28.233 672.05 27.3864 672.05 26.4545C672.05 25.5341 671.908 24.7045 671.624 23.9659C671.346 23.2216 670.923 22.6335 670.354 22.2017C669.792 21.7642 669.085 21.5455 668.232 21.5455C667.414 21.5455 666.727 21.7528 666.17 22.1676C665.613 22.5767 665.192 23.1506 664.908 23.8892C664.624 24.6222 664.482 25.4773 664.482 26.4545Z" fill="#121212"/>
</svg>
