<svg width="612" height="48" viewBox="0 0 612 48" fill="none" xmlns="http://www.w3.org/2000/svg">
<rect x="0.5" y="0.5" width="120" height="47" rx="7.5" fill="#1C1917"/>
<rect x="0.5" y="0.5" width="120" height="47" rx="7.5" stroke="#44403C"/>
<path d="M14.624 13.6061C17.2886 11.2022 20.7746 9.91331 24.3621 10.0056C27.9495 10.0979 31.3646 11.5643 33.902 14.1021L34.462 14.6981C36.8999 17.4401 38.1639 21.0295 37.982 24.6941L37.924 25.4541C37.614 28.4441 34.892 30.0001 32.484 30.0001H27L26.798 30.0201C26.5722 30.0662 26.3692 30.1889 26.2234 30.3675C26.0776 30.5461 25.998 30.7695 25.998 31.0001V32.0001C25.998 33.6401 25.322 35.2061 24.158 36.2541C22.958 37.3381 21.222 37.8541 19.418 37.2301C17.6764 36.6267 16.071 35.6854 14.694 34.4601L14.1 33.9001C12.7999 32.6 11.7685 31.0566 11.0648 29.358C10.3612 27.6593 9.99902 25.8387 9.99902 24.0001C9.99902 22.1614 10.3612 20.3408 11.0648 18.6422C11.7685 16.9435 12.7999 15.4001 14.1 14.1001L14.624 13.6061ZM32.484 15.5161C30.2336 13.2658 27.1815 12.0016 23.999 12.0016C20.8166 12.0016 17.7644 13.2658 15.514 15.5161L15.09 15.9661C13.7627 17.4373 12.8203 19.2144 12.3471 21.1387C11.8738 23.0629 11.8845 25.0744 12.3781 26.9935C12.8717 28.9126 13.8329 30.6796 15.1758 32.1368C16.5187 33.5939 18.2015 34.6958 20.074 35.3441C22.03 36.0181 23.77 34.4301 23.98 32.4101L24 32.0001V31.0021C24 30.2064 24.3161 29.4433 24.8787 28.8807C25.4413 28.3181 26.2044 28.0021 27 28.0021H32.486L32.802 27.9901C34.268 27.8761 35.584 26.9641 35.888 25.5581L35.936 25.2481C36.1094 23.589 35.9351 21.9121 35.424 20.3242C34.913 18.7364 34.0765 17.2725 32.968 16.0261L32.484 15.5161ZM17 24.0021C17.5305 24.0021 18.0392 24.2128 18.4142 24.5878C18.7893 24.9629 19 25.4716 19 26.0021C19 26.5325 18.7893 27.0412 18.4142 27.4163C18.0392 27.7913 17.5305 28.0021 17 28.0021C16.4696 28.0021 15.9609 27.7913 15.5858 27.4163C15.2107 27.0412 15 26.5325 15 26.0021C15 25.4716 15.2107 24.9629 15.5858 24.5878C15.9609 24.2128 16.4696 24.0021 17 24.0021ZM31 20.0021C31.5305 20.0023 32.0391 20.2133 32.414 20.5886C32.7888 20.9638 32.9993 21.4726 32.999 22.0031C32.9988 22.5335 32.7878 23.0421 32.4125 23.417C32.0373 23.7919 31.5285 24.0023 30.998 24.0021C30.4676 24.0021 29.9589 23.7913 29.5838 23.4163C29.2087 23.0412 28.998 22.5325 28.998 22.0021C28.998 21.4716 29.2087 20.9629 29.5838 20.5878C29.9589 20.2128 30.4676 20.0021 30.998 20.0021M18.998 17.0021C19.5287 17.0021 20.0377 17.2129 20.413 17.5881C20.7882 17.9634 20.999 18.4724 20.999 19.0031C20.999 19.5338 20.7882 20.0427 20.413 20.418C20.0377 20.7932 19.5287 21.0041 18.998 21.0041C18.4676 21.0041 17.9589 20.7933 17.5838 20.4183C17.2087 20.0432 16.998 19.5345 16.998 19.0041C16.998 18.4736 17.2087 17.9649 17.5838 17.5898C17.9589 17.2148 18.4676 17.0021 18.998 17.0021ZM25.998 15.0041C26.5285 15.0041 27.0372 15.2148 27.4122 15.5898C27.7873 15.9649 27.998 16.4736 27.998 17.0041C27.998 17.5345 27.7873 18.0432 27.4122 18.4183C27.0372 18.7933 26.5285 19.0041 25.998 19.0041C25.4676 19.0041 24.9589 18.7933 24.5838 18.4183C24.2087 18.0432 23.998 17.5345 23.998 17.0041C23.998 16.4736 24.2087 15.9649 24.5838 15.5898C24.9589 15.2148 25.4676 15.0041 25.998 15.0041Z" fill="#F5F5F4"/>
<path d="M64.1591 21H62.0455C61.9205 20.392 61.7017 19.858 61.3892 19.3977C61.0824 18.9375 60.7074 18.5511 60.2642 18.2386C59.8267 17.9205 59.3409 17.6818 58.8068 17.5227C58.2727 17.3636 57.7159 17.2841 57.1364 17.2841C56.0795 17.2841 55.1222 17.5511 54.2642 18.0852C53.4119 18.6193 52.733 19.4062 52.2273 20.446C51.7273 21.4858 51.4773 22.7614 51.4773 24.2727C51.4773 25.7841 51.7273 27.0597 52.2273 28.0994C52.733 29.1392 53.4119 29.9261 54.2642 30.4602C55.1222 30.9943 56.0795 31.2614 57.1364 31.2614C57.7159 31.2614 58.2727 31.1818 58.8068 31.0227C59.3409 30.8636 59.8267 30.6278 60.2642 30.3153C60.7074 29.9972 61.0824 29.608 61.3892 29.1477C61.7017 28.6818 61.9205 28.1477 62.0455 27.5455H64.1591C64 28.4375 63.7102 29.2358 63.2898 29.9403C62.8693 30.6449 62.3466 31.2443 61.7216 31.7386C61.0966 32.2273 60.3949 32.5994 59.6165 32.8551C58.8438 33.1108 58.017 33.2386 57.1364 33.2386C55.6477 33.2386 54.3239 32.875 53.1648 32.1477C52.0057 31.4205 51.0938 30.3864 50.429 29.0455C49.7642 27.7045 49.4318 26.1136 49.4318 24.2727C49.4318 22.4318 49.7642 20.8409 50.429 19.5C51.0938 18.1591 52.0057 17.125 53.1648 16.3977C54.3239 15.6705 55.6477 15.3068 57.1364 15.3068C58.017 15.3068 58.8438 15.4347 59.6165 15.6903C60.3949 15.946 61.0966 16.321 61.7216 16.8153C62.3466 17.304 62.8693 17.9006 63.2898 18.6051C63.7102 19.304 64 20.1023 64.1591 21ZM72.62 33.2727C71.4382 33.2727 70.4013 32.9915 69.5092 32.429C68.6229 31.8665 67.9297 31.0795 67.4297 30.0682C66.9354 29.0568 66.6882 27.875 66.6882 26.5227C66.6882 25.1591 66.9354 23.9687 67.4297 22.9517C67.9297 21.9347 68.6229 21.1449 69.5092 20.5824C70.4013 20.0199 71.4382 19.7386 72.62 19.7386C73.8018 19.7386 74.8359 20.0199 75.7223 20.5824C76.6143 21.1449 77.3075 21.9347 77.8018 22.9517C78.3018 23.9687 78.5518 25.1591 78.5518 26.5227C78.5518 27.875 78.3018 29.0568 77.8018 30.0682C77.3075 31.0795 76.6143 31.8665 75.7223 32.429C74.8359 32.9915 73.8018 33.2727 72.62 33.2727ZM72.62 31.4659C73.5178 31.4659 74.2564 31.2358 74.8359 30.7756C75.4155 30.3153 75.8445 29.7102 76.1229 28.9602C76.4013 28.2102 76.5405 27.3977 76.5405 26.5227C76.5405 25.6477 76.4013 24.8324 76.1229 24.0767C75.8445 23.321 75.4155 22.7102 74.8359 22.2443C74.2564 21.7784 73.5178 21.5455 72.62 21.5455C71.7223 21.5455 70.9837 21.7784 70.4041 22.2443C69.8246 22.7102 69.3956 23.321 69.1172 24.0767C68.8388 24.8324 68.6996 25.6477 68.6996 26.5227C68.6996 27.3977 68.8388 28.2102 69.1172 28.9602C69.3956 29.7102 69.8246 30.3153 70.4041 30.7756C70.9837 31.2358 71.7223 31.4659 72.62 31.4659ZM83.6335 15.5455V33H81.6222V15.5455H83.6335ZM92.6357 33.2727C91.4538 33.2727 90.4169 32.9915 89.5249 32.429C88.6385 31.8665 87.9453 31.0795 87.4453 30.0682C86.951 29.0568 86.7038 27.875 86.7038 26.5227C86.7038 25.1591 86.951 23.9687 87.4453 22.9517C87.9453 21.9347 88.6385 21.1449 89.5249 20.5824C90.4169 20.0199 91.4538 19.7386 92.6357 19.7386C93.8175 19.7386 94.8516 20.0199 95.7379 20.5824C96.63 21.1449 97.3232 21.9347 97.8175 22.9517C98.3175 23.9687 98.5675 25.1591 98.5675 26.5227C98.5675 27.875 98.3175 29.0568 97.8175 30.0682C97.3232 31.0795 96.63 31.8665 95.7379 32.429C94.8516 32.9915 93.8175 33.2727 92.6357 33.2727ZM92.6357 31.4659C93.5334 31.4659 94.272 31.2358 94.8516 30.7756C95.4311 30.3153 95.8601 29.7102 96.1385 28.9602C96.4169 28.2102 96.5561 27.3977 96.5561 26.5227C96.5561 25.6477 96.4169 24.8324 96.1385 24.0767C95.8601 23.321 95.4311 22.7102 94.8516 22.2443C94.272 21.7784 93.5334 21.5455 92.6357 21.5455C91.7379 21.5455 90.9993 21.7784 90.4197 22.2443C89.8402 22.7102 89.4112 23.321 89.1328 24.0767C88.8544 24.8324 88.7152 25.6477 88.7152 26.5227C88.7152 27.3977 88.8544 28.2102 89.1328 28.9602C89.4112 29.7102 89.8402 30.3153 90.4197 30.7756C90.9993 31.2358 91.7379 31.4659 92.6357 31.4659ZM101.638 33V19.9091H103.581V21.8864H103.717C103.956 21.2386 104.388 20.7131 105.013 20.3097C105.638 19.9062 106.342 19.7045 107.126 19.7045C107.274 19.7045 107.459 19.7074 107.68 19.7131C107.902 19.7187 108.07 19.7273 108.183 19.7386V21.7841C108.115 21.767 107.959 21.7415 107.714 21.7074C107.476 21.6676 107.223 21.6477 106.956 21.6477C106.32 21.6477 105.751 21.7812 105.251 22.0483C104.757 22.3097 104.365 22.6733 104.075 23.1392C103.791 23.5994 103.649 24.125 103.649 24.7159V33H101.638Z" fill="#F5F5F4"/>
<rect x="141.5" y="0.5" width="150" height="47" rx="7.5" fill="#1C1917"/>
<rect x="141.5" y="0.5" width="150" height="47" rx="7.5" stroke="#44403C"/>
<path d="M173 12C174.061 12 175.078 12.4214 175.828 13.1716C176.579 13.9217 177 14.9391 177 16V32C177 33.0609 176.579 34.0783 175.828 34.8284C175.078 35.5786 174.061 36 173 36H157C155.939 36 154.922 35.5786 154.172 34.8284C153.421 34.0783 153 33.0609 153 32V16C153 14.9391 153.421 13.9217 154.172 13.1716C154.922 12.4214 155.939 12 157 12H173ZM157 14C156.47 14 155.961 14.2107 155.586 14.5858C155.211 14.9609 155 15.4696 155 16V32C155 32.5304 155.211 33.0391 155.586 33.4142C155.961 33.7893 156.47 34 157 34H173C173.53 34 174.039 33.7893 174.414 33.4142C174.789 33.0391 175 32.5304 175 32V16C175 15.4696 174.789 14.9609 174.414 14.5858C174.039 14.2107 173.53 14 173 14H157ZM163.1 18.004C163.364 18.0303 163.607 18.1603 163.775 18.3655C163.943 18.5706 164.022 18.8341 163.996 19.098L163.906 20.002H166.896L167.006 18.902C167.037 18.6419 167.168 18.4043 167.372 18.2401C167.576 18.0759 167.837 17.9983 168.097 18.024C168.358 18.0497 168.598 18.1765 168.766 18.3774C168.934 18.5782 169.017 18.8369 168.996 19.098L168.906 20.002H170C170.265 20.002 170.52 20.1074 170.707 20.2949C170.895 20.4824 171 20.7368 171 21.002C171 21.2672 170.895 21.5216 170.707 21.7091C170.52 21.8966 170.265 22.002 170 22.002H168.704L168.306 26.002H170C170.265 26.002 170.52 26.1074 170.707 26.2949C170.895 26.4824 171 26.7368 171 27.002C171 27.2672 170.895 27.5216 170.707 27.7091C170.52 27.8966 170.265 28.002 170 28.002H168.104L167.996 29.098C167.954 29.3489 167.819 29.5746 167.617 29.7293C167.415 29.884 167.162 29.9563 166.909 29.9313C166.656 29.9064 166.422 29.7862 166.254 29.5951C166.087 29.4039 165.998 29.1562 166.006 28.902L166.094 28.002H163.104L162.996 29.098C162.954 29.3489 162.819 29.5746 162.617 29.7293C162.415 29.884 162.162 29.9563 161.909 29.9313C161.656 29.9064 161.422 29.7862 161.254 29.5951C161.087 29.4039 160.998 29.1562 161.006 28.902L161.094 28.002H160C159.735 28.002 159.48 27.8966 159.293 27.7091C159.105 27.5216 159 27.2672 159 27.002C159 26.7368 159.105 26.4824 159.293 26.2949C159.48 26.1074 159.735 26.002 160 26.002H161.294L161.694 22.002H160C159.735 22.002 159.48 21.8966 159.293 21.7091C159.105 21.5216 159 21.2672 159 21.002C159 20.7368 159.105 20.4824 159.293 20.2949C159.48 20.1074 159.735 20.002 160 20.002H161.896L162.006 18.902C162.032 18.6381 162.161 18.3953 162.366 18.2269C162.571 18.0585 162.834 17.9784 163.098 18.004M163.702 22.002L163.304 26.002H166.292L166.692 22.002H163.702Z" fill="#F5F5F4"/>
<path d="M204.955 15.5455V33H202.909L193.398 19.2955H193.227V33H191.114V15.5455H193.159L202.705 29.2841H202.875V15.5455H204.955ZM217.161 27.6477V19.9091H219.173V33H217.161V30.7841H217.025C216.718 31.4489 216.241 32.0142 215.593 32.4801C214.945 32.9403 214.127 33.1705 213.138 33.1705C212.32 33.1705 211.593 32.9915 210.957 32.6335C210.32 32.2699 209.82 31.7244 209.457 30.9972C209.093 30.2642 208.911 29.3409 208.911 28.2273V19.9091H210.923V28.0909C210.923 29.0455 211.19 29.8068 211.724 30.375C212.263 30.9432 212.951 31.2273 213.786 31.2273C214.286 31.2273 214.795 31.0994 215.312 30.8438C215.835 30.5881 216.272 30.196 216.624 29.6676C216.982 29.1392 217.161 28.4659 217.161 27.6477ZM222.857 33V19.9091H224.8V21.9545H224.97C225.243 21.2557 225.683 20.7131 226.291 20.3267C226.899 19.9347 227.629 19.7386 228.482 19.7386C229.345 19.7386 230.064 19.9347 230.638 20.3267C231.217 20.7131 231.669 21.2557 231.993 21.9545H232.129C232.464 21.2784 232.967 20.7415 233.638 20.3438C234.308 19.9403 235.112 19.7386 236.05 19.7386C237.22 19.7386 238.178 20.1051 238.922 20.8381C239.666 21.5653 240.038 22.6989 240.038 24.2386V33H238.027V24.2386C238.027 23.2727 237.763 22.5824 237.234 22.1676C236.706 21.7528 236.084 21.5455 235.368 21.5455C234.447 21.5455 233.734 21.8239 233.229 22.3807C232.723 22.9318 232.47 23.6307 232.47 24.4773V33H230.425V24.0341C230.425 23.2898 230.183 22.6903 229.7 22.2358C229.217 21.7756 228.595 21.5455 227.834 21.5455C227.311 21.5455 226.822 21.6847 226.368 21.9631C225.919 22.2415 225.555 22.6278 225.277 23.1222C225.004 23.6108 224.868 24.1761 224.868 24.8182V33H222.857ZM243.989 33V15.5455H246V21.9886H246.17C246.318 21.7614 246.523 21.4716 246.784 21.1193C247.051 20.7614 247.432 20.4432 247.926 20.1648C248.426 19.8807 249.102 19.7386 249.955 19.7386C251.057 19.7386 252.028 20.0142 252.869 20.5653C253.71 21.1165 254.366 21.8977 254.838 22.9091C255.31 23.9205 255.545 25.1136 255.545 26.4886C255.545 27.875 255.31 29.0767 254.838 30.0938C254.366 31.1051 253.713 31.8892 252.878 32.446C252.043 32.9972 251.08 33.2727 249.989 33.2727C249.148 33.2727 248.474 33.1335 247.969 32.8551C247.463 32.571 247.074 32.25 246.801 31.892C246.528 31.5284 246.318 31.2273 246.17 30.9886H245.932V33H243.989ZM245.966 26.4545C245.966 27.4432 246.111 28.3153 246.401 29.071C246.69 29.821 247.114 30.4091 247.67 30.8352C248.227 31.2557 248.909 31.4659 249.716 31.4659C250.557 31.4659 251.259 31.2443 251.821 30.8011C252.389 30.3523 252.815 29.75 253.099 28.9943C253.389 28.233 253.534 27.3864 253.534 26.4545C253.534 25.5341 253.392 24.7045 253.108 23.9659C252.83 23.2216 252.406 22.6335 251.838 22.2017C251.276 21.7642 250.568 21.5455 249.716 21.5455C248.898 21.5455 248.21 21.7528 247.653 22.1676C247.097 22.5767 246.676 23.1506 246.392 23.8892C246.108 24.6222 245.966 25.4773 245.966 26.4545ZM264.111 33.2727C262.849 33.2727 261.761 32.9943 260.847 32.4375C259.938 31.875 259.236 31.0909 258.741 30.0852C258.253 29.0739 258.009 27.8977 258.009 26.5568C258.009 25.2159 258.253 24.0341 258.741 23.0114C259.236 21.983 259.923 21.1818 260.804 20.608C261.69 20.0284 262.724 19.7386 263.906 19.7386C264.588 19.7386 265.261 19.8523 265.926 20.0795C266.591 20.3068 267.196 20.6761 267.741 21.1875C268.287 21.6932 268.722 22.3636 269.045 23.1989C269.369 24.0341 269.531 25.0625 269.531 26.2841V27.1364H259.44V25.3977H267.486C267.486 24.6591 267.338 24 267.043 23.4205C266.753 22.8409 266.338 22.3835 265.798 22.0483C265.264 21.7131 264.634 21.5455 263.906 21.5455C263.105 21.5455 262.412 21.7443 261.827 22.142C261.247 22.5341 260.801 23.0455 260.489 23.6761C260.176 24.3068 260.02 24.983 260.02 25.7045V26.8636C260.02 27.8523 260.19 28.6903 260.531 29.3778C260.878 30.0597 261.358 30.5795 261.972 30.9375C262.585 31.2898 263.298 31.4659 264.111 31.4659C264.639 31.4659 265.116 31.392 265.543 31.2443C265.974 31.0909 266.347 30.8636 266.659 30.5625C266.972 30.2557 267.213 29.875 267.384 29.4205L269.327 29.9659C269.122 30.625 268.778 31.2045 268.295 31.7045C267.813 32.1989 267.216 32.5852 266.506 32.8636C265.795 33.1364 264.997 33.2727 264.111 33.2727ZM272.591 33V19.9091H274.534V21.8864H274.67C274.909 21.2386 275.341 20.7131 275.966 20.3097C276.591 19.9062 277.295 19.7045 278.08 19.7045C278.227 19.7045 278.412 19.7074 278.634 19.7131C278.855 19.7187 279.023 19.7273 279.136 19.7386V21.7841C279.068 21.767 278.912 21.7415 278.668 21.7074C278.429 21.6676 278.176 21.6477 277.909 21.6477C277.273 21.6477 276.705 21.7812 276.205 22.0483C275.71 22.3097 275.318 22.6733 275.028 23.1392C274.744 23.5994 274.602 24.125 274.602 24.7159V33H272.591Z" fill="#F5F5F4"/>
<rect x="312.5" y="0.5" width="127" height="47" rx="7.5" fill="#1C1917"/>
<rect x="312.5" y="0.5" width="127" height="47" rx="7.5" stroke="#44403C"/>
<path fill-rule="evenodd" clip-rule="evenodd" d="M328 14H344C344.53 14 345.039 14.2107 345.414 14.5858C345.789 14.9609 346 15.4696 346 16V32C346 32.5304 345.789 33.0391 345.414 33.4142C345.039 33.7893 344.53 34 344 34H328C327.47 34 326.961 33.7893 326.586 33.4142C326.211 33.0391 326 32.5304 326 32V16C326 15.4696 326.211 14.9609 326.586 14.5858C326.961 14.2107 327.47 14 328 14ZM324 16C324 14.9391 324.421 13.9217 325.172 13.1716C325.922 12.4214 326.939 12 328 12H344C345.061 12 346.078 12.4214 346.828 13.1716C347.579 13.9217 348 14.9391 348 16V32C348 33.0609 347.579 34.0783 346.828 34.8284C346.078 35.5786 345.061 36 344 36H328C326.939 36 325.922 35.5786 325.172 34.8284C324.421 34.0783 324 33.0609 324 32V16ZM331 18C330.735 18 330.48 18.1054 330.293 18.2929C330.105 18.4804 330 18.7348 330 19V21C330 21.2652 330.105 21.5196 330.293 21.7071C330.48 21.8946 330.735 22 331 22C331.265 22 331.52 21.8946 331.707 21.7071C331.895 21.5196 332 21.2652 332 21V20H335V28H334C333.735 28 333.48 28.1054 333.293 28.2929C333.105 28.4804 333 28.7348 333 29C333 29.2652 333.105 29.5196 333.293 29.7071C333.48 29.8946 333.735 30 334 30H338C338.265 30 338.52 29.8946 338.707 29.7071C338.895 29.5196 339 29.2652 339 29C339 28.7348 338.895 28.4804 338.707 28.2929C338.52 28.1054 338.265 28 338 28H337V20H340V21C340 21.2652 340.105 21.5196 340.293 21.7071C340.48 21.8946 340.735 22 341 22C341.265 22 341.52 21.8946 341.707 21.7071C341.895 21.5196 342 21.2652 342 21V19C342 18.7348 341.895 18.4804 341.707 18.2929C341.52 18.1054 341.265 18 341 18H331Z" fill="#F5F5F4"/>
<path d="M371.659 19.9091C371.557 19.0455 371.142 18.375 370.415 17.8977C369.688 17.4205 368.795 17.1818 367.739 17.1818C366.966 17.1818 366.29 17.3068 365.71 17.5568C365.136 17.8068 364.688 18.1506 364.364 18.5881C364.045 19.0256 363.886 19.5227 363.886 20.0795C363.886 20.5455 363.997 20.946 364.219 21.2812C364.446 21.6108 364.736 21.8864 365.088 22.108C365.44 22.3239 365.81 22.5028 366.196 22.6449C366.582 22.7812 366.938 22.892 367.261 22.9773L369.034 23.4545C369.489 23.5739 369.994 23.7386 370.551 23.9489C371.114 24.1591 371.651 24.446 372.162 24.8097C372.679 25.1676 373.105 25.6278 373.44 26.1903C373.776 26.7528 373.943 27.4432 373.943 28.2614C373.943 29.2045 373.696 30.0568 373.202 30.8182C372.713 31.5795 371.997 32.1847 371.054 32.6335C370.116 33.0824 368.977 33.3068 367.636 33.3068C366.386 33.3068 365.304 33.1051 364.389 32.7017C363.48 32.2983 362.764 31.7358 362.241 31.0142C361.724 30.2926 361.432 29.4545 361.364 28.5H363.545C363.602 29.1591 363.824 29.7045 364.21 30.1364C364.602 30.5625 365.097 30.8807 365.693 31.0909C366.295 31.2955 366.943 31.3977 367.636 31.3977C368.443 31.3977 369.168 31.267 369.81 31.0057C370.452 30.7386 370.96 30.3693 371.335 29.8977C371.71 29.4205 371.898 28.8636 371.898 28.2273C371.898 27.6477 371.736 27.1761 371.412 26.8125C371.088 26.4489 370.662 26.1534 370.134 25.9261C369.605 25.6989 369.034 25.5 368.42 25.3295L366.273 24.7159C364.909 24.3239 363.83 23.7642 363.034 23.0369C362.239 22.3097 361.841 21.358 361.841 20.1818C361.841 19.2045 362.105 18.3523 362.634 17.625C363.168 16.892 363.884 16.3239 364.781 15.9205C365.685 15.5114 366.693 15.3068 367.807 15.3068C368.932 15.3068 369.932 15.5085 370.807 15.9119C371.682 16.3097 372.375 16.8551 372.886 17.5483C373.403 18.2415 373.676 19.0284 373.705 19.9091H371.659ZM382.839 19.9091V21.6136H376.055V19.9091H382.839ZM378.032 16.7727H380.043V29.25C380.043 29.8182 380.126 30.2443 380.29 30.5284C380.461 30.8068 380.677 30.9943 380.938 31.0909C381.205 31.1818 381.487 31.2273 381.782 31.2273C382.004 31.2273 382.185 31.2159 382.327 31.1932C382.469 31.1648 382.583 31.142 382.668 31.125L383.077 32.9318C382.941 32.983 382.751 33.0341 382.506 33.0852C382.262 33.142 381.952 33.1705 381.577 33.1705C381.009 33.1705 380.452 33.0483 379.907 32.804C379.367 32.5597 378.918 32.1875 378.56 31.6875C378.208 31.1875 378.032 30.5568 378.032 29.7955V16.7727ZM385.864 33V19.9091H387.808V21.8864H387.944C388.183 21.2386 388.614 20.7131 389.239 20.3097C389.864 19.9062 390.569 19.7045 391.353 19.7045C391.501 19.7045 391.685 19.7074 391.907 19.7131C392.129 19.7187 392.296 19.7273 392.41 19.7386V21.7841C392.342 21.767 392.185 21.7415 391.941 21.7074C391.702 21.6676 391.45 21.6477 391.183 21.6477C390.546 21.6477 389.978 21.7812 389.478 22.0483C388.984 22.3097 388.592 22.6733 388.302 23.1392C388.018 23.5994 387.876 24.125 387.876 24.7159V33H385.864ZM394.794 33V19.9091H396.805V33H394.794ZM395.817 17.7273C395.425 17.7273 395.087 17.5938 394.803 17.3267C394.524 17.0597 394.385 16.7386 394.385 16.3636C394.385 15.9886 394.524 15.6676 394.803 15.4006C395.087 15.1335 395.425 15 395.817 15C396.209 15 396.544 15.1335 396.822 15.4006C397.107 15.6676 397.249 15.9886 397.249 16.3636C397.249 16.7386 397.107 17.0597 396.822 17.3267C396.544 17.5938 396.209 17.7273 395.817 17.7273ZM402.501 25.125V33H400.489V19.9091H402.433V21.9545H402.603C402.91 21.2898 403.376 20.7557 404.001 20.3523C404.626 19.9432 405.433 19.7386 406.421 19.7386C407.308 19.7386 408.083 19.9205 408.748 20.2841C409.413 20.642 409.93 21.1875 410.299 21.9205C410.668 22.6477 410.853 23.5682 410.853 24.6818V33H408.842V24.8182C408.842 23.7898 408.575 22.9886 408.04 22.4148C407.506 21.8352 406.773 21.5455 405.842 21.5455C405.2 21.5455 404.626 21.6847 404.12 21.9631C403.62 22.2415 403.225 22.6477 402.935 23.1818C402.646 23.7159 402.501 24.3636 402.501 25.125ZM419.812 38.1818C418.841 38.1818 418.006 38.0568 417.307 37.8068C416.608 37.5625 416.026 37.2386 415.56 36.8352C415.099 36.4375 414.733 36.0114 414.46 35.5568L416.062 34.4318C416.244 34.6705 416.474 34.9432 416.753 35.25C417.031 35.5625 417.412 35.8324 417.895 36.0597C418.384 36.2926 419.023 36.4091 419.812 36.4091C420.869 36.4091 421.741 36.1534 422.429 35.642C423.116 35.1307 423.46 34.3295 423.46 33.2386V30.5795H423.29C423.142 30.8182 422.932 31.1136 422.659 31.4659C422.392 31.8125 422.006 32.1222 421.5 32.3949C421 32.6619 420.324 32.7955 419.472 32.7955C418.415 32.7955 417.466 32.5455 416.625 32.0455C415.79 31.5455 415.128 30.8182 414.639 29.8636C414.156 28.9091 413.915 27.75 413.915 26.3864C413.915 25.0455 414.151 23.8778 414.622 22.8835C415.094 21.8835 415.75 21.1108 416.591 20.5653C417.432 20.0142 418.403 19.7386 419.506 19.7386C420.358 19.7386 421.034 19.8807 421.534 20.1648C422.04 20.4432 422.426 20.7614 422.693 21.1193C422.966 21.4716 423.176 21.7614 423.324 21.9886H423.528V19.9091H425.472V33.375C425.472 34.5 425.216 35.4148 424.705 36.1193C424.199 36.8295 423.517 37.3494 422.659 37.679C421.807 38.0142 420.858 38.1818 419.812 38.1818ZM419.744 30.9886C420.551 30.9886 421.233 30.804 421.79 30.4347C422.347 30.0653 422.77 29.5341 423.06 28.8409C423.349 28.1477 423.494 27.3182 423.494 26.3523C423.494 25.4091 423.352 24.5767 423.068 23.8551C422.784 23.1335 422.364 22.5682 421.807 22.1591C421.25 21.75 420.563 21.5455 419.744 21.5455C418.892 21.5455 418.182 21.7614 417.614 22.1932C417.051 22.625 416.628 23.2045 416.344 23.9318C416.065 24.6591 415.926 25.4659 415.926 26.3523C415.926 27.2614 416.068 28.0653 416.352 28.7642C416.642 29.4574 417.068 30.0028 417.631 30.4006C418.199 30.7926 418.903 30.9886 419.744 30.9886Z" fill="#F5F5F4"/>
<rect x="460.5" y="0.5" width="151" height="47" rx="7.5" fill="#1C1917"/>
<rect x="460.5" y="0.5" width="151" height="47" rx="7.5" stroke="#44403C"/>
<path fill-rule="evenodd" clip-rule="evenodd" d="M480 16H488C490.122 16 492.157 16.8429 493.657 18.3431C495.157 19.8434 496 21.8783 496 24C496 26.1217 495.157 28.1566 493.657 29.6569C492.157 31.1571 490.122 32 488 32H480C477.878 32 475.843 31.1571 474.343 29.6569C472.843 28.1566 472 26.1217 472 24C472 21.8783 472.843 19.8434 474.343 18.3431C475.843 16.8429 477.878 16 480 16ZM470 24C470 21.3478 471.054 18.8043 472.929 16.9289C474.804 15.0536 477.348 14 480 14H488C490.652 14 493.196 15.0536 495.071 16.9289C496.946 18.8043 498 21.3478 498 24C498 26.6522 496.946 29.1957 495.071 31.0711C493.196 32.9464 490.652 34 488 34H480C477.348 34 474.804 32.9464 472.929 31.0711C471.054 29.1957 470 26.6522 470 24ZM480 28C478.939 28 477.922 27.5786 477.172 26.8284C476.421 26.0783 476 25.0609 476 24C476 22.9391 476.421 21.9217 477.172 21.1716C477.922 20.4214 478.939 20 480 20C481.061 20 482.078 20.4214 482.828 21.1716C483.579 21.9217 484 22.9391 484 24C484 25.0609 483.579 26.0783 482.828 26.8284C482.078 27.5786 481.061 28 480 28ZM474 24C474 22.4087 474.632 20.8826 475.757 19.7574C476.883 18.6321 478.409 18 480 18C481.591 18 483.117 18.6321 484.243 19.7574C485.368 20.8826 486 22.4087 486 24C486 25.5913 485.368 27.1174 484.243 28.2426C483.117 29.3679 481.591 30 480 30C478.409 30 476.883 29.3679 475.757 28.2426C474.632 27.1174 474 25.5913 474 24Z" fill="#F5F5F4"/>
<path d="M510.114 33V15.5455H516.216C517.432 15.5455 518.435 15.7557 519.224 16.1761C520.014 16.5909 520.602 17.1506 520.989 17.8551C521.375 18.554 521.568 19.3295 521.568 20.1818C521.568 20.9318 521.435 21.5511 521.168 22.0398C520.906 22.5284 520.56 22.9148 520.128 23.1989C519.702 23.483 519.239 23.6932 518.739 23.8295V24C519.273 24.0341 519.81 24.2216 520.349 24.5625C520.889 24.9034 521.341 25.392 521.705 26.0284C522.068 26.6648 522.25 27.4432 522.25 28.3636C522.25 29.2386 522.051 30.0256 521.653 30.7244C521.256 31.4233 520.628 31.9773 519.77 32.3864C518.912 32.7955 517.795 33 516.42 33H510.114ZM512.227 31.125H516.42C517.801 31.125 518.781 30.858 519.361 30.3239C519.946 29.7841 520.239 29.1307 520.239 28.3636C520.239 27.7727 520.088 27.2273 519.787 26.7273C519.486 26.2216 519.057 25.8182 518.5 25.517C517.943 25.2102 517.284 25.0568 516.523 25.0568H512.227V31.125ZM512.227 23.2159H516.148C516.784 23.2159 517.358 23.0909 517.869 22.8409C518.386 22.5909 518.795 22.2386 519.097 21.7841C519.403 21.3295 519.557 20.7955 519.557 20.1818C519.557 19.4148 519.29 18.7642 518.756 18.2301C518.222 17.6903 517.375 17.4205 516.216 17.4205H512.227V23.2159ZM530.768 33.2727C529.587 33.2727 528.55 32.9915 527.658 32.429C526.771 31.8665 526.078 31.0795 525.578 30.0682C525.084 29.0568 524.837 27.875 524.837 26.5227C524.837 25.1591 525.084 23.9687 525.578 22.9517C526.078 21.9347 526.771 21.1449 527.658 20.5824C528.55 20.0199 529.587 19.7386 530.768 19.7386C531.95 19.7386 532.984 20.0199 533.871 20.5824C534.763 21.1449 535.456 21.9347 535.95 22.9517C536.45 23.9687 536.7 25.1591 536.7 26.5227C536.7 27.875 536.45 29.0568 535.95 30.0682C535.456 31.0795 534.763 31.8665 533.871 32.429C532.984 32.9915 531.95 33.2727 530.768 33.2727ZM530.768 31.4659C531.666 31.4659 532.405 31.2358 532.984 30.7756C533.564 30.3153 533.993 29.7102 534.271 28.9602C534.55 28.2102 534.689 27.3977 534.689 26.5227C534.689 25.6477 534.55 24.8324 534.271 24.0767C533.993 23.321 533.564 22.7102 532.984 22.2443C532.405 21.7784 531.666 21.5455 530.768 21.5455C529.871 21.5455 529.132 21.7784 528.553 22.2443C527.973 22.7102 527.544 23.321 527.266 24.0767C526.987 24.8324 526.848 25.6477 526.848 26.5227C526.848 27.3977 526.987 28.2102 527.266 28.9602C527.544 29.7102 527.973 30.3153 528.553 30.7756C529.132 31.2358 529.871 31.4659 530.768 31.4659ZM545.089 33.2727C543.907 33.2727 542.87 32.9915 541.978 32.429C541.092 31.8665 540.398 31.0795 539.898 30.0682C539.404 29.0568 539.157 27.875 539.157 26.5227C539.157 25.1591 539.404 23.9687 539.898 22.9517C540.398 21.9347 541.092 21.1449 541.978 20.5824C542.87 20.0199 543.907 19.7386 545.089 19.7386C546.271 19.7386 547.305 20.0199 548.191 20.5824C549.083 21.1449 549.776 21.9347 550.271 22.9517C550.771 23.9687 551.021 25.1591 551.021 26.5227C551.021 27.875 550.771 29.0568 550.271 30.0682C549.776 31.0795 549.083 31.8665 548.191 32.429C547.305 32.9915 546.271 33.2727 545.089 33.2727ZM545.089 31.4659C545.987 31.4659 546.725 31.2358 547.305 30.7756C547.884 30.3153 548.313 29.7102 548.592 28.9602C548.87 28.2102 549.009 27.3977 549.009 26.5227C549.009 25.6477 548.87 24.8324 548.592 24.0767C548.313 23.321 547.884 22.7102 547.305 22.2443C546.725 21.7784 545.987 21.5455 545.089 21.5455C544.191 21.5455 543.452 21.7784 542.873 22.2443C542.293 22.7102 541.864 23.321 541.586 24.0767C541.308 24.8324 541.168 25.6477 541.168 26.5227C541.168 27.3977 541.308 28.2102 541.586 28.9602C541.864 29.7102 542.293 30.3153 542.873 30.7756C543.452 31.2358 544.191 31.4659 545.089 31.4659ZM556.102 15.5455V33H554.091V15.5455H556.102ZM565.275 33.2727C564.013 33.2727 562.925 32.9943 562.011 32.4375C561.102 31.875 560.4 31.0909 559.906 30.0852C559.417 29.0739 559.173 27.8977 559.173 26.5568C559.173 25.2159 559.417 24.0341 559.906 23.0114C560.4 21.983 561.087 21.1818 561.968 20.608C562.854 20.0284 563.888 19.7386 565.07 19.7386C565.752 19.7386 566.425 19.8523 567.09 20.0795C567.755 20.3068 568.36 20.6761 568.906 21.1875C569.451 21.6932 569.886 22.3636 570.21 23.1989C570.533 24.0341 570.695 25.0625 570.695 26.2841V27.1364H560.604V25.3977H568.65C568.65 24.6591 568.502 24 568.207 23.4205C567.917 22.8409 567.502 22.3835 566.962 22.0483C566.428 21.7131 565.798 21.5455 565.07 21.5455C564.269 21.5455 563.576 21.7443 562.991 22.142C562.411 22.5341 561.965 23.0455 561.653 23.6761C561.34 24.3068 561.184 24.983 561.184 25.7045V26.8636C561.184 27.8523 561.354 28.6903 561.695 29.3778C562.042 30.0597 562.522 30.5795 563.136 30.9375C563.749 31.2898 564.462 31.4659 565.275 31.4659C565.803 31.4659 566.281 31.392 566.707 31.2443C567.138 31.0909 567.511 30.8636 567.823 30.5625C568.136 30.2557 568.377 29.875 568.548 29.4205L570.491 29.9659C570.286 30.625 569.942 31.2045 569.46 31.7045C568.977 32.1989 568.38 32.5852 567.67 32.8636C566.96 33.1364 566.161 33.2727 565.275 33.2727ZM577.607 33.3068C576.778 33.3068 576.025 33.1506 575.349 32.8381C574.673 32.5199 574.136 32.0625 573.738 31.4659C573.34 30.8636 573.141 30.1364 573.141 29.2841C573.141 28.5341 573.289 27.9261 573.585 27.4602C573.88 26.9886 574.275 26.6193 574.769 26.3523C575.263 26.0852 575.809 25.8864 576.406 25.7557C577.008 25.6193 577.613 25.5114 578.221 25.4318C579.016 25.3295 579.661 25.2528 580.156 25.2017C580.656 25.1449 581.019 25.0511 581.246 24.9205C581.479 24.7898 581.596 24.5625 581.596 24.2386V24.1705C581.596 23.3295 581.366 22.6761 580.906 22.2102C580.451 21.7443 579.761 21.5114 578.835 21.5114C577.874 21.5114 577.121 21.7216 576.576 22.142C576.031 22.5625 575.647 23.0114 575.425 23.4886L573.516 22.8068C573.857 22.0114 574.312 21.392 574.88 20.9489C575.454 20.5 576.079 20.1875 576.755 20.0114C577.437 19.8295 578.107 19.7386 578.766 19.7386C579.187 19.7386 579.67 19.7898 580.215 19.892C580.766 19.9886 581.298 20.1903 581.809 20.4972C582.326 20.804 582.755 21.267 583.096 21.8864C583.437 22.5057 583.607 23.3352 583.607 24.375V33H581.596V31.2273H581.494C581.357 31.5114 581.13 31.8153 580.812 32.1392C580.494 32.4631 580.07 32.7386 579.542 32.9659C579.013 33.1932 578.369 33.3068 577.607 33.3068ZM577.914 31.5C578.71 31.5 579.38 31.3438 579.925 31.0312C580.477 30.7188 580.891 30.3153 581.17 29.821C581.454 29.3267 581.596 28.8068 581.596 28.2614V26.4205C581.511 26.5227 581.323 26.6165 581.033 26.7017C580.749 26.7812 580.42 26.8523 580.045 26.9148C579.675 26.9716 579.315 27.0227 578.962 27.0682C578.616 27.108 578.335 27.142 578.119 27.1705C577.596 27.2386 577.107 27.3494 576.653 27.5028C576.204 27.6506 575.84 27.875 575.562 28.1761C575.289 28.4716 575.153 28.875 575.153 29.3864C575.153 30.0852 575.411 30.6136 575.928 30.9716C576.451 31.3239 577.113 31.5 577.914 31.5ZM589.29 25.125V33H587.278V19.9091H589.222V21.9545H589.392C589.699 21.2898 590.165 20.7557 590.79 20.3523C591.415 19.9432 592.222 19.7386 593.21 19.7386C594.097 19.7386 594.872 19.9205 595.537 20.2841C596.202 20.642 596.719 21.1875 597.088 21.9205C597.457 22.6477 597.642 23.5682 597.642 24.6818V33H595.631V24.8182C595.631 23.7898 595.364 22.9886 594.83 22.4148C594.295 21.8352 593.563 21.5455 592.631 21.5455C591.989 21.5455 591.415 21.6847 590.909 21.9631C590.409 22.2415 590.014 22.6477 589.724 23.1818C589.435 23.7159 589.29 24.3636 589.29 25.125Z" fill="#F5F5F4"/>
</svg>
