<svg width="588" height="48" viewBox="0 0 588 48" fill="none" xmlns="http://www.w3.org/2000/svg">
<rect x="0.5" y="0.5" width="114" height="47" rx="7.5" fill="#1C1917"/>
<rect x="0.5" y="0.5" width="114" height="47" rx="7.5" stroke="#44403C"/>
<path d="M14.624 13.6061C17.2886 11.2022 20.7746 9.91331 24.3621 10.0056C27.9495 10.0979 31.3646 11.5643 33.902 14.1021L34.462 14.6981C36.8999 17.4401 38.1639 21.0295 37.982 24.6941L37.924 25.4541C37.614 28.4441 34.892 30.0001 32.484 30.0001H27L26.798 30.0201C26.5722 30.0662 26.3692 30.1889 26.2234 30.3675C26.0776 30.5461 25.998 30.7695 25.998 31.0001V32.0001C25.998 33.6401 25.322 35.2061 24.158 36.2541C22.958 37.3381 21.222 37.8541 19.418 37.2301C17.6764 36.6267 16.071 35.6854 14.694 34.4601L14.1 33.9001C12.7999 32.6 11.7685 31.0566 11.0648 29.358C10.3612 27.6593 9.99902 25.8387 9.99902 24.0001C9.99902 22.1614 10.3612 20.3408 11.0648 18.6422C11.7685 16.9435 12.7999 15.4001 14.1 14.1001L14.624 13.6061ZM32.484 15.5161C30.2336 13.2658 27.1815 12.0016 23.999 12.0016C20.8166 12.0016 17.7644 13.2658 15.514 15.5161L15.09 15.9661C13.7627 17.4373 12.8203 19.2144 12.3471 21.1387C11.8738 23.0629 11.8845 25.0744 12.3781 26.9935C12.8717 28.9126 13.8329 30.6796 15.1758 32.1368C16.5187 33.5939 18.2015 34.6958 20.074 35.3441C22.03 36.0181 23.77 34.4301 23.98 32.4101L24 32.0001V31.0021C24 30.2064 24.3161 29.4433 24.8787 28.8807C25.4413 28.3181 26.2044 28.0021 27 28.0021H32.486L32.802 27.9901C34.268 27.8761 35.584 26.9641 35.888 25.5581L35.936 25.2481C36.1094 23.589 35.9351 21.9121 35.424 20.3242C34.913 18.7364 34.0765 17.2725 32.968 16.0261L32.484 15.5161ZM17 24.0021C17.5305 24.0021 18.0392 24.2128 18.4142 24.5878C18.7893 24.9629 19 25.4716 19 26.0021C19 26.5325 18.7893 27.0412 18.4142 27.4163C18.0392 27.7913 17.5305 28.0021 17 28.0021C16.4696 28.0021 15.9609 27.7913 15.5858 27.4163C15.2107 27.0412 15 26.5325 15 26.0021C15 25.4716 15.2107 24.9629 15.5858 24.5878C15.9609 24.2128 16.4696 24.0021 17 24.0021ZM31 20.0021C31.5305 20.0023 32.0391 20.2133 32.414 20.5886C32.7888 20.9638 32.9993 21.4726 32.999 22.0031C32.9988 22.5335 32.7878 23.0421 32.4125 23.417C32.0373 23.7919 31.5285 24.0023 30.998 24.0021C30.4676 24.0021 29.9589 23.7913 29.5838 23.4163C29.2087 23.0412 28.998 22.5325 28.998 22.0021C28.998 21.4716 29.2087 20.9629 29.5838 20.5878C29.9589 20.2128 30.4676 20.0021 30.998 20.0021M18.998 17.0021C19.5287 17.0021 20.0377 17.2129 20.413 17.5881C20.7882 17.9634 20.999 18.4724 20.999 19.0031C20.999 19.5338 20.7882 20.0427 20.413 20.418C20.0377 20.7932 19.5287 21.0041 18.998 21.0041C18.4676 21.0041 17.9589 20.7933 17.5838 20.4183C17.2087 20.0432 16.998 19.5345 16.998 19.0041C16.998 18.4736 17.2087 17.9649 17.5838 17.5898C17.9589 17.2148 18.4676 17.0021 18.998 17.0021ZM25.998 15.0041C26.5285 15.0041 27.0372 15.2148 27.4122 15.5898C27.7873 15.9649 27.998 16.4736 27.998 17.0041C27.998 17.5345 27.7873 18.0432 27.4122 18.4183C27.0372 18.7933 26.5285 19.0041 25.998 19.0041C25.4676 19.0041 24.9589 18.7933 24.5838 18.4183C24.2087 18.0432 23.998 17.5345 23.998 17.0041C23.998 16.4736 24.2087 15.9649 24.5838 15.5898C24.9589 15.2148 25.4676 15.0041 25.998 15.0041Z" fill="#F5F5F4"/>
<path d="M64.1591 21H62.0455C61.9205 20.392 61.7017 19.858 61.3892 19.3977C61.0824 18.9375 60.7074 18.5511 60.2642 18.2386C59.8267 17.9205 59.3409 17.6818 58.8068 17.5227C58.2727 17.3636 57.7159 17.2841 57.1364 17.2841C56.0795 17.2841 55.1222 17.5511 54.2642 18.0852C53.4119 18.6193 52.733 19.4062 52.2273 20.446C51.7273 21.4858 51.4773 22.7614 51.4773 24.2727C51.4773 25.7841 51.7273 27.0597 52.2273 28.0994C52.733 29.1392 53.4119 29.9261 54.2642 30.4602C55.1222 30.9943 56.0795 31.2614 57.1364 31.2614C57.7159 31.2614 58.2727 31.1818 58.8068 31.0227C59.3409 30.8636 59.8267 30.6278 60.2642 30.3153C60.7074 29.9972 61.0824 29.608 61.3892 29.1477C61.7017 28.6818 61.9205 28.1477 62.0455 27.5455H64.1591C64 28.4375 63.7102 29.2358 63.2898 29.9403C62.8693 30.6449 62.3466 31.2443 61.7216 31.7386C61.0966 32.2273 60.3949 32.5994 59.6165 32.8551C58.8438 33.1108 58.017 33.2386 57.1364 33.2386C55.6477 33.2386 54.3239 32.875 53.1648 32.1477C52.0057 31.4205 51.0938 30.3864 50.429 29.0455C49.7642 27.7045 49.4318 26.1136 49.4318 24.2727C49.4318 22.4318 49.7642 20.8409 50.429 19.5C51.0938 18.1591 52.0057 17.125 53.1648 16.3977C54.3239 15.6705 55.6477 15.3068 57.1364 15.3068C58.017 15.3068 58.8438 15.4347 59.6165 15.6903C60.3949 15.946 61.0966 16.321 61.7216 16.8153C62.3466 17.304 62.8693 17.9006 63.2898 18.6051C63.7102 19.304 64 20.1023 64.1591 21ZM72.62 33.2727C71.4382 33.2727 70.4013 32.9915 69.5092 32.429C68.6229 31.8665 67.9297 31.0795 67.4297 30.0682C66.9354 29.0568 66.6882 27.875 66.6882 26.5227C66.6882 25.1591 66.9354 23.9687 67.4297 22.9517C67.9297 21.9347 68.6229 21.1449 69.5092 20.5824C70.4013 20.0199 71.4382 19.7386 72.62 19.7386C73.8018 19.7386 74.8359 20.0199 75.7223 20.5824C76.6143 21.1449 77.3075 21.9347 77.8018 22.9517C78.3018 23.9687 78.5518 25.1591 78.5518 26.5227C78.5518 27.875 78.3018 29.0568 77.8018 30.0682C77.3075 31.0795 76.6143 31.8665 75.7223 32.429C74.8359 32.9915 73.8018 33.2727 72.62 33.2727ZM72.62 31.4659C73.5178 31.4659 74.2564 31.2358 74.8359 30.7756C75.4155 30.3153 75.8445 29.7102 76.1229 28.9602C76.4013 28.2102 76.5405 27.3977 76.5405 26.5227C76.5405 25.6477 76.4013 24.8324 76.1229 24.0767C75.8445 23.321 75.4155 22.7102 74.8359 22.2443C74.2564 21.7784 73.5178 21.5455 72.62 21.5455C71.7223 21.5455 70.9837 21.7784 70.4041 22.2443C69.8246 22.7102 69.3956 23.321 69.1172 24.0767C68.8388 24.8324 68.6996 25.6477 68.6996 26.5227C68.6996 27.3977 68.8388 28.2102 69.1172 28.9602C69.3956 29.7102 69.8246 30.3153 70.4041 30.7756C70.9837 31.2358 71.7223 31.4659 72.62 31.4659ZM83.6335 15.5455V33H81.6222V15.5455H83.6335ZM92.6357 33.2727C91.4538 33.2727 90.4169 32.9915 89.5249 32.429C88.6385 31.8665 87.9453 31.0795 87.4453 30.0682C86.951 29.0568 86.7038 27.875 86.7038 26.5227C86.7038 25.1591 86.951 23.9687 87.4453 22.9517C87.9453 21.9347 88.6385 21.1449 89.5249 20.5824C90.4169 20.0199 91.4538 19.7386 92.6357 19.7386C93.8175 19.7386 94.8516 20.0199 95.7379 20.5824C96.63 21.1449 97.3232 21.9347 97.8175 22.9517C98.3175 23.9687 98.5675 25.1591 98.5675 26.5227C98.5675 27.875 98.3175 29.0568 97.8175 30.0682C97.3232 31.0795 96.63 31.8665 95.7379 32.429C94.8516 32.9915 93.8175 33.2727 92.6357 33.2727ZM92.6357 31.4659C93.5334 31.4659 94.272 31.2358 94.8516 30.7756C95.4311 30.3153 95.8601 29.7102 96.1385 28.9602C96.4169 28.2102 96.5561 27.3977 96.5561 26.5227C96.5561 25.6477 96.4169 24.8324 96.1385 24.0767C95.8601 23.321 95.4311 22.7102 94.8516 22.2443C94.272 21.7784 93.5334 21.5455 92.6357 21.5455C91.7379 21.5455 90.9993 21.7784 90.4197 22.2443C89.8402 22.7102 89.4112 23.321 89.1328 24.0767C88.8544 24.8324 88.7152 25.6477 88.7152 26.5227C88.7152 27.3977 88.8544 28.2102 89.1328 28.9602C89.4112 29.7102 89.8402 30.3153 90.4197 30.7756C90.9993 31.2358 91.7379 31.4659 92.6357 31.4659ZM101.638 33V19.9091H103.581V21.8864H103.717C103.956 21.2386 104.388 20.7131 105.013 20.3097C105.638 19.9062 106.342 19.7045 107.126 19.7045C107.274 19.7045 107.459 19.7074 107.68 19.7131C107.902 19.7187 108.07 19.7273 108.183 19.7386V21.7841C108.115 21.767 107.959 21.7415 107.714 21.7074C107.476 21.6676 107.223 21.6477 106.956 21.6477C106.32 21.6477 105.751 21.7812 105.251 22.0483C104.757 22.3097 104.365 22.6733 104.075 23.1392C103.791 23.5994 103.649 24.125 103.649 24.7159V33H101.638Z" fill="#F5F5F4"/>
<rect x="135.5" y="0.5" width="144" height="47" rx="7.5" fill="#1C1917"/>
<rect x="135.5" y="0.5" width="144" height="47" rx="7.5" stroke="#44403C"/>
<path d="M167 12C168.061 12 169.078 12.4214 169.828 13.1716C170.579 13.9217 171 14.9391 171 16V32C171 33.0609 170.579 34.0783 169.828 34.8284C169.078 35.5786 168.061 36 167 36H151C149.939 36 148.922 35.5786 148.172 34.8284C147.421 34.0783 147 33.0609 147 32V16C147 14.9391 147.421 13.9217 148.172 13.1716C148.922 12.4214 149.939 12 151 12H167ZM151 14C150.47 14 149.961 14.2107 149.586 14.5858C149.211 14.9609 149 15.4696 149 16V32C149 32.5304 149.211 33.0391 149.586 33.4142C149.961 33.7893 150.47 34 151 34H167C167.53 34 168.039 33.7893 168.414 33.4142C168.789 33.0391 169 32.5304 169 32V16C169 15.4696 168.789 14.9609 168.414 14.5858C168.039 14.2107 167.53 14 167 14H151ZM157.1 18.004C157.364 18.0303 157.607 18.1603 157.775 18.3655C157.943 18.5706 158.022 18.8341 157.996 19.098L157.906 20.002H160.896L161.006 18.902C161.037 18.6419 161.168 18.4043 161.372 18.2401C161.576 18.0759 161.837 17.9983 162.097 18.024C162.358 18.0497 162.598 18.1765 162.766 18.3774C162.934 18.5782 163.017 18.8369 162.996 19.098L162.906 20.002H164C164.265 20.002 164.52 20.1074 164.707 20.2949C164.895 20.4824 165 20.7368 165 21.002C165 21.2672 164.895 21.5216 164.707 21.7091C164.52 21.8966 164.265 22.002 164 22.002H162.704L162.306 26.002H164C164.265 26.002 164.52 26.1074 164.707 26.2949C164.895 26.4824 165 26.7368 165 27.002C165 27.2672 164.895 27.5216 164.707 27.7091C164.52 27.8966 164.265 28.002 164 28.002H162.104L161.996 29.098C161.954 29.3489 161.819 29.5746 161.617 29.7293C161.415 29.884 161.162 29.9563 160.909 29.9313C160.656 29.9064 160.422 29.7862 160.254 29.5951C160.087 29.4039 159.998 29.1562 160.006 28.902L160.094 28.002H157.104L156.996 29.098C156.954 29.3489 156.819 29.5746 156.617 29.7293C156.415 29.884 156.162 29.9563 155.909 29.9313C155.656 29.9064 155.422 29.7862 155.254 29.5951C155.087 29.4039 154.998 29.1562 155.006 28.902L155.094 28.002H154C153.735 28.002 153.48 27.8966 153.293 27.7091C153.105 27.5216 153 27.2672 153 27.002C153 26.7368 153.105 26.4824 153.293 26.2949C153.48 26.1074 153.735 26.002 154 26.002H155.294L155.694 22.002H154C153.735 22.002 153.48 21.8966 153.293 21.7091C153.105 21.5216 153 21.2672 153 21.002C153 20.7368 153.105 20.4824 153.293 20.2949C153.48 20.1074 153.735 20.002 154 20.002H155.896L156.006 18.902C156.032 18.6381 156.161 18.3953 156.366 18.2269C156.571 18.0585 156.834 17.9784 157.098 18.004M157.702 22.002L157.304 26.002H160.292L160.692 22.002H157.702Z" fill="#F5F5F4"/>
<path d="M198.955 15.5455V33H196.909L187.398 19.2955H187.227V33H185.114V15.5455H187.159L196.705 29.2841H196.875V15.5455H198.955ZM211.161 27.6477V19.9091H213.173V33H211.161V30.7841H211.025C210.718 31.4489 210.241 32.0142 209.593 32.4801C208.945 32.9403 208.127 33.1705 207.138 33.1705C206.32 33.1705 205.593 32.9915 204.957 32.6335C204.32 32.2699 203.82 31.7244 203.457 30.9972C203.093 30.2642 202.911 29.3409 202.911 28.2273V19.9091H204.923V28.0909C204.923 29.0455 205.19 29.8068 205.724 30.375C206.263 30.9432 206.951 31.2273 207.786 31.2273C208.286 31.2273 208.795 31.0994 209.312 30.8438C209.835 30.5881 210.272 30.196 210.624 29.6676C210.982 29.1392 211.161 28.4659 211.161 27.6477ZM216.857 33V19.9091H218.8V21.9545H218.97C219.243 21.2557 219.683 20.7131 220.291 20.3267C220.899 19.9347 221.629 19.7386 222.482 19.7386C223.345 19.7386 224.064 19.9347 224.638 20.3267C225.217 20.7131 225.669 21.2557 225.993 21.9545H226.129C226.464 21.2784 226.967 20.7415 227.638 20.3438C228.308 19.9403 229.112 19.7386 230.05 19.7386C231.22 19.7386 232.178 20.1051 232.922 20.8381C233.666 21.5653 234.038 22.6989 234.038 24.2386V33H232.027V24.2386C232.027 23.2727 231.763 22.5824 231.234 22.1676C230.706 21.7528 230.084 21.5455 229.368 21.5455C228.447 21.5455 227.734 21.8239 227.229 22.3807C226.723 22.9318 226.47 23.6307 226.47 24.4773V33H224.425V24.0341C224.425 23.2898 224.183 22.6903 223.7 22.2358C223.217 21.7756 222.595 21.5455 221.834 21.5455C221.311 21.5455 220.822 21.6847 220.368 21.9631C219.919 22.2415 219.555 22.6278 219.277 23.1222C219.004 23.6108 218.868 24.1761 218.868 24.8182V33H216.857ZM237.989 33V15.5455H240V21.9886H240.17C240.318 21.7614 240.523 21.4716 240.784 21.1193C241.051 20.7614 241.432 20.4432 241.926 20.1648C242.426 19.8807 243.102 19.7386 243.955 19.7386C245.057 19.7386 246.028 20.0142 246.869 20.5653C247.71 21.1165 248.366 21.8977 248.838 22.9091C249.31 23.9205 249.545 25.1136 249.545 26.4886C249.545 27.875 249.31 29.0767 248.838 30.0938C248.366 31.1051 247.713 31.8892 246.878 32.446C246.043 32.9972 245.08 33.2727 243.989 33.2727C243.148 33.2727 242.474 33.1335 241.969 32.8551C241.463 32.571 241.074 32.25 240.801 31.892C240.528 31.5284 240.318 31.2273 240.17 30.9886H239.932V33H237.989ZM239.966 26.4545C239.966 27.4432 240.111 28.3153 240.401 29.071C240.69 29.821 241.114 30.4091 241.67 30.8352C242.227 31.2557 242.909 31.4659 243.716 31.4659C244.557 31.4659 245.259 31.2443 245.821 30.8011C246.389 30.3523 246.815 29.75 247.099 28.9943C247.389 28.233 247.534 27.3864 247.534 26.4545C247.534 25.5341 247.392 24.7045 247.108 23.9659C246.83 23.2216 246.406 22.6335 245.838 22.2017C245.276 21.7642 244.568 21.5455 243.716 21.5455C242.898 21.5455 242.21 21.7528 241.653 22.1676C241.097 22.5767 240.676 23.1506 240.392 23.8892C240.108 24.6222 239.966 25.4773 239.966 26.4545ZM258.111 33.2727C256.849 33.2727 255.761 32.9943 254.847 32.4375C253.938 31.875 253.236 31.0909 252.741 30.0852C252.253 29.0739 252.009 27.8977 252.009 26.5568C252.009 25.2159 252.253 24.0341 252.741 23.0114C253.236 21.983 253.923 21.1818 254.804 20.608C255.69 20.0284 256.724 19.7386 257.906 19.7386C258.588 19.7386 259.261 19.8523 259.926 20.0795C260.591 20.3068 261.196 20.6761 261.741 21.1875C262.287 21.6932 262.722 22.3636 263.045 23.1989C263.369 24.0341 263.531 25.0625 263.531 26.2841V27.1364H253.44V25.3977H261.486C261.486 24.6591 261.338 24 261.043 23.4205C260.753 22.8409 260.338 22.3835 259.798 22.0483C259.264 21.7131 258.634 21.5455 257.906 21.5455C257.105 21.5455 256.412 21.7443 255.827 22.142C255.247 22.5341 254.801 23.0455 254.489 23.6761C254.176 24.3068 254.02 24.983 254.02 25.7045V26.8636C254.02 27.8523 254.19 28.6903 254.531 29.3778C254.878 30.0597 255.358 30.5795 255.972 30.9375C256.585 31.2898 257.298 31.4659 258.111 31.4659C258.639 31.4659 259.116 31.392 259.543 31.2443C259.974 31.0909 260.347 30.8636 260.659 30.5625C260.972 30.2557 261.213 29.875 261.384 29.4205L263.327 29.9659C263.122 30.625 262.778 31.2045 262.295 31.7045C261.813 32.1989 261.216 32.5852 260.506 32.8636C259.795 33.1364 258.997 33.2727 258.111 33.2727ZM266.591 33V19.9091H268.534V21.8864H268.67C268.909 21.2386 269.341 20.7131 269.966 20.3097C270.591 19.9062 271.295 19.7045 272.08 19.7045C272.227 19.7045 272.412 19.7074 272.634 19.7131C272.855 19.7187 273.023 19.7273 273.136 19.7386V21.7841C273.068 21.767 272.912 21.7415 272.668 21.7074C272.429 21.6676 272.176 21.6477 271.909 21.6477C271.273 21.6477 270.705 21.7812 270.205 22.0483C269.71 22.3097 269.318 22.6733 269.028 23.1392C268.744 23.5994 268.602 24.125 268.602 24.7159V33H266.591Z" fill="#F5F5F4"/>
<rect x="300.5" y="0.5" width="121" height="47" rx="7.5" fill="#1C1917"/>
<rect x="300.5" y="0.5" width="121" height="47" rx="7.5" stroke="#44403C"/>
<path fill-rule="evenodd" clip-rule="evenodd" d="M316 14H332C332.53 14 333.039 14.2107 333.414 14.5858C333.789 14.9609 334 15.4696 334 16V32C334 32.5304 333.789 33.0391 333.414 33.4142C333.039 33.7893 332.53 34 332 34H316C315.47 34 314.961 33.7893 314.586 33.4142C314.211 33.0391 314 32.5304 314 32V16C314 15.4696 314.211 14.9609 314.586 14.5858C314.961 14.2107 315.47 14 316 14ZM312 16C312 14.9391 312.421 13.9217 313.172 13.1716C313.922 12.4214 314.939 12 316 12H332C333.061 12 334.078 12.4214 334.828 13.1716C335.579 13.9217 336 14.9391 336 16V32C336 33.0609 335.579 34.0783 334.828 34.8284C334.078 35.5786 333.061 36 332 36H316C314.939 36 313.922 35.5786 313.172 34.8284C312.421 34.0783 312 33.0609 312 32V16ZM319 18C318.735 18 318.48 18.1054 318.293 18.2929C318.105 18.4804 318 18.7348 318 19V21C318 21.2652 318.105 21.5196 318.293 21.7071C318.48 21.8946 318.735 22 319 22C319.265 22 319.52 21.8946 319.707 21.7071C319.895 21.5196 320 21.2652 320 21V20H323V28H322C321.735 28 321.48 28.1054 321.293 28.2929C321.105 28.4804 321 28.7348 321 29C321 29.2652 321.105 29.5196 321.293 29.7071C321.48 29.8946 321.735 30 322 30H326C326.265 30 326.52 29.8946 326.707 29.7071C326.895 29.5196 327 29.2652 327 29C327 28.7348 326.895 28.4804 326.707 28.2929C326.52 28.1054 326.265 28 326 28H325V20H328V21C328 21.2652 328.105 21.5196 328.293 21.7071C328.48 21.8946 328.735 22 329 22C329.265 22 329.52 21.8946 329.707 21.7071C329.895 21.5196 330 21.2652 330 21V19C330 18.7348 329.895 18.4804 329.707 18.2929C329.52 18.1054 329.265 18 329 18H319Z" fill="#F5F5F4"/>
<path d="M359.659 19.9091C359.557 19.0455 359.142 18.375 358.415 17.8977C357.688 17.4205 356.795 17.1818 355.739 17.1818C354.966 17.1818 354.29 17.3068 353.71 17.5568C353.136 17.8068 352.688 18.1506 352.364 18.5881C352.045 19.0256 351.886 19.5227 351.886 20.0795C351.886 20.5455 351.997 20.946 352.219 21.2812C352.446 21.6108 352.736 21.8864 353.088 22.108C353.44 22.3239 353.81 22.5028 354.196 22.6449C354.582 22.7812 354.938 22.892 355.261 22.9773L357.034 23.4545C357.489 23.5739 357.994 23.7386 358.551 23.9489C359.114 24.1591 359.651 24.446 360.162 24.8097C360.679 25.1676 361.105 25.6278 361.44 26.1903C361.776 26.7528 361.943 27.4432 361.943 28.2614C361.943 29.2045 361.696 30.0568 361.202 30.8182C360.713 31.5795 359.997 32.1847 359.054 32.6335C358.116 33.0824 356.977 33.3068 355.636 33.3068C354.386 33.3068 353.304 33.1051 352.389 32.7017C351.48 32.2983 350.764 31.7358 350.241 31.0142C349.724 30.2926 349.432 29.4545 349.364 28.5H351.545C351.602 29.1591 351.824 29.7045 352.21 30.1364C352.602 30.5625 353.097 30.8807 353.693 31.0909C354.295 31.2955 354.943 31.3977 355.636 31.3977C356.443 31.3977 357.168 31.267 357.81 31.0057C358.452 30.7386 358.96 30.3693 359.335 29.8977C359.71 29.4205 359.898 28.8636 359.898 28.2273C359.898 27.6477 359.736 27.1761 359.412 26.8125C359.088 26.4489 358.662 26.1534 358.134 25.9261C357.605 25.6989 357.034 25.5 356.42 25.3295L354.273 24.7159C352.909 24.3239 351.83 23.7642 351.034 23.0369C350.239 22.3097 349.841 21.358 349.841 20.1818C349.841 19.2045 350.105 18.3523 350.634 17.625C351.168 16.892 351.884 16.3239 352.781 15.9205C353.685 15.5114 354.693 15.3068 355.807 15.3068C356.932 15.3068 357.932 15.5085 358.807 15.9119C359.682 16.3097 360.375 16.8551 360.886 17.5483C361.403 18.2415 361.676 19.0284 361.705 19.9091H359.659ZM370.839 19.9091V21.6136H364.055V19.9091H370.839ZM366.032 16.7727H368.043V29.25C368.043 29.8182 368.126 30.2443 368.29 30.5284C368.461 30.8068 368.677 30.9943 368.938 31.0909C369.205 31.1818 369.487 31.2273 369.782 31.2273C370.004 31.2273 370.185 31.2159 370.327 31.1932C370.469 31.1648 370.583 31.142 370.668 31.125L371.077 32.9318C370.941 32.983 370.751 33.0341 370.506 33.0852C370.262 33.142 369.952 33.1705 369.577 33.1705C369.009 33.1705 368.452 33.0483 367.907 32.804C367.367 32.5597 366.918 32.1875 366.56 31.6875C366.208 31.1875 366.032 30.5568 366.032 29.7955V16.7727ZM373.864 33V19.9091H375.808V21.8864H375.944C376.183 21.2386 376.614 20.7131 377.239 20.3097C377.864 19.9062 378.569 19.7045 379.353 19.7045C379.501 19.7045 379.685 19.7074 379.907 19.7131C380.129 19.7187 380.296 19.7273 380.41 19.7386V21.7841C380.342 21.767 380.185 21.7415 379.941 21.7074C379.702 21.6676 379.45 21.6477 379.183 21.6477C378.546 21.6477 377.978 21.7812 377.478 22.0483C376.984 22.3097 376.592 22.6733 376.302 23.1392C376.018 23.5994 375.876 24.125 375.876 24.7159V33H373.864ZM382.794 33V19.9091H384.805V33H382.794ZM383.817 17.7273C383.425 17.7273 383.087 17.5938 382.803 17.3267C382.524 17.0597 382.385 16.7386 382.385 16.3636C382.385 15.9886 382.524 15.6676 382.803 15.4006C383.087 15.1335 383.425 15 383.817 15C384.209 15 384.544 15.1335 384.822 15.4006C385.107 15.6676 385.249 15.9886 385.249 16.3636C385.249 16.7386 385.107 17.0597 384.822 17.3267C384.544 17.5938 384.209 17.7273 383.817 17.7273ZM390.501 25.125V33H388.489V19.9091H390.433V21.9545H390.603C390.91 21.2898 391.376 20.7557 392.001 20.3523C392.626 19.9432 393.433 19.7386 394.421 19.7386C395.308 19.7386 396.083 19.9205 396.748 20.2841C397.413 20.642 397.93 21.1875 398.299 21.9205C398.668 22.6477 398.853 23.5682 398.853 24.6818V33H396.842V24.8182C396.842 23.7898 396.575 22.9886 396.04 22.4148C395.506 21.8352 394.773 21.5455 393.842 21.5455C393.2 21.5455 392.626 21.6847 392.12 21.9631C391.62 22.2415 391.225 22.6477 390.935 23.1818C390.646 23.7159 390.501 24.3636 390.501 25.125ZM407.812 38.1818C406.841 38.1818 406.006 38.0568 405.307 37.8068C404.608 37.5625 404.026 37.2386 403.56 36.8352C403.099 36.4375 402.733 36.0114 402.46 35.5568L404.062 34.4318C404.244 34.6705 404.474 34.9432 404.753 35.25C405.031 35.5625 405.412 35.8324 405.895 36.0597C406.384 36.2926 407.023 36.4091 407.812 36.4091C408.869 36.4091 409.741 36.1534 410.429 35.642C411.116 35.1307 411.46 34.3295 411.46 33.2386V30.5795H411.29C411.142 30.8182 410.932 31.1136 410.659 31.4659C410.392 31.8125 410.006 32.1222 409.5 32.3949C409 32.6619 408.324 32.7955 407.472 32.7955C406.415 32.7955 405.466 32.5455 404.625 32.0455C403.79 31.5455 403.128 30.8182 402.639 29.8636C402.156 28.9091 401.915 27.75 401.915 26.3864C401.915 25.0455 402.151 23.8778 402.622 22.8835C403.094 21.8835 403.75 21.1108 404.591 20.5653C405.432 20.0142 406.403 19.7386 407.506 19.7386C408.358 19.7386 409.034 19.8807 409.534 20.1648C410.04 20.4432 410.426 20.7614 410.693 21.1193C410.966 21.4716 411.176 21.7614 411.324 21.9886H411.528V19.9091H413.472V33.375C413.472 34.5 413.216 35.4148 412.705 36.1193C412.199 36.8295 411.517 37.3494 410.659 37.679C409.807 38.0142 408.858 38.1818 407.812 38.1818ZM407.744 30.9886C408.551 30.9886 409.233 30.804 409.79 30.4347C410.347 30.0653 410.77 29.5341 411.06 28.8409C411.349 28.1477 411.494 27.3182 411.494 26.3523C411.494 25.4091 411.352 24.5767 411.068 23.8551C410.784 23.1335 410.364 22.5682 409.807 22.1591C409.25 21.75 408.563 21.5455 407.744 21.5455C406.892 21.5455 406.182 21.7614 405.614 22.1932C405.051 22.625 404.628 23.2045 404.344 23.9318C404.065 24.6591 403.926 25.4659 403.926 26.3523C403.926 27.2614 404.068 28.0653 404.352 28.7642C404.642 29.4574 405.068 30.0028 405.631 30.4006C406.199 30.7926 406.903 30.9886 407.744 30.9886Z" fill="#F5F5F4"/>
<rect x="442.5" y="0.5" width="145" height="47" rx="7.5" fill="#1C1917"/>
<rect x="442.5" y="0.5" width="145" height="47" rx="7.5" stroke="#44403C"/>
<path fill-rule="evenodd" clip-rule="evenodd" d="M462 16H470C472.122 16 474.157 16.8429 475.657 18.3431C477.157 19.8434 478 21.8783 478 24C478 26.1217 477.157 28.1566 475.657 29.6569C474.157 31.1571 472.122 32 470 32H462C459.878 32 457.843 31.1571 456.343 29.6569C454.843 28.1566 454 26.1217 454 24C454 21.8783 454.843 19.8434 456.343 18.3431C457.843 16.8429 459.878 16 462 16ZM452 24C452 21.3478 453.054 18.8043 454.929 16.9289C456.804 15.0536 459.348 14 462 14H470C472.652 14 475.196 15.0536 477.071 16.9289C478.946 18.8043 480 21.3478 480 24C480 26.6522 478.946 29.1957 477.071 31.0711C475.196 32.9464 472.652 34 470 34H462C459.348 34 456.804 32.9464 454.929 31.0711C453.054 29.1957 452 26.6522 452 24ZM462 28C460.939 28 459.922 27.5786 459.172 26.8284C458.421 26.0783 458 25.0609 458 24C458 22.9391 458.421 21.9217 459.172 21.1716C459.922 20.4214 460.939 20 462 20C463.061 20 464.078 20.4214 464.828 21.1716C465.579 21.9217 466 22.9391 466 24C466 25.0609 465.579 26.0783 464.828 26.8284C464.078 27.5786 463.061 28 462 28ZM456 24C456 22.4087 456.632 20.8826 457.757 19.7574C458.883 18.6321 460.409 18 462 18C463.591 18 465.117 18.6321 466.243 19.7574C467.368 20.8826 468 22.4087 468 24C468 25.5913 467.368 27.1174 466.243 28.2426C465.117 29.3679 463.591 30 462 30C460.409 30 458.883 29.3679 457.757 28.2426C456.632 27.1174 456 25.5913 456 24Z" fill="#F5F5F4"/>
<path d="M492.114 33V15.5455H498.216C499.432 15.5455 500.435 15.7557 501.224 16.1761C502.014 16.5909 502.602 17.1506 502.989 17.8551C503.375 18.554 503.568 19.3295 503.568 20.1818C503.568 20.9318 503.435 21.5511 503.168 22.0398C502.906 22.5284 502.56 22.9148 502.128 23.1989C501.702 23.483 501.239 23.6932 500.739 23.8295V24C501.273 24.0341 501.81 24.2216 502.349 24.5625C502.889 24.9034 503.341 25.392 503.705 26.0284C504.068 26.6648 504.25 27.4432 504.25 28.3636C504.25 29.2386 504.051 30.0256 503.653 30.7244C503.256 31.4233 502.628 31.9773 501.77 32.3864C500.912 32.7955 499.795 33 498.42 33H492.114ZM494.227 31.125H498.42C499.801 31.125 500.781 30.858 501.361 30.3239C501.946 29.7841 502.239 29.1307 502.239 28.3636C502.239 27.7727 502.088 27.2273 501.787 26.7273C501.486 26.2216 501.057 25.8182 500.5 25.517C499.943 25.2102 499.284 25.0568 498.523 25.0568H494.227V31.125ZM494.227 23.2159H498.148C498.784 23.2159 499.358 23.0909 499.869 22.8409C500.386 22.5909 500.795 22.2386 501.097 21.7841C501.403 21.3295 501.557 20.7955 501.557 20.1818C501.557 19.4148 501.29 18.7642 500.756 18.2301C500.222 17.6903 499.375 17.4205 498.216 17.4205H494.227V23.2159ZM512.768 33.2727C511.587 33.2727 510.55 32.9915 509.658 32.429C508.771 31.8665 508.078 31.0795 507.578 30.0682C507.084 29.0568 506.837 27.875 506.837 26.5227C506.837 25.1591 507.084 23.9687 507.578 22.9517C508.078 21.9347 508.771 21.1449 509.658 20.5824C510.55 20.0199 511.587 19.7386 512.768 19.7386C513.95 19.7386 514.984 20.0199 515.871 20.5824C516.763 21.1449 517.456 21.9347 517.95 22.9517C518.45 23.9687 518.7 25.1591 518.7 26.5227C518.7 27.875 518.45 29.0568 517.95 30.0682C517.456 31.0795 516.763 31.8665 515.871 32.429C514.984 32.9915 513.95 33.2727 512.768 33.2727ZM512.768 31.4659C513.666 31.4659 514.405 31.2358 514.984 30.7756C515.564 30.3153 515.993 29.7102 516.271 28.9602C516.55 28.2102 516.689 27.3977 516.689 26.5227C516.689 25.6477 516.55 24.8324 516.271 24.0767C515.993 23.321 515.564 22.7102 514.984 22.2443C514.405 21.7784 513.666 21.5455 512.768 21.5455C511.871 21.5455 511.132 21.7784 510.553 22.2443C509.973 22.7102 509.544 23.321 509.266 24.0767C508.987 24.8324 508.848 25.6477 508.848 26.5227C508.848 27.3977 508.987 28.2102 509.266 28.9602C509.544 29.7102 509.973 30.3153 510.553 30.7756C511.132 31.2358 511.871 31.4659 512.768 31.4659ZM527.089 33.2727C525.907 33.2727 524.87 32.9915 523.978 32.429C523.092 31.8665 522.398 31.0795 521.898 30.0682C521.404 29.0568 521.157 27.875 521.157 26.5227C521.157 25.1591 521.404 23.9687 521.898 22.9517C522.398 21.9347 523.092 21.1449 523.978 20.5824C524.87 20.0199 525.907 19.7386 527.089 19.7386C528.271 19.7386 529.305 20.0199 530.191 20.5824C531.083 21.1449 531.776 21.9347 532.271 22.9517C532.771 23.9687 533.021 25.1591 533.021 26.5227C533.021 27.875 532.771 29.0568 532.271 30.0682C531.776 31.0795 531.083 31.8665 530.191 32.429C529.305 32.9915 528.271 33.2727 527.089 33.2727ZM527.089 31.4659C527.987 31.4659 528.725 31.2358 529.305 30.7756C529.884 30.3153 530.313 29.7102 530.592 28.9602C530.87 28.2102 531.009 27.3977 531.009 26.5227C531.009 25.6477 530.87 24.8324 530.592 24.0767C530.313 23.321 529.884 22.7102 529.305 22.2443C528.725 21.7784 527.987 21.5455 527.089 21.5455C526.191 21.5455 525.452 21.7784 524.873 22.2443C524.293 22.7102 523.864 23.321 523.586 24.0767C523.308 24.8324 523.168 25.6477 523.168 26.5227C523.168 27.3977 523.308 28.2102 523.586 28.9602C523.864 29.7102 524.293 30.3153 524.873 30.7756C525.452 31.2358 526.191 31.4659 527.089 31.4659ZM538.102 15.5455V33H536.091V15.5455H538.102ZM547.275 33.2727C546.013 33.2727 544.925 32.9943 544.011 32.4375C543.102 31.875 542.4 31.0909 541.906 30.0852C541.417 29.0739 541.173 27.8977 541.173 26.5568C541.173 25.2159 541.417 24.0341 541.906 23.0114C542.4 21.983 543.087 21.1818 543.968 20.608C544.854 20.0284 545.888 19.7386 547.07 19.7386C547.752 19.7386 548.425 19.8523 549.09 20.0795C549.755 20.3068 550.36 20.6761 550.906 21.1875C551.451 21.6932 551.886 22.3636 552.21 23.1989C552.533 24.0341 552.695 25.0625 552.695 26.2841V27.1364H542.604V25.3977H550.65C550.65 24.6591 550.502 24 550.207 23.4205C549.917 22.8409 549.502 22.3835 548.962 22.0483C548.428 21.7131 547.798 21.5455 547.07 21.5455C546.269 21.5455 545.576 21.7443 544.991 22.142C544.411 22.5341 543.965 23.0455 543.653 23.6761C543.34 24.3068 543.184 24.983 543.184 25.7045V26.8636C543.184 27.8523 543.354 28.6903 543.695 29.3778C544.042 30.0597 544.522 30.5795 545.136 30.9375C545.749 31.2898 546.462 31.4659 547.275 31.4659C547.803 31.4659 548.281 31.392 548.707 31.2443C549.138 31.0909 549.511 30.8636 549.823 30.5625C550.136 30.2557 550.377 29.875 550.548 29.4205L552.491 29.9659C552.286 30.625 551.942 31.2045 551.46 31.7045C550.977 32.1989 550.38 32.5852 549.67 32.8636C548.96 33.1364 548.161 33.2727 547.275 33.2727ZM559.607 33.3068C558.778 33.3068 558.025 33.1506 557.349 32.8381C556.673 32.5199 556.136 32.0625 555.738 31.4659C555.34 30.8636 555.141 30.1364 555.141 29.2841C555.141 28.5341 555.289 27.9261 555.585 27.4602C555.88 26.9886 556.275 26.6193 556.769 26.3523C557.263 26.0852 557.809 25.8864 558.406 25.7557C559.008 25.6193 559.613 25.5114 560.221 25.4318C561.016 25.3295 561.661 25.2528 562.156 25.2017C562.656 25.1449 563.019 25.0511 563.246 24.9205C563.479 24.7898 563.596 24.5625 563.596 24.2386V24.1705C563.596 23.3295 563.366 22.6761 562.906 22.2102C562.451 21.7443 561.761 21.5114 560.835 21.5114C559.874 21.5114 559.121 21.7216 558.576 22.142C558.031 22.5625 557.647 23.0114 557.425 23.4886L555.516 22.8068C555.857 22.0114 556.312 21.392 556.88 20.9489C557.454 20.5 558.079 20.1875 558.755 20.0114C559.437 19.8295 560.107 19.7386 560.766 19.7386C561.187 19.7386 561.67 19.7898 562.215 19.892C562.766 19.9886 563.298 20.1903 563.809 20.4972C564.326 20.804 564.755 21.267 565.096 21.8864C565.437 22.5057 565.607 23.3352 565.607 24.375V33H563.596V31.2273H563.494C563.357 31.5114 563.13 31.8153 562.812 32.1392C562.494 32.4631 562.07 32.7386 561.542 32.9659C561.013 33.1932 560.369 33.3068 559.607 33.3068ZM559.914 31.5C560.71 31.5 561.38 31.3438 561.925 31.0312C562.477 30.7188 562.891 30.3153 563.17 29.821C563.454 29.3267 563.596 28.8068 563.596 28.2614V26.4205C563.511 26.5227 563.323 26.6165 563.033 26.7017C562.749 26.7812 562.42 26.8523 562.045 26.9148C561.675 26.9716 561.315 27.0227 560.962 27.0682C560.616 27.108 560.335 27.142 560.119 27.1705C559.596 27.2386 559.107 27.3494 558.653 27.5028C558.204 27.6506 557.84 27.875 557.562 28.1761C557.289 28.4716 557.153 28.875 557.153 29.3864C557.153 30.0852 557.411 30.6136 557.928 30.9716C558.451 31.3239 559.113 31.5 559.914 31.5ZM571.29 25.125V33H569.278V19.9091H571.222V21.9545H571.392C571.699 21.2898 572.165 20.7557 572.79 20.3523C573.415 19.9432 574.222 19.7386 575.21 19.7386C576.097 19.7386 576.872 19.9205 577.537 20.2841C578.202 20.642 578.719 21.1875 579.088 21.9205C579.457 22.6477 579.642 23.5682 579.642 24.6818V33H577.631V24.8182C577.631 23.7898 577.364 22.9886 576.83 22.4148C576.295 21.8352 575.563 21.5455 574.631 21.5455C573.989 21.5455 573.415 21.6847 572.909 21.9631C572.409 22.2415 572.014 22.6477 571.724 23.1818C571.435 23.7159 571.29 24.3636 571.29 25.125Z" fill="#F5F5F4"/>
</svg>
