<svg width="443" height="217" viewBox="0 0 443 217" fill="none" xmlns="http://www.w3.org/2000/svg">
<rect x="0.5" y="0.5" width="186" height="36" fill="#FFF1F2"/>
<rect x="0.5" y="0.5" width="186" height="36" stroke="#292524"/>
<path fill-rule="evenodd" clip-rule="evenodd" d="M15.375 12.25C15.5408 12.25 15.6997 12.3158 15.8169 12.4331C15.9342 12.5503 16 12.7092 16 12.875V14.75H21V12.875C21 12.7092 21.0658 12.5503 21.1831 12.4331C21.3003 12.3158 21.4592 12.25 21.625 12.25C21.7908 12.25 21.9497 12.3158 22.0669 12.4331C22.1842 12.5503 22.25 12.7092 22.25 12.875V14.75H24.125C24.2908 14.75 24.4497 14.8158 24.5669 14.9331C24.6842 15.0503 24.75 15.2092 24.75 15.375C24.75 15.5408 24.6842 15.6997 24.5669 15.8169C24.4497 15.9342 24.2908 16 24.125 16H22.25V21H24.125C24.2908 21 24.4497 21.0658 24.5669 21.1831C24.6842 21.3003 24.75 21.4592 24.75 21.625C24.75 21.7908 24.6842 21.9497 24.5669 22.0669C24.4497 22.1842 24.2908 22.25 24.125 22.25H22.25V24.125C22.25 24.2908 22.1842 24.4497 22.0669 24.5669C21.9497 24.6842 21.7908 24.75 21.625 24.75C21.4592 24.75 21.3003 24.6842 21.1831 24.5669C21.0658 24.4497 21 24.2908 21 24.125V22.25H16V24.125C16 24.2908 15.9342 24.4497 15.8169 24.5669C15.6997 24.6842 15.5408 24.75 15.375 24.75C15.2092 24.75 15.0503 24.6842 14.9331 24.5669C14.8158 24.4497 14.75 24.2908 14.75 24.125V22.25H12.875C12.7092 22.25 12.5503 22.1842 12.4331 22.0669C12.3158 21.9497 12.25 21.7908 12.25 21.625C12.25 21.4592 12.3158 21.3003 12.4331 21.1831C12.5503 21.0658 12.7092 21 12.875 21H14.75V16H12.875C12.7092 16 12.5503 15.9342 12.4331 15.8169C12.3158 15.6997 12.25 15.5408 12.25 15.375C12.25 15.2092 12.3158 15.0503 12.4331 14.9331C12.5503 14.8158 12.7092 14.75 12.875 14.75H14.75V12.875C14.75 12.7092 14.8158 12.5503 14.9331 12.4331C15.0503 12.3158 15.2092 12.25 15.375 12.25ZM21 21V16H16V21H21Z" fill="#44403C"/>
<path d="M38.021 23.5V13.7H44.069V15.072H39.533V17.9H43.705V19.272H39.533V23.5H38.021ZM45.5826 23.5V16.598H46.9966V17.41H47.2206C47.3326 17.1207 47.5099 16.9107 47.7526 16.78C48.0046 16.64 48.3126 16.57 48.6766 16.57H49.5026V17.872H48.6206C48.1539 17.872 47.7712 18.0027 47.4726 18.264C47.1739 18.516 47.0246 18.908 47.0246 19.44V23.5H45.5826ZM52.9472 23.696C52.4525 23.696 52.0092 23.612 51.6172 23.444C51.2345 23.276 50.9265 23.0287 50.6932 22.702C50.4692 22.3753 50.3572 21.9787 50.3572 21.512C50.3572 21.036 50.4692 20.644 50.6932 20.336C50.9265 20.0187 51.2392 19.7807 51.6312 19.622C52.0325 19.4633 52.4852 19.384 52.9892 19.384H55.0892V18.936C55.0892 18.5347 54.9679 18.2127 54.7252 17.97C54.4825 17.7273 54.1092 17.606 53.6052 17.606C53.1105 17.606 52.7325 17.7227 52.4712 17.956C52.2099 18.1893 52.0372 18.4927 51.9532 18.866L50.6092 18.432C50.7212 18.0587 50.8985 17.7227 51.1412 17.424C51.3932 17.116 51.7245 16.8687 52.1352 16.682C52.5459 16.4953 53.0405 16.402 53.6192 16.402C54.5152 16.402 55.2199 16.6307 55.7332 17.088C56.2465 17.5453 56.5032 18.194 56.5032 19.034V21.876C56.5032 22.156 56.6339 22.296 56.8952 22.296H57.4832V23.5H56.4052C56.0785 23.5 55.8125 23.416 55.6072 23.248C55.4019 23.08 55.2992 22.8513 55.2992 22.562V22.52H55.0892C55.0145 22.66 54.9025 22.8233 54.7532 23.01C54.6039 23.1967 54.3845 23.36 54.0952 23.5C53.8059 23.6307 53.4232 23.696 52.9472 23.696ZM53.1572 22.506C53.7359 22.506 54.2025 22.3427 54.5572 22.016C54.9119 21.68 55.0892 21.2227 55.0892 20.644V20.504H53.0732C52.6905 20.504 52.3825 20.588 52.1492 20.756C51.9159 20.9147 51.7992 21.1527 51.7992 21.47C51.7992 21.7873 51.9205 22.0393 52.1632 22.226C52.4059 22.4127 52.7372 22.506 53.1572 22.506ZM58.8853 23.5V16.598H60.2993V17.41H60.5233C60.654 17.1673 60.864 16.9527 61.1533 16.766C61.4426 16.5793 61.8346 16.486 62.3293 16.486C62.8426 16.486 63.2533 16.5933 63.5613 16.808C63.8786 17.0133 64.1166 17.2793 64.2753 17.606H64.4993C64.658 17.2887 64.8866 17.0227 65.1853 16.808C65.4933 16.5933 65.9273 16.486 66.4873 16.486C66.9353 16.486 67.332 16.5793 67.6773 16.766C68.0226 16.9433 68.298 17.214 68.5033 17.578C68.7086 17.9327 68.8113 18.376 68.8113 18.908V23.5H67.3693V19.02C67.3693 18.6 67.2526 18.278 67.0193 18.054C66.7953 17.8207 66.4733 17.704 66.0533 17.704C65.6053 17.704 65.246 17.8487 64.9753 18.138C64.7046 18.4273 64.5693 18.8427 64.5693 19.384V23.5H63.1273V19.02C63.1273 18.6 63.0106 18.278 62.7773 18.054C62.5533 17.8207 62.2313 17.704 61.8113 17.704C61.3633 17.704 61.004 17.8487 60.7333 18.138C60.4626 18.4273 60.3273 18.8427 60.3273 19.384V23.5H58.8853ZM74.0532 23.696C73.3532 23.696 72.7419 23.5513 72.2192 23.262C71.6965 22.9633 71.2859 22.548 70.9872 22.016C70.6979 21.4747 70.5532 20.8493 70.5532 20.14V19.972C70.5532 19.2533 70.6979 18.628 70.9872 18.096C71.2765 17.5547 71.6779 17.1393 72.1912 16.85C72.7139 16.5513 73.3159 16.402 73.9972 16.402C74.6599 16.402 75.2385 16.5513 75.7332 16.85C76.2372 17.1393 76.6292 17.5453 76.9092 18.068C77.1892 18.5907 77.3292 19.202 77.3292 19.902V20.448H72.0232C72.0419 21.0547 72.2425 21.54 72.6252 21.904C73.0172 22.2587 73.5025 22.436 74.0812 22.436C74.6225 22.436 75.0285 22.3147 75.2992 22.072C75.5792 21.8293 75.7939 21.5493 75.9432 21.232L77.1332 21.848C77.0025 22.1093 76.8112 22.3847 76.5592 22.674C76.3165 22.9633 75.9945 23.206 75.5932 23.402C75.1919 23.598 74.6785 23.696 74.0532 23.696ZM72.0372 19.342H75.8592C75.8219 18.8193 75.6352 18.4133 75.2992 18.124C74.9632 17.8253 74.5245 17.676 73.9832 17.676C73.4419 17.676 72.9985 17.8253 72.6532 18.124C72.3172 18.4133 72.1119 18.8193 72.0372 19.342Z" fill="#1C1917"/>
<rect x="0.5" y="36.5" width="186" height="36" fill="#FFF1F2"/>
<rect x="0.5" y="36.5" width="186" height="36" stroke="#292524"/>
<path fill-rule="evenodd" clip-rule="evenodd" d="M23.375 48.25C23.5408 48.25 23.6997 48.3158 23.8169 48.4331C23.9342 48.5503 24 48.7092 24 48.875V50.75H29V48.875C29 48.7092 29.0658 48.5503 29.1831 48.4331C29.3003 48.3158 29.4592 48.25 29.625 48.25C29.7908 48.25 29.9497 48.3158 30.0669 48.4331C30.1842 48.5503 30.25 48.7092 30.25 48.875V50.75H32.125C32.2908 50.75 32.4497 50.8158 32.5669 50.9331C32.6842 51.0503 32.75 51.2092 32.75 51.375C32.75 51.5408 32.6842 51.6997 32.5669 51.8169C32.4497 51.9342 32.2908 52 32.125 52H30.25V57H32.125C32.2908 57 32.4497 57.0658 32.5669 57.1831C32.6842 57.3003 32.75 57.4592 32.75 57.625C32.75 57.7908 32.6842 57.9497 32.5669 58.0669C32.4497 58.1842 32.2908 58.25 32.125 58.25H30.25V60.125C30.25 60.2908 30.1842 60.4497 30.0669 60.5669C29.9497 60.6842 29.7908 60.75 29.625 60.75C29.4592 60.75 29.3003 60.6842 29.1831 60.5669C29.0658 60.4497 29 60.2908 29 60.125V58.25H24V60.125C24 60.2908 23.9342 60.4497 23.8169 60.5669C23.6997 60.6842 23.5408 60.75 23.375 60.75C23.2092 60.75 23.0503 60.6842 22.9331 60.5669C22.8158 60.4497 22.75 60.2908 22.75 60.125V58.25H20.875C20.7092 58.25 20.5503 58.1842 20.4331 58.0669C20.3158 57.9497 20.25 57.7908 20.25 57.625C20.25 57.4592 20.3158 57.3003 20.4331 57.1831C20.5503 57.0658 20.7092 57 20.875 57H22.75V52H20.875C20.7092 52 20.5503 51.9342 20.4331 51.8169C20.3158 51.6997 20.25 51.5408 20.25 51.375C20.25 51.2092 20.3158 51.0503 20.4331 50.9331C20.5503 50.8158 20.7092 50.75 20.875 50.75H22.75V48.875C22.75 48.7092 22.8158 48.5503 22.9331 48.4331C23.0503 48.3158 23.2092 48.25 23.375 48.25ZM29 57V52H24V57H29Z" fill="#44403C"/>
<path d="M46.021 59.5V49.7H52.069V51.072H47.533V53.9H51.705V55.272H47.533V59.5H46.021ZM53.5826 59.5V52.598H54.9966V53.41H55.2206C55.3326 53.1207 55.5099 52.9107 55.7526 52.78C56.0046 52.64 56.3126 52.57 56.6766 52.57H57.5026V53.872H56.6206C56.1539 53.872 55.7712 54.0027 55.4726 54.264C55.1739 54.516 55.0246 54.908 55.0246 55.44V59.5H53.5826ZM60.9472 59.696C60.4525 59.696 60.0092 59.612 59.6172 59.444C59.2345 59.276 58.9265 59.0287 58.6932 58.702C58.4692 58.3753 58.3572 57.9787 58.3572 57.512C58.3572 57.036 58.4692 56.644 58.6932 56.336C58.9265 56.0187 59.2392 55.7807 59.6312 55.622C60.0325 55.4633 60.4852 55.384 60.9892 55.384H63.0892V54.936C63.0892 54.5347 62.9679 54.2127 62.7252 53.97C62.4825 53.7273 62.1092 53.606 61.6052 53.606C61.1105 53.606 60.7325 53.7227 60.4712 53.956C60.2099 54.1893 60.0372 54.4927 59.9532 54.866L58.6092 54.432C58.7212 54.0587 58.8985 53.7227 59.1412 53.424C59.3932 53.116 59.7245 52.8687 60.1352 52.682C60.5459 52.4953 61.0405 52.402 61.6192 52.402C62.5152 52.402 63.2199 52.6307 63.7332 53.088C64.2465 53.5453 64.5032 54.194 64.5032 55.034V57.876C64.5032 58.156 64.6339 58.296 64.8952 58.296H65.4832V59.5H64.4052C64.0785 59.5 63.8125 59.416 63.6072 59.248C63.4019 59.08 63.2992 58.8513 63.2992 58.562V58.52H63.0892C63.0145 58.66 62.9025 58.8233 62.7532 59.01C62.6039 59.1967 62.3845 59.36 62.0952 59.5C61.8059 59.6307 61.4232 59.696 60.9472 59.696ZM61.1572 58.506C61.7359 58.506 62.2025 58.3427 62.5572 58.016C62.9119 57.68 63.0892 57.2227 63.0892 56.644V56.504H61.0732C60.6905 56.504 60.3825 56.588 60.1492 56.756C59.9159 56.9147 59.7992 57.1527 59.7992 57.47C59.7992 57.7873 59.9205 58.0393 60.1632 58.226C60.4059 58.4127 60.7372 58.506 61.1572 58.506ZM66.8853 59.5V52.598H68.2993V53.41H68.5233C68.654 53.1673 68.864 52.9527 69.1533 52.766C69.4426 52.5793 69.8346 52.486 70.3293 52.486C70.8426 52.486 71.2533 52.5933 71.5613 52.808C71.8786 53.0133 72.1166 53.2793 72.2753 53.606H72.4993C72.658 53.2887 72.8866 53.0227 73.1853 52.808C73.4933 52.5933 73.9273 52.486 74.4873 52.486C74.9353 52.486 75.332 52.5793 75.6773 52.766C76.0226 52.9433 76.298 53.214 76.5033 53.578C76.7086 53.9327 76.8113 54.376 76.8113 54.908V59.5H75.3693V55.02C75.3693 54.6 75.2526 54.278 75.0193 54.054C74.7953 53.8207 74.4733 53.704 74.0533 53.704C73.6053 53.704 73.246 53.8487 72.9753 54.138C72.7046 54.4273 72.5693 54.8427 72.5693 55.384V59.5H71.1273V55.02C71.1273 54.6 71.0106 54.278 70.7773 54.054C70.5533 53.8207 70.2313 53.704 69.8113 53.704C69.3633 53.704 69.004 53.8487 68.7333 54.138C68.4626 54.4273 68.3273 54.8427 68.3273 55.384V59.5H66.8853ZM82.0532 59.696C81.3532 59.696 80.7419 59.5513 80.2192 59.262C79.6965 58.9633 79.2859 58.548 78.9872 58.016C78.6979 57.4747 78.5532 56.8493 78.5532 56.14V55.972C78.5532 55.2533 78.6979 54.628 78.9872 54.096C79.2765 53.5547 79.6779 53.1393 80.1912 52.85C80.7139 52.5513 81.3159 52.402 81.9972 52.402C82.6599 52.402 83.2385 52.5513 83.7332 52.85C84.2372 53.1393 84.6292 53.5453 84.9092 54.068C85.1892 54.5907 85.3292 55.202 85.3292 55.902V56.448H80.0232C80.0419 57.0547 80.2425 57.54 80.6252 57.904C81.0172 58.2587 81.5025 58.436 82.0812 58.436C82.6225 58.436 83.0285 58.3147 83.2992 58.072C83.5792 57.8293 83.7939 57.5493 83.9432 57.232L85.1332 57.848C85.0025 58.1093 84.8112 58.3847 84.5592 58.674C84.3165 58.9633 83.9945 59.206 83.5932 59.402C83.1919 59.598 82.6785 59.696 82.0532 59.696ZM80.0372 55.342H83.8592C83.8219 54.8193 83.6352 54.4133 83.2992 54.124C82.9632 53.8253 82.5245 53.676 81.9832 53.676C81.4419 53.676 80.9985 53.8253 80.6532 54.124C80.3172 54.4133 80.1119 54.8193 80.0372 55.342Z" fill="#1C1917"/>
<rect x="0.5" y="72.5" width="186" height="36" fill="#FFF1F2"/>
<rect x="0.5" y="72.5" width="186" height="36" stroke="#292524"/>
<path fill-rule="evenodd" clip-rule="evenodd" d="M31.375 84.25C31.5408 84.25 31.6997 84.3158 31.8169 84.4331C31.9342 84.5503 32 84.7092 32 84.875V86.75H37V84.875C37 84.7092 37.0658 84.5503 37.1831 84.4331C37.3003 84.3158 37.4592 84.25 37.625 84.25C37.7908 84.25 37.9497 84.3158 38.0669 84.4331C38.1842 84.5503 38.25 84.7092 38.25 84.875V86.75H40.125C40.2908 86.75 40.4497 86.8158 40.5669 86.9331C40.6842 87.0503 40.75 87.2092 40.75 87.375C40.75 87.5408 40.6842 87.6997 40.5669 87.8169C40.4497 87.9342 40.2908 88 40.125 88H38.25V93H40.125C40.2908 93 40.4497 93.0658 40.5669 93.1831C40.6842 93.3003 40.75 93.4592 40.75 93.625C40.75 93.7908 40.6842 93.9497 40.5669 94.0669C40.4497 94.1842 40.2908 94.25 40.125 94.25H38.25V96.125C38.25 96.2908 38.1842 96.4497 38.0669 96.5669C37.9497 96.6842 37.7908 96.75 37.625 96.75C37.4592 96.75 37.3003 96.6842 37.1831 96.5669C37.0658 96.4497 37 96.2908 37 96.125V94.25H32V96.125C32 96.2908 31.9342 96.4497 31.8169 96.5669C31.6997 96.6842 31.5408 96.75 31.375 96.75C31.2092 96.75 31.0503 96.6842 30.9331 96.5669C30.8158 96.4497 30.75 96.2908 30.75 96.125V94.25H28.875C28.7092 94.25 28.5503 94.1842 28.4331 94.0669C28.3158 93.9497 28.25 93.7908 28.25 93.625C28.25 93.4592 28.3158 93.3003 28.4331 93.1831C28.5503 93.0658 28.7092 93 28.875 93H30.75V88H28.875C28.7092 88 28.5503 87.9342 28.4331 87.8169C28.3158 87.6997 28.25 87.5408 28.25 87.375C28.25 87.2092 28.3158 87.0503 28.4331 86.9331C28.5503 86.8158 28.7092 86.75 28.875 86.75H30.75V84.875C30.75 84.7092 30.8158 84.5503 30.9331 84.4331C31.0503 84.3158 31.2092 84.25 31.375 84.25ZM37 93V88H32V93H37Z" fill="#44403C"/>
<path d="M54.021 95.5V85.7H60.069V87.072H55.533V89.9H59.705V91.272H55.533V95.5H54.021ZM61.5826 95.5V88.598H62.9966V89.41H63.2206C63.3326 89.1207 63.5099 88.9107 63.7526 88.78C64.0046 88.64 64.3126 88.57 64.6766 88.57H65.5026V89.872H64.6206C64.1539 89.872 63.7712 90.0027 63.4726 90.264C63.1739 90.516 63.0246 90.908 63.0246 91.44V95.5H61.5826ZM68.9472 95.696C68.4525 95.696 68.0092 95.612 67.6172 95.444C67.2345 95.276 66.9265 95.0287 66.6932 94.702C66.4692 94.3753 66.3572 93.9787 66.3572 93.512C66.3572 93.036 66.4692 92.644 66.6932 92.336C66.9265 92.0187 67.2392 91.7807 67.6312 91.622C68.0325 91.4633 68.4852 91.384 68.9892 91.384H71.0892V90.936C71.0892 90.5347 70.9679 90.2127 70.7252 89.97C70.4825 89.7273 70.1092 89.606 69.6052 89.606C69.1105 89.606 68.7325 89.7227 68.4712 89.956C68.2099 90.1893 68.0372 90.4927 67.9532 90.866L66.6092 90.432C66.7212 90.0587 66.8985 89.7227 67.1412 89.424C67.3932 89.116 67.7245 88.8687 68.1352 88.682C68.5459 88.4953 69.0405 88.402 69.6192 88.402C70.5152 88.402 71.2199 88.6307 71.7332 89.088C72.2465 89.5453 72.5032 90.194 72.5032 91.034V93.876C72.5032 94.156 72.6339 94.296 72.8952 94.296H73.4832V95.5H72.4052C72.0785 95.5 71.8125 95.416 71.6072 95.248C71.4019 95.08 71.2992 94.8513 71.2992 94.562V94.52H71.0892C71.0145 94.66 70.9025 94.8233 70.7532 95.01C70.6039 95.1967 70.3845 95.36 70.0952 95.5C69.8059 95.6307 69.4232 95.696 68.9472 95.696ZM69.1572 94.506C69.7359 94.506 70.2025 94.3427 70.5572 94.016C70.9119 93.68 71.0892 93.2227 71.0892 92.644V92.504H69.0732C68.6905 92.504 68.3825 92.588 68.1492 92.756C67.9159 92.9147 67.7992 93.1527 67.7992 93.47C67.7992 93.7873 67.9205 94.0393 68.1632 94.226C68.4059 94.4127 68.7372 94.506 69.1572 94.506ZM74.8853 95.5V88.598H76.2993V89.41H76.5233C76.654 89.1673 76.864 88.9527 77.1533 88.766C77.4426 88.5793 77.8346 88.486 78.3293 88.486C78.8426 88.486 79.2533 88.5933 79.5613 88.808C79.8786 89.0133 80.1166 89.2793 80.2753 89.606H80.4993C80.658 89.2887 80.8866 89.0227 81.1853 88.808C81.4933 88.5933 81.9273 88.486 82.4873 88.486C82.9353 88.486 83.332 88.5793 83.6773 88.766C84.0226 88.9433 84.298 89.214 84.5033 89.578C84.7086 89.9327 84.8113 90.376 84.8113 90.908V95.5H83.3693V91.02C83.3693 90.6 83.2526 90.278 83.0193 90.054C82.7953 89.8207 82.4733 89.704 82.0533 89.704C81.6053 89.704 81.246 89.8487 80.9753 90.138C80.7046 90.4273 80.5693 90.8427 80.5693 91.384V95.5H79.1273V91.02C79.1273 90.6 79.0106 90.278 78.7773 90.054C78.5533 89.8207 78.2313 89.704 77.8113 89.704C77.3633 89.704 77.004 89.8487 76.7333 90.138C76.4626 90.4273 76.3273 90.8427 76.3273 91.384V95.5H74.8853ZM90.0532 95.696C89.3532 95.696 88.7419 95.5513 88.2192 95.262C87.6965 94.9633 87.2859 94.548 86.9872 94.016C86.6979 93.4747 86.5532 92.8493 86.5532 92.14V91.972C86.5532 91.2533 86.6979 90.628 86.9872 90.096C87.2765 89.5547 87.6779 89.1393 88.1912 88.85C88.7139 88.5513 89.3159 88.402 89.9972 88.402C90.6599 88.402 91.2385 88.5513 91.7332 88.85C92.2372 89.1393 92.6292 89.5453 92.9092 90.068C93.1892 90.5907 93.3292 91.202 93.3292 91.902V92.448H88.0232C88.0419 93.0547 88.2425 93.54 88.6252 93.904C89.0172 94.2587 89.5025 94.436 90.0812 94.436C90.6225 94.436 91.0285 94.3147 91.2992 94.072C91.5792 93.8293 91.7939 93.5493 91.9432 93.232L93.1332 93.848C93.0025 94.1093 92.8112 94.3847 92.5592 94.674C92.3165 94.9633 91.9945 95.206 91.5932 95.402C91.1919 95.598 90.6785 95.696 90.0532 95.696ZM88.0372 91.342H91.8592C91.8219 90.8193 91.6352 90.4133 91.2992 90.124C90.9632 89.8253 90.5245 89.676 89.9832 89.676C89.4419 89.676 88.9985 89.8253 88.6532 90.124C88.3172 90.4133 88.1119 90.8193 88.0372 91.342Z" fill="#1C1917"/>
<rect x="0.5" y="108.5" width="186" height="36" fill="#FFF1F2"/>
<rect x="0.5" y="108.5" width="186" height="36" stroke="#292524"/>
<path fill-rule="evenodd" clip-rule="evenodd" d="M23.375 120.25C23.5408 120.25 23.6997 120.316 23.8169 120.433C23.9342 120.55 24 120.709 24 120.875V122.75H29V120.875C29 120.709 29.0658 120.55 29.1831 120.433C29.3003 120.316 29.4592 120.25 29.625 120.25C29.7908 120.25 29.9497 120.316 30.0669 120.433C30.1842 120.55 30.25 120.709 30.25 120.875V122.75H32.125C32.2908 122.75 32.4497 122.816 32.5669 122.933C32.6842 123.05 32.75 123.209 32.75 123.375C32.75 123.541 32.6842 123.7 32.5669 123.817C32.4497 123.934 32.2908 124 32.125 124H30.25V129H32.125C32.2908 129 32.4497 129.066 32.5669 129.183C32.6842 129.3 32.75 129.459 32.75 129.625C32.75 129.791 32.6842 129.95 32.5669 130.067C32.4497 130.184 32.2908 130.25 32.125 130.25H30.25V132.125C30.25 132.291 30.1842 132.45 30.0669 132.567C29.9497 132.684 29.7908 132.75 29.625 132.75C29.4592 132.75 29.3003 132.684 29.1831 132.567C29.0658 132.45 29 132.291 29 132.125V130.25H24V132.125C24 132.291 23.9342 132.45 23.8169 132.567C23.6997 132.684 23.5408 132.75 23.375 132.75C23.2092 132.75 23.0503 132.684 22.9331 132.567C22.8158 132.45 22.75 132.291 22.75 132.125V130.25H20.875C20.7092 130.25 20.5503 130.184 20.4331 130.067C20.3158 129.95 20.25 129.791 20.25 129.625C20.25 129.459 20.3158 129.3 20.4331 129.183C20.5503 129.066 20.7092 129 20.875 129H22.75V124H20.875C20.7092 124 20.5503 123.934 20.4331 123.817C20.3158 123.7 20.25 123.541 20.25 123.375C20.25 123.209 20.3158 123.05 20.4331 122.933C20.5503 122.816 20.7092 122.75 20.875 122.75H22.75V120.875C22.75 120.709 22.8158 120.55 22.9331 120.433C23.0503 120.316 23.2092 120.25 23.375 120.25ZM29 129V124H24V129H29Z" fill="#44403C"/>
<path d="M46.021 131.5V121.7H52.069V123.072H47.533V125.9H51.705V127.272H47.533V131.5H46.021ZM53.5826 131.5V124.598H54.9966V125.41H55.2206C55.3326 125.121 55.5099 124.911 55.7526 124.78C56.0046 124.64 56.3126 124.57 56.6766 124.57H57.5026V125.872H56.6206C56.1539 125.872 55.7712 126.003 55.4726 126.264C55.1739 126.516 55.0246 126.908 55.0246 127.44V131.5H53.5826ZM60.9472 131.696C60.4525 131.696 60.0092 131.612 59.6172 131.444C59.2345 131.276 58.9265 131.029 58.6932 130.702C58.4692 130.375 58.3572 129.979 58.3572 129.512C58.3572 129.036 58.4692 128.644 58.6932 128.336C58.9265 128.019 59.2392 127.781 59.6312 127.622C60.0325 127.463 60.4852 127.384 60.9892 127.384H63.0892V126.936C63.0892 126.535 62.9679 126.213 62.7252 125.97C62.4825 125.727 62.1092 125.606 61.6052 125.606C61.1105 125.606 60.7325 125.723 60.4712 125.956C60.2099 126.189 60.0372 126.493 59.9532 126.866L58.6092 126.432C58.7212 126.059 58.8985 125.723 59.1412 125.424C59.3932 125.116 59.7245 124.869 60.1352 124.682C60.5459 124.495 61.0405 124.402 61.6192 124.402C62.5152 124.402 63.2199 124.631 63.7332 125.088C64.2465 125.545 64.5032 126.194 64.5032 127.034V129.876C64.5032 130.156 64.6339 130.296 64.8952 130.296H65.4832V131.5H64.4052C64.0785 131.5 63.8125 131.416 63.6072 131.248C63.4019 131.08 63.2992 130.851 63.2992 130.562V130.52H63.0892C63.0145 130.66 62.9025 130.823 62.7532 131.01C62.6039 131.197 62.3845 131.36 62.0952 131.5C61.8059 131.631 61.4232 131.696 60.9472 131.696ZM61.1572 130.506C61.7359 130.506 62.2025 130.343 62.5572 130.016C62.9119 129.68 63.0892 129.223 63.0892 128.644V128.504H61.0732C60.6905 128.504 60.3825 128.588 60.1492 128.756C59.9159 128.915 59.7992 129.153 59.7992 129.47C59.7992 129.787 59.9205 130.039 60.1632 130.226C60.4059 130.413 60.7372 130.506 61.1572 130.506ZM66.8853 131.5V124.598H68.2993V125.41H68.5233C68.654 125.167 68.864 124.953 69.1533 124.766C69.4426 124.579 69.8346 124.486 70.3293 124.486C70.8426 124.486 71.2533 124.593 71.5613 124.808C71.8786 125.013 72.1166 125.279 72.2753 125.606H72.4993C72.658 125.289 72.8866 125.023 73.1853 124.808C73.4933 124.593 73.9273 124.486 74.4873 124.486C74.9353 124.486 75.332 124.579 75.6773 124.766C76.0226 124.943 76.298 125.214 76.5033 125.578C76.7086 125.933 76.8113 126.376 76.8113 126.908V131.5H75.3693V127.02C75.3693 126.6 75.2526 126.278 75.0193 126.054C74.7953 125.821 74.4733 125.704 74.0533 125.704C73.6053 125.704 73.246 125.849 72.9753 126.138C72.7046 126.427 72.5693 126.843 72.5693 127.384V131.5H71.1273V127.02C71.1273 126.6 71.0106 126.278 70.7773 126.054C70.5533 125.821 70.2313 125.704 69.8113 125.704C69.3633 125.704 69.004 125.849 68.7333 126.138C68.4626 126.427 68.3273 126.843 68.3273 127.384V131.5H66.8853ZM82.0532 131.696C81.3532 131.696 80.7419 131.551 80.2192 131.262C79.6965 130.963 79.2859 130.548 78.9872 130.016C78.6979 129.475 78.5532 128.849 78.5532 128.14V127.972C78.5532 127.253 78.6979 126.628 78.9872 126.096C79.2765 125.555 79.6779 125.139 80.1912 124.85C80.7139 124.551 81.3159 124.402 81.9972 124.402C82.6599 124.402 83.2385 124.551 83.7332 124.85C84.2372 125.139 84.6292 125.545 84.9092 126.068C85.1892 126.591 85.3292 127.202 85.3292 127.902V128.448H80.0232C80.0419 129.055 80.2425 129.54 80.6252 129.904C81.0172 130.259 81.5025 130.436 82.0812 130.436C82.6225 130.436 83.0285 130.315 83.2992 130.072C83.5792 129.829 83.7939 129.549 83.9432 129.232L85.1332 129.848C85.0025 130.109 84.8112 130.385 84.5592 130.674C84.3165 130.963 83.9945 131.206 83.5932 131.402C83.1919 131.598 82.6785 131.696 82.0532 131.696ZM80.0372 127.342H83.8592C83.8219 126.819 83.6352 126.413 83.2992 126.124C82.9632 125.825 82.5245 125.676 81.9832 125.676C81.4419 125.676 80.9985 125.825 80.6532 126.124C80.3172 126.413 80.1119 126.819 80.0372 127.342Z" fill="#1C1917"/>
<rect x="0.5" y="144.5" width="186" height="36" fill="#FFF1F2"/>
<rect x="0.5" y="144.5" width="186" height="36" stroke="#292524"/>
<path fill-rule="evenodd" clip-rule="evenodd" d="M31.375 156.25C31.5408 156.25 31.6997 156.316 31.8169 156.433C31.9342 156.55 32 156.709 32 156.875V158.75H37V156.875C37 156.709 37.0658 156.55 37.1831 156.433C37.3003 156.316 37.4592 156.25 37.625 156.25C37.7908 156.25 37.9497 156.316 38.0669 156.433C38.1842 156.55 38.25 156.709 38.25 156.875V158.75H40.125C40.2908 158.75 40.4497 158.816 40.5669 158.933C40.6842 159.05 40.75 159.209 40.75 159.375C40.75 159.541 40.6842 159.7 40.5669 159.817C40.4497 159.934 40.2908 160 40.125 160H38.25V165H40.125C40.2908 165 40.4497 165.066 40.5669 165.183C40.6842 165.3 40.75 165.459 40.75 165.625C40.75 165.791 40.6842 165.95 40.5669 166.067C40.4497 166.184 40.2908 166.25 40.125 166.25H38.25V168.125C38.25 168.291 38.1842 168.45 38.0669 168.567C37.9497 168.684 37.7908 168.75 37.625 168.75C37.4592 168.75 37.3003 168.684 37.1831 168.567C37.0658 168.45 37 168.291 37 168.125V166.25H32V168.125C32 168.291 31.9342 168.45 31.8169 168.567C31.6997 168.684 31.5408 168.75 31.375 168.75C31.2092 168.75 31.0503 168.684 30.9331 168.567C30.8158 168.45 30.75 168.291 30.75 168.125V166.25H28.875C28.7092 166.25 28.5503 166.184 28.4331 166.067C28.3158 165.95 28.25 165.791 28.25 165.625C28.25 165.459 28.3158 165.3 28.4331 165.183C28.5503 165.066 28.7092 165 28.875 165H30.75V160H28.875C28.7092 160 28.5503 159.934 28.4331 159.817C28.3158 159.7 28.25 159.541 28.25 159.375C28.25 159.209 28.3158 159.05 28.4331 158.933C28.5503 158.816 28.7092 158.75 28.875 158.75H30.75V156.875C30.75 156.709 30.8158 156.55 30.9331 156.433C31.0503 156.316 31.2092 156.25 31.375 156.25ZM37 165V160H32V165H37Z" fill="#44403C"/>
<path d="M54.021 167.5V157.7H60.069V159.072H55.533V161.9H59.705V163.272H55.533V167.5H54.021ZM61.5826 167.5V160.598H62.9966V161.41H63.2206C63.3326 161.121 63.5099 160.911 63.7526 160.78C64.0046 160.64 64.3126 160.57 64.6766 160.57H65.5026V161.872H64.6206C64.1539 161.872 63.7712 162.003 63.4726 162.264C63.1739 162.516 63.0246 162.908 63.0246 163.44V167.5H61.5826ZM68.9472 167.696C68.4525 167.696 68.0092 167.612 67.6172 167.444C67.2345 167.276 66.9265 167.029 66.6932 166.702C66.4692 166.375 66.3572 165.979 66.3572 165.512C66.3572 165.036 66.4692 164.644 66.6932 164.336C66.9265 164.019 67.2392 163.781 67.6312 163.622C68.0325 163.463 68.4852 163.384 68.9892 163.384H71.0892V162.936C71.0892 162.535 70.9679 162.213 70.7252 161.97C70.4825 161.727 70.1092 161.606 69.6052 161.606C69.1105 161.606 68.7325 161.723 68.4712 161.956C68.2099 162.189 68.0372 162.493 67.9532 162.866L66.6092 162.432C66.7212 162.059 66.8985 161.723 67.1412 161.424C67.3932 161.116 67.7245 160.869 68.1352 160.682C68.5459 160.495 69.0405 160.402 69.6192 160.402C70.5152 160.402 71.2199 160.631 71.7332 161.088C72.2465 161.545 72.5032 162.194 72.5032 163.034V165.876C72.5032 166.156 72.6339 166.296 72.8952 166.296H73.4832V167.5H72.4052C72.0785 167.5 71.8125 167.416 71.6072 167.248C71.4019 167.08 71.2992 166.851 71.2992 166.562V166.52H71.0892C71.0145 166.66 70.9025 166.823 70.7532 167.01C70.6039 167.197 70.3845 167.36 70.0952 167.5C69.8059 167.631 69.4232 167.696 68.9472 167.696ZM69.1572 166.506C69.7359 166.506 70.2025 166.343 70.5572 166.016C70.9119 165.68 71.0892 165.223 71.0892 164.644V164.504H69.0732C68.6905 164.504 68.3825 164.588 68.1492 164.756C67.9159 164.915 67.7992 165.153 67.7992 165.47C67.7992 165.787 67.9205 166.039 68.1632 166.226C68.4059 166.413 68.7372 166.506 69.1572 166.506ZM74.8853 167.5V160.598H76.2993V161.41H76.5233C76.654 161.167 76.864 160.953 77.1533 160.766C77.4426 160.579 77.8346 160.486 78.3293 160.486C78.8426 160.486 79.2533 160.593 79.5613 160.808C79.8786 161.013 80.1166 161.279 80.2753 161.606H80.4993C80.658 161.289 80.8866 161.023 81.1853 160.808C81.4933 160.593 81.9273 160.486 82.4873 160.486C82.9353 160.486 83.332 160.579 83.6773 160.766C84.0226 160.943 84.298 161.214 84.5033 161.578C84.7086 161.933 84.8113 162.376 84.8113 162.908V167.5H83.3693V163.02C83.3693 162.6 83.2526 162.278 83.0193 162.054C82.7953 161.821 82.4733 161.704 82.0533 161.704C81.6053 161.704 81.246 161.849 80.9753 162.138C80.7046 162.427 80.5693 162.843 80.5693 163.384V167.5H79.1273V163.02C79.1273 162.6 79.0106 162.278 78.7773 162.054C78.5533 161.821 78.2313 161.704 77.8113 161.704C77.3633 161.704 77.004 161.849 76.7333 162.138C76.4626 162.427 76.3273 162.843 76.3273 163.384V167.5H74.8853ZM90.0532 167.696C89.3532 167.696 88.7419 167.551 88.2192 167.262C87.6965 166.963 87.2859 166.548 86.9872 166.016C86.6979 165.475 86.5532 164.849 86.5532 164.14V163.972C86.5532 163.253 86.6979 162.628 86.9872 162.096C87.2765 161.555 87.6779 161.139 88.1912 160.85C88.7139 160.551 89.3159 160.402 89.9972 160.402C90.6599 160.402 91.2385 160.551 91.7332 160.85C92.2372 161.139 92.6292 161.545 92.9092 162.068C93.1892 162.591 93.3292 163.202 93.3292 163.902V164.448H88.0232C88.0419 165.055 88.2425 165.54 88.6252 165.904C89.0172 166.259 89.5025 166.436 90.0812 166.436C90.6225 166.436 91.0285 166.315 91.2992 166.072C91.5792 165.829 91.7939 165.549 91.9432 165.232L93.1332 165.848C93.0025 166.109 92.8112 166.385 92.5592 166.674C92.3165 166.963 91.9945 167.206 91.5932 167.402C91.1919 167.598 90.6785 167.696 90.0532 167.696ZM88.0372 163.342H91.8592C91.8219 162.819 91.6352 162.413 91.2992 162.124C90.9632 161.825 90.5245 161.676 89.9832 161.676C89.4419 161.676 88.9985 161.825 88.6532 162.124C88.3172 162.413 88.1119 162.819 88.0372 163.342Z" fill="#1C1917"/>
<rect x="0.5" y="180.5" width="186" height="36" fill="#FFF1F2"/>
<rect x="0.5" y="180.5" width="186" height="36" stroke="#292524"/>
<path fill-rule="evenodd" clip-rule="evenodd" d="M31.375 192.25C31.5408 192.25 31.6997 192.316 31.8169 192.433C31.9342 192.55 32 192.709 32 192.875V194.75H37V192.875C37 192.709 37.0658 192.55 37.1831 192.433C37.3003 192.316 37.4592 192.25 37.625 192.25C37.7908 192.25 37.9497 192.316 38.0669 192.433C38.1842 192.55 38.25 192.709 38.25 192.875V194.75H40.125C40.2908 194.75 40.4497 194.816 40.5669 194.933C40.6842 195.05 40.75 195.209 40.75 195.375C40.75 195.541 40.6842 195.7 40.5669 195.817C40.4497 195.934 40.2908 196 40.125 196H38.25V201H40.125C40.2908 201 40.4497 201.066 40.5669 201.183C40.6842 201.3 40.75 201.459 40.75 201.625C40.75 201.791 40.6842 201.95 40.5669 202.067C40.4497 202.184 40.2908 202.25 40.125 202.25H38.25V204.125C38.25 204.291 38.1842 204.45 38.0669 204.567C37.9497 204.684 37.7908 204.75 37.625 204.75C37.4592 204.75 37.3003 204.684 37.1831 204.567C37.0658 204.45 37 204.291 37 204.125V202.25H32V204.125C32 204.291 31.9342 204.45 31.8169 204.567C31.6997 204.684 31.5408 204.75 31.375 204.75C31.2092 204.75 31.0503 204.684 30.9331 204.567C30.8158 204.45 30.75 204.291 30.75 204.125V202.25H28.875C28.7092 202.25 28.5503 202.184 28.4331 202.067C28.3158 201.95 28.25 201.791 28.25 201.625C28.25 201.459 28.3158 201.3 28.4331 201.183C28.5503 201.066 28.7092 201 28.875 201H30.75V196H28.875C28.7092 196 28.5503 195.934 28.4331 195.817C28.3158 195.7 28.25 195.541 28.25 195.375C28.25 195.209 28.3158 195.05 28.4331 194.933C28.5503 194.816 28.7092 194.75 28.875 194.75H30.75V192.875C30.75 192.709 30.8158 192.55 30.9331 192.433C31.0503 192.316 31.2092 192.25 31.375 192.25ZM37 201V196H32V201H37Z" fill="#44403C"/>
<path d="M54.021 203.5V193.7H60.069V195.072H55.533V197.9H59.705V199.272H55.533V203.5H54.021ZM61.5826 203.5V196.598H62.9966V197.41H63.2206C63.3326 197.121 63.5099 196.911 63.7526 196.78C64.0046 196.64 64.3126 196.57 64.6766 196.57H65.5026V197.872H64.6206C64.1539 197.872 63.7712 198.003 63.4726 198.264C63.1739 198.516 63.0246 198.908 63.0246 199.44V203.5H61.5826ZM68.9472 203.696C68.4525 203.696 68.0092 203.612 67.6172 203.444C67.2345 203.276 66.9265 203.029 66.6932 202.702C66.4692 202.375 66.3572 201.979 66.3572 201.512C66.3572 201.036 66.4692 200.644 66.6932 200.336C66.9265 200.019 67.2392 199.781 67.6312 199.622C68.0325 199.463 68.4852 199.384 68.9892 199.384H71.0892V198.936C71.0892 198.535 70.9679 198.213 70.7252 197.97C70.4825 197.727 70.1092 197.606 69.6052 197.606C69.1105 197.606 68.7325 197.723 68.4712 197.956C68.2099 198.189 68.0372 198.493 67.9532 198.866L66.6092 198.432C66.7212 198.059 66.8985 197.723 67.1412 197.424C67.3932 197.116 67.7245 196.869 68.1352 196.682C68.5459 196.495 69.0405 196.402 69.6192 196.402C70.5152 196.402 71.2199 196.631 71.7332 197.088C72.2465 197.545 72.5032 198.194 72.5032 199.034V201.876C72.5032 202.156 72.6339 202.296 72.8952 202.296H73.4832V203.5H72.4052C72.0785 203.5 71.8125 203.416 71.6072 203.248C71.4019 203.08 71.2992 202.851 71.2992 202.562V202.52H71.0892C71.0145 202.66 70.9025 202.823 70.7532 203.01C70.6039 203.197 70.3845 203.36 70.0952 203.5C69.8059 203.631 69.4232 203.696 68.9472 203.696ZM69.1572 202.506C69.7359 202.506 70.2025 202.343 70.5572 202.016C70.9119 201.68 71.0892 201.223 71.0892 200.644V200.504H69.0732C68.6905 200.504 68.3825 200.588 68.1492 200.756C67.9159 200.915 67.7992 201.153 67.7992 201.47C67.7992 201.787 67.9205 202.039 68.1632 202.226C68.4059 202.413 68.7372 202.506 69.1572 202.506ZM74.8853 203.5V196.598H76.2993V197.41H76.5233C76.654 197.167 76.864 196.953 77.1533 196.766C77.4426 196.579 77.8346 196.486 78.3293 196.486C78.8426 196.486 79.2533 196.593 79.5613 196.808C79.8786 197.013 80.1166 197.279 80.2753 197.606H80.4993C80.658 197.289 80.8866 197.023 81.1853 196.808C81.4933 196.593 81.9273 196.486 82.4873 196.486C82.9353 196.486 83.332 196.579 83.6773 196.766C84.0226 196.943 84.298 197.214 84.5033 197.578C84.7086 197.933 84.8113 198.376 84.8113 198.908V203.5H83.3693V199.02C83.3693 198.6 83.2526 198.278 83.0193 198.054C82.7953 197.821 82.4733 197.704 82.0533 197.704C81.6053 197.704 81.246 197.849 80.9753 198.138C80.7046 198.427 80.5693 198.843 80.5693 199.384V203.5H79.1273V199.02C79.1273 198.6 79.0106 198.278 78.7773 198.054C78.5533 197.821 78.2313 197.704 77.8113 197.704C77.3633 197.704 77.004 197.849 76.7333 198.138C76.4626 198.427 76.3273 198.843 76.3273 199.384V203.5H74.8853ZM90.0532 203.696C89.3532 203.696 88.7419 203.551 88.2192 203.262C87.6965 202.963 87.2859 202.548 86.9872 202.016C86.6979 201.475 86.5532 200.849 86.5532 200.14V199.972C86.5532 199.253 86.6979 198.628 86.9872 198.096C87.2765 197.555 87.6779 197.139 88.1912 196.85C88.7139 196.551 89.3159 196.402 89.9972 196.402C90.6599 196.402 91.2385 196.551 91.7332 196.85C92.2372 197.139 92.6292 197.545 92.9092 198.068C93.1892 198.591 93.3292 199.202 93.3292 199.902V200.448H88.0232C88.0419 201.055 88.2425 201.54 88.6252 201.904C89.0172 202.259 89.5025 202.436 90.0812 202.436C90.6225 202.436 91.0285 202.315 91.2992 202.072C91.5792 201.829 91.7939 201.549 91.9432 201.232L93.1332 201.848C93.0025 202.109 92.8112 202.385 92.5592 202.674C92.3165 202.963 91.9945 203.206 91.5932 203.402C91.1919 203.598 90.6785 203.696 90.0532 203.696ZM88.0372 199.342H91.8592C91.8219 198.819 91.6352 198.413 91.2992 198.124C90.9632 197.825 90.5245 197.676 89.9832 197.676C89.4419 197.676 88.9985 197.825 88.6532 198.124C88.3172 198.413 88.1119 198.819 88.0372 199.342Z" fill="#1C1917"/>
<rect x="256.5" y="0.5" width="186" height="36" fill="#F7FEE7"/>
<rect x="256.5" y="0.5" width="186" height="36" stroke="#292524"/>
<path fill-rule="evenodd" clip-rule="evenodd" d="M269.5 13.5H272V23.5H269.5V13.5ZM268.25 13.5C268.25 13.1685 268.382 12.8505 268.616 12.6161C268.851 12.3817 269.168 12.25 269.5 12.25H272C272.332 12.25 272.649 12.3817 272.884 12.6161C273.118 12.8505 273.25 13.1685 273.25 13.5V23.5C273.25 23.8315 273.118 24.1495 272.884 24.3839C272.649 24.6183 272.332 24.75 272 24.75H269.5C269.168 24.75 268.851 24.6183 268.616 24.3839C268.382 24.1495 268.25 23.8315 268.25 23.5V13.5ZM277 16H279.5V21H277V16ZM275.75 16C275.75 15.6685 275.882 15.3505 276.116 15.1161C276.351 14.8817 276.668 14.75 277 14.75H279.5C279.832 14.75 280.149 14.8817 280.384 15.1161C280.618 15.3505 280.75 15.6685 280.75 16V21C280.75 21.3315 280.618 21.6495 280.384 21.8839C280.149 22.1183 279.832 22.25 279.5 22.25H277C276.668 22.25 276.351 22.1183 276.116 21.8839C275.882 21.6495 275.75 21.3315 275.75 21V16Z" fill="#44403C"/>
<path d="M297.556 23.696C296.361 23.696 295.414 23.36 294.714 22.688C294.014 22.0067 293.664 21.0267 293.664 19.748V17.452C293.664 16.1733 294.014 15.198 294.714 14.526C295.414 13.8447 296.361 13.504 297.556 13.504C298.732 13.504 299.637 13.8307 300.272 14.484C300.916 15.1373 301.238 16.0287 301.238 17.158V17.242H299.74V17.116C299.74 16.4533 299.558 15.912 299.194 15.492C298.839 15.072 298.293 14.862 297.556 14.862C296.809 14.862 296.226 15.0907 295.806 15.548C295.386 15.996 295.176 16.6213 295.176 17.424V19.776C295.176 20.5693 295.386 21.1947 295.806 21.652C296.226 22.1093 296.809 22.338 297.556 22.338C298.293 22.338 298.839 22.128 299.194 21.708C299.558 21.2787 299.74 20.7373 299.74 20.084V19.846H301.238V20.042C301.238 21.1713 300.916 22.0627 300.272 22.716C299.637 23.3693 298.732 23.696 297.556 23.696ZM305.096 23.696C304.601 23.696 304.158 23.612 303.766 23.444C303.383 23.276 303.075 23.0287 302.842 22.702C302.618 22.3753 302.506 21.9787 302.506 21.512C302.506 21.036 302.618 20.644 302.842 20.336C303.075 20.0187 303.388 19.7807 303.78 19.622C304.181 19.4633 304.634 19.384 305.138 19.384H307.238V18.936C307.238 18.5347 307.116 18.2127 306.874 17.97C306.631 17.7273 306.258 17.606 305.754 17.606C305.259 17.606 304.881 17.7227 304.62 17.956C304.358 18.1893 304.186 18.4927 304.102 18.866L302.758 18.432C302.87 18.0587 303.047 17.7227 303.29 17.424C303.542 17.116 303.873 16.8687 304.284 16.682C304.694 16.4953 305.189 16.402 305.768 16.402C306.664 16.402 307.368 16.6307 307.882 17.088C308.395 17.5453 308.652 18.194 308.652 19.034V21.876C308.652 22.156 308.782 22.296 309.044 22.296H309.632V23.5H308.554C308.227 23.5 307.961 23.416 307.756 23.248C307.55 23.08 307.448 22.8513 307.448 22.562V22.52H307.238C307.163 22.66 307.051 22.8233 306.902 23.01C306.752 23.1967 306.533 23.36 306.244 23.5C305.954 23.6307 305.572 23.696 305.096 23.696ZM305.306 22.506C305.884 22.506 306.351 22.3427 306.706 22.016C307.06 21.68 307.238 21.2227 307.238 20.644V20.504H305.222C304.839 20.504 304.531 20.588 304.298 20.756C304.064 20.9147 303.948 21.1527 303.948 21.47C303.948 21.7873 304.069 22.0393 304.312 22.226C304.554 22.4127 304.886 22.506 305.306 22.506ZM311.034 23.5V16.598H312.448V17.41H312.672C312.784 17.1207 312.961 16.9107 313.204 16.78C313.456 16.64 313.764 16.57 314.128 16.57H314.954V17.872H314.072C313.605 17.872 313.222 18.0027 312.924 18.264C312.625 18.516 312.476 18.908 312.476 19.44V23.5H311.034ZM319.058 23.696C318.488 23.696 317.961 23.556 317.476 23.276C316.99 22.996 316.598 22.5947 316.3 22.072C316.01 21.54 315.866 20.9007 315.866 20.154V19.944C315.866 19.2067 316.01 18.572 316.3 18.04C316.589 17.508 316.976 17.102 317.462 16.822C317.947 16.542 318.479 16.402 319.058 16.402C319.506 16.402 319.879 16.458 320.178 16.57C320.486 16.682 320.738 16.8267 320.934 17.004C321.13 17.172 321.279 17.3493 321.382 17.536H321.606V13.7H323.048V23.5H321.634V22.52H321.41C321.232 22.8187 320.962 23.0893 320.598 23.332C320.243 23.5747 319.73 23.696 319.058 23.696ZM319.464 22.436C320.089 22.436 320.602 22.2353 321.004 21.834C321.414 21.4327 321.62 20.8587 321.62 20.112V19.986C321.62 19.2487 321.419 18.6793 321.018 18.278C320.616 17.8767 320.098 17.676 319.464 17.676C318.848 17.676 318.334 17.8767 317.924 18.278C317.522 18.6793 317.322 19.2487 317.322 19.986V20.112C317.322 20.8587 317.522 21.4327 317.924 21.834C318.334 22.2353 318.848 22.436 319.464 22.436Z" fill="#1C1917"/>
<rect x="256.5" y="36.5" width="186" height="36" fill="#F7FEE7"/>
<rect x="256.5" y="36.5" width="186" height="36" stroke="#292524"/>
<path fill-rule="evenodd" clip-rule="evenodd" d="M277.5 49.5H280V59.5H277.5V49.5ZM276.25 49.5C276.25 49.1685 276.382 48.8505 276.616 48.6161C276.851 48.3817 277.168 48.25 277.5 48.25H280C280.332 48.25 280.649 48.3817 280.884 48.6161C281.118 48.8505 281.25 49.1685 281.25 49.5V59.5C281.25 59.8315 281.118 60.1495 280.884 60.3839C280.649 60.6183 280.332 60.75 280 60.75H277.5C277.168 60.75 276.851 60.6183 276.616 60.3839C276.382 60.1495 276.25 59.8315 276.25 59.5V49.5ZM285 52H287.5V57H285V52ZM283.75 52C283.75 51.6685 283.882 51.3505 284.116 51.1161C284.351 50.8817 284.668 50.75 285 50.75H287.5C287.832 50.75 288.149 50.8817 288.384 51.1161C288.618 51.3505 288.75 51.6685 288.75 52V57C288.75 57.3315 288.618 57.6495 288.384 57.8839C288.149 58.1183 287.832 58.25 287.5 58.25H285C284.668 58.25 284.351 58.1183 284.116 57.8839C283.882 57.6495 283.75 57.3315 283.75 57V52Z" fill="#44403C"/>
<path d="M305.637 59.696C304.442 59.696 303.495 59.36 302.795 58.688C302.095 58.0067 301.745 57.0267 301.745 55.748V53.452C301.745 52.1733 302.095 51.198 302.795 50.526C303.495 49.8447 304.442 49.504 305.637 49.504C306.813 49.504 307.718 49.8307 308.353 50.484C308.997 51.1373 309.319 52.0287 309.319 53.158V53.242H307.821V53.116C307.821 52.4533 307.639 51.912 307.275 51.492C306.92 51.072 306.374 50.862 305.637 50.862C304.89 50.862 304.307 51.0907 303.887 51.548C303.467 51.996 303.257 52.6213 303.257 53.424V55.776C303.257 56.5693 303.467 57.1947 303.887 57.652C304.307 58.1093 304.89 58.338 305.637 58.338C306.374 58.338 306.92 58.128 307.275 57.708C307.639 57.2787 307.821 56.7373 307.821 56.084V55.846H309.319V56.042C309.319 57.1713 308.997 58.0627 308.353 58.716C307.718 59.3693 306.813 59.696 305.637 59.696ZM313.177 59.696C312.682 59.696 312.239 59.612 311.847 59.444C311.464 59.276 311.156 59.0287 310.923 58.702C310.699 58.3753 310.587 57.9787 310.587 57.512C310.587 57.036 310.699 56.644 310.923 56.336C311.156 56.0187 311.469 55.7807 311.861 55.622C312.262 55.4633 312.715 55.384 313.219 55.384H315.319V54.936C315.319 54.5347 315.197 54.2127 314.955 53.97C314.712 53.7273 314.339 53.606 313.835 53.606C313.34 53.606 312.962 53.7227 312.701 53.956C312.439 54.1893 312.267 54.4927 312.183 54.866L310.839 54.432C310.951 54.0587 311.128 53.7227 311.371 53.424C311.623 53.116 311.954 52.8687 312.365 52.682C312.775 52.4953 313.27 52.402 313.849 52.402C314.745 52.402 315.449 52.6307 315.963 53.088C316.476 53.5453 316.733 54.194 316.733 55.034V57.876C316.733 58.156 316.863 58.296 317.125 58.296H317.713V59.5H316.635C316.308 59.5 316.042 59.416 315.837 59.248C315.631 59.08 315.529 58.8513 315.529 58.562V58.52H315.319C315.244 58.66 315.132 58.8233 314.983 59.01C314.833 59.1967 314.614 59.36 314.325 59.5C314.035 59.6307 313.653 59.696 313.177 59.696ZM313.387 58.506C313.965 58.506 314.432 58.3427 314.787 58.016C315.141 57.68 315.319 57.2227 315.319 56.644V56.504H313.303C312.92 56.504 312.612 56.588 312.379 56.756C312.145 56.9147 312.029 57.1527 312.029 57.47C312.029 57.7873 312.15 58.0393 312.393 58.226C312.635 58.4127 312.967 58.506 313.387 58.506ZM319.115 59.5V52.598H320.529V53.41H320.753C320.865 53.1207 321.042 52.9107 321.285 52.78C321.537 52.64 321.845 52.57 322.209 52.57H323.035V53.872H322.153C321.686 53.872 321.303 54.0027 321.005 54.264C320.706 54.516 320.557 54.908 320.557 55.44V59.5H319.115ZM327.139 59.696C326.569 59.696 326.042 59.556 325.557 59.276C325.071 58.996 324.679 58.5947 324.381 58.072C324.091 57.54 323.947 56.9007 323.947 56.154V55.944C323.947 55.2067 324.091 54.572 324.381 54.04C324.67 53.508 325.057 53.102 325.543 52.822C326.028 52.542 326.56 52.402 327.139 52.402C327.587 52.402 327.96 52.458 328.259 52.57C328.567 52.682 328.819 52.8267 329.015 53.004C329.211 53.172 329.36 53.3493 329.463 53.536H329.687V49.7H331.129V59.5H329.715V58.52H329.491C329.313 58.8187 329.043 59.0893 328.679 59.332C328.324 59.5747 327.811 59.696 327.139 59.696ZM327.545 58.436C328.17 58.436 328.683 58.2353 329.085 57.834C329.495 57.4327 329.701 56.8587 329.701 56.112V55.986C329.701 55.2487 329.5 54.6793 329.099 54.278C328.697 53.8767 328.179 53.676 327.545 53.676C326.929 53.676 326.415 53.8767 326.005 54.278C325.603 54.6793 325.403 55.2487 325.403 55.986V56.112C325.403 56.8587 325.603 57.4327 326.005 57.834C326.415 58.2353 326.929 58.436 327.545 58.436ZM333.21 59.5V49.7H334.722V53.9H338.838V49.7H340.35V59.5H338.838V55.272H334.722V59.5H333.21ZM345.603 59.696C344.903 59.696 344.292 59.5513 343.769 59.262C343.246 58.9633 342.836 58.548 342.537 58.016C342.248 57.4747 342.103 56.8493 342.103 56.14V55.972C342.103 55.2533 342.248 54.628 342.537 54.096C342.826 53.5547 343.228 53.1393 343.741 52.85C344.264 52.5513 344.866 52.402 345.547 52.402C346.21 52.402 346.788 52.5513 347.283 52.85C347.787 53.1393 348.179 53.5453 348.459 54.068C348.739 54.5907 348.879 55.202 348.879 55.902V56.448H343.573C343.592 57.0547 343.792 57.54 344.175 57.904C344.567 58.2587 345.052 58.436 345.631 58.436C346.172 58.436 346.578 58.3147 346.849 58.072C347.129 57.8293 347.344 57.5493 347.493 57.232L348.683 57.848C348.552 58.1093 348.361 58.3847 348.109 58.674C347.866 58.9633 347.544 59.206 347.143 59.402C346.742 59.598 346.228 59.696 345.603 59.696ZM343.587 55.342H347.409C347.372 54.8193 347.185 54.4133 346.849 54.124C346.513 53.8253 346.074 53.676 345.533 53.676C344.992 53.676 344.548 53.8253 344.203 54.124C343.867 54.4133 343.662 54.8193 343.587 55.342ZM352.757 59.696C352.262 59.696 351.819 59.612 351.427 59.444C351.044 59.276 350.736 59.0287 350.503 58.702C350.279 58.3753 350.167 57.9787 350.167 57.512C350.167 57.036 350.279 56.644 350.503 56.336C350.736 56.0187 351.049 55.7807 351.441 55.622C351.842 55.4633 352.295 55.384 352.799 55.384H354.899V54.936C354.899 54.5347 354.777 54.2127 354.535 53.97C354.292 53.7273 353.919 53.606 353.415 53.606C352.92 53.606 352.542 53.7227 352.281 53.956C352.019 54.1893 351.847 54.4927 351.763 54.866L350.419 54.432C350.531 54.0587 350.708 53.7227 350.951 53.424C351.203 53.116 351.534 52.8687 351.945 52.682C352.355 52.4953 352.85 52.402 353.429 52.402C354.325 52.402 355.029 52.6307 355.543 53.088C356.056 53.5453 356.313 54.194 356.313 55.034V57.876C356.313 58.156 356.443 58.296 356.705 58.296H357.293V59.5H356.215C355.888 59.5 355.622 59.416 355.417 59.248C355.211 59.08 355.109 58.8513 355.109 58.562V58.52H354.899C354.824 58.66 354.712 58.8233 354.563 59.01C354.413 59.1967 354.194 59.36 353.905 59.5C353.615 59.6307 353.233 59.696 352.757 59.696ZM352.967 58.506C353.545 58.506 354.012 58.3427 354.367 58.016C354.721 57.68 354.899 57.2227 354.899 56.644V56.504H352.883C352.5 56.504 352.192 56.588 351.959 56.756C351.725 56.9147 351.609 57.1527 351.609 57.47C351.609 57.7873 351.73 58.0393 351.973 58.226C352.215 58.4127 352.547 58.506 352.967 58.506ZM361.387 59.696C360.817 59.696 360.29 59.556 359.805 59.276C359.319 58.996 358.927 58.5947 358.629 58.072C358.339 57.54 358.195 56.9007 358.195 56.154V55.944C358.195 55.2067 358.339 54.572 358.629 54.04C358.918 53.508 359.305 53.102 359.791 52.822C360.276 52.542 360.808 52.402 361.387 52.402C361.835 52.402 362.208 52.458 362.507 52.57C362.815 52.682 363.067 52.8267 363.263 53.004C363.459 53.172 363.608 53.3493 363.711 53.536H363.935V49.7H365.377V59.5H363.963V58.52H363.739C363.561 58.8187 363.291 59.0893 362.927 59.332C362.572 59.5747 362.059 59.696 361.387 59.696ZM361.793 58.436C362.418 58.436 362.931 58.2353 363.333 57.834C363.743 57.4327 363.949 56.8587 363.949 56.112V55.986C363.949 55.2487 363.748 54.6793 363.347 54.278C362.945 53.8767 362.427 53.676 361.793 53.676C361.177 53.676 360.663 53.8767 360.253 54.278C359.851 54.6793 359.651 55.2487 359.651 55.986V56.112C359.651 56.8587 359.851 57.4327 360.253 57.834C360.663 58.2353 361.177 58.436 361.793 58.436ZM370.664 59.696C369.964 59.696 369.352 59.5513 368.83 59.262C368.307 58.9633 367.896 58.548 367.598 58.016C367.308 57.4747 367.164 56.8493 367.164 56.14V55.972C367.164 55.2533 367.308 54.628 367.598 54.096C367.887 53.5547 368.288 53.1393 368.802 52.85C369.324 52.5513 369.926 52.402 370.608 52.402C371.27 52.402 371.849 52.5513 372.344 52.85C372.848 53.1393 373.24 53.5453 373.52 54.068C373.8 54.5907 373.94 55.202 373.94 55.902V56.448H368.634C368.652 57.0547 368.853 57.54 369.236 57.904C369.628 58.2587 370.113 58.436 370.692 58.436C371.233 58.436 371.639 58.3147 371.91 58.072C372.19 57.8293 372.404 57.5493 372.554 57.232L373.744 57.848C373.613 58.1093 373.422 58.3847 373.17 58.674C372.927 58.9633 372.605 59.206 372.204 59.402C371.802 59.598 371.289 59.696 370.664 59.696ZM368.648 55.342H372.47C372.432 54.8193 372.246 54.4133 371.91 54.124C371.574 53.8253 371.135 53.676 370.594 53.676C370.052 53.676 369.609 53.8253 369.264 54.124C368.928 54.4133 368.722 54.8193 368.648 55.342ZM375.675 59.5V52.598H377.089V53.41H377.313C377.425 53.1207 377.603 52.9107 377.845 52.78C378.097 52.64 378.405 52.57 378.769 52.57H379.595V53.872H378.713C378.247 53.872 377.864 54.0027 377.565 54.264C377.267 54.516 377.117 54.908 377.117 55.44V59.5H375.675Z" fill="#1C1917"/>
<rect x="256.5" y="72.5" width="186" height="36" fill="#F7FEE7"/>
<rect x="256.5" y="72.5" width="186" height="36" stroke="#292524"/>
<path fill-rule="evenodd" clip-rule="evenodd" d="M285.5 85.5H288V95.5H285.5V85.5ZM284.25 85.5C284.25 85.1685 284.382 84.8505 284.616 84.6161C284.851 84.3817 285.168 84.25 285.5 84.25H288C288.332 84.25 288.649 84.3817 288.884 84.6161C289.118 84.8505 289.25 85.1685 289.25 85.5V95.5C289.25 95.8315 289.118 96.1495 288.884 96.3839C288.649 96.6183 288.332 96.75 288 96.75H285.5C285.168 96.75 284.851 96.6183 284.616 96.3839C284.382 96.1495 284.25 95.8315 284.25 95.5V85.5ZM293 88H295.5V93H293V88ZM291.75 88C291.75 87.6685 291.882 87.3505 292.116 87.1161C292.351 86.8817 292.668 86.75 293 86.75H295.5C295.832 86.75 296.149 86.8817 296.384 87.1161C296.618 87.3505 296.75 87.6685 296.75 88V93C296.75 93.3315 296.618 93.6495 296.384 93.8839C296.149 94.1183 295.832 94.25 295.5 94.25H293C292.668 94.25 292.351 94.1183 292.116 93.8839C291.882 93.6495 291.75 93.3315 291.75 93V88Z" fill="#44403C"/>
<path d="M313.253 95.696C312.058 95.696 311.111 95.36 310.411 94.688C309.711 94.0067 309.361 93.0267 309.361 91.748V89.452C309.361 88.1733 309.711 87.198 310.411 86.526C311.111 85.8447 312.058 85.504 313.253 85.504C314.429 85.504 315.334 85.8307 315.969 86.484C316.613 87.1373 316.935 88.0287 316.935 89.158V89.242H315.437V89.116C315.437 88.4533 315.255 87.912 314.891 87.492C314.536 87.072 313.99 86.862 313.253 86.862C312.506 86.862 311.923 87.0907 311.503 87.548C311.083 87.996 310.873 88.6213 310.873 89.424V91.776C310.873 92.5693 311.083 93.1947 311.503 93.652C311.923 94.1093 312.506 94.338 313.253 94.338C313.99 94.338 314.536 94.128 314.891 93.708C315.255 93.2787 315.437 92.7373 315.437 92.084V91.846H316.935V92.042C316.935 93.1713 316.613 94.0627 315.969 94.716C315.334 95.3693 314.429 95.696 313.253 95.696ZM320.793 95.696C320.298 95.696 319.855 95.612 319.463 95.444C319.08 95.276 318.772 95.0287 318.539 94.702C318.315 94.3753 318.203 93.9787 318.203 93.512C318.203 93.036 318.315 92.644 318.539 92.336C318.772 92.0187 319.085 91.7807 319.477 91.622C319.878 91.4633 320.331 91.384 320.835 91.384H322.935V90.936C322.935 90.5347 322.814 90.2127 322.571 89.97C322.328 89.7273 321.955 89.606 321.451 89.606C320.956 89.606 320.578 89.7227 320.317 89.956C320.056 90.1893 319.883 90.4927 319.799 90.866L318.455 90.432C318.567 90.0587 318.744 89.7227 318.987 89.424C319.239 89.116 319.57 88.8687 319.981 88.682C320.392 88.4953 320.886 88.402 321.465 88.402C322.361 88.402 323.066 88.6307 323.579 89.088C324.092 89.5453 324.349 90.194 324.349 91.034V93.876C324.349 94.156 324.48 94.296 324.741 94.296H325.329V95.5H324.251C323.924 95.5 323.658 95.416 323.453 95.248C323.248 95.08 323.145 94.8513 323.145 94.562V94.52H322.935C322.86 94.66 322.748 94.8233 322.599 95.01C322.45 95.1967 322.23 95.36 321.941 95.5C321.652 95.6307 321.269 95.696 320.793 95.696ZM321.003 94.506C321.582 94.506 322.048 94.3427 322.403 94.016C322.758 93.68 322.935 93.2227 322.935 92.644V92.504H320.919C320.536 92.504 320.228 92.588 319.995 92.756C319.762 92.9147 319.645 93.1527 319.645 93.47C319.645 93.7873 319.766 94.0393 320.009 94.226C320.252 94.4127 320.583 94.506 321.003 94.506ZM326.731 95.5V88.598H328.145V89.41H328.369C328.481 89.1207 328.658 88.9107 328.901 88.78C329.153 88.64 329.461 88.57 329.825 88.57H330.651V89.872H329.769C329.302 89.872 328.92 90.0027 328.621 90.264C328.322 90.516 328.173 90.908 328.173 91.44V95.5H326.731ZM334.755 95.696C334.186 95.696 333.658 95.556 333.173 95.276C332.688 94.996 332.296 94.5947 331.997 94.072C331.708 93.54 331.563 92.9007 331.563 92.154V91.944C331.563 91.2067 331.708 90.572 331.997 90.04C332.286 89.508 332.674 89.102 333.159 88.822C333.644 88.542 334.176 88.402 334.755 88.402C335.203 88.402 335.576 88.458 335.875 88.57C336.183 88.682 336.435 88.8267 336.631 89.004C336.827 89.172 336.976 89.3493 337.079 89.536H337.303V85.7H338.745V95.5H337.331V94.52H337.107C336.93 94.8187 336.659 95.0893 336.295 95.332C335.94 95.5747 335.427 95.696 334.755 95.696ZM335.161 94.436C335.786 94.436 336.3 94.2353 336.701 93.834C337.112 93.4327 337.317 92.8587 337.317 92.112V91.986C337.317 91.2487 337.116 90.6793 336.715 90.278C336.314 89.8767 335.796 89.676 335.161 89.676C334.545 89.676 334.032 89.8767 333.621 90.278C333.22 90.6793 333.019 91.2487 333.019 91.986V92.112C333.019 92.8587 333.22 93.4327 333.621 93.834C334.032 94.2353 334.545 94.436 335.161 94.436ZM340.826 95.5V85.7H342.338V95.5H340.826ZM344.422 95.5V88.598H345.836V89.41H346.06C346.191 89.1673 346.401 88.9527 346.69 88.766C346.98 88.5793 347.372 88.486 347.866 88.486C348.38 88.486 348.79 88.5933 349.098 88.808C349.416 89.0133 349.654 89.2793 349.812 89.606H350.036C350.195 89.2887 350.424 89.0227 350.722 88.808C351.03 88.5933 351.464 88.486 352.024 88.486C352.472 88.486 352.869 88.5793 353.214 88.766C353.56 88.9433 353.835 89.214 354.04 89.578C354.246 89.9327 354.348 90.376 354.348 90.908V95.5H352.906V91.02C352.906 90.6 352.79 90.278 352.556 90.054C352.332 89.8207 352.01 89.704 351.59 89.704C351.142 89.704 350.783 89.8487 350.512 90.138C350.242 90.4273 350.106 90.8427 350.106 91.384V95.5H348.664V91.02C348.664 90.6 348.548 90.278 348.314 90.054C348.09 89.8207 347.768 89.704 347.348 89.704C346.9 89.704 346.541 89.8487 346.27 90.138C346 90.4273 345.864 90.8427 345.864 91.384V95.5H344.422ZM358.568 95.696C358.074 95.696 357.63 95.612 357.238 95.444C356.856 95.276 356.548 95.0287 356.314 94.702C356.09 94.3753 355.978 93.9787 355.978 93.512C355.978 93.036 356.09 92.644 356.314 92.336C356.548 92.0187 356.86 91.7807 357.252 91.622C357.654 91.4633 358.106 91.384 358.61 91.384H360.71V90.936C360.71 90.5347 360.589 90.2127 360.346 89.97C360.104 89.7273 359.73 89.606 359.226 89.606C358.732 89.606 358.354 89.7227 358.092 89.956C357.831 90.1893 357.658 90.4927 357.574 90.866L356.23 90.432C356.342 90.0587 356.52 89.7227 356.762 89.424C357.014 89.116 357.346 88.8687 357.756 88.682C358.167 88.4953 358.662 88.402 359.24 88.402C360.136 88.402 360.841 88.6307 361.354 89.088C361.868 89.5453 362.124 90.194 362.124 91.034V93.876C362.124 94.156 362.255 94.296 362.516 94.296H363.104V95.5H362.026C361.7 95.5 361.434 95.416 361.228 95.248C361.023 95.08 360.92 94.8513 360.92 94.562V94.52H360.71C360.636 94.66 360.524 94.8233 360.374 95.01C360.225 95.1967 360.006 95.36 359.716 95.5C359.427 95.6307 359.044 95.696 358.568 95.696ZM358.778 94.506C359.357 94.506 359.824 94.3427 360.178 94.016C360.533 93.68 360.71 93.2227 360.71 92.644V92.504H358.694C358.312 92.504 358.004 92.588 357.77 92.756C357.537 92.9147 357.42 93.1527 357.42 93.47C357.42 93.7873 357.542 94.0393 357.784 94.226C358.027 94.4127 358.358 94.506 358.778 94.506ZM364.006 92.084V91.874C364.006 91.146 364.151 90.5253 364.44 90.012C364.739 89.4987 365.131 89.102 365.616 88.822C366.102 88.542 366.634 88.402 367.212 88.402C367.884 88.402 368.398 88.528 368.752 88.78C369.116 89.032 369.382 89.3027 369.55 89.592H369.774V88.598H371.174V96.914C371.174 97.334 371.048 97.67 370.796 97.922C370.554 98.174 370.218 98.3 369.788 98.3H365.14V97.04H369.34C369.611 97.04 369.746 96.9 369.746 96.62V94.422H369.522C369.42 94.59 369.275 94.7627 369.088 94.94C368.902 95.1173 368.654 95.262 368.346 95.374C368.048 95.486 367.67 95.542 367.212 95.542C366.634 95.542 366.097 95.4067 365.602 95.136C365.117 94.856 364.73 94.4593 364.44 93.946C364.151 93.4233 364.006 92.8027 364.006 92.084ZM367.604 94.282C368.23 94.282 368.743 94.086 369.144 93.694C369.555 93.2927 369.76 92.742 369.76 92.042V91.916C369.76 91.1973 369.56 90.6467 369.158 90.264C368.757 89.872 368.239 89.676 367.604 89.676C366.988 89.676 366.475 89.872 366.064 90.264C365.663 90.6467 365.462 91.1973 365.462 91.916V92.042C365.462 92.742 365.663 93.2927 366.064 93.694C366.475 94.086 366.988 94.282 367.604 94.282ZM376.461 95.696C375.761 95.696 375.15 95.5513 374.627 95.262C374.105 94.9633 373.694 94.548 373.395 94.016C373.106 93.4747 372.961 92.8493 372.961 92.14V91.972C372.961 91.2533 373.106 90.628 373.395 90.096C373.685 89.5547 374.086 89.1393 374.599 88.85C375.122 88.5513 375.724 88.402 376.405 88.402C377.068 88.402 377.647 88.5513 378.141 88.85C378.645 89.1393 379.037 89.5453 379.317 90.068C379.597 90.5907 379.737 91.202 379.737 91.902V92.448H374.431C374.45 93.0547 374.651 93.54 375.033 93.904C375.425 94.2587 375.911 94.436 376.489 94.436C377.031 94.436 377.437 94.3147 377.707 94.072C377.987 93.8293 378.202 93.5493 378.351 93.232L379.541 93.848C379.411 94.1093 379.219 94.3847 378.967 94.674C378.725 94.9633 378.403 95.206 378.001 95.402C377.6 95.598 377.087 95.696 376.461 95.696ZM374.445 91.342H378.267C378.23 90.8193 378.043 90.4133 377.707 90.124C377.371 89.8253 376.933 89.676 376.391 89.676C375.85 89.676 375.407 89.8253 375.061 90.124C374.725 90.4133 374.52 90.8193 374.445 91.342Z" fill="#1C1917"/>
<rect x="256.5" y="108.5" width="186" height="36" fill="#F7FEE7"/>
<rect x="256.5" y="108.5" width="186" height="36" stroke="#292524"/>
<path fill-rule="evenodd" clip-rule="evenodd" d="M277.5 121.5V124H287.5V121.5H277.5ZM277.5 120.25C277.168 120.25 276.851 120.382 276.616 120.616C276.382 120.851 276.25 121.168 276.25 121.5V124C276.25 124.332 276.382 124.649 276.616 124.884C276.851 125.118 277.168 125.25 277.5 125.25H287.5C287.832 125.25 288.149 125.118 288.384 124.884C288.618 124.649 288.75 124.332 288.75 124V121.5C288.75 121.168 288.618 120.851 288.384 120.616C288.149 120.382 287.832 120.25 287.5 120.25H277.5ZM277.5 129V131.5H282.5V129H277.5ZM277.5 127.75C277.168 127.75 276.851 127.882 276.616 128.116C276.382 128.351 276.25 128.668 276.25 129V131.5C276.25 131.832 276.382 132.149 276.616 132.384C276.851 132.618 277.168 132.75 277.5 132.75H282.5C282.832 132.75 283.149 132.618 283.384 132.384C283.618 132.149 283.75 131.832 283.75 131.5V129C283.75 128.668 283.618 128.351 283.384 128.116C283.149 127.882 282.832 127.75 282.5 127.75H277.5Z" fill="#44403C"/>
<path d="M305.452 131.696C304.257 131.696 303.31 131.36 302.61 130.688C301.91 130.007 301.56 129.027 301.56 127.748V125.452C301.56 124.173 301.91 123.198 302.61 122.526C303.31 121.845 304.257 121.504 305.452 121.504C306.628 121.504 307.533 121.831 308.168 122.484C308.812 123.137 309.134 124.029 309.134 125.158V125.242H307.636V125.116C307.636 124.453 307.454 123.912 307.09 123.492C306.735 123.072 306.189 122.862 305.452 122.862C304.705 122.862 304.122 123.091 303.702 123.548C303.282 123.996 303.072 124.621 303.072 125.424V127.776C303.072 128.569 303.282 129.195 303.702 129.652C304.122 130.109 304.705 130.338 305.452 130.338C306.189 130.338 306.735 130.128 307.09 129.708C307.454 129.279 307.636 128.737 307.636 128.084V127.846H309.134V128.042C309.134 129.171 308.812 130.063 308.168 130.716C307.533 131.369 306.628 131.696 305.452 131.696ZM312.992 131.696C312.497 131.696 312.054 131.612 311.662 131.444C311.279 131.276 310.971 131.029 310.738 130.702C310.514 130.375 310.402 129.979 310.402 129.512C310.402 129.036 310.514 128.644 310.738 128.336C310.971 128.019 311.284 127.781 311.676 127.622C312.077 127.463 312.53 127.384 313.034 127.384H315.134V126.936C315.134 126.535 315.013 126.213 314.77 125.97C314.527 125.727 314.154 125.606 313.65 125.606C313.155 125.606 312.777 125.723 312.516 125.956C312.255 126.189 312.082 126.493 311.998 126.866L310.654 126.432C310.766 126.059 310.943 125.723 311.186 125.424C311.438 125.116 311.769 124.869 312.18 124.682C312.591 124.495 313.085 124.402 313.664 124.402C314.56 124.402 315.265 124.631 315.778 125.088C316.291 125.545 316.548 126.194 316.548 127.034V129.876C316.548 130.156 316.679 130.296 316.94 130.296H317.528V131.5H316.45C316.123 131.5 315.857 131.416 315.652 131.248C315.447 131.08 315.344 130.851 315.344 130.562V130.52H315.134C315.059 130.66 314.947 130.823 314.798 131.01C314.649 131.197 314.429 131.36 314.14 131.5C313.851 131.631 313.468 131.696 312.992 131.696ZM313.202 130.506C313.781 130.506 314.247 130.343 314.602 130.016C314.957 129.68 315.134 129.223 315.134 128.644V128.504H313.118C312.735 128.504 312.427 128.588 312.194 128.756C311.961 128.915 311.844 129.153 311.844 129.47C311.844 129.787 311.965 130.039 312.208 130.226C312.451 130.413 312.782 130.506 313.202 130.506ZM318.93 131.5V124.598H320.344V125.41H320.568C320.68 125.121 320.858 124.911 321.1 124.78C321.352 124.64 321.66 124.57 322.024 124.57H322.85V125.872H321.968C321.502 125.872 321.119 126.003 320.82 126.264C320.522 126.516 320.372 126.908 320.372 127.44V131.5H318.93ZM326.954 131.696C326.385 131.696 325.858 131.556 325.372 131.276C324.887 130.996 324.495 130.595 324.196 130.072C323.907 129.54 323.762 128.901 323.762 128.154V127.944C323.762 127.207 323.907 126.572 324.196 126.04C324.486 125.508 324.873 125.102 325.358 124.822C325.844 124.542 326.376 124.402 326.954 124.402C327.402 124.402 327.776 124.458 328.074 124.57C328.382 124.682 328.634 124.827 328.83 125.004C329.026 125.172 329.176 125.349 329.278 125.536H329.502V121.7H330.944V131.5H329.53V130.52H329.306C329.129 130.819 328.858 131.089 328.494 131.332C328.14 131.575 327.626 131.696 326.954 131.696ZM327.36 130.436C327.986 130.436 328.499 130.235 328.9 129.834C329.311 129.433 329.516 128.859 329.516 128.112V127.986C329.516 127.249 329.316 126.679 328.914 126.278C328.513 125.877 327.995 125.676 327.36 125.676C326.744 125.676 326.231 125.877 325.82 126.278C325.419 126.679 325.218 127.249 325.218 127.986V128.112C325.218 128.859 325.419 129.433 325.82 129.834C326.231 130.235 326.744 130.436 327.36 130.436ZM336.665 131.696C335.47 131.696 334.523 131.36 333.823 130.688C333.123 130.007 332.773 129.027 332.773 127.748V125.452C332.773 124.173 333.123 123.198 333.823 122.526C334.523 121.845 335.47 121.504 336.665 121.504C337.841 121.504 338.746 121.831 339.381 122.484C340.025 123.137 340.347 124.029 340.347 125.158V125.242H338.849V125.116C338.849 124.453 338.667 123.912 338.303 123.492C337.948 123.072 337.402 122.862 336.665 122.862C335.918 122.862 335.335 123.091 334.915 123.548C334.495 123.996 334.285 124.621 334.285 125.424V127.776C334.285 128.569 334.495 129.195 334.915 129.652C335.335 130.109 335.918 130.338 336.665 130.338C337.402 130.338 337.948 130.128 338.303 129.708C338.667 129.279 338.849 128.737 338.849 128.084V127.846H340.347V128.042C340.347 129.171 340.025 130.063 339.381 130.716C338.746 131.369 337.841 131.696 336.665 131.696ZM345.297 131.696C344.606 131.696 343.99 131.556 343.449 131.276C342.917 130.987 342.497 130.576 342.189 130.044C341.881 129.512 341.727 128.882 341.727 128.154V127.944C341.727 127.216 341.881 126.591 342.189 126.068C342.497 125.536 342.917 125.125 343.449 124.836C343.99 124.547 344.606 124.402 345.297 124.402C345.988 124.402 346.604 124.547 347.145 124.836C347.686 125.125 348.111 125.536 348.419 126.068C348.727 126.591 348.881 127.216 348.881 127.944V128.154C348.881 128.882 348.727 129.512 348.419 130.044C348.111 130.576 347.686 130.987 347.145 131.276C346.604 131.556 345.988 131.696 345.297 131.696ZM345.297 130.408C345.932 130.408 346.445 130.207 346.837 129.806C347.238 129.395 347.439 128.831 347.439 128.112V127.986C347.439 127.267 347.243 126.707 346.851 126.306C346.459 125.895 345.941 125.69 345.297 125.69C344.672 125.69 344.158 125.895 343.757 126.306C343.365 126.707 343.169 127.267 343.169 127.986V128.112C343.169 128.831 343.365 129.395 343.757 129.806C344.158 130.207 344.672 130.408 345.297 130.408ZM350.676 131.5V124.598H352.09V125.634H352.314C352.445 125.354 352.678 125.093 353.014 124.85C353.35 124.607 353.85 124.486 354.512 124.486C355.035 124.486 355.497 124.603 355.898 124.836C356.309 125.069 356.631 125.401 356.864 125.83C357.098 126.25 357.214 126.759 357.214 127.356V131.5H355.772V127.468C355.772 126.871 355.623 126.432 355.324 126.152C355.026 125.863 354.615 125.718 354.092 125.718C353.495 125.718 353.014 125.914 352.65 126.306C352.296 126.698 352.118 127.267 352.118 128.014V131.5H350.676ZM361.688 131.5C361.268 131.5 360.932 131.374 360.68 131.122C360.438 130.87 360.316 130.534 360.316 130.114V125.816H358.412V124.598H360.316V122.316H361.758V124.598H363.816V125.816H361.758V129.862C361.758 130.142 361.889 130.282 362.15 130.282H363.592V131.5H361.688ZM368.428 131.696C367.728 131.696 367.117 131.551 366.594 131.262C366.072 130.963 365.661 130.548 365.362 130.016C365.073 129.475 364.928 128.849 364.928 128.14V127.972C364.928 127.253 365.073 126.628 365.362 126.096C365.652 125.555 366.053 125.139 366.566 124.85C367.089 124.551 367.691 124.402 368.372 124.402C369.035 124.402 369.614 124.551 370.108 124.85C370.612 125.139 371.004 125.545 371.284 126.068C371.564 126.591 371.704 127.202 371.704 127.902V128.448H366.398C366.417 129.055 366.618 129.54 367 129.904C367.392 130.259 367.878 130.436 368.456 130.436C368.998 130.436 369.404 130.315 369.674 130.072C369.954 129.829 370.169 129.549 370.318 129.232L371.508 129.848C371.378 130.109 371.186 130.385 370.934 130.674C370.692 130.963 370.37 131.206 369.968 131.402C369.567 131.598 369.054 131.696 368.428 131.696ZM366.412 127.342H370.234C370.197 126.819 370.01 126.413 369.674 126.124C369.338 125.825 368.9 125.676 368.358 125.676C367.817 125.676 367.374 125.825 367.028 126.124C366.692 126.413 366.487 126.819 366.412 127.342ZM373.44 131.5V124.598H374.854V125.634H375.078C375.209 125.354 375.442 125.093 375.778 124.85C376.114 124.607 376.613 124.486 377.276 124.486C377.799 124.486 378.261 124.603 378.662 124.836C379.073 125.069 379.395 125.401 379.628 125.83C379.861 126.25 379.978 126.759 379.978 127.356V131.5H378.536V127.468C378.536 126.871 378.387 126.432 378.088 126.152C377.789 125.863 377.379 125.718 376.856 125.718C376.259 125.718 375.778 125.914 375.414 126.306C375.059 126.698 374.882 127.267 374.882 128.014V131.5H373.44ZM384.452 131.5C384.032 131.5 383.696 131.374 383.444 131.122C383.201 130.87 383.08 130.534 383.08 130.114V125.816H381.176V124.598H383.08V122.316H384.522V124.598H386.58V125.816H384.522V129.862C384.522 130.142 384.653 130.282 384.914 130.282H386.356V131.5H384.452Z" fill="#1C1917"/>
<rect x="256.5" y="144.5" width="186" height="36" fill="#F7FEE7"/>
<rect x="256.5" y="144.5" width="186" height="36" stroke="#292524"/>
<path fill-rule="evenodd" clip-rule="evenodd" d="M285.5 157.5H288V167.5H285.5V157.5ZM284.25 157.5C284.25 157.168 284.382 156.851 284.616 156.616C284.851 156.382 285.168 156.25 285.5 156.25H288C288.332 156.25 288.649 156.382 288.884 156.616C289.118 156.851 289.25 157.168 289.25 157.5V167.5C289.25 167.832 289.118 168.149 288.884 168.384C288.649 168.618 288.332 168.75 288 168.75H285.5C285.168 168.75 284.851 168.618 284.616 168.384C284.382 168.149 284.25 167.832 284.25 167.5V157.5ZM293 160H295.5V165H293V160ZM291.75 160C291.75 159.668 291.882 159.351 292.116 159.116C292.351 158.882 292.668 158.75 293 158.75H295.5C295.832 158.75 296.149 158.882 296.384 159.116C296.618 159.351 296.75 159.668 296.75 160V165C296.75 165.332 296.618 165.649 296.384 165.884C296.149 166.118 295.832 166.25 295.5 166.25H293C292.668 166.25 292.351 166.118 292.116 165.884C291.882 165.649 291.75 165.332 291.75 165V160Z" fill="#44403C"/>
<path d="M313.64 167.696C312.445 167.696 311.498 167.36 310.798 166.688C310.098 166.007 309.748 165.027 309.748 163.748V161.452C309.748 160.173 310.098 159.198 310.798 158.526C311.498 157.845 312.445 157.504 313.64 157.504C314.816 157.504 315.721 157.831 316.356 158.484C317 159.137 317.322 160.029 317.322 161.158V161.242H315.824V161.116C315.824 160.453 315.642 159.912 315.278 159.492C314.923 159.072 314.377 158.862 313.64 158.862C312.893 158.862 312.31 159.091 311.89 159.548C311.47 159.996 311.26 160.621 311.26 161.424V163.776C311.26 164.569 311.47 165.195 311.89 165.652C312.31 166.109 312.893 166.338 313.64 166.338C314.377 166.338 314.923 166.128 315.278 165.708C315.642 165.279 315.824 164.737 315.824 164.084V163.846H317.322V164.042C317.322 165.171 317 166.063 316.356 166.716C315.721 167.369 314.816 167.696 313.64 167.696ZM321.18 167.696C320.685 167.696 320.242 167.612 319.85 167.444C319.467 167.276 319.159 167.029 318.926 166.702C318.702 166.375 318.59 165.979 318.59 165.512C318.59 165.036 318.702 164.644 318.926 164.336C319.159 164.019 319.472 163.781 319.864 163.622C320.265 163.463 320.718 163.384 321.222 163.384H323.322V162.936C323.322 162.535 323.2 162.213 322.958 161.97C322.715 161.727 322.342 161.606 321.838 161.606C321.343 161.606 320.965 161.723 320.704 161.956C320.442 162.189 320.27 162.493 320.186 162.866L318.842 162.432C318.954 162.059 319.131 161.723 319.374 161.424C319.626 161.116 319.957 160.869 320.368 160.682C320.778 160.495 321.273 160.402 321.852 160.402C322.748 160.402 323.452 160.631 323.966 161.088C324.479 161.545 324.736 162.194 324.736 163.034V165.876C324.736 166.156 324.866 166.296 325.128 166.296H325.716V167.5H324.638C324.311 167.5 324.045 167.416 323.84 167.248C323.634 167.08 323.532 166.851 323.532 166.562V166.52H323.322C323.247 166.66 323.135 166.823 322.986 167.01C322.836 167.197 322.617 167.36 322.328 167.5C322.038 167.631 321.656 167.696 321.18 167.696ZM321.39 166.506C321.968 166.506 322.435 166.343 322.79 166.016C323.144 165.68 323.322 165.223 323.322 164.644V164.504H321.306C320.923 164.504 320.615 164.588 320.382 164.756C320.148 164.915 320.032 165.153 320.032 165.47C320.032 165.787 320.153 166.039 320.396 166.226C320.638 166.413 320.97 166.506 321.39 166.506ZM327.118 167.5V160.598H328.532V161.41H328.756C328.868 161.121 329.045 160.911 329.288 160.78C329.54 160.64 329.848 160.57 330.212 160.57H331.038V161.872H330.156C329.689 161.872 329.306 162.003 329.008 162.264C328.709 162.516 328.56 162.908 328.56 163.44V167.5H327.118ZM335.142 167.696C334.572 167.696 334.045 167.556 333.56 167.276C333.074 166.996 332.682 166.595 332.384 166.072C332.094 165.54 331.95 164.901 331.95 164.154V163.944C331.95 163.207 332.094 162.572 332.384 162.04C332.673 161.508 333.06 161.102 333.546 160.822C334.031 160.542 334.563 160.402 335.142 160.402C335.59 160.402 335.963 160.458 336.262 160.57C336.57 160.682 336.822 160.827 337.018 161.004C337.214 161.172 337.363 161.349 337.466 161.536H337.69V157.7H339.132V167.5H337.718V166.52H337.494C337.316 166.819 337.046 167.089 336.682 167.332C336.327 167.575 335.814 167.696 335.142 167.696ZM335.548 166.436C336.173 166.436 336.686 166.235 337.088 165.834C337.498 165.433 337.704 164.859 337.704 164.112V163.986C337.704 163.249 337.503 162.679 337.102 162.278C336.7 161.877 336.182 161.676 335.548 161.676C334.932 161.676 334.418 161.877 334.008 162.278C333.606 162.679 333.406 163.249 333.406 163.986V164.112C333.406 164.859 333.606 165.433 334.008 165.834C334.418 166.235 334.932 166.436 335.548 166.436ZM343.55 167.5V159.072H340.54V157.7H348.072V159.072H345.062V167.5H343.55ZM349.335 167.5V160.598H350.777V167.5H349.335ZM350.063 159.66C349.783 159.66 349.545 159.571 349.349 159.394C349.162 159.207 349.069 158.969 349.069 158.68C349.069 158.391 349.162 158.157 349.349 157.98C349.545 157.793 349.783 157.7 350.063 157.7C350.352 157.7 350.59 157.793 350.777 157.98C350.963 158.157 351.057 158.391 351.057 158.68C351.057 158.969 350.963 159.207 350.777 159.394C350.59 159.571 350.352 159.66 350.063 159.66ZM355.507 167.5C355.087 167.5 354.751 167.374 354.499 167.122C354.256 166.87 354.135 166.534 354.135 166.114V161.816H352.231V160.598H354.135V158.316H355.577V160.598H357.635V161.816H355.577V165.862C355.577 166.142 355.707 166.282 355.969 166.282H357.411V167.5H355.507ZM359.329 167.5V157.7H360.771V167.5H359.329ZM366.075 167.696C365.375 167.696 364.763 167.551 364.241 167.262C363.718 166.963 363.307 166.548 363.009 166.016C362.719 165.475 362.575 164.849 362.575 164.14V163.972C362.575 163.253 362.719 162.628 363.009 162.096C363.298 161.555 363.699 161.139 364.213 160.85C364.735 160.551 365.337 160.402 366.019 160.402C366.681 160.402 367.26 160.551 367.755 160.85C368.259 161.139 368.651 161.545 368.931 162.068C369.211 162.591 369.351 163.202 369.351 163.902V164.448H364.045C364.063 165.055 364.264 165.54 364.647 165.904C365.039 166.259 365.524 166.436 366.103 166.436C366.644 166.436 367.05 166.315 367.321 166.072C367.601 165.829 367.815 165.549 367.965 165.232L369.155 165.848C369.024 166.109 368.833 166.385 368.581 166.674C368.338 166.963 368.016 167.206 367.615 167.402C367.213 167.598 366.7 167.696 366.075 167.696ZM364.059 163.342H367.881C367.843 162.819 367.657 162.413 367.321 162.124C366.985 161.825 366.546 161.676 366.005 161.676C365.463 161.676 365.02 161.825 364.675 162.124C364.339 162.413 364.133 162.819 364.059 163.342Z" fill="#1C1917"/>
<rect x="256.5" y="180.5" width="186" height="36" fill="#F7FEE7"/>
<rect x="256.5" y="180.5" width="186" height="36" stroke="#292524"/>
<path fill-rule="evenodd" clip-rule="evenodd" d="M285.5 193.5H288V203.5H285.5V193.5ZM284.25 193.5C284.25 193.168 284.382 192.851 284.616 192.616C284.851 192.382 285.168 192.25 285.5 192.25H288C288.332 192.25 288.649 192.382 288.884 192.616C289.118 192.851 289.25 193.168 289.25 193.5V203.5C289.25 203.832 289.118 204.149 288.884 204.384C288.649 204.618 288.332 204.75 288 204.75H285.5C285.168 204.75 284.851 204.618 284.616 204.384C284.382 204.149 284.25 203.832 284.25 203.5V193.5ZM293 193.5H295.5V198.5H293V193.5ZM291.75 193.5C291.75 193.168 291.882 192.851 292.116 192.616C292.351 192.382 292.668 192.25 293 192.25H295.5C295.832 192.25 296.149 192.382 296.384 192.616C296.618 192.851 296.75 193.168 296.75 193.5V198.5C296.75 198.832 296.618 199.149 296.384 199.384C296.149 199.618 295.832 199.75 295.5 199.75H293C292.668 199.75 292.351 199.618 292.116 199.384C291.882 199.149 291.75 198.832 291.75 198.5V193.5Z" fill="#44403C"/>
<path d="M313.529 203.696C312.335 203.696 311.387 203.36 310.687 202.688C309.987 202.007 309.637 201.027 309.637 199.748V197.452C309.637 196.173 309.987 195.198 310.687 194.526C311.387 193.845 312.335 193.504 313.529 193.504C314.705 193.504 315.611 193.831 316.245 194.484C316.889 195.137 317.211 196.029 317.211 197.158V197.242H315.713V197.116C315.713 196.453 315.531 195.912 315.167 195.492C314.813 195.072 314.267 194.862 313.529 194.862C312.783 194.862 312.199 195.091 311.779 195.548C311.359 195.996 311.149 196.621 311.149 197.424V199.776C311.149 200.569 311.359 201.195 311.779 201.652C312.199 202.109 312.783 202.338 313.529 202.338C314.267 202.338 314.813 202.128 315.167 201.708C315.531 201.279 315.713 200.737 315.713 200.084V199.846H317.211V200.042C317.211 201.171 316.889 202.063 316.245 202.716C315.611 203.369 314.705 203.696 313.529 203.696ZM321.069 203.696C320.575 203.696 320.131 203.612 319.739 203.444C319.357 203.276 319.049 203.029 318.815 202.702C318.591 202.375 318.479 201.979 318.479 201.512C318.479 201.036 318.591 200.644 318.815 200.336C319.049 200.019 319.361 199.781 319.753 199.622C320.155 199.463 320.607 199.384 321.111 199.384H323.211V198.936C323.211 198.535 323.09 198.213 322.847 197.97C322.605 197.727 322.231 197.606 321.727 197.606C321.233 197.606 320.855 197.723 320.593 197.956C320.332 198.189 320.159 198.493 320.075 198.866L318.731 198.432C318.843 198.059 319.021 197.723 319.263 197.424C319.515 197.116 319.847 196.869 320.257 196.682C320.668 196.495 321.163 196.402 321.741 196.402C322.637 196.402 323.342 196.631 323.855 197.088C324.369 197.545 324.625 198.194 324.625 199.034V201.876C324.625 202.156 324.756 202.296 325.017 202.296H325.605V203.5H324.527C324.201 203.5 323.935 203.416 323.729 203.248C323.524 203.08 323.421 202.851 323.421 202.562V202.52H323.211C323.137 202.66 323.025 202.823 322.875 203.01C322.726 203.197 322.507 203.36 322.217 203.5C321.928 203.631 321.545 203.696 321.069 203.696ZM321.279 202.506C321.858 202.506 322.325 202.343 322.679 202.016C323.034 201.68 323.211 201.223 323.211 200.644V200.504H321.195C320.813 200.504 320.505 200.588 320.271 200.756C320.038 200.915 319.921 201.153 319.921 201.47C319.921 201.787 320.043 202.039 320.285 202.226C320.528 202.413 320.859 202.506 321.279 202.506ZM327.007 203.5V196.598H328.421V197.41H328.645C328.757 197.121 328.935 196.911 329.177 196.78C329.429 196.64 329.737 196.57 330.101 196.57H330.927V197.872H330.045C329.579 197.872 329.196 198.003 328.897 198.264C328.599 198.516 328.449 198.908 328.449 199.44V203.5H327.007ZM335.031 203.696C334.462 203.696 333.935 203.556 333.449 203.276C332.964 202.996 332.572 202.595 332.273 202.072C331.984 201.54 331.839 200.901 331.839 200.154V199.944C331.839 199.207 331.984 198.572 332.273 198.04C332.563 197.508 332.95 197.102 333.435 196.822C333.921 196.542 334.453 196.402 335.031 196.402C335.479 196.402 335.853 196.458 336.151 196.57C336.459 196.682 336.711 196.827 336.907 197.004C337.103 197.172 337.253 197.349 337.355 197.536H337.579V193.7H339.021V203.5H337.607V202.52H337.383C337.206 202.819 336.935 203.089 336.571 203.332C336.217 203.575 335.703 203.696 335.031 203.696ZM335.437 202.436C336.063 202.436 336.576 202.235 336.977 201.834C337.388 201.433 337.593 200.859 337.593 200.112V199.986C337.593 199.249 337.393 198.679 336.991 198.278C336.59 197.877 336.072 197.676 335.437 197.676C334.821 197.676 334.308 197.877 333.897 198.278C333.496 198.679 333.295 199.249 333.295 199.986V200.112C333.295 200.859 333.496 201.433 333.897 201.834C334.308 202.235 334.821 202.436 335.437 202.436ZM340.738 203.5V202.156H342.054V195.044H340.738V193.7H344.658C345.965 193.7 346.963 194.031 347.654 194.694C348.354 195.357 348.704 196.355 348.704 197.69V199.524C348.704 200.859 348.354 201.857 347.654 202.52C346.963 203.173 345.965 203.5 344.658 203.5H340.738ZM343.58 202.128H344.672C345.521 202.128 346.151 201.913 346.562 201.484C346.973 201.055 347.178 200.415 347.178 199.566V197.634C347.178 196.775 346.973 196.136 346.562 195.716C346.151 195.296 345.521 195.086 344.672 195.086H343.58V202.128ZM353.619 203.696C352.919 203.696 352.307 203.551 351.785 203.262C351.262 202.963 350.851 202.548 350.553 202.016C350.263 201.475 350.119 200.849 350.119 200.14V199.972C350.119 199.253 350.263 198.628 350.553 198.096C350.842 197.555 351.243 197.139 351.757 196.85C352.279 196.551 352.881 196.402 353.563 196.402C354.225 196.402 354.804 196.551 355.299 196.85C355.803 197.139 356.195 197.545 356.475 198.068C356.755 198.591 356.895 199.202 356.895 199.902V200.448H351.589C351.607 201.055 351.808 201.54 352.191 201.904C352.583 202.259 353.068 202.436 353.647 202.436C354.188 202.436 354.594 202.315 354.865 202.072C355.145 201.829 355.359 201.549 355.509 201.232L356.699 201.848C356.568 202.109 356.377 202.385 356.125 202.674C355.882 202.963 355.56 203.206 355.159 203.402C354.757 203.598 354.244 203.696 353.619 203.696ZM351.603 199.342H355.425C355.387 198.819 355.201 198.413 354.865 198.124C354.529 197.825 354.09 197.676 353.549 197.676C353.007 197.676 352.564 197.825 352.219 198.124C351.883 198.413 351.677 198.819 351.603 199.342ZM361.458 203.696C360.581 203.696 359.853 203.5 359.274 203.108C358.696 202.716 358.341 202.123 358.21 201.33L359.554 201.008C359.629 201.391 359.755 201.694 359.932 201.918C360.11 202.142 360.329 202.301 360.59 202.394C360.861 202.487 361.15 202.534 361.458 202.534C361.916 202.534 362.266 202.445 362.508 202.268C362.76 202.091 362.886 201.862 362.886 201.582C362.886 201.302 362.77 201.097 362.536 200.966C362.303 200.835 361.958 200.728 361.5 200.644L361.024 200.56C360.558 200.476 360.133 200.355 359.75 200.196C359.368 200.037 359.064 199.818 358.84 199.538C358.616 199.258 358.504 198.899 358.504 198.46C358.504 197.807 358.747 197.303 359.232 196.948C359.718 196.584 360.362 196.402 361.164 196.402C361.939 196.402 362.574 196.579 363.068 196.934C363.572 197.279 363.899 197.751 364.048 198.348L362.704 198.726C362.62 198.306 362.443 198.012 362.172 197.844C361.902 197.667 361.566 197.578 361.164 197.578C360.772 197.578 360.464 197.653 360.24 197.802C360.016 197.942 359.904 198.143 359.904 198.404C359.904 198.684 360.012 198.889 360.226 199.02C360.45 199.151 360.749 199.249 361.122 199.314L361.612 199.398C362.107 199.482 362.56 199.599 362.97 199.748C363.381 199.897 363.703 200.112 363.936 200.392C364.179 200.672 364.3 201.045 364.3 201.512C364.3 202.203 364.044 202.739 363.53 203.122C363.017 203.505 362.326 203.696 361.458 203.696ZM369.192 203.696C368.529 203.696 367.927 203.556 367.386 203.276C366.854 202.996 366.429 202.59 366.112 202.058C365.804 201.526 365.65 200.887 365.65 200.14V199.958C365.65 199.211 365.804 198.577 366.112 198.054C366.429 197.522 366.854 197.116 367.386 196.836C367.927 196.547 368.529 196.402 369.192 196.402C369.855 196.402 370.419 196.523 370.886 196.766C371.353 197.009 371.726 197.331 372.006 197.732C372.295 198.133 372.482 198.577 372.566 199.062L371.166 199.356C371.119 199.048 371.021 198.768 370.872 198.516C370.723 198.264 370.513 198.063 370.242 197.914C369.971 197.765 369.631 197.69 369.22 197.69C368.819 197.69 368.455 197.783 368.128 197.97C367.811 198.147 367.559 198.409 367.372 198.754C367.185 199.09 367.092 199.501 367.092 199.986V200.112C367.092 200.597 367.185 201.013 367.372 201.358C367.559 201.703 367.811 201.965 368.128 202.142C368.455 202.319 368.819 202.408 369.22 202.408C369.827 202.408 370.289 202.254 370.606 201.946C370.923 201.629 371.124 201.227 371.208 200.742L372.608 201.064C372.496 201.54 372.295 201.979 372.006 202.38C371.726 202.781 371.353 203.103 370.886 203.346C370.419 203.579 369.855 203.696 369.192 203.696ZM374.271 203.5V196.598H375.685V197.41H375.909C376.021 197.121 376.198 196.911 376.441 196.78C376.693 196.64 377.001 196.57 377.365 196.57H378.191V197.872H377.309C376.842 197.872 376.46 198.003 376.161 198.264C375.862 198.516 375.713 198.908 375.713 199.44V203.5H374.271ZM379.685 203.5V196.598H381.127V203.5H379.685ZM380.413 195.66C380.133 195.66 379.895 195.571 379.699 195.394C379.512 195.207 379.419 194.969 379.419 194.68C379.419 194.391 379.512 194.157 379.699 193.98C379.895 193.793 380.133 193.7 380.413 193.7C380.702 193.7 380.94 193.793 381.127 193.98C381.314 194.157 381.407 194.391 381.407 194.68C381.407 194.969 381.314 195.207 381.127 195.394C380.94 195.571 380.702 195.66 380.413 195.66ZM383.267 206.3V196.598H384.681V197.592H384.905C385.082 197.284 385.348 197.009 385.703 196.766C386.067 196.523 386.585 196.402 387.257 196.402C387.836 196.402 388.363 196.542 388.839 196.822C389.324 197.102 389.712 197.508 390.001 198.04C390.3 198.563 390.449 199.197 390.449 199.944V200.154C390.449 200.901 390.304 201.54 390.015 202.072C389.726 202.595 389.338 202.996 388.853 203.276C388.368 203.556 387.836 203.696 387.257 203.696C386.809 203.696 386.431 203.64 386.123 203.528C385.815 203.416 385.568 203.276 385.381 203.108C385.194 202.931 385.045 202.749 384.933 202.562H384.709V206.3H383.267ZM386.837 202.436C387.472 202.436 387.99 202.235 388.391 201.834C388.792 201.433 388.993 200.859 388.993 200.112V199.986C388.993 199.249 388.788 198.679 388.377 198.278C387.976 197.877 387.462 197.676 386.837 197.676C386.221 197.676 385.708 197.877 385.297 198.278C384.896 198.679 384.695 199.249 384.695 199.986V200.112C384.695 200.859 384.896 201.433 385.297 201.834C385.708 202.235 386.221 202.436 386.837 202.436ZM394.566 203.5C394.146 203.5 393.81 203.374 393.558 203.122C393.315 202.87 393.194 202.534 393.194 202.114V197.816H391.29V196.598H393.194V194.316H394.636V196.598H396.694V197.816H394.636V201.862C394.636 202.142 394.767 202.282 395.028 202.282H396.47V203.5H394.566ZM398.388 203.5V196.598H399.83V203.5H398.388ZM399.116 195.66C398.836 195.66 398.598 195.571 398.402 195.394C398.216 195.207 398.122 194.969 398.122 194.68C398.122 194.391 398.216 194.157 398.402 193.98C398.598 193.793 398.836 193.7 399.116 193.7C399.406 193.7 399.644 193.793 399.83 193.98C400.017 194.157 400.11 194.391 400.11 194.68C400.11 194.969 400.017 195.207 399.83 195.394C399.644 195.571 399.406 195.66 399.116 195.66ZM405.204 203.696C404.514 203.696 403.898 203.556 403.356 203.276C402.824 202.987 402.404 202.576 402.096 202.044C401.788 201.512 401.634 200.882 401.634 200.154V199.944C401.634 199.216 401.788 198.591 402.096 198.068C402.404 197.536 402.824 197.125 403.356 196.836C403.898 196.547 404.514 196.402 405.204 196.402C405.895 196.402 406.511 196.547 407.052 196.836C407.594 197.125 408.018 197.536 408.326 198.068C408.634 198.591 408.788 199.216 408.788 199.944V200.154C408.788 200.882 408.634 201.512 408.326 202.044C408.018 202.576 407.594 202.987 407.052 203.276C406.511 203.556 405.895 203.696 405.204 203.696ZM405.204 202.408C405.839 202.408 406.352 202.207 406.744 201.806C407.146 201.395 407.346 200.831 407.346 200.112V199.986C407.346 199.267 407.15 198.707 406.758 198.306C406.366 197.895 405.848 197.69 405.204 197.69C404.579 197.69 404.066 197.895 403.664 198.306C403.272 198.707 403.076 199.267 403.076 199.986V200.112C403.076 200.831 403.272 201.395 403.664 201.806C404.066 202.207 404.579 202.408 405.204 202.408ZM410.584 203.5V196.598H411.998V197.634H412.222C412.352 197.354 412.586 197.093 412.922 196.85C413.258 196.607 413.757 196.486 414.42 196.486C414.942 196.486 415.404 196.603 415.806 196.836C416.216 197.069 416.538 197.401 416.772 197.83C417.005 198.25 417.122 198.759 417.122 199.356V203.5H415.68V199.468C415.68 198.871 415.53 198.432 415.232 198.152C414.933 197.863 414.522 197.718 414 197.718C413.402 197.718 412.922 197.914 412.558 198.306C412.203 198.698 412.026 199.267 412.026 200.014V203.5H410.584Z" fill="#1C1917"/>
</svg>
