<svg width="405" height="217" viewBox="0 0 405 217" fill="none" xmlns="http://www.w3.org/2000/svg">
<rect x="0.5" y="0.5" width="186" height="36" fill="#FFF1F2"/>
<rect x="0.5" y="0.5" width="186" height="36" stroke="#292524"/>
<path fill-rule="evenodd" clip-rule="evenodd" d="M15.375 12.25C15.5408 12.25 15.6997 12.3158 15.8169 12.4331C15.9342 12.5503 16 12.7092 16 12.875V14.75H21V12.875C21 12.7092 21.0658 12.5503 21.1831 12.4331C21.3003 12.3158 21.4592 12.25 21.625 12.25C21.7908 12.25 21.9497 12.3158 22.0669 12.4331C22.1842 12.5503 22.25 12.7092 22.25 12.875V14.75H24.125C24.2908 14.75 24.4497 14.8158 24.5669 14.9331C24.6842 15.0503 24.75 15.2092 24.75 15.375C24.75 15.5408 24.6842 15.6997 24.5669 15.8169C24.4497 15.9342 24.2908 16 24.125 16H22.25V21H24.125C24.2908 21 24.4497 21.0658 24.5669 21.1831C24.6842 21.3003 24.75 21.4592 24.75 21.625C24.75 21.7908 24.6842 21.9497 24.5669 22.0669C24.4497 22.1842 24.2908 22.25 24.125 22.25H22.25V24.125C22.25 24.2908 22.1842 24.4497 22.0669 24.5669C21.9497 24.6842 21.7908 24.75 21.625 24.75C21.4592 24.75 21.3003 24.6842 21.1831 24.5669C21.0658 24.4497 21 24.2908 21 24.125V22.25H16V24.125C16 24.2908 15.9342 24.4497 15.8169 24.5669C15.6997 24.6842 15.5408 24.75 15.375 24.75C15.2092 24.75 15.0503 24.6842 14.9331 24.5669C14.8158 24.4497 14.75 24.2908 14.75 24.125V22.25H12.875C12.7092 22.25 12.5503 22.1842 12.4331 22.0669C12.3158 21.9497 12.25 21.7908 12.25 21.625C12.25 21.4592 12.3158 21.3003 12.4331 21.1831C12.5503 21.0658 12.7092 21 12.875 21H14.75V16H12.875C12.7092 16 12.5503 15.9342 12.4331 15.8169C12.3158 15.6997 12.25 15.5408 12.25 15.375C12.25 15.2092 12.3158 15.0503 12.4331 14.9331C12.5503 14.8158 12.7092 14.75 12.875 14.75H14.75V12.875C14.75 12.7092 14.8158 12.5503 14.9331 12.4331C15.0503 12.3158 15.2092 12.25 15.375 12.25ZM21 21V16H16V21H21Z" fill="#44403C"/>
<path d="M38.021 23.5V13.7H44.069V15.072H39.533V17.9H43.705V19.272H39.533V23.5H38.021ZM45.5826 23.5V16.598H46.9966V17.41H47.2206C47.3326 17.1207 47.5099 16.9107 47.7526 16.78C48.0046 16.64 48.3126 16.57 48.6766 16.57H49.5026V17.872H48.6206C48.1539 17.872 47.7712 18.0027 47.4726 18.264C47.1739 18.516 47.0246 18.908 47.0246 19.44V23.5H45.5826ZM52.9472 23.696C52.4525 23.696 52.0092 23.612 51.6172 23.444C51.2345 23.276 50.9265 23.0287 50.6932 22.702C50.4692 22.3753 50.3572 21.9787 50.3572 21.512C50.3572 21.036 50.4692 20.644 50.6932 20.336C50.9265 20.0187 51.2392 19.7807 51.6312 19.622C52.0325 19.4633 52.4852 19.384 52.9892 19.384H55.0892V18.936C55.0892 18.5347 54.9679 18.2127 54.7252 17.97C54.4825 17.7273 54.1092 17.606 53.6052 17.606C53.1105 17.606 52.7325 17.7227 52.4712 17.956C52.2099 18.1893 52.0372 18.4927 51.9532 18.866L50.6092 18.432C50.7212 18.0587 50.8985 17.7227 51.1412 17.424C51.3932 17.116 51.7245 16.8687 52.1352 16.682C52.5459 16.4953 53.0405 16.402 53.6192 16.402C54.5152 16.402 55.2199 16.6307 55.7332 17.088C56.2465 17.5453 56.5032 18.194 56.5032 19.034V21.876C56.5032 22.156 56.6339 22.296 56.8952 22.296H57.4832V23.5H56.4052C56.0785 23.5 55.8125 23.416 55.6072 23.248C55.4019 23.08 55.2992 22.8513 55.2992 22.562V22.52H55.0892C55.0145 22.66 54.9025 22.8233 54.7532 23.01C54.6039 23.1967 54.3845 23.36 54.0952 23.5C53.8059 23.6307 53.4232 23.696 52.9472 23.696ZM53.1572 22.506C53.7359 22.506 54.2025 22.3427 54.5572 22.016C54.9119 21.68 55.0892 21.2227 55.0892 20.644V20.504H53.0732C52.6905 20.504 52.3825 20.588 52.1492 20.756C51.9159 20.9147 51.7992 21.1527 51.7992 21.47C51.7992 21.7873 51.9205 22.0393 52.1632 22.226C52.4059 22.4127 52.7372 22.506 53.1572 22.506ZM58.8853 23.5V16.598H60.2993V17.41H60.5233C60.654 17.1673 60.864 16.9527 61.1533 16.766C61.4426 16.5793 61.8346 16.486 62.3293 16.486C62.8426 16.486 63.2533 16.5933 63.5613 16.808C63.8786 17.0133 64.1166 17.2793 64.2753 17.606H64.4993C64.658 17.2887 64.8866 17.0227 65.1853 16.808C65.4933 16.5933 65.9273 16.486 66.4873 16.486C66.9353 16.486 67.332 16.5793 67.6773 16.766C68.0226 16.9433 68.298 17.214 68.5033 17.578C68.7086 17.9327 68.8113 18.376 68.8113 18.908V23.5H67.3693V19.02C67.3693 18.6 67.2526 18.278 67.0193 18.054C66.7953 17.8207 66.4733 17.704 66.0533 17.704C65.6053 17.704 65.246 17.8487 64.9753 18.138C64.7046 18.4273 64.5693 18.8427 64.5693 19.384V23.5H63.1273V19.02C63.1273 18.6 63.0106 18.278 62.7773 18.054C62.5533 17.8207 62.2313 17.704 61.8113 17.704C61.3633 17.704 61.004 17.8487 60.7333 18.138C60.4626 18.4273 60.3273 18.8427 60.3273 19.384V23.5H58.8853ZM74.0532 23.696C73.3532 23.696 72.7419 23.5513 72.2192 23.262C71.6965 22.9633 71.2859 22.548 70.9872 22.016C70.6979 21.4747 70.5532 20.8493 70.5532 20.14V19.972C70.5532 19.2533 70.6979 18.628 70.9872 18.096C71.2765 17.5547 71.6779 17.1393 72.1912 16.85C72.7139 16.5513 73.3159 16.402 73.9972 16.402C74.6599 16.402 75.2385 16.5513 75.7332 16.85C76.2372 17.1393 76.6292 17.5453 76.9092 18.068C77.1892 18.5907 77.3292 19.202 77.3292 19.902V20.448H72.0232C72.0419 21.0547 72.2425 21.54 72.6252 21.904C73.0172 22.2587 73.5025 22.436 74.0812 22.436C74.6225 22.436 75.0285 22.3147 75.2992 22.072C75.5792 21.8293 75.7939 21.5493 75.9432 21.232L77.1332 21.848C77.0025 22.1093 76.8112 22.3847 76.5592 22.674C76.3165 22.9633 75.9945 23.206 75.5932 23.402C75.1919 23.598 74.6785 23.696 74.0532 23.696ZM72.0372 19.342H75.8592C75.8219 18.8193 75.6352 18.4133 75.2992 18.124C74.9632 17.8253 74.5245 17.676 73.9832 17.676C73.4419 17.676 72.9985 17.8253 72.6532 18.124C72.3172 18.4133 72.1119 18.8193 72.0372 19.342Z" fill="#1C1917"/>
<rect x="0.5" y="36.5" width="186" height="36" fill="#FFF1F2"/>
<rect x="0.5" y="36.5" width="186" height="36" stroke="#292524"/>
<path fill-rule="evenodd" clip-rule="evenodd" d="M23.375 48.25C23.5408 48.25 23.6997 48.3158 23.8169 48.4331C23.9342 48.5503 24 48.7092 24 48.875V50.75H29V48.875C29 48.7092 29.0658 48.5503 29.1831 48.4331C29.3003 48.3158 29.4592 48.25 29.625 48.25C29.7908 48.25 29.9497 48.3158 30.0669 48.4331C30.1842 48.5503 30.25 48.7092 30.25 48.875V50.75H32.125C32.2908 50.75 32.4497 50.8158 32.5669 50.9331C32.6842 51.0503 32.75 51.2092 32.75 51.375C32.75 51.5408 32.6842 51.6997 32.5669 51.8169C32.4497 51.9342 32.2908 52 32.125 52H30.25V57H32.125C32.2908 57 32.4497 57.0658 32.5669 57.1831C32.6842 57.3003 32.75 57.4592 32.75 57.625C32.75 57.7908 32.6842 57.9497 32.5669 58.0669C32.4497 58.1842 32.2908 58.25 32.125 58.25H30.25V60.125C30.25 60.2908 30.1842 60.4497 30.0669 60.5669C29.9497 60.6842 29.7908 60.75 29.625 60.75C29.4592 60.75 29.3003 60.6842 29.1831 60.5669C29.0658 60.4497 29 60.2908 29 60.125V58.25H24V60.125C24 60.2908 23.9342 60.4497 23.8169 60.5669C23.6997 60.6842 23.5408 60.75 23.375 60.75C23.2092 60.75 23.0503 60.6842 22.9331 60.5669C22.8158 60.4497 22.75 60.2908 22.75 60.125V58.25H20.875C20.7092 58.25 20.5503 58.1842 20.4331 58.0669C20.3158 57.9497 20.25 57.7908 20.25 57.625C20.25 57.4592 20.3158 57.3003 20.4331 57.1831C20.5503 57.0658 20.7092 57 20.875 57H22.75V52H20.875C20.7092 52 20.5503 51.9342 20.4331 51.8169C20.3158 51.6997 20.25 51.5408 20.25 51.375C20.25 51.2092 20.3158 51.0503 20.4331 50.9331C20.5503 50.8158 20.7092 50.75 20.875 50.75H22.75V48.875C22.75 48.7092 22.8158 48.5503 22.9331 48.4331C23.0503 48.3158 23.2092 48.25 23.375 48.25ZM29 57V52H24V57H29Z" fill="#44403C"/>
<path d="M46.021 59.5V49.7H52.069V51.072H47.533V53.9H51.705V55.272H47.533V59.5H46.021ZM53.5826 59.5V52.598H54.9966V53.41H55.2206C55.3326 53.1207 55.5099 52.9107 55.7526 52.78C56.0046 52.64 56.3126 52.57 56.6766 52.57H57.5026V53.872H56.6206C56.1539 53.872 55.7712 54.0027 55.4726 54.264C55.1739 54.516 55.0246 54.908 55.0246 55.44V59.5H53.5826ZM60.9472 59.696C60.4525 59.696 60.0092 59.612 59.6172 59.444C59.2345 59.276 58.9265 59.0287 58.6932 58.702C58.4692 58.3753 58.3572 57.9787 58.3572 57.512C58.3572 57.036 58.4692 56.644 58.6932 56.336C58.9265 56.0187 59.2392 55.7807 59.6312 55.622C60.0325 55.4633 60.4852 55.384 60.9892 55.384H63.0892V54.936C63.0892 54.5347 62.9679 54.2127 62.7252 53.97C62.4825 53.7273 62.1092 53.606 61.6052 53.606C61.1105 53.606 60.7325 53.7227 60.4712 53.956C60.2099 54.1893 60.0372 54.4927 59.9532 54.866L58.6092 54.432C58.7212 54.0587 58.8985 53.7227 59.1412 53.424C59.3932 53.116 59.7245 52.8687 60.1352 52.682C60.5459 52.4953 61.0405 52.402 61.6192 52.402C62.5152 52.402 63.2199 52.6307 63.7332 53.088C64.2465 53.5453 64.5032 54.194 64.5032 55.034V57.876C64.5032 58.156 64.6339 58.296 64.8952 58.296H65.4832V59.5H64.4052C64.0785 59.5 63.8125 59.416 63.6072 59.248C63.4019 59.08 63.2992 58.8513 63.2992 58.562V58.52H63.0892C63.0145 58.66 62.9025 58.8233 62.7532 59.01C62.6039 59.1967 62.3845 59.36 62.0952 59.5C61.8059 59.6307 61.4232 59.696 60.9472 59.696ZM61.1572 58.506C61.7359 58.506 62.2025 58.3427 62.5572 58.016C62.9119 57.68 63.0892 57.2227 63.0892 56.644V56.504H61.0732C60.6905 56.504 60.3825 56.588 60.1492 56.756C59.9159 56.9147 59.7992 57.1527 59.7992 57.47C59.7992 57.7873 59.9205 58.0393 60.1632 58.226C60.4059 58.4127 60.7372 58.506 61.1572 58.506ZM66.8853 59.5V52.598H68.2993V53.41H68.5233C68.654 53.1673 68.864 52.9527 69.1533 52.766C69.4426 52.5793 69.8346 52.486 70.3293 52.486C70.8426 52.486 71.2533 52.5933 71.5613 52.808C71.8786 53.0133 72.1166 53.2793 72.2753 53.606H72.4993C72.658 53.2887 72.8866 53.0227 73.1853 52.808C73.4933 52.5933 73.9273 52.486 74.4873 52.486C74.9353 52.486 75.332 52.5793 75.6773 52.766C76.0226 52.9433 76.298 53.214 76.5033 53.578C76.7086 53.9327 76.8113 54.376 76.8113 54.908V59.5H75.3693V55.02C75.3693 54.6 75.2526 54.278 75.0193 54.054C74.7953 53.8207 74.4733 53.704 74.0533 53.704C73.6053 53.704 73.246 53.8487 72.9753 54.138C72.7046 54.4273 72.5693 54.8427 72.5693 55.384V59.5H71.1273V55.02C71.1273 54.6 71.0106 54.278 70.7773 54.054C70.5533 53.8207 70.2313 53.704 69.8113 53.704C69.3633 53.704 69.004 53.8487 68.7333 54.138C68.4626 54.4273 68.3273 54.8427 68.3273 55.384V59.5H66.8853ZM82.0532 59.696C81.3532 59.696 80.7419 59.5513 80.2192 59.262C79.6965 58.9633 79.2859 58.548 78.9872 58.016C78.6979 57.4747 78.5532 56.8493 78.5532 56.14V55.972C78.5532 55.2533 78.6979 54.628 78.9872 54.096C79.2765 53.5547 79.6779 53.1393 80.1912 52.85C80.7139 52.5513 81.3159 52.402 81.9972 52.402C82.6599 52.402 83.2385 52.5513 83.7332 52.85C84.2372 53.1393 84.6292 53.5453 84.9092 54.068C85.1892 54.5907 85.3292 55.202 85.3292 55.902V56.448H80.0232C80.0419 57.0547 80.2425 57.54 80.6252 57.904C81.0172 58.2587 81.5025 58.436 82.0812 58.436C82.6225 58.436 83.0285 58.3147 83.2992 58.072C83.5792 57.8293 83.7939 57.5493 83.9432 57.232L85.1332 57.848C85.0025 58.1093 84.8112 58.3847 84.5592 58.674C84.3165 58.9633 83.9945 59.206 83.5932 59.402C83.1919 59.598 82.6785 59.696 82.0532 59.696ZM80.0372 55.342H83.8592C83.8219 54.8193 83.6352 54.4133 83.2992 54.124C82.9632 53.8253 82.5245 53.676 81.9832 53.676C81.4419 53.676 80.9985 53.8253 80.6532 54.124C80.3172 54.4133 80.1119 54.8193 80.0372 55.342Z" fill="#1C1917"/>
<rect x="0.5" y="72.5" width="186" height="36" fill="#FFF1F2"/>
<rect x="0.5" y="72.5" width="186" height="36" stroke="#292524"/>
<path fill-rule="evenodd" clip-rule="evenodd" d="M31.375 84.25C31.5408 84.25 31.6997 84.3158 31.8169 84.4331C31.9342 84.5503 32 84.7092 32 84.875V86.75H37V84.875C37 84.7092 37.0658 84.5503 37.1831 84.4331C37.3003 84.3158 37.4592 84.25 37.625 84.25C37.7908 84.25 37.9497 84.3158 38.0669 84.4331C38.1842 84.5503 38.25 84.7092 38.25 84.875V86.75H40.125C40.2908 86.75 40.4497 86.8158 40.5669 86.9331C40.6842 87.0503 40.75 87.2092 40.75 87.375C40.75 87.5408 40.6842 87.6997 40.5669 87.8169C40.4497 87.9342 40.2908 88 40.125 88H38.25V93H40.125C40.2908 93 40.4497 93.0658 40.5669 93.1831C40.6842 93.3003 40.75 93.4592 40.75 93.625C40.75 93.7908 40.6842 93.9497 40.5669 94.0669C40.4497 94.1842 40.2908 94.25 40.125 94.25H38.25V96.125C38.25 96.2908 38.1842 96.4497 38.0669 96.5669C37.9497 96.6842 37.7908 96.75 37.625 96.75C37.4592 96.75 37.3003 96.6842 37.1831 96.5669C37.0658 96.4497 37 96.2908 37 96.125V94.25H32V96.125C32 96.2908 31.9342 96.4497 31.8169 96.5669C31.6997 96.6842 31.5408 96.75 31.375 96.75C31.2092 96.75 31.0503 96.6842 30.9331 96.5669C30.8158 96.4497 30.75 96.2908 30.75 96.125V94.25H28.875C28.7092 94.25 28.5503 94.1842 28.4331 94.0669C28.3158 93.9497 28.25 93.7908 28.25 93.625C28.25 93.4592 28.3158 93.3003 28.4331 93.1831C28.5503 93.0658 28.7092 93 28.875 93H30.75V88H28.875C28.7092 88 28.5503 87.9342 28.4331 87.8169C28.3158 87.6997 28.25 87.5408 28.25 87.375C28.25 87.2092 28.3158 87.0503 28.4331 86.9331C28.5503 86.8158 28.7092 86.75 28.875 86.75H30.75V84.875C30.75 84.7092 30.8158 84.5503 30.9331 84.4331C31.0503 84.3158 31.2092 84.25 31.375 84.25ZM37 93V88H32V93H37Z" fill="#44403C"/>
<path d="M54.021 95.5V85.7H60.069V87.072H55.533V89.9H59.705V91.272H55.533V95.5H54.021ZM61.5826 95.5V88.598H62.9966V89.41H63.2206C63.3326 89.1207 63.5099 88.9107 63.7526 88.78C64.0046 88.64 64.3126 88.57 64.6766 88.57H65.5026V89.872H64.6206C64.1539 89.872 63.7712 90.0027 63.4726 90.264C63.1739 90.516 63.0246 90.908 63.0246 91.44V95.5H61.5826ZM68.9472 95.696C68.4525 95.696 68.0092 95.612 67.6172 95.444C67.2345 95.276 66.9265 95.0287 66.6932 94.702C66.4692 94.3753 66.3572 93.9787 66.3572 93.512C66.3572 93.036 66.4692 92.644 66.6932 92.336C66.9265 92.0187 67.2392 91.7807 67.6312 91.622C68.0325 91.4633 68.4852 91.384 68.9892 91.384H71.0892V90.936C71.0892 90.5347 70.9679 90.2127 70.7252 89.97C70.4825 89.7273 70.1092 89.606 69.6052 89.606C69.1105 89.606 68.7325 89.7227 68.4712 89.956C68.2099 90.1893 68.0372 90.4927 67.9532 90.866L66.6092 90.432C66.7212 90.0587 66.8985 89.7227 67.1412 89.424C67.3932 89.116 67.7245 88.8687 68.1352 88.682C68.5459 88.4953 69.0405 88.402 69.6192 88.402C70.5152 88.402 71.2199 88.6307 71.7332 89.088C72.2465 89.5453 72.5032 90.194 72.5032 91.034V93.876C72.5032 94.156 72.6339 94.296 72.8952 94.296H73.4832V95.5H72.4052C72.0785 95.5 71.8125 95.416 71.6072 95.248C71.4019 95.08 71.2992 94.8513 71.2992 94.562V94.52H71.0892C71.0145 94.66 70.9025 94.8233 70.7532 95.01C70.6039 95.1967 70.3845 95.36 70.0952 95.5C69.8059 95.6307 69.4232 95.696 68.9472 95.696ZM69.1572 94.506C69.7359 94.506 70.2025 94.3427 70.5572 94.016C70.9119 93.68 71.0892 93.2227 71.0892 92.644V92.504H69.0732C68.6905 92.504 68.3825 92.588 68.1492 92.756C67.9159 92.9147 67.7992 93.1527 67.7992 93.47C67.7992 93.7873 67.9205 94.0393 68.1632 94.226C68.4059 94.4127 68.7372 94.506 69.1572 94.506ZM74.8853 95.5V88.598H76.2993V89.41H76.5233C76.654 89.1673 76.864 88.9527 77.1533 88.766C77.4426 88.5793 77.8346 88.486 78.3293 88.486C78.8426 88.486 79.2533 88.5933 79.5613 88.808C79.8786 89.0133 80.1166 89.2793 80.2753 89.606H80.4993C80.658 89.2887 80.8866 89.0227 81.1853 88.808C81.4933 88.5933 81.9273 88.486 82.4873 88.486C82.9353 88.486 83.332 88.5793 83.6773 88.766C84.0226 88.9433 84.298 89.214 84.5033 89.578C84.7086 89.9327 84.8113 90.376 84.8113 90.908V95.5H83.3693V91.02C83.3693 90.6 83.2526 90.278 83.0193 90.054C82.7953 89.8207 82.4733 89.704 82.0533 89.704C81.6053 89.704 81.246 89.8487 80.9753 90.138C80.7046 90.4273 80.5693 90.8427 80.5693 91.384V95.5H79.1273V91.02C79.1273 90.6 79.0106 90.278 78.7773 90.054C78.5533 89.8207 78.2313 89.704 77.8113 89.704C77.3633 89.704 77.004 89.8487 76.7333 90.138C76.4626 90.4273 76.3273 90.8427 76.3273 91.384V95.5H74.8853ZM90.0532 95.696C89.3532 95.696 88.7419 95.5513 88.2192 95.262C87.6965 94.9633 87.2859 94.548 86.9872 94.016C86.6979 93.4747 86.5532 92.8493 86.5532 92.14V91.972C86.5532 91.2533 86.6979 90.628 86.9872 90.096C87.2765 89.5547 87.6779 89.1393 88.1912 88.85C88.7139 88.5513 89.3159 88.402 89.9972 88.402C90.6599 88.402 91.2385 88.5513 91.7332 88.85C92.2372 89.1393 92.6292 89.5453 92.9092 90.068C93.1892 90.5907 93.3292 91.202 93.3292 91.902V92.448H88.0232C88.0419 93.0547 88.2425 93.54 88.6252 93.904C89.0172 94.2587 89.5025 94.436 90.0812 94.436C90.6225 94.436 91.0285 94.3147 91.2992 94.072C91.5792 93.8293 91.7939 93.5493 91.9432 93.232L93.1332 93.848C93.0025 94.1093 92.8112 94.3847 92.5592 94.674C92.3165 94.9633 91.9945 95.206 91.5932 95.402C91.1919 95.598 90.6785 95.696 90.0532 95.696ZM88.0372 91.342H91.8592C91.8219 90.8193 91.6352 90.4133 91.2992 90.124C90.9632 89.8253 90.5245 89.676 89.9832 89.676C89.4419 89.676 88.9985 89.8253 88.6532 90.124C88.3172 90.4133 88.1119 90.8193 88.0372 91.342Z" fill="#1C1917"/>
<rect x="0.5" y="108.5" width="186" height="36" fill="#FFF1F2"/>
<rect x="0.5" y="108.5" width="186" height="36" stroke="#292524"/>
<path fill-rule="evenodd" clip-rule="evenodd" d="M23.375 120.25C23.5408 120.25 23.6997 120.316 23.8169 120.433C23.9342 120.55 24 120.709 24 120.875V122.75H29V120.875C29 120.709 29.0658 120.55 29.1831 120.433C29.3003 120.316 29.4592 120.25 29.625 120.25C29.7908 120.25 29.9497 120.316 30.0669 120.433C30.1842 120.55 30.25 120.709 30.25 120.875V122.75H32.125C32.2908 122.75 32.4497 122.816 32.5669 122.933C32.6842 123.05 32.75 123.209 32.75 123.375C32.75 123.541 32.6842 123.7 32.5669 123.817C32.4497 123.934 32.2908 124 32.125 124H30.25V129H32.125C32.2908 129 32.4497 129.066 32.5669 129.183C32.6842 129.3 32.75 129.459 32.75 129.625C32.75 129.791 32.6842 129.95 32.5669 130.067C32.4497 130.184 32.2908 130.25 32.125 130.25H30.25V132.125C30.25 132.291 30.1842 132.45 30.0669 132.567C29.9497 132.684 29.7908 132.75 29.625 132.75C29.4592 132.75 29.3003 132.684 29.1831 132.567C29.0658 132.45 29 132.291 29 132.125V130.25H24V132.125C24 132.291 23.9342 132.45 23.8169 132.567C23.6997 132.684 23.5408 132.75 23.375 132.75C23.2092 132.75 23.0503 132.684 22.9331 132.567C22.8158 132.45 22.75 132.291 22.75 132.125V130.25H20.875C20.7092 130.25 20.5503 130.184 20.4331 130.067C20.3158 129.95 20.25 129.791 20.25 129.625C20.25 129.459 20.3158 129.3 20.4331 129.183C20.5503 129.066 20.7092 129 20.875 129H22.75V124H20.875C20.7092 124 20.5503 123.934 20.4331 123.817C20.3158 123.7 20.25 123.541 20.25 123.375C20.25 123.209 20.3158 123.05 20.4331 122.933C20.5503 122.816 20.7092 122.75 20.875 122.75H22.75V120.875C22.75 120.709 22.8158 120.55 22.9331 120.433C23.0503 120.316 23.2092 120.25 23.375 120.25ZM29 129V124H24V129H29Z" fill="#44403C"/>
<path d="M46.021 131.5V121.7H52.069V123.072H47.533V125.9H51.705V127.272H47.533V131.5H46.021ZM53.5826 131.5V124.598H54.9966V125.41H55.2206C55.3326 125.121 55.5099 124.911 55.7526 124.78C56.0046 124.64 56.3126 124.57 56.6766 124.57H57.5026V125.872H56.6206C56.1539 125.872 55.7712 126.003 55.4726 126.264C55.1739 126.516 55.0246 126.908 55.0246 127.44V131.5H53.5826ZM60.9472 131.696C60.4525 131.696 60.0092 131.612 59.6172 131.444C59.2345 131.276 58.9265 131.029 58.6932 130.702C58.4692 130.375 58.3572 129.979 58.3572 129.512C58.3572 129.036 58.4692 128.644 58.6932 128.336C58.9265 128.019 59.2392 127.781 59.6312 127.622C60.0325 127.463 60.4852 127.384 60.9892 127.384H63.0892V126.936C63.0892 126.535 62.9679 126.213 62.7252 125.97C62.4825 125.727 62.1092 125.606 61.6052 125.606C61.1105 125.606 60.7325 125.723 60.4712 125.956C60.2099 126.189 60.0372 126.493 59.9532 126.866L58.6092 126.432C58.7212 126.059 58.8985 125.723 59.1412 125.424C59.3932 125.116 59.7245 124.869 60.1352 124.682C60.5459 124.495 61.0405 124.402 61.6192 124.402C62.5152 124.402 63.2199 124.631 63.7332 125.088C64.2465 125.545 64.5032 126.194 64.5032 127.034V129.876C64.5032 130.156 64.6339 130.296 64.8952 130.296H65.4832V131.5H64.4052C64.0785 131.5 63.8125 131.416 63.6072 131.248C63.4019 131.08 63.2992 130.851 63.2992 130.562V130.52H63.0892C63.0145 130.66 62.9025 130.823 62.7532 131.01C62.6039 131.197 62.3845 131.36 62.0952 131.5C61.8059 131.631 61.4232 131.696 60.9472 131.696ZM61.1572 130.506C61.7359 130.506 62.2025 130.343 62.5572 130.016C62.9119 129.68 63.0892 129.223 63.0892 128.644V128.504H61.0732C60.6905 128.504 60.3825 128.588 60.1492 128.756C59.9159 128.915 59.7992 129.153 59.7992 129.47C59.7992 129.787 59.9205 130.039 60.1632 130.226C60.4059 130.413 60.7372 130.506 61.1572 130.506ZM66.8853 131.5V124.598H68.2993V125.41H68.5233C68.654 125.167 68.864 124.953 69.1533 124.766C69.4426 124.579 69.8346 124.486 70.3293 124.486C70.8426 124.486 71.2533 124.593 71.5613 124.808C71.8786 125.013 72.1166 125.279 72.2753 125.606H72.4993C72.658 125.289 72.8866 125.023 73.1853 124.808C73.4933 124.593 73.9273 124.486 74.4873 124.486C74.9353 124.486 75.332 124.579 75.6773 124.766C76.0226 124.943 76.298 125.214 76.5033 125.578C76.7086 125.933 76.8113 126.376 76.8113 126.908V131.5H75.3693V127.02C75.3693 126.6 75.2526 126.278 75.0193 126.054C74.7953 125.821 74.4733 125.704 74.0533 125.704C73.6053 125.704 73.246 125.849 72.9753 126.138C72.7046 126.427 72.5693 126.843 72.5693 127.384V131.5H71.1273V127.02C71.1273 126.6 71.0106 126.278 70.7773 126.054C70.5533 125.821 70.2313 125.704 69.8113 125.704C69.3633 125.704 69.004 125.849 68.7333 126.138C68.4626 126.427 68.3273 126.843 68.3273 127.384V131.5H66.8853ZM82.0532 131.696C81.3532 131.696 80.7419 131.551 80.2192 131.262C79.6965 130.963 79.2859 130.548 78.9872 130.016C78.6979 129.475 78.5532 128.849 78.5532 128.14V127.972C78.5532 127.253 78.6979 126.628 78.9872 126.096C79.2765 125.555 79.6779 125.139 80.1912 124.85C80.7139 124.551 81.3159 124.402 81.9972 124.402C82.6599 124.402 83.2385 124.551 83.7332 124.85C84.2372 125.139 84.6292 125.545 84.9092 126.068C85.1892 126.591 85.3292 127.202 85.3292 127.902V128.448H80.0232C80.0419 129.055 80.2425 129.54 80.6252 129.904C81.0172 130.259 81.5025 130.436 82.0812 130.436C82.6225 130.436 83.0285 130.315 83.2992 130.072C83.5792 129.829 83.7939 129.549 83.9432 129.232L85.1332 129.848C85.0025 130.109 84.8112 130.385 84.5592 130.674C84.3165 130.963 83.9945 131.206 83.5932 131.402C83.1919 131.598 82.6785 131.696 82.0532 131.696ZM80.0372 127.342H83.8592C83.8219 126.819 83.6352 126.413 83.2992 126.124C82.9632 125.825 82.5245 125.676 81.9832 125.676C81.4419 125.676 80.9985 125.825 80.6532 126.124C80.3172 126.413 80.1119 126.819 80.0372 127.342Z" fill="#1C1917"/>
<rect x="0.5" y="144.5" width="186" height="36" fill="#FFF1F2"/>
<rect x="0.5" y="144.5" width="186" height="36" stroke="#292524"/>
<path fill-rule="evenodd" clip-rule="evenodd" d="M31.375 156.25C31.5408 156.25 31.6997 156.316 31.8169 156.433C31.9342 156.55 32 156.709 32 156.875V158.75H37V156.875C37 156.709 37.0658 156.55 37.1831 156.433C37.3003 156.316 37.4592 156.25 37.625 156.25C37.7908 156.25 37.9497 156.316 38.0669 156.433C38.1842 156.55 38.25 156.709 38.25 156.875V158.75H40.125C40.2908 158.75 40.4497 158.816 40.5669 158.933C40.6842 159.05 40.75 159.209 40.75 159.375C40.75 159.541 40.6842 159.7 40.5669 159.817C40.4497 159.934 40.2908 160 40.125 160H38.25V165H40.125C40.2908 165 40.4497 165.066 40.5669 165.183C40.6842 165.3 40.75 165.459 40.75 165.625C40.75 165.791 40.6842 165.95 40.5669 166.067C40.4497 166.184 40.2908 166.25 40.125 166.25H38.25V168.125C38.25 168.291 38.1842 168.45 38.0669 168.567C37.9497 168.684 37.7908 168.75 37.625 168.75C37.4592 168.75 37.3003 168.684 37.1831 168.567C37.0658 168.45 37 168.291 37 168.125V166.25H32V168.125C32 168.291 31.9342 168.45 31.8169 168.567C31.6997 168.684 31.5408 168.75 31.375 168.75C31.2092 168.75 31.0503 168.684 30.9331 168.567C30.8158 168.45 30.75 168.291 30.75 168.125V166.25H28.875C28.7092 166.25 28.5503 166.184 28.4331 166.067C28.3158 165.95 28.25 165.791 28.25 165.625C28.25 165.459 28.3158 165.3 28.4331 165.183C28.5503 165.066 28.7092 165 28.875 165H30.75V160H28.875C28.7092 160 28.5503 159.934 28.4331 159.817C28.3158 159.7 28.25 159.541 28.25 159.375C28.25 159.209 28.3158 159.05 28.4331 158.933C28.5503 158.816 28.7092 158.75 28.875 158.75H30.75V156.875C30.75 156.709 30.8158 156.55 30.9331 156.433C31.0503 156.316 31.2092 156.25 31.375 156.25ZM37 165V160H32V165H37Z" fill="#44403C"/>
<path d="M54.021 167.5V157.7H60.069V159.072H55.533V161.9H59.705V163.272H55.533V167.5H54.021ZM61.5826 167.5V160.598H62.9966V161.41H63.2206C63.3326 161.121 63.5099 160.911 63.7526 160.78C64.0046 160.64 64.3126 160.57 64.6766 160.57H65.5026V161.872H64.6206C64.1539 161.872 63.7712 162.003 63.4726 162.264C63.1739 162.516 63.0246 162.908 63.0246 163.44V167.5H61.5826ZM68.9472 167.696C68.4525 167.696 68.0092 167.612 67.6172 167.444C67.2345 167.276 66.9265 167.029 66.6932 166.702C66.4692 166.375 66.3572 165.979 66.3572 165.512C66.3572 165.036 66.4692 164.644 66.6932 164.336C66.9265 164.019 67.2392 163.781 67.6312 163.622C68.0325 163.463 68.4852 163.384 68.9892 163.384H71.0892V162.936C71.0892 162.535 70.9679 162.213 70.7252 161.97C70.4825 161.727 70.1092 161.606 69.6052 161.606C69.1105 161.606 68.7325 161.723 68.4712 161.956C68.2099 162.189 68.0372 162.493 67.9532 162.866L66.6092 162.432C66.7212 162.059 66.8985 161.723 67.1412 161.424C67.3932 161.116 67.7245 160.869 68.1352 160.682C68.5459 160.495 69.0405 160.402 69.6192 160.402C70.5152 160.402 71.2199 160.631 71.7332 161.088C72.2465 161.545 72.5032 162.194 72.5032 163.034V165.876C72.5032 166.156 72.6339 166.296 72.8952 166.296H73.4832V167.5H72.4052C72.0785 167.5 71.8125 167.416 71.6072 167.248C71.4019 167.08 71.2992 166.851 71.2992 166.562V166.52H71.0892C71.0145 166.66 70.9025 166.823 70.7532 167.01C70.6039 167.197 70.3845 167.36 70.0952 167.5C69.8059 167.631 69.4232 167.696 68.9472 167.696ZM69.1572 166.506C69.7359 166.506 70.2025 166.343 70.5572 166.016C70.9119 165.68 71.0892 165.223 71.0892 164.644V164.504H69.0732C68.6905 164.504 68.3825 164.588 68.1492 164.756C67.9159 164.915 67.7992 165.153 67.7992 165.47C67.7992 165.787 67.9205 166.039 68.1632 166.226C68.4059 166.413 68.7372 166.506 69.1572 166.506ZM74.8853 167.5V160.598H76.2993V161.41H76.5233C76.654 161.167 76.864 160.953 77.1533 160.766C77.4426 160.579 77.8346 160.486 78.3293 160.486C78.8426 160.486 79.2533 160.593 79.5613 160.808C79.8786 161.013 80.1166 161.279 80.2753 161.606H80.4993C80.658 161.289 80.8866 161.023 81.1853 160.808C81.4933 160.593 81.9273 160.486 82.4873 160.486C82.9353 160.486 83.332 160.579 83.6773 160.766C84.0226 160.943 84.298 161.214 84.5033 161.578C84.7086 161.933 84.8113 162.376 84.8113 162.908V167.5H83.3693V163.02C83.3693 162.6 83.2526 162.278 83.0193 162.054C82.7953 161.821 82.4733 161.704 82.0533 161.704C81.6053 161.704 81.246 161.849 80.9753 162.138C80.7046 162.427 80.5693 162.843 80.5693 163.384V167.5H79.1273V163.02C79.1273 162.6 79.0106 162.278 78.7773 162.054C78.5533 161.821 78.2313 161.704 77.8113 161.704C77.3633 161.704 77.004 161.849 76.7333 162.138C76.4626 162.427 76.3273 162.843 76.3273 163.384V167.5H74.8853ZM90.0532 167.696C89.3532 167.696 88.7419 167.551 88.2192 167.262C87.6965 166.963 87.2859 166.548 86.9872 166.016C86.6979 165.475 86.5532 164.849 86.5532 164.14V163.972C86.5532 163.253 86.6979 162.628 86.9872 162.096C87.2765 161.555 87.6779 161.139 88.1912 160.85C88.7139 160.551 89.3159 160.402 89.9972 160.402C90.6599 160.402 91.2385 160.551 91.7332 160.85C92.2372 161.139 92.6292 161.545 92.9092 162.068C93.1892 162.591 93.3292 163.202 93.3292 163.902V164.448H88.0232C88.0419 165.055 88.2425 165.54 88.6252 165.904C89.0172 166.259 89.5025 166.436 90.0812 166.436C90.6225 166.436 91.0285 166.315 91.2992 166.072C91.5792 165.829 91.7939 165.549 91.9432 165.232L93.1332 165.848C93.0025 166.109 92.8112 166.385 92.5592 166.674C92.3165 166.963 91.9945 167.206 91.5932 167.402C91.1919 167.598 90.6785 167.696 90.0532 167.696ZM88.0372 163.342H91.8592C91.8219 162.819 91.6352 162.413 91.2992 162.124C90.9632 161.825 90.5245 161.676 89.9832 161.676C89.4419 161.676 88.9985 161.825 88.6532 162.124C88.3172 162.413 88.1119 162.819 88.0372 163.342Z" fill="#1C1917"/>
<rect x="0.5" y="180.5" width="186" height="36" fill="#FFF1F2"/>
<rect x="0.5" y="180.5" width="186" height="36" stroke="#292524"/>
<path fill-rule="evenodd" clip-rule="evenodd" d="M31.375 192.25C31.5408 192.25 31.6997 192.316 31.8169 192.433C31.9342 192.55 32 192.709 32 192.875V194.75H37V192.875C37 192.709 37.0658 192.55 37.1831 192.433C37.3003 192.316 37.4592 192.25 37.625 192.25C37.7908 192.25 37.9497 192.316 38.0669 192.433C38.1842 192.55 38.25 192.709 38.25 192.875V194.75H40.125C40.2908 194.75 40.4497 194.816 40.5669 194.933C40.6842 195.05 40.75 195.209 40.75 195.375C40.75 195.541 40.6842 195.7 40.5669 195.817C40.4497 195.934 40.2908 196 40.125 196H38.25V201H40.125C40.2908 201 40.4497 201.066 40.5669 201.183C40.6842 201.3 40.75 201.459 40.75 201.625C40.75 201.791 40.6842 201.95 40.5669 202.067C40.4497 202.184 40.2908 202.25 40.125 202.25H38.25V204.125C38.25 204.291 38.1842 204.45 38.0669 204.567C37.9497 204.684 37.7908 204.75 37.625 204.75C37.4592 204.75 37.3003 204.684 37.1831 204.567C37.0658 204.45 37 204.291 37 204.125V202.25H32V204.125C32 204.291 31.9342 204.45 31.8169 204.567C31.6997 204.684 31.5408 204.75 31.375 204.75C31.2092 204.75 31.0503 204.684 30.9331 204.567C30.8158 204.45 30.75 204.291 30.75 204.125V202.25H28.875C28.7092 202.25 28.5503 202.184 28.4331 202.067C28.3158 201.95 28.25 201.791 28.25 201.625C28.25 201.459 28.3158 201.3 28.4331 201.183C28.5503 201.066 28.7092 201 28.875 201H30.75V196H28.875C28.7092 196 28.5503 195.934 28.4331 195.817C28.3158 195.7 28.25 195.541 28.25 195.375C28.25 195.209 28.3158 195.05 28.4331 194.933C28.5503 194.816 28.7092 194.75 28.875 194.75H30.75V192.875C30.75 192.709 30.8158 192.55 30.9331 192.433C31.0503 192.316 31.2092 192.25 31.375 192.25ZM37 201V196H32V201H37Z" fill="#44403C"/>
<path d="M54.021 203.5V193.7H60.069V195.072H55.533V197.9H59.705V199.272H55.533V203.5H54.021ZM61.5826 203.5V196.598H62.9966V197.41H63.2206C63.3326 197.121 63.5099 196.911 63.7526 196.78C64.0046 196.64 64.3126 196.57 64.6766 196.57H65.5026V197.872H64.6206C64.1539 197.872 63.7712 198.003 63.4726 198.264C63.1739 198.516 63.0246 198.908 63.0246 199.44V203.5H61.5826ZM68.9472 203.696C68.4525 203.696 68.0092 203.612 67.6172 203.444C67.2345 203.276 66.9265 203.029 66.6932 202.702C66.4692 202.375 66.3572 201.979 66.3572 201.512C66.3572 201.036 66.4692 200.644 66.6932 200.336C66.9265 200.019 67.2392 199.781 67.6312 199.622C68.0325 199.463 68.4852 199.384 68.9892 199.384H71.0892V198.936C71.0892 198.535 70.9679 198.213 70.7252 197.97C70.4825 197.727 70.1092 197.606 69.6052 197.606C69.1105 197.606 68.7325 197.723 68.4712 197.956C68.2099 198.189 68.0372 198.493 67.9532 198.866L66.6092 198.432C66.7212 198.059 66.8985 197.723 67.1412 197.424C67.3932 197.116 67.7245 196.869 68.1352 196.682C68.5459 196.495 69.0405 196.402 69.6192 196.402C70.5152 196.402 71.2199 196.631 71.7332 197.088C72.2465 197.545 72.5032 198.194 72.5032 199.034V201.876C72.5032 202.156 72.6339 202.296 72.8952 202.296H73.4832V203.5H72.4052C72.0785 203.5 71.8125 203.416 71.6072 203.248C71.4019 203.08 71.2992 202.851 71.2992 202.562V202.52H71.0892C71.0145 202.66 70.9025 202.823 70.7532 203.01C70.6039 203.197 70.3845 203.36 70.0952 203.5C69.8059 203.631 69.4232 203.696 68.9472 203.696ZM69.1572 202.506C69.7359 202.506 70.2025 202.343 70.5572 202.016C70.9119 201.68 71.0892 201.223 71.0892 200.644V200.504H69.0732C68.6905 200.504 68.3825 200.588 68.1492 200.756C67.9159 200.915 67.7992 201.153 67.7992 201.47C67.7992 201.787 67.9205 202.039 68.1632 202.226C68.4059 202.413 68.7372 202.506 69.1572 202.506ZM74.8853 203.5V196.598H76.2993V197.41H76.5233C76.654 197.167 76.864 196.953 77.1533 196.766C77.4426 196.579 77.8346 196.486 78.3293 196.486C78.8426 196.486 79.2533 196.593 79.5613 196.808C79.8786 197.013 80.1166 197.279 80.2753 197.606H80.4993C80.658 197.289 80.8866 197.023 81.1853 196.808C81.4933 196.593 81.9273 196.486 82.4873 196.486C82.9353 196.486 83.332 196.579 83.6773 196.766C84.0226 196.943 84.298 197.214 84.5033 197.578C84.7086 197.933 84.8113 198.376 84.8113 198.908V203.5H83.3693V199.02C83.3693 198.6 83.2526 198.278 83.0193 198.054C82.7953 197.821 82.4733 197.704 82.0533 197.704C81.6053 197.704 81.246 197.849 80.9753 198.138C80.7046 198.427 80.5693 198.843 80.5693 199.384V203.5H79.1273V199.02C79.1273 198.6 79.0106 198.278 78.7773 198.054C78.5533 197.821 78.2313 197.704 77.8113 197.704C77.3633 197.704 77.004 197.849 76.7333 198.138C76.4626 198.427 76.3273 198.843 76.3273 199.384V203.5H74.8853ZM90.0532 203.696C89.3532 203.696 88.7419 203.551 88.2192 203.262C87.6965 202.963 87.2859 202.548 86.9872 202.016C86.6979 201.475 86.5532 200.849 86.5532 200.14V199.972C86.5532 199.253 86.6979 198.628 86.9872 198.096C87.2765 197.555 87.6779 197.139 88.1912 196.85C88.7139 196.551 89.3159 196.402 89.9972 196.402C90.6599 196.402 91.2385 196.551 91.7332 196.85C92.2372 197.139 92.6292 197.545 92.9092 198.068C93.1892 198.591 93.3292 199.202 93.3292 199.902V200.448H88.0232C88.0419 201.055 88.2425 201.54 88.6252 201.904C89.0172 202.259 89.5025 202.436 90.0812 202.436C90.6225 202.436 91.0285 202.315 91.2992 202.072C91.5792 201.829 91.7939 201.549 91.9432 201.232L93.1332 201.848C93.0025 202.109 92.8112 202.385 92.5592 202.674C92.3165 202.963 91.9945 203.206 91.5932 203.402C91.1919 203.598 90.6785 203.696 90.0532 203.696ZM88.0372 199.342H91.8592C91.8219 198.819 91.6352 198.413 91.2992 198.124C90.9632 197.825 90.5245 197.676 89.9832 197.676C89.4419 197.676 88.9985 197.825 88.6532 198.124C88.3172 198.413 88.1119 198.819 88.0372 199.342Z" fill="#1C1917"/>
<rect x="218.5" y="0.5" width="186" height="36" fill="#F7FEE7"/>
<rect x="218.5" y="0.5" width="186" height="36" stroke="#292524"/>
<path fill-rule="evenodd" clip-rule="evenodd" d="M231.5 13.5H234V23.5H231.5V13.5ZM230.25 13.5C230.25 13.1685 230.382 12.8505 230.616 12.6161C230.851 12.3817 231.168 12.25 231.5 12.25H234C234.332 12.25 234.649 12.3817 234.884 12.6161C235.118 12.8505 235.25 13.1685 235.25 13.5V23.5C235.25 23.8315 235.118 24.1495 234.884 24.3839C234.649 24.6183 234.332 24.75 234 24.75H231.5C231.168 24.75 230.851 24.6183 230.616 24.3839C230.382 24.1495 230.25 23.8315 230.25 23.5V13.5ZM239 16H241.5V21H239V16ZM237.75 16C237.75 15.6685 237.882 15.3505 238.116 15.1161C238.351 14.8817 238.668 14.75 239 14.75H241.5C241.832 14.75 242.149 14.8817 242.384 15.1161C242.618 15.3505 242.75 15.6685 242.75 16V21C242.75 21.3315 242.618 21.6495 242.384 21.8839C242.149 22.1183 241.832 22.25 241.5 22.25H239C238.668 22.25 238.351 22.1183 238.116 21.8839C237.882 21.6495 237.75 21.3315 237.75 21V16Z" fill="#44403C"/>
<path d="M259.556 23.696C258.361 23.696 257.414 23.36 256.714 22.688C256.014 22.0067 255.664 21.0267 255.664 19.748V17.452C255.664 16.1733 256.014 15.198 256.714 14.526C257.414 13.8447 258.361 13.504 259.556 13.504C260.732 13.504 261.637 13.8307 262.272 14.484C262.916 15.1373 263.238 16.0287 263.238 17.158V17.242H261.74V17.116C261.74 16.4533 261.558 15.912 261.194 15.492C260.839 15.072 260.293 14.862 259.556 14.862C258.809 14.862 258.226 15.0907 257.806 15.548C257.386 15.996 257.176 16.6213 257.176 17.424V19.776C257.176 20.5693 257.386 21.1947 257.806 21.652C258.226 22.1093 258.809 22.338 259.556 22.338C260.293 22.338 260.839 22.128 261.194 21.708C261.558 21.2787 261.74 20.7373 261.74 20.084V19.846H263.238V20.042C263.238 21.1713 262.916 22.0627 262.272 22.716C261.637 23.3693 260.732 23.696 259.556 23.696ZM267.096 23.696C266.601 23.696 266.158 23.612 265.766 23.444C265.383 23.276 265.075 23.0287 264.842 22.702C264.618 22.3753 264.506 21.9787 264.506 21.512C264.506 21.036 264.618 20.644 264.842 20.336C265.075 20.0187 265.388 19.7807 265.78 19.622C266.181 19.4633 266.634 19.384 267.138 19.384H269.238V18.936C269.238 18.5347 269.116 18.2127 268.874 17.97C268.631 17.7273 268.258 17.606 267.754 17.606C267.259 17.606 266.881 17.7227 266.62 17.956C266.358 18.1893 266.186 18.4927 266.102 18.866L264.758 18.432C264.87 18.0587 265.047 17.7227 265.29 17.424C265.542 17.116 265.873 16.8687 266.284 16.682C266.694 16.4953 267.189 16.402 267.768 16.402C268.664 16.402 269.368 16.6307 269.882 17.088C270.395 17.5453 270.652 18.194 270.652 19.034V21.876C270.652 22.156 270.782 22.296 271.044 22.296H271.632V23.5H270.554C270.227 23.5 269.961 23.416 269.756 23.248C269.55 23.08 269.448 22.8513 269.448 22.562V22.52H269.238C269.163 22.66 269.051 22.8233 268.902 23.01C268.752 23.1967 268.533 23.36 268.244 23.5C267.954 23.6307 267.572 23.696 267.096 23.696ZM267.306 22.506C267.884 22.506 268.351 22.3427 268.706 22.016C269.06 21.68 269.238 21.2227 269.238 20.644V20.504H267.222C266.839 20.504 266.531 20.588 266.298 20.756C266.064 20.9147 265.948 21.1527 265.948 21.47C265.948 21.7873 266.069 22.0393 266.312 22.226C266.554 22.4127 266.886 22.506 267.306 22.506ZM273.034 23.5V16.598H274.448V17.41H274.672C274.784 17.1207 274.961 16.9107 275.204 16.78C275.456 16.64 275.764 16.57 276.128 16.57H276.954V17.872H276.072C275.605 17.872 275.222 18.0027 274.924 18.264C274.625 18.516 274.476 18.908 274.476 19.44V23.5H273.034ZM281.058 23.696C280.488 23.696 279.961 23.556 279.476 23.276C278.99 22.996 278.598 22.5947 278.3 22.072C278.01 21.54 277.866 20.9007 277.866 20.154V19.944C277.866 19.2067 278.01 18.572 278.3 18.04C278.589 17.508 278.976 17.102 279.462 16.822C279.947 16.542 280.479 16.402 281.058 16.402C281.506 16.402 281.879 16.458 282.178 16.57C282.486 16.682 282.738 16.8267 282.934 17.004C283.13 17.172 283.279 17.3493 283.382 17.536H283.606V13.7H285.048V23.5H283.634V22.52H283.41C283.232 22.8187 282.962 23.0893 282.598 23.332C282.243 23.5747 281.73 23.696 281.058 23.696ZM281.464 22.436C282.089 22.436 282.602 22.2353 283.004 21.834C283.414 21.4327 283.62 20.8587 283.62 20.112V19.986C283.62 19.2487 283.419 18.6793 283.018 18.278C282.616 17.8767 282.098 17.676 281.464 17.676C280.848 17.676 280.334 17.8767 279.924 18.278C279.522 18.6793 279.322 19.2487 279.322 19.986V20.112C279.322 20.8587 279.522 21.4327 279.924 21.834C280.334 22.2353 280.848 22.436 281.464 22.436Z" fill="#1C1917"/>
<rect x="218.5" y="36.5" width="186" height="36" fill="#F7FEE7"/>
<rect x="218.5" y="36.5" width="186" height="36" stroke="#292524"/>
<path fill-rule="evenodd" clip-rule="evenodd" d="M239.5 49.5H242V59.5H239.5V49.5ZM238.25 49.5C238.25 49.1685 238.382 48.8505 238.616 48.6161C238.851 48.3817 239.168 48.25 239.5 48.25H242C242.332 48.25 242.649 48.3817 242.884 48.6161C243.118 48.8505 243.25 49.1685 243.25 49.5V59.5C243.25 59.8315 243.118 60.1495 242.884 60.3839C242.649 60.6183 242.332 60.75 242 60.75H239.5C239.168 60.75 238.851 60.6183 238.616 60.3839C238.382 60.1495 238.25 59.8315 238.25 59.5V49.5ZM247 52H249.5V57H247V52ZM245.75 52C245.75 51.6685 245.882 51.3505 246.116 51.1161C246.351 50.8817 246.668 50.75 247 50.75H249.5C249.832 50.75 250.149 50.8817 250.384 51.1161C250.618 51.3505 250.75 51.6685 250.75 52V57C250.75 57.3315 250.618 57.6495 250.384 57.8839C250.149 58.1183 249.832 58.25 249.5 58.25H247C246.668 58.25 246.351 58.1183 246.116 57.8839C245.882 57.6495 245.75 57.3315 245.75 57V52Z" fill="#44403C"/>
<path d="M267.637 59.696C266.442 59.696 265.495 59.36 264.795 58.688C264.095 58.0067 263.745 57.0267 263.745 55.748V53.452C263.745 52.1733 264.095 51.198 264.795 50.526C265.495 49.8447 266.442 49.504 267.637 49.504C268.813 49.504 269.718 49.8307 270.353 50.484C270.997 51.1373 271.319 52.0287 271.319 53.158V53.242H269.821V53.116C269.821 52.4533 269.639 51.912 269.275 51.492C268.92 51.072 268.374 50.862 267.637 50.862C266.89 50.862 266.307 51.0907 265.887 51.548C265.467 51.996 265.257 52.6213 265.257 53.424V55.776C265.257 56.5693 265.467 57.1947 265.887 57.652C266.307 58.1093 266.89 58.338 267.637 58.338C268.374 58.338 268.92 58.128 269.275 57.708C269.639 57.2787 269.821 56.7373 269.821 56.084V55.846H271.319V56.042C271.319 57.1713 270.997 58.0627 270.353 58.716C269.718 59.3693 268.813 59.696 267.637 59.696ZM275.177 59.696C274.682 59.696 274.239 59.612 273.847 59.444C273.464 59.276 273.156 59.0287 272.923 58.702C272.699 58.3753 272.587 57.9787 272.587 57.512C272.587 57.036 272.699 56.644 272.923 56.336C273.156 56.0187 273.469 55.7807 273.861 55.622C274.262 55.4633 274.715 55.384 275.219 55.384H277.319V54.936C277.319 54.5347 277.197 54.2127 276.955 53.97C276.712 53.7273 276.339 53.606 275.835 53.606C275.34 53.606 274.962 53.7227 274.701 53.956C274.439 54.1893 274.267 54.4927 274.183 54.866L272.839 54.432C272.951 54.0587 273.128 53.7227 273.371 53.424C273.623 53.116 273.954 52.8687 274.365 52.682C274.775 52.4953 275.27 52.402 275.849 52.402C276.745 52.402 277.449 52.6307 277.963 53.088C278.476 53.5453 278.733 54.194 278.733 55.034V57.876C278.733 58.156 278.863 58.296 279.125 58.296H279.713V59.5H278.635C278.308 59.5 278.042 59.416 277.837 59.248C277.631 59.08 277.529 58.8513 277.529 58.562V58.52H277.319C277.244 58.66 277.132 58.8233 276.983 59.01C276.833 59.1967 276.614 59.36 276.325 59.5C276.035 59.6307 275.653 59.696 275.177 59.696ZM275.387 58.506C275.965 58.506 276.432 58.3427 276.787 58.016C277.141 57.68 277.319 57.2227 277.319 56.644V56.504H275.303C274.92 56.504 274.612 56.588 274.379 56.756C274.145 56.9147 274.029 57.1527 274.029 57.47C274.029 57.7873 274.15 58.0393 274.393 58.226C274.635 58.4127 274.967 58.506 275.387 58.506ZM281.115 59.5V52.598H282.529V53.41H282.753C282.865 53.1207 283.042 52.9107 283.285 52.78C283.537 52.64 283.845 52.57 284.209 52.57H285.035V53.872H284.153C283.686 53.872 283.303 54.0027 283.005 54.264C282.706 54.516 282.557 54.908 282.557 55.44V59.5H281.115ZM289.139 59.696C288.569 59.696 288.042 59.556 287.557 59.276C287.071 58.996 286.679 58.5947 286.381 58.072C286.091 57.54 285.947 56.9007 285.947 56.154V55.944C285.947 55.2067 286.091 54.572 286.381 54.04C286.67 53.508 287.057 53.102 287.543 52.822C288.028 52.542 288.56 52.402 289.139 52.402C289.587 52.402 289.96 52.458 290.259 52.57C290.567 52.682 290.819 52.8267 291.015 53.004C291.211 53.172 291.36 53.3493 291.463 53.536H291.687V49.7H293.129V59.5H291.715V58.52H291.491C291.313 58.8187 291.043 59.0893 290.679 59.332C290.324 59.5747 289.811 59.696 289.139 59.696ZM289.545 58.436C290.17 58.436 290.683 58.2353 291.085 57.834C291.495 57.4327 291.701 56.8587 291.701 56.112V55.986C291.701 55.2487 291.5 54.6793 291.099 54.278C290.697 53.8767 290.179 53.676 289.545 53.676C288.929 53.676 288.415 53.8767 288.005 54.278C287.603 54.6793 287.403 55.2487 287.403 55.986V56.112C287.403 56.8587 287.603 57.4327 288.005 57.834C288.415 58.2353 288.929 58.436 289.545 58.436ZM295.21 59.5V49.7H296.722V53.9H300.838V49.7H302.35V59.5H300.838V55.272H296.722V59.5H295.21ZM307.603 59.696C306.903 59.696 306.292 59.5513 305.769 59.262C305.246 58.9633 304.836 58.548 304.537 58.016C304.248 57.4747 304.103 56.8493 304.103 56.14V55.972C304.103 55.2533 304.248 54.628 304.537 54.096C304.826 53.5547 305.228 53.1393 305.741 52.85C306.264 52.5513 306.866 52.402 307.547 52.402C308.21 52.402 308.788 52.5513 309.283 52.85C309.787 53.1393 310.179 53.5453 310.459 54.068C310.739 54.5907 310.879 55.202 310.879 55.902V56.448H305.573C305.592 57.0547 305.792 57.54 306.175 57.904C306.567 58.2587 307.052 58.436 307.631 58.436C308.172 58.436 308.578 58.3147 308.849 58.072C309.129 57.8293 309.344 57.5493 309.493 57.232L310.683 57.848C310.552 58.1093 310.361 58.3847 310.109 58.674C309.866 58.9633 309.544 59.206 309.143 59.402C308.742 59.598 308.228 59.696 307.603 59.696ZM305.587 55.342H309.409C309.372 54.8193 309.185 54.4133 308.849 54.124C308.513 53.8253 308.074 53.676 307.533 53.676C306.992 53.676 306.548 53.8253 306.203 54.124C305.867 54.4133 305.662 54.8193 305.587 55.342ZM314.757 59.696C314.262 59.696 313.819 59.612 313.427 59.444C313.044 59.276 312.736 59.0287 312.503 58.702C312.279 58.3753 312.167 57.9787 312.167 57.512C312.167 57.036 312.279 56.644 312.503 56.336C312.736 56.0187 313.049 55.7807 313.441 55.622C313.842 55.4633 314.295 55.384 314.799 55.384H316.899V54.936C316.899 54.5347 316.777 54.2127 316.535 53.97C316.292 53.7273 315.919 53.606 315.415 53.606C314.92 53.606 314.542 53.7227 314.281 53.956C314.019 54.1893 313.847 54.4927 313.763 54.866L312.419 54.432C312.531 54.0587 312.708 53.7227 312.951 53.424C313.203 53.116 313.534 52.8687 313.945 52.682C314.355 52.4953 314.85 52.402 315.429 52.402C316.325 52.402 317.029 52.6307 317.543 53.088C318.056 53.5453 318.313 54.194 318.313 55.034V57.876C318.313 58.156 318.443 58.296 318.705 58.296H319.293V59.5H318.215C317.888 59.5 317.622 59.416 317.417 59.248C317.211 59.08 317.109 58.8513 317.109 58.562V58.52H316.899C316.824 58.66 316.712 58.8233 316.563 59.01C316.413 59.1967 316.194 59.36 315.905 59.5C315.615 59.6307 315.233 59.696 314.757 59.696ZM314.967 58.506C315.545 58.506 316.012 58.3427 316.367 58.016C316.721 57.68 316.899 57.2227 316.899 56.644V56.504H314.883C314.5 56.504 314.192 56.588 313.959 56.756C313.725 56.9147 313.609 57.1527 313.609 57.47C313.609 57.7873 313.73 58.0393 313.973 58.226C314.215 58.4127 314.547 58.506 314.967 58.506ZM323.387 59.696C322.817 59.696 322.29 59.556 321.805 59.276C321.319 58.996 320.927 58.5947 320.629 58.072C320.339 57.54 320.195 56.9007 320.195 56.154V55.944C320.195 55.2067 320.339 54.572 320.629 54.04C320.918 53.508 321.305 53.102 321.791 52.822C322.276 52.542 322.808 52.402 323.387 52.402C323.835 52.402 324.208 52.458 324.507 52.57C324.815 52.682 325.067 52.8267 325.263 53.004C325.459 53.172 325.608 53.3493 325.711 53.536H325.935V49.7H327.377V59.5H325.963V58.52H325.739C325.561 58.8187 325.291 59.0893 324.927 59.332C324.572 59.5747 324.059 59.696 323.387 59.696ZM323.793 58.436C324.418 58.436 324.931 58.2353 325.333 57.834C325.743 57.4327 325.949 56.8587 325.949 56.112V55.986C325.949 55.2487 325.748 54.6793 325.347 54.278C324.945 53.8767 324.427 53.676 323.793 53.676C323.177 53.676 322.663 53.8767 322.253 54.278C321.851 54.6793 321.651 55.2487 321.651 55.986V56.112C321.651 56.8587 321.851 57.4327 322.253 57.834C322.663 58.2353 323.177 58.436 323.793 58.436ZM332.664 59.696C331.964 59.696 331.352 59.5513 330.83 59.262C330.307 58.9633 329.896 58.548 329.598 58.016C329.308 57.4747 329.164 56.8493 329.164 56.14V55.972C329.164 55.2533 329.308 54.628 329.598 54.096C329.887 53.5547 330.288 53.1393 330.802 52.85C331.324 52.5513 331.926 52.402 332.608 52.402C333.27 52.402 333.849 52.5513 334.344 52.85C334.848 53.1393 335.24 53.5453 335.52 54.068C335.8 54.5907 335.94 55.202 335.94 55.902V56.448H330.634C330.652 57.0547 330.853 57.54 331.236 57.904C331.628 58.2587 332.113 58.436 332.692 58.436C333.233 58.436 333.639 58.3147 333.91 58.072C334.19 57.8293 334.404 57.5493 334.554 57.232L335.744 57.848C335.613 58.1093 335.422 58.3847 335.17 58.674C334.927 58.9633 334.605 59.206 334.204 59.402C333.802 59.598 333.289 59.696 332.664 59.696ZM330.648 55.342H334.47C334.432 54.8193 334.246 54.4133 333.91 54.124C333.574 53.8253 333.135 53.676 332.594 53.676C332.052 53.676 331.609 53.8253 331.264 54.124C330.928 54.4133 330.722 54.8193 330.648 55.342ZM337.675 59.5V52.598H339.089V53.41H339.313C339.425 53.1207 339.603 52.9107 339.845 52.78C340.097 52.64 340.405 52.57 340.769 52.57H341.595V53.872H340.713C340.247 53.872 339.864 54.0027 339.565 54.264C339.267 54.516 339.117 54.908 339.117 55.44V59.5H337.675Z" fill="#1C1917"/>
<rect x="218.5" y="72.5" width="186" height="36" fill="#F7FEE7"/>
<rect x="218.5" y="72.5" width="186" height="36" stroke="#292524"/>
<path fill-rule="evenodd" clip-rule="evenodd" d="M247.5 85.5H250V95.5H247.5V85.5ZM246.25 85.5C246.25 85.1685 246.382 84.8505 246.616 84.6161C246.851 84.3817 247.168 84.25 247.5 84.25H250C250.332 84.25 250.649 84.3817 250.884 84.6161C251.118 84.8505 251.25 85.1685 251.25 85.5V95.5C251.25 95.8315 251.118 96.1495 250.884 96.3839C250.649 96.6183 250.332 96.75 250 96.75H247.5C247.168 96.75 246.851 96.6183 246.616 96.3839C246.382 96.1495 246.25 95.8315 246.25 95.5V85.5ZM255 88H257.5V93H255V88ZM253.75 88C253.75 87.6685 253.882 87.3505 254.116 87.1161C254.351 86.8817 254.668 86.75 255 86.75H257.5C257.832 86.75 258.149 86.8817 258.384 87.1161C258.618 87.3505 258.75 87.6685 258.75 88V93C258.75 93.3315 258.618 93.6495 258.384 93.8839C258.149 94.1183 257.832 94.25 257.5 94.25H255C254.668 94.25 254.351 94.1183 254.116 93.8839C253.882 93.6495 253.75 93.3315 253.75 93V88Z" fill="#44403C"/>
<path d="M275.253 95.696C274.058 95.696 273.111 95.36 272.411 94.688C271.711 94.0067 271.361 93.0267 271.361 91.748V89.452C271.361 88.1733 271.711 87.198 272.411 86.526C273.111 85.8447 274.058 85.504 275.253 85.504C276.429 85.504 277.334 85.8307 277.969 86.484C278.613 87.1373 278.935 88.0287 278.935 89.158V89.242H277.437V89.116C277.437 88.4533 277.255 87.912 276.891 87.492C276.536 87.072 275.99 86.862 275.253 86.862C274.506 86.862 273.923 87.0907 273.503 87.548C273.083 87.996 272.873 88.6213 272.873 89.424V91.776C272.873 92.5693 273.083 93.1947 273.503 93.652C273.923 94.1093 274.506 94.338 275.253 94.338C275.99 94.338 276.536 94.128 276.891 93.708C277.255 93.2787 277.437 92.7373 277.437 92.084V91.846H278.935V92.042C278.935 93.1713 278.613 94.0627 277.969 94.716C277.334 95.3693 276.429 95.696 275.253 95.696ZM282.793 95.696C282.298 95.696 281.855 95.612 281.463 95.444C281.08 95.276 280.772 95.0287 280.539 94.702C280.315 94.3753 280.203 93.9787 280.203 93.512C280.203 93.036 280.315 92.644 280.539 92.336C280.772 92.0187 281.085 91.7807 281.477 91.622C281.878 91.4633 282.331 91.384 282.835 91.384H284.935V90.936C284.935 90.5347 284.814 90.2127 284.571 89.97C284.328 89.7273 283.955 89.606 283.451 89.606C282.956 89.606 282.578 89.7227 282.317 89.956C282.056 90.1893 281.883 90.4927 281.799 90.866L280.455 90.432C280.567 90.0587 280.744 89.7227 280.987 89.424C281.239 89.116 281.57 88.8687 281.981 88.682C282.392 88.4953 282.886 88.402 283.465 88.402C284.361 88.402 285.066 88.6307 285.579 89.088C286.092 89.5453 286.349 90.194 286.349 91.034V93.876C286.349 94.156 286.48 94.296 286.741 94.296H287.329V95.5H286.251C285.924 95.5 285.658 95.416 285.453 95.248C285.248 95.08 285.145 94.8513 285.145 94.562V94.52H284.935C284.86 94.66 284.748 94.8233 284.599 95.01C284.45 95.1967 284.23 95.36 283.941 95.5C283.652 95.6307 283.269 95.696 282.793 95.696ZM283.003 94.506C283.582 94.506 284.048 94.3427 284.403 94.016C284.758 93.68 284.935 93.2227 284.935 92.644V92.504H282.919C282.536 92.504 282.228 92.588 281.995 92.756C281.762 92.9147 281.645 93.1527 281.645 93.47C281.645 93.7873 281.766 94.0393 282.009 94.226C282.252 94.4127 282.583 94.506 283.003 94.506ZM288.731 95.5V88.598H290.145V89.41H290.369C290.481 89.1207 290.658 88.9107 290.901 88.78C291.153 88.64 291.461 88.57 291.825 88.57H292.651V89.872H291.769C291.302 89.872 290.92 90.0027 290.621 90.264C290.322 90.516 290.173 90.908 290.173 91.44V95.5H288.731ZM296.755 95.696C296.186 95.696 295.658 95.556 295.173 95.276C294.688 94.996 294.296 94.5947 293.997 94.072C293.708 93.54 293.563 92.9007 293.563 92.154V91.944C293.563 91.2067 293.708 90.572 293.997 90.04C294.286 89.508 294.674 89.102 295.159 88.822C295.644 88.542 296.176 88.402 296.755 88.402C297.203 88.402 297.576 88.458 297.875 88.57C298.183 88.682 298.435 88.8267 298.631 89.004C298.827 89.172 298.976 89.3493 299.079 89.536H299.303V85.7H300.745V95.5H299.331V94.52H299.107C298.93 94.8187 298.659 95.0893 298.295 95.332C297.94 95.5747 297.427 95.696 296.755 95.696ZM297.161 94.436C297.786 94.436 298.3 94.2353 298.701 93.834C299.112 93.4327 299.317 92.8587 299.317 92.112V91.986C299.317 91.2487 299.116 90.6793 298.715 90.278C298.314 89.8767 297.796 89.676 297.161 89.676C296.545 89.676 296.032 89.8767 295.621 90.278C295.22 90.6793 295.019 91.2487 295.019 91.986V92.112C295.019 92.8587 295.22 93.4327 295.621 93.834C296.032 94.2353 296.545 94.436 297.161 94.436ZM302.826 95.5V85.7H304.338V95.5H302.826ZM306.422 95.5V88.598H307.836V89.41H308.06C308.191 89.1673 308.401 88.9527 308.69 88.766C308.98 88.5793 309.372 88.486 309.866 88.486C310.38 88.486 310.79 88.5933 311.098 88.808C311.416 89.0133 311.654 89.2793 311.812 89.606H312.036C312.195 89.2887 312.424 89.0227 312.722 88.808C313.03 88.5933 313.464 88.486 314.024 88.486C314.472 88.486 314.869 88.5793 315.214 88.766C315.56 88.9433 315.835 89.214 316.04 89.578C316.246 89.9327 316.348 90.376 316.348 90.908V95.5H314.906V91.02C314.906 90.6 314.79 90.278 314.556 90.054C314.332 89.8207 314.01 89.704 313.59 89.704C313.142 89.704 312.783 89.8487 312.512 90.138C312.242 90.4273 312.106 90.8427 312.106 91.384V95.5H310.664V91.02C310.664 90.6 310.548 90.278 310.314 90.054C310.09 89.8207 309.768 89.704 309.348 89.704C308.9 89.704 308.541 89.8487 308.27 90.138C308 90.4273 307.864 90.8427 307.864 91.384V95.5H306.422ZM320.568 95.696C320.074 95.696 319.63 95.612 319.238 95.444C318.856 95.276 318.548 95.0287 318.314 94.702C318.09 94.3753 317.978 93.9787 317.978 93.512C317.978 93.036 318.09 92.644 318.314 92.336C318.548 92.0187 318.86 91.7807 319.252 91.622C319.654 91.4633 320.106 91.384 320.61 91.384H322.71V90.936C322.71 90.5347 322.589 90.2127 322.346 89.97C322.104 89.7273 321.73 89.606 321.226 89.606C320.732 89.606 320.354 89.7227 320.092 89.956C319.831 90.1893 319.658 90.4927 319.574 90.866L318.23 90.432C318.342 90.0587 318.52 89.7227 318.762 89.424C319.014 89.116 319.346 88.8687 319.756 88.682C320.167 88.4953 320.662 88.402 321.24 88.402C322.136 88.402 322.841 88.6307 323.354 89.088C323.868 89.5453 324.124 90.194 324.124 91.034V93.876C324.124 94.156 324.255 94.296 324.516 94.296H325.104V95.5H324.026C323.7 95.5 323.434 95.416 323.228 95.248C323.023 95.08 322.92 94.8513 322.92 94.562V94.52H322.71C322.636 94.66 322.524 94.8233 322.374 95.01C322.225 95.1967 322.006 95.36 321.716 95.5C321.427 95.6307 321.044 95.696 320.568 95.696ZM320.778 94.506C321.357 94.506 321.824 94.3427 322.178 94.016C322.533 93.68 322.71 93.2227 322.71 92.644V92.504H320.694C320.312 92.504 320.004 92.588 319.77 92.756C319.537 92.9147 319.42 93.1527 319.42 93.47C319.42 93.7873 319.542 94.0393 319.784 94.226C320.027 94.4127 320.358 94.506 320.778 94.506ZM326.006 92.084V91.874C326.006 91.146 326.151 90.5253 326.44 90.012C326.739 89.4987 327.131 89.102 327.616 88.822C328.102 88.542 328.634 88.402 329.212 88.402C329.884 88.402 330.398 88.528 330.752 88.78C331.116 89.032 331.382 89.3027 331.55 89.592H331.774V88.598H333.174V96.914C333.174 97.334 333.048 97.67 332.796 97.922C332.554 98.174 332.218 98.3 331.788 98.3H327.14V97.04H331.34C331.611 97.04 331.746 96.9 331.746 96.62V94.422H331.522C331.42 94.59 331.275 94.7627 331.088 94.94C330.902 95.1173 330.654 95.262 330.346 95.374C330.048 95.486 329.67 95.542 329.212 95.542C328.634 95.542 328.097 95.4067 327.602 95.136C327.117 94.856 326.73 94.4593 326.44 93.946C326.151 93.4233 326.006 92.8027 326.006 92.084ZM329.604 94.282C330.23 94.282 330.743 94.086 331.144 93.694C331.555 93.2927 331.76 92.742 331.76 92.042V91.916C331.76 91.1973 331.56 90.6467 331.158 90.264C330.757 89.872 330.239 89.676 329.604 89.676C328.988 89.676 328.475 89.872 328.064 90.264C327.663 90.6467 327.462 91.1973 327.462 91.916V92.042C327.462 92.742 327.663 93.2927 328.064 93.694C328.475 94.086 328.988 94.282 329.604 94.282ZM338.461 95.696C337.761 95.696 337.15 95.5513 336.627 95.262C336.105 94.9633 335.694 94.548 335.395 94.016C335.106 93.4747 334.961 92.8493 334.961 92.14V91.972C334.961 91.2533 335.106 90.628 335.395 90.096C335.685 89.5547 336.086 89.1393 336.599 88.85C337.122 88.5513 337.724 88.402 338.405 88.402C339.068 88.402 339.647 88.5513 340.141 88.85C340.645 89.1393 341.037 89.5453 341.317 90.068C341.597 90.5907 341.737 91.202 341.737 91.902V92.448H336.431C336.45 93.0547 336.651 93.54 337.033 93.904C337.425 94.2587 337.911 94.436 338.489 94.436C339.031 94.436 339.437 94.3147 339.707 94.072C339.987 93.8293 340.202 93.5493 340.351 93.232L341.541 93.848C341.411 94.1093 341.219 94.3847 340.967 94.674C340.725 94.9633 340.403 95.206 340.001 95.402C339.6 95.598 339.087 95.696 338.461 95.696ZM336.445 91.342H340.267C340.23 90.8193 340.043 90.4133 339.707 90.124C339.371 89.8253 338.933 89.676 338.391 89.676C337.85 89.676 337.407 89.8253 337.061 90.124C336.725 90.4133 336.52 90.8193 336.445 91.342Z" fill="#1C1917"/>
<rect x="218.5" y="108.5" width="186" height="36" fill="#F7FEE7"/>
<rect x="218.5" y="108.5" width="186" height="36" stroke="#292524"/>
<path fill-rule="evenodd" clip-rule="evenodd" d="M239.5 121.5V124H249.5V121.5H239.5ZM239.5 120.25C239.168 120.25 238.851 120.382 238.616 120.616C238.382 120.851 238.25 121.168 238.25 121.5V124C238.25 124.332 238.382 124.649 238.616 124.884C238.851 125.118 239.168 125.25 239.5 125.25H249.5C249.832 125.25 250.149 125.118 250.384 124.884C250.618 124.649 250.75 124.332 250.75 124V121.5C250.75 121.168 250.618 120.851 250.384 120.616C250.149 120.382 249.832 120.25 249.5 120.25H239.5ZM239.5 129V131.5H244.5V129H239.5ZM239.5 127.75C239.168 127.75 238.851 127.882 238.616 128.116C238.382 128.351 238.25 128.668 238.25 129V131.5C238.25 131.832 238.382 132.149 238.616 132.384C238.851 132.618 239.168 132.75 239.5 132.75H244.5C244.832 132.75 245.149 132.618 245.384 132.384C245.618 132.149 245.75 131.832 245.75 131.5V129C245.75 128.668 245.618 128.351 245.384 128.116C245.149 127.882 244.832 127.75 244.5 127.75H239.5Z" fill="#44403C"/>
<path d="M267.452 131.696C266.257 131.696 265.31 131.36 264.61 130.688C263.91 130.007 263.56 129.027 263.56 127.748V125.452C263.56 124.173 263.91 123.198 264.61 122.526C265.31 121.845 266.257 121.504 267.452 121.504C268.628 121.504 269.533 121.831 270.168 122.484C270.812 123.137 271.134 124.029 271.134 125.158V125.242H269.636V125.116C269.636 124.453 269.454 123.912 269.09 123.492C268.735 123.072 268.189 122.862 267.452 122.862C266.705 122.862 266.122 123.091 265.702 123.548C265.282 123.996 265.072 124.621 265.072 125.424V127.776C265.072 128.569 265.282 129.195 265.702 129.652C266.122 130.109 266.705 130.338 267.452 130.338C268.189 130.338 268.735 130.128 269.09 129.708C269.454 129.279 269.636 128.737 269.636 128.084V127.846H271.134V128.042C271.134 129.171 270.812 130.063 270.168 130.716C269.533 131.369 268.628 131.696 267.452 131.696ZM274.992 131.696C274.497 131.696 274.054 131.612 273.662 131.444C273.279 131.276 272.971 131.029 272.738 130.702C272.514 130.375 272.402 129.979 272.402 129.512C272.402 129.036 272.514 128.644 272.738 128.336C272.971 128.019 273.284 127.781 273.676 127.622C274.077 127.463 274.53 127.384 275.034 127.384H277.134V126.936C277.134 126.535 277.013 126.213 276.77 125.97C276.527 125.727 276.154 125.606 275.65 125.606C275.155 125.606 274.777 125.723 274.516 125.956C274.255 126.189 274.082 126.493 273.998 126.866L272.654 126.432C272.766 126.059 272.943 125.723 273.186 125.424C273.438 125.116 273.769 124.869 274.18 124.682C274.591 124.495 275.085 124.402 275.664 124.402C276.56 124.402 277.265 124.631 277.778 125.088C278.291 125.545 278.548 126.194 278.548 127.034V129.876C278.548 130.156 278.679 130.296 278.94 130.296H279.528V131.5H278.45C278.123 131.5 277.857 131.416 277.652 131.248C277.447 131.08 277.344 130.851 277.344 130.562V130.52H277.134C277.059 130.66 276.947 130.823 276.798 131.01C276.649 131.197 276.429 131.36 276.14 131.5C275.851 131.631 275.468 131.696 274.992 131.696ZM275.202 130.506C275.781 130.506 276.247 130.343 276.602 130.016C276.957 129.68 277.134 129.223 277.134 128.644V128.504H275.118C274.735 128.504 274.427 128.588 274.194 128.756C273.961 128.915 273.844 129.153 273.844 129.47C273.844 129.787 273.965 130.039 274.208 130.226C274.451 130.413 274.782 130.506 275.202 130.506ZM280.93 131.5V124.598H282.344V125.41H282.568C282.68 125.121 282.858 124.911 283.1 124.78C283.352 124.64 283.66 124.57 284.024 124.57H284.85V125.872H283.968C283.502 125.872 283.119 126.003 282.82 126.264C282.522 126.516 282.372 126.908 282.372 127.44V131.5H280.93ZM288.954 131.696C288.385 131.696 287.858 131.556 287.372 131.276C286.887 130.996 286.495 130.595 286.196 130.072C285.907 129.54 285.762 128.901 285.762 128.154V127.944C285.762 127.207 285.907 126.572 286.196 126.04C286.486 125.508 286.873 125.102 287.358 124.822C287.844 124.542 288.376 124.402 288.954 124.402C289.402 124.402 289.776 124.458 290.074 124.57C290.382 124.682 290.634 124.827 290.83 125.004C291.026 125.172 291.176 125.349 291.278 125.536H291.502V121.7H292.944V131.5H291.53V130.52H291.306C291.129 130.819 290.858 131.089 290.494 131.332C290.14 131.575 289.626 131.696 288.954 131.696ZM289.36 130.436C289.986 130.436 290.499 130.235 290.9 129.834C291.311 129.433 291.516 128.859 291.516 128.112V127.986C291.516 127.249 291.316 126.679 290.914 126.278C290.513 125.877 289.995 125.676 289.36 125.676C288.744 125.676 288.231 125.877 287.82 126.278C287.419 126.679 287.218 127.249 287.218 127.986V128.112C287.218 128.859 287.419 129.433 287.82 129.834C288.231 130.235 288.744 130.436 289.36 130.436ZM298.665 131.696C297.47 131.696 296.523 131.36 295.823 130.688C295.123 130.007 294.773 129.027 294.773 127.748V125.452C294.773 124.173 295.123 123.198 295.823 122.526C296.523 121.845 297.47 121.504 298.665 121.504C299.841 121.504 300.746 121.831 301.381 122.484C302.025 123.137 302.347 124.029 302.347 125.158V125.242H300.849V125.116C300.849 124.453 300.667 123.912 300.303 123.492C299.948 123.072 299.402 122.862 298.665 122.862C297.918 122.862 297.335 123.091 296.915 123.548C296.495 123.996 296.285 124.621 296.285 125.424V127.776C296.285 128.569 296.495 129.195 296.915 129.652C297.335 130.109 297.918 130.338 298.665 130.338C299.402 130.338 299.948 130.128 300.303 129.708C300.667 129.279 300.849 128.737 300.849 128.084V127.846H302.347V128.042C302.347 129.171 302.025 130.063 301.381 130.716C300.746 131.369 299.841 131.696 298.665 131.696ZM307.297 131.696C306.606 131.696 305.99 131.556 305.449 131.276C304.917 130.987 304.497 130.576 304.189 130.044C303.881 129.512 303.727 128.882 303.727 128.154V127.944C303.727 127.216 303.881 126.591 304.189 126.068C304.497 125.536 304.917 125.125 305.449 124.836C305.99 124.547 306.606 124.402 307.297 124.402C307.988 124.402 308.604 124.547 309.145 124.836C309.686 125.125 310.111 125.536 310.419 126.068C310.727 126.591 310.881 127.216 310.881 127.944V128.154C310.881 128.882 310.727 129.512 310.419 130.044C310.111 130.576 309.686 130.987 309.145 131.276C308.604 131.556 307.988 131.696 307.297 131.696ZM307.297 130.408C307.932 130.408 308.445 130.207 308.837 129.806C309.238 129.395 309.439 128.831 309.439 128.112V127.986C309.439 127.267 309.243 126.707 308.851 126.306C308.459 125.895 307.941 125.69 307.297 125.69C306.672 125.69 306.158 125.895 305.757 126.306C305.365 126.707 305.169 127.267 305.169 127.986V128.112C305.169 128.831 305.365 129.395 305.757 129.806C306.158 130.207 306.672 130.408 307.297 130.408ZM312.676 131.5V124.598H314.09V125.634H314.314C314.445 125.354 314.678 125.093 315.014 124.85C315.35 124.607 315.85 124.486 316.512 124.486C317.035 124.486 317.497 124.603 317.898 124.836C318.309 125.069 318.631 125.401 318.864 125.83C319.098 126.25 319.214 126.759 319.214 127.356V131.5H317.772V127.468C317.772 126.871 317.623 126.432 317.324 126.152C317.026 125.863 316.615 125.718 316.092 125.718C315.495 125.718 315.014 125.914 314.65 126.306C314.296 126.698 314.118 127.267 314.118 128.014V131.5H312.676ZM323.688 131.5C323.268 131.5 322.932 131.374 322.68 131.122C322.438 130.87 322.316 130.534 322.316 130.114V125.816H320.412V124.598H322.316V122.316H323.758V124.598H325.816V125.816H323.758V129.862C323.758 130.142 323.889 130.282 324.15 130.282H325.592V131.5H323.688ZM330.428 131.696C329.728 131.696 329.117 131.551 328.594 131.262C328.072 130.963 327.661 130.548 327.362 130.016C327.073 129.475 326.928 128.849 326.928 128.14V127.972C326.928 127.253 327.073 126.628 327.362 126.096C327.652 125.555 328.053 125.139 328.566 124.85C329.089 124.551 329.691 124.402 330.372 124.402C331.035 124.402 331.614 124.551 332.108 124.85C332.612 125.139 333.004 125.545 333.284 126.068C333.564 126.591 333.704 127.202 333.704 127.902V128.448H328.398C328.417 129.055 328.618 129.54 329 129.904C329.392 130.259 329.878 130.436 330.456 130.436C330.998 130.436 331.404 130.315 331.674 130.072C331.954 129.829 332.169 129.549 332.318 129.232L333.508 129.848C333.378 130.109 333.186 130.385 332.934 130.674C332.692 130.963 332.37 131.206 331.968 131.402C331.567 131.598 331.054 131.696 330.428 131.696ZM328.412 127.342H332.234C332.197 126.819 332.01 126.413 331.674 126.124C331.338 125.825 330.9 125.676 330.358 125.676C329.817 125.676 329.374 125.825 329.028 126.124C328.692 126.413 328.487 126.819 328.412 127.342ZM335.44 131.5V124.598H336.854V125.634H337.078C337.209 125.354 337.442 125.093 337.778 124.85C338.114 124.607 338.613 124.486 339.276 124.486C339.799 124.486 340.261 124.603 340.662 124.836C341.073 125.069 341.395 125.401 341.628 125.83C341.861 126.25 341.978 126.759 341.978 127.356V131.5H340.536V127.468C340.536 126.871 340.387 126.432 340.088 126.152C339.789 125.863 339.379 125.718 338.856 125.718C338.259 125.718 337.778 125.914 337.414 126.306C337.059 126.698 336.882 127.267 336.882 128.014V131.5H335.44ZM346.452 131.5C346.032 131.5 345.696 131.374 345.444 131.122C345.201 130.87 345.08 130.534 345.08 130.114V125.816H343.176V124.598H345.08V122.316H346.522V124.598H348.58V125.816H346.522V129.862C346.522 130.142 346.653 130.282 346.914 130.282H348.356V131.5H346.452Z" fill="#1C1917"/>
<rect x="218.5" y="144.5" width="186" height="36" fill="#F7FEE7"/>
<rect x="218.5" y="144.5" width="186" height="36" stroke="#292524"/>
<path fill-rule="evenodd" clip-rule="evenodd" d="M247.5 157.5H250V167.5H247.5V157.5ZM246.25 157.5C246.25 157.168 246.382 156.851 246.616 156.616C246.851 156.382 247.168 156.25 247.5 156.25H250C250.332 156.25 250.649 156.382 250.884 156.616C251.118 156.851 251.25 157.168 251.25 157.5V167.5C251.25 167.832 251.118 168.149 250.884 168.384C250.649 168.618 250.332 168.75 250 168.75H247.5C247.168 168.75 246.851 168.618 246.616 168.384C246.382 168.149 246.25 167.832 246.25 167.5V157.5ZM255 160H257.5V165H255V160ZM253.75 160C253.75 159.668 253.882 159.351 254.116 159.116C254.351 158.882 254.668 158.75 255 158.75H257.5C257.832 158.75 258.149 158.882 258.384 159.116C258.618 159.351 258.75 159.668 258.75 160V165C258.75 165.332 258.618 165.649 258.384 165.884C258.149 166.118 257.832 166.25 257.5 166.25H255C254.668 166.25 254.351 166.118 254.116 165.884C253.882 165.649 253.75 165.332 253.75 165V160Z" fill="#44403C"/>
<path d="M275.64 167.696C274.445 167.696 273.498 167.36 272.798 166.688C272.098 166.007 271.748 165.027 271.748 163.748V161.452C271.748 160.173 272.098 159.198 272.798 158.526C273.498 157.845 274.445 157.504 275.64 157.504C276.816 157.504 277.721 157.831 278.356 158.484C279 159.137 279.322 160.029 279.322 161.158V161.242H277.824V161.116C277.824 160.453 277.642 159.912 277.278 159.492C276.923 159.072 276.377 158.862 275.64 158.862C274.893 158.862 274.31 159.091 273.89 159.548C273.47 159.996 273.26 160.621 273.26 161.424V163.776C273.26 164.569 273.47 165.195 273.89 165.652C274.31 166.109 274.893 166.338 275.64 166.338C276.377 166.338 276.923 166.128 277.278 165.708C277.642 165.279 277.824 164.737 277.824 164.084V163.846H279.322V164.042C279.322 165.171 279 166.063 278.356 166.716C277.721 167.369 276.816 167.696 275.64 167.696ZM283.18 167.696C282.685 167.696 282.242 167.612 281.85 167.444C281.467 167.276 281.159 167.029 280.926 166.702C280.702 166.375 280.59 165.979 280.59 165.512C280.59 165.036 280.702 164.644 280.926 164.336C281.159 164.019 281.472 163.781 281.864 163.622C282.265 163.463 282.718 163.384 283.222 163.384H285.322V162.936C285.322 162.535 285.2 162.213 284.958 161.97C284.715 161.727 284.342 161.606 283.838 161.606C283.343 161.606 282.965 161.723 282.704 161.956C282.442 162.189 282.27 162.493 282.186 162.866L280.842 162.432C280.954 162.059 281.131 161.723 281.374 161.424C281.626 161.116 281.957 160.869 282.368 160.682C282.778 160.495 283.273 160.402 283.852 160.402C284.748 160.402 285.452 160.631 285.966 161.088C286.479 161.545 286.736 162.194 286.736 163.034V165.876C286.736 166.156 286.866 166.296 287.128 166.296H287.716V167.5H286.638C286.311 167.5 286.045 167.416 285.84 167.248C285.634 167.08 285.532 166.851 285.532 166.562V166.52H285.322C285.247 166.66 285.135 166.823 284.986 167.01C284.836 167.197 284.617 167.36 284.328 167.5C284.038 167.631 283.656 167.696 283.18 167.696ZM283.39 166.506C283.968 166.506 284.435 166.343 284.79 166.016C285.144 165.68 285.322 165.223 285.322 164.644V164.504H283.306C282.923 164.504 282.615 164.588 282.382 164.756C282.148 164.915 282.032 165.153 282.032 165.47C282.032 165.787 282.153 166.039 282.396 166.226C282.638 166.413 282.97 166.506 283.39 166.506ZM289.118 167.5V160.598H290.532V161.41H290.756C290.868 161.121 291.045 160.911 291.288 160.78C291.54 160.64 291.848 160.57 292.212 160.57H293.038V161.872H292.156C291.689 161.872 291.306 162.003 291.008 162.264C290.709 162.516 290.56 162.908 290.56 163.44V167.5H289.118ZM297.142 167.696C296.572 167.696 296.045 167.556 295.56 167.276C295.074 166.996 294.682 166.595 294.384 166.072C294.094 165.54 293.95 164.901 293.95 164.154V163.944C293.95 163.207 294.094 162.572 294.384 162.04C294.673 161.508 295.06 161.102 295.546 160.822C296.031 160.542 296.563 160.402 297.142 160.402C297.59 160.402 297.963 160.458 298.262 160.57C298.57 160.682 298.822 160.827 299.018 161.004C299.214 161.172 299.363 161.349 299.466 161.536H299.69V157.7H301.132V167.5H299.718V166.52H299.494C299.316 166.819 299.046 167.089 298.682 167.332C298.327 167.575 297.814 167.696 297.142 167.696ZM297.548 166.436C298.173 166.436 298.686 166.235 299.088 165.834C299.498 165.433 299.704 164.859 299.704 164.112V163.986C299.704 163.249 299.503 162.679 299.102 162.278C298.7 161.877 298.182 161.676 297.548 161.676C296.932 161.676 296.418 161.877 296.008 162.278C295.606 162.679 295.406 163.249 295.406 163.986V164.112C295.406 164.859 295.606 165.433 296.008 165.834C296.418 166.235 296.932 166.436 297.548 166.436ZM305.55 167.5V159.072H302.54V157.7H310.072V159.072H307.062V167.5H305.55ZM311.335 167.5V160.598H312.777V167.5H311.335ZM312.063 159.66C311.783 159.66 311.545 159.571 311.349 159.394C311.162 159.207 311.069 158.969 311.069 158.68C311.069 158.391 311.162 158.157 311.349 157.98C311.545 157.793 311.783 157.7 312.063 157.7C312.352 157.7 312.59 157.793 312.777 157.98C312.963 158.157 313.057 158.391 313.057 158.68C313.057 158.969 312.963 159.207 312.777 159.394C312.59 159.571 312.352 159.66 312.063 159.66ZM317.507 167.5C317.087 167.5 316.751 167.374 316.499 167.122C316.256 166.87 316.135 166.534 316.135 166.114V161.816H314.231V160.598H316.135V158.316H317.577V160.598H319.635V161.816H317.577V165.862C317.577 166.142 317.707 166.282 317.969 166.282H319.411V167.5H317.507ZM321.329 167.5V157.7H322.771V167.5H321.329ZM328.075 167.696C327.375 167.696 326.763 167.551 326.241 167.262C325.718 166.963 325.307 166.548 325.009 166.016C324.719 165.475 324.575 164.849 324.575 164.14V163.972C324.575 163.253 324.719 162.628 325.009 162.096C325.298 161.555 325.699 161.139 326.213 160.85C326.735 160.551 327.337 160.402 328.019 160.402C328.681 160.402 329.26 160.551 329.755 160.85C330.259 161.139 330.651 161.545 330.931 162.068C331.211 162.591 331.351 163.202 331.351 163.902V164.448H326.045C326.063 165.055 326.264 165.54 326.647 165.904C327.039 166.259 327.524 166.436 328.103 166.436C328.644 166.436 329.05 166.315 329.321 166.072C329.601 165.829 329.815 165.549 329.965 165.232L331.155 165.848C331.024 166.109 330.833 166.385 330.581 166.674C330.338 166.963 330.016 167.206 329.615 167.402C329.213 167.598 328.7 167.696 328.075 167.696ZM326.059 163.342H329.881C329.843 162.819 329.657 162.413 329.321 162.124C328.985 161.825 328.546 161.676 328.005 161.676C327.463 161.676 327.02 161.825 326.675 162.124C326.339 162.413 326.133 162.819 326.059 163.342Z" fill="#1C1917"/>
<rect x="218.5" y="180.5" width="186" height="36" fill="#F7FEE7"/>
<rect x="218.5" y="180.5" width="186" height="36" stroke="#292524"/>
<path fill-rule="evenodd" clip-rule="evenodd" d="M247.5 193.5H250V203.5H247.5V193.5ZM246.25 193.5C246.25 193.168 246.382 192.851 246.616 192.616C246.851 192.382 247.168 192.25 247.5 192.25H250C250.332 192.25 250.649 192.382 250.884 192.616C251.118 192.851 251.25 193.168 251.25 193.5V203.5C251.25 203.832 251.118 204.149 250.884 204.384C250.649 204.618 250.332 204.75 250 204.75H247.5C247.168 204.75 246.851 204.618 246.616 204.384C246.382 204.149 246.25 203.832 246.25 203.5V193.5ZM255 193.5H257.5V198.5H255V193.5ZM253.75 193.5C253.75 193.168 253.882 192.851 254.116 192.616C254.351 192.382 254.668 192.25 255 192.25H257.5C257.832 192.25 258.149 192.382 258.384 192.616C258.618 192.851 258.75 193.168 258.75 193.5V198.5C258.75 198.832 258.618 199.149 258.384 199.384C258.149 199.618 257.832 199.75 257.5 199.75H255C254.668 199.75 254.351 199.618 254.116 199.384C253.882 199.149 253.75 198.832 253.75 198.5V193.5Z" fill="#44403C"/>
<path d="M275.529 203.696C274.335 203.696 273.387 203.36 272.687 202.688C271.987 202.007 271.637 201.027 271.637 199.748V197.452C271.637 196.173 271.987 195.198 272.687 194.526C273.387 193.845 274.335 193.504 275.529 193.504C276.705 193.504 277.611 193.831 278.245 194.484C278.889 195.137 279.211 196.029 279.211 197.158V197.242H277.713V197.116C277.713 196.453 277.531 195.912 277.167 195.492C276.813 195.072 276.267 194.862 275.529 194.862C274.783 194.862 274.199 195.091 273.779 195.548C273.359 195.996 273.149 196.621 273.149 197.424V199.776C273.149 200.569 273.359 201.195 273.779 201.652C274.199 202.109 274.783 202.338 275.529 202.338C276.267 202.338 276.813 202.128 277.167 201.708C277.531 201.279 277.713 200.737 277.713 200.084V199.846H279.211V200.042C279.211 201.171 278.889 202.063 278.245 202.716C277.611 203.369 276.705 203.696 275.529 203.696ZM283.069 203.696C282.575 203.696 282.131 203.612 281.739 203.444C281.357 203.276 281.049 203.029 280.815 202.702C280.591 202.375 280.479 201.979 280.479 201.512C280.479 201.036 280.591 200.644 280.815 200.336C281.049 200.019 281.361 199.781 281.753 199.622C282.155 199.463 282.607 199.384 283.111 199.384H285.211V198.936C285.211 198.535 285.09 198.213 284.847 197.97C284.605 197.727 284.231 197.606 283.727 197.606C283.233 197.606 282.855 197.723 282.593 197.956C282.332 198.189 282.159 198.493 282.075 198.866L280.731 198.432C280.843 198.059 281.021 197.723 281.263 197.424C281.515 197.116 281.847 196.869 282.257 196.682C282.668 196.495 283.163 196.402 283.741 196.402C284.637 196.402 285.342 196.631 285.855 197.088C286.369 197.545 286.625 198.194 286.625 199.034V201.876C286.625 202.156 286.756 202.296 287.017 202.296H287.605V203.5H286.527C286.201 203.5 285.935 203.416 285.729 203.248C285.524 203.08 285.421 202.851 285.421 202.562V202.52H285.211C285.137 202.66 285.025 202.823 284.875 203.01C284.726 203.197 284.507 203.36 284.217 203.5C283.928 203.631 283.545 203.696 283.069 203.696ZM283.279 202.506C283.858 202.506 284.325 202.343 284.679 202.016C285.034 201.68 285.211 201.223 285.211 200.644V200.504H283.195C282.813 200.504 282.505 200.588 282.271 200.756C282.038 200.915 281.921 201.153 281.921 201.47C281.921 201.787 282.043 202.039 282.285 202.226C282.528 202.413 282.859 202.506 283.279 202.506ZM289.007 203.5V196.598H290.421V197.41H290.645C290.757 197.121 290.935 196.911 291.177 196.78C291.429 196.64 291.737 196.57 292.101 196.57H292.927V197.872H292.045C291.579 197.872 291.196 198.003 290.897 198.264C290.599 198.516 290.449 198.908 290.449 199.44V203.5H289.007ZM297.031 203.696C296.462 203.696 295.935 203.556 295.449 203.276C294.964 202.996 294.572 202.595 294.273 202.072C293.984 201.54 293.839 200.901 293.839 200.154V199.944C293.839 199.207 293.984 198.572 294.273 198.04C294.563 197.508 294.95 197.102 295.435 196.822C295.921 196.542 296.453 196.402 297.031 196.402C297.479 196.402 297.853 196.458 298.151 196.57C298.459 196.682 298.711 196.827 298.907 197.004C299.103 197.172 299.253 197.349 299.355 197.536H299.579V193.7H301.021V203.5H299.607V202.52H299.383C299.206 202.819 298.935 203.089 298.571 203.332C298.217 203.575 297.703 203.696 297.031 203.696ZM297.437 202.436C298.063 202.436 298.576 202.235 298.977 201.834C299.388 201.433 299.593 200.859 299.593 200.112V199.986C299.593 199.249 299.393 198.679 298.991 198.278C298.59 197.877 298.072 197.676 297.437 197.676C296.821 197.676 296.308 197.877 295.897 198.278C295.496 198.679 295.295 199.249 295.295 199.986V200.112C295.295 200.859 295.496 201.433 295.897 201.834C296.308 202.235 296.821 202.436 297.437 202.436ZM302.738 203.5V202.156H304.054V195.044H302.738V193.7H306.658C307.965 193.7 308.963 194.031 309.654 194.694C310.354 195.357 310.704 196.355 310.704 197.69V199.524C310.704 200.859 310.354 201.857 309.654 202.52C308.963 203.173 307.965 203.5 306.658 203.5H302.738ZM305.58 202.128H306.672C307.521 202.128 308.151 201.913 308.562 201.484C308.973 201.055 309.178 200.415 309.178 199.566V197.634C309.178 196.775 308.973 196.136 308.562 195.716C308.151 195.296 307.521 195.086 306.672 195.086H305.58V202.128ZM315.619 203.696C314.919 203.696 314.307 203.551 313.785 203.262C313.262 202.963 312.851 202.548 312.553 202.016C312.263 201.475 312.119 200.849 312.119 200.14V199.972C312.119 199.253 312.263 198.628 312.553 198.096C312.842 197.555 313.243 197.139 313.757 196.85C314.279 196.551 314.881 196.402 315.563 196.402C316.225 196.402 316.804 196.551 317.299 196.85C317.803 197.139 318.195 197.545 318.475 198.068C318.755 198.591 318.895 199.202 318.895 199.902V200.448H313.589C313.607 201.055 313.808 201.54 314.191 201.904C314.583 202.259 315.068 202.436 315.647 202.436C316.188 202.436 316.594 202.315 316.865 202.072C317.145 201.829 317.359 201.549 317.509 201.232L318.699 201.848C318.568 202.109 318.377 202.385 318.125 202.674C317.882 202.963 317.56 203.206 317.159 203.402C316.757 203.598 316.244 203.696 315.619 203.696ZM313.603 199.342H317.425C317.387 198.819 317.201 198.413 316.865 198.124C316.529 197.825 316.09 197.676 315.549 197.676C315.007 197.676 314.564 197.825 314.219 198.124C313.883 198.413 313.677 198.819 313.603 199.342ZM323.458 203.696C322.581 203.696 321.853 203.5 321.274 203.108C320.696 202.716 320.341 202.123 320.21 201.33L321.554 201.008C321.629 201.391 321.755 201.694 321.932 201.918C322.11 202.142 322.329 202.301 322.59 202.394C322.861 202.487 323.15 202.534 323.458 202.534C323.916 202.534 324.266 202.445 324.508 202.268C324.76 202.091 324.886 201.862 324.886 201.582C324.886 201.302 324.77 201.097 324.536 200.966C324.303 200.835 323.958 200.728 323.5 200.644L323.024 200.56C322.558 200.476 322.133 200.355 321.75 200.196C321.368 200.037 321.064 199.818 320.84 199.538C320.616 199.258 320.504 198.899 320.504 198.46C320.504 197.807 320.747 197.303 321.232 196.948C321.718 196.584 322.362 196.402 323.164 196.402C323.939 196.402 324.574 196.579 325.068 196.934C325.572 197.279 325.899 197.751 326.048 198.348L324.704 198.726C324.62 198.306 324.443 198.012 324.172 197.844C323.902 197.667 323.566 197.578 323.164 197.578C322.772 197.578 322.464 197.653 322.24 197.802C322.016 197.942 321.904 198.143 321.904 198.404C321.904 198.684 322.012 198.889 322.226 199.02C322.45 199.151 322.749 199.249 323.122 199.314L323.612 199.398C324.107 199.482 324.56 199.599 324.97 199.748C325.381 199.897 325.703 200.112 325.936 200.392C326.179 200.672 326.3 201.045 326.3 201.512C326.3 202.203 326.044 202.739 325.53 203.122C325.017 203.505 324.326 203.696 323.458 203.696ZM331.192 203.696C330.529 203.696 329.927 203.556 329.386 203.276C328.854 202.996 328.429 202.59 328.112 202.058C327.804 201.526 327.65 200.887 327.65 200.14V199.958C327.65 199.211 327.804 198.577 328.112 198.054C328.429 197.522 328.854 197.116 329.386 196.836C329.927 196.547 330.529 196.402 331.192 196.402C331.855 196.402 332.419 196.523 332.886 196.766C333.353 197.009 333.726 197.331 334.006 197.732C334.295 198.133 334.482 198.577 334.566 199.062L333.166 199.356C333.119 199.048 333.021 198.768 332.872 198.516C332.723 198.264 332.513 198.063 332.242 197.914C331.971 197.765 331.631 197.69 331.22 197.69C330.819 197.69 330.455 197.783 330.128 197.97C329.811 198.147 329.559 198.409 329.372 198.754C329.185 199.09 329.092 199.501 329.092 199.986V200.112C329.092 200.597 329.185 201.013 329.372 201.358C329.559 201.703 329.811 201.965 330.128 202.142C330.455 202.319 330.819 202.408 331.22 202.408C331.827 202.408 332.289 202.254 332.606 201.946C332.923 201.629 333.124 201.227 333.208 200.742L334.608 201.064C334.496 201.54 334.295 201.979 334.006 202.38C333.726 202.781 333.353 203.103 332.886 203.346C332.419 203.579 331.855 203.696 331.192 203.696ZM336.271 203.5V196.598H337.685V197.41H337.909C338.021 197.121 338.198 196.911 338.441 196.78C338.693 196.64 339.001 196.57 339.365 196.57H340.191V197.872H339.309C338.842 197.872 338.46 198.003 338.161 198.264C337.862 198.516 337.713 198.908 337.713 199.44V203.5H336.271ZM341.685 203.5V196.598H343.127V203.5H341.685ZM342.413 195.66C342.133 195.66 341.895 195.571 341.699 195.394C341.512 195.207 341.419 194.969 341.419 194.68C341.419 194.391 341.512 194.157 341.699 193.98C341.895 193.793 342.133 193.7 342.413 193.7C342.702 193.7 342.94 193.793 343.127 193.98C343.314 194.157 343.407 194.391 343.407 194.68C343.407 194.969 343.314 195.207 343.127 195.394C342.94 195.571 342.702 195.66 342.413 195.66ZM345.267 206.3V196.598H346.681V197.592H346.905C347.082 197.284 347.348 197.009 347.703 196.766C348.067 196.523 348.585 196.402 349.257 196.402C349.836 196.402 350.363 196.542 350.839 196.822C351.324 197.102 351.712 197.508 352.001 198.04C352.3 198.563 352.449 199.197 352.449 199.944V200.154C352.449 200.901 352.304 201.54 352.015 202.072C351.726 202.595 351.338 202.996 350.853 203.276C350.368 203.556 349.836 203.696 349.257 203.696C348.809 203.696 348.431 203.64 348.123 203.528C347.815 203.416 347.568 203.276 347.381 203.108C347.194 202.931 347.045 202.749 346.933 202.562H346.709V206.3H345.267ZM348.837 202.436C349.472 202.436 349.99 202.235 350.391 201.834C350.792 201.433 350.993 200.859 350.993 200.112V199.986C350.993 199.249 350.788 198.679 350.377 198.278C349.976 197.877 349.462 197.676 348.837 197.676C348.221 197.676 347.708 197.877 347.297 198.278C346.896 198.679 346.695 199.249 346.695 199.986V200.112C346.695 200.859 346.896 201.433 347.297 201.834C347.708 202.235 348.221 202.436 348.837 202.436ZM356.566 203.5C356.146 203.5 355.81 203.374 355.558 203.122C355.315 202.87 355.194 202.534 355.194 202.114V197.816H353.29V196.598H355.194V194.316H356.636V196.598H358.694V197.816H356.636V201.862C356.636 202.142 356.767 202.282 357.028 202.282H358.47V203.5H356.566ZM360.388 203.5V196.598H361.83V203.5H360.388ZM361.116 195.66C360.836 195.66 360.598 195.571 360.402 195.394C360.216 195.207 360.122 194.969 360.122 194.68C360.122 194.391 360.216 194.157 360.402 193.98C360.598 193.793 360.836 193.7 361.116 193.7C361.406 193.7 361.644 193.793 361.83 193.98C362.017 194.157 362.11 194.391 362.11 194.68C362.11 194.969 362.017 195.207 361.83 195.394C361.644 195.571 361.406 195.66 361.116 195.66ZM367.204 203.696C366.514 203.696 365.898 203.556 365.356 203.276C364.824 202.987 364.404 202.576 364.096 202.044C363.788 201.512 363.634 200.882 363.634 200.154V199.944C363.634 199.216 363.788 198.591 364.096 198.068C364.404 197.536 364.824 197.125 365.356 196.836C365.898 196.547 366.514 196.402 367.204 196.402C367.895 196.402 368.511 196.547 369.052 196.836C369.594 197.125 370.018 197.536 370.326 198.068C370.634 198.591 370.788 199.216 370.788 199.944V200.154C370.788 200.882 370.634 201.512 370.326 202.044C370.018 202.576 369.594 202.987 369.052 203.276C368.511 203.556 367.895 203.696 367.204 203.696ZM367.204 202.408C367.839 202.408 368.352 202.207 368.744 201.806C369.146 201.395 369.346 200.831 369.346 200.112V199.986C369.346 199.267 369.15 198.707 368.758 198.306C368.366 197.895 367.848 197.69 367.204 197.69C366.579 197.69 366.066 197.895 365.664 198.306C365.272 198.707 365.076 199.267 365.076 199.986V200.112C365.076 200.831 365.272 201.395 365.664 201.806C366.066 202.207 366.579 202.408 367.204 202.408ZM372.584 203.5V196.598H373.998V197.634H374.222C374.352 197.354 374.586 197.093 374.922 196.85C375.258 196.607 375.757 196.486 376.42 196.486C376.942 196.486 377.404 196.603 377.806 196.836C378.216 197.069 378.538 197.401 378.772 197.83C379.005 198.25 379.122 198.759 379.122 199.356V203.5H377.68V199.468C377.68 198.871 377.53 198.432 377.232 198.152C376.933 197.863 376.522 197.718 376 197.718C375.402 197.718 374.922 197.914 374.558 198.306C374.203 198.698 374.026 199.267 374.026 200.014V203.5H372.584Z" fill="#1C1917"/>
</svg>
