<svg width="712" height="160" viewBox="0 0 712 160" fill="none" xmlns="http://www.w3.org/2000/svg">
<path d="M74 4.3877C77.7128 2.24416 82.2872 2.24416 86 4.3877L142.482 36.998C146.195 39.1416 148.482 43.1028 148.482 47.3896V112.61C148.482 116.897 146.195 120.858 142.482 123.002L86 155.612C82.2872 157.756 77.7128 157.756 74 155.612L17.5176 123.002C13.8051 120.858 11.5177 116.897 11.5176 112.61V47.3896C11.5177 43.1028 13.8051 39.1416 17.5176 36.998L74 4.3877Z" fill="#ECFDF5" stroke="#292524" stroke-width="1.6"/>
<path d="M74.855 69.78L75.105 72L76.725 70.46L79.495 62.86C78.815 62.69 78.215 62.35 77.725 61.88L74.855 69.78Z" fill="#44403C"/>
<path d="M83.265 61.88C82.775 62.35 82.165 62.69 81.495 62.86L84.265 70.46L85.885 72L86.145 69.78L83.265 61.88Z" fill="#44403C"/>
<path d="M83.495 59C83.495 57.7 82.655 56.6 81.495 56.18V54H79.495V56.18C78.335 56.6 77.495 57.7 77.495 59C77.495 60.66 78.835 62 80.495 62C82.155 62 83.495 60.66 83.495 59ZM80.495 60C79.945 60 79.495 59.55 79.495 59C79.495 58.45 79.945 58 80.495 58C81.045 58 81.495 58.45 81.495 59C81.495 59.55 81.045 60 80.495 60Z" fill="#44403C"/>
<path d="M43.598 101.252C42.65 101.252 41.81 101.084 41.078 100.748C40.346 100.412 39.77 99.92 39.35 99.272C38.942 98.612 38.738 97.814 38.738 96.878V96.428H40.664V96.878C40.664 97.766 40.928 98.432 41.456 98.876C41.996 99.32 42.71 99.542 43.598 99.542C44.498 99.542 45.176 99.356 45.632 98.984C46.088 98.6 46.316 98.108 46.316 97.508C46.316 97.112 46.208 96.788 45.992 96.536C45.776 96.284 45.47 96.086 45.074 95.942C44.678 95.786 44.204 95.642 43.652 95.51L42.986 95.348C42.182 95.156 41.48 94.922 40.88 94.646C40.292 94.358 39.836 93.98 39.512 93.512C39.188 93.044 39.026 92.444 39.026 91.712C39.026 90.968 39.206 90.332 39.566 89.804C39.938 89.276 40.448 88.868 41.096 88.58C41.744 88.292 42.506 88.148 43.382 88.148C44.258 88.148 45.038 88.298 45.722 88.598C46.418 88.898 46.964 89.342 47.36 89.93C47.756 90.518 47.954 91.256 47.954 92.144V92.792H46.028V92.144C46.028 91.604 45.914 91.166 45.686 90.83C45.47 90.494 45.164 90.248 44.768 90.092C44.372 89.936 43.91 89.858 43.382 89.858C42.614 89.858 42.014 90.02 41.582 90.344C41.162 90.656 40.952 91.094 40.952 91.658C40.952 92.042 41.042 92.36 41.222 92.612C41.414 92.852 41.69 93.05 42.05 93.206C42.41 93.362 42.86 93.5 43.4 93.62L44.066 93.782C44.882 93.962 45.602 94.196 46.226 94.484C46.85 94.76 47.342 95.138 47.702 95.618C48.062 96.098 48.242 96.716 48.242 97.472C48.242 98.228 48.05 98.888 47.666 99.452C47.294 100.016 46.76 100.46 46.064 100.784C45.368 101.096 44.546 101.252 43.598 101.252ZM53.6668 101C53.1268 101 52.6948 100.838 52.3708 100.514C52.0588 100.19 51.9028 99.758 51.9028 99.218V93.692H49.4548V92.126H51.9028V89.192H53.7568V92.126H56.4028V93.692H53.7568V98.894C53.7568 99.254 53.9248 99.434 54.2607 99.434H56.1148V101H53.6668ZM58.5809 101V92.126H60.3989V93.17H60.6869C60.8309 92.798 61.0589 92.528 61.3709 92.36C61.6949 92.18 62.0909 92.09 62.5589 92.09H63.6209V93.764H62.4869C61.8869 93.764 61.3949 93.932 61.0109 94.268C60.6269 94.592 60.4349 95.096 60.4349 95.78V101H58.5809ZM68.9438 101.162C68.2718 101.162 67.6718 101.012 67.1438 100.712C66.6158 100.412 66.2018 99.986 65.9018 99.434C65.6018 98.882 65.4518 98.222 65.4518 97.454V92.126H67.3058V97.328C67.3058 98.096 67.4978 98.666 67.8818 99.038C68.2658 99.398 68.7998 99.578 69.4838 99.578C70.2398 99.578 70.8458 99.326 71.3018 98.822C71.7698 98.306 72.0038 97.568 72.0038 96.608V92.126H73.8578V101H72.0398V99.668H71.7518C71.5838 100.028 71.2838 100.37 70.8518 100.694C70.4198 101.006 69.7838 101.162 68.9438 101.162ZM80.7205 101.252C79.8685 101.252 79.0945 101.072 78.3985 100.712C77.7145 100.352 77.1685 99.83 76.7605 99.146C76.3645 98.462 76.1665 97.64 76.1665 96.68V96.446C76.1665 95.486 76.3645 94.67 76.7605 93.998C77.1685 93.314 77.7145 92.792 78.3985 92.432C79.0945 92.06 79.8685 91.874 80.7205 91.874C81.5725 91.874 82.2985 92.03 82.8985 92.342C83.4985 92.654 83.9785 93.068 84.3385 93.584C84.7105 94.1 84.9505 94.67 85.0585 95.294L83.2585 95.672C83.1985 95.276 83.0725 94.916 82.8805 94.592C82.6885 94.268 82.4185 94.01 82.0705 93.818C81.7225 93.626 81.2845 93.53 80.7565 93.53C80.2405 93.53 79.7725 93.65 79.3525 93.89C78.9445 94.118 78.6205 94.454 78.3805 94.898C78.1405 95.33 78.0205 95.858 78.0205 96.482V96.644C78.0205 97.268 78.1405 97.802 78.3805 98.246C78.6205 98.69 78.9445 99.026 79.3525 99.254C79.7725 99.482 80.2405 99.596 80.7565 99.596C81.5365 99.596 82.1305 99.398 82.5385 99.002C82.9465 98.594 83.2045 98.078 83.3125 97.454L85.1125 97.868C84.9685 98.48 84.7105 99.044 84.3385 99.56C83.9785 100.076 83.4985 100.49 82.8985 100.802C82.2985 101.102 81.5725 101.252 80.7205 101.252ZM90.2468 101C89.7068 101 89.2748 100.838 88.9508 100.514C88.6388 100.19 88.4828 99.758 88.4828 99.218V93.692H86.0348V92.126H88.4828V89.192H90.3368V92.126H92.9828V93.692H90.3368V98.894C90.3368 99.254 90.5048 99.434 90.8408 99.434H92.6948V101H90.2468ZM98.563 101.162C97.891 101.162 97.291 101.012 96.763 100.712C96.235 100.412 95.821 99.986 95.521 99.434C95.221 98.882 95.071 98.222 95.071 97.454V92.126H96.925V97.328C96.925 98.096 97.117 98.666 97.501 99.038C97.885 99.398 98.419 99.578 99.103 99.578C99.859 99.578 100.465 99.326 100.921 98.822C101.389 98.306 101.623 97.568 101.623 96.608V92.126H103.477V101H101.659V99.668H101.371C101.203 100.028 100.903 100.37 100.471 100.694C100.039 101.006 99.403 101.162 98.563 101.162ZM106.218 101V92.126H108.036V93.17H108.324C108.468 92.798 108.696 92.528 109.008 92.36C109.332 92.18 109.728 92.09 110.196 92.09H111.258V93.764H110.124C109.524 93.764 109.032 93.932 108.648 94.268C108.264 94.592 108.072 95.096 108.072 95.78V101H106.218ZM116.93 101.252C116.03 101.252 115.244 101.066 114.572 100.694C113.9 100.31 113.372 99.776 112.988 99.092C112.616 98.396 112.43 97.592 112.43 96.68V96.464C112.43 95.54 112.616 94.736 112.988 94.052C113.36 93.356 113.876 92.822 114.536 92.45C115.208 92.066 115.982 91.874 116.858 91.874C117.71 91.874 118.454 92.066 119.09 92.45C119.738 92.822 120.242 93.344 120.602 94.016C120.962 94.688 121.142 95.474 121.142 96.374V97.076H114.32C114.344 97.856 114.602 98.48 115.094 98.948C115.598 99.404 116.222 99.632 116.966 99.632C117.662 99.632 118.184 99.476 118.532 99.164C118.892 98.852 119.168 98.492 119.36 98.084L120.89 98.876C120.722 99.212 120.476 99.566 120.152 99.938C119.84 100.31 119.426 100.622 118.91 100.874C118.394 101.126 117.734 101.252 116.93 101.252ZM114.338 95.654H119.252C119.204 94.982 118.964 94.46 118.532 94.088C118.1 93.704 117.536 93.512 116.84 93.512C116.144 93.512 115.574 93.704 115.13 94.088C114.698 94.46 114.434 94.982 114.338 95.654Z" fill="#1C1917"/>
<path d="M258 4.3877C261.713 2.24416 266.287 2.24416 270 4.3877L326.482 36.998C330.195 39.1416 332.482 43.1028 332.482 47.3896V112.61C332.482 116.897 330.195 120.858 326.482 123.002L270 155.612C266.287 157.756 261.713 157.756 258 155.612L201.518 123.002C197.805 120.858 195.518 116.897 195.518 112.61V47.3896C195.518 43.1028 197.805 39.1416 201.518 36.998L258 4.3877Z" fill="#FFF7ED" stroke="#292524" stroke-width="1.6"/>
<path d="M274.5 62V54H267.5V57H261.5V54H254.5V62H261.5V59H263.5V69H267.5V72H274.5V64H267.5V67H265.5V59H267.5V62H274.5ZM259.5 60H256.5V56H259.5V60ZM269.5 66H272.5V70H269.5V66ZM269.5 56H272.5V60H269.5V56Z" fill="#44403C"/>
<path d="M220.314 101V88.4H225.318C226.086 88.4 226.77 88.556 227.37 88.868C227.982 89.168 228.456 89.6 228.792 90.164C229.14 90.716 229.314 91.382 229.314 92.162V92.396C229.314 93.176 229.134 93.848 228.774 94.412C228.426 94.976 227.952 95.408 227.352 95.708C226.752 96.008 226.074 96.158 225.318 96.158H222.258V101H220.314ZM222.258 94.394H225.12C225.804 94.394 226.35 94.214 226.758 93.854C227.166 93.494 227.37 93.002 227.37 92.378V92.198C227.37 91.562 227.166 91.064 226.758 90.704C226.35 90.344 225.804 90.164 225.12 90.164H222.258V94.394ZM231.214 101V92.126H233.032V93.17H233.32C233.464 92.798 233.692 92.528 234.004 92.36C234.328 92.18 234.724 92.09 235.192 92.09H236.254V93.764H235.12C234.52 93.764 234.028 93.932 233.644 94.268C233.26 94.592 233.068 95.096 233.068 95.78V101H231.214ZM242.016 101.252C241.128 101.252 240.336 101.072 239.64 100.712C238.956 100.34 238.416 99.812 238.02 99.128C237.624 98.444 237.426 97.634 237.426 96.698V96.428C237.426 95.492 237.624 94.688 238.02 94.016C238.416 93.332 238.956 92.804 239.64 92.432C240.336 92.06 241.128 91.874 242.016 91.874C242.904 91.874 243.696 92.06 244.392 92.432C245.088 92.804 245.634 93.332 246.03 94.016C246.426 94.688 246.624 95.492 246.624 96.428V96.698C246.624 97.634 246.426 98.444 246.03 99.128C245.634 99.812 245.088 100.34 244.392 100.712C243.696 101.072 242.904 101.252 242.016 101.252ZM242.016 99.596C242.832 99.596 243.492 99.338 243.996 98.822C244.512 98.294 244.77 97.568 244.77 96.644V96.482C244.77 95.558 244.518 94.838 244.014 94.322C243.51 93.794 242.844 93.53 242.016 93.53C241.212 93.53 240.552 93.794 240.036 94.322C239.532 94.838 239.28 95.558 239.28 96.482V96.644C239.28 97.568 239.532 98.294 240.036 98.822C240.552 99.338 241.212 99.596 242.016 99.596ZM248.932 104.6V92.126H250.75V93.404H251.038C251.266 93.008 251.608 92.654 252.064 92.342C252.532 92.03 253.198 91.874 254.062 91.874C254.806 91.874 255.484 92.054 256.096 92.414C256.72 92.774 257.218 93.296 257.59 93.98C257.974 94.652 258.166 95.468 258.166 96.428V96.698C258.166 97.658 257.98 98.48 257.608 99.164C257.236 99.836 256.738 100.352 256.114 100.712C255.49 101.072 254.806 101.252 254.062 101.252C253.486 101.252 253 101.18 252.604 101.036C252.208 100.892 251.89 100.712 251.65 100.496C251.41 100.268 251.218 100.034 251.074 99.794H250.786V104.6H248.932ZM253.522 99.632C254.338 99.632 255.004 99.374 255.52 98.858C256.036 98.342 256.294 97.604 256.294 96.644V96.482C256.294 95.534 256.03 94.802 255.502 94.286C254.986 93.77 254.326 93.512 253.522 93.512C252.73 93.512 252.07 93.77 251.542 94.286C251.026 94.802 250.768 95.534 250.768 96.482V96.644C250.768 97.604 251.026 98.342 251.542 98.858C252.07 99.374 252.73 99.632 253.522 99.632ZM264.532 101.252C263.632 101.252 262.846 101.066 262.174 100.694C261.502 100.31 260.974 99.776 260.59 99.092C260.218 98.396 260.032 97.592 260.032 96.68V96.464C260.032 95.54 260.218 94.736 260.59 94.052C260.962 93.356 261.478 92.822 262.138 92.45C262.81 92.066 263.584 91.874 264.46 91.874C265.312 91.874 266.056 92.066 266.692 92.45C267.34 92.822 267.844 93.344 268.204 94.016C268.564 94.688 268.744 95.474 268.744 96.374V97.076H261.922C261.946 97.856 262.204 98.48 262.696 98.948C263.2 99.404 263.824 99.632 264.568 99.632C265.264 99.632 265.786 99.476 266.134 99.164C266.494 98.852 266.77 98.492 266.962 98.084L268.492 98.876C268.324 99.212 268.078 99.566 267.754 99.938C267.442 100.31 267.028 100.622 266.512 100.874C265.996 101.126 265.336 101.252 264.532 101.252ZM261.94 95.654H266.854C266.806 94.982 266.566 94.46 266.134 94.088C265.702 93.704 265.138 93.512 264.442 93.512C263.746 93.512 263.176 93.704 262.732 94.088C262.3 94.46 262.036 94.982 261.94 95.654ZM270.975 101V92.126H272.793V93.17H273.081C273.225 92.798 273.453 92.528 273.765 92.36C274.089 92.18 274.485 92.09 274.953 92.09H276.015V93.764H274.881C274.281 93.764 273.789 93.932 273.405 94.268C273.021 94.592 272.829 95.096 272.829 95.78V101H270.975ZM281.266 101C280.726 101 280.294 100.838 279.97 100.514C279.658 100.19 279.502 99.758 279.502 99.218V93.692H277.054V92.126H279.502V89.192H281.356V92.126H284.002V93.692H281.356V98.894C281.356 99.254 281.524 99.434 281.86 99.434H283.714V101H281.266ZM286.181 101V92.126H288.035V101H286.181ZM287.117 90.92C286.757 90.92 286.451 90.806 286.199 90.578C285.959 90.338 285.839 90.032 285.839 89.66C285.839 89.288 285.959 88.988 286.199 88.76C286.451 88.52 286.757 88.4 287.117 88.4C287.489 88.4 287.795 88.52 288.035 88.76C288.275 88.988 288.395 89.288 288.395 89.66C288.395 90.032 288.275 90.338 288.035 90.578C287.795 90.806 287.489 90.92 287.117 90.92ZM294.854 101.252C293.954 101.252 293.168 101.066 292.496 100.694C291.824 100.31 291.296 99.776 290.912 99.092C290.54 98.396 290.354 97.592 290.354 96.68V96.464C290.354 95.54 290.54 94.736 290.912 94.052C291.284 93.356 291.8 92.822 292.46 92.45C293.132 92.066 293.906 91.874 294.782 91.874C295.634 91.874 296.378 92.066 297.014 92.45C297.662 92.822 298.166 93.344 298.526 94.016C298.886 94.688 299.066 95.474 299.066 96.374V97.076H292.244C292.268 97.856 292.526 98.48 293.018 98.948C293.522 99.404 294.146 99.632 294.89 99.632C295.586 99.632 296.108 99.476 296.456 99.164C296.816 98.852 297.092 98.492 297.284 98.084L298.814 98.876C298.646 99.212 298.4 99.566 298.076 99.938C297.764 100.31 297.35 100.622 296.834 100.874C296.318 101.126 295.658 101.252 294.854 101.252ZM292.262 95.654H297.176C297.128 94.982 296.888 94.46 296.456 94.088C296.024 93.704 295.46 93.512 294.764 93.512C294.068 93.512 293.498 93.704 293.054 94.088C292.622 94.46 292.358 94.982 292.262 95.654ZM304.934 101.252C303.806 101.252 302.87 101 302.126 100.496C301.382 99.992 300.926 99.23 300.758 98.21L302.486 97.796C302.582 98.288 302.744 98.678 302.972 98.966C303.2 99.254 303.482 99.458 303.818 99.578C304.166 99.698 304.538 99.758 304.934 99.758C305.522 99.758 305.972 99.644 306.284 99.416C306.608 99.188 306.77 98.894 306.77 98.534C306.77 98.174 306.62 97.91 306.32 97.742C306.02 97.574 305.576 97.436 304.988 97.328L304.376 97.22C303.776 97.112 303.23 96.956 302.738 96.752C302.246 96.548 301.856 96.266 301.568 95.906C301.28 95.546 301.136 95.084 301.136 94.52C301.136 93.68 301.448 93.032 302.072 92.576C302.696 92.108 303.524 91.874 304.556 91.874C305.552 91.874 306.368 92.102 307.004 92.558C307.652 93.002 308.072 93.608 308.264 94.376L306.536 94.862C306.428 94.322 306.2 93.944 305.852 93.728C305.504 93.5 305.072 93.386 304.556 93.386C304.052 93.386 303.656 93.482 303.368 93.674C303.08 93.854 302.936 94.112 302.936 94.448C302.936 94.808 303.074 95.072 303.35 95.24C303.638 95.408 304.022 95.534 304.502 95.618L305.132 95.726C305.768 95.834 306.35 95.984 306.878 96.176C307.406 96.368 307.82 96.644 308.12 97.004C308.432 97.364 308.588 97.844 308.588 98.444C308.588 99.332 308.258 100.022 307.598 100.514C306.938 101.006 306.05 101.252 304.934 101.252Z" fill="#1C1917"/>
<path d="M442 4.3877C445.713 2.24416 450.287 2.24416 454 4.3877L510.482 36.998C514.195 39.1416 516.482 43.1028 516.482 47.3896V112.61C516.482 116.897 514.195 120.858 510.482 123.002L454 155.612C450.287 157.756 445.713 157.756 442 155.612L385.518 123.002C381.805 120.858 379.518 116.897 379.518 112.61V47.3896C379.518 43.1028 381.805 39.1416 385.518 36.998L442 4.3877Z" fill="#ECFEFF" stroke="#292524" stroke-width="1.6"/>
<path d="M457.5 58L448.5 53L439.5 58V68L448.5 73L457.5 68V58ZM448.5 55.29L454.41 58.57L451.4 60.24C450.67 59.48 449.64 59 448.5 59C447.36 59 446.33 59.48 445.6 60.24L442.59 58.57L448.5 55.29ZM447.5 70.16L441.5 66.83V60.26L444.63 62C444.54 62.31 444.5 62.65 444.5 63C444.5 64.86 445.77 66.43 447.5 66.87V70.16ZM446.5 63C446.5 61.9 447.4 61 448.5 61C449.6 61 450.5 61.9 450.5 63C450.5 64.1 449.6 65 448.5 65C447.4 65 446.5 64.1 446.5 63ZM449.5 70.16V66.88C451.23 66.44 452.5 64.87 452.5 63.01C452.5 62.66 452.46 62.32 452.37 62L455.5 60.26V66.83L449.5 70.16Z" fill="#44403C"/>
<path d="M422.32 101V90.164H418.45V88.4H428.134V90.164H424.264V101H422.32ZM432.368 101.252C431.48 101.252 430.688 101.072 429.992 100.712C429.308 100.34 428.768 99.812 428.372 99.128C427.976 98.444 427.778 97.634 427.778 96.698V96.428C427.778 95.492 427.976 94.688 428.372 94.016C428.768 93.332 429.308 92.804 429.992 92.432C430.688 92.06 431.48 91.874 432.368 91.874C433.256 91.874 434.048 92.06 434.744 92.432C435.44 92.804 435.986 93.332 436.382 94.016C436.778 94.688 436.976 95.492 436.976 96.428V96.698C436.976 97.634 436.778 98.444 436.382 99.128C435.986 99.812 435.44 100.34 434.744 100.712C434.048 101.072 433.256 101.252 432.368 101.252ZM432.368 99.596C433.184 99.596 433.844 99.338 434.348 98.822C434.864 98.294 435.122 97.568 435.122 96.644V96.482C435.122 95.558 434.87 94.838 434.366 94.322C433.862 93.794 433.196 93.53 432.368 93.53C431.564 93.53 430.904 93.794 430.388 94.322C429.884 94.838 429.632 95.558 429.632 96.482V96.644C429.632 97.568 429.884 98.294 430.388 98.822C430.904 99.338 431.564 99.596 432.368 99.596ZM439.284 101V88.4H441.138V95.582H441.426L444.918 92.126H447.384L442.902 96.428L447.528 101H445.08L441.426 97.31H441.138V101H439.284ZM452.756 101.252C451.856 101.252 451.07 101.066 450.398 100.694C449.726 100.31 449.198 99.776 448.814 99.092C448.442 98.396 448.256 97.592 448.256 96.68V96.464C448.256 95.54 448.442 94.736 448.814 94.052C449.186 93.356 449.702 92.822 450.362 92.45C451.034 92.066 451.808 91.874 452.684 91.874C453.536 91.874 454.28 92.066 454.916 92.45C455.564 92.822 456.068 93.344 456.428 94.016C456.788 94.688 456.968 95.474 456.968 96.374V97.076H450.146C450.17 97.856 450.428 98.48 450.92 98.948C451.424 99.404 452.048 99.632 452.792 99.632C453.488 99.632 454.01 99.476 454.358 99.164C454.718 98.852 454.994 98.492 455.186 98.084L456.716 98.876C456.548 99.212 456.302 99.566 455.978 99.938C455.666 100.31 455.252 100.622 454.736 100.874C454.22 101.126 453.56 101.252 452.756 101.252ZM450.164 95.654H455.078C455.03 94.982 454.79 94.46 454.358 94.088C453.926 93.704 453.362 93.512 452.666 93.512C451.97 93.512 451.4 93.704 450.956 94.088C450.524 94.46 450.26 94.982 450.164 95.654ZM459.2 101V92.126H461.018V93.458H461.306C461.474 93.098 461.774 92.762 462.206 92.45C462.638 92.138 463.28 91.982 464.132 91.982C464.804 91.982 465.398 92.132 465.914 92.432C466.442 92.732 466.856 93.158 467.156 93.71C467.456 94.25 467.606 94.904 467.606 95.672V101H465.752V95.816C465.752 95.048 465.56 94.484 465.176 94.124C464.792 93.752 464.264 93.566 463.592 93.566C462.824 93.566 462.206 93.818 461.738 94.322C461.282 94.826 461.054 95.558 461.054 96.518V101H459.2ZM473.91 101.252C472.782 101.252 471.846 101 471.102 100.496C470.358 99.992 469.902 99.23 469.734 98.21L471.462 97.796C471.558 98.288 471.72 98.678 471.948 98.966C472.176 99.254 472.458 99.458 472.794 99.578C473.142 99.698 473.514 99.758 473.91 99.758C474.498 99.758 474.948 99.644 475.26 99.416C475.584 99.188 475.746 98.894 475.746 98.534C475.746 98.174 475.596 97.91 475.296 97.742C474.996 97.574 474.552 97.436 473.964 97.328L473.352 97.22C472.752 97.112 472.206 96.956 471.714 96.752C471.222 96.548 470.832 96.266 470.544 95.906C470.256 95.546 470.112 95.084 470.112 94.52C470.112 93.68 470.424 93.032 471.048 92.576C471.672 92.108 472.5 91.874 473.532 91.874C474.528 91.874 475.344 92.102 475.98 92.558C476.628 93.002 477.048 93.608 477.24 94.376L475.512 94.862C475.404 94.322 475.176 93.944 474.828 93.728C474.48 93.5 474.048 93.386 473.532 93.386C473.028 93.386 472.632 93.482 472.344 93.674C472.056 93.854 471.912 94.112 471.912 94.448C471.912 94.808 472.05 95.072 472.326 95.24C472.614 95.408 472.998 95.534 473.478 95.618L474.108 95.726C474.744 95.834 475.326 95.984 475.854 96.176C476.382 96.368 476.796 96.644 477.096 97.004C477.408 97.364 477.564 97.844 477.564 98.444C477.564 99.332 477.234 100.022 476.574 100.514C475.914 101.006 475.026 101.252 473.91 101.252Z" fill="#1C1917"/>
<path d="M626 4.3877C629.713 2.24416 634.287 2.24416 638 4.3877L694.482 36.998C698.195 39.1416 700.482 43.1028 700.482 47.3896V112.61C700.482 116.897 698.195 120.858 694.482 123.002L638 155.612C634.287 157.756 629.713 157.756 626 155.612L569.518 123.002C565.805 120.858 563.518 116.897 563.518 112.61V47.3896C563.518 43.1028 565.805 39.1416 569.518 36.998L626 4.3877Z" fill="#FFF1F2" stroke="#292524" stroke-width="1.6"/>
<path d="M640.5 59.9652C640.46 55.5752 636.9 52.0352 632.5 52.0352C628.1 52.0352 624.54 55.5752 624.5 59.9652V65.9652C624.5 70.3852 628.08 73.9652 632.5 73.9652C636.92 73.9652 640.5 70.3852 640.5 65.9652V59.9652ZM638.5 59.9652H633.5V54.1252C636.31 54.5952 638.46 57.0252 638.5 59.9652ZM631.5 54.1252V59.9652H626.5C626.54 57.0252 628.69 54.5952 631.5 54.1252ZM638.5 65.9652C638.5 69.2752 635.81 71.9652 632.5 71.9652C629.19 71.9652 626.5 69.2752 626.5 65.9652V61.9652H638.5V65.9652Z" fill="#44403C"/>
<path d="M585.314 101V88.4H587.258V101H585.314ZM589.938 101V92.126H591.756V93.458H592.044C592.212 93.098 592.512 92.762 592.944 92.45C593.376 92.138 594.018 91.982 594.87 91.982C595.542 91.982 596.136 92.132 596.652 92.432C597.18 92.732 597.594 93.158 597.894 93.71C598.194 94.25 598.344 94.904 598.344 95.672V101H596.49V95.816C596.49 95.048 596.298 94.484 595.914 94.124C595.53 93.752 595.002 93.566 594.33 93.566C593.562 93.566 592.944 93.818 592.476 94.322C592.02 94.826 591.792 95.558 591.792 96.518V101H589.938ZM604.096 101C603.556 101 603.124 100.838 602.8 100.514C602.488 100.19 602.332 99.758 602.332 99.218V93.692H599.884V92.126H602.332V89.192H604.186V92.126H606.832V93.692H604.186V98.894C604.186 99.254 604.354 99.434 604.69 99.434H606.544V101H604.096ZM612.762 101.252C611.862 101.252 611.076 101.066 610.404 100.694C609.732 100.31 609.204 99.776 608.82 99.092C608.448 98.396 608.262 97.592 608.262 96.68V96.464C608.262 95.54 608.448 94.736 608.82 94.052C609.192 93.356 609.708 92.822 610.368 92.45C611.04 92.066 611.814 91.874 612.69 91.874C613.542 91.874 614.286 92.066 614.922 92.45C615.57 92.822 616.074 93.344 616.434 94.016C616.794 94.688 616.974 95.474 616.974 96.374V97.076H610.152C610.176 97.856 610.434 98.48 610.926 98.948C611.43 99.404 612.054 99.632 612.798 99.632C613.494 99.632 614.016 99.476 614.364 99.164C614.724 98.852 615 98.492 615.192 98.084L616.722 98.876C616.554 99.212 616.308 99.566 615.984 99.938C615.672 100.31 615.258 100.622 614.742 100.874C614.226 101.126 613.566 101.252 612.762 101.252ZM610.17 95.654H615.084C615.036 94.982 614.796 94.46 614.364 94.088C613.932 93.704 613.368 93.512 612.672 93.512C611.976 93.512 611.406 93.704 610.962 94.088C610.53 94.46 610.266 94.982 610.17 95.654ZM619.206 101V92.126H621.024V93.17H621.312C621.456 92.798 621.684 92.528 621.996 92.36C622.32 92.18 622.716 92.09 623.184 92.09H624.246V93.764H623.112C622.512 93.764 622.02 93.932 621.636 94.268C621.252 94.592 621.06 95.096 621.06 95.78V101H619.206ZM628.675 101.252C628.039 101.252 627.469 101.144 626.965 100.928C626.473 100.712 626.077 100.394 625.777 99.974C625.489 99.554 625.345 99.044 625.345 98.444C625.345 97.832 625.489 97.328 625.777 96.932C626.077 96.524 626.479 96.218 626.983 96.014C627.499 95.81 628.081 95.708 628.729 95.708H631.429V95.132C631.429 94.616 631.273 94.202 630.961 93.89C630.649 93.578 630.169 93.422 629.521 93.422C628.885 93.422 628.399 93.572 628.063 93.872C627.727 94.172 627.505 94.562 627.397 95.042L625.669 94.484C625.813 94.004 626.041 93.572 626.353 93.188C626.677 92.792 627.103 92.474 627.631 92.234C628.159 91.994 628.795 91.874 629.539 91.874C630.691 91.874 631.597 92.168 632.257 92.756C632.917 93.344 633.247 94.178 633.247 95.258V98.912C633.247 99.272 633.415 99.452 633.751 99.452H634.507V101H633.121C632.701 101 632.359 100.892 632.095 100.676C631.831 100.46 631.699 100.166 631.699 99.794V99.74H631.429C631.333 99.92 631.189 100.13 630.997 100.37C630.805 100.61 630.523 100.82 630.151 101C629.779 101.168 629.287 101.252 628.675 101.252ZM628.945 99.722C629.689 99.722 630.289 99.512 630.745 99.092C631.201 98.66 631.429 98.072 631.429 97.328V97.148H628.837C628.345 97.148 627.949 97.256 627.649 97.472C627.349 97.676 627.199 97.982 627.199 98.39C627.199 98.798 627.355 99.122 627.667 99.362C627.979 99.602 628.405 99.722 628.945 99.722ZM640.22 101.252C639.368 101.252 638.594 101.072 637.898 100.712C637.214 100.352 636.668 99.83 636.26 99.146C635.864 98.462 635.666 97.64 635.666 96.68V96.446C635.666 95.486 635.864 94.67 636.26 93.998C636.668 93.314 637.214 92.792 637.898 92.432C638.594 92.06 639.368 91.874 640.22 91.874C641.072 91.874 641.798 92.03 642.398 92.342C642.998 92.654 643.478 93.068 643.838 93.584C644.21 94.1 644.45 94.67 644.558 95.294L642.758 95.672C642.698 95.276 642.572 94.916 642.38 94.592C642.188 94.268 641.918 94.01 641.57 93.818C641.222 93.626 640.784 93.53 640.256 93.53C639.74 93.53 639.272 93.65 638.852 93.89C638.444 94.118 638.12 94.454 637.88 94.898C637.64 95.33 637.52 95.858 637.52 96.482V96.644C637.52 97.268 637.64 97.802 637.88 98.246C638.12 98.69 638.444 99.026 638.852 99.254C639.272 99.482 639.74 99.596 640.256 99.596C641.036 99.596 641.63 99.398 642.038 99.002C642.446 98.594 642.704 98.078 642.812 97.454L644.612 97.868C644.468 98.48 644.21 99.044 643.838 99.56C643.478 100.076 642.998 100.49 642.398 100.802C641.798 101.102 641.072 101.252 640.22 101.252ZM649.747 101C649.207 101 648.775 100.838 648.451 100.514C648.139 100.19 647.983 99.758 647.983 99.218V93.692H645.535V92.126H647.983V89.192H649.837V92.126H652.483V93.692H649.837V98.894C649.837 99.254 650.005 99.434 650.341 99.434H652.195V101H649.747ZM654.661 101V92.126H656.515V101H654.661ZM655.597 90.92C655.237 90.92 654.931 90.806 654.679 90.578C654.439 90.338 654.319 90.032 654.319 89.66C654.319 89.288 654.439 88.988 654.679 88.76C654.931 88.52 655.237 88.4 655.597 88.4C655.969 88.4 656.275 88.52 656.515 88.76C656.755 88.988 656.875 89.288 656.875 89.66C656.875 90.032 656.755 90.338 656.515 90.578C656.275 90.806 655.969 90.92 655.597 90.92ZM663.424 101.252C662.536 101.252 661.744 101.072 661.048 100.712C660.364 100.34 659.824 99.812 659.428 99.128C659.032 98.444 658.834 97.634 658.834 96.698V96.428C658.834 95.492 659.032 94.688 659.428 94.016C659.824 93.332 660.364 92.804 661.048 92.432C661.744 92.06 662.536 91.874 663.424 91.874C664.312 91.874 665.104 92.06 665.8 92.432C666.496 92.804 667.042 93.332 667.438 94.016C667.834 94.688 668.032 95.492 668.032 96.428V96.698C668.032 97.634 667.834 98.444 667.438 99.128C667.042 99.812 666.496 100.34 665.8 100.712C665.104 101.072 664.312 101.252 663.424 101.252ZM663.424 99.596C664.24 99.596 664.9 99.338 665.404 98.822C665.92 98.294 666.178 97.568 666.178 96.644V96.482C666.178 95.558 665.926 94.838 665.422 94.322C664.918 93.794 664.252 93.53 663.424 93.53C662.62 93.53 661.96 93.794 661.444 94.322C660.94 94.838 660.688 95.558 660.688 96.482V96.644C660.688 97.568 660.94 98.294 661.444 98.822C661.96 99.338 662.62 99.596 663.424 99.596ZM670.341 101V92.126H672.159V93.458H672.447C672.615 93.098 672.915 92.762 673.347 92.45C673.779 92.138 674.421 91.982 675.273 91.982C675.945 91.982 676.539 92.132 677.055 92.432C677.583 92.732 677.997 93.158 678.297 93.71C678.597 94.25 678.747 94.904 678.747 95.672V101H676.893V95.816C676.893 95.048 676.701 94.484 676.317 94.124C675.933 93.752 675.405 93.566 674.733 93.566C673.965 93.566 673.347 93.818 672.879 94.322C672.423 94.826 672.195 95.558 672.195 96.518V101H670.341Z" fill="#1C1917"/>
</svg>
