<svg width="710" height="265" viewBox="0 0 710 265" fill="none" xmlns="http://www.w3.org/2000/svg">
<rect x="0.5" y="0.5" width="709" height="74" rx="23.5" fill="#F3E8FF"/>
<rect x="0.5" y="0.5" width="709" height="74" rx="23.5" stroke="#292524"/>
<path fill-rule="evenodd" clip-rule="evenodd" d="M300.707 27.7928C300.52 27.6053 300.265 27.5 300 27.5C299.735 27.5 299.481 27.6053 299.293 27.7928L296.293 30.7928C296.106 30.9803 296 31.2346 296 31.4998C296 31.765 296.106 32.0193 296.293 32.2068L299.293 35.2068C299.481 35.3943 299.735 35.4996 300 35.4996C300.265 35.4996 300.52 35.3943 300.707 35.2068L303.707 32.2068C303.895 32.0193 304 31.765 304 31.4998C304 31.2346 303.895 30.9803 303.707 30.7928L300.707 27.7928ZM299.293 39.7928C299.481 39.6053 299.735 39.5 300 39.5C300.265 39.5 300.52 39.6053 300.707 39.7928L303.707 42.7928C303.895 42.9803 304 43.2346 304 43.4998C304 43.765 303.895 44.0193 303.707 44.2068L300.707 47.2068C300.52 47.3943 300.265 47.4996 300 47.4996C299.735 47.4996 299.481 47.3943 299.293 47.2068L296.293 44.2068C296.106 44.0193 296 43.765 296 43.4998C296 43.2346 296.106 42.9803 296.293 42.7928L299.293 39.7928ZM305.293 33.7928C305.481 33.6053 305.735 33.5 306 33.5C306.265 33.5 306.52 33.6053 306.707 33.7928L309.707 36.7928C309.895 36.9803 310 37.2346 310 37.4998C310 37.765 309.895 38.0193 309.707 38.2068L306.707 41.2068C306.52 41.3943 306.265 41.4996 306 41.4996C305.735 41.4996 305.481 41.3943 305.293 41.2068L302.293 38.2068C302.106 38.0193 302 37.765 302 37.4998C302 37.2346 302.106 36.9803 302.293 36.7928L305.293 33.7928ZM293.293 33.7928C293.481 33.6053 293.735 33.5 294 33.5C294.265 33.5 294.52 33.6053 294.707 33.7928L297.707 36.7928C297.895 36.9803 298 37.2346 298 37.4998C298 37.765 297.895 38.0193 297.707 38.2068L294.707 41.2068C294.52 41.3943 294.265 41.4996 294 41.4996C293.735 41.4996 293.481 41.3943 293.293 41.2068L290.293 38.2068C290.106 38.0193 290 37.765 290 37.4998C290 37.2346 290.106 36.9803 290.293 36.7928L293.293 33.7928Z" fill="#0F172A"/>
<path d="M325.976 44.252C324.416 44.252 323.18 43.82 322.268 42.956C321.356 42.08 320.9 40.832 320.9 39.212V36.188C320.9 34.568 321.356 33.326 322.268 32.462C323.18 31.586 324.416 31.148 325.976 31.148C327.524 31.148 328.718 31.574 329.558 32.426C330.41 33.266 330.836 34.424 330.836 35.9V36.008H328.496V35.828C328.496 35.084 328.286 34.472 327.866 33.992C327.458 33.512 326.828 33.272 325.976 33.272C325.136 33.272 324.476 33.53 323.996 34.046C323.516 34.562 323.276 35.264 323.276 36.152V39.248C323.276 40.124 323.516 40.826 323.996 41.354C324.476 41.87 325.136 42.128 325.976 42.128C326.828 42.128 327.458 41.888 327.866 41.408C328.286 40.916 328.496 40.304 328.496 39.572V39.248H330.836V39.5C330.836 40.976 330.41 42.14 329.558 42.992C328.718 43.832 327.524 44.252 325.976 44.252ZM337.092 44.252C336.204 44.252 335.406 44.072 334.698 43.712C333.99 43.352 333.432 42.83 333.024 42.146C332.616 41.462 332.412 40.64 332.412 39.68V39.392C332.412 38.432 332.616 37.61 333.024 36.926C333.432 36.242 333.99 35.72 334.698 35.36C335.406 35 336.204 34.82 337.092 34.82C337.98 34.82 338.778 35 339.486 35.36C340.194 35.72 340.752 36.242 341.16 36.926C341.568 37.61 341.772 38.432 341.772 39.392V39.68C341.772 40.64 341.568 41.462 341.16 42.146C340.752 42.83 340.194 43.352 339.486 43.712C338.778 44.072 337.98 44.252 337.092 44.252ZM337.092 42.236C337.788 42.236 338.364 42.014 338.82 41.57C339.276 41.114 339.504 40.466 339.504 39.626V39.446C339.504 38.606 339.276 37.964 338.82 37.52C338.376 37.064 337.8 36.836 337.092 36.836C336.396 36.836 335.82 37.064 335.364 37.52C334.908 37.964 334.68 38.606 334.68 39.446V39.626C334.68 40.466 334.908 41.114 335.364 41.57C335.82 42.014 336.396 42.236 337.092 42.236ZM343.865 44V35.072H346.097V36.044H346.421C346.577 35.744 346.835 35.486 347.195 35.27C347.555 35.042 348.029 34.928 348.617 34.928C349.253 34.928 349.763 35.054 350.147 35.306C350.531 35.546 350.825 35.864 351.029 36.26H351.353C351.557 35.876 351.845 35.558 352.217 35.306C352.589 35.054 353.117 34.928 353.801 34.928C354.353 34.928 354.851 35.048 355.295 35.288C355.751 35.516 356.111 35.87 356.375 36.35C356.651 36.818 356.789 37.412 356.789 38.132V44H354.521V38.294C354.521 37.802 354.395 37.436 354.143 37.196C353.891 36.944 353.537 36.818 353.081 36.818C352.565 36.818 352.163 36.986 351.875 37.322C351.599 37.646 351.461 38.114 351.461 38.726V44H349.193V38.294C349.193 37.802 349.067 37.436 348.815 37.196C348.563 36.944 348.209 36.818 347.753 36.818C347.237 36.818 346.835 36.986 346.547 37.322C346.271 37.646 346.133 38.114 346.133 38.726V44H343.865ZM359.229 47.6V35.072H361.461V36.152H361.785C361.989 35.804 362.307 35.498 362.739 35.234C363.171 34.958 363.789 34.82 364.593 34.82C365.313 34.82 365.979 35 366.591 35.36C367.203 35.708 367.695 36.224 368.067 36.908C368.439 37.592 368.625 38.42 368.625 39.392V39.68C368.625 40.652 368.439 41.48 368.067 42.164C367.695 42.848 367.203 43.37 366.591 43.73C365.979 44.078 365.313 44.252 364.593 44.252C364.053 44.252 363.597 44.186 363.225 44.054C362.865 43.934 362.571 43.778 362.343 43.586C362.127 43.382 361.953 43.178 361.821 42.974H361.497V47.6H359.229ZM363.909 42.272C364.617 42.272 365.199 42.05 365.655 41.606C366.123 41.15 366.357 40.49 366.357 39.626V39.446C366.357 38.582 366.123 37.928 365.655 37.484C365.187 37.028 364.605 36.8 363.909 36.8C363.213 36.8 362.631 37.028 362.163 37.484C361.695 37.928 361.461 38.582 361.461 39.446V39.626C361.461 40.49 361.695 41.15 362.163 41.606C362.631 42.05 363.213 42.272 363.909 42.272ZM374.955 44.252C374.067 44.252 373.269 44.072 372.561 43.712C371.853 43.352 371.295 42.83 370.887 42.146C370.479 41.462 370.275 40.64 370.275 39.68V39.392C370.275 38.432 370.479 37.61 370.887 36.926C371.295 36.242 371.853 35.72 372.561 35.36C373.269 35 374.067 34.82 374.955 34.82C375.843 34.82 376.641 35 377.349 35.36C378.057 35.72 378.615 36.242 379.023 36.926C379.431 37.61 379.635 38.432 379.635 39.392V39.68C379.635 40.64 379.431 41.462 379.023 42.146C378.615 42.83 378.057 43.352 377.349 43.712C376.641 44.072 375.843 44.252 374.955 44.252ZM374.955 42.236C375.651 42.236 376.227 42.014 376.683 41.57C377.139 41.114 377.367 40.466 377.367 39.626V39.446C377.367 38.606 377.139 37.964 376.683 37.52C376.239 37.064 375.663 36.836 374.955 36.836C374.259 36.836 373.683 37.064 373.227 37.52C372.771 37.964 372.543 38.606 372.543 39.446V39.626C372.543 40.466 372.771 41.114 373.227 41.57C373.683 42.014 374.259 42.236 374.955 42.236ZM381.729 44V35.072H383.961V36.242H384.285C384.429 35.93 384.699 35.636 385.095 35.36C385.491 35.072 386.091 34.928 386.895 34.928C387.591 34.928 388.197 35.09 388.713 35.414C389.241 35.726 389.649 36.164 389.937 36.728C390.225 37.28 390.369 37.928 390.369 38.672V44H388.101V38.852C388.101 38.18 387.933 37.676 387.597 37.34C387.273 37.004 386.805 36.836 386.193 36.836C385.497 36.836 384.957 37.07 384.573 37.538C384.189 37.994 383.997 38.636 383.997 39.464V44H381.729ZM396.889 44.252C396.001 44.252 395.215 44.066 394.531 43.694C393.859 43.31 393.331 42.776 392.947 42.092C392.575 41.396 392.389 40.58 392.389 39.644V39.428C392.389 38.492 392.575 37.682 392.947 36.998C393.319 36.302 393.841 35.768 394.513 35.396C395.185 35.012 395.965 34.82 396.853 34.82C397.729 34.82 398.491 35.018 399.139 35.414C399.787 35.798 400.291 36.338 400.651 37.034C401.011 37.718 401.191 38.516 401.191 39.428V40.202H394.693C394.717 40.814 394.945 41.312 395.377 41.696C395.809 42.08 396.337 42.272 396.961 42.272C397.597 42.272 398.065 42.134 398.365 41.858C398.665 41.582 398.893 41.276 399.049 40.94L400.903 41.912C400.735 42.224 400.489 42.566 400.165 42.938C399.853 43.298 399.433 43.61 398.905 43.874C398.377 44.126 397.705 44.252 396.889 44.252ZM394.711 38.51H398.887C398.839 37.994 398.629 37.58 398.257 37.268C397.897 36.956 397.423 36.8 396.835 36.8C396.223 36.8 395.737 36.956 395.377 37.268C395.017 37.58 394.795 37.994 394.711 38.51ZM403.209 44V35.072H405.441V36.242H405.765C405.909 35.93 406.179 35.636 406.575 35.36C406.971 35.072 407.571 34.928 408.375 34.928C409.071 34.928 409.677 35.09 410.193 35.414C410.721 35.726 411.129 36.164 411.417 36.728C411.705 37.28 411.849 37.928 411.849 38.672V44H409.581V38.852C409.581 38.18 409.413 37.676 409.077 37.34C408.753 37.004 408.285 36.836 407.673 36.836C406.977 36.836 406.437 37.07 406.053 37.538C405.669 37.994 405.477 38.636 405.477 39.464V44H403.209ZM417.475 44C416.887 44 416.407 43.82 416.035 43.46C415.675 43.088 415.495 42.596 415.495 41.984V36.944H413.263V35.072H415.495V32.3H417.763V35.072H420.211V36.944H417.763V41.588C417.763 41.948 417.931 42.128 418.267 42.128H419.995V44H417.475Z" fill="#1C1917"/>
<path d="M137.333 195C137.333 196.473 138.527 197.667 140 197.667C141.473 197.667 142.667 196.473 142.667 195C142.667 193.527 141.473 192.333 140 192.333C138.527 192.333 137.333 193.527 137.333 195ZM187.333 195C187.333 196.473 188.527 197.667 190 197.667C191.473 197.667 192.667 196.473 192.667 195C192.667 193.527 191.473 192.333 190 192.333C188.527 192.333 187.333 193.527 187.333 195ZM140 195L140 195.5L190 195.5L190 195L190 194.5L140 194.5L140 195Z" fill="#292524"/>
<path d="M327.333 195C327.333 196.473 328.527 197.667 330 197.667C331.473 197.667 332.667 196.473 332.667 195C332.667 193.527 331.473 192.333 330 192.333C328.527 192.333 327.333 193.527 327.333 195ZM377.333 195C377.333 196.473 378.527 197.667 380 197.667C381.473 197.667 382.667 196.473 382.667 195C382.667 193.527 381.473 192.333 380 192.333C378.527 192.333 377.333 193.527 377.333 195ZM330 195L330 195.5L380 195.5L380 195L380 194.5L330 194.5L330 195Z" fill="#292524"/>
<path d="M355 197.667C356.473 197.667 357.667 196.473 357.667 195C357.667 193.527 356.473 192.333 355 192.333C353.527 192.333 352.333 193.527 352.333 195C352.333 196.473 353.527 197.667 355 197.667ZM355 76.6667C356.473 76.6667 357.667 75.4728 357.667 74C357.667 72.5272 356.473 71.3333 355 71.3333C353.527 71.3333 352.333 72.5272 352.333 74C352.333 75.4728 353.527 76.6667 355 76.6667ZM355 195L355.5 195L355.5 74L355 74L354.5 74L354.5 195L355 195Z" fill="#292524"/>
<path d="M517.333 195C517.333 196.473 518.527 197.667 520 197.667C521.473 197.667 522.667 196.473 522.667 195C522.667 193.527 521.473 192.333 520 192.333C518.527 192.333 517.333 193.527 517.333 195ZM567.333 195C567.333 196.473 568.527 197.667 570 197.667C571.473 197.667 572.667 196.473 572.667 195C572.667 193.527 571.473 192.333 570 192.333C568.527 192.333 567.333 193.527 567.333 195ZM520 195L520 195.5L570 195.5L570 195L570 194.5L520 194.5L520 195Z" fill="#292524"/>
<rect x="0.5" y="125.5" width="139" height="139" rx="23.5" fill="#ECFDF5"/>
<rect x="0.5" y="125.5" width="139" height="139" rx="23.5" stroke="#292524"/>
<path d="M64.355 186.28L64.605 188.5L66.225 186.96L68.995 179.36C68.315 179.19 67.715 178.85 67.225 178.38L64.355 186.28Z" fill="#44403C"/>
<path d="M72.765 178.38C72.275 178.85 71.665 179.19 70.995 179.36L73.765 186.96L75.385 188.5L75.645 186.28L72.765 178.38Z" fill="#44403C"/>
<path d="M72.995 175.5C72.995 174.2 72.155 173.1 70.995 172.68V170.5H68.995V172.68C67.835 173.1 66.995 174.2 66.995 175.5C66.995 177.16 68.335 178.5 69.995 178.5C71.655 178.5 72.995 177.16 72.995 175.5ZM69.995 176.5C69.445 176.5 68.995 176.05 68.995 175.5C68.995 174.95 69.445 174.5 69.995 174.5C70.545 174.5 70.995 174.95 70.995 175.5C70.995 176.05 70.545 176.5 69.995 176.5Z" fill="#44403C"/>
<path d="M33.098 217.752C32.15 217.752 31.31 217.584 30.578 217.248C29.846 216.912 29.27 216.42 28.85 215.772C28.442 215.112 28.238 214.314 28.238 213.378V212.928H30.164V213.378C30.164 214.266 30.428 214.932 30.956 215.376C31.496 215.82 32.21 216.042 33.098 216.042C33.998 216.042 34.676 215.856 35.132 215.484C35.588 215.1 35.816 214.608 35.816 214.008C35.816 213.612 35.708 213.288 35.492 213.036C35.276 212.784 34.97 212.586 34.574 212.442C34.178 212.286 33.704 212.142 33.152 212.01L32.486 211.848C31.682 211.656 30.98 211.422 30.38 211.146C29.792 210.858 29.336 210.48 29.012 210.012C28.688 209.544 28.526 208.944 28.526 208.212C28.526 207.468 28.706 206.832 29.066 206.304C29.438 205.776 29.948 205.368 30.596 205.08C31.244 204.792 32.006 204.648 32.882 204.648C33.758 204.648 34.538 204.798 35.222 205.098C35.918 205.398 36.464 205.842 36.86 206.43C37.256 207.018 37.454 207.756 37.454 208.644V209.292H35.528V208.644C35.528 208.104 35.414 207.666 35.186 207.33C34.97 206.994 34.664 206.748 34.268 206.592C33.872 206.436 33.41 206.358 32.882 206.358C32.114 206.358 31.514 206.52 31.082 206.844C30.662 207.156 30.452 207.594 30.452 208.158C30.452 208.542 30.542 208.86 30.722 209.112C30.914 209.352 31.19 209.55 31.55 209.706C31.91 209.862 32.36 210 32.9 210.12L33.566 210.282C34.382 210.462 35.102 210.696 35.726 210.984C36.35 211.26 36.842 211.638 37.202 212.118C37.562 212.598 37.742 213.216 37.742 213.972C37.742 214.728 37.55 215.388 37.166 215.952C36.794 216.516 36.26 216.96 35.564 217.284C34.868 217.596 34.046 217.752 33.098 217.752ZM43.1668 217.5C42.6268 217.5 42.1948 217.338 41.8708 217.014C41.5588 216.69 41.4028 216.258 41.4028 215.718V210.192H38.9548V208.626H41.4028V205.692H43.2568V208.626H45.9028V210.192H43.2568V215.394C43.2568 215.754 43.4248 215.934 43.7607 215.934H45.6148V217.5H43.1668ZM48.0809 217.5V208.626H49.8989V209.67H50.1869C50.3309 209.298 50.5589 209.028 50.8709 208.86C51.1949 208.68 51.5909 208.59 52.0589 208.59H53.1209V210.264H51.9869C51.3869 210.264 50.8949 210.432 50.5109 210.768C50.1269 211.092 49.9349 211.596 49.9349 212.28V217.5H48.0809ZM58.4438 217.662C57.7718 217.662 57.1718 217.512 56.6438 217.212C56.1158 216.912 55.7018 216.486 55.4018 215.934C55.1018 215.382 54.9518 214.722 54.9518 213.954V208.626H56.8058V213.828C56.8058 214.596 56.9978 215.166 57.3818 215.538C57.7658 215.898 58.2998 216.078 58.9838 216.078C59.7398 216.078 60.3458 215.826 60.8018 215.322C61.2698 214.806 61.5038 214.068 61.5038 213.108V208.626H63.3578V217.5H61.5398V216.168H61.2518C61.0838 216.528 60.7838 216.87 60.3518 217.194C59.9198 217.506 59.2838 217.662 58.4438 217.662ZM70.2205 217.752C69.3685 217.752 68.5945 217.572 67.8985 217.212C67.2145 216.852 66.6685 216.33 66.2605 215.646C65.8645 214.962 65.6665 214.14 65.6665 213.18V212.946C65.6665 211.986 65.8645 211.17 66.2605 210.498C66.6685 209.814 67.2145 209.292 67.8985 208.932C68.5945 208.56 69.3685 208.374 70.2205 208.374C71.0725 208.374 71.7985 208.53 72.3985 208.842C72.9985 209.154 73.4785 209.568 73.8385 210.084C74.2105 210.6 74.4505 211.17 74.5585 211.794L72.7585 212.172C72.6985 211.776 72.5725 211.416 72.3805 211.092C72.1885 210.768 71.9185 210.51 71.5705 210.318C71.2225 210.126 70.7845 210.03 70.2565 210.03C69.7405 210.03 69.2725 210.15 68.8525 210.39C68.4445 210.618 68.1205 210.954 67.8805 211.398C67.6405 211.83 67.5205 212.358 67.5205 212.982V213.144C67.5205 213.768 67.6405 214.302 67.8805 214.746C68.1205 215.19 68.4445 215.526 68.8525 215.754C69.2725 215.982 69.7405 216.096 70.2565 216.096C71.0365 216.096 71.6305 215.898 72.0385 215.502C72.4465 215.094 72.7045 214.578 72.8125 213.954L74.6125 214.368C74.4685 214.98 74.2105 215.544 73.8385 216.06C73.4785 216.576 72.9985 216.99 72.3985 217.302C71.7985 217.602 71.0725 217.752 70.2205 217.752ZM79.7468 217.5C79.2068 217.5 78.7748 217.338 78.4508 217.014C78.1388 216.69 77.9828 216.258 77.9828 215.718V210.192H75.5348V208.626H77.9828V205.692H79.8368V208.626H82.4828V210.192H79.8368V215.394C79.8368 215.754 80.0048 215.934 80.3408 215.934H82.1948V217.5H79.7468ZM88.063 217.662C87.391 217.662 86.791 217.512 86.263 217.212C85.735 216.912 85.321 216.486 85.021 215.934C84.721 215.382 84.571 214.722 84.571 213.954V208.626H86.425V213.828C86.425 214.596 86.617 215.166 87.001 215.538C87.385 215.898 87.919 216.078 88.603 216.078C89.359 216.078 89.965 215.826 90.421 215.322C90.889 214.806 91.123 214.068 91.123 213.108V208.626H92.977V217.5H91.159V216.168H90.871C90.703 216.528 90.403 216.87 89.971 217.194C89.539 217.506 88.903 217.662 88.063 217.662ZM95.7176 217.5V208.626H97.5356V209.67H97.8236C97.9676 209.298 98.1956 209.028 98.5076 208.86C98.8316 208.68 99.2276 208.59 99.6956 208.59H100.758V210.264H99.6236C99.0236 210.264 98.5316 210.432 98.1476 210.768C97.7636 211.092 97.5716 211.596 97.5716 212.28V217.5H95.7176ZM106.43 217.752C105.53 217.752 104.744 217.566 104.072 217.194C103.4 216.81 102.872 216.276 102.488 215.592C102.116 214.896 101.93 214.092 101.93 213.18V212.964C101.93 212.04 102.116 211.236 102.488 210.552C102.86 209.856 103.376 209.322 104.036 208.95C104.708 208.566 105.482 208.374 106.358 208.374C107.21 208.374 107.954 208.566 108.59 208.95C109.238 209.322 109.742 209.844 110.102 210.516C110.462 211.188 110.642 211.974 110.642 212.874V213.576H103.82C103.844 214.356 104.102 214.98 104.594 215.448C105.098 215.904 105.722 216.132 106.466 216.132C107.162 216.132 107.684 215.976 108.032 215.664C108.392 215.352 108.668 214.992 108.86 214.584L110.39 215.376C110.222 215.712 109.976 216.066 109.652 216.438C109.34 216.81 108.926 217.122 108.41 217.374C107.894 217.626 107.234 217.752 106.43 217.752ZM103.838 212.154H108.752C108.704 211.482 108.464 210.96 108.032 210.588C107.6 210.204 107.036 210.012 106.34 210.012C105.644 210.012 105.074 210.204 104.63 210.588C104.198 210.96 103.934 211.482 103.838 212.154Z" fill="#1C1917"/>
<rect x="570.5" y="125.5" width="139" height="139" rx="23.5" fill="#FFF1F2"/>
<rect x="570.5" y="125.5" width="139" height="139" rx="23.5" stroke="#292524"/>
<path d="M648 176.465C647.96 172.075 644.4 168.535 640 168.535C635.6 168.535 632.04 172.075 632 176.465V182.465C632 186.885 635.58 190.465 640 190.465C644.42 190.465 648 186.885 648 182.465V176.465ZM646 176.465H641V170.625C643.81 171.095 645.96 173.525 646 176.465ZM639 170.625V176.465H634C634.04 173.525 636.19 171.095 639 170.625ZM646 182.465C646 185.775 643.31 188.465 640 188.465C636.69 188.465 634 185.775 634 182.465V178.465H646V182.465Z" fill="#44403C"/>
<path d="M592.814 217.5V204.9H594.758V217.5H592.814ZM597.438 217.5V208.626H599.256V209.958H599.544C599.712 209.598 600.012 209.262 600.444 208.95C600.876 208.638 601.518 208.482 602.37 208.482C603.042 208.482 603.636 208.632 604.152 208.932C604.68 209.232 605.094 209.658 605.394 210.21C605.694 210.75 605.844 211.404 605.844 212.172V217.5H603.99V212.316C603.99 211.548 603.798 210.984 603.414 210.624C603.03 210.252 602.502 210.066 601.83 210.066C601.062 210.066 600.444 210.318 599.976 210.822C599.52 211.326 599.292 212.058 599.292 213.018V217.5H597.438ZM611.596 217.5C611.056 217.5 610.624 217.338 610.3 217.014C609.988 216.69 609.832 216.258 609.832 215.718V210.192H607.384V208.626H609.832V205.692H611.686V208.626H614.332V210.192H611.686V215.394C611.686 215.754 611.854 215.934 612.19 215.934H614.044V217.5H611.596ZM620.262 217.752C619.362 217.752 618.576 217.566 617.904 217.194C617.232 216.81 616.704 216.276 616.32 215.592C615.948 214.896 615.762 214.092 615.762 213.18V212.964C615.762 212.04 615.948 211.236 616.32 210.552C616.692 209.856 617.208 209.322 617.868 208.95C618.54 208.566 619.314 208.374 620.19 208.374C621.042 208.374 621.786 208.566 622.422 208.95C623.07 209.322 623.574 209.844 623.934 210.516C624.294 211.188 624.474 211.974 624.474 212.874V213.576H617.652C617.676 214.356 617.934 214.98 618.426 215.448C618.93 215.904 619.554 216.132 620.298 216.132C620.994 216.132 621.516 215.976 621.864 215.664C622.224 215.352 622.5 214.992 622.692 214.584L624.222 215.376C624.054 215.712 623.808 216.066 623.484 216.438C623.172 216.81 622.758 217.122 622.242 217.374C621.726 217.626 621.066 217.752 620.262 217.752ZM617.67 212.154H622.584C622.536 211.482 622.296 210.96 621.864 210.588C621.432 210.204 620.868 210.012 620.172 210.012C619.476 210.012 618.906 210.204 618.462 210.588C618.03 210.96 617.766 211.482 617.67 212.154ZM626.706 217.5V208.626H628.524V209.67H628.812C628.956 209.298 629.184 209.028 629.496 208.86C629.82 208.68 630.216 208.59 630.684 208.59H631.746V210.264H630.612C630.012 210.264 629.52 210.432 629.136 210.768C628.752 211.092 628.56 211.596 628.56 212.28V217.5H626.706ZM636.175 217.752C635.539 217.752 634.969 217.644 634.465 217.428C633.973 217.212 633.577 216.894 633.277 216.474C632.989 216.054 632.845 215.544 632.845 214.944C632.845 214.332 632.989 213.828 633.277 213.432C633.577 213.024 633.979 212.718 634.483 212.514C634.999 212.31 635.581 212.208 636.229 212.208H638.929V211.632C638.929 211.116 638.773 210.702 638.461 210.39C638.149 210.078 637.669 209.922 637.021 209.922C636.385 209.922 635.899 210.072 635.563 210.372C635.227 210.672 635.005 211.062 634.897 211.542L633.169 210.984C633.313 210.504 633.541 210.072 633.853 209.688C634.177 209.292 634.603 208.974 635.131 208.734C635.659 208.494 636.295 208.374 637.039 208.374C638.191 208.374 639.097 208.668 639.757 209.256C640.417 209.844 640.747 210.678 640.747 211.758V215.412C640.747 215.772 640.915 215.952 641.251 215.952H642.007V217.5H640.621C640.201 217.5 639.859 217.392 639.595 217.176C639.331 216.96 639.199 216.666 639.199 216.294V216.24H638.929C638.833 216.42 638.689 216.63 638.497 216.87C638.305 217.11 638.023 217.32 637.651 217.5C637.279 217.668 636.787 217.752 636.175 217.752ZM636.445 216.222C637.189 216.222 637.789 216.012 638.245 215.592C638.701 215.16 638.929 214.572 638.929 213.828V213.648H636.337C635.845 213.648 635.449 213.756 635.149 213.972C634.849 214.176 634.699 214.482 634.699 214.89C634.699 215.298 634.855 215.622 635.167 215.862C635.479 216.102 635.905 216.222 636.445 216.222ZM647.72 217.752C646.868 217.752 646.094 217.572 645.398 217.212C644.714 216.852 644.168 216.33 643.76 215.646C643.364 214.962 643.166 214.14 643.166 213.18V212.946C643.166 211.986 643.364 211.17 643.76 210.498C644.168 209.814 644.714 209.292 645.398 208.932C646.094 208.56 646.868 208.374 647.72 208.374C648.572 208.374 649.298 208.53 649.898 208.842C650.498 209.154 650.978 209.568 651.338 210.084C651.71 210.6 651.95 211.17 652.058 211.794L650.258 212.172C650.198 211.776 650.072 211.416 649.88 211.092C649.688 210.768 649.418 210.51 649.07 210.318C648.722 210.126 648.284 210.03 647.756 210.03C647.24 210.03 646.772 210.15 646.352 210.39C645.944 210.618 645.62 210.954 645.38 211.398C645.14 211.83 645.02 212.358 645.02 212.982V213.144C645.02 213.768 645.14 214.302 645.38 214.746C645.62 215.19 645.944 215.526 646.352 215.754C646.772 215.982 647.24 216.096 647.756 216.096C648.536 216.096 649.13 215.898 649.538 215.502C649.946 215.094 650.204 214.578 650.312 213.954L652.112 214.368C651.968 214.98 651.71 215.544 651.338 216.06C650.978 216.576 650.498 216.99 649.898 217.302C649.298 217.602 648.572 217.752 647.72 217.752ZM657.247 217.5C656.707 217.5 656.275 217.338 655.951 217.014C655.639 216.69 655.483 216.258 655.483 215.718V210.192H653.035V208.626H655.483V205.692H657.337V208.626H659.983V210.192H657.337V215.394C657.337 215.754 657.505 215.934 657.841 215.934H659.695V217.5H657.247ZM662.161 217.5V208.626H664.015V217.5H662.161ZM663.097 207.42C662.737 207.42 662.431 207.306 662.179 207.078C661.939 206.838 661.819 206.532 661.819 206.16C661.819 205.788 661.939 205.488 662.179 205.26C662.431 205.02 662.737 204.9 663.097 204.9C663.469 204.9 663.775 205.02 664.015 205.26C664.255 205.488 664.375 205.788 664.375 206.16C664.375 206.532 664.255 206.838 664.015 207.078C663.775 207.306 663.469 207.42 663.097 207.42ZM670.924 217.752C670.036 217.752 669.244 217.572 668.548 217.212C667.864 216.84 667.324 216.312 666.928 215.628C666.532 214.944 666.334 214.134 666.334 213.198V212.928C666.334 211.992 666.532 211.188 666.928 210.516C667.324 209.832 667.864 209.304 668.548 208.932C669.244 208.56 670.036 208.374 670.924 208.374C671.812 208.374 672.604 208.56 673.3 208.932C673.996 209.304 674.542 209.832 674.938 210.516C675.334 211.188 675.532 211.992 675.532 212.928V213.198C675.532 214.134 675.334 214.944 674.938 215.628C674.542 216.312 673.996 216.84 673.3 217.212C672.604 217.572 671.812 217.752 670.924 217.752ZM670.924 216.096C671.74 216.096 672.4 215.838 672.904 215.322C673.42 214.794 673.678 214.068 673.678 213.144V212.982C673.678 212.058 673.426 211.338 672.922 210.822C672.418 210.294 671.752 210.03 670.924 210.03C670.12 210.03 669.46 210.294 668.944 210.822C668.44 211.338 668.188 212.058 668.188 212.982V213.144C668.188 214.068 668.44 214.794 668.944 215.322C669.46 215.838 670.12 216.096 670.924 216.096ZM677.841 217.5V208.626H679.659V209.958H679.947C680.115 209.598 680.415 209.262 680.847 208.95C681.279 208.638 681.921 208.482 682.773 208.482C683.445 208.482 684.039 208.632 684.555 208.932C685.083 209.232 685.497 209.658 685.797 210.21C686.097 210.75 686.247 211.404 686.247 212.172V217.5H684.393V212.316C684.393 211.548 684.201 210.984 683.817 210.624C683.433 210.252 682.905 210.066 682.233 210.066C681.465 210.066 680.847 210.318 680.379 210.822C679.923 211.326 679.695 212.058 679.695 213.018V217.5H677.841Z" fill="#1C1917"/>
<rect x="380.5" y="125.5" width="139" height="139" rx="23.5" fill="#ECFEFF"/>
<rect x="380.5" y="125.5" width="139" height="139" rx="23.5" stroke="#292524"/>
<path d="M459 174.5L450 169.5L441 174.5V184.5L450 189.5L459 184.5V174.5ZM450 171.79L455.91 175.07L452.9 176.74C452.17 175.98 451.14 175.5 450 175.5C448.86 175.5 447.83 175.98 447.1 176.74L444.09 175.07L450 171.79ZM449 186.66L443 183.33V176.76L446.13 178.5C446.04 178.81 446 179.15 446 179.5C446 181.36 447.27 182.93 449 183.37V186.66ZM448 179.5C448 178.4 448.9 177.5 450 177.5C451.1 177.5 452 178.4 452 179.5C452 180.6 451.1 181.5 450 181.5C448.9 181.5 448 180.6 448 179.5ZM451 186.66V183.38C452.73 182.94 454 181.37 454 179.51C454 179.16 453.96 178.82 453.87 178.5L457 176.76V183.33L451 186.66Z" fill="#44403C"/>
<path d="M399.32 217.5V206.664H395.45V204.9H405.134V206.664H401.264V217.5H399.32ZM409.368 217.752C408.48 217.752 407.688 217.572 406.992 217.212C406.308 216.84 405.768 216.312 405.372 215.628C404.976 214.944 404.778 214.134 404.778 213.198V212.928C404.778 211.992 404.976 211.188 405.372 210.516C405.768 209.832 406.308 209.304 406.992 208.932C407.688 208.56 408.48 208.374 409.368 208.374C410.256 208.374 411.048 208.56 411.744 208.932C412.44 209.304 412.986 209.832 413.382 210.516C413.778 211.188 413.976 211.992 413.976 212.928V213.198C413.976 214.134 413.778 214.944 413.382 215.628C412.986 216.312 412.44 216.84 411.744 217.212C411.048 217.572 410.256 217.752 409.368 217.752ZM409.368 216.096C410.184 216.096 410.844 215.838 411.348 215.322C411.864 214.794 412.122 214.068 412.122 213.144V212.982C412.122 212.058 411.87 211.338 411.366 210.822C410.862 210.294 410.196 210.03 409.368 210.03C408.564 210.03 407.904 210.294 407.388 210.822C406.884 211.338 406.632 212.058 406.632 212.982V213.144C406.632 214.068 406.884 214.794 407.388 215.322C407.904 215.838 408.564 216.096 409.368 216.096ZM416.284 217.5V204.9H418.138V212.082H418.426L421.918 208.626H424.384L419.902 212.928L424.528 217.5H422.08L418.426 213.81H418.138V217.5H416.284ZM429.756 217.752C428.856 217.752 428.07 217.566 427.398 217.194C426.726 216.81 426.198 216.276 425.814 215.592C425.442 214.896 425.256 214.092 425.256 213.18V212.964C425.256 212.04 425.442 211.236 425.814 210.552C426.186 209.856 426.702 209.322 427.362 208.95C428.034 208.566 428.808 208.374 429.684 208.374C430.536 208.374 431.28 208.566 431.916 208.95C432.564 209.322 433.068 209.844 433.428 210.516C433.788 211.188 433.968 211.974 433.968 212.874V213.576H427.146C427.17 214.356 427.428 214.98 427.92 215.448C428.424 215.904 429.048 216.132 429.792 216.132C430.488 216.132 431.01 215.976 431.358 215.664C431.718 215.352 431.994 214.992 432.186 214.584L433.716 215.376C433.548 215.712 433.302 216.066 432.978 216.438C432.666 216.81 432.252 217.122 431.736 217.374C431.22 217.626 430.56 217.752 429.756 217.752ZM427.164 212.154H432.078C432.03 211.482 431.79 210.96 431.358 210.588C430.926 210.204 430.362 210.012 429.666 210.012C428.97 210.012 428.4 210.204 427.956 210.588C427.524 210.96 427.26 211.482 427.164 212.154ZM436.2 217.5V208.626H438.018V209.958H438.306C438.474 209.598 438.774 209.262 439.206 208.95C439.638 208.638 440.28 208.482 441.132 208.482C441.804 208.482 442.398 208.632 442.914 208.932C443.442 209.232 443.856 209.658 444.156 210.21C444.456 210.75 444.606 211.404 444.606 212.172V217.5H442.752V212.316C442.752 211.548 442.56 210.984 442.176 210.624C441.792 210.252 441.264 210.066 440.592 210.066C439.824 210.066 439.206 210.318 438.738 210.822C438.282 211.326 438.054 212.058 438.054 213.018V217.5H436.2ZM447.274 217.5V208.626H449.128V217.5H447.274ZM448.21 207.42C447.85 207.42 447.544 207.306 447.292 207.078C447.052 206.838 446.932 206.532 446.932 206.16C446.932 205.788 447.052 205.488 447.292 205.26C447.544 205.02 447.85 204.9 448.21 204.9C448.582 204.9 448.888 205.02 449.128 205.26C449.368 205.488 449.488 205.788 449.488 206.16C449.488 206.532 449.368 206.838 449.128 207.078C448.888 207.306 448.582 207.42 448.21 207.42ZM451.52 217.5V215.232L456.758 210.444V210.192H451.7V208.626H458.774V210.912L453.518 215.7V215.934H458.918V217.5H451.52ZM463.95 217.752C463.314 217.752 462.744 217.644 462.24 217.428C461.748 217.212 461.352 216.894 461.052 216.474C460.764 216.054 460.62 215.544 460.62 214.944C460.62 214.332 460.764 213.828 461.052 213.432C461.352 213.024 461.754 212.718 462.258 212.514C462.774 212.31 463.356 212.208 464.004 212.208H466.704V211.632C466.704 211.116 466.548 210.702 466.236 210.39C465.924 210.078 465.444 209.922 464.796 209.922C464.16 209.922 463.674 210.072 463.338 210.372C463.002 210.672 462.78 211.062 462.672 211.542L460.944 210.984C461.088 210.504 461.316 210.072 461.628 209.688C461.952 209.292 462.378 208.974 462.906 208.734C463.434 208.494 464.07 208.374 464.814 208.374C465.966 208.374 466.872 208.668 467.532 209.256C468.192 209.844 468.522 210.678 468.522 211.758V215.412C468.522 215.772 468.69 215.952 469.026 215.952H469.782V217.5H468.396C467.976 217.5 467.634 217.392 467.37 217.176C467.106 216.96 466.974 216.666 466.974 216.294V216.24H466.704C466.608 216.42 466.464 216.63 466.272 216.87C466.08 217.11 465.798 217.32 465.426 217.5C465.054 217.668 464.562 217.752 463.95 217.752ZM464.22 216.222C464.964 216.222 465.564 216.012 466.02 215.592C466.476 215.16 466.704 214.572 466.704 213.828V213.648H464.112C463.62 213.648 463.224 213.756 462.924 213.972C462.624 214.176 462.474 214.482 462.474 214.89C462.474 215.298 462.63 215.622 462.942 215.862C463.254 216.102 463.68 216.222 464.22 216.222ZM474.3 217.5C473.76 217.5 473.328 217.338 473.004 217.014C472.692 216.69 472.536 216.258 472.536 215.718V210.192H470.088V208.626H472.536V205.692H474.39V208.626H477.036V210.192H474.39V215.394C474.39 215.754 474.558 215.934 474.894 215.934H476.748V217.5H474.3ZM479.214 217.5V208.626H481.068V217.5H479.214ZM480.15 207.42C479.79 207.42 479.484 207.306 479.232 207.078C478.992 206.838 478.872 206.532 478.872 206.16C478.872 205.788 478.992 205.488 479.232 205.26C479.484 205.02 479.79 204.9 480.15 204.9C480.522 204.9 480.828 205.02 481.068 205.26C481.308 205.488 481.428 205.788 481.428 206.16C481.428 206.532 481.308 206.838 481.068 207.078C480.828 207.306 480.522 207.42 480.15 207.42ZM487.977 217.752C487.089 217.752 486.297 217.572 485.601 217.212C484.917 216.84 484.377 216.312 483.981 215.628C483.585 214.944 483.387 214.134 483.387 213.198V212.928C483.387 211.992 483.585 211.188 483.981 210.516C484.377 209.832 484.917 209.304 485.601 208.932C486.297 208.56 487.089 208.374 487.977 208.374C488.865 208.374 489.657 208.56 490.353 208.932C491.049 209.304 491.595 209.832 491.991 210.516C492.387 211.188 492.585 211.992 492.585 212.928V213.198C492.585 214.134 492.387 214.944 491.991 215.628C491.595 216.312 491.049 216.84 490.353 217.212C489.657 217.572 488.865 217.752 487.977 217.752ZM487.977 216.096C488.793 216.096 489.453 215.838 489.957 215.322C490.473 214.794 490.731 214.068 490.731 213.144V212.982C490.731 212.058 490.479 211.338 489.975 210.822C489.471 210.294 488.805 210.03 487.977 210.03C487.173 210.03 486.513 210.294 485.997 210.822C485.493 211.338 485.241 212.058 485.241 212.982V213.144C485.241 214.068 485.493 214.794 485.997 215.322C486.513 215.838 487.173 216.096 487.977 216.096ZM494.893 217.5V208.626H496.711V209.958H496.999C497.167 209.598 497.467 209.262 497.899 208.95C498.331 208.638 498.973 208.482 499.825 208.482C500.497 208.482 501.091 208.632 501.607 208.932C502.135 209.232 502.549 209.658 502.849 210.21C503.149 210.75 503.299 211.404 503.299 212.172V217.5H501.445V212.316C501.445 211.548 501.253 210.984 500.869 210.624C500.485 210.252 499.957 210.066 499.285 210.066C498.517 210.066 497.899 210.318 497.431 210.822C496.975 211.326 496.747 212.058 496.747 213.018V217.5H494.893Z" fill="#1C1917"/>
<rect x="190.5" y="125.5" width="139" height="139" rx="23.5" fill="#FFF7ED"/>
<rect x="190.5" y="125.5" width="139" height="139" rx="23.5" stroke="#292524"/>
<path d="M270 178.5V170.5H263V173.5H257V170.5H250V178.5H257V175.5H259V185.5H263V188.5H270V180.5H263V183.5H261V175.5H263V178.5H270ZM255 176.5H252V172.5H255V176.5ZM265 182.5H268V186.5H265V182.5ZM265 172.5H268V176.5H265V172.5Z" fill="#44403C"/>
<path d="M215.814 217.5V204.9H220.818C221.586 204.9 222.27 205.056 222.87 205.368C223.482 205.668 223.956 206.1 224.292 206.664C224.64 207.216 224.814 207.882 224.814 208.662V208.896C224.814 209.676 224.634 210.348 224.274 210.912C223.926 211.476 223.452 211.908 222.852 212.208C222.252 212.508 221.574 212.658 220.818 212.658H217.758V217.5H215.814ZM217.758 210.894H220.62C221.304 210.894 221.85 210.714 222.258 210.354C222.666 209.994 222.87 209.502 222.87 208.878V208.698C222.87 208.062 222.666 207.564 222.258 207.204C221.85 206.844 221.304 206.664 220.62 206.664H217.758V210.894ZM226.714 217.5V208.626H228.532V209.67H228.82C228.964 209.298 229.192 209.028 229.504 208.86C229.828 208.68 230.224 208.59 230.692 208.59H231.754V210.264H230.62C230.02 210.264 229.528 210.432 229.144 210.768C228.76 211.092 228.568 211.596 228.568 212.28V217.5H226.714ZM237.516 217.752C236.628 217.752 235.836 217.572 235.14 217.212C234.456 216.84 233.916 216.312 233.52 215.628C233.124 214.944 232.926 214.134 232.926 213.198V212.928C232.926 211.992 233.124 211.188 233.52 210.516C233.916 209.832 234.456 209.304 235.14 208.932C235.836 208.56 236.628 208.374 237.516 208.374C238.404 208.374 239.196 208.56 239.892 208.932C240.588 209.304 241.134 209.832 241.53 210.516C241.926 211.188 242.124 211.992 242.124 212.928V213.198C242.124 214.134 241.926 214.944 241.53 215.628C241.134 216.312 240.588 216.84 239.892 217.212C239.196 217.572 238.404 217.752 237.516 217.752ZM237.516 216.096C238.332 216.096 238.992 215.838 239.496 215.322C240.012 214.794 240.27 214.068 240.27 213.144V212.982C240.27 212.058 240.018 211.338 239.514 210.822C239.01 210.294 238.344 210.03 237.516 210.03C236.712 210.03 236.052 210.294 235.536 210.822C235.032 211.338 234.78 212.058 234.78 212.982V213.144C234.78 214.068 235.032 214.794 235.536 215.322C236.052 215.838 236.712 216.096 237.516 216.096ZM244.432 221.1V208.626H246.25V209.904H246.538C246.766 209.508 247.108 209.154 247.564 208.842C248.032 208.53 248.698 208.374 249.562 208.374C250.306 208.374 250.984 208.554 251.596 208.914C252.22 209.274 252.718 209.796 253.09 210.48C253.474 211.152 253.666 211.968 253.666 212.928V213.198C253.666 214.158 253.48 214.98 253.108 215.664C252.736 216.336 252.238 216.852 251.614 217.212C250.99 217.572 250.306 217.752 249.562 217.752C248.986 217.752 248.5 217.68 248.104 217.536C247.708 217.392 247.39 217.212 247.15 216.996C246.91 216.768 246.718 216.534 246.574 216.294H246.286V221.1H244.432ZM249.022 216.132C249.838 216.132 250.504 215.874 251.02 215.358C251.536 214.842 251.794 214.104 251.794 213.144V212.982C251.794 212.034 251.53 211.302 251.002 210.786C250.486 210.27 249.826 210.012 249.022 210.012C248.23 210.012 247.57 210.27 247.042 210.786C246.526 211.302 246.268 212.034 246.268 212.982V213.144C246.268 214.104 246.526 214.842 247.042 215.358C247.57 215.874 248.23 216.132 249.022 216.132ZM260.032 217.752C259.132 217.752 258.346 217.566 257.674 217.194C257.002 216.81 256.474 216.276 256.09 215.592C255.718 214.896 255.532 214.092 255.532 213.18V212.964C255.532 212.04 255.718 211.236 256.09 210.552C256.462 209.856 256.978 209.322 257.638 208.95C258.31 208.566 259.084 208.374 259.96 208.374C260.812 208.374 261.556 208.566 262.192 208.95C262.84 209.322 263.344 209.844 263.704 210.516C264.064 211.188 264.244 211.974 264.244 212.874V213.576H257.422C257.446 214.356 257.704 214.98 258.196 215.448C258.7 215.904 259.324 216.132 260.068 216.132C260.764 216.132 261.286 215.976 261.634 215.664C261.994 215.352 262.27 214.992 262.462 214.584L263.992 215.376C263.824 215.712 263.578 216.066 263.254 216.438C262.942 216.81 262.528 217.122 262.012 217.374C261.496 217.626 260.836 217.752 260.032 217.752ZM257.44 212.154H262.354C262.306 211.482 262.066 210.96 261.634 210.588C261.202 210.204 260.638 210.012 259.942 210.012C259.246 210.012 258.676 210.204 258.232 210.588C257.8 210.96 257.536 211.482 257.44 212.154ZM266.475 217.5V208.626H268.293V209.67H268.581C268.725 209.298 268.953 209.028 269.265 208.86C269.589 208.68 269.985 208.59 270.453 208.59H271.515V210.264H270.381C269.781 210.264 269.289 210.432 268.905 210.768C268.521 211.092 268.329 211.596 268.329 212.28V217.5H266.475ZM276.766 217.5C276.226 217.5 275.794 217.338 275.47 217.014C275.158 216.69 275.002 216.258 275.002 215.718V210.192H272.554V208.626H275.002V205.692H276.856V208.626H279.502V210.192H276.856V215.394C276.856 215.754 277.024 215.934 277.36 215.934H279.214V217.5H276.766ZM281.681 217.5V208.626H283.535V217.5H281.681ZM282.617 207.42C282.257 207.42 281.951 207.306 281.699 207.078C281.459 206.838 281.339 206.532 281.339 206.16C281.339 205.788 281.459 205.488 281.699 205.26C281.951 205.02 282.257 204.9 282.617 204.9C282.989 204.9 283.295 205.02 283.535 205.26C283.775 205.488 283.895 205.788 283.895 206.16C283.895 206.532 283.775 206.838 283.535 207.078C283.295 207.306 282.989 207.42 282.617 207.42ZM290.354 217.752C289.454 217.752 288.668 217.566 287.996 217.194C287.324 216.81 286.796 216.276 286.412 215.592C286.04 214.896 285.854 214.092 285.854 213.18V212.964C285.854 212.04 286.04 211.236 286.412 210.552C286.784 209.856 287.3 209.322 287.96 208.95C288.632 208.566 289.406 208.374 290.282 208.374C291.134 208.374 291.878 208.566 292.514 208.95C293.162 209.322 293.666 209.844 294.026 210.516C294.386 211.188 294.566 211.974 294.566 212.874V213.576H287.744C287.768 214.356 288.026 214.98 288.518 215.448C289.022 215.904 289.646 216.132 290.39 216.132C291.086 216.132 291.608 215.976 291.956 215.664C292.316 215.352 292.592 214.992 292.784 214.584L294.314 215.376C294.146 215.712 293.9 216.066 293.576 216.438C293.264 216.81 292.85 217.122 292.334 217.374C291.818 217.626 291.158 217.752 290.354 217.752ZM287.762 212.154H292.676C292.628 211.482 292.388 210.96 291.956 210.588C291.524 210.204 290.96 210.012 290.264 210.012C289.568 210.012 288.998 210.204 288.554 210.588C288.122 210.96 287.858 211.482 287.762 212.154ZM300.434 217.752C299.306 217.752 298.37 217.5 297.626 216.996C296.882 216.492 296.426 215.73 296.258 214.71L297.986 214.296C298.082 214.788 298.244 215.178 298.472 215.466C298.7 215.754 298.982 215.958 299.318 216.078C299.666 216.198 300.038 216.258 300.434 216.258C301.022 216.258 301.472 216.144 301.784 215.916C302.108 215.688 302.27 215.394 302.27 215.034C302.27 214.674 302.12 214.41 301.82 214.242C301.52 214.074 301.076 213.936 300.488 213.828L299.876 213.72C299.276 213.612 298.73 213.456 298.238 213.252C297.746 213.048 297.356 212.766 297.068 212.406C296.78 212.046 296.636 211.584 296.636 211.02C296.636 210.18 296.948 209.532 297.572 209.076C298.196 208.608 299.024 208.374 300.056 208.374C301.052 208.374 301.868 208.602 302.504 209.058C303.152 209.502 303.572 210.108 303.764 210.876L302.036 211.362C301.928 210.822 301.7 210.444 301.352 210.228C301.004 210 300.572 209.886 300.056 209.886C299.552 209.886 299.156 209.982 298.868 210.174C298.58 210.354 298.436 210.612 298.436 210.948C298.436 211.308 298.574 211.572 298.85 211.74C299.138 211.908 299.522 212.034 300.002 212.118L300.632 212.226C301.268 212.334 301.85 212.484 302.378 212.676C302.906 212.868 303.32 213.144 303.62 213.504C303.932 213.864 304.088 214.344 304.088 214.944C304.088 215.832 303.758 216.522 303.098 217.014C302.438 217.506 301.55 217.752 300.434 217.752Z" fill="#1C1917"/>
</svg>
