<svg width="160" height="160" viewBox="0 0 160 160" fill="none" xmlns="http://www.w3.org/2000/svg">
<path d="M74 4.3877C77.7128 2.24416 82.2872 2.24416 86 4.3877L142.482 36.998C146.195 39.1416 148.482 43.1028 148.482 47.3896V112.61C148.482 116.897 146.195 120.858 142.482 123.002L86 155.612C82.2872 157.756 77.7128 157.756 74 155.612L17.5176 123.002C13.8051 120.858 11.5177 116.897 11.5176 112.61V47.3896C11.5177 43.1028 13.8051 39.1416 17.5176 36.998L74 4.3877Z" fill="#FFF7ED" stroke="#292524" stroke-width="1.6"/>
<path d="M90.5 62V54H83.5V57H77.5V54H70.5V62H77.5V59H79.5V69H83.5V72H90.5V64H83.5V67H81.5V59H83.5V62H90.5ZM75.5 60H72.5V56H75.5V60ZM85.5 66H88.5V70H85.5V66ZM85.5 56H88.5V60H85.5V56Z" fill="#44403C"/>
<path d="M36.314 101V88.4H41.318C42.086 88.4 42.77 88.556 43.37 88.868C43.982 89.168 44.456 89.6 44.792 90.164C45.14 90.716 45.314 91.382 45.314 92.162V92.396C45.314 93.176 45.134 93.848 44.774 94.412C44.426 94.976 43.952 95.408 43.352 95.708C42.752 96.008 42.074 96.158 41.318 96.158H38.258V101H36.314ZM38.258 94.394H41.12C41.804 94.394 42.35 94.214 42.758 93.854C43.166 93.494 43.37 93.002 43.37 92.378V92.198C43.37 91.562 43.166 91.064 42.758 90.704C42.35 90.344 41.804 90.164 41.12 90.164H38.258V94.394ZM47.2137 101V92.126H49.0317V93.17H49.3197C49.4637 92.798 49.6917 92.528 50.0037 92.36C50.3277 92.18 50.7237 92.09 51.1917 92.09H52.2537V93.764H51.1197C50.5197 93.764 50.0277 93.932 49.6437 94.268C49.2597 94.592 49.0677 95.096 49.0677 95.78V101H47.2137ZM58.0162 101.252C57.1282 101.252 56.3362 101.072 55.6402 100.712C54.9562 100.34 54.4162 99.812 54.0202 99.128C53.6242 98.444 53.4262 97.634 53.4262 96.698V96.428C53.4262 95.492 53.6242 94.688 54.0202 94.016C54.4162 93.332 54.9562 92.804 55.6402 92.432C56.3362 92.06 57.1282 91.874 58.0162 91.874C58.9042 91.874 59.6962 92.06 60.3922 92.432C61.0882 92.804 61.6342 93.332 62.0302 94.016C62.4262 94.688 62.6242 95.492 62.6242 96.428V96.698C62.6242 97.634 62.4262 98.444 62.0302 99.128C61.6342 99.812 61.0882 100.34 60.3922 100.712C59.6962 101.072 58.9042 101.252 58.0162 101.252ZM58.0162 99.596C58.8322 99.596 59.4922 99.338 59.9962 98.822C60.5122 98.294 60.7702 97.568 60.7702 96.644V96.482C60.7702 95.558 60.5182 94.838 60.0142 94.322C59.5102 93.794 58.8442 93.53 58.0162 93.53C57.2122 93.53 56.5522 93.794 56.0362 94.322C55.5322 94.838 55.2802 95.558 55.2802 96.482V96.644C55.2802 97.568 55.5322 98.294 56.0362 98.822C56.5522 99.338 57.2122 99.596 58.0162 99.596ZM64.9325 104.6V92.126H66.7505V93.404H67.0385C67.2665 93.008 67.6085 92.654 68.0645 92.342C68.5325 92.03 69.1985 91.874 70.0625 91.874C70.8065 91.874 71.4845 92.054 72.0965 92.414C72.7205 92.774 73.2185 93.296 73.5905 93.98C73.9745 94.652 74.1665 95.468 74.1665 96.428V96.698C74.1665 97.658 73.9805 98.48 73.6085 99.164C73.2365 99.836 72.7385 100.352 72.1145 100.712C71.4905 101.072 70.8065 101.252 70.0625 101.252C69.4865 101.252 69.0005 101.18 68.6045 101.036C68.2085 100.892 67.8905 100.712 67.6505 100.496C67.4105 100.268 67.2185 100.034 67.0745 99.794H66.7865V104.6H64.9325ZM69.5225 99.632C70.3385 99.632 71.0045 99.374 71.5205 98.858C72.0365 98.342 72.2945 97.604 72.2945 96.644V96.482C72.2945 95.534 72.0305 94.802 71.5025 94.286C70.9865 93.77 70.3265 93.512 69.5225 93.512C68.7305 93.512 68.0705 93.77 67.5425 94.286C67.0265 94.802 66.7685 95.534 66.7685 96.482V96.644C66.7685 97.604 67.0265 98.342 67.5425 98.858C68.0705 99.374 68.7305 99.632 69.5225 99.632ZM80.5317 101.252C79.6317 101.252 78.8457 101.066 78.1737 100.694C77.5017 100.31 76.9737 99.776 76.5897 99.092C76.2177 98.396 76.0317 97.592 76.0317 96.68V96.464C76.0317 95.54 76.2177 94.736 76.5897 94.052C76.9617 93.356 77.4777 92.822 78.1377 92.45C78.8097 92.066 79.5837 91.874 80.4597 91.874C81.3117 91.874 82.0557 92.066 82.6917 92.45C83.3397 92.822 83.8437 93.344 84.2037 94.016C84.5637 94.688 84.7437 95.474 84.7437 96.374V97.076H77.9217C77.9457 97.856 78.2037 98.48 78.6957 98.948C79.1997 99.404 79.8237 99.632 80.5677 99.632C81.2637 99.632 81.7857 99.476 82.1337 99.164C82.4937 98.852 82.7697 98.492 82.9617 98.084L84.4917 98.876C84.3237 99.212 84.0777 99.566 83.7537 99.938C83.4417 100.31 83.0277 100.622 82.5117 100.874C81.9957 101.126 81.3357 101.252 80.5317 101.252ZM77.9397 95.654H82.8537C82.8057 94.982 82.5657 94.46 82.1337 94.088C81.7017 93.704 81.1377 93.512 80.4417 93.512C79.7457 93.512 79.1757 93.704 78.7317 94.088C78.2997 94.46 78.0357 94.982 77.9397 95.654ZM86.9754 101V92.126H88.7934V93.17H89.0814C89.2254 92.798 89.4534 92.528 89.7654 92.36C90.0894 92.18 90.4854 92.09 90.9534 92.09H92.0154V93.764H90.8814C90.2814 93.764 89.7894 93.932 89.4054 94.268C89.0214 94.592 88.8294 95.096 88.8294 95.78V101H86.9754ZM97.2664 101C96.7264 101 96.2944 100.838 95.9704 100.514C95.6584 100.19 95.5024 99.758 95.5024 99.218V93.692H93.0544V92.126H95.5024V89.192H97.3564V92.126H100.002V93.692H97.3564V98.894C97.3564 99.254 97.5244 99.434 97.8604 99.434H99.7144V101H97.2664ZM102.181 101V92.126H104.035V101H102.181ZM103.117 90.92C102.757 90.92 102.451 90.806 102.199 90.578C101.959 90.338 101.839 90.032 101.839 89.66C101.839 89.288 101.959 88.988 102.199 88.76C102.451 88.52 102.757 88.4 103.117 88.4C103.489 88.4 103.795 88.52 104.035 88.76C104.275 88.988 104.395 89.288 104.395 89.66C104.395 90.032 104.275 90.338 104.035 90.578C103.795 90.806 103.489 90.92 103.117 90.92ZM110.854 101.252C109.954 101.252 109.168 101.066 108.496 100.694C107.824 100.31 107.296 99.776 106.912 99.092C106.54 98.396 106.354 97.592 106.354 96.68V96.464C106.354 95.54 106.54 94.736 106.912 94.052C107.284 93.356 107.8 92.822 108.46 92.45C109.132 92.066 109.906 91.874 110.782 91.874C111.634 91.874 112.378 92.066 113.014 92.45C113.662 92.822 114.166 93.344 114.526 94.016C114.886 94.688 115.066 95.474 115.066 96.374V97.076H108.244C108.268 97.856 108.526 98.48 109.018 98.948C109.522 99.404 110.146 99.632 110.89 99.632C111.586 99.632 112.108 99.476 112.456 99.164C112.816 98.852 113.092 98.492 113.284 98.084L114.814 98.876C114.646 99.212 114.4 99.566 114.076 99.938C113.764 100.31 113.35 100.622 112.834 100.874C112.318 101.126 111.658 101.252 110.854 101.252ZM108.262 95.654H113.176C113.128 94.982 112.888 94.46 112.456 94.088C112.024 93.704 111.46 93.512 110.764 93.512C110.068 93.512 109.498 93.704 109.054 94.088C108.622 94.46 108.358 94.982 108.262 95.654ZM120.934 101.252C119.806 101.252 118.87 101 118.126 100.496C117.382 99.992 116.926 99.23 116.758 98.21L118.486 97.796C118.582 98.288 118.744 98.678 118.972 98.966C119.2 99.254 119.482 99.458 119.818 99.578C120.166 99.698 120.538 99.758 120.934 99.758C121.522 99.758 121.972 99.644 122.284 99.416C122.608 99.188 122.77 98.894 122.77 98.534C122.77 98.174 122.62 97.91 122.32 97.742C122.02 97.574 121.576 97.436 120.988 97.328L120.376 97.22C119.776 97.112 119.23 96.956 118.738 96.752C118.246 96.548 117.856 96.266 117.568 95.906C117.28 95.546 117.136 95.084 117.136 94.52C117.136 93.68 117.448 93.032 118.072 92.576C118.696 92.108 119.524 91.874 120.556 91.874C121.552 91.874 122.368 92.102 123.004 92.558C123.652 93.002 124.072 93.608 124.264 94.376L122.536 94.862C122.428 94.322 122.2 93.944 121.852 93.728C121.504 93.5 121.072 93.386 120.556 93.386C120.052 93.386 119.656 93.482 119.368 93.674C119.08 93.854 118.936 94.112 118.936 94.448C118.936 94.808 119.074 95.072 119.35 95.24C119.638 95.408 120.022 95.534 120.502 95.618L121.132 95.726C121.768 95.834 122.35 95.984 122.878 96.176C123.406 96.368 123.82 96.644 124.12 97.004C124.432 97.364 124.588 97.844 124.588 98.444C124.588 99.332 124.258 100.022 123.598 100.514C122.938 101.006 122.05 101.252 120.934 101.252Z" fill="#1C1917"/>
</svg>
