<svg width="160" height="160" viewBox="0 0 160 160" fill="none" xmlns="http://www.w3.org/2000/svg">
<path d="M74 4.3877C77.7128 2.24416 82.2872 2.24416 86 4.3877L142.482 36.998C146.195 39.1416 148.482 43.1028 148.482 47.3896V112.61C148.482 116.897 146.195 120.858 142.482 123.002L86 155.612C82.2872 157.756 77.7128 157.756 74 155.612L17.5176 123.002C13.8051 120.858 11.5177 116.897 11.5176 112.61V47.3896C11.5177 43.1028 13.8051 39.1416 17.5176 36.998L74 4.3877Z" fill="#ECFDF5" stroke="#292524" stroke-width="1.6"/>
<path d="M74.855 69.78L75.105 72L76.725 70.46L79.495 62.86C78.815 62.69 78.215 62.35 77.725 61.88L74.855 69.78Z" fill="#44403C"/>
<path d="M83.265 61.88C82.775 62.35 82.165 62.69 81.495 62.86L84.265 70.46L85.885 72L86.145 69.78L83.265 61.88Z" fill="#44403C"/>
<path d="M83.495 59C83.495 57.7 82.655 56.6 81.495 56.18V54H79.495V56.18C78.335 56.6 77.495 57.7 77.495 59C77.495 60.66 78.835 62 80.495 62C82.155 62 83.495 60.66 83.495 59ZM80.495 60C79.945 60 79.495 59.55 79.495 59C79.495 58.45 79.945 58 80.495 58C81.045 58 81.495 58.45 81.495 59C81.495 59.55 81.045 60 80.495 60Z" fill="#44403C"/>
<path d="M43.598 101.252C42.65 101.252 41.81 101.084 41.078 100.748C40.346 100.412 39.77 99.92 39.35 99.272C38.942 98.612 38.738 97.814 38.738 96.878V96.428H40.664V96.878C40.664 97.766 40.928 98.432 41.456 98.876C41.996 99.32 42.71 99.542 43.598 99.542C44.498 99.542 45.176 99.356 45.632 98.984C46.088 98.6 46.316 98.108 46.316 97.508C46.316 97.112 46.208 96.788 45.992 96.536C45.776 96.284 45.47 96.086 45.074 95.942C44.678 95.786 44.204 95.642 43.652 95.51L42.986 95.348C42.182 95.156 41.48 94.922 40.88 94.646C40.292 94.358 39.836 93.98 39.512 93.512C39.188 93.044 39.026 92.444 39.026 91.712C39.026 90.968 39.206 90.332 39.566 89.804C39.938 89.276 40.448 88.868 41.096 88.58C41.744 88.292 42.506 88.148 43.382 88.148C44.258 88.148 45.038 88.298 45.722 88.598C46.418 88.898 46.964 89.342 47.36 89.93C47.756 90.518 47.954 91.256 47.954 92.144V92.792H46.028V92.144C46.028 91.604 45.914 91.166 45.686 90.83C45.47 90.494 45.164 90.248 44.768 90.092C44.372 89.936 43.91 89.858 43.382 89.858C42.614 89.858 42.014 90.02 41.582 90.344C41.162 90.656 40.952 91.094 40.952 91.658C40.952 92.042 41.042 92.36 41.222 92.612C41.414 92.852 41.69 93.05 42.05 93.206C42.41 93.362 42.86 93.5 43.4 93.62L44.066 93.782C44.882 93.962 45.602 94.196 46.226 94.484C46.85 94.76 47.342 95.138 47.702 95.618C48.062 96.098 48.242 96.716 48.242 97.472C48.242 98.228 48.05 98.888 47.666 99.452C47.294 100.016 46.76 100.46 46.064 100.784C45.368 101.096 44.546 101.252 43.598 101.252ZM53.6668 101C53.1268 101 52.6948 100.838 52.3708 100.514C52.0588 100.19 51.9028 99.758 51.9028 99.218V93.692H49.4548V92.126H51.9028V89.192H53.7568V92.126H56.4028V93.692H53.7568V98.894C53.7568 99.254 53.9248 99.434 54.2607 99.434H56.1148V101H53.6668ZM58.5809 101V92.126H60.3989V93.17H60.6869C60.8309 92.798 61.0589 92.528 61.3709 92.36C61.6949 92.18 62.0909 92.09 62.5589 92.09H63.6209V93.764H62.4869C61.8869 93.764 61.3949 93.932 61.0109 94.268C60.6269 94.592 60.4349 95.096 60.4349 95.78V101H58.5809ZM68.9438 101.162C68.2718 101.162 67.6718 101.012 67.1438 100.712C66.6158 100.412 66.2018 99.986 65.9018 99.434C65.6018 98.882 65.4518 98.222 65.4518 97.454V92.126H67.3058V97.328C67.3058 98.096 67.4978 98.666 67.8818 99.038C68.2658 99.398 68.7998 99.578 69.4838 99.578C70.2398 99.578 70.8458 99.326 71.3018 98.822C71.7698 98.306 72.0038 97.568 72.0038 96.608V92.126H73.8578V101H72.0398V99.668H71.7518C71.5838 100.028 71.2838 100.37 70.8518 100.694C70.4198 101.006 69.7838 101.162 68.9438 101.162ZM80.7205 101.252C79.8685 101.252 79.0945 101.072 78.3985 100.712C77.7145 100.352 77.1685 99.83 76.7605 99.146C76.3645 98.462 76.1665 97.64 76.1665 96.68V96.446C76.1665 95.486 76.3645 94.67 76.7605 93.998C77.1685 93.314 77.7145 92.792 78.3985 92.432C79.0945 92.06 79.8685 91.874 80.7205 91.874C81.5725 91.874 82.2985 92.03 82.8985 92.342C83.4985 92.654 83.9785 93.068 84.3385 93.584C84.7105 94.1 84.9505 94.67 85.0585 95.294L83.2585 95.672C83.1985 95.276 83.0725 94.916 82.8805 94.592C82.6885 94.268 82.4185 94.01 82.0705 93.818C81.7225 93.626 81.2845 93.53 80.7565 93.53C80.2405 93.53 79.7725 93.65 79.3525 93.89C78.9445 94.118 78.6205 94.454 78.3805 94.898C78.1405 95.33 78.0205 95.858 78.0205 96.482V96.644C78.0205 97.268 78.1405 97.802 78.3805 98.246C78.6205 98.69 78.9445 99.026 79.3525 99.254C79.7725 99.482 80.2405 99.596 80.7565 99.596C81.5365 99.596 82.1305 99.398 82.5385 99.002C82.9465 98.594 83.2045 98.078 83.3125 97.454L85.1125 97.868C84.9685 98.48 84.7105 99.044 84.3385 99.56C83.9785 100.076 83.4985 100.49 82.8985 100.802C82.2985 101.102 81.5725 101.252 80.7205 101.252ZM90.2468 101C89.7068 101 89.2748 100.838 88.9508 100.514C88.6388 100.19 88.4828 99.758 88.4828 99.218V93.692H86.0348V92.126H88.4828V89.192H90.3368V92.126H92.9828V93.692H90.3368V98.894C90.3368 99.254 90.5048 99.434 90.8408 99.434H92.6948V101H90.2468ZM98.563 101.162C97.891 101.162 97.291 101.012 96.763 100.712C96.235 100.412 95.821 99.986 95.521 99.434C95.221 98.882 95.071 98.222 95.071 97.454V92.126H96.925V97.328C96.925 98.096 97.117 98.666 97.501 99.038C97.885 99.398 98.419 99.578 99.103 99.578C99.859 99.578 100.465 99.326 100.921 98.822C101.389 98.306 101.623 97.568 101.623 96.608V92.126H103.477V101H101.659V99.668H101.371C101.203 100.028 100.903 100.37 100.471 100.694C100.039 101.006 99.403 101.162 98.563 101.162ZM106.218 101V92.126H108.036V93.17H108.324C108.468 92.798 108.696 92.528 109.008 92.36C109.332 92.18 109.728 92.09 110.196 92.09H111.258V93.764H110.124C109.524 93.764 109.032 93.932 108.648 94.268C108.264 94.592 108.072 95.096 108.072 95.78V101H106.218ZM116.93 101.252C116.03 101.252 115.244 101.066 114.572 100.694C113.9 100.31 113.372 99.776 112.988 99.092C112.616 98.396 112.43 97.592 112.43 96.68V96.464C112.43 95.54 112.616 94.736 112.988 94.052C113.36 93.356 113.876 92.822 114.536 92.45C115.208 92.066 115.982 91.874 116.858 91.874C117.71 91.874 118.454 92.066 119.09 92.45C119.738 92.822 120.242 93.344 120.602 94.016C120.962 94.688 121.142 95.474 121.142 96.374V97.076H114.32C114.344 97.856 114.602 98.48 115.094 98.948C115.598 99.404 116.222 99.632 116.966 99.632C117.662 99.632 118.184 99.476 118.532 99.164C118.892 98.852 119.168 98.492 119.36 98.084L120.89 98.876C120.722 99.212 120.476 99.566 120.152 99.938C119.84 100.31 119.426 100.622 118.91 100.874C118.394 101.126 117.734 101.252 116.93 101.252ZM114.338 95.654H119.252C119.204 94.982 118.964 94.46 118.532 94.088C118.1 93.704 117.536 93.512 116.84 93.512C116.144 93.512 115.574 93.704 115.13 94.088C114.698 94.46 114.434 94.982 114.338 95.654Z" fill="#1C1917"/>
</svg>
