<svg width="160" height="160" viewBox="0 0 160 160" fill="none" xmlns="http://www.w3.org/2000/svg">
<path d="M74 4.3877C77.7128 2.24416 82.2872 2.24416 86 4.3877L142.482 36.998C146.195 39.1416 148.482 43.1028 148.482 47.3896V112.61C148.482 116.897 146.195 120.858 142.482 123.002L86 155.612C82.2872 157.756 77.7128 157.756 74 155.612L17.5176 123.002C13.8051 120.858 11.5177 116.897 11.5176 112.61V47.3896C11.5177 43.1028 13.8051 39.1416 17.5176 36.998L74 4.3877Z" fill="#FFF1F2" stroke="#292524" stroke-width="1.6"/>
<path d="M88.5 59.9652C88.46 55.5752 84.9 52.0352 80.5 52.0352C76.1 52.0352 72.54 55.5752 72.5 59.9652V65.9652C72.5 70.3852 76.08 73.9652 80.5 73.9652C84.92 73.9652 88.5 70.3852 88.5 65.9652V59.9652ZM86.5 59.9652H81.5V54.1252C84.31 54.5952 86.46 57.0252 86.5 59.9652ZM79.5 54.1252V59.9652H74.5C74.54 57.0252 76.69 54.5952 79.5 54.1252ZM86.5 65.9652C86.5 69.2752 83.81 71.9652 80.5 71.9652C77.19 71.9652 74.5 69.2752 74.5 65.9652V61.9652H86.5V65.9652Z" fill="#44403C"/>
<path d="M33.314 101V88.4H35.258V101H33.314ZM37.9383 101V92.126H39.7563V93.458H40.0443C40.2123 93.098 40.5123 92.762 40.9443 92.45C41.3763 92.138 42.0183 91.982 42.8703 91.982C43.5423 91.982 44.1363 92.132 44.6523 92.432C45.1803 92.732 45.5943 93.158 45.8943 93.71C46.1943 94.25 46.3443 94.904 46.3443 95.672V101H44.4903V95.816C44.4903 95.048 44.2983 94.484 43.9143 94.124C43.5303 93.752 43.0023 93.566 42.3303 93.566C41.5623 93.566 40.9443 93.818 40.4763 94.322C40.0203 94.826 39.7923 95.558 39.7923 96.518V101H37.9383ZM52.0964 101C51.5564 101 51.1244 100.838 50.8004 100.514C50.4884 100.19 50.3324 99.758 50.3324 99.218V93.692H47.8844V92.126H50.3324V89.192H52.1864V92.126H54.8324V93.692H52.1864V98.894C52.1864 99.254 52.3544 99.434 52.6904 99.434H54.5444V101H52.0964ZM60.7622 101.252C59.8622 101.252 59.0762 101.066 58.4042 100.694C57.7322 100.31 57.2042 99.776 56.8202 99.092C56.4482 98.396 56.2622 97.592 56.2622 96.68V96.464C56.2622 95.54 56.4482 94.736 56.8202 94.052C57.1922 93.356 57.7082 92.822 58.3682 92.45C59.0402 92.066 59.8142 91.874 60.6902 91.874C61.5422 91.874 62.2862 92.066 62.9222 92.45C63.5702 92.822 64.0742 93.344 64.4342 94.016C64.7942 94.688 64.9742 95.474 64.9742 96.374V97.076H58.1522C58.1762 97.856 58.4342 98.48 58.9262 98.948C59.4302 99.404 60.0542 99.632 60.7982 99.632C61.4942 99.632 62.0162 99.476 62.3642 99.164C62.7242 98.852 63.0002 98.492 63.1922 98.084L64.7222 98.876C64.5542 99.212 64.3082 99.566 63.9842 99.938C63.6722 100.31 63.2582 100.622 62.7422 100.874C62.2262 101.126 61.5662 101.252 60.7622 101.252ZM58.1702 95.654H63.0842C63.0362 94.982 62.7962 94.46 62.3642 94.088C61.9322 93.704 61.3682 93.512 60.6722 93.512C59.9762 93.512 59.4062 93.704 58.9622 94.088C58.5302 94.46 58.2662 94.982 58.1702 95.654ZM67.2059 101V92.126H69.0239V93.17H69.3119C69.4559 92.798 69.6839 92.528 69.9959 92.36C70.3199 92.18 70.7159 92.09 71.1839 92.09H72.2459V93.764H71.1119C70.5119 93.764 70.0199 93.932 69.6359 94.268C69.2519 94.592 69.0599 95.096 69.0599 95.78V101H67.2059ZM76.6747 101.252C76.0387 101.252 75.4687 101.144 74.9647 100.928C74.4727 100.712 74.0767 100.394 73.7767 99.974C73.4887 99.554 73.3447 99.044 73.3447 98.444C73.3447 97.832 73.4887 97.328 73.7767 96.932C74.0767 96.524 74.4787 96.218 74.9827 96.014C75.4987 95.81 76.0807 95.708 76.7287 95.708H79.4287V95.132C79.4287 94.616 79.2727 94.202 78.9607 93.89C78.6487 93.578 78.1687 93.422 77.5207 93.422C76.8847 93.422 76.3987 93.572 76.0627 93.872C75.7267 94.172 75.5047 94.562 75.3967 95.042L73.6687 94.484C73.8127 94.004 74.0407 93.572 74.3527 93.188C74.6767 92.792 75.1027 92.474 75.6307 92.234C76.1587 91.994 76.7947 91.874 77.5387 91.874C78.6907 91.874 79.5967 92.168 80.2567 92.756C80.9167 93.344 81.2467 94.178 81.2467 95.258V98.912C81.2467 99.272 81.4147 99.452 81.7507 99.452H82.5067V101H81.1207C80.7007 101 80.3587 100.892 80.0947 100.676C79.8307 100.46 79.6987 100.166 79.6987 99.794V99.74H79.4287C79.3327 99.92 79.1887 100.13 78.9967 100.37C78.8047 100.61 78.5227 100.82 78.1507 101C77.7787 101.168 77.2867 101.252 76.6747 101.252ZM76.9447 99.722C77.6887 99.722 78.2887 99.512 78.7447 99.092C79.2007 98.66 79.4287 98.072 79.4287 97.328V97.148H76.8367C76.3447 97.148 75.9487 97.256 75.6487 97.472C75.3487 97.676 75.1987 97.982 75.1987 98.39C75.1987 98.798 75.3547 99.122 75.6667 99.362C75.9787 99.602 76.4047 99.722 76.9447 99.722ZM88.2205 101.252C87.3685 101.252 86.5945 101.072 85.8985 100.712C85.2145 100.352 84.6685 99.83 84.2605 99.146C83.8645 98.462 83.6665 97.64 83.6665 96.68V96.446C83.6665 95.486 83.8645 94.67 84.2605 93.998C84.6685 93.314 85.2145 92.792 85.8985 92.432C86.5945 92.06 87.3685 91.874 88.2205 91.874C89.0725 91.874 89.7985 92.03 90.3985 92.342C90.9985 92.654 91.4785 93.068 91.8385 93.584C92.2105 94.1 92.4505 94.67 92.5585 95.294L90.7585 95.672C90.6985 95.276 90.5725 94.916 90.3805 94.592C90.1885 94.268 89.9185 94.01 89.5705 93.818C89.2225 93.626 88.7845 93.53 88.2565 93.53C87.7405 93.53 87.2725 93.65 86.8525 93.89C86.4445 94.118 86.1205 94.454 85.8805 94.898C85.6405 95.33 85.5205 95.858 85.5205 96.482V96.644C85.5205 97.268 85.6405 97.802 85.8805 98.246C86.1205 98.69 86.4445 99.026 86.8525 99.254C87.2725 99.482 87.7405 99.596 88.2565 99.596C89.0365 99.596 89.6305 99.398 90.0385 99.002C90.4465 98.594 90.7045 98.078 90.8125 97.454L92.6125 97.868C92.4685 98.48 92.2105 99.044 91.8385 99.56C91.4785 100.076 90.9985 100.49 90.3985 100.802C89.7985 101.102 89.0725 101.252 88.2205 101.252ZM97.7468 101C97.2068 101 96.7748 100.838 96.4508 100.514C96.1388 100.19 95.9828 99.758 95.9828 99.218V93.692H93.5348V92.126H95.9828V89.192H97.8368V92.126H100.483V93.692H97.8368V98.894C97.8368 99.254 98.0048 99.434 98.3408 99.434H100.195V101H97.7468ZM102.661 101V92.126H104.515V101H102.661ZM103.597 90.92C103.237 90.92 102.931 90.806 102.679 90.578C102.439 90.338 102.319 90.032 102.319 89.66C102.319 89.288 102.439 88.988 102.679 88.76C102.931 88.52 103.237 88.4 103.597 88.4C103.969 88.4 104.275 88.52 104.515 88.76C104.755 88.988 104.875 89.288 104.875 89.66C104.875 90.032 104.755 90.338 104.515 90.578C104.275 90.806 103.969 90.92 103.597 90.92ZM111.424 101.252C110.536 101.252 109.744 101.072 109.048 100.712C108.364 100.34 107.824 99.812 107.428 99.128C107.032 98.444 106.834 97.634 106.834 96.698V96.428C106.834 95.492 107.032 94.688 107.428 94.016C107.824 93.332 108.364 92.804 109.048 92.432C109.744 92.06 110.536 91.874 111.424 91.874C112.312 91.874 113.104 92.06 113.8 92.432C114.496 92.804 115.042 93.332 115.438 94.016C115.834 94.688 116.032 95.492 116.032 96.428V96.698C116.032 97.634 115.834 98.444 115.438 99.128C115.042 99.812 114.496 100.34 113.8 100.712C113.104 101.072 112.312 101.252 111.424 101.252ZM111.424 99.596C112.24 99.596 112.9 99.338 113.404 98.822C113.92 98.294 114.178 97.568 114.178 96.644V96.482C114.178 95.558 113.926 94.838 113.422 94.322C112.918 93.794 112.252 93.53 111.424 93.53C110.62 93.53 109.96 93.794 109.444 94.322C108.94 94.838 108.688 95.558 108.688 96.482V96.644C108.688 97.568 108.94 98.294 109.444 98.822C109.96 99.338 110.62 99.596 111.424 99.596ZM118.341 101V92.126H120.159V93.458H120.447C120.615 93.098 120.915 92.762 121.347 92.45C121.779 92.138 122.421 91.982 123.273 91.982C123.945 91.982 124.539 92.132 125.055 92.432C125.583 92.732 125.997 93.158 126.297 93.71C126.597 94.25 126.747 94.904 126.747 95.672V101H124.893V95.816C124.893 95.048 124.701 94.484 124.317 94.124C123.933 93.752 123.405 93.566 122.733 93.566C121.965 93.566 121.347 93.818 120.879 94.322C120.423 94.826 120.195 95.558 120.195 96.518V101H118.341Z" fill="#1C1917"/>
</svg>
