<svg width="160" height="160" viewBox="0 0 160 160" fill="none" xmlns="http://www.w3.org/2000/svg">
<path d="M74 4.3877C77.7128 2.24416 82.2872 2.24416 86 4.3877L142.482 36.998C146.195 39.1416 148.482 43.1028 148.482 47.3896V112.61C148.482 116.897 146.195 120.858 142.482 123.002L86 155.612C82.2872 157.756 77.7128 157.756 74 155.612L17.5176 123.002C13.8051 120.858 11.5177 116.897 11.5176 112.61V47.3896C11.5177 43.1028 13.8051 39.1416 17.5176 36.998L74 4.3877Z" fill="#ECFEFF" stroke="#292524" stroke-width="1.6"/>
<path d="M89.5 58L80.5 53L71.5 58V68L80.5 73L89.5 68V58ZM80.5 55.29L86.41 58.57L83.4 60.24C82.67 59.48 81.64 59 80.5 59C79.36 59 78.33 59.48 77.6 60.24L74.59 58.57L80.5 55.29ZM79.5 70.16L73.5 66.83V60.26L76.63 62C76.54 62.31 76.5 62.65 76.5 63C76.5 64.86 77.77 66.43 79.5 66.87V70.16ZM78.5 63C78.5 61.9 79.4 61 80.5 61C81.6 61 82.5 61.9 82.5 63C82.5 64.1 81.6 65 80.5 65C79.4 65 78.5 64.1 78.5 63ZM81.5 70.16V66.88C83.23 66.44 84.5 64.87 84.5 63.01C84.5 62.66 84.46 62.32 84.37 62L87.5 60.26V66.83L81.5 70.16Z" fill="#44403C"/>
<path d="M54.32 101V90.164H50.45V88.4H60.134V90.164H56.264V101H54.32ZM64.3678 101.252C63.4798 101.252 62.6878 101.072 61.9918 100.712C61.3078 100.34 60.7678 99.812 60.3718 99.128C59.9758 98.444 59.7778 97.634 59.7778 96.698V96.428C59.7778 95.492 59.9758 94.688 60.3718 94.016C60.7678 93.332 61.3078 92.804 61.9918 92.432C62.6878 92.06 63.4798 91.874 64.3678 91.874C65.2558 91.874 66.0478 92.06 66.7438 92.432C67.4398 92.804 67.9858 93.332 68.3818 94.016C68.7778 94.688 68.9758 95.492 68.9758 96.428V96.698C68.9758 97.634 68.7778 98.444 68.3818 99.128C67.9858 99.812 67.4398 100.34 66.7438 100.712C66.0478 101.072 65.2558 101.252 64.3678 101.252ZM64.3678 99.596C65.1838 99.596 65.8438 99.338 66.3478 98.822C66.8638 98.294 67.1218 97.568 67.1218 96.644V96.482C67.1218 95.558 66.8698 94.838 66.3658 94.322C65.8618 93.794 65.1958 93.53 64.3678 93.53C63.5638 93.53 62.9038 93.794 62.3878 94.322C61.8838 94.838 61.6318 95.558 61.6318 96.482V96.644C61.6318 97.568 61.8838 98.294 62.3878 98.822C62.9038 99.338 63.5638 99.596 64.3678 99.596ZM71.284 101V88.4H73.138V95.582H73.426L76.918 92.126H79.384L74.902 96.428L79.528 101H77.08L73.426 97.31H73.138V101H71.284ZM84.7563 101.252C83.8563 101.252 83.0703 101.066 82.3983 100.694C81.7263 100.31 81.1983 99.776 80.8143 99.092C80.4423 98.396 80.2563 97.592 80.2563 96.68V96.464C80.2563 95.54 80.4423 94.736 80.8143 94.052C81.1863 93.356 81.7023 92.822 82.3623 92.45C83.0343 92.066 83.8083 91.874 84.6843 91.874C85.5363 91.874 86.2803 92.066 86.9163 92.45C87.5643 92.822 88.0683 93.344 88.4283 94.016C88.7883 94.688 88.9683 95.474 88.9683 96.374V97.076H82.1463C82.1703 97.856 82.4283 98.48 82.9203 98.948C83.4243 99.404 84.0483 99.632 84.7923 99.632C85.4883 99.632 86.0103 99.476 86.3583 99.164C86.7183 98.852 86.9943 98.492 87.1863 98.084L88.7163 98.876C88.5483 99.212 88.3023 99.566 87.9783 99.938C87.6663 100.31 87.2523 100.622 86.7363 100.874C86.2203 101.126 85.5603 101.252 84.7563 101.252ZM82.1643 95.654H87.0783C87.0303 94.982 86.7903 94.46 86.3583 94.088C85.9263 93.704 85.3623 93.512 84.6663 93.512C83.9703 93.512 83.4003 93.704 82.9563 94.088C82.5243 94.46 82.2603 94.982 82.1643 95.654ZM91.2 101V92.126H93.018V93.458H93.306C93.474 93.098 93.774 92.762 94.206 92.45C94.638 92.138 95.28 91.982 96.132 91.982C96.804 91.982 97.398 92.132 97.914 92.432C98.442 92.732 98.856 93.158 99.156 93.71C99.456 94.25 99.606 94.904 99.606 95.672V101H97.752V95.816C97.752 95.048 97.56 94.484 97.176 94.124C96.792 93.752 96.264 93.566 95.592 93.566C94.824 93.566 94.206 93.818 93.738 94.322C93.282 94.826 93.054 95.558 93.054 96.518V101H91.2ZM105.91 101.252C104.782 101.252 103.846 101 103.102 100.496C102.358 99.992 101.902 99.23 101.734 98.21L103.462 97.796C103.558 98.288 103.72 98.678 103.948 98.966C104.176 99.254 104.458 99.458 104.794 99.578C105.142 99.698 105.514 99.758 105.91 99.758C106.498 99.758 106.948 99.644 107.26 99.416C107.584 99.188 107.746 98.894 107.746 98.534C107.746 98.174 107.596 97.91 107.296 97.742C106.996 97.574 106.552 97.436 105.964 97.328L105.352 97.22C104.752 97.112 104.206 96.956 103.714 96.752C103.222 96.548 102.832 96.266 102.544 95.906C102.256 95.546 102.112 95.084 102.112 94.52C102.112 93.68 102.424 93.032 103.048 92.576C103.672 92.108 104.5 91.874 105.532 91.874C106.528 91.874 107.344 92.102 107.98 92.558C108.628 93.002 109.048 93.608 109.24 94.376L107.512 94.862C107.404 94.322 107.176 93.944 106.828 93.728C106.48 93.5 106.048 93.386 105.532 93.386C105.028 93.386 104.632 93.482 104.344 93.674C104.056 93.854 103.912 94.112 103.912 94.448C103.912 94.808 104.05 95.072 104.326 95.24C104.614 95.408 104.998 95.534 105.478 95.618L106.108 95.726C106.744 95.834 107.326 95.984 107.854 96.176C108.382 96.368 108.796 96.644 109.096 97.004C109.408 97.364 109.564 97.844 109.564 98.444C109.564 99.332 109.234 100.022 108.574 100.514C107.914 101.006 107.026 101.252 105.91 101.252Z" fill="#1C1917"/>
</svg>
