<svg width="1053" height="331" viewBox="0 0 1053 331" fill="none" xmlns="http://www.w3.org/2000/svg">
<path d="M252 164.996C252 169.414 255.582 172.996 260 172.996C264.418 172.996 268 169.414 268 164.996C268 160.578 264.418 156.996 260 156.996C255.582 156.996 252 160.578 252 164.996ZM371 166.496L386 173.656L386 156.336L371 163.496L371 166.496ZM260 164.996L260 166.496L372.5 166.496L372.5 164.996L372.5 163.496L260 163.496L260 164.996Z" fill="#9333EA"/>
<path d="M701 163.496L686 156.336L686 173.656L701 166.496L701 163.496ZM804 164.996C804 169.414 807.582 172.996 812 172.996C816.418 172.996 820 169.414 820 164.996C820 160.578 816.418 156.996 812 156.996C807.582 156.996 804 160.578 804 164.996ZM699.5 164.996L699.5 166.496L812 166.496L812 164.996L812 163.496L699.5 163.496L699.5 164.996Z" fill="#9333EA"/>
<path d="M814 130.617H1050.41C1051.17 130.617 1051.79 131.234 1051.79 131.996V199.721C1051.79 200.482 1051.17 201.1 1050.41 201.1H814C813.238 201.1 812.621 200.482 812.621 199.721V131.996C812.621 131.234 813.238 130.617 814 130.617Z" fill="#FFFBEB"/>
<path d="M814 130.617H1050.41C1051.17 130.617 1051.79 131.234 1051.79 131.996V199.721C1051.79 200.482 1051.17 201.1 1050.41 201.1H814C813.238 201.1 812.621 200.482 812.621 199.721V131.996C812.621 131.234 813.238 130.617 814 130.617Z" stroke="#1C1917" stroke-width="1.24138"/>
<path d="M856.728 168.962C856.893 168.963 857.051 169.028 857.167 169.145L860.878 172.881C860.994 172.998 861.059 173.156 861.058 173.32C861.058 173.485 860.992 173.643 860.875 173.759L857.139 177.47C857.023 177.586 856.864 177.651 856.699 177.651C856.535 177.65 856.377 177.584 856.261 177.467L852.55 173.731C852.434 173.615 852.369 173.456 852.37 173.291C852.371 173.127 852.436 172.969 852.553 172.853L856.289 169.142C856.406 169.026 856.564 168.962 856.728 168.962ZM849.305 161.489C849.469 161.49 849.628 161.555 849.744 161.672L853.455 165.408C853.571 165.525 853.635 165.683 853.635 165.847C853.634 166.012 853.569 166.17 853.452 166.286L849.716 169.997C849.599 170.113 849.44 170.178 849.276 170.178C849.111 170.177 848.954 170.111 848.838 169.994L845.127 166.258C845.011 166.142 844.946 165.983 844.947 165.818C844.947 165.654 845.013 165.496 845.13 165.381L848.866 161.669C848.982 161.553 849.14 161.489 849.305 161.489ZM864.201 161.539C864.366 161.539 864.524 161.605 864.64 161.722L868.351 165.458C868.467 165.574 868.532 165.732 868.531 165.897C868.531 166.061 868.465 166.22 868.348 166.336L864.612 170.047C864.495 170.163 864.337 170.228 864.172 170.227C864.008 170.226 863.85 170.161 863.734 170.044L860.023 166.308C859.907 166.191 859.842 166.033 859.843 165.868C859.844 165.703 859.909 165.546 860.026 165.43L863.762 161.719C863.879 161.603 864.037 161.538 864.201 161.539ZM856.778 154.066C856.942 154.066 857.1 154.132 857.216 154.249L860.928 157.985C861.044 158.101 861.108 158.259 861.108 158.424C861.107 158.588 861.042 158.747 860.925 158.863L857.189 162.574C857.072 162.69 856.913 162.755 856.749 162.754C856.584 162.753 856.427 162.688 856.311 162.571L852.6 158.835C852.484 158.718 852.419 158.56 852.419 158.395C852.42 158.231 852.486 158.073 852.603 157.957L856.339 154.246C856.455 154.13 856.613 154.065 856.778 154.066Z" fill="#292524" stroke="#44403C" stroke-width="1.24138"/>
<path d="M883.602 174.858V157.479H885.688V165.2H893.831V157.479H895.917V174.858H893.831V167.087H885.688V174.858H883.602ZM905.581 175.206C904.356 175.206 903.272 174.949 902.329 174.436C901.402 173.923 900.673 173.203 900.144 172.276C899.631 171.333 899.374 170.224 899.374 168.949V168.627C899.374 167.369 899.631 166.268 900.144 165.325C900.673 164.381 901.402 163.653 902.329 163.14C903.272 162.627 904.356 162.37 905.581 162.37C906.806 162.37 907.882 162.627 908.809 163.14C909.752 163.653 910.48 164.381 910.993 165.325C911.523 166.268 911.788 167.369 911.788 168.627V168.949C911.788 170.224 911.523 171.333 910.993 172.276C910.48 173.203 909.752 173.923 908.809 174.436C907.882 174.949 906.806 175.206 905.581 175.206ZM905.581 173.443C906.872 173.443 907.898 173.038 908.66 172.227C909.438 171.399 909.827 170.29 909.827 168.9V168.676C909.827 167.286 909.438 166.185 908.66 165.374C907.898 164.547 906.872 164.133 905.581 164.133C904.307 164.133 903.28 164.547 902.502 165.374C901.724 166.185 901.336 167.286 901.336 168.676V168.9C901.336 170.29 901.724 171.399 902.502 172.227C903.28 173.038 904.307 173.443 905.581 173.443ZM917.887 174.858L913.542 162.718H915.628L919.277 173.394H919.625L923.275 162.718H925.36L921.015 174.858H917.887ZM933.244 175.206C932.019 175.206 930.944 174.949 930.017 174.436C929.09 173.907 928.37 173.17 927.857 172.227C927.344 171.283 927.087 170.191 927.087 168.949V168.652C927.087 167.394 927.344 166.293 927.857 165.349C928.37 164.406 929.081 163.678 929.992 163.165C930.902 162.635 931.945 162.37 933.12 162.37C934.262 162.37 935.272 162.618 936.149 163.115C937.026 163.595 937.713 164.29 938.21 165.2C938.706 166.111 938.955 167.178 938.955 168.403V169.297H929.048C929.098 170.605 929.52 171.631 930.315 172.376C931.109 173.104 932.102 173.468 933.294 173.468C934.337 173.468 935.139 173.228 935.702 172.748C936.265 172.268 936.695 171.697 936.993 171.035L938.681 171.854C938.433 172.367 938.086 172.88 937.639 173.394C937.208 173.907 936.637 174.337 935.926 174.685C935.23 175.032 934.337 175.206 933.244 175.206ZM929.073 167.683H936.968C936.902 166.558 936.513 165.68 935.801 165.052C935.106 164.423 934.212 164.108 933.12 164.108C932.011 164.108 931.101 164.423 930.389 165.052C929.677 165.68 929.239 166.558 929.073 167.683ZM942.376 174.858V162.718H944.287V164.207H944.635C944.85 163.678 945.181 163.289 945.628 163.04C946.075 162.792 946.663 162.668 947.391 162.668H948.831V164.456H947.267C946.39 164.456 945.678 164.704 945.132 165.2C944.602 165.68 944.337 166.434 944.337 167.46V174.858H942.376ZM963.797 175.206C962.539 175.206 961.414 174.983 960.421 174.536C959.428 174.089 958.641 173.418 958.062 172.525C957.499 171.614 957.218 170.48 957.218 169.123V168.602H959.279V169.123C959.279 170.563 959.701 171.639 960.545 172.351C961.389 173.046 962.473 173.394 963.797 173.394C965.155 173.394 966.189 173.087 966.901 172.475C967.612 171.863 967.968 171.093 967.968 170.166C967.968 169.52 967.803 169.007 967.472 168.627C967.157 168.246 966.71 167.94 966.131 167.708C965.552 167.46 964.873 167.245 964.095 167.063L962.804 166.74C961.795 166.475 960.901 166.152 960.123 165.772C959.345 165.391 958.732 164.894 958.286 164.282C957.855 163.653 957.64 162.85 957.64 161.874C957.64 160.897 957.88 160.053 958.36 159.341C958.857 158.629 959.543 158.083 960.421 157.703C961.315 157.322 962.341 157.132 963.499 157.132C964.675 157.132 965.726 157.338 966.652 157.752C967.596 158.149 968.332 158.745 968.862 159.54C969.408 160.318 969.681 161.303 969.681 162.494V163.537H967.621V162.494C967.621 161.65 967.439 160.972 967.075 160.458C966.727 159.945 966.239 159.565 965.61 159.316C964.997 159.068 964.294 158.944 963.499 158.944C962.357 158.944 961.439 159.2 960.743 159.714C960.048 160.21 959.701 160.922 959.701 161.849C959.701 162.461 959.85 162.958 960.148 163.338C960.446 163.719 960.868 164.034 961.414 164.282C961.96 164.514 962.614 164.72 963.375 164.903L964.666 165.225C965.676 165.44 966.578 165.738 967.372 166.119C968.183 166.483 968.829 166.988 969.309 167.634C969.789 168.263 970.029 169.09 970.029 170.116C970.029 171.143 969.772 172.036 969.259 172.798C968.746 173.559 968.018 174.155 967.075 174.585C966.148 174.999 965.055 175.206 963.797 175.206ZM977.782 174.858C977.087 174.858 976.549 174.668 976.168 174.287C975.804 173.907 975.622 173.385 975.622 172.723V164.431H971.973V162.718H975.622V158.398H977.584V162.718H981.556V164.431H977.584V172.425C977.584 172.922 977.824 173.17 978.304 173.17H981.01V174.858H977.782ZM988.384 175.206C987.54 175.206 986.771 175.057 986.075 174.759C985.38 174.461 984.834 174.031 984.437 173.468C984.04 172.905 983.841 172.218 983.841 171.407C983.841 170.58 984.04 169.901 984.437 169.372C984.834 168.825 985.38 168.42 986.075 168.155C986.771 167.874 987.548 167.733 988.409 167.733H992.506V166.839C992.506 165.978 992.249 165.3 991.736 164.803C991.24 164.307 990.495 164.058 989.502 164.058C988.525 164.058 987.764 164.298 987.217 164.778C986.671 165.242 986.299 165.871 986.1 166.665L984.263 166.069C984.462 165.391 984.776 164.778 985.206 164.232C985.637 163.669 986.208 163.223 986.92 162.892C987.648 162.544 988.517 162.37 989.526 162.37C991.082 162.37 992.291 162.776 993.151 163.587C994.012 164.381 994.442 165.507 994.442 166.963V172.45C994.442 172.947 994.674 173.195 995.137 173.195H996.255V174.858H994.542C993.995 174.858 993.557 174.709 993.226 174.412C992.895 174.097 992.729 173.683 992.729 173.17V173.046H992.431C992.249 173.36 992.001 173.692 991.686 174.039C991.388 174.37 990.975 174.643 990.445 174.858C989.915 175.09 989.228 175.206 988.384 175.206ZM988.608 173.518C989.766 173.518 990.702 173.178 991.413 172.5C992.142 171.805 992.506 170.836 992.506 169.595V169.322H988.484C987.706 169.322 987.06 169.496 986.547 169.843C986.051 170.174 985.802 170.679 985.802 171.358C985.802 172.036 986.059 172.566 986.572 172.947C987.102 173.327 987.78 173.518 988.608 173.518ZM1002.61 174.858C1001.91 174.858 1001.38 174.668 1001 174.287C1000.63 173.907 1000.45 173.385 1000.45 172.723V164.431H996.8V162.718H1000.45V158.398H1002.41V162.718H1006.38V164.431H1002.41V172.425C1002.41 172.922 1002.65 173.17 1003.13 173.17H1005.84V174.858H1002.61ZM1014.69 175.206C1013.46 175.206 1012.38 174.949 1011.46 174.436C1010.53 173.907 1009.81 173.17 1009.3 172.227C1008.78 171.283 1008.53 170.191 1008.53 168.949V168.652C1008.53 167.394 1008.78 166.293 1009.3 165.349C1009.81 164.406 1010.52 163.678 1011.43 163.165C1012.34 162.635 1013.39 162.37 1014.56 162.37C1015.7 162.37 1016.71 162.618 1017.59 163.115C1018.47 163.595 1019.15 164.29 1019.65 165.2C1020.15 166.111 1020.4 167.178 1020.4 168.403V169.297H1010.49C1010.54 170.605 1010.96 171.631 1011.76 172.376C1012.55 173.104 1013.54 173.468 1014.74 173.468C1015.78 173.468 1016.58 173.228 1017.14 172.748C1017.71 172.268 1018.14 171.697 1018.43 171.035L1020.12 171.854C1019.87 172.367 1019.53 172.88 1019.08 173.394C1018.65 173.907 1018.08 174.337 1017.37 174.685C1016.67 175.032 1015.78 175.206 1014.69 175.206ZM1010.51 167.683H1018.41C1018.34 166.558 1017.95 165.68 1017.24 165.052C1016.55 164.423 1015.65 164.108 1014.56 164.108C1013.45 164.108 1012.54 164.423 1011.83 165.052C1011.12 165.68 1010.68 166.558 1010.51 167.683Z" fill="#44403C"/>
<path d="M0 130.996C0 129.892 0.895431 128.996 2 128.996H258.409C259.514 128.996 260.409 129.892 260.409 130.996V198.72C260.409 199.825 259.514 200.72 258.409 200.72H1.99999C0.89542 200.72 0 199.825 0 198.72V130.996Z" fill="#292524"/>
<path d="M44.7281 167.962C44.8927 167.963 45.051 168.028 45.167 168.145L48.8782 171.881C48.9941 171.998 49.0588 172.156 49.0584 172.32C49.0579 172.485 48.992 172.643 48.8753 172.759L45.1393 176.47C45.0225 176.586 44.8638 176.651 44.6993 176.651C44.5348 176.65 44.3773 176.584 44.2614 176.467L40.5501 172.731C40.4342 172.615 40.3694 172.456 40.37 172.291C40.3706 172.127 40.4364 171.969 40.5531 171.853L44.2891 168.142C44.4057 168.026 44.5637 167.962 44.7281 167.962ZM37.3047 160.489C37.4693 160.49 37.6275 160.555 37.7435 160.672L41.4548 164.408C41.5706 164.525 41.6354 164.683 41.635 164.847C41.6344 165.012 41.5686 165.17 41.4519 165.286L37.7159 168.997C37.5991 169.113 37.4404 169.178 37.2758 169.178C37.1114 169.177 36.9539 169.111 36.8379 168.994L33.1267 165.258C33.0107 165.142 32.946 164.983 32.9465 164.818C32.9472 164.654 33.013 164.496 33.1296 164.381L36.8656 160.669C36.9823 160.553 37.1403 160.489 37.3047 160.489ZM52.2011 160.539C52.3657 160.539 52.5239 160.605 52.6399 160.722L56.3512 164.458C56.467 164.574 56.5318 164.732 56.5314 164.897C56.5308 165.061 56.465 165.22 56.3483 165.336L52.6123 169.047C52.4955 169.163 52.3368 169.228 52.1722 169.227C52.0078 169.226 51.8502 169.161 51.7343 169.044L48.0231 165.308C47.9071 165.191 47.8424 165.033 47.8429 164.868C47.8436 164.703 47.9094 164.546 48.026 164.43L51.762 160.719C51.8787 160.603 52.0367 160.538 52.2011 160.539ZM44.7777 153.066C44.9422 153.066 45.1005 153.132 45.2165 153.249L48.9277 156.985C49.0436 157.101 49.1084 157.259 49.1079 157.424C49.1074 157.588 49.0416 157.747 48.9248 157.863L45.1888 161.574C45.072 161.69 44.9134 161.755 44.7488 161.754C44.5843 161.753 44.4268 161.688 44.3109 161.571L40.5997 157.835C40.4837 157.718 40.4189 157.56 40.4195 157.395C40.4201 157.231 40.4859 157.073 40.6026 156.957L44.3386 153.246C44.4553 153.13 44.6132 153.065 44.7777 153.066Z" fill="#FAFAFA" stroke="#FAFAFA" stroke-width="1.24138"/>
<path d="M70.7831 173.858V171.996H73.2162V158.341H70.7831V156.479H77.561C79.8452 156.479 81.6079 157.058 82.8493 158.217C84.1072 159.376 84.7362 161.155 84.7362 163.555V166.783C84.7362 169.199 84.1072 170.987 82.8493 172.145C81.6079 173.287 79.8452 173.858 77.561 173.858H70.7831ZM75.3017 171.972H77.561C79.2493 171.972 80.5238 171.558 81.3845 170.73C82.2452 169.903 82.6755 168.62 82.6755 166.882V163.48C82.6755 161.709 82.2452 160.418 81.3845 159.607C80.5238 158.796 79.2493 158.391 77.561 158.391H75.3017V171.972ZM93.7011 174.206C92.4763 174.206 91.4004 173.949 90.4735 173.436C89.5466 172.907 88.8266 172.17 88.3135 171.227C87.8004 170.283 87.5439 169.191 87.5439 167.949V167.652C87.5439 166.394 87.8004 165.293 88.3135 164.349C88.8266 163.406 89.5383 162.678 90.4487 162.165C91.359 161.635 92.4018 161.37 93.577 161.37C94.719 161.37 95.7287 161.618 96.6059 162.115C97.4832 162.595 98.1701 163.29 98.6666 164.2C99.1632 165.111 99.4114 166.178 99.4114 167.403V168.297H89.5052C89.5549 169.605 89.977 170.631 90.7714 171.376C91.5659 172.104 92.559 172.468 93.7508 172.468C94.7935 172.468 95.5963 172.228 96.159 171.748C96.7218 171.268 97.1521 170.697 97.4501 170.035L99.1383 170.854C98.8901 171.367 98.5425 171.88 98.0956 172.394C97.6652 172.907 97.0942 173.337 96.3825 173.685C95.6873 174.032 94.7935 174.206 93.7011 174.206ZM89.5301 166.683H97.4252C97.359 165.558 96.9701 164.68 96.2583 164.052C95.5632 163.423 94.6694 163.108 93.577 163.108C92.468 163.108 91.5577 163.423 90.8459 164.052C90.1342 164.68 89.6956 165.558 89.5301 166.683ZM104.707 173.858V163.431H100.983V161.718H104.707V158.614C104.707 157.952 104.889 157.431 105.253 157.05C105.634 156.669 106.172 156.479 106.867 156.479H109.921V158.167H107.413C106.917 158.167 106.668 158.416 106.668 158.912V161.718H110.492V163.431H106.668V173.858H104.707ZM116.813 174.206C115.969 174.206 115.199 174.057 114.504 173.759C113.809 173.461 113.262 173.031 112.865 172.468C112.468 171.905 112.269 171.218 112.269 170.407C112.269 169.58 112.468 168.901 112.865 168.372C113.262 167.825 113.809 167.42 114.504 167.155C115.199 166.874 115.977 166.733 116.838 166.733H120.934V165.839C120.934 164.978 120.678 164.3 120.164 163.803C119.668 163.307 118.923 163.058 117.93 163.058C116.953 163.058 116.192 163.298 115.646 163.778C115.1 164.242 114.727 164.871 114.529 165.665L112.691 165.069C112.89 164.391 113.204 163.778 113.635 163.232C114.065 162.669 114.636 162.223 115.348 161.892C116.076 161.544 116.945 161.37 117.955 161.37C119.511 161.37 120.719 161.776 121.58 162.587C122.44 163.381 122.871 164.507 122.871 165.963V171.45C122.871 171.947 123.102 172.195 123.566 172.195H124.683V173.858H122.97C122.424 173.858 121.985 173.709 121.654 173.412C121.323 173.097 121.158 172.683 121.158 172.17V172.046H120.86C120.678 172.36 120.429 172.692 120.115 173.039C119.817 173.37 119.403 173.643 118.873 173.858C118.344 174.09 117.657 174.206 116.813 174.206ZM117.036 172.518C118.195 172.518 119.13 172.178 119.842 171.5C120.57 170.805 120.934 169.836 120.934 168.595V168.322H116.912C116.134 168.322 115.489 168.496 114.975 168.843C114.479 169.174 114.231 169.679 114.231 170.358C114.231 171.036 114.487 171.566 115 171.947C115.53 172.327 116.209 172.518 117.036 172.518ZM131.697 174.082C130.82 174.082 130.009 173.892 129.264 173.511C128.535 173.13 127.956 172.567 127.526 171.823C127.112 171.061 126.905 170.143 126.905 169.067V161.718H128.866V168.918C128.866 170.126 129.164 171.003 129.76 171.549C130.373 172.096 131.192 172.369 132.218 172.369C133.377 172.369 134.329 171.988 135.073 171.227C135.818 170.465 136.191 169.332 136.191 167.825V161.718H138.152V173.858H136.24V171.798H135.893C135.628 172.377 135.173 172.907 134.527 173.387C133.882 173.85 132.938 174.082 131.697 174.082ZM142.256 173.858V156.479H144.217V173.858H142.256ZM152.811 173.858C152.116 173.858 151.578 173.668 151.197 173.287C150.833 172.907 150.651 172.385 150.651 171.723V163.431H147.001V161.718H150.651V157.398H152.612V161.718H156.585V163.431H152.612V171.425C152.612 171.922 152.852 172.17 153.332 172.17H156.038V173.858H152.811ZM171.824 174.206C170.566 174.206 169.441 173.983 168.448 173.536C167.455 173.089 166.668 172.418 166.089 171.525C165.526 170.614 165.245 169.48 165.245 168.123V167.602H167.306V168.123C167.306 169.563 167.728 170.639 168.572 171.351C169.416 172.046 170.5 172.394 171.824 172.394C173.181 172.394 174.216 172.087 174.928 171.475C175.639 170.863 175.995 170.093 175.995 169.166C175.995 168.52 175.83 168.007 175.499 167.627C175.184 167.246 174.737 166.94 174.158 166.708C173.579 166.46 172.9 166.245 172.122 166.063L170.831 165.74C169.821 165.475 168.928 165.152 168.15 164.772C167.372 164.391 166.759 163.894 166.312 163.282C165.882 162.653 165.667 161.85 165.667 160.874C165.667 159.897 165.907 159.053 166.387 158.341C166.884 157.629 167.57 157.083 168.448 156.703C169.341 156.322 170.368 156.132 171.526 156.132C172.701 156.132 173.752 156.338 174.679 156.752C175.623 157.149 176.359 157.745 176.889 158.54C177.435 159.318 177.708 160.303 177.708 161.494V162.537H175.648V161.494C175.648 160.65 175.466 159.972 175.101 159.458C174.754 158.945 174.266 158.565 173.637 158.316C173.024 158.068 172.321 157.944 171.526 157.944C170.384 157.944 169.466 158.2 168.77 158.714C168.075 159.21 167.728 159.922 167.728 160.849C167.728 161.461 167.877 161.958 168.175 162.338C168.472 162.719 168.895 163.034 169.441 163.282C169.987 163.514 170.641 163.72 171.402 163.903L172.693 164.225C173.703 164.44 174.605 164.738 175.399 165.119C176.21 165.483 176.856 165.988 177.336 166.634C177.816 167.263 178.056 168.09 178.056 169.116C178.056 170.143 177.799 171.036 177.286 171.798C176.773 172.559 176.045 173.155 175.101 173.585C174.175 173.999 173.082 174.206 171.824 174.206ZM185.809 173.858C185.114 173.858 184.576 173.668 184.195 173.287C183.831 172.907 183.649 172.385 183.649 171.723V163.431H179.999V161.718H183.649V157.398H185.61V161.718H189.583V163.431H185.61V171.425C185.61 171.922 185.85 172.17 186.33 172.17H189.037V173.858H185.809ZM196.411 174.206C195.567 174.206 194.797 174.057 194.102 173.759C193.407 173.461 192.861 173.031 192.464 172.468C192.066 171.905 191.868 171.218 191.868 170.407C191.868 169.58 192.066 168.901 192.464 168.372C192.861 167.825 193.407 167.42 194.102 167.155C194.797 166.874 195.575 166.733 196.436 166.733H200.533V165.839C200.533 164.978 200.276 164.3 199.763 163.803C199.266 163.307 198.522 163.058 197.529 163.058C196.552 163.058 195.791 163.298 195.244 163.778C194.698 164.242 194.326 164.871 194.127 165.665L192.29 165.069C192.489 164.391 192.803 163.778 193.233 163.232C193.664 162.669 194.235 162.223 194.946 161.892C195.675 161.544 196.544 161.37 197.553 161.37C199.109 161.37 200.317 161.776 201.178 162.587C202.039 163.381 202.469 164.507 202.469 165.963V171.45C202.469 171.947 202.701 172.195 203.164 172.195H204.282V173.858H202.569C202.022 173.858 201.584 173.709 201.253 173.412C200.922 173.097 200.756 172.683 200.756 172.17V172.046H200.458C200.276 172.36 200.028 172.692 199.713 173.039C199.415 173.37 199.002 173.643 198.472 173.858C197.942 174.09 197.255 174.206 196.411 174.206ZM196.635 172.518C197.793 172.518 198.729 172.178 199.44 171.5C200.169 170.805 200.533 169.836 200.533 168.595V168.322H196.511C195.733 168.322 195.087 168.496 194.574 168.843C194.077 169.174 193.829 169.679 193.829 170.358C193.829 171.036 194.086 171.566 194.599 171.947C195.129 172.327 195.807 172.518 196.635 172.518ZM210.637 173.858C209.942 173.858 209.404 173.668 209.023 173.287C208.659 172.907 208.477 172.385 208.477 171.723V163.431H204.827V161.718H208.477V157.398H210.438V161.718H214.41V163.431H210.438V171.425C210.438 171.922 210.678 172.17 211.158 172.17H213.864V173.858H210.637ZM222.712 174.206C221.488 174.206 220.412 173.949 219.485 173.436C218.558 172.907 217.838 172.17 217.325 171.227C216.812 170.283 216.555 169.191 216.555 167.949V167.652C216.555 166.394 216.812 165.293 217.325 164.349C217.838 163.406 218.55 162.678 219.46 162.165C220.37 161.635 221.413 161.37 222.588 161.37C223.73 161.37 224.74 161.618 225.617 162.115C226.494 162.595 227.181 163.29 227.678 164.2C228.174 165.111 228.423 166.178 228.423 167.403V168.297H218.517C218.566 169.605 218.988 170.631 219.783 171.376C220.577 172.104 221.57 172.468 222.762 172.468C223.805 172.468 224.608 172.228 225.17 171.748C225.733 171.268 226.163 170.697 226.461 170.035L228.15 170.854C227.901 171.367 227.554 171.88 227.107 172.394C226.677 172.907 226.106 173.337 225.394 173.685C224.699 174.032 223.805 174.206 222.712 174.206ZM218.541 166.683H226.437C226.37 165.558 225.981 164.68 225.27 164.052C224.574 163.423 223.681 163.108 222.588 163.108C221.479 163.108 220.569 163.423 219.857 164.052C219.146 164.68 218.707 165.558 218.541 166.683Z" fill="#FAFAFA"/>
<g clip-path="url(#clip0_1149_24117)">
<rect x="386" width="300" height="330.992" rx="16.1157" fill="white"/>
<path d="M408.559 19.9988V29.7358H406.795V19.9988H408.559ZM412.182 25.4569V29.7358H410.461V22.4331H412.106V23.674H412.192C412.36 23.2651 412.627 22.9402 412.995 22.6993C413.366 22.4584 413.824 22.338 414.369 22.338C414.873 22.338 415.312 22.4457 415.686 22.6613C416.063 22.8768 416.355 23.189 416.561 23.5979C416.77 24.0068 416.873 24.5028 416.87 25.086V29.7358H415.149V25.3523C415.149 24.8641 415.022 24.4822 414.768 24.2065C414.518 23.9307 414.171 23.7928 413.727 23.7928C413.426 23.7928 413.158 23.8594 412.924 23.9925C412.692 24.1225 412.51 24.3111 412.377 24.5583C412.247 24.8055 412.182 25.105 412.182 25.4569ZM422.334 22.4331V23.7643H418.136V22.4331H422.334ZM419.173 20.6834H420.894V27.5393C420.894 27.7707 420.929 27.9482 420.998 28.0718C421.071 28.1922 421.166 28.2746 421.284 28.319C421.401 28.3634 421.531 28.3856 421.673 28.3856C421.781 28.3856 421.88 28.3777 421.968 28.3618C422.06 28.346 422.13 28.3317 422.177 28.319L422.467 29.6645C422.376 29.6962 422.244 29.7311 422.073 29.7691C421.905 29.8072 421.699 29.8293 421.455 29.8357C421.024 29.8484 420.635 29.7834 420.29 29.6408C419.944 29.4949 419.67 29.2699 419.467 28.9656C419.268 28.6613 419.169 28.281 419.173 27.8246V20.6834ZM426.996 29.8785C426.264 29.8785 425.632 29.7263 425.099 29.422C424.57 29.1146 424.163 28.6804 423.878 28.1193C423.592 27.5551 423.45 26.8911 423.45 26.1272C423.45 25.376 423.592 24.7168 423.878 24.1494C424.166 23.5789 424.569 23.1351 425.085 22.8182C425.602 22.498 426.209 22.338 426.906 22.338C427.356 22.338 427.781 22.4109 428.18 22.5567C428.583 22.6993 428.938 22.9212 429.245 23.2223C429.556 23.5234 429.8 23.9069 429.977 24.3729C430.155 24.8356 430.244 25.3871 430.244 26.0274V26.5551H424.258V25.3951H428.594C428.591 25.0654 428.519 24.7722 428.38 24.5155C428.241 24.2556 428.046 24.0511 427.795 23.9022C427.548 23.7532 427.26 23.6787 426.93 23.6787C426.578 23.6787 426.269 23.7643 426.003 23.9355C425.737 24.1034 425.529 24.3253 425.38 24.6011C425.234 24.8737 425.16 25.1732 425.157 25.4997V26.5123C425.157 26.9371 425.234 27.3016 425.389 27.6059C425.545 27.907 425.762 28.1384 426.041 28.3C426.32 28.4585 426.646 28.5377 427.02 28.5377C427.271 28.5377 427.497 28.5029 427.7 28.4331C427.903 28.3602 428.079 28.254 428.228 28.1146C428.377 27.9751 428.489 27.8024 428.565 27.5964L430.172 27.777C430.071 28.2017 429.878 28.5726 429.592 28.8896C429.31 29.2033 428.949 29.4474 428.508 29.6217C428.068 29.7929 427.564 29.8785 426.996 29.8785ZM431.768 29.7358V22.4331H433.437V23.6502H433.513C433.646 23.2286 433.874 22.9037 434.197 22.6755C434.524 22.4442 434.896 22.3285 435.315 22.3285C435.41 22.3285 435.516 22.3332 435.633 22.3427C435.754 22.3491 435.854 22.3602 435.933 22.376V23.9592C435.86 23.9339 435.744 23.9117 435.586 23.8927C435.43 23.8705 435.28 23.8594 435.134 23.8594C434.82 23.8594 434.538 23.9275 434.288 24.0638C434.041 24.1969 433.846 24.3824 433.703 24.6201C433.56 24.8578 433.489 25.132 433.489 25.4426V29.7358H431.768ZM439.115 29.8832C438.652 29.8832 438.236 29.8008 437.865 29.636C437.497 29.468 437.205 29.2208 436.99 28.8943C436.778 28.5678 436.671 28.1653 436.671 27.6867C436.671 27.2746 436.747 26.9339 436.9 26.6645C437.052 26.3951 437.259 26.1795 437.522 26.0179C437.786 25.8562 438.082 25.7342 438.412 25.6518C438.744 25.5662 439.088 25.5044 439.443 25.4664C439.871 25.422 440.218 25.3824 440.484 25.3475C440.751 25.3095 440.944 25.2524 441.064 25.1764C441.188 25.0971 441.25 24.9751 441.25 24.8103V24.7817C441.25 24.4236 441.144 24.1462 440.931 23.9497C440.719 23.7532 440.413 23.6549 440.014 23.6549C439.592 23.6549 439.258 23.7469 439.011 23.9307C438.766 24.1145 438.602 24.3317 438.516 24.5821L436.909 24.3538C437.036 23.9101 437.245 23.5393 437.537 23.2413C437.828 22.9402 438.185 22.7152 438.606 22.5662C439.028 22.414 439.494 22.338 440.004 22.338C440.356 22.338 440.706 22.3792 441.055 22.4616C441.404 22.544 441.722 22.6803 442.011 22.8705C442.299 23.0575 442.53 23.3126 442.705 23.6359C442.882 23.9592 442.971 24.3634 442.971 24.8483V29.7358H441.316V28.7327H441.259C441.155 28.9355 441.007 29.1257 440.817 29.3032C440.63 29.4775 440.394 29.6186 440.109 29.7263C439.827 29.8309 439.496 29.8832 439.115 29.8832ZM439.562 28.6186C439.908 28.6186 440.207 28.5504 440.461 28.4141C440.714 28.2746 440.909 28.0908 441.045 27.8626C441.185 27.6344 441.255 27.3856 441.255 27.1162V26.2556C441.201 26.3 441.109 26.3412 440.979 26.3792C440.852 26.4173 440.709 26.4505 440.551 26.4791C440.393 26.5076 440.236 26.5329 440.08 26.5551C439.925 26.5773 439.79 26.5963 439.676 26.6122C439.419 26.6471 439.19 26.7041 438.987 26.7833C438.784 26.8626 438.624 26.9735 438.507 27.1162C438.389 27.2556 438.331 27.4363 438.331 27.6582C438.331 27.9751 438.446 28.2144 438.678 28.3761C438.909 28.5377 439.204 28.6186 439.562 28.6186ZM447.955 29.8785C447.226 29.8785 446.6 29.7184 446.077 29.3983C445.557 29.0781 445.156 28.636 444.874 28.0718C444.595 27.5044 444.456 26.8515 444.456 26.113C444.456 25.3713 444.599 24.7168 444.884 24.1494C445.169 23.5789 445.572 23.1351 446.091 22.8182C446.614 22.498 447.233 22.338 447.946 22.338C448.538 22.338 449.063 22.4473 449.519 22.666C449.979 22.8816 450.345 23.1874 450.618 23.5836C450.89 23.9767 451.046 24.4363 451.084 24.9624H449.439C449.372 24.6106 449.214 24.3174 448.963 24.0828C448.716 23.8451 448.385 23.7263 447.969 23.7263C447.618 23.7263 447.309 23.8213 447.042 24.0115C446.776 24.1985 446.569 24.4679 446.42 24.8198C446.274 25.1716 446.201 25.5932 446.201 26.0844C446.201 26.5821 446.274 27.01 446.42 27.3681C446.565 27.7231 446.77 27.9973 447.033 28.1907C447.299 28.3808 447.611 28.4759 447.969 28.4759C448.223 28.4759 448.45 28.4284 448.649 28.3333C448.852 28.235 449.022 28.094 449.158 27.9101C449.294 27.7263 449.388 27.5028 449.439 27.2398H451.084C451.042 27.7564 450.89 28.2144 450.627 28.6138C450.364 29.01 450.006 29.3206 449.553 29.5457C449.099 29.7675 448.567 29.8785 447.955 29.8785ZM456.212 22.4331V23.7643H452.014V22.4331H456.212ZM453.05 20.6834H454.771V27.5393C454.771 27.7707 454.806 27.9482 454.876 28.0718C454.949 28.1922 455.044 28.2746 455.161 28.319C455.278 28.3634 455.408 28.3856 455.551 28.3856C455.659 28.3856 455.757 28.3777 455.846 28.3618C455.938 28.346 456.007 28.3317 456.055 28.319L456.345 29.6645C456.253 29.6962 456.121 29.7311 455.95 29.7691C455.782 29.8072 455.576 29.8293 455.332 29.8357C454.901 29.8484 454.513 29.7834 454.167 29.6408C453.822 29.4949 453.548 29.2699 453.345 28.9656C453.145 28.6613 453.047 28.281 453.05 27.8246V20.6834ZM457.719 29.7358V22.4331H459.44V29.7358H457.719ZM458.585 21.3966C458.312 21.3966 458.077 21.3063 457.881 21.1256C457.684 20.9418 457.586 20.7215 457.586 20.4647C457.586 20.2048 457.684 19.9845 457.881 19.8039C458.077 19.62 458.312 19.5281 458.585 19.5281C458.86 19.5281 459.095 19.62 459.288 19.8039C459.485 19.9845 459.583 20.2048 459.583 20.4647C459.583 20.7215 459.485 20.9418 459.288 21.1256C459.095 21.3063 458.86 21.3966 458.585 21.3966ZM464.464 29.8785C463.751 29.8785 463.133 29.7216 462.61 29.4078C462.087 29.094 461.681 28.655 461.392 28.0908C461.107 27.5266 460.965 26.8673 460.965 26.113C460.965 25.3586 461.107 24.6977 461.392 24.1304C461.681 23.563 462.087 23.1224 462.61 22.8087C463.133 22.4949 463.751 22.338 464.464 22.338C465.177 22.338 465.795 22.4949 466.318 22.8087C466.841 23.1224 467.245 23.563 467.53 24.1304C467.819 24.6977 467.963 25.3586 467.963 26.113C467.963 26.8673 467.819 27.5266 467.53 28.0908C467.245 28.655 466.841 29.094 466.318 29.4078C465.795 29.7216 465.177 29.8785 464.464 29.8785ZM464.473 28.4997C464.86 28.4997 465.183 28.3935 465.443 28.1811C465.703 27.9656 465.897 27.6772 466.023 27.3158C466.153 26.9545 466.218 26.552 466.218 26.1082C466.218 25.6613 466.153 25.2572 466.023 24.8958C465.897 24.5313 465.703 24.2413 465.443 24.0258C465.183 23.8103 464.86 23.7025 464.473 23.7025C464.077 23.7025 463.748 23.8103 463.484 24.0258C463.225 24.2413 463.03 24.5313 462.9 24.8958C462.773 25.2572 462.709 25.6613 462.709 26.1082C462.709 26.552 462.773 26.9545 462.9 27.3158C463.03 27.6772 463.225 27.9656 463.484 28.1811C463.748 28.3935 464.077 28.4997 464.473 28.4997ZM471.213 25.4569V29.7358H469.492V22.4331H471.137V23.674H471.223C471.391 23.2651 471.659 22.9402 472.026 22.6993C472.397 22.4584 472.855 22.338 473.4 22.338C473.904 22.338 474.343 22.4457 474.717 22.6613C475.094 22.8768 475.386 23.189 475.592 23.5979C475.801 24.0068 475.904 24.5028 475.901 25.086V29.7358H474.18V25.3523C474.18 24.8641 474.053 24.4822 473.8 24.2065C473.549 23.9307 473.202 23.7928 472.758 23.7928C472.457 23.7928 472.189 23.8594 471.955 23.9925C471.723 24.1225 471.541 24.3111 471.408 24.5583C471.278 24.8055 471.213 25.105 471.213 25.4569Z" fill="black" fill-opacity="0.9"/>
<path fill-rule="evenodd" clip-rule="evenodd" d="M667.29 18.7094C667.343 18.7622 667.385 18.8249 667.414 18.8939C667.443 18.9629 667.457 19.0369 667.457 19.1117C667.457 19.1864 667.443 19.2604 667.414 19.3294C667.385 19.3985 667.343 19.4612 667.29 19.514L662.01 24.7935L667.29 30.073C667.397 30.1797 667.457 30.3244 667.457 30.4753C667.457 30.6262 667.397 30.7709 667.29 30.8776C667.184 30.9843 667.039 31.0442 666.888 31.0442C666.737 31.0442 666.593 30.9843 666.486 30.8776L661.206 25.5969L655.927 30.8776C655.82 30.9843 655.675 31.0442 655.524 31.0442C655.374 31.0442 655.229 30.9843 655.122 30.8776C655.016 30.7709 654.956 30.6262 654.956 30.4753C654.956 30.3244 655.016 30.1797 655.122 30.073L660.403 24.7935L655.122 19.514C655.016 19.4073 654.956 19.2626 654.956 19.1118C654.956 18.9611 655.016 18.8165 655.123 18.71C655.229 18.6034 655.374 18.5436 655.525 18.5437C655.676 18.5439 655.82 18.6039 655.927 18.7105L661.206 23.9901L666.486 18.7094C666.539 18.6565 666.601 18.6145 666.67 18.5859C666.739 18.5572 666.813 18.5425 666.888 18.5425C666.963 18.5425 667.037 18.5572 667.106 18.5859C667.175 18.6145 667.238 18.6565 667.29 18.7094Z" fill="black" fill-opacity="0.9"/>
<path fill-rule="evenodd" clip-rule="evenodd" d="M631.454 17.9756C631.605 17.9756 631.75 18.0354 631.856 18.142C631.963 18.2486 632.023 18.3931 632.023 18.5438V24.2256H637.704C637.855 24.2256 638 24.2854 638.106 24.392C638.213 24.4986 638.273 24.6431 638.273 24.7938C638.273 24.9445 638.213 25.089 638.106 25.1955C638 25.3021 637.855 25.3619 637.704 25.3619H632.023V31.0438C632.023 31.1945 631.963 31.339 631.856 31.4455C631.75 31.5521 631.605 31.6119 631.454 31.6119C631.304 31.6119 631.159 31.5521 631.053 31.4455C630.946 31.339 630.886 31.1945 630.886 31.0438V25.3619H625.204C625.054 25.3619 624.909 25.3021 624.803 25.1955C624.696 25.089 624.636 24.9445 624.636 24.7938C624.636 24.6431 624.696 24.4986 624.803 24.392C624.909 24.2854 625.054 24.2256 625.204 24.2256H630.886V18.5438C630.886 18.3931 630.946 18.2486 631.053 18.142C631.159 18.0354 631.304 17.9756 631.454 17.9756Z" fill="black" fill-opacity="0.9"/>
<path d="M406.424 75.8089V74.5442H413.96V75.8089H410.922V84.2812H409.457V75.8089H406.424ZM414.821 84.2812V76.9785H416.195V78.1385H416.271C416.404 77.7455 416.639 77.4365 416.974 77.2114C417.314 76.9832 417.697 76.8691 418.125 76.8691C418.214 76.8691 418.318 76.8723 418.439 76.8786C418.562 76.885 418.659 76.8929 418.729 76.9024V78.2622C418.672 78.2463 418.57 78.2289 418.425 78.2099C418.279 78.1877 418.133 78.1766 417.987 78.1766C417.651 78.1766 417.352 78.2479 417.089 78.3905C416.829 78.53 416.623 78.7249 416.471 78.9753C416.318 79.2226 416.242 79.5046 416.242 79.8216V84.2812H414.821ZM420.027 84.2812V76.9785H421.449V84.2812H420.027ZM420.745 75.8517C420.498 75.8517 420.286 75.7693 420.108 75.6044C419.934 75.4365 419.847 75.2368 419.847 75.0054C419.847 74.7708 419.934 74.5712 420.108 74.4063C420.286 74.2383 420.498 74.1543 420.745 74.1543C420.992 74.1543 421.203 74.2383 421.378 74.4063C421.555 74.5712 421.644 74.7708 421.644 75.0054C421.644 75.2368 421.555 75.4365 421.378 75.6044C421.203 75.7693 420.992 75.8517 420.745 75.8517ZM426.491 87.1719C425.911 87.1719 425.412 87.0959 424.994 86.9437C424.578 86.7916 424.239 86.5903 423.976 86.3399C423.713 86.0895 423.517 85.8153 423.387 85.5174L424.609 85.0134C424.694 85.1529 424.808 85.3003 424.951 85.4556C425.097 85.6141 425.293 85.7488 425.54 85.8597C425.791 85.9707 426.113 86.0261 426.506 86.0261C427.044 86.0261 427.49 85.8946 427.842 85.6315C428.193 85.3716 428.369 84.9564 428.369 84.3858V82.95H428.279C428.193 83.1053 428.07 83.2781 427.908 83.4682C427.75 83.6584 427.531 83.8232 427.252 83.9627C426.973 84.1022 426.61 84.1719 426.163 84.1719C425.586 84.1719 425.067 84.0372 424.604 83.7678C424.144 83.4952 423.78 83.0942 423.51 82.5649C423.244 82.0324 423.111 81.3779 423.111 80.6013C423.111 79.8248 423.242 79.1592 423.506 78.6045C423.772 78.0498 424.136 77.6251 424.599 77.3303C425.062 77.0324 425.586 76.8834 426.173 76.8834C426.626 76.8834 426.992 76.9595 427.271 77.1116C427.55 77.2606 427.767 77.4349 427.922 77.6346C428.081 77.8343 428.203 78.0102 428.288 78.1623H428.393V76.9785H429.786V84.4429C429.786 85.0705 429.64 85.5855 429.349 85.9881C429.057 86.3906 428.663 86.6886 428.165 86.8819C427.67 87.0753 427.113 87.1719 426.491 87.1719ZM426.477 82.9928C426.886 82.9928 427.231 82.8977 427.514 82.7075C427.799 82.5142 428.014 82.2384 428.16 81.8803C428.309 81.5189 428.384 81.0863 428.384 80.5823C428.384 80.091 428.311 79.6584 428.165 79.2844C428.019 78.9103 427.805 78.6187 427.523 78.4095C427.241 78.1972 426.892 78.091 426.477 78.091C426.049 78.091 425.693 78.2019 425.407 78.4238C425.122 78.6425 424.907 78.9405 424.761 79.3176C424.618 79.6948 424.547 80.1164 424.547 80.5823C424.547 81.0609 424.62 81.4809 424.765 81.8422C424.911 82.2036 425.127 82.4857 425.412 82.6885C425.701 82.8914 426.055 82.9928 426.477 82.9928ZM434.823 87.1719C434.243 87.1719 433.743 87.0959 433.325 86.9437C432.91 86.7916 432.571 86.5903 432.308 86.3399C432.045 86.0895 431.848 85.8153 431.718 85.5174L432.94 85.0134C433.026 85.1529 433.14 85.3003 433.282 85.4556C433.428 85.6141 433.625 85.7488 433.872 85.8597C434.122 85.9707 434.444 86.0261 434.837 86.0261C435.376 86.0261 435.821 85.8946 436.173 85.6315C436.525 85.3716 436.701 84.9564 436.701 84.3858V82.95H436.61C436.525 83.1053 436.401 83.2781 436.239 83.4682C436.081 83.6584 435.862 83.8232 435.583 83.9627C435.304 84.1022 434.942 84.1719 434.495 84.1719C433.918 84.1719 433.398 84.0372 432.935 83.7678C432.476 83.4952 432.111 83.0942 431.842 82.5649C431.575 82.0324 431.442 81.3779 431.442 80.6013C431.442 79.8248 431.574 79.1592 431.837 78.6045C432.103 78.0498 432.468 77.6251 432.93 77.3303C433.393 77.0324 433.918 76.8834 434.504 76.8834C434.957 76.8834 435.323 76.9595 435.602 77.1116C435.881 77.2606 436.098 77.4349 436.254 77.6346C436.412 77.8343 436.534 78.0102 436.62 78.1623H436.724V76.9785H438.117V84.4429C438.117 85.0705 437.972 85.5855 437.68 85.9881C437.388 86.3906 436.994 86.6886 436.496 86.8819C436.002 87.0753 435.444 87.1719 434.823 87.1719ZM434.808 82.9928C435.217 82.9928 435.563 82.8977 435.845 82.7075C436.13 82.5142 436.346 82.2384 436.491 81.8803C436.64 81.5189 436.715 81.0863 436.715 80.5823C436.715 80.091 436.642 79.6584 436.496 79.2844C436.35 78.9103 436.136 78.6187 435.854 78.4095C435.572 78.1972 435.224 78.091 434.808 78.091C434.381 78.091 434.024 78.2019 433.739 78.4238C433.453 78.6425 433.238 78.9405 433.092 79.3176C432.949 79.6948 432.878 80.1164 432.878 80.5823C432.878 81.0609 432.951 81.4809 433.097 81.8422C433.243 82.2036 433.458 82.4857 433.743 82.6885C434.032 82.8914 434.387 82.9928 434.808 82.9928ZM443.24 84.4286C442.52 84.4286 441.9 84.2749 441.381 83.9675C440.864 83.6568 440.465 83.221 440.183 82.66C439.904 82.0958 439.764 81.4349 439.764 80.6774C439.764 79.9294 439.904 79.2701 440.183 78.6996C440.465 78.129 440.858 77.6837 441.362 77.3636C441.869 77.0434 442.461 76.8834 443.14 76.8834C443.552 76.8834 443.951 76.9515 444.338 77.0878C444.725 77.2241 445.072 77.4381 445.379 77.7297C445.687 78.0213 445.929 78.4 446.107 78.866C446.284 79.3287 446.373 79.8913 446.373 80.5538V81.0578H440.568V79.9928H444.98C444.98 79.6188 444.904 79.2875 444.752 78.9991C444.599 78.7075 444.385 78.4777 444.11 78.3097C443.837 78.1417 443.517 78.0577 443.149 78.0577C442.75 78.0577 442.401 78.156 442.103 78.3525C441.809 78.5458 441.58 78.7994 441.419 79.1132C441.26 79.4238 441.181 79.7614 441.181 80.1259V80.9579C441.181 81.446 441.267 81.8613 441.438 82.2036C441.612 82.5459 441.854 82.8074 442.165 82.988C442.476 83.1655 442.839 83.2543 443.254 83.2543C443.523 83.2543 443.769 83.2163 443.991 83.1402C444.213 83.061 444.404 82.9437 444.566 82.7884C444.728 82.6331 444.851 82.4413 444.937 82.2131L446.282 82.4556C446.175 82.8518 445.981 83.1988 445.702 83.4968C445.427 83.7915 445.08 84.0213 444.661 84.1862C444.246 84.3478 443.772 84.4286 443.24 84.4286ZM448.018 84.2812V76.9785H449.392V78.1385H449.468C449.601 77.7455 449.836 77.4365 450.172 77.2114C450.511 76.9832 450.895 76.8691 451.323 76.8691C451.411 76.8691 451.516 76.8723 451.636 76.8786C451.76 76.885 451.857 76.8929 451.926 76.9024V78.2622C451.869 78.2463 451.768 78.2289 451.622 78.2099C451.476 78.1877 451.33 78.1766 451.185 78.1766C450.849 78.1766 450.549 78.2479 450.286 78.3905C450.026 78.53 449.82 78.7249 449.668 78.9753C449.516 79.2226 449.44 79.5046 449.44 79.8216V84.2812H448.018Z" fill="black" fill-opacity="0.5"/>
<rect x="496.529" y="65.0827" width="169.004" height="28.5124" rx="5.57851" fill="white"/>
<rect x="496.529" y="65.0827" width="169.004" height="28.5124" rx="5.57851" stroke="#E6E6E6" stroke-width="1.23967"/>
<path fill-rule="evenodd" clip-rule="evenodd" d="M512.025 71.9013C511.532 71.9013 511.059 72.0972 510.71 72.4459C510.361 72.7947 510.165 73.2676 510.165 73.7608C510.165 74.254 510.361 74.7269 510.71 75.0757C511.059 75.4244 511.532 75.6203 512.025 75.6203C512.518 75.6203 512.991 75.4244 513.34 75.0757C513.688 74.7269 513.884 74.254 513.884 73.7608C513.884 73.2676 513.688 72.7947 513.34 72.4459C512.991 72.0972 512.518 71.9013 512.025 71.9013ZM508.926 73.7608C508.926 72.9388 509.252 72.1506 509.833 71.5693C510.415 70.9881 511.203 70.6616 512.025 70.6616C512.847 70.6616 513.635 70.9881 514.216 71.5693C514.798 72.1506 515.124 72.9388 515.124 73.7608C515.124 74.5827 514.798 75.371 514.216 75.9522C513.635 76.5334 512.847 76.86 512.025 76.86C511.203 76.86 510.415 76.5334 509.833 75.9522C509.252 75.371 508.926 74.5827 508.926 73.7608ZM504.587 83.8058V84.298C504.587 84.4914 504.686 84.7443 505.017 85.0455C505.348 85.3467 505.862 85.6467 506.549 85.9108C507.922 86.4377 509.855 86.7773 512.025 86.7773C514.194 86.7773 516.129 86.4377 517.5 85.9108C518.187 85.6467 518.702 85.3467 519.033 85.0455C519.364 84.7443 519.463 84.4914 519.463 84.298V83.8058C519.036 84.1071 518.521 84.3674 517.946 84.5881C516.4 85.1831 514.306 85.5377 512.025 85.5377C509.744 85.5377 507.65 85.1831 506.104 84.5881C505.569 84.3896 505.059 84.1269 504.587 83.8058ZM504.587 81.8186C504.587 82.012 504.686 82.2649 505.017 82.5662C505.348 82.8674 505.862 83.1674 506.549 83.4315C507.922 83.9583 509.855 84.298 512.025 84.298C514.194 84.298 516.129 83.9583 517.5 83.4315C518.187 83.1674 518.702 82.8674 519.033 82.5662C519.364 82.2649 519.463 82.012 519.463 81.8186C519.463 81.6253 519.364 81.3724 519.033 81.0711C518.702 80.7699 518.187 80.4699 517.5 80.2058C516.128 79.679 514.194 79.3393 512.025 79.3393C509.855 79.3393 507.92 79.679 506.549 80.2058C505.862 80.4699 505.348 80.7699 505.017 81.0711C504.686 81.3724 504.587 81.6253 504.587 81.8186ZM503.347 81.8186C503.347 81.1567 503.699 80.5939 504.183 80.1538C504.666 79.7137 505.334 79.3455 506.104 79.0492C507.65 78.4542 509.744 78.0996 512.025 78.0996C514.306 78.0996 516.4 78.4542 517.946 79.0492C518.715 79.3455 519.382 79.7137 519.867 80.1538C520.35 80.5939 520.703 81.1567 520.703 81.8186V84.298C520.703 84.9612 520.35 85.5228 519.867 85.9629C519.384 86.4029 518.715 86.7711 517.946 87.0674C516.4 87.6624 514.306 88.017 512.025 88.017C509.744 88.017 507.65 87.6624 506.104 87.0674C505.334 86.7711 504.667 86.4029 504.183 85.9629C503.699 85.5228 503.347 84.9612 503.347 84.298V81.8186Z" fill="black" fill-opacity="0.5"/>
<path d="M529.877 83.6616L527.177 73.9246H528.722L530.619 81.4651H530.709L532.682 73.9246H534.213L536.186 81.4698H536.277L538.169 73.9246H539.719L537.014 83.6616H535.535L533.486 76.3683H533.41L531.361 83.6616H529.877ZM542.434 79.3256V83.6616H541.012V73.9246H542.415V77.5474H542.505C542.676 77.1544 542.938 76.8422 543.29 76.6108C543.642 76.3794 544.101 76.2638 544.669 76.2638C545.169 76.2638 545.607 76.3668 545.981 76.5728C546.358 76.7788 546.65 77.0863 546.856 77.4951C547.065 77.9009 547.169 78.408 547.169 79.0166V83.6616H545.748V79.1877C545.748 78.6521 545.61 78.2368 545.334 77.9421C545.058 77.6441 544.675 77.4951 544.184 77.4951C543.848 77.4951 543.547 77.5665 543.28 77.7091C543.017 77.8517 542.81 78.0609 542.657 78.3367C542.508 78.6093 542.434 78.9389 542.434 79.3256ZM549.135 83.6616V76.3588H550.556V83.6616H549.135ZM549.852 75.232C549.605 75.232 549.393 75.1496 549.215 74.9848C549.041 74.8168 548.954 74.6171 548.954 74.3858C548.954 74.1512 549.041 73.9515 549.215 73.7867C549.393 73.6187 549.605 73.5347 549.852 73.5347C550.1 73.5347 550.31 73.6187 550.485 73.7867C550.662 73.9515 550.751 74.1512 550.751 74.3858C550.751 74.6171 550.662 74.8168 550.485 74.9848C550.31 75.1496 550.1 75.232 549.852 75.232ZM553.958 73.9246V83.6616H552.537V73.9246H553.958ZM559.086 83.809C558.367 83.809 557.747 83.6553 557.227 83.3478C556.711 83.0372 556.311 82.6014 556.029 82.0404C555.75 81.4762 555.611 80.8153 555.611 80.0578C555.611 79.3097 555.75 78.6505 556.029 78.0799C556.311 77.5094 556.704 77.0641 557.208 76.7439C557.716 76.4238 558.308 76.2638 558.987 76.2638C559.399 76.2638 559.798 76.3319 560.185 76.4682C560.571 76.6045 560.918 76.8184 561.226 77.11C561.533 77.4016 561.776 77.7804 561.953 78.2463C562.131 78.7091 562.22 79.2717 562.22 79.9342V80.4381H556.414V79.3731H560.827C560.827 78.9991 560.75 78.6679 560.598 78.3795C560.446 78.0879 560.232 77.8581 559.956 77.6901C559.684 77.5221 559.364 77.4381 558.996 77.4381C558.597 77.4381 558.248 77.5364 557.95 77.7329C557.655 77.9262 557.427 78.1798 557.265 78.4936C557.107 78.8042 557.028 79.1418 557.028 79.5063V80.3383C557.028 80.8264 557.113 81.2416 557.285 81.5839C557.459 81.9263 557.701 82.1878 558.012 82.3684C558.323 82.5459 558.685 82.6347 559.101 82.6347C559.37 82.6347 559.616 82.5966 559.838 82.5206C560.059 82.4413 560.251 82.324 560.413 82.1687C560.575 82.0134 560.698 81.8217 560.784 81.5935L562.129 81.8359C562.021 82.2321 561.828 82.5792 561.549 82.8771C561.273 83.1719 560.926 83.4017 560.508 83.5665C560.093 83.7282 559.619 83.809 559.086 83.809ZM568.898 79.3256V83.6616H567.476V73.9246H568.879V77.5474H568.969C569.14 77.1544 569.402 76.8422 569.754 76.6108C570.106 76.3794 570.565 76.2638 571.133 76.2638C571.633 76.2638 572.071 76.3668 572.445 76.5728C572.822 76.7788 573.114 77.0863 573.32 77.4951C573.529 77.9009 573.633 78.408 573.633 79.0166V83.6616H572.212V79.1877C572.212 78.6521 572.074 78.2368 571.798 77.9421C571.522 77.6441 571.139 77.4951 570.648 77.4951C570.312 77.4951 570.011 77.5665 569.744 77.7091C569.481 77.8517 569.274 78.0609 569.121 78.3367C568.973 78.6093 568.898 78.9389 568.898 79.3256ZM578.675 83.809C577.99 83.809 577.393 83.6521 576.882 83.3383C576.372 83.0245 575.976 82.5855 575.694 82.0213C575.412 81.4572 575.271 80.7979 575.271 80.0435C575.271 79.286 575.412 78.6235 575.694 78.0562C575.976 77.4888 576.372 77.0482 576.882 76.7344C577.393 76.4206 577.99 76.2638 578.675 76.2638C579.359 76.2638 579.957 76.4206 580.467 76.7344C580.977 77.0482 581.374 77.4888 581.656 78.0562C581.938 78.6235 582.079 79.286 582.079 80.0435C582.079 80.7979 581.938 81.4572 581.656 82.0213C581.374 82.5855 580.977 83.0245 580.467 83.3383C579.957 83.6521 579.359 83.809 578.675 83.809ZM578.679 82.6156C579.123 82.6156 579.491 82.4984 579.782 82.2638C580.074 82.0293 580.29 81.7171 580.429 81.3272C580.572 80.9373 580.643 80.5079 580.643 80.0388C580.643 79.5728 580.572 79.1449 580.429 78.7551C580.29 78.362 580.074 78.0467 579.782 77.8089C579.491 77.5712 579.123 77.4524 578.679 77.4524C578.233 77.4524 577.862 77.5712 577.567 77.8089C577.275 78.0467 577.058 78.362 576.916 78.7551C576.776 79.1449 576.706 79.5728 576.706 80.0388C576.706 80.5079 576.776 80.9373 576.916 81.3272C577.058 81.7171 577.275 82.0293 577.567 82.2638C577.862 82.4984 578.233 82.6156 578.679 82.6156ZM589.733 76.3588L587.085 83.6616H585.563L582.91 76.3588H584.436L586.286 81.9786H586.362L588.207 76.3588H589.733ZM594.036 83.809C593.316 83.809 592.697 83.6553 592.177 83.3478C591.66 83.0372 591.261 82.6014 590.979 82.0404C590.7 81.4762 590.56 80.8153 590.56 80.0578C590.56 79.3097 590.7 78.6505 590.979 78.0799C591.261 77.5094 591.654 77.0641 592.158 76.7439C592.665 76.4238 593.258 76.2638 593.936 76.2638C594.348 76.2638 594.747 76.3319 595.134 76.4682C595.521 76.6045 595.868 76.8184 596.175 77.11C596.483 77.4016 596.725 77.7804 596.903 78.2463C597.08 78.7091 597.169 79.2717 597.169 79.9342V80.4381H591.364V79.3731H595.776C595.776 78.9991 595.7 78.6679 595.548 78.3795C595.396 78.0879 595.182 77.8581 594.906 77.6901C594.633 77.5221 594.313 77.4381 593.946 77.4381C593.546 77.4381 593.198 77.5364 592.9 77.7329C592.605 77.9262 592.377 78.1798 592.215 78.4936C592.056 78.8042 591.977 79.1418 591.977 79.5063V80.3383C591.977 80.8264 592.063 81.2416 592.234 81.5839C592.408 81.9263 592.651 82.1878 592.961 82.3684C593.272 82.5459 593.635 82.6347 594.05 82.6347C594.32 82.6347 594.565 82.5966 594.787 82.5206C595.009 82.4413 595.201 82.324 595.362 82.1687C595.524 82.0134 595.648 81.8217 595.733 81.5935L597.079 81.8359C596.971 82.2321 596.778 82.5792 596.499 82.8771C596.223 83.1719 595.876 83.4017 595.457 83.5665C595.042 83.7282 594.568 83.809 594.036 83.809ZM598.815 83.6616V76.3588H600.189V77.5189H600.265C600.398 77.1259 600.632 76.8168 600.968 76.5918C601.307 76.3636 601.691 76.2495 602.119 76.2495C602.208 76.2495 602.312 76.2527 602.433 76.259C602.556 76.2653 602.653 76.2733 602.723 76.2828V77.6425C602.666 77.6267 602.564 77.6093 602.418 77.5902C602.273 77.568 602.127 77.557 601.981 77.557C601.645 77.557 601.345 77.6283 601.082 77.7709C600.822 77.9104 600.616 78.1053 600.464 78.3557C600.312 78.6029 600.236 78.885 600.236 79.202V83.6616H598.815ZM604.021 83.6616V76.3588H605.443V83.6616H604.021ZM604.739 75.232C604.492 75.232 604.279 75.1496 604.102 74.9848C603.928 74.8168 603.84 74.6171 603.84 74.3858C603.84 74.1512 603.928 73.9515 604.102 73.7867C604.279 73.6187 604.492 73.5347 604.739 73.5347C604.986 73.5347 605.197 73.6187 605.371 73.7867C605.549 73.9515 605.638 74.1512 605.638 74.3858C605.638 74.6171 605.549 74.8168 605.371 74.9848C605.197 75.1496 604.986 75.232 604.739 75.232ZM608.845 79.3256V83.6616H607.423V76.3588H608.788V77.5474H608.878C609.046 77.1608 609.309 76.8501 609.667 76.6156C610.029 76.381 610.484 76.2638 611.032 76.2638C611.529 76.2638 611.965 76.3683 612.339 76.5775C612.713 76.7836 613.003 77.091 613.209 77.4999C613.415 77.9088 613.518 78.4143 613.518 79.0166V83.6616H612.097V79.1877C612.097 78.6584 611.959 78.2448 611.683 77.9468C611.407 77.6457 611.029 77.4951 610.547 77.4951C610.217 77.4951 609.924 77.5665 609.667 77.7091C609.414 77.8517 609.212 78.0609 609.064 78.3367C608.918 78.6093 608.845 78.9389 608.845 79.3256ZM618.555 86.5523C617.975 86.5523 617.476 86.4762 617.057 86.3241C616.642 86.172 616.303 85.9707 616.04 85.7203C615.777 85.4699 615.58 85.1957 615.45 84.8978L616.672 84.3938C616.758 84.5333 616.872 84.6807 617.015 84.836C617.16 84.9944 617.357 85.1292 617.604 85.2401C617.854 85.351 618.176 85.4065 618.569 85.4065C619.108 85.4065 619.553 85.275 619.905 85.0119C620.257 84.752 620.433 84.3367 620.433 83.7662V82.3304H620.343C620.257 82.4857 620.133 82.6584 619.972 82.8486C619.813 83.0388 619.595 83.2036 619.316 83.3431C619.037 83.4825 618.674 83.5523 618.227 83.5523C617.65 83.5523 617.13 83.4176 616.667 83.1481C616.208 82.8756 615.843 82.4746 615.574 81.9453C615.308 81.4128 615.175 80.7583 615.175 79.9817C615.175 79.2051 615.306 78.5395 615.569 77.9849C615.835 77.4302 616.2 77.0054 616.663 76.7107C617.125 76.4127 617.65 76.2638 618.236 76.2638C618.69 76.2638 619.056 76.3398 619.335 76.492C619.614 76.6409 619.831 76.8153 619.986 77.0149C620.145 77.2146 620.267 77.3905 620.352 77.5427H620.457V76.3588H621.85V83.8233C621.85 84.4509 621.704 84.9659 621.412 85.3685C621.121 85.771 620.726 86.0689 620.229 86.2623C619.734 86.4556 619.176 86.5523 618.555 86.5523ZM618.541 82.3732C618.95 82.3732 619.295 82.2781 619.577 82.0879C619.862 81.8946 620.078 81.6188 620.224 81.2606C620.373 80.8993 620.447 80.4667 620.447 79.9627C620.447 79.4714 620.374 79.0387 620.229 78.6647C620.083 78.2907 619.869 77.9991 619.587 77.7899C619.305 77.5776 618.956 77.4714 618.541 77.4714C618.113 77.4714 617.756 77.5823 617.471 77.8042C617.186 78.0229 616.97 78.3208 616.824 78.698C616.682 79.0752 616.61 79.4968 616.61 79.9627C616.61 80.4413 616.683 80.8613 616.829 81.2226C616.975 81.5839 617.19 81.866 617.476 82.0689C617.764 82.2717 618.119 82.3732 618.541 82.3732Z" fill="black" fill-opacity="0.9"/>
<path fill-rule="evenodd" clip-rule="evenodd" d="M647.119 77.6606C647.177 77.6029 647.245 77.5571 647.32 77.5258C647.396 77.4946 647.476 77.4785 647.558 77.4785C647.639 77.4785 647.72 77.4946 647.796 77.5258C647.871 77.5571 647.939 77.6029 647.997 77.6606L650.037 79.7024L652.078 77.6606C652.135 77.603 652.204 77.5573 652.279 77.5261C652.354 77.4949 652.435 77.4788 652.517 77.4788C652.598 77.4788 652.679 77.4949 652.754 77.5261C652.829 77.5573 652.898 77.603 652.955 77.6606C653.013 77.7182 653.059 77.7867 653.09 77.862C653.121 77.9373 653.137 78.018 653.137 78.0995C653.137 78.181 653.121 78.2617 653.09 78.337C653.059 78.4123 653.013 78.4807 652.955 78.5383L650.476 81.0176C650.419 81.0754 650.35 81.1212 650.275 81.1524C650.2 81.1837 650.119 81.1997 650.037 81.1997C649.956 81.1997 649.875 81.1837 649.8 81.1524C649.724 81.1212 649.656 81.0754 649.598 81.0176L647.119 78.5383C647.061 78.4807 647.016 78.4123 646.984 78.337C646.953 78.2617 646.937 78.181 646.937 78.0995C646.937 78.0179 646.953 77.9372 646.984 77.8619C647.016 77.7866 647.061 77.7182 647.119 77.6606Z" fill="black" fill-opacity="0.9"/>
<path d="M407.727 145.025H406.167L409.671 135.288H411.369L414.873 145.025H413.313L410.56 137.057H410.484L407.727 145.025ZM407.988 141.212H413.047V142.448H407.988V141.212ZM419.191 145.173C418.484 145.173 417.876 145.013 417.366 144.693C416.858 144.369 416.469 143.924 416.196 143.357C415.923 142.789 415.787 142.139 415.787 141.407C415.787 140.666 415.927 140.011 416.205 139.444C416.484 138.873 416.877 138.428 417.385 138.108C417.892 137.788 418.489 137.628 419.177 137.628C419.732 137.628 420.226 137.731 420.66 137.937C421.095 138.139 421.445 138.425 421.711 138.792C421.98 139.16 422.141 139.59 422.191 140.081H420.808C420.732 139.738 420.557 139.444 420.285 139.196C420.015 138.949 419.654 138.826 419.201 138.826C418.805 138.826 418.457 138.93 418.16 139.139C417.865 139.345 417.635 139.64 417.47 140.024C417.305 140.404 417.223 140.854 417.223 141.374C417.223 141.906 417.304 142.366 417.465 142.753C417.627 143.139 417.855 143.439 418.15 143.651C418.448 143.864 418.798 143.97 419.201 143.97C419.47 143.97 419.714 143.921 419.933 143.823C420.155 143.721 420.34 143.577 420.489 143.39C420.641 143.203 420.748 142.978 420.808 142.715H422.191C422.141 143.187 421.987 143.609 421.73 143.979C421.473 144.35 421.129 144.642 420.698 144.854C420.27 145.067 419.768 145.173 419.191 145.173ZM427.189 137.723V138.864H423.2V137.723H427.189ZM424.269 135.973H425.691V142.881C425.691 143.157 425.732 143.365 425.815 143.504C425.897 143.64 426.003 143.734 426.133 143.784C426.266 143.832 426.41 143.856 426.566 143.856C426.68 143.856 426.78 143.848 426.865 143.832C426.951 143.816 427.017 143.804 427.065 143.794L427.322 144.968C427.239 145 427.122 145.032 426.97 145.063C426.818 145.098 426.628 145.117 426.399 145.12C426.025 145.127 425.677 145.06 425.353 144.921C425.03 144.781 424.769 144.566 424.569 144.274C424.369 143.983 424.269 143.616 424.269 143.176V135.973ZM428.829 145.025V137.723H430.251V145.025H428.829ZM429.547 136.596C429.3 136.596 429.088 136.513 428.91 136.349C428.736 136.181 428.649 135.981 428.649 135.75C428.649 135.515 428.736 135.315 428.91 135.15C429.088 134.982 429.3 134.898 429.547 134.898C429.794 134.898 430.005 134.982 430.18 135.15C430.357 135.315 430.446 135.515 430.446 135.75C430.446 135.981 430.357 136.181 430.18 136.349C430.005 136.513 429.794 136.596 429.547 136.596ZM435.308 145.173C434.623 145.173 434.026 145.016 433.515 144.702C433.005 144.388 432.609 143.949 432.327 143.385C432.045 142.821 431.903 142.162 431.903 141.407C431.903 140.65 432.045 139.987 432.327 139.42C432.609 138.853 433.005 138.412 433.515 138.098C434.026 137.784 434.623 137.628 435.308 137.628C435.992 137.628 436.59 137.784 437.1 138.098C437.61 138.412 438.007 138.853 438.289 139.42C438.571 139.987 438.712 140.65 438.712 141.407C438.712 142.162 438.571 142.821 438.289 143.385C438.007 143.949 437.61 144.388 437.1 144.702C436.59 145.016 435.992 145.173 435.308 145.173ZM435.312 143.979C435.756 143.979 436.124 143.862 436.415 143.628C436.707 143.393 436.923 143.081 437.062 142.691C437.205 142.301 437.276 141.872 437.276 141.403C437.276 140.937 437.205 140.509 437.062 140.119C436.923 139.726 436.707 139.41 436.415 139.173C436.124 138.935 435.756 138.816 435.312 138.816C434.865 138.816 434.495 138.935 434.2 139.173C433.908 139.41 433.691 139.726 433.548 140.119C433.409 140.509 433.339 140.937 433.339 141.403C433.339 141.872 433.409 142.301 433.548 142.691C433.691 143.081 433.908 143.393 434.2 143.628C434.495 143.862 434.865 143.979 435.312 143.979ZM441.788 140.689V145.025H440.367V137.723H441.731V138.911H441.822C441.99 138.525 442.253 138.214 442.611 137.979C442.972 137.745 443.427 137.628 443.975 137.628C444.473 137.628 444.909 137.732 445.283 137.941C445.657 138.147 445.947 138.455 446.153 138.864C446.359 139.273 446.462 139.778 446.462 140.38V145.025H445.04V140.551C445.04 140.022 444.902 139.609 444.627 139.311C444.351 139.009 443.972 138.859 443.49 138.859C443.161 138.859 442.868 138.93 442.611 139.073C442.357 139.215 442.156 139.425 442.007 139.7C441.861 139.973 441.788 140.303 441.788 140.689Z" fill="black" fill-opacity="0.5"/>
<rect x="496.529" y="125.827" width="169.004" height="28.5124" rx="5.57851" fill="white"/>
<rect x="496.529" y="125.827" width="169.004" height="28.5124" rx="5.57851" stroke="#E6E6E6" stroke-width="1.23967"/>
<path fill-rule="evenodd" clip-rule="evenodd" d="M516.813 136.145C516.034 135.199 514.992 134.504 513.818 134.149C512.645 133.795 511.393 133.796 510.22 134.153C509.047 134.51 508.007 135.207 507.23 136.155C506.453 137.104 505.975 138.261 505.856 139.481C505.848 139.562 505.825 139.641 505.786 139.713C505.748 139.785 505.696 139.848 505.633 139.9C505.57 139.952 505.498 139.991 505.42 140.014C505.342 140.038 505.26 140.046 505.179 140.038C505.098 140.031 505.019 140.007 504.947 139.968C504.875 139.93 504.812 139.878 504.76 139.815C504.708 139.752 504.669 139.68 504.646 139.602C504.622 139.524 504.614 139.442 504.622 139.361C504.77 137.832 505.389 136.387 506.393 135.223C507.396 134.06 508.735 133.236 510.226 132.864C511.716 132.493 513.285 132.592 514.717 133.148C516.149 133.704 517.374 134.69 518.223 135.97V133.264C518.223 133.1 518.289 132.942 518.405 132.826C518.521 132.71 518.679 132.644 518.843 132.644C519.008 132.644 519.165 132.71 519.281 132.826C519.398 132.942 519.463 133.1 519.463 133.264V136.983C519.463 137.148 519.398 137.305 519.281 137.422C519.165 137.538 519.008 137.603 518.843 137.603H515.124C514.96 137.603 514.802 137.538 514.686 137.422C514.57 137.305 514.504 137.148 514.504 136.983C514.504 136.819 514.57 136.661 514.686 136.545C514.802 136.429 514.96 136.363 515.124 136.363H516.984C516.928 136.289 516.871 136.217 516.813 136.145ZM518.87 140.127C518.951 140.135 519.03 140.159 519.102 140.197C519.174 140.235 519.238 140.287 519.29 140.35C519.341 140.413 519.38 140.485 519.404 140.563C519.428 140.641 519.436 140.723 519.428 140.804C519.279 142.333 518.661 143.778 517.657 144.942C516.654 146.105 515.315 146.929 513.824 147.301C512.334 147.672 510.764 147.573 509.332 147.017C507.9 146.461 506.676 145.475 505.827 144.194V146.901C505.827 147.065 505.761 147.223 505.645 147.339C505.529 147.455 505.371 147.52 505.207 147.52C505.042 147.52 504.885 147.455 504.768 147.339C504.652 147.223 504.587 147.065 504.587 146.901V143.182C504.587 143.017 504.652 142.86 504.768 142.743C504.885 142.627 505.042 142.562 505.207 142.562H508.926C509.09 142.562 509.248 142.627 509.364 142.743C509.48 142.86 509.546 143.017 509.546 143.182C509.546 143.346 509.48 143.504 509.364 143.62C509.248 143.736 509.09 143.801 508.926 143.801H507.066C507.122 143.876 507.179 143.949 507.237 144.02C508.016 144.966 509.058 145.661 510.231 146.016C511.405 146.37 512.657 146.369 513.829 146.012C515.002 145.655 516.043 144.959 516.819 144.01C517.596 143.062 518.074 141.905 518.194 140.685C518.201 140.604 518.225 140.525 518.263 140.453C518.302 140.381 518.354 140.317 518.417 140.265C518.48 140.213 518.552 140.175 518.63 140.151C518.708 140.127 518.79 140.119 518.872 140.127" fill="black" fill-opacity="0.5"/>
<path d="M536.227 137.713H534.717C534.658 137.39 534.55 137.106 534.392 136.861C534.234 136.615 534.04 136.407 533.811 136.236C533.582 136.065 533.325 135.936 533.041 135.849C532.76 135.761 532.462 135.718 532.145 135.718C531.574 135.718 531.062 135.862 530.61 136.149C530.161 136.436 529.806 136.857 529.545 137.413C529.287 137.968 529.157 138.646 529.157 139.447C529.157 140.254 529.287 140.935 529.545 141.49C529.806 142.045 530.163 142.465 530.615 142.749C531.067 143.033 531.575 143.175 532.14 143.175C532.454 143.175 532.751 143.133 533.031 143.049C533.316 142.962 533.572 142.835 533.801 142.667C534.031 142.499 534.224 142.294 534.382 142.052C534.544 141.806 534.655 141.526 534.717 141.209L536.227 141.214C536.147 141.702 535.99 142.15 535.758 142.56C535.529 142.967 535.233 143.319 534.872 143.616C534.513 143.91 534.103 144.137 533.642 144.299C533.18 144.46 532.676 144.541 532.131 144.541C531.272 144.541 530.507 144.337 529.835 143.931C529.164 143.521 528.634 142.935 528.247 142.173C527.863 141.411 527.671 140.502 527.671 139.447C527.671 138.388 527.865 137.479 528.252 136.72C528.639 135.958 529.169 135.374 529.84 134.967C530.512 134.557 531.275 134.352 532.131 134.352C532.657 134.352 533.148 134.428 533.603 134.58C534.061 134.728 534.473 134.948 534.838 135.238C535.202 135.526 535.504 135.878 535.743 136.294C535.982 136.707 536.144 137.18 536.227 137.713ZM539.418 139.989V144.405H537.97V134.488H539.398V138.178H539.49C539.665 137.778 539.931 137.46 540.289 137.224C540.648 136.988 541.116 136.87 541.694 136.87C542.204 136.87 542.649 136.975 543.03 137.185C543.414 137.395 543.711 137.708 543.921 138.125C544.134 138.538 544.241 139.054 544.241 139.674V144.405H542.793V139.849C542.793 139.303 542.653 138.88 542.372 138.58C542.091 138.276 541.7 138.125 541.2 138.125C540.858 138.125 540.551 138.197 540.28 138.343C540.012 138.488 539.8 138.701 539.645 138.982C539.494 139.259 539.418 139.595 539.418 139.989ZM548.406 144.57C547.934 144.57 547.508 144.483 547.127 144.308C546.746 144.131 546.445 143.874 546.222 143.538C546.002 143.203 545.893 142.791 545.893 142.304C545.893 141.884 545.973 141.539 546.135 141.267C546.296 140.996 546.514 140.782 546.788 140.623C547.063 140.465 547.37 140.346 547.708 140.265C548.047 140.184 548.393 140.123 548.745 140.081C549.19 140.029 549.552 139.987 549.829 139.955C550.107 139.92 550.309 139.863 550.435 139.786C550.561 139.708 550.624 139.582 550.624 139.408V139.374C550.624 138.951 550.504 138.623 550.265 138.391C550.03 138.159 549.678 138.042 549.21 138.042C548.722 138.042 548.338 138.15 548.057 138.367C547.78 138.58 547.587 138.817 547.481 139.079L546.12 138.769C546.282 138.317 546.517 137.952 546.827 137.674C547.14 137.393 547.5 137.19 547.907 137.064C548.314 136.935 548.742 136.87 549.19 136.87C549.487 136.87 549.802 136.906 550.135 136.977C550.47 137.045 550.783 137.171 551.074 137.355C551.368 137.539 551.608 137.802 551.796 138.144C551.983 138.483 552.076 138.924 552.076 139.466V144.405H550.662V143.388H550.604C550.511 143.576 550.37 143.76 550.183 143.94C549.996 144.121 549.755 144.271 549.461 144.391C549.168 144.51 548.816 144.57 548.406 144.57ZM548.721 143.408C549.121 143.408 549.463 143.329 549.747 143.17C550.034 143.012 550.252 142.806 550.401 142.551C550.553 142.292 550.628 142.016 550.628 141.723V140.764C550.577 140.815 550.477 140.864 550.328 140.909C550.183 140.951 550.017 140.988 549.829 141.02C549.642 141.049 549.46 141.077 549.282 141.103C549.105 141.125 548.956 141.145 548.837 141.161C548.556 141.196 548.299 141.256 548.067 141.34C547.838 141.424 547.654 141.545 547.515 141.703C547.379 141.858 547.311 142.065 547.311 142.323C547.311 142.681 547.444 142.953 547.708 143.137C547.973 143.317 548.311 143.408 548.721 143.408ZM555.521 139.989V144.405H554.073V136.967H555.463V138.178H555.555C555.726 137.784 555.994 137.468 556.359 137.229C556.727 136.99 557.19 136.87 557.749 136.87C558.255 136.87 558.699 136.977 559.08 137.19C559.461 137.4 559.757 137.713 559.966 138.129C560.176 138.546 560.281 139.061 560.281 139.674V144.405H558.833V139.849C558.833 139.309 558.693 138.888 558.412 138.585C558.131 138.278 557.745 138.125 557.255 138.125C556.919 138.125 556.62 138.197 556.359 138.343C556.1 138.488 555.895 138.701 555.744 138.982C555.595 139.259 555.521 139.595 555.521 139.989ZM565.41 147.349C564.819 147.349 564.31 147.272 563.884 147.117C563.461 146.962 563.116 146.757 562.848 146.502C562.58 146.247 562.38 145.968 562.248 145.664L563.492 145.151C563.579 145.293 563.695 145.443 563.841 145.601C563.989 145.763 564.189 145.9 564.441 146.013C564.696 146.126 565.024 146.182 565.424 146.182C565.973 146.182 566.427 146.048 566.785 145.781C567.143 145.516 567.322 145.093 567.322 144.512V143.049H567.23C567.143 143.208 567.017 143.384 566.853 143.577C566.691 143.771 566.469 143.939 566.184 144.081C565.9 144.223 565.531 144.294 565.076 144.294C564.488 144.294 563.959 144.157 563.487 143.882C563.019 143.605 562.648 143.196 562.373 142.657C562.102 142.115 561.967 141.448 561.967 140.657C561.967 139.866 562.101 139.188 562.369 138.623C562.64 138.058 563.011 137.626 563.482 137.326C563.954 137.022 564.488 136.87 565.085 136.87C565.547 136.87 565.92 136.948 566.204 137.103C566.488 137.255 566.709 137.432 566.867 137.636C567.029 137.839 567.153 138.018 567.24 138.173H567.347V136.967H568.765V144.57C568.765 145.209 568.617 145.734 568.32 146.144C568.023 146.554 567.621 146.857 567.114 147.054C566.611 147.251 566.042 147.349 565.41 147.349ZM565.395 143.093C565.812 143.093 566.163 142.996 566.451 142.802C566.741 142.605 566.961 142.325 567.109 141.96C567.261 141.592 567.337 141.151 567.337 140.638C567.337 140.137 567.263 139.697 567.114 139.316C566.966 138.935 566.748 138.638 566.46 138.425C566.173 138.209 565.818 138.1 565.395 138.1C564.959 138.1 564.596 138.213 564.306 138.439C564.015 138.662 563.796 138.966 563.647 139.35C563.502 139.734 563.429 140.163 563.429 140.638C563.429 141.125 563.503 141.553 563.652 141.921C563.8 142.289 564.02 142.576 564.31 142.783C564.604 142.99 564.966 143.093 565.395 143.093ZM573.981 144.555C573.248 144.555 572.617 144.399 572.088 144.086C571.562 143.769 571.155 143.325 570.867 142.754C570.583 142.179 570.441 141.506 570.441 140.735C570.441 139.973 570.583 139.301 570.867 138.72C571.155 138.139 571.555 137.686 572.068 137.359C572.585 137.033 573.189 136.87 573.88 136.87C574.299 136.87 574.706 136.94 575.1 137.079C575.494 137.217 575.847 137.435 576.16 137.732C576.473 138.029 576.72 138.415 576.901 138.89C577.082 139.361 577.172 139.934 577.172 140.609V141.122H571.26V140.037H575.754C575.754 139.656 575.676 139.319 575.521 139.025C575.366 138.728 575.148 138.494 574.867 138.323C574.59 138.152 574.264 138.066 573.889 138.066C573.482 138.066 573.127 138.167 572.824 138.367C572.524 138.564 572.291 138.822 572.127 139.142C571.965 139.458 571.884 139.802 571.884 140.173V141.02C571.884 141.518 571.972 141.94 572.146 142.289C572.323 142.638 572.57 142.904 572.887 143.088C573.203 143.269 573.573 143.359 573.996 143.359C574.27 143.359 574.52 143.321 574.746 143.243C574.972 143.162 575.168 143.043 575.332 142.885C575.497 142.727 575.623 142.531 575.71 142.299L577.08 142.546C576.971 142.949 576.774 143.303 576.49 143.606C576.209 143.907 575.855 144.141 575.429 144.308C575.006 144.473 574.524 144.555 573.981 144.555ZM585.996 136.967V138.129H581.933V136.967H585.996ZM583.023 135.185H584.471V142.221C584.471 142.502 584.513 142.714 584.597 142.856C584.681 142.995 584.789 143.09 584.921 143.141C585.057 143.19 585.204 143.214 585.362 143.214C585.478 143.214 585.58 143.206 585.667 143.19C585.754 143.174 585.822 143.161 585.87 143.151L586.132 144.347C586.048 144.379 585.928 144.412 585.773 144.444C585.618 144.48 585.425 144.499 585.192 144.502C584.811 144.509 584.456 144.441 584.127 144.299C583.798 144.157 583.531 143.937 583.328 143.64C583.125 143.343 583.023 142.97 583.023 142.522V135.185ZM590.719 144.555C590.022 144.555 589.413 144.396 588.894 144.076C588.374 143.756 587.97 143.309 587.683 142.735C587.396 142.16 587.252 141.488 587.252 140.72C587.252 139.949 587.396 139.274 587.683 138.696C587.97 138.118 588.374 137.669 588.894 137.35C589.413 137.03 590.022 136.87 590.719 136.87C591.416 136.87 592.025 137.03 592.545 137.35C593.064 137.669 593.468 138.118 593.755 138.696C594.043 139.274 594.186 139.949 594.186 140.72C594.186 141.488 594.043 142.16 593.755 142.735C593.468 143.309 593.064 143.756 592.545 144.076C592.025 144.396 591.416 144.555 590.719 144.555ZM590.724 143.34C591.176 143.34 591.55 143.22 591.847 142.982C592.144 142.743 592.364 142.425 592.506 142.028C592.651 141.631 592.724 141.193 592.724 140.715C592.724 140.241 592.651 139.805 592.506 139.408C592.364 139.008 592.144 138.686 591.847 138.444C591.55 138.202 591.176 138.081 590.724 138.081C590.269 138.081 589.891 138.202 589.591 138.444C589.294 138.686 589.073 139.008 588.927 139.408C588.785 139.805 588.714 140.241 588.714 140.715C588.714 141.193 588.785 141.631 588.927 142.028C589.073 142.425 589.294 142.743 589.591 142.982C589.891 143.22 590.269 143.34 590.724 143.34Z" fill="black" fill-opacity="0.9"/>
<path fill-rule="evenodd" clip-rule="evenodd" d="M647.119 138.404C647.177 138.347 647.245 138.301 647.32 138.27C647.396 138.238 647.476 138.222 647.558 138.222C647.639 138.222 647.72 138.238 647.796 138.27C647.871 138.301 647.939 138.347 647.997 138.404L650.037 140.446L652.078 138.404C652.135 138.347 652.204 138.301 652.279 138.27C652.354 138.239 652.435 138.222 652.517 138.222C652.598 138.222 652.679 138.239 652.754 138.27C652.829 138.301 652.898 138.347 652.955 138.404C653.013 138.462 653.059 138.53 653.09 138.606C653.121 138.681 653.137 138.762 653.137 138.843C653.137 138.925 653.121 139.005 653.09 139.081C653.059 139.156 653.013 139.224 652.955 139.282L650.476 141.761C650.419 141.819 650.35 141.865 650.275 141.896C650.2 141.927 650.119 141.943 650.037 141.943C649.956 141.943 649.875 141.927 649.8 141.896C649.724 141.865 649.656 141.819 649.598 141.761L647.119 139.282C647.061 139.224 647.016 139.156 646.984 139.081C646.953 139.005 646.937 138.925 646.937 138.843C646.937 138.762 646.953 138.681 646.984 138.606C647.016 138.53 647.061 138.462 647.119 138.404Z" fill="black" fill-opacity="0.9"/>
<path d="M412.215 177.656C412.164 177.206 411.955 176.857 411.587 176.61C411.22 176.359 410.757 176.234 410.199 176.234C409.8 176.234 409.454 176.298 409.163 176.424C408.871 176.548 408.644 176.719 408.483 176.938C408.324 177.153 408.245 177.399 408.245 177.675C408.245 177.906 408.299 178.106 408.407 178.274C408.518 178.442 408.662 178.583 408.839 178.697C409.02 178.808 409.213 178.901 409.419 178.978C409.625 179.05 409.823 179.111 410.014 179.158L410.964 179.405C411.275 179.481 411.594 179.585 411.92 179.714C412.247 179.844 412.549 180.016 412.828 180.228C413.107 180.44 413.332 180.703 413.503 181.017C413.678 181.331 413.765 181.707 413.765 182.144C413.765 182.695 413.622 183.185 413.337 183.613C413.055 184.041 412.644 184.379 412.106 184.626C411.57 184.873 410.922 184.997 410.161 184.997C409.432 184.997 408.801 184.881 408.269 184.65C407.736 184.418 407.319 184.09 407.018 183.665C406.717 183.237 406.551 182.73 406.519 182.144H407.993C408.022 182.496 408.136 182.789 408.335 183.024C408.538 183.255 408.796 183.428 409.11 183.542C409.427 183.653 409.774 183.708 410.151 183.708C410.567 183.708 410.936 183.643 411.259 183.513C411.586 183.38 411.842 183.196 412.029 182.962C412.216 182.724 412.31 182.447 412.31 182.13C412.31 181.841 412.228 181.605 412.063 181.421C411.901 181.237 411.681 181.085 411.402 180.965C411.126 180.844 410.814 180.738 410.465 180.646L409.315 180.333C408.535 180.12 407.917 179.808 407.46 179.396C407.007 178.984 406.781 178.439 406.781 177.76C406.781 177.199 406.933 176.71 407.237 176.291C407.541 175.873 407.953 175.548 408.473 175.317C408.993 175.082 409.579 174.965 410.232 174.965C410.892 174.965 411.473 175.08 411.977 175.312C412.484 175.543 412.884 175.862 413.175 176.268C413.467 176.67 413.619 177.133 413.632 177.656H412.215ZM418.883 177.532V178.673H414.894V177.532H418.883ZM415.964 175.783H417.386V182.691C417.386 182.966 417.427 183.174 417.509 183.314C417.592 183.45 417.698 183.543 417.828 183.594C417.961 183.642 418.105 183.665 418.261 183.665C418.375 183.665 418.475 183.657 418.56 183.642C418.646 183.626 418.712 183.613 418.76 183.604L419.017 184.778C418.934 184.81 418.817 184.841 418.665 184.873C418.513 184.908 418.322 184.927 418.094 184.93C417.72 184.936 417.371 184.87 417.048 184.73C416.725 184.591 416.463 184.375 416.264 184.084C416.064 183.792 415.964 183.426 415.964 182.985V175.783ZM422.649 184.997C422.187 184.997 421.768 184.911 421.394 184.74C421.02 184.566 420.724 184.314 420.505 183.984C420.29 183.654 420.182 183.25 420.182 182.772C420.182 182.359 420.261 182.02 420.42 181.754C420.578 181.488 420.792 181.277 421.061 181.122C421.331 180.966 421.632 180.849 421.965 180.77C422.297 180.691 422.637 180.63 422.982 180.589C423.42 180.539 423.775 180.497 424.047 180.466C424.32 180.431 424.518 180.375 424.641 180.299C424.765 180.223 424.827 180.1 424.827 179.928V179.895C424.827 179.48 424.71 179.158 424.475 178.93C424.244 178.702 423.898 178.588 423.439 178.588C422.96 178.588 422.583 178.694 422.307 178.906C422.034 179.115 421.846 179.348 421.741 179.605L420.405 179.301C420.564 178.857 420.795 178.499 421.099 178.226C421.407 177.951 421.76 177.751 422.16 177.627C422.559 177.5 422.979 177.437 423.42 177.437C423.711 177.437 424.02 177.472 424.347 177.542C424.676 177.608 424.984 177.732 425.269 177.913C425.557 178.093 425.794 178.352 425.977 178.688C426.161 179.02 426.253 179.453 426.253 179.985V184.835H424.865V183.837H424.808C424.716 184.02 424.578 184.201 424.394 184.379C424.21 184.556 423.974 184.703 423.686 184.821C423.397 184.938 423.052 184.997 422.649 184.997ZM422.958 183.856C423.351 183.856 423.687 183.778 423.966 183.623C424.248 183.467 424.462 183.264 424.608 183.014C424.757 182.76 424.832 182.489 424.832 182.201V181.26C424.781 181.31 424.683 181.358 424.537 181.402C424.394 181.443 424.231 181.48 424.047 181.512C423.863 181.54 423.684 181.567 423.51 181.592C423.336 181.615 423.19 181.634 423.072 181.65C422.797 181.684 422.545 181.743 422.317 181.825C422.091 181.908 421.911 182.027 421.775 182.182C421.641 182.334 421.575 182.537 421.575 182.791C421.575 183.142 421.705 183.409 421.965 183.589C422.225 183.767 422.556 183.856 422.958 183.856ZM431.624 177.532V178.673H427.635V177.532H431.624ZM428.704 175.783H430.126V182.691C430.126 182.966 430.167 183.174 430.25 183.314C430.332 183.45 430.438 183.543 430.568 183.594C430.701 183.642 430.846 183.665 431.001 183.665C431.115 183.665 431.215 183.657 431.3 183.642C431.386 183.626 431.453 183.613 431.5 183.604L431.757 184.778C431.674 184.81 431.557 184.841 431.405 184.873C431.253 184.908 431.063 184.927 430.834 184.93C430.46 184.936 430.112 184.87 429.789 184.73C429.465 184.591 429.204 184.375 429.004 184.084C428.804 183.792 428.704 183.426 428.704 182.985V175.783ZM436.333 184.982C435.614 184.982 434.994 184.829 434.474 184.521C433.958 184.211 433.558 183.775 433.276 183.214C432.997 182.65 432.858 181.989 432.858 181.231C432.858 180.483 432.997 179.824 433.276 179.253C433.558 178.683 433.951 178.237 434.455 177.917C434.963 177.597 435.555 177.437 436.234 177.437C436.646 177.437 437.045 177.505 437.432 177.642C437.818 177.778 438.165 177.992 438.473 178.283C438.78 178.575 439.023 178.954 439.2 179.42C439.378 179.882 439.467 180.445 439.467 181.108V181.611H433.661V180.546H438.074C438.074 180.172 437.997 179.841 437.845 179.553C437.693 179.261 437.479 179.031 437.203 178.863C436.931 178.695 436.611 178.611 436.243 178.611C435.844 178.611 435.495 178.71 435.197 178.906C434.902 179.1 434.674 179.353 434.512 179.667C434.354 179.978 434.275 180.315 434.275 180.68V181.512C434.275 182 434.36 182.415 434.531 182.757C434.706 183.1 434.948 183.361 435.259 183.542C435.57 183.719 435.932 183.808 436.348 183.808C436.617 183.808 436.863 183.77 437.085 183.694C437.306 183.615 437.498 183.497 437.66 183.342C437.822 183.187 437.945 182.995 438.031 182.767L439.376 183.009C439.268 183.405 439.075 183.753 438.796 184.05C438.52 184.345 438.173 184.575 437.755 184.74C437.34 184.902 436.866 184.982 436.333 184.982Z" fill="black" fill-opacity="0.5"/>
<g clip-path="url(#clip1_1149_24117)">
<rect x="495.909" y="164.876" width="170.244" height="29.7521" rx="6.19835" fill="white"/>
<path d="M506.916 184.694V174.777H508.413V179.087H513.357V174.777H514.858V184.694H513.357V180.37H508.413V184.694H506.916ZM520.122 184.844C519.425 184.844 518.816 184.685 518.296 184.365C517.777 184.045 517.373 183.598 517.086 183.024C516.798 182.449 516.655 181.778 516.655 181.009C516.655 180.238 516.798 179.563 517.086 178.985C517.373 178.407 517.777 177.958 518.296 177.639C518.816 177.319 519.425 177.159 520.122 177.159C520.819 177.159 521.428 177.319 521.948 177.639C522.467 177.958 522.871 178.407 523.158 178.985C523.446 179.563 523.589 180.238 523.589 181.009C523.589 181.778 523.446 182.449 523.158 183.024C522.871 183.598 522.467 184.045 521.948 184.365C521.428 184.685 520.819 184.844 520.122 184.844ZM520.127 183.629C520.579 183.629 520.953 183.51 521.25 183.271C521.547 183.032 521.767 182.714 521.909 182.317C522.054 181.92 522.127 181.482 522.127 181.004C522.127 180.53 522.054 180.094 521.909 179.697C521.767 179.297 521.547 178.975 521.25 178.733C520.953 178.491 520.579 178.37 520.127 178.37C519.672 178.37 519.294 178.491 518.994 178.733C518.697 178.975 518.476 179.297 518.33 179.697C518.188 180.094 518.117 180.53 518.117 181.004C518.117 181.482 518.188 181.92 518.33 182.317C518.476 182.714 518.697 183.032 518.994 183.271C519.294 183.51 519.672 183.629 520.127 183.629ZM531.384 177.256L528.686 184.694H527.137L524.435 177.256H525.989L527.873 182.98H527.95L529.829 177.256H531.384ZM535.765 184.844C535.032 184.844 534.401 184.688 533.872 184.375C533.345 184.058 532.939 183.614 532.651 183.043C532.367 182.468 532.225 181.795 532.225 181.024C532.225 180.262 532.367 179.59 532.651 179.009C532.939 178.428 533.339 177.975 533.852 177.649C534.369 177.322 534.973 177.159 535.663 177.159C536.083 177.159 536.49 177.229 536.884 177.368C537.278 177.507 537.631 177.724 537.944 178.021C538.257 178.318 538.504 178.704 538.685 179.179C538.866 179.65 538.956 180.223 538.956 180.898V181.411H533.044V180.326H537.537C537.537 179.945 537.46 179.608 537.305 179.314C537.15 179.017 536.932 178.783 536.651 178.612C536.374 178.441 536.048 178.356 535.673 178.356C535.266 178.356 534.911 178.456 534.608 178.656C534.308 178.853 534.075 179.111 533.91 179.431C533.749 179.747 533.668 180.091 533.668 180.462V181.309C533.668 181.807 533.755 182.23 533.93 182.578C534.107 182.927 534.354 183.193 534.671 183.377C534.987 183.558 535.357 183.648 535.78 183.648C536.054 183.648 536.304 183.61 536.53 183.532C536.756 183.451 536.952 183.332 537.116 183.174C537.281 183.016 537.407 182.82 537.494 182.588L538.864 182.835C538.755 183.238 538.558 183.592 538.274 183.895C537.993 184.196 537.639 184.43 537.213 184.597C536.79 184.762 536.307 184.844 535.765 184.844ZM540.631 184.694V177.256H542.03V178.438H542.108C542.244 178.038 542.482 177.723 542.825 177.494C543.17 177.261 543.561 177.145 543.996 177.145C544.087 177.145 544.193 177.148 544.316 177.155C544.442 177.161 544.54 177.169 544.611 177.179V178.564C544.553 178.548 544.45 178.53 544.302 178.511C544.153 178.488 544.005 178.477 543.856 178.477C543.514 178.477 543.209 178.549 542.941 178.695C542.676 178.837 542.466 179.035 542.311 179.29C542.156 179.542 542.079 179.829 542.079 180.152V184.694H540.631Z" fill="black" fill-opacity="0.9"/>
<path fill-rule="evenodd" clip-rule="evenodd" d="M647.119 178.694C647.177 178.636 647.245 178.59 647.32 178.559C647.396 178.528 647.476 178.512 647.558 178.512C647.639 178.512 647.72 178.528 647.796 178.559C647.871 178.59 647.939 178.636 647.997 178.694L650.037 180.736L652.078 178.694C652.135 178.636 652.204 178.59 652.279 178.559C652.354 178.528 652.435 178.512 652.517 178.512C652.598 178.512 652.679 178.528 652.754 178.559C652.829 178.59 652.898 178.636 652.955 178.694C653.013 178.751 653.059 178.82 653.09 178.895C653.121 178.97 653.137 179.051 653.137 179.133C653.137 179.214 653.121 179.295 653.09 179.37C653.059 179.445 653.013 179.514 652.955 179.572L650.476 182.051C650.419 182.109 650.35 182.154 650.275 182.186C650.2 182.217 650.119 182.233 650.037 182.233C649.956 182.233 649.875 182.217 649.8 182.186C649.724 182.154 649.656 182.109 649.598 182.051L647.119 179.572C647.061 179.514 647.016 179.446 646.984 179.37C646.953 179.295 646.937 179.214 646.937 179.133C646.937 179.051 646.953 178.97 646.984 178.895C647.016 178.82 647.061 178.751 647.119 178.694Z" fill="black" fill-opacity="0.9"/>
</g>
<rect x="496.529" y="165.496" width="169.004" height="28.5124" rx="5.57851" stroke="#E6E6E6" stroke-width="1.23967"/>
<path d="M407.727 245.438H406.167L409.671 235.701H411.369L414.873 245.438H413.313L410.56 237.47H410.484L407.727 245.438ZM407.988 241.625H413.047V242.862H407.988V241.625ZM417.654 241.102V245.438H416.233V238.136H417.597V239.324H417.688C417.856 238.938 418.119 238.627 418.477 238.392C418.838 238.158 419.293 238.041 419.841 238.041C420.339 238.041 420.775 238.145 421.149 238.354C421.523 238.56 421.813 238.868 422.019 239.277C422.225 239.686 422.328 240.191 422.328 240.793V245.438H420.906V240.965C420.906 240.435 420.769 240.022 420.493 239.724C420.217 239.423 419.838 239.272 419.356 239.272C419.027 239.272 418.734 239.343 418.477 239.486C418.223 239.629 418.022 239.838 417.873 240.114C417.727 240.386 417.654 240.716 417.654 241.102ZM424.303 245.438V238.136H425.724V245.438H424.303ZM425.021 237.009C424.773 237.009 424.561 236.926 424.383 236.762C424.209 236.594 424.122 236.394 424.122 236.163C424.122 235.928 424.209 235.728 424.383 235.564C424.561 235.396 424.773 235.312 425.021 235.312C425.268 235.312 425.479 235.396 425.653 235.564C425.83 235.728 425.919 235.928 425.919 236.163C425.919 236.394 425.83 236.594 425.653 236.762C425.479 236.926 425.268 237.009 425.021 237.009ZM427.705 245.438V238.136H429.069V239.324H429.16C429.312 238.922 429.561 238.608 429.906 238.383C430.252 238.155 430.665 238.041 431.147 238.041C431.635 238.041 432.044 238.155 432.374 238.383C432.707 238.611 432.952 238.925 433.111 239.324H433.187C433.361 238.934 433.638 238.624 434.019 238.392C434.399 238.158 434.852 238.041 435.379 238.041C436.041 238.041 436.581 238.248 437 238.663C437.421 239.079 437.632 239.705 437.632 240.541V245.438H436.211V240.675C436.211 240.18 436.076 239.822 435.806 239.6C435.537 239.378 435.215 239.267 434.841 239.267C434.378 239.267 434.019 239.41 433.762 239.695C433.505 239.977 433.377 240.34 433.377 240.784V245.438H431.96V240.584C431.96 240.188 431.836 239.869 431.589 239.629C431.342 239.388 431.02 239.267 430.624 239.267C430.355 239.267 430.106 239.339 429.878 239.481C429.653 239.621 429.47 239.816 429.331 240.066C429.195 240.316 429.126 240.606 429.126 240.936V245.438H427.705ZM441.731 245.6C441.268 245.6 440.85 245.515 440.476 245.343C440.102 245.169 439.805 244.917 439.587 244.587C439.371 244.258 439.263 243.854 439.263 243.375C439.263 242.963 439.343 242.624 439.501 242.358C439.659 242.091 439.873 241.881 440.143 241.725C440.412 241.57 440.713 241.453 441.046 241.373C441.379 241.294 441.718 241.234 442.064 241.193C442.501 241.142 442.856 241.101 443.129 241.069C443.401 241.034 443.599 240.979 443.723 240.903C443.847 240.827 443.908 240.703 443.908 240.532V240.499C443.908 240.083 443.791 239.762 443.557 239.533C443.325 239.305 442.98 239.191 442.52 239.191C442.041 239.191 441.664 239.297 441.389 239.51C441.116 239.719 440.927 239.952 440.823 240.209L439.487 239.904C439.645 239.461 439.877 239.102 440.181 238.83C440.488 238.554 440.842 238.354 441.241 238.231C441.641 238.104 442.06 238.041 442.501 238.041C442.793 238.041 443.102 238.075 443.428 238.145C443.758 238.212 444.065 238.335 444.351 238.516C444.639 238.697 444.875 238.955 445.059 239.291C445.243 239.624 445.335 240.056 445.335 240.589V245.438H443.946V244.44H443.889C443.797 244.624 443.66 244.805 443.476 244.982C443.292 245.16 443.056 245.307 442.767 245.424C442.479 245.541 442.133 245.6 441.731 245.6ZM442.04 244.459C442.433 244.459 442.769 244.381 443.048 244.226C443.33 244.071 443.544 243.868 443.69 243.618C443.839 243.364 443.913 243.093 443.913 242.805V241.863C443.862 241.914 443.764 241.961 443.618 242.006C443.476 242.047 443.312 242.083 443.129 242.115C442.945 242.144 442.766 242.171 442.591 242.196C442.417 242.218 442.271 242.237 442.154 242.253C441.878 242.288 441.626 242.347 441.398 242.429C441.173 242.511 440.992 242.63 440.856 242.786C440.723 242.938 440.656 243.141 440.656 243.394C440.656 243.746 440.786 244.012 441.046 244.193C441.306 244.37 441.637 244.459 442.04 244.459ZM450.705 238.136V239.277H446.716V238.136H450.705ZM447.786 236.386H449.208V243.294C449.208 243.57 449.249 243.778 449.331 243.917C449.414 244.053 449.52 244.147 449.65 244.198C449.783 244.245 449.927 244.269 450.082 244.269C450.197 244.269 450.296 244.261 450.382 244.245C450.468 244.229 450.534 244.217 450.582 244.207L450.838 245.381C450.756 245.413 450.639 245.445 450.487 245.477C450.334 245.511 450.144 245.53 449.916 245.534C449.542 245.54 449.193 245.473 448.87 245.334C448.547 245.194 448.285 244.979 448.086 244.687C447.886 244.396 447.786 244.03 447.786 243.589V236.386ZM452.346 245.438V238.136H453.768V245.438H452.346ZM453.064 237.009C452.817 237.009 452.604 236.926 452.427 236.762C452.252 236.594 452.165 236.394 452.165 236.163C452.165 235.928 452.252 235.728 452.427 235.564C452.604 235.396 452.817 235.312 453.064 235.312C453.311 235.312 453.522 235.396 453.696 235.564C453.874 235.728 453.962 235.928 453.962 236.163C453.962 236.394 453.874 236.594 453.696 236.762C453.522 236.926 453.311 237.009 453.064 237.009ZM458.824 245.586C458.14 245.586 457.542 245.429 457.032 245.115C456.522 244.801 456.125 244.362 455.843 243.798C455.561 243.234 455.42 242.575 455.42 241.82C455.42 241.063 455.561 240.4 455.843 239.833C456.125 239.266 456.522 238.825 457.032 238.511C457.542 238.198 458.14 238.041 458.824 238.041C459.509 238.041 460.106 238.198 460.617 238.511C461.127 238.825 461.523 239.266 461.805 239.833C462.087 240.4 462.228 241.063 462.228 241.82C462.228 242.575 462.087 243.234 461.805 243.798C461.523 244.362 461.127 244.801 460.617 245.115C460.106 245.429 459.509 245.586 458.824 245.586ZM458.829 244.393C459.273 244.393 459.64 244.275 459.932 244.041C460.224 243.806 460.439 243.494 460.579 243.104C460.721 242.714 460.793 242.285 460.793 241.816C460.793 241.35 460.721 240.922 460.579 240.532C460.439 240.139 460.224 239.824 459.932 239.586C459.64 239.348 459.273 239.229 458.829 239.229C458.382 239.229 458.011 239.348 457.716 239.586C457.425 239.824 457.208 240.139 457.065 240.532C456.926 240.922 456.856 241.35 456.856 241.816C456.856 242.285 456.926 242.714 457.065 243.104C457.208 243.494 457.425 243.806 457.716 244.041C458.011 244.275 458.382 244.393 458.829 244.393ZM465.305 241.102V245.438H463.883V238.136H465.248V239.324H465.338C465.506 238.938 465.769 238.627 466.127 238.392C466.489 238.158 466.944 238.041 467.492 238.041C467.99 238.041 468.425 238.145 468.799 238.354C469.173 238.56 469.463 238.868 469.67 239.277C469.876 239.686 469.979 240.191 469.979 240.793V245.438H468.557V240.965C468.557 240.435 468.419 240.022 468.143 239.724C467.868 239.423 467.489 239.272 467.007 239.272C466.677 239.272 466.384 239.343 466.127 239.486C465.874 239.629 465.673 239.838 465.524 240.114C465.378 240.386 465.305 240.716 465.305 241.102Z" fill="black" fill-opacity="0.5"/>
<rect x="496.529" y="226.24" width="169.004" height="28.5124" rx="5.57851" fill="white"/>
<rect x="496.529" y="226.24" width="169.004" height="28.5124" rx="5.57851" stroke="#E6E6E6" stroke-width="1.23967"/>
<path d="M509.605 235.081V244.818H508.136V235.081H509.605ZM513.12 240.482V244.818H511.699V237.516H513.063V238.704H513.154C513.322 238.317 513.585 238.007 513.943 237.772C514.304 237.538 514.759 237.42 515.307 237.42C515.805 237.42 516.241 237.525 516.615 237.734C516.989 237.94 517.279 238.248 517.485 238.657C517.691 239.066 517.794 239.571 517.794 240.173V244.818H516.372V240.344C516.372 239.815 516.235 239.401 515.959 239.104C515.683 238.802 515.304 238.652 514.822 238.652C514.493 238.652 514.2 238.723 513.943 238.866C513.689 239.008 513.488 239.218 513.339 239.493C513.193 239.766 513.12 240.096 513.12 240.482ZM525.241 239.298L523.953 239.527C523.899 239.362 523.813 239.205 523.696 239.056C523.582 238.907 523.426 238.785 523.23 238.69C523.033 238.595 522.788 238.547 522.493 238.547C522.09 238.547 521.754 238.638 521.485 238.818C521.216 238.996 521.081 239.226 521.081 239.508C521.081 239.752 521.171 239.948 521.352 240.097C521.533 240.246 521.824 240.368 522.227 240.463L523.387 240.73C524.059 240.885 524.56 241.124 524.889 241.447C525.219 241.771 525.384 242.191 525.384 242.707C525.384 243.145 525.257 243.535 525.003 243.877C524.753 244.216 524.403 244.482 523.953 244.676C523.506 244.869 522.987 244.966 522.398 244.966C521.58 244.966 520.913 244.791 520.396 244.443C519.88 244.091 519.563 243.592 519.445 242.945L520.819 242.736C520.905 243.094 521.081 243.365 521.347 243.549C521.613 243.73 521.96 243.82 522.388 243.82C522.854 243.82 523.227 243.723 523.506 243.53C523.785 243.333 523.924 243.094 523.924 242.812C523.924 242.584 523.838 242.392 523.667 242.237C523.499 242.081 523.241 241.964 522.892 241.885L521.656 241.614C520.975 241.459 520.471 241.211 520.144 240.872C519.821 240.533 519.659 240.104 519.659 239.584C519.659 239.153 519.78 238.775 520.021 238.452C520.262 238.129 520.594 237.877 521.019 237.696C521.444 237.512 521.93 237.42 522.479 237.42C523.268 237.42 523.889 237.592 524.342 237.934C524.796 238.273 525.095 238.728 525.241 239.298ZM530.424 237.516V238.657H526.435V237.516H530.424ZM527.505 235.766H528.926V242.674C528.926 242.95 528.967 243.157 529.05 243.297C529.132 243.433 529.238 243.527 529.368 243.577C529.501 243.625 529.646 243.649 529.801 243.649C529.915 243.649 530.015 243.641 530.1 243.625C530.186 243.609 530.253 243.596 530.3 243.587L530.557 244.761C530.474 244.793 530.357 244.825 530.205 244.856C530.053 244.891 529.863 244.91 529.635 244.913C529.261 244.92 528.912 244.853 528.589 244.714C528.265 244.574 528.004 244.359 527.804 244.067C527.604 243.776 527.505 243.409 527.505 242.969V235.766ZM534.19 244.98C533.727 244.98 533.309 244.894 532.935 244.723C532.561 244.549 532.264 244.297 532.045 243.967C531.83 243.638 531.722 243.234 531.722 242.755C531.722 242.343 531.801 242.004 531.96 241.737C532.118 241.471 532.332 241.26 532.602 241.105C532.871 240.95 533.172 240.833 533.505 240.753C533.838 240.674 534.177 240.614 534.522 240.573C534.96 240.522 535.315 240.481 535.587 240.449C535.86 240.414 536.058 240.359 536.182 240.283C536.305 240.207 536.367 240.083 536.367 239.912V239.879C536.367 239.463 536.25 239.142 536.015 238.913C535.784 238.685 535.439 238.571 534.979 238.571C534.5 238.571 534.123 238.677 533.847 238.89C533.575 239.099 533.386 239.332 533.282 239.589L531.946 239.284C532.104 238.84 532.335 238.482 532.64 238.21C532.947 237.934 533.301 237.734 533.7 237.611C534.099 237.484 534.519 237.42 534.96 237.42C535.252 237.42 535.561 237.455 535.887 237.525C536.217 237.592 536.524 237.715 536.809 237.896C537.098 238.077 537.334 238.335 537.518 238.671C537.702 239.004 537.794 239.436 537.794 239.969V244.818H536.405V243.82H536.348C536.256 244.004 536.118 244.184 535.935 244.362C535.751 244.539 535.515 244.687 535.226 244.804C534.938 244.921 534.592 244.98 534.19 244.98ZM534.499 243.839C534.892 243.839 535.228 243.761 535.507 243.606C535.789 243.451 536.003 243.248 536.149 242.997C536.297 242.744 536.372 242.473 536.372 242.184V241.243C536.321 241.294 536.223 241.341 536.077 241.386C535.935 241.427 535.771 241.463 535.587 241.495C535.404 241.524 535.225 241.55 535.05 241.576C534.876 241.598 534.73 241.617 534.613 241.633C534.337 241.668 534.085 241.726 533.857 241.809C533.632 241.891 533.451 242.01 533.315 242.165C533.182 242.318 533.115 242.52 533.115 242.774C533.115 243.126 533.245 243.392 533.505 243.573C533.765 243.75 534.096 243.839 534.499 243.839ZM541.177 240.482V244.818H539.755V237.516H541.12V238.704H541.21C541.378 238.317 541.641 238.007 541.999 237.772C542.361 237.538 542.815 237.42 543.364 237.42C543.861 237.42 544.297 237.525 544.671 237.734C545.045 237.94 545.335 238.248 545.541 238.657C545.747 239.066 545.85 239.571 545.85 240.173V244.818H544.429V240.344C544.429 239.815 544.291 239.401 544.015 239.104C543.739 238.802 543.361 238.652 542.879 238.652C542.549 238.652 542.256 238.723 541.999 238.866C541.746 239.008 541.544 239.218 541.395 239.493C541.25 239.766 541.177 240.096 541.177 240.482ZM551.234 237.516V238.657H547.245V237.516H551.234ZM548.315 235.766H549.736V242.674C549.736 242.95 549.778 243.157 549.86 243.297C549.942 243.433 550.049 243.527 550.178 243.577C550.312 243.625 550.456 243.649 550.611 243.649C550.725 243.649 550.825 243.641 550.911 243.625C550.996 243.609 551.063 243.596 551.11 243.587L551.367 244.761C551.285 244.793 551.167 244.825 551.015 244.856C550.863 244.891 550.673 244.91 550.445 244.913C550.071 244.92 549.722 244.853 549.399 244.714C549.075 244.574 548.814 244.359 548.614 244.067C548.415 243.776 548.315 243.409 548.315 242.969V235.766Z" fill="black" fill-opacity="0.9"/>
<path fill-rule="evenodd" clip-rule="evenodd" d="M647.119 238.818C647.177 238.76 647.245 238.714 647.32 238.683C647.396 238.652 647.476 238.636 647.558 238.636C647.639 238.636 647.72 238.652 647.796 238.683C647.871 238.714 647.939 238.76 647.997 238.818L650.037 240.86L652.078 238.818C652.135 238.76 652.204 238.714 652.279 238.683C652.354 238.652 652.435 238.636 652.517 238.636C652.598 238.636 652.679 238.652 652.754 238.683C652.829 238.714 652.898 238.76 652.955 238.818C653.013 238.875 653.059 238.944 653.09 239.019C653.121 239.094 653.137 239.175 653.137 239.257C653.137 239.338 653.121 239.419 653.09 239.494C653.059 239.569 653.013 239.638 652.955 239.696L650.476 242.175C650.419 242.233 650.35 242.278 650.275 242.31C650.2 242.341 650.119 242.357 650.037 242.357C649.956 242.357 649.875 242.341 649.8 242.31C649.724 242.278 649.656 242.233 649.598 242.175L647.119 239.696C647.061 239.638 647.016 239.57 646.984 239.494C646.953 239.419 646.937 239.338 646.937 239.257C646.937 239.175 646.953 239.094 646.984 239.019C647.016 238.944 647.061 238.875 647.119 238.818Z" fill="black" fill-opacity="0.9"/>
<path d="M394.39 298.172C394.506 298.056 394.664 297.99 394.828 297.99C394.993 297.99 395.15 298.056 395.266 298.172L397.896 300.801C398.012 300.917 398.077 301.075 398.077 301.239C398.077 301.404 398.012 301.561 397.896 301.677L395.266 304.308C395.15 304.424 394.992 304.49 394.828 304.489C394.663 304.489 394.506 304.424 394.389 304.307C394.273 304.191 394.208 304.033 394.208 303.869C394.208 303.704 394.274 303.547 394.39 303.43L396.58 301.24L394.39 299.048C394.274 298.932 394.208 298.774 394.208 298.61C394.208 298.446 394.274 298.288 394.39 298.172Z" fill="black" fill-opacity="0.3"/>
<path d="M412.202 298.991C412.157 298.568 411.967 298.238 411.631 298.003C411.298 297.767 410.866 297.649 410.333 297.649C409.959 297.649 409.637 297.706 409.369 297.819C409.102 297.932 408.897 298.085 408.754 298.279C408.612 298.472 408.54 298.694 408.537 298.942C408.537 299.149 408.583 299.328 408.677 299.48C408.774 299.631 408.905 299.761 409.069 299.867C409.234 299.97 409.416 300.058 409.616 300.129C409.817 300.2 410.018 300.259 410.222 300.308L411.151 300.54C411.526 300.627 411.886 300.745 412.231 300.894C412.58 301.042 412.892 301.229 413.166 301.455C413.444 301.681 413.663 301.954 413.825 302.274C413.986 302.593 414.067 302.968 414.067 303.397C414.067 303.978 413.918 304.49 413.621 304.932C413.324 305.371 412.895 305.715 412.333 305.964C411.775 306.209 411.098 306.332 410.304 306.332C409.532 306.332 408.863 306.212 408.294 305.973C407.729 305.735 407.287 305.386 406.968 304.927C406.651 304.469 406.48 303.911 406.454 303.252H408.222C408.248 303.597 408.354 303.885 408.541 304.114C408.729 304.343 408.972 304.514 409.273 304.627C409.576 304.74 409.915 304.797 410.29 304.797C410.68 304.797 411.022 304.739 411.316 304.622C411.613 304.503 411.846 304.338 412.013 304.128C412.181 303.915 412.267 303.667 412.27 303.383C412.267 303.124 412.191 302.911 412.043 302.743C411.894 302.572 411.686 302.43 411.418 302.317C411.153 302.201 410.843 302.098 410.488 302.007L409.36 301.717C408.543 301.507 407.897 301.189 407.423 300.763C406.951 300.334 406.716 299.764 406.716 299.054C406.716 298.469 406.874 297.958 407.19 297.518C407.51 297.079 407.944 296.739 408.493 296.497C409.042 296.251 409.663 296.129 410.357 296.129C411.061 296.129 411.678 296.251 412.207 296.497C412.74 296.739 413.158 297.076 413.461 297.509C413.765 297.938 413.921 298.432 413.931 298.991H412.202ZM419.373 298.744V300.1H415.097V298.744H419.373ZM416.153 296.962H417.906V303.944C417.906 304.18 417.941 304.361 418.012 304.487C418.087 304.609 418.184 304.693 418.303 304.739C418.422 304.784 418.555 304.806 418.7 304.806C418.81 304.806 418.91 304.798 419 304.782C419.094 304.766 419.165 304.752 419.213 304.739L419.509 306.109C419.415 306.141 419.281 306.177 419.107 306.216C418.936 306.254 418.726 306.277 418.477 306.283C418.038 306.296 417.643 306.23 417.291 306.085C416.939 305.936 416.66 305.707 416.453 305.397C416.25 305.087 416.15 304.7 416.153 304.235V296.962ZM423.048 306.332C422.576 306.332 422.152 306.248 421.774 306.08C421.4 305.909 421.103 305.657 420.883 305.325C420.667 304.992 420.559 304.582 420.559 304.095C420.559 303.675 420.636 303.328 420.791 303.053C420.946 302.779 421.158 302.559 421.426 302.395C421.693 302.23 421.995 302.106 422.331 302.022C422.67 301.935 423.02 301.872 423.382 301.833C423.818 301.788 424.171 301.748 424.442 301.712C424.714 301.673 424.91 301.615 425.033 301.538C425.159 301.457 425.222 301.333 425.222 301.165V301.136C425.222 300.771 425.114 300.489 424.898 300.288C424.681 300.088 424.37 299.988 423.963 299.988C423.534 299.988 423.193 300.082 422.941 300.269C422.693 300.456 422.525 300.677 422.438 300.932L420.801 300.7C420.93 300.248 421.143 299.87 421.44 299.567C421.737 299.26 422.1 299.031 422.53 298.879C422.959 298.724 423.434 298.647 423.953 298.647C424.312 298.647 424.668 298.689 425.023 298.773C425.379 298.857 425.703 298.995 425.997 299.189C426.291 299.38 426.526 299.639 426.704 299.969C426.885 300.298 426.975 300.71 426.975 301.204V306.182H425.29V305.16H425.232C425.125 305.366 424.975 305.56 424.781 305.741C424.591 305.919 424.35 306.062 424.06 306.172C423.773 306.278 423.435 306.332 423.048 306.332ZM423.503 305.044C423.855 305.044 424.16 304.974 424.418 304.835C424.676 304.693 424.875 304.506 425.014 304.274C425.156 304.041 425.227 303.788 425.227 303.513V302.637C425.172 302.682 425.078 302.724 424.946 302.763C424.817 302.802 424.672 302.836 424.51 302.865C424.349 302.894 424.189 302.919 424.031 302.942C423.873 302.965 423.735 302.984 423.619 303C423.358 303.036 423.124 303.094 422.917 303.174C422.71 303.255 422.547 303.368 422.428 303.513C422.308 303.655 422.249 303.84 422.249 304.065C422.249 304.388 422.367 304.632 422.602 304.797C422.838 304.961 423.138 305.044 423.503 305.044ZM432.52 298.744V300.1H428.244V298.744H432.52ZM429.3 296.962H431.053V303.944C431.053 304.18 431.088 304.361 431.159 304.487C431.234 304.609 431.33 304.693 431.45 304.739C431.569 304.784 431.702 304.806 431.847 304.806C431.957 304.806 432.057 304.798 432.147 304.782C432.241 304.766 432.312 304.752 432.36 304.739L432.656 306.109C432.562 306.141 432.428 306.177 432.254 306.216C432.083 306.254 431.873 306.277 431.624 306.283C431.185 306.296 430.79 306.23 430.438 306.085C430.086 305.936 429.807 305.707 429.6 305.397C429.397 305.087 429.297 304.7 429.3 304.235V296.962ZM437.267 306.327C436.521 306.327 435.877 306.172 435.335 305.862C434.796 305.549 434.381 305.107 434.091 304.535C433.8 303.961 433.655 303.284 433.655 302.506C433.655 301.741 433.8 301.07 434.091 300.492C434.384 299.911 434.794 299.459 435.321 299.136C435.847 298.81 436.465 298.647 437.175 298.647C437.634 298.647 438.066 298.721 438.473 298.87C438.883 299.015 439.245 299.241 439.558 299.547C439.874 299.854 440.123 300.245 440.303 300.719C440.484 301.191 440.575 301.752 440.575 302.405V302.942H434.478V301.76H438.894C438.891 301.425 438.818 301.126 438.676 300.865C438.534 300.6 438.336 300.392 438.081 300.24C437.829 300.088 437.535 300.012 437.199 300.012C436.841 300.012 436.526 300.1 436.255 300.274C435.984 300.445 435.773 300.671 435.621 300.952C435.472 301.229 435.396 301.534 435.393 301.867V302.898C435.393 303.331 435.472 303.702 435.63 304.012C435.789 304.319 436.01 304.555 436.294 304.719C436.578 304.881 436.91 304.961 437.291 304.961C437.546 304.961 437.777 304.926 437.984 304.855C438.191 304.781 438.37 304.672 438.521 304.53C438.673 304.388 438.788 304.212 438.865 304.003L440.502 304.187C440.399 304.619 440.202 304.997 439.911 305.32C439.624 305.639 439.256 305.888 438.807 306.065C438.358 306.24 437.845 306.327 437.267 306.327Z" fill="black" fill-opacity="0.5"/>
</g>
<rect x="386.62" y="0.619835" width="298.76" height="329.752" rx="14.2562" stroke="#E7E5E4" stroke-width="1.23967"/>
<defs>
<clipPath id="clip0_1149_24117">
<rect x="386" width="300" height="330.992" rx="14.876" fill="white"/>
</clipPath>
<clipPath id="clip1_1149_24117">
<rect x="495.909" y="164.876" width="170.244" height="29.7521" rx="6.19835" fill="white"/>
</clipPath>
</defs>
</svg>
