<svg width="995" height="267" viewBox="0 0 995 267" fill="none" xmlns="http://www.w3.org/2000/svg">
<path d="M252 133C252 137.418 255.582 141 260 141C264.418 141 268 137.418 268 133C268 128.582 264.418 125 260 125C255.582 125 252 128.582 252 133ZM371 134.5L386 141.66L386 124.34L371 131.5L371 134.5ZM260 133L260 134.5L372.5 134.5L372.5 133L372.5 131.5L260 131.5L260 133Z" fill="#9333EA"/>
<path d="M643 131.5L628 124.34L628 141.66L643 134.5L643 131.5ZM746 133C746 137.418 749.582 141 754 141C758.418 141 762 137.418 762 133C762 128.582 758.418 125 754 125C749.582 125 746 128.582 746 133ZM641.5 133L641.5 134.5L754 134.5L754 133L754 131.5L641.5 131.5L641.5 133Z" fill="#9333EA"/>
<path d="M756 98.6211H992.409C993.171 98.6211 993.788 99.2382 993.788 100V167.725C993.788 168.486 993.171 169.104 992.409 169.104H756C755.238 169.104 754.621 168.486 754.621 167.725V100C754.621 99.2382 755.238 98.6211 756 98.6211Z" fill="#FFFBEB"/>
<path d="M756 98.6211H992.409C993.171 98.6211 993.788 99.2382 993.788 100V167.725C993.788 168.486 993.171 169.104 992.409 169.104H756C755.238 169.104 754.621 168.486 754.621 167.725V100C754.621 99.2382 755.238 98.6211 756 98.6211Z" stroke="#1C1917" stroke-width="1.24138"/>
<path d="M798.728 136.966C798.893 136.967 799.051 137.032 799.167 137.149L802.878 140.885C802.994 141.002 803.059 141.16 803.058 141.324C803.058 141.489 802.992 141.647 802.875 141.763L799.139 145.474C799.023 145.59 798.864 145.655 798.699 145.654C798.535 145.654 798.377 145.588 798.261 145.471L794.55 141.735C794.434 141.619 794.369 141.46 794.37 141.295C794.371 141.131 794.436 140.973 794.553 140.857L798.289 137.146C798.406 137.03 798.564 136.966 798.728 136.966ZM791.305 129.493C791.469 129.494 791.628 129.559 791.744 129.676L795.455 133.412C795.571 133.529 795.635 133.687 795.635 133.851C795.634 134.016 795.569 134.174 795.452 134.29L791.716 138.001C791.599 138.117 791.44 138.182 791.276 138.181C791.111 138.181 790.954 138.115 790.838 137.998L787.127 134.262C787.011 134.146 786.946 133.987 786.947 133.822C786.947 133.658 787.013 133.5 787.13 133.384L790.866 129.673C790.982 129.557 791.14 129.493 791.305 129.493ZM806.201 129.543C806.366 129.543 806.524 129.609 806.64 129.726L810.351 133.462C810.467 133.578 810.532 133.736 810.531 133.901C810.531 134.065 810.465 134.224 810.348 134.34L806.612 138.051C806.495 138.167 806.337 138.232 806.172 138.231C806.008 138.23 805.85 138.165 805.734 138.048L802.023 134.312C801.907 134.195 801.842 134.036 801.843 133.872C801.844 133.707 801.909 133.55 802.026 133.434L805.762 129.723C805.879 129.607 806.037 129.542 806.201 129.543ZM798.778 122.07C798.942 122.07 799.1 122.136 799.216 122.253L802.928 125.989C803.044 126.105 803.108 126.263 803.108 126.428C803.107 126.592 803.042 126.751 802.925 126.867L799.189 130.578C799.072 130.694 798.913 130.759 798.749 130.758C798.584 130.757 798.427 130.692 798.311 130.575L794.6 126.839C794.484 126.722 794.419 126.563 794.419 126.399C794.42 126.234 794.486 126.077 794.603 125.961L798.339 122.25C798.455 122.134 798.613 122.069 798.778 122.07Z" fill="#292524" stroke="#44403C" stroke-width="1.24138"/>
<path d="M825.602 142.862V125.483H827.688V133.204H835.831V125.483H837.917V142.862H835.831V135.091H827.688V142.862H825.602ZM847.581 143.21C846.356 143.21 845.272 142.953 844.329 142.44C843.402 141.927 842.673 141.207 842.144 140.28C841.631 139.337 841.374 138.228 841.374 136.953V136.631C841.374 135.373 841.631 134.272 842.144 133.329C842.673 132.385 843.402 131.657 844.329 131.144C845.272 130.631 846.356 130.374 847.581 130.374C848.806 130.374 849.882 130.631 850.809 131.144C851.752 131.657 852.48 132.385 852.993 133.329C853.523 134.272 853.788 135.373 853.788 136.631V136.953C853.788 138.228 853.523 139.337 852.993 140.28C852.48 141.207 851.752 141.927 850.809 142.44C849.882 142.953 848.806 143.21 847.581 143.21ZM847.581 141.447C848.872 141.447 849.898 141.042 850.66 140.231C851.438 139.403 851.827 138.294 851.827 136.904V136.68C851.827 135.29 851.438 134.189 850.66 133.378C849.898 132.551 848.872 132.137 847.581 132.137C846.307 132.137 845.28 132.551 844.502 133.378C843.724 134.189 843.336 135.29 843.336 136.68V136.904C843.336 138.294 843.724 139.403 844.502 140.231C845.28 141.042 846.307 141.447 847.581 141.447ZM859.887 142.862L855.542 130.722H857.628L861.277 141.397H861.625L865.275 130.722H867.36L863.015 142.862H859.887ZM875.244 143.21C874.019 143.21 872.944 142.953 872.017 142.44C871.09 141.911 870.37 141.174 869.857 140.231C869.344 139.287 869.087 138.195 869.087 136.953V136.655C869.087 135.397 869.344 134.297 869.857 133.353C870.37 132.41 871.081 131.682 871.992 131.169C872.902 130.639 873.945 130.374 875.12 130.374C876.262 130.374 877.272 130.622 878.149 131.119C879.026 131.599 879.713 132.294 880.21 133.204C880.706 134.115 880.955 135.182 880.955 136.407V137.301H871.048C871.098 138.609 871.52 139.635 872.315 140.38C873.109 141.108 874.102 141.472 875.294 141.472C876.337 141.472 877.139 141.232 877.702 140.752C878.265 140.272 878.695 139.701 878.993 139.039L880.681 139.858C880.433 140.371 880.086 140.884 879.639 141.397C879.208 141.911 878.637 142.341 877.926 142.689C877.23 143.036 876.337 143.21 875.244 143.21ZM871.073 135.687H878.968C878.902 134.562 878.513 133.684 877.801 133.055C877.106 132.426 876.212 132.112 875.12 132.112C874.011 132.112 873.101 132.426 872.389 133.055C871.677 133.684 871.239 134.562 871.073 135.687ZM884.376 142.862V130.722H886.287V132.211H886.635C886.85 131.682 887.181 131.293 887.628 131.044C888.075 130.796 888.663 130.672 889.391 130.672H890.831V132.46H889.267C888.39 132.46 887.678 132.708 887.132 133.204C886.602 133.684 886.337 134.437 886.337 135.464V142.862H884.376ZM905.797 143.21C904.539 143.21 903.414 142.986 902.421 142.54C901.428 142.093 900.641 141.422 900.062 140.529C899.499 139.618 899.218 138.484 899.218 137.127V136.606H901.279V137.127C901.279 138.567 901.701 139.643 902.545 140.355C903.389 141.05 904.473 141.397 905.797 141.397C907.155 141.397 908.189 141.091 908.901 140.479C909.612 139.866 909.968 139.097 909.968 138.17C909.968 137.524 909.803 137.011 909.472 136.631C909.157 136.25 908.71 135.944 908.131 135.712C907.552 135.464 906.873 135.249 906.095 135.066L904.804 134.744C903.795 134.479 902.901 134.156 902.123 133.775C901.345 133.395 900.732 132.898 900.286 132.286C899.855 131.657 899.64 130.854 899.64 129.877C899.64 128.901 899.88 128.057 900.36 127.345C900.857 126.633 901.543 126.087 902.421 125.706C903.315 125.326 904.341 125.135 905.499 125.135C906.675 125.135 907.726 125.342 908.652 125.756C909.596 126.153 910.332 126.749 910.862 127.544C911.408 128.322 911.681 129.306 911.681 130.498V131.541H909.621V130.498C909.621 129.654 909.439 128.975 909.075 128.462C908.727 127.949 908.239 127.569 907.61 127.32C906.997 127.072 906.294 126.948 905.499 126.948C904.357 126.948 903.439 127.204 902.743 127.717C902.048 128.214 901.701 128.926 901.701 129.853C901.701 130.465 901.85 130.962 902.148 131.342C902.446 131.723 902.868 132.037 903.414 132.286C903.96 132.517 904.614 132.724 905.375 132.906L906.666 133.229C907.676 133.444 908.578 133.742 909.372 134.123C910.183 134.487 910.829 134.992 911.309 135.637C911.789 136.266 912.029 137.094 912.029 138.12C912.029 139.146 911.772 140.04 911.259 140.802C910.746 141.563 910.018 142.159 909.075 142.589C908.148 143.003 907.055 143.21 905.797 143.21ZM919.782 142.862C919.087 142.862 918.549 142.672 918.168 142.291C917.804 141.911 917.622 141.389 917.622 140.727V132.435H913.973V130.722H917.622V126.402H919.584V130.722H923.556V132.435H919.584V140.429C919.584 140.926 919.824 141.174 920.304 141.174H923.01V142.862H919.782ZM930.384 143.21C929.54 143.21 928.771 143.061 928.075 142.763C927.38 142.465 926.834 142.035 926.437 141.472C926.04 140.909 925.841 140.222 925.841 139.411C925.841 138.584 926.04 137.905 926.437 137.375C926.834 136.829 927.38 136.424 928.075 136.159C928.771 135.877 929.548 135.737 930.409 135.737H934.506V134.843C934.506 133.982 934.249 133.304 933.736 132.807C933.24 132.311 932.495 132.062 931.502 132.062C930.525 132.062 929.764 132.302 929.217 132.782C928.671 133.246 928.299 133.875 928.1 134.669L926.263 134.073C926.462 133.395 926.776 132.782 927.206 132.236C927.637 131.673 928.208 131.226 928.92 130.895C929.648 130.548 930.517 130.374 931.526 130.374C933.082 130.374 934.291 130.78 935.151 131.591C936.012 132.385 936.442 133.511 936.442 134.967V140.454C936.442 140.951 936.674 141.199 937.137 141.199H938.255V142.862H936.542C935.995 142.862 935.557 142.713 935.226 142.415C934.895 142.101 934.729 141.687 934.729 141.174V141.05H934.431C934.249 141.364 934.001 141.695 933.686 142.043C933.388 142.374 932.975 142.647 932.445 142.862C931.915 143.094 931.228 143.21 930.384 143.21ZM930.608 141.522C931.766 141.522 932.702 141.182 933.413 140.504C934.142 139.809 934.506 138.84 934.506 137.599V137.326H930.484C929.706 137.326 929.06 137.5 928.547 137.847C928.051 138.178 927.802 138.683 927.802 139.362C927.802 140.04 928.059 140.57 928.572 140.951C929.102 141.331 929.78 141.522 930.608 141.522ZM944.61 142.862C943.915 142.862 943.377 142.672 942.996 142.291C942.632 141.911 942.45 141.389 942.45 140.727V132.435H938.8V130.722H942.45V126.402H944.411V130.722H948.384V132.435H944.411V140.429C944.411 140.926 944.651 141.174 945.131 141.174H947.837V142.862H944.61ZM956.685 143.21C955.461 143.21 954.385 142.953 953.458 142.44C952.531 141.911 951.811 141.174 951.298 140.231C950.785 139.287 950.528 138.195 950.528 136.953V136.655C950.528 135.397 950.785 134.297 951.298 133.353C951.811 132.41 952.523 131.682 953.433 131.169C954.343 130.639 955.386 130.374 956.561 130.374C957.703 130.374 958.713 130.622 959.59 131.119C960.468 131.599 961.154 132.294 961.651 133.204C962.148 134.115 962.396 135.182 962.396 136.407V137.301H952.49C952.539 138.609 952.961 139.635 953.756 140.38C954.55 141.108 955.543 141.472 956.735 141.472C957.778 141.472 958.581 141.232 959.143 140.752C959.706 140.272 960.137 139.701 960.434 139.039L962.123 139.858C961.874 140.371 961.527 140.884 961.08 141.397C960.65 141.911 960.079 142.341 959.367 142.689C958.672 143.036 957.778 143.21 956.685 143.21ZM952.514 135.687H960.41C960.343 134.562 959.954 133.684 959.243 133.055C958.548 132.426 957.654 132.112 956.561 132.112C955.452 132.112 954.542 132.426 953.83 133.055C953.119 133.684 952.68 134.562 952.514 135.687Z" fill="#44403C"/>
<path d="M0 99C0 97.8954 0.895431 97 2 97H258.409C259.514 97 260.409 97.8954 260.409 99V166.724C260.409 167.829 259.514 168.724 258.409 168.724H1.99999C0.89542 168.724 0 167.829 0 166.724V99Z" fill="#292524"/>
<path d="M44.7281 135.966C44.8927 135.967 45.051 136.032 45.167 136.149L48.8782 139.885C48.9941 140.002 49.0588 140.16 49.0584 140.324C49.0579 140.489 48.992 140.647 48.8753 140.763L45.1393 144.474C45.0225 144.59 44.8638 144.655 44.6993 144.654C44.5348 144.654 44.3773 144.588 44.2614 144.471L40.5501 140.735C40.4342 140.619 40.3694 140.46 40.37 140.295C40.3706 140.131 40.4364 139.973 40.5531 139.857L44.2891 136.146C44.4057 136.03 44.5637 135.966 44.7281 135.966ZM37.3047 128.493C37.4693 128.494 37.6275 128.559 37.7435 128.676L41.4548 132.412C41.5706 132.529 41.6354 132.687 41.635 132.851C41.6344 133.016 41.5686 133.174 41.4519 133.29L37.7159 137.001C37.5991 137.117 37.4404 137.182 37.2758 137.181C37.1114 137.181 36.9539 137.115 36.8379 136.998L33.1267 133.262C33.0107 133.146 32.946 132.987 32.9465 132.822C32.9472 132.658 33.013 132.5 33.1296 132.384L36.8656 128.673C36.9823 128.557 37.1403 128.493 37.3047 128.493ZM52.2011 128.543C52.3657 128.543 52.5239 128.609 52.6399 128.726L56.3512 132.462C56.467 132.578 56.5318 132.736 56.5314 132.901C56.5308 133.065 56.465 133.224 56.3483 133.34L52.6123 137.051C52.4955 137.167 52.3368 137.232 52.1722 137.231C52.0078 137.23 51.8502 137.165 51.7343 137.048L48.0231 133.312C47.9071 133.195 47.8424 133.036 47.8429 132.872C47.8436 132.707 47.9094 132.55 48.026 132.434L51.762 128.723C51.8787 128.607 52.0367 128.542 52.2011 128.543ZM44.7777 121.07C44.9422 121.07 45.1005 121.136 45.2165 121.253L48.9277 124.989C49.0436 125.105 49.1084 125.263 49.1079 125.428C49.1074 125.592 49.0416 125.751 48.9248 125.867L45.1888 129.578C45.072 129.694 44.9134 129.759 44.7488 129.758C44.5843 129.757 44.4268 129.692 44.3109 129.575L40.5997 125.839C40.4837 125.722 40.4189 125.563 40.4195 125.399C40.4201 125.234 40.4859 125.077 40.6026 124.961L44.3386 121.25C44.4553 121.134 44.6132 121.069 44.7777 121.07Z" fill="#FAFAFA" stroke="#FAFAFA" stroke-width="1.24138"/>
<path d="M70.7831 141.862V140H73.2162V126.345H70.7831V124.483H77.561C79.8452 124.483 81.6079 125.062 82.8493 126.221C84.1072 127.38 84.7362 129.159 84.7362 131.559V134.786C84.7362 137.203 84.1072 138.991 82.8493 140.149C81.6079 141.291 79.8452 141.862 77.561 141.862H70.7831ZM75.3017 139.975H77.561C79.2493 139.975 80.5238 139.562 81.3845 138.734C82.2452 137.906 82.6755 136.624 82.6755 134.886V131.484C82.6755 129.713 82.2452 128.422 81.3845 127.611C80.5238 126.8 79.2493 126.395 77.561 126.395H75.3017V139.975ZM93.7011 142.21C92.4763 142.21 91.4004 141.953 90.4735 141.44C89.5466 140.911 88.8266 140.174 88.3135 139.231C87.8004 138.287 87.5439 137.195 87.5439 135.953V135.655C87.5439 134.397 87.8004 133.297 88.3135 132.353C88.8266 131.41 89.5383 130.682 90.4487 130.169C91.359 129.639 92.4018 129.374 93.577 129.374C94.719 129.374 95.7287 129.622 96.6059 130.119C97.4832 130.599 98.1701 131.294 98.6666 132.204C99.1632 133.115 99.4114 134.182 99.4114 135.407V136.301H89.5052C89.5549 137.609 89.977 138.635 90.7714 139.38C91.5659 140.108 92.559 140.472 93.7508 140.472C94.7935 140.472 95.5963 140.232 96.159 139.752C96.7218 139.272 97.1521 138.701 97.4501 138.039L99.1383 138.858C98.8901 139.371 98.5425 139.884 98.0956 140.397C97.6652 140.911 97.0942 141.341 96.3825 141.689C95.6873 142.036 94.7935 142.21 93.7011 142.21ZM89.5301 134.687H97.4252C97.359 133.562 96.9701 132.684 96.2583 132.055C95.5632 131.426 94.6694 131.112 93.577 131.112C92.468 131.112 91.5577 131.426 90.8459 132.055C90.1342 132.684 89.6956 133.562 89.5301 134.687ZM104.707 141.862V131.435H100.983V129.722H104.707V126.618C104.707 125.956 104.889 125.435 105.253 125.054C105.634 124.673 106.172 124.483 106.867 124.483H109.921V126.171H107.413C106.917 126.171 106.668 126.42 106.668 126.916V129.722H110.492V131.435H106.668V141.862H104.707ZM116.813 142.21C115.969 142.21 115.199 142.061 114.504 141.763C113.809 141.465 113.262 141.035 112.865 140.472C112.468 139.909 112.269 139.222 112.269 138.411C112.269 137.584 112.468 136.905 112.865 136.375C113.262 135.829 113.809 135.424 114.504 135.159C115.199 134.877 115.977 134.737 116.838 134.737H120.934V133.843C120.934 132.982 120.678 132.304 120.164 131.807C119.668 131.311 118.923 131.062 117.93 131.062C116.953 131.062 116.192 131.302 115.646 131.782C115.1 132.246 114.727 132.875 114.529 133.669L112.691 133.073C112.89 132.395 113.204 131.782 113.635 131.236C114.065 130.673 114.636 130.226 115.348 129.895C116.076 129.548 116.945 129.374 117.955 129.374C119.511 129.374 120.719 129.78 121.58 130.591C122.44 131.385 122.871 132.511 122.871 133.967V139.454C122.871 139.951 123.102 140.199 123.566 140.199H124.683V141.862H122.97C122.424 141.862 121.985 141.713 121.654 141.415C121.323 141.101 121.158 140.687 121.158 140.174V140.05H120.86C120.678 140.364 120.429 140.695 120.115 141.043C119.817 141.374 119.403 141.647 118.873 141.862C118.344 142.094 117.657 142.21 116.813 142.21ZM117.036 140.522C118.195 140.522 119.13 140.182 119.842 139.504C120.57 138.809 120.934 137.84 120.934 136.599V136.326H116.912C116.134 136.326 115.489 136.5 114.975 136.847C114.479 137.178 114.231 137.683 114.231 138.362C114.231 139.04 114.487 139.57 115 139.951C115.53 140.331 116.209 140.522 117.036 140.522ZM131.697 142.086C130.82 142.086 130.009 141.895 129.264 141.515C128.535 141.134 127.956 140.571 127.526 139.826C127.112 139.065 126.905 138.146 126.905 137.071V129.722H128.866V136.922C128.866 138.13 129.164 139.007 129.76 139.553C130.373 140.1 131.192 140.373 132.218 140.373C133.377 140.373 134.329 139.992 135.073 139.231C135.818 138.469 136.191 137.335 136.191 135.829V129.722H138.152V141.862H136.24V139.802H135.893C135.628 140.381 135.173 140.911 134.527 141.391C133.882 141.854 132.938 142.086 131.697 142.086ZM142.256 141.862V124.483H144.217V141.862H142.256ZM152.811 141.862C152.116 141.862 151.578 141.672 151.197 141.291C150.833 140.911 150.651 140.389 150.651 139.727V131.435H147.001V129.722H150.651V125.402H152.612V129.722H156.585V131.435H152.612V139.429C152.612 139.926 152.852 140.174 153.332 140.174H156.038V141.862H152.811ZM171.824 142.21C170.566 142.21 169.441 141.986 168.448 141.54C167.455 141.093 166.668 140.422 166.089 139.529C165.526 138.618 165.245 137.484 165.245 136.127V135.606H167.306V136.127C167.306 137.567 167.728 138.643 168.572 139.355C169.416 140.05 170.5 140.397 171.824 140.397C173.181 140.397 174.216 140.091 174.928 139.479C175.639 138.866 175.995 138.097 175.995 137.17C175.995 136.524 175.83 136.011 175.499 135.631C175.184 135.25 174.737 134.944 174.158 134.712C173.579 134.464 172.9 134.249 172.122 134.066L170.831 133.744C169.821 133.479 168.928 133.156 168.15 132.775C167.372 132.395 166.759 131.898 166.312 131.286C165.882 130.657 165.667 129.854 165.667 128.877C165.667 127.901 165.907 127.057 166.387 126.345C166.884 125.633 167.57 125.087 168.448 124.706C169.341 124.326 170.368 124.135 171.526 124.135C172.701 124.135 173.752 124.342 174.679 124.756C175.623 125.153 176.359 125.749 176.889 126.544C177.435 127.322 177.708 128.306 177.708 129.498V130.541H175.648V129.498C175.648 128.654 175.466 127.975 175.101 127.462C174.754 126.949 174.266 126.569 173.637 126.32C173.024 126.072 172.321 125.948 171.526 125.948C170.384 125.948 169.466 126.204 168.77 126.717C168.075 127.214 167.728 127.926 167.728 128.853C167.728 129.465 167.877 129.962 168.175 130.342C168.472 130.723 168.895 131.037 169.441 131.286C169.987 131.517 170.641 131.724 171.402 131.906L172.693 132.229C173.703 132.444 174.605 132.742 175.399 133.123C176.21 133.487 176.856 133.992 177.336 134.637C177.816 135.266 178.056 136.094 178.056 137.12C178.056 138.146 177.799 139.04 177.286 139.802C176.773 140.563 176.045 141.159 175.101 141.589C174.175 142.003 173.082 142.21 171.824 142.21ZM185.809 141.862C185.114 141.862 184.576 141.672 184.195 141.291C183.831 140.911 183.649 140.389 183.649 139.727V131.435H179.999V129.722H183.649V125.402H185.61V129.722H189.583V131.435H185.61V139.429C185.61 139.926 185.85 140.174 186.33 140.174H189.037V141.862H185.809ZM196.411 142.21C195.567 142.21 194.797 142.061 194.102 141.763C193.407 141.465 192.861 141.035 192.464 140.472C192.066 139.909 191.868 139.222 191.868 138.411C191.868 137.584 192.066 136.905 192.464 136.375C192.861 135.829 193.407 135.424 194.102 135.159C194.797 134.877 195.575 134.737 196.436 134.737H200.533V133.843C200.533 132.982 200.276 132.304 199.763 131.807C199.266 131.311 198.522 131.062 197.529 131.062C196.552 131.062 195.791 131.302 195.244 131.782C194.698 132.246 194.326 132.875 194.127 133.669L192.29 133.073C192.489 132.395 192.803 131.782 193.233 131.236C193.664 130.673 194.235 130.226 194.946 129.895C195.675 129.548 196.544 129.374 197.553 129.374C199.109 129.374 200.317 129.78 201.178 130.591C202.039 131.385 202.469 132.511 202.469 133.967V139.454C202.469 139.951 202.701 140.199 203.164 140.199H204.282V141.862H202.569C202.022 141.862 201.584 141.713 201.253 141.415C200.922 141.101 200.756 140.687 200.756 140.174V140.05H200.458C200.276 140.364 200.028 140.695 199.713 141.043C199.415 141.374 199.002 141.647 198.472 141.862C197.942 142.094 197.255 142.21 196.411 142.21ZM196.635 140.522C197.793 140.522 198.729 140.182 199.44 139.504C200.169 138.809 200.533 137.84 200.533 136.599V136.326H196.511C195.733 136.326 195.087 136.5 194.574 136.847C194.077 137.178 193.829 137.683 193.829 138.362C193.829 139.04 194.086 139.57 194.599 139.951C195.129 140.331 195.807 140.522 196.635 140.522ZM210.637 141.862C209.942 141.862 209.404 141.672 209.023 141.291C208.659 140.911 208.477 140.389 208.477 139.727V131.435H204.827V129.722H208.477V125.402H210.438V129.722H214.41V131.435H210.438V139.429C210.438 139.926 210.678 140.174 211.158 140.174H213.864V141.862H210.637ZM222.712 142.21C221.488 142.21 220.412 141.953 219.485 141.44C218.558 140.911 217.838 140.174 217.325 139.231C216.812 138.287 216.555 137.195 216.555 135.953V135.655C216.555 134.397 216.812 133.297 217.325 132.353C217.838 131.41 218.55 130.682 219.46 130.169C220.37 129.639 221.413 129.374 222.588 129.374C223.73 129.374 224.74 129.622 225.617 130.119C226.494 130.599 227.181 131.294 227.678 132.204C228.174 133.115 228.423 134.182 228.423 135.407V136.301H218.517C218.566 137.609 218.988 138.635 219.783 139.38C220.577 140.108 221.57 140.472 222.762 140.472C223.805 140.472 224.608 140.232 225.17 139.752C225.733 139.272 226.163 138.701 226.461 138.039L228.15 138.858C227.901 139.371 227.554 139.884 227.107 140.397C226.677 140.911 226.106 141.341 225.394 141.689C224.699 142.036 223.805 142.21 222.712 142.21ZM218.541 134.687H226.437C226.37 133.562 225.981 132.684 225.27 132.055C224.574 131.426 223.681 131.112 222.588 131.112C221.479 131.112 220.569 131.426 219.857 132.055C219.146 132.684 218.707 133.562 218.541 134.687Z" fill="#FAFAFA"/>
<g clip-path="url(#clip0_1127_23040)">
<rect x="386" width="242" height="267" rx="13" fill="white"/>
<path d="M404.198 15.6455V23.5H402.775V15.6455H404.198ZM407.12 20.0483V23.5H405.732V17.6091H407.059V18.6101H407.128C407.264 18.2803 407.48 18.0182 407.776 17.8239C408.075 17.6295 408.445 17.5324 408.885 17.5324C409.291 17.5324 409.645 17.6193 409.947 17.7932C410.251 17.967 410.486 18.2189 410.653 18.5487C410.821 18.8786 410.904 19.2787 410.902 19.7491V23.5H409.514V19.9639C409.514 19.5702 409.411 19.2621 409.207 19.0396C409.005 18.8172 408.725 18.706 408.367 18.706C408.124 18.706 407.908 18.7597 407.719 18.867C407.532 18.9719 407.385 19.124 407.278 19.3234C407.173 19.5229 407.12 19.7645 407.12 20.0483ZM415.31 17.6091V18.683H411.923V17.6091H415.31ZM412.759 16.1977H414.148V21.7281C414.148 21.9148 414.176 22.058 414.232 22.1577C414.291 22.2548 414.368 22.3213 414.462 22.3571C414.557 22.3929 414.662 22.4108 414.777 22.4108C414.864 22.4108 414.943 22.4044 415.015 22.3916C415.089 22.3788 415.145 22.3673 415.183 22.3571L415.417 23.4425C415.343 23.468 415.237 23.4962 415.099 23.5268C414.963 23.5575 414.797 23.5754 414.6 23.5805C414.253 23.5908 413.939 23.5384 413.661 23.4233C413.382 23.3057 413.161 23.1241 412.997 22.8787C412.836 22.6332 412.757 22.3264 412.759 21.9582V16.1977ZM419.071 23.6151C418.48 23.6151 417.97 23.4923 417.54 23.2469C417.113 22.9989 416.785 22.6486 416.555 22.196C416.325 21.7409 416.21 21.2053 416.21 20.5891C416.21 19.9831 416.325 19.4513 416.555 18.9936C416.787 18.5334 417.112 18.1754 417.529 17.9197C417.946 17.6615 418.435 17.5324 418.998 17.5324C419.361 17.5324 419.703 17.5912 420.026 17.7088C420.35 17.8239 420.637 18.0028 420.885 18.2457C421.135 18.4886 421.332 18.798 421.475 19.1739C421.619 19.5472 421.69 19.992 421.69 20.5085V20.9342H416.862V19.9984H420.359C420.357 19.7325 420.299 19.496 420.187 19.2889C420.074 19.0793 419.917 18.9143 419.715 18.7942C419.516 18.674 419.283 18.6139 419.017 18.6139C418.733 18.6139 418.484 18.683 418.269 18.821C418.054 18.9565 417.887 19.1355 417.767 19.358C417.649 19.5778 417.589 19.8195 417.586 20.0828V20.8997C417.586 21.2423 417.649 21.5364 417.774 21.7818C417.9 22.0247 418.075 22.2114 418.3 22.3418C418.525 22.4696 418.788 22.5335 419.09 22.5335C419.292 22.5335 419.475 22.5054 419.638 22.4491C419.802 22.3903 419.944 22.3047 420.064 22.1922C420.184 22.0797 420.275 21.9403 420.336 21.7741L421.633 21.9199C421.551 22.2625 421.395 22.5616 421.165 22.8173C420.937 23.0705 420.646 23.2673 420.29 23.408C419.935 23.546 419.528 23.6151 419.071 23.6151ZM422.92 23.5V17.6091H424.266V18.5909H424.327C424.435 18.2509 424.619 17.9888 424.879 17.8047C425.143 17.618 425.443 17.5247 425.781 17.5247C425.857 17.5247 425.943 17.5286 426.038 17.5362C426.135 17.5413 426.215 17.5503 426.279 17.5631V18.8402C426.221 18.8197 426.127 18.8018 425.999 18.7865C425.874 18.7686 425.753 18.7597 425.635 18.7597C425.382 18.7597 425.154 18.8146 424.952 18.9246C424.753 19.032 424.596 19.1815 424.481 19.3733C424.366 19.5651 424.308 19.7862 424.308 20.0368V23.5H422.92ZM428.846 23.6189C428.473 23.6189 428.137 23.5524 427.838 23.4195C427.541 23.2839 427.306 23.0845 427.132 22.8212C426.961 22.5578 426.875 22.2331 426.875 21.847C426.875 21.5146 426.936 21.2398 427.059 21.0224C427.182 20.8051 427.349 20.6312 427.562 20.5009C427.774 20.3705 428.013 20.272 428.279 20.2055C428.547 20.1365 428.825 20.0866 429.111 20.056C429.456 20.0202 429.736 19.9882 429.951 19.9601C430.166 19.9294 430.322 19.8834 430.419 19.822C430.519 19.7581 430.568 19.6597 430.568 19.5267V19.5037C430.568 19.2148 430.483 18.9911 430.311 18.8325C430.14 18.674 429.893 18.5947 429.571 18.5947C429.231 18.5947 428.961 18.6689 428.762 18.8172C428.565 18.9655 428.432 19.1406 428.363 19.3426L427.067 19.1585C427.169 18.8006 427.338 18.5014 427.573 18.2611C427.808 18.0182 428.096 17.8366 428.436 17.7165C428.776 17.5937 429.152 17.5324 429.564 17.5324C429.847 17.5324 430.13 17.5656 430.411 17.6321C430.692 17.6986 430.949 17.8085 431.182 17.9619C431.415 18.1128 431.601 18.3186 431.742 18.5794C431.885 18.8402 431.957 19.1662 431.957 19.5574V23.5H430.622V22.6908H430.576C430.492 22.8544 430.373 23.0078 430.219 23.151C430.069 23.2916 429.878 23.4054 429.648 23.4923C429.42 23.5767 429.153 23.6189 428.846 23.6189ZM429.207 22.5987C429.486 22.5987 429.727 22.5437 429.932 22.4338C430.136 22.3213 430.294 22.173 430.404 21.9889C430.516 21.8048 430.572 21.6041 430.572 21.3868V20.6926C430.529 20.7284 430.455 20.7616 430.35 20.7923C430.248 20.823 430.132 20.8499 430.005 20.8729C429.877 20.8959 429.75 20.9163 429.625 20.9342C429.5 20.9521 429.391 20.9675 429.299 20.9803C429.092 21.0084 428.906 21.0544 428.743 21.1183C428.579 21.1822 428.45 21.2717 428.356 21.3868C428.261 21.4993 428.214 21.645 428.214 21.824C428.214 22.0797 428.307 22.2727 428.494 22.4031C428.68 22.5335 428.918 22.5987 429.207 22.5987ZM435.977 23.6151C435.389 23.6151 434.884 23.4859 434.462 23.2277C434.043 22.9695 433.72 22.6128 433.492 22.1577C433.267 21.7 433.155 21.1733 433.155 20.5776C433.155 19.9793 433.27 19.4513 433.5 18.9936C433.73 18.5334 434.055 18.1754 434.474 17.9197C434.896 17.6615 435.394 17.5324 435.97 17.5324C436.448 17.5324 436.871 17.6206 437.239 17.797C437.61 17.9709 437.905 18.2176 438.125 18.5372C438.345 18.8543 438.47 19.225 438.501 19.6494H437.174C437.12 19.3656 436.992 19.1291 436.79 18.9399C436.591 18.7482 436.324 18.6523 435.989 18.6523C435.705 18.6523 435.456 18.729 435.241 18.8824C435.026 19.0332 434.859 19.2506 434.739 19.5344C434.621 19.8182 434.562 20.1582 434.562 20.5545C434.562 20.956 434.621 21.3011 434.739 21.5901C434.856 21.8764 435.021 22.0976 435.233 22.2536C435.448 22.407 435.7 22.4837 435.989 22.4837C436.193 22.4837 436.376 22.4453 436.537 22.3686C436.701 22.2893 436.838 22.1756 436.948 22.0273C437.058 21.879 437.133 21.6987 437.174 21.4865H438.501C438.468 21.9033 438.345 22.2727 438.133 22.5949C437.921 22.9145 437.632 23.1651 437.266 23.3466C436.9 23.5256 436.471 23.6151 435.977 23.6151ZM442.638 17.6091V18.683H439.251V17.6091H442.638ZM440.087 16.1977H441.476V21.7281C441.476 21.9148 441.504 22.058 441.56 22.1577C441.619 22.2548 441.695 22.3213 441.79 22.3571C441.885 22.3929 441.989 22.4108 442.105 22.4108C442.191 22.4108 442.271 22.4044 442.342 22.3916C442.416 22.3788 442.473 22.3673 442.511 22.3571L442.745 23.4425C442.671 23.468 442.565 23.4962 442.427 23.5268C442.291 23.5575 442.125 23.5754 441.928 23.5805C441.58 23.5908 441.267 23.5384 440.988 23.4233C440.71 23.3057 440.489 23.1241 440.325 22.8787C440.164 22.6332 440.085 22.3264 440.087 21.9582V16.1977ZM443.854 23.5V17.6091H445.242V23.5H443.854ZM444.552 16.773C444.332 16.773 444.143 16.7001 443.984 16.5544C443.826 16.4061 443.746 16.2284 443.746 16.0213C443.746 15.8116 443.826 15.6339 443.984 15.4882C444.143 15.3399 444.332 15.2658 444.552 15.2658C444.774 15.2658 444.963 15.3399 445.119 15.4882C445.278 15.6339 445.357 15.8116 445.357 16.0213C445.357 16.2284 445.278 16.4061 445.119 16.5544C444.963 16.7001 444.774 16.773 444.552 16.773ZM449.294 23.6151C448.719 23.6151 448.22 23.4885 447.799 23.2354C447.377 22.9822 447.049 22.6281 446.817 22.173C446.587 21.7179 446.472 21.1861 446.472 20.5776C446.472 19.969 446.587 19.4359 446.817 18.9783C447.049 18.5206 447.377 18.1652 447.799 17.9121C448.22 17.6589 448.719 17.5324 449.294 17.5324C449.87 17.5324 450.368 17.6589 450.79 17.9121C451.212 18.1652 451.538 18.5206 451.768 18.9783C452.001 19.4359 452.117 19.969 452.117 20.5776C452.117 21.1861 452.001 21.7179 451.768 22.173C451.538 22.6281 451.212 22.9822 450.79 23.2354C450.368 23.4885 449.87 23.6151 449.294 23.6151ZM449.302 22.5028C449.614 22.5028 449.875 22.4172 450.084 22.2459C450.294 22.072 450.45 21.8393 450.552 21.5479C450.657 21.2564 450.71 20.9317 450.71 20.5737C450.71 20.2132 450.657 19.8872 450.552 19.5957C450.45 19.3017 450.294 19.0678 450.084 18.8939C449.875 18.72 449.614 18.6331 449.302 18.6331C448.982 18.6331 448.717 18.72 448.504 18.8939C448.295 19.0678 448.137 19.3017 448.033 19.5957C447.93 19.8872 447.879 20.2132 447.879 20.5737C447.879 20.9317 447.93 21.2564 448.033 21.5479C448.137 21.8393 448.295 22.072 448.504 22.2459C448.717 22.4172 448.982 22.5028 449.302 22.5028ZM454.739 20.0483V23.5H453.35V17.6091H454.677V18.6101H454.746C454.882 18.2803 455.098 18.0182 455.395 17.8239C455.694 17.6295 456.063 17.5324 456.503 17.5324C456.91 17.5324 457.264 17.6193 457.565 17.7932C457.87 17.967 458.105 18.2189 458.271 18.5487C458.44 18.8786 458.523 19.2787 458.52 19.7491V23.5H457.132V19.9639C457.132 19.5702 457.03 19.2621 456.825 19.0396C456.623 18.8172 456.343 18.706 455.985 18.706C455.742 18.706 455.526 18.7597 455.337 18.867C455.15 18.9719 455.003 19.124 454.896 19.3234C454.791 19.5229 454.739 19.7645 454.739 20.0483Z" fill="black" fill-opacity="0.9"/>
<path fill-rule="evenodd" clip-rule="evenodd" d="M612.908 15.0922C612.95 15.1347 612.984 15.1853 613.007 15.241C613.03 15.2967 613.042 15.3564 613.042 15.4167C613.042 15.477 613.03 15.5367 613.007 15.5923C612.984 15.648 612.95 15.6986 612.908 15.7412L608.648 20L612.908 24.2588C612.994 24.3449 613.042 24.4616 613.042 24.5833C613.042 24.705 612.994 24.8218 612.908 24.9078C612.822 24.9939 612.705 25.0423 612.583 25.0423C612.461 25.0423 612.345 24.9939 612.259 24.9078L608 20.6481L603.741 24.9078C603.655 24.9939 603.538 25.0423 603.416 25.0423C603.295 25.0423 603.178 24.9939 603.092 24.9078C603.006 24.8218 602.958 24.705 602.958 24.5833C602.958 24.4616 603.006 24.3449 603.092 24.2588L607.352 20L603.092 15.7412C603.006 15.6551 602.958 15.5384 602.958 15.4168C602.958 15.2952 603.006 15.1786 603.092 15.0926C603.178 15.0067 603.295 14.9585 603.417 14.9585C603.538 14.9586 603.655 15.007 603.741 15.0931L608 19.3519L612.259 15.0922C612.301 15.0495 612.352 15.0156 612.407 14.9925C612.463 14.9694 612.523 14.9575 612.583 14.9575C612.643 14.9575 612.703 14.9694 612.759 14.9925C612.814 15.0156 612.865 15.0495 612.908 15.0922Z" fill="black" fill-opacity="0.9"/>
<path fill-rule="evenodd" clip-rule="evenodd" d="M584 14.5C584.122 14.5 584.238 14.5483 584.324 14.6342C584.41 14.7202 584.458 14.8368 584.458 14.9583V19.5417H589.042C589.163 19.5417 589.28 19.59 589.366 19.6759C589.452 19.7619 589.5 19.8784 589.5 20C589.5 20.1216 589.452 20.2381 589.366 20.3241C589.28 20.41 589.163 20.4583 589.042 20.4583H584.458V25.0417C584.458 25.1632 584.41 25.2798 584.324 25.3658C584.238 25.4517 584.122 25.5 584 25.5C583.878 25.5 583.762 25.4517 583.676 25.3658C583.59 25.2798 583.542 25.1632 583.542 25.0417V20.4583H578.958C578.837 20.4583 578.72 20.41 578.634 20.3241C578.548 20.2381 578.5 20.1216 578.5 20C578.5 19.8784 578.548 19.7619 578.634 19.6759C578.72 19.59 578.837 19.5417 578.958 19.5417H583.542V14.9583C583.542 14.8368 583.59 14.7202 583.676 14.6342C583.762 14.5483 583.878 14.5 584 14.5Z" fill="black" fill-opacity="0.9"/>
<path d="M402.476 60.6656V59.6455H408.554V60.6656H406.104V67.5H404.922V60.6656H402.476ZM409.249 67.5V61.6091H410.357V62.5449H410.419C410.526 62.2278 410.715 61.9786 410.986 61.797C411.26 61.6129 411.569 61.5209 411.914 61.5209C411.986 61.5209 412.07 61.5234 412.168 61.5286C412.267 61.5337 412.345 61.5401 412.401 61.5477V62.6446C412.355 62.6318 412.274 62.6178 412.156 62.6024C412.038 62.5845 411.921 62.5756 411.803 62.5756C411.532 62.5756 411.291 62.6331 411.078 62.7482C410.869 62.8607 410.702 63.0179 410.58 63.2199C410.457 63.4193 410.396 63.6469 410.396 63.9026V67.5H409.249ZM413.449 67.5V61.6091H414.596V67.5H413.449ZM414.028 60.7001C413.829 60.7001 413.657 60.6337 413.514 60.5007C413.373 60.3652 413.303 60.2041 413.303 60.0175C413.303 59.8283 413.373 59.6672 413.514 59.5342C413.657 59.3987 413.829 59.331 414.028 59.331C414.227 59.331 414.397 59.3987 414.538 59.5342C414.681 59.6672 414.753 59.8283 414.753 60.0175C414.753 60.2041 414.681 60.3652 414.538 60.5007C414.397 60.6337 414.227 60.7001 414.028 60.7001ZM418.663 69.8318C418.195 69.8318 417.793 69.7705 417.455 69.6477C417.12 69.525 416.847 69.3626 416.634 69.1607C416.422 68.9587 416.264 68.7375 416.159 68.4972L417.144 68.0906C417.213 68.2031 417.306 68.322 417.421 68.4473C417.538 68.5751 417.697 68.6838 417.896 68.7733C418.098 68.8628 418.358 68.9075 418.675 68.9075C419.109 68.9075 419.469 68.8014 419.752 68.5892C420.036 68.3795 420.178 68.0446 420.178 67.5844V66.4261H420.105C420.036 66.5514 419.936 66.6908 419.806 66.8442C419.678 66.9976 419.502 67.1305 419.277 67.243C419.052 67.3555 418.759 67.4118 418.399 67.4118C417.933 67.4118 417.514 67.3031 417.141 67.0858C416.77 66.8659 416.476 66.5425 416.259 66.1155C416.044 65.6859 415.936 65.158 415.936 64.5315C415.936 63.9051 416.042 63.3682 416.255 62.9207C416.469 62.4733 416.763 62.1307 417.137 61.8929C417.51 61.6526 417.933 61.5324 418.406 61.5324C418.772 61.5324 419.067 61.5937 419.292 61.7165C419.517 61.8366 419.692 61.9773 419.818 62.1384C419.945 62.2994 420.044 62.4413 420.113 62.5641H420.197V61.6091H421.321V67.6304C421.321 68.1366 421.203 68.5521 420.968 68.8768C420.733 69.2016 420.415 69.4419 420.013 69.5979C419.614 69.7538 419.164 69.8318 418.663 69.8318ZM418.652 66.4607C418.982 66.4607 419.26 66.3839 419.488 66.2305C419.718 66.0746 419.892 65.8521 420.009 65.5632C420.13 65.2717 420.19 64.9227 420.19 64.5162C420.19 64.1199 420.131 63.7709 420.013 63.4692C419.896 63.1675 419.723 62.9322 419.495 62.7635C419.268 62.5922 418.987 62.5065 418.652 62.5065C418.307 62.5065 418.019 62.596 417.789 62.775C417.559 62.9514 417.385 63.1918 417.267 63.496C417.152 63.8003 417.095 64.1403 417.095 64.5162C417.095 64.9023 417.153 65.2411 417.271 65.5325C417.389 65.824 417.562 66.0516 417.793 66.2152C418.025 66.3788 418.312 66.4607 418.652 66.4607ZM425.384 69.8318C424.916 69.8318 424.513 69.7705 424.176 69.6477C423.841 69.525 423.567 69.3626 423.355 69.1607C423.143 68.9587 422.984 68.7375 422.879 68.4972L423.865 68.0906C423.934 68.2031 424.026 68.322 424.141 68.4473C424.259 68.5751 424.417 68.6838 424.617 68.7733C424.819 68.8628 425.078 68.9075 425.395 68.9075C425.83 68.9075 426.189 68.8014 426.473 68.5892C426.757 68.3795 426.899 68.0446 426.899 67.5844V66.4261H426.826C426.757 66.5514 426.657 66.6908 426.527 66.8442C426.399 66.9976 426.222 67.1305 425.997 67.243C425.772 67.3555 425.48 67.4118 425.119 67.4118C424.654 67.4118 424.235 67.3031 423.861 67.0858C423.49 66.8659 423.196 66.5425 422.979 66.1155C422.764 65.6859 422.657 65.158 422.657 64.5315C422.657 63.9051 422.763 63.3682 422.975 62.9207C423.19 62.4733 423.484 62.1307 423.857 61.8929C424.231 61.6526 424.654 61.5324 425.127 61.5324C425.492 61.5324 425.788 61.5937 426.013 61.7165C426.238 61.8366 426.413 61.9773 426.538 62.1384C426.666 62.2994 426.764 62.4413 426.834 62.5641H426.918V61.6091H428.042V67.6304C428.042 68.1366 427.924 68.5521 427.689 68.8768C427.454 69.2016 427.135 69.4419 426.734 69.5979C426.335 69.7538 425.885 69.8318 425.384 69.8318ZM425.372 66.4607C425.702 66.4607 425.981 66.3839 426.208 66.2305C426.439 66.0746 426.612 65.8521 426.73 65.5632C426.85 65.2717 426.91 64.9227 426.91 64.5162C426.91 64.1199 426.851 63.7709 426.734 63.4692C426.616 63.1675 426.444 62.9322 426.216 62.7635C425.989 62.5922 425.707 62.5065 425.372 62.5065C425.027 62.5065 424.739 62.596 424.509 62.775C424.279 62.9514 424.105 63.1918 423.988 63.496C423.873 63.8003 423.815 64.1403 423.815 64.5162C423.815 64.9023 423.874 65.2411 423.992 65.5325C424.109 65.824 424.283 66.0516 424.513 66.2152C424.746 66.3788 425.032 66.4607 425.372 66.4607ZM432.173 67.6189C431.593 67.6189 431.093 67.4949 430.674 67.2469C430.257 66.9963 429.935 66.6447 429.707 66.1922C429.482 65.7371 429.37 65.204 429.37 64.5929C429.37 63.9895 429.482 63.4577 429.707 62.9974C429.935 62.5372 430.252 62.178 430.659 61.9197C431.068 61.6615 431.546 61.5324 432.093 61.5324C432.425 61.5324 432.747 61.5874 433.059 61.6973C433.371 61.8072 433.651 61.9798 433.899 62.2151C434.147 62.4503 434.343 62.7558 434.486 63.1317C434.629 63.505 434.701 63.9588 434.701 64.4932V64.8997H430.018V64.0406H433.577C433.577 63.7389 433.516 63.4717 433.393 63.2391C433.27 63.0038 433.098 62.8185 432.875 62.683C432.655 62.5474 432.397 62.4797 432.101 62.4797C431.778 62.4797 431.497 62.5589 431.257 62.7175C431.019 62.8734 430.835 63.078 430.705 63.3311C430.577 63.5817 430.513 63.854 430.513 64.148V64.8192C430.513 65.2129 430.582 65.5479 430.72 65.824C430.861 66.1001 431.056 66.3111 431.307 66.4568C431.557 66.6 431.85 66.6716 432.185 66.6716C432.402 66.6716 432.6 66.6409 432.779 66.5795C432.958 66.5156 433.113 66.421 433.244 66.2957C433.374 66.1705 433.474 66.0158 433.543 65.8317L434.628 66.0273C434.541 66.3469 434.385 66.6268 434.16 66.8672C433.938 67.105 433.658 67.2903 433.32 67.4233C432.985 67.5537 432.603 67.6189 432.173 67.6189ZM436.028 67.5V61.6091H437.137V62.5449H437.198C437.305 62.2278 437.495 61.9786 437.766 61.797C438.039 61.6129 438.349 61.5209 438.694 61.5209C438.765 61.5209 438.85 61.5234 438.947 61.5286C439.047 61.5337 439.125 61.5401 439.181 61.5477V62.6446C439.135 62.6318 439.053 62.6178 438.935 62.6024C438.818 62.5845 438.7 62.5756 438.582 62.5756C438.311 62.5756 438.07 62.6331 437.858 62.7482C437.648 62.8607 437.482 63.0179 437.359 63.2199C437.236 63.4193 437.175 63.6469 437.175 63.9026V67.5H436.028Z" fill="black" fill-opacity="0.5"/>
<rect x="475.16" y="52.5" width="136.33" height="23" rx="4.5" fill="white"/>
<rect x="475.16" y="52.5" width="136.33" height="23" rx="4.5" stroke="#E6E6E6"/>
<path fill-rule="evenodd" clip-rule="evenodd" d="M487.66 58C487.262 58 486.881 58.158 486.599 58.4393C486.318 58.7206 486.16 59.1022 486.16 59.5C486.16 59.8978 486.318 60.2794 486.599 60.5607C486.881 60.842 487.262 61 487.66 61C488.058 61 488.44 60.842 488.721 60.5607C489.002 60.2794 489.16 59.8978 489.16 59.5C489.16 59.1022 489.002 58.7206 488.721 58.4393C488.44 58.158 488.058 58 487.66 58ZM485.16 59.5C485.16 58.837 485.424 58.2011 485.892 57.7322C486.361 57.2634 486.997 57 487.66 57C488.323 57 488.959 57.2634 489.428 57.7322C489.897 58.2011 490.16 58.837 490.16 59.5C490.16 60.163 489.897 60.7989 489.428 61.2678C488.959 61.7366 488.323 62 487.66 62C486.997 62 486.361 61.7366 485.892 61.2678C485.424 60.7989 485.16 60.163 485.16 59.5ZM481.66 67.603V68C481.66 68.156 481.74 68.36 482.007 68.603C482.274 68.846 482.689 69.088 483.243 69.301C484.35 69.726 485.91 70 487.66 70C489.41 70 490.971 69.726 492.077 69.301C492.631 69.088 493.046 68.846 493.313 68.603C493.58 68.36 493.66 68.156 493.66 68V67.603C493.316 67.846 492.9 68.056 492.436 68.234C491.189 68.714 489.5 69 487.66 69C485.82 69 484.131 68.714 482.884 68.234C482.452 68.0739 482.041 67.862 481.66 67.603ZM481.66 66C481.66 66.156 481.74 66.36 482.007 66.603C482.274 66.846 482.689 67.088 483.243 67.301C484.35 67.726 485.91 68 487.66 68C489.41 68 490.971 67.726 492.077 67.301C492.631 67.088 493.046 66.846 493.313 66.603C493.58 66.36 493.66 66.156 493.66 66C493.66 65.844 493.58 65.64 493.313 65.397C493.046 65.154 492.631 64.912 492.077 64.699C490.97 64.274 489.41 64 487.66 64C485.91 64 484.349 64.274 483.243 64.699C482.689 64.912 482.274 65.154 482.007 65.397C481.74 65.64 481.66 65.844 481.66 66ZM480.66 66C480.66 65.466 480.944 65.012 481.334 64.657C481.724 64.302 482.263 64.005 482.884 63.766C484.131 63.286 485.82 63 487.66 63C489.5 63 491.189 63.286 492.436 63.766C493.057 64.005 493.595 64.302 493.986 64.657C494.376 65.012 494.66 65.466 494.66 66V68C494.66 68.535 494.376 68.988 493.986 69.343C493.596 69.698 493.057 69.995 492.436 70.234C491.189 70.714 489.5 71 487.66 71C485.82 71 484.131 70.714 482.884 70.234C482.263 69.995 481.725 69.698 481.334 69.343C480.944 68.988 480.66 68.535 480.66 68V66Z" fill="black" fill-opacity="0.5"/>
<g clip-path="url(#clip1_1127_23040)">
<path d="M502.061 67L499.883 59.1455H501.129L502.659 65.2281H502.732L504.324 59.1455H505.559L507.15 65.232H507.223L508.75 59.1455H510L507.818 67H506.625L504.972 61.1168H504.911L503.258 67H502.061ZM512.19 63.5023V67H511.043V59.1455H512.175V62.0679H512.248C512.386 61.7509 512.597 61.499 512.881 61.3124C513.164 61.1257 513.535 61.0324 513.993 61.0324C514.397 61.0324 514.75 61.1155 515.051 61.2817C515.356 61.4479 515.591 61.6959 515.757 62.0257C515.926 62.353 516.01 62.7621 516.01 63.253V67H514.863V63.3911C514.863 62.9589 514.752 62.624 514.53 62.3862C514.307 62.1459 513.998 62.0257 513.602 62.0257C513.331 62.0257 513.088 62.0832 512.873 62.1983C512.661 62.3134 512.493 62.4821 512.37 62.7045C512.25 62.9244 512.19 63.1903 512.19 63.5023ZM517.595 67V61.1091H518.742V67H517.595ZM518.174 60.2001C517.975 60.2001 517.804 60.1337 517.661 60.0007C517.52 59.8652 517.45 59.7041 517.45 59.5175C517.45 59.3283 517.52 59.1672 517.661 59.0342C517.804 58.8987 517.975 58.831 518.174 58.831C518.374 58.831 518.544 58.8987 518.685 59.0342C518.828 59.1672 518.899 59.3283 518.899 59.5175C518.899 59.7041 518.828 59.8652 518.685 60.0007C518.544 60.1337 518.374 60.2001 518.174 60.2001ZM521.487 59.1455V67H520.34V59.1455H521.487ZM525.623 67.1189C525.043 67.1189 524.543 66.9949 524.124 66.7469C523.707 66.4963 523.385 66.1447 523.157 65.6922C522.932 65.2371 522.82 64.704 522.82 64.0929C522.82 63.4895 522.932 62.9577 523.157 62.4974C523.385 62.0372 523.702 61.678 524.108 61.4197C524.517 61.1615 524.995 61.0324 525.543 61.0324C525.875 61.0324 526.197 61.0874 526.509 61.1973C526.821 61.3072 527.101 61.4798 527.349 61.7151C527.597 61.9503 527.793 62.2558 527.936 62.6317C528.079 63.005 528.151 63.4588 528.151 63.9932V64.3997H523.468V63.5406H527.027C527.027 63.2389 526.965 62.9717 526.843 62.7391C526.72 62.5038 526.547 62.3185 526.325 62.183C526.105 62.0474 525.847 61.9797 525.55 61.9797C525.228 61.9797 524.947 62.0589 524.707 62.2175C524.469 62.3734 524.285 62.578 524.154 62.8311C524.026 63.0817 523.963 63.354 523.963 63.648V64.3192C523.963 64.7129 524.032 65.0479 524.17 65.324C524.31 65.6001 524.506 65.8111 524.756 65.9568C525.007 66.1 525.3 66.1716 525.635 66.1716C525.852 66.1716 526.05 66.1409 526.229 66.0795C526.408 66.0156 526.563 65.921 526.693 65.7957C526.824 65.6705 526.923 65.5158 526.992 65.3317L528.078 65.5273C527.991 65.8469 527.835 66.1268 527.61 66.3672C527.387 66.605 527.107 66.7903 526.77 66.9233C526.435 67.0537 526.053 67.1189 525.623 67.1189ZM533.538 63.5023V67H532.391V59.1455H533.523V62.0679H533.595C533.733 61.7509 533.944 61.499 534.228 61.3124C534.512 61.1257 534.883 61.0324 535.34 61.0324C535.744 61.0324 536.097 61.1155 536.399 61.2817C536.703 61.4479 536.938 61.6959 537.105 62.0257C537.273 62.353 537.358 62.7621 537.358 63.253V67H536.211V63.3911C536.211 62.9589 536.1 62.624 535.877 62.3862C535.655 62.1459 535.346 62.0257 534.949 62.0257C534.678 62.0257 534.435 62.0832 534.221 62.1983C534.008 62.3134 533.841 62.4821 533.718 62.7045C533.598 62.9244 533.538 63.1903 533.538 63.5023ZM541.424 67.1189C540.872 67.1189 540.39 66.9923 539.979 66.7392C539.567 66.4861 539.247 66.132 539.02 65.6768C538.792 65.2217 538.678 64.6899 538.678 64.0814C538.678 63.4703 538.792 62.9359 539.02 62.4783C539.247 62.0206 539.567 61.6652 539.979 61.4121C540.39 61.1589 540.872 61.0324 541.424 61.0324C541.977 61.0324 542.459 61.1589 542.87 61.4121C543.282 61.6652 543.602 62.0206 543.829 62.4783C544.057 62.9359 544.17 63.4703 544.17 64.0814C544.17 64.6899 544.057 65.2217 543.829 65.6768C543.602 66.132 543.282 66.4861 542.87 66.7392C542.459 66.9923 541.977 67.1189 541.424 67.1189ZM541.428 66.1562C541.786 66.1562 542.083 66.0616 542.318 65.8724C542.553 65.6832 542.727 65.4314 542.84 65.1169C542.955 64.8024 543.012 64.456 543.012 64.0776C543.012 63.7017 542.955 63.3565 542.84 63.042C542.727 62.725 542.553 62.4706 542.318 62.2788C542.083 62.0871 541.786 61.9912 541.428 61.9912C541.068 61.9912 540.769 62.0871 540.531 62.2788C540.296 62.4706 540.12 62.725 540.005 63.042C539.893 63.3565 539.837 63.7017 539.837 64.0776C539.837 64.456 539.893 64.8024 540.005 65.1169C540.12 65.4314 540.296 65.6832 540.531 65.8724C540.769 66.0616 541.068 66.1562 541.428 66.1562ZM550.345 61.1091L548.208 67H546.981L544.841 61.1091H546.072L547.564 65.6423H547.625L549.113 61.1091H550.345ZM553.816 67.1189C553.235 67.1189 552.735 66.9949 552.316 66.7469C551.899 66.4963 551.577 66.1447 551.35 65.6922C551.125 65.2371 551.012 64.704 551.012 64.0929C551.012 63.4895 551.125 62.9577 551.35 62.4974C551.577 62.0372 551.894 61.678 552.301 61.4197C552.71 61.1615 553.188 61.0324 553.735 61.0324C554.068 61.0324 554.39 61.0874 554.702 61.1973C555.014 61.3072 555.294 61.4798 555.542 61.7151C555.79 61.9503 555.985 62.2558 556.128 62.6317C556.272 63.005 556.343 63.4588 556.343 63.9932V64.3997H551.66V63.5406H555.219C555.219 63.2389 555.158 62.9717 555.035 62.7391C554.913 62.5038 554.74 62.3185 554.518 62.183C554.298 62.0474 554.039 61.9797 553.743 61.9797C553.421 61.9797 553.139 62.0589 552.899 62.2175C552.661 62.3734 552.477 62.578 552.347 62.8311C552.219 63.0817 552.155 63.354 552.155 63.648V64.3192C552.155 64.7129 552.224 65.0479 552.362 65.324C552.503 65.6001 552.698 65.8111 552.949 65.9568C553.2 66.1 553.492 66.1716 553.827 66.1716C554.045 66.1716 554.243 66.1409 554.422 66.0795C554.601 66.0156 554.755 65.921 554.886 65.7957C555.016 65.6705 555.116 65.5158 555.185 65.3317L556.27 65.5273C556.183 65.8469 556.027 66.1268 555.802 66.3672C555.58 66.605 555.3 66.7903 554.962 66.9233C554.628 67.0537 554.245 67.1189 553.816 67.1189ZM557.67 67V61.1091H558.779V62.0449H558.84C558.948 61.7278 559.137 61.4786 559.408 61.297C559.681 61.1129 559.991 61.0209 560.336 61.0209C560.408 61.0209 560.492 61.0234 560.589 61.0286C560.689 61.0337 560.767 61.0401 560.823 61.0477V62.1446C560.777 62.1318 560.695 62.1178 560.578 62.1024C560.46 62.0845 560.342 62.0756 560.225 62.0756C559.954 62.0756 559.712 62.1331 559.5 62.2482C559.29 62.3607 559.124 62.5179 559.001 62.7199C558.879 62.9193 558.817 63.1469 558.817 63.4026V67H557.67ZM561.87 67V61.1091H563.017V67H561.87ZM562.45 60.2001C562.25 60.2001 562.079 60.1337 561.936 60.0007C561.795 59.8652 561.725 59.7041 561.725 59.5175C561.725 59.3283 561.795 59.1672 561.936 59.0342C562.079 58.8987 562.25 58.831 562.45 58.831C562.649 58.831 562.819 58.8987 562.96 59.0342C563.103 59.1672 563.174 59.3283 563.174 59.5175C563.174 59.7041 563.103 59.8652 562.96 60.0007C562.819 60.1337 562.649 60.2001 562.45 60.2001ZM565.762 63.5023V67H564.615V61.1091H565.716V62.0679H565.788C565.924 61.756 566.136 61.5054 566.425 61.3162C566.717 61.127 567.083 61.0324 567.526 61.0324C567.927 61.0324 568.279 61.1168 568.58 61.2855C568.882 61.4517 569.116 61.6997 569.282 62.0295C569.449 62.3594 569.532 62.7672 569.532 63.253V67H568.385V63.3911C568.385 62.9641 568.274 62.6304 568.051 62.3901C567.829 62.1472 567.523 62.0257 567.135 62.0257C566.869 62.0257 566.632 62.0832 566.425 62.1983C566.221 62.3134 566.058 62.4821 565.938 62.7045C565.82 62.9244 565.762 63.1903 565.762 63.5023ZM573.594 69.3318C573.127 69.3318 572.724 69.2705 572.386 69.1477C572.051 69.025 571.778 68.8626 571.566 68.6607C571.353 68.4587 571.195 68.2375 571.09 67.9972L572.076 67.5906C572.145 67.7031 572.237 67.822 572.352 67.9473C572.469 68.0751 572.628 68.1838 572.827 68.2733C573.029 68.3628 573.289 68.4075 573.606 68.4075C574.041 68.4075 574.4 68.3014 574.684 68.0892C574.967 67.8795 575.109 67.5446 575.109 67.0844V65.9261H575.036C574.967 66.0514 574.868 66.1908 574.737 66.3442C574.609 66.4976 574.433 66.6305 574.208 66.743C573.983 66.8555 573.69 66.9118 573.33 66.9118C572.864 66.9118 572.445 66.8031 572.072 66.5858C571.701 66.3659 571.407 66.0425 571.19 65.6155C570.975 65.1859 570.868 64.658 570.868 64.0315C570.868 63.4051 570.974 62.8682 571.186 62.4207C571.401 61.9733 571.695 61.6307 572.068 61.3929C572.441 61.1526 572.864 61.0324 573.337 61.0324C573.703 61.0324 573.998 61.0937 574.223 61.2165C574.448 61.3366 574.624 61.4773 574.749 61.6384C574.877 61.7994 574.975 61.9413 575.044 62.0641H575.129V61.1091H576.252V67.1304C576.252 67.6366 576.135 68.0521 575.899 68.3768C575.664 68.7016 575.346 68.9419 574.944 69.0979C574.546 69.2538 574.096 69.3318 573.594 69.3318ZM573.583 65.9607C573.913 65.9607 574.191 65.8839 574.419 65.7305C574.649 65.5746 574.823 65.3521 574.941 65.0632C575.061 64.7717 575.121 64.4227 575.121 64.0162C575.121 63.6199 575.062 63.2709 574.944 62.9692C574.827 62.6675 574.654 62.4322 574.427 62.2635C574.199 62.0922 573.918 62.0065 573.583 62.0065C573.238 62.0065 572.95 62.096 572.72 62.275C572.49 62.4514 572.316 62.6918 572.198 62.996C572.083 63.3003 572.026 63.6403 572.026 64.0162C572.026 64.4023 572.085 64.7411 572.202 65.0325C572.32 65.324 572.494 65.5516 572.724 65.7152C572.957 65.8788 573.243 65.9607 573.583 65.9607Z" fill="black" fill-opacity="0.9"/>
</g>
<path fill-rule="evenodd" clip-rule="evenodd" d="M596.636 62.6459C596.683 62.5994 596.738 62.5624 596.799 62.5372C596.859 62.512 596.924 62.499 596.99 62.499C597.056 62.499 597.121 62.512 597.182 62.5372C597.243 62.5624 597.298 62.5994 597.344 62.6459L598.99 64.2929L600.636 62.6459C600.683 62.5994 600.738 62.5626 600.799 62.5374C600.859 62.5122 600.924 62.4993 600.99 62.4993C601.056 62.4993 601.121 62.5122 601.182 62.5374C601.242 62.5626 601.298 62.5994 601.344 62.6459C601.391 62.6924 601.428 62.7476 601.453 62.8083C601.478 62.8691 601.491 62.9342 601.491 62.9999C601.491 63.0657 601.478 63.1308 601.453 63.1915C601.428 63.2522 601.391 63.3074 601.344 63.3539L599.344 65.3539C599.298 65.4005 599.243 65.4374 599.182 65.4626C599.121 65.4878 599.056 65.5008 598.99 65.5008C598.924 65.5008 598.859 65.4878 598.799 65.4626C598.738 65.4374 598.683 65.4005 598.636 65.3539L596.636 63.3539C596.59 63.3075 596.553 63.2523 596.527 63.1916C596.502 63.1308 596.489 63.0657 596.489 62.9999C596.489 62.9341 596.502 62.869 596.527 62.8083C596.553 62.7475 596.59 62.6924 596.636 62.6459Z" fill="black" fill-opacity="0.9"/>
<path d="M403.526 116.5H402.268L405.095 108.645H406.464L409.291 116.5H408.033L405.812 110.072H405.751L403.526 116.5ZM403.737 113.424H407.818V114.421H403.737V113.424ZM412.774 116.619C412.204 116.619 411.713 116.49 411.302 116.232C410.893 115.971 410.578 115.612 410.358 115.154C410.138 114.696 410.028 114.172 410.028 113.581C410.028 112.983 410.141 112.455 410.366 111.997C410.591 111.537 410.908 111.178 411.317 110.92C411.726 110.662 412.208 110.532 412.763 110.532C413.21 110.532 413.609 110.615 413.96 110.782C414.31 110.945 414.592 111.175 414.807 111.472C415.024 111.769 415.154 112.115 415.194 112.511H414.078C414.017 112.235 413.876 111.997 413.657 111.798C413.439 111.599 413.148 111.499 412.782 111.499C412.463 111.499 412.183 111.583 411.942 111.752C411.704 111.918 411.519 112.156 411.386 112.465C411.253 112.772 411.187 113.135 411.187 113.555C411.187 113.984 411.252 114.355 411.382 114.667C411.513 114.979 411.697 115.22 411.935 115.392C412.175 115.563 412.457 115.649 412.782 115.649C412.999 115.649 413.196 115.609 413.373 115.53C413.552 115.448 413.701 115.332 413.821 115.181C413.944 115.03 414.03 114.848 414.078 114.636H415.194C415.154 115.017 415.03 115.357 414.822 115.656C414.615 115.955 414.338 116.191 413.99 116.362C413.645 116.533 413.24 116.619 412.774 116.619ZM419.226 110.609V111.53H416.008V110.609H419.226ZM416.871 109.198H418.018V114.77C418.018 114.993 418.051 115.16 418.117 115.273C418.184 115.383 418.269 115.458 418.374 115.499C418.482 115.537 418.598 115.557 418.723 115.557C418.815 115.557 418.896 115.55 418.965 115.537C419.034 115.525 419.088 115.514 419.126 115.507L419.333 116.454C419.267 116.48 419.172 116.505 419.049 116.531C418.927 116.559 418.773 116.574 418.589 116.577C418.287 116.582 418.006 116.528 417.745 116.416C417.484 116.303 417.274 116.129 417.112 115.894C416.951 115.659 416.871 115.363 416.871 115.008V109.198ZM420.549 116.5V110.609H421.696V116.5H420.549ZM421.128 109.7C420.929 109.7 420.758 109.634 420.614 109.501C420.474 109.365 420.403 109.204 420.403 109.017C420.403 108.828 420.474 108.667 420.614 108.534C420.758 108.399 420.929 108.331 421.128 108.331C421.328 108.331 421.498 108.399 421.638 108.534C421.782 108.667 421.853 108.828 421.853 109.017C421.853 109.204 421.782 109.365 421.638 109.501C421.498 109.634 421.328 109.7 421.128 109.7ZM425.775 116.619C425.223 116.619 424.741 116.492 424.329 116.239C423.917 115.986 423.598 115.632 423.37 115.177C423.143 114.722 423.029 114.19 423.029 113.581C423.029 112.97 423.143 112.436 423.37 111.978C423.598 111.521 423.917 111.165 424.329 110.912C424.741 110.659 425.223 110.532 425.775 110.532C426.327 110.532 426.809 110.659 427.221 110.912C427.633 111.165 427.952 111.521 428.18 111.978C428.407 112.436 428.521 112.97 428.521 113.581C428.521 114.19 428.407 114.722 428.18 115.177C427.952 115.632 427.633 115.986 427.221 116.239C426.809 116.492 426.327 116.619 425.775 116.619ZM425.779 115.656C426.137 115.656 426.433 115.562 426.669 115.372C426.904 115.183 427.078 114.931 427.19 114.617C427.305 114.302 427.363 113.956 427.363 113.578C427.363 113.202 427.305 112.857 427.19 112.542C427.078 112.225 426.904 111.971 426.669 111.779C426.433 111.587 426.137 111.491 425.779 111.491C425.418 111.491 425.119 111.587 424.881 111.779C424.646 111.971 424.471 112.225 424.356 112.542C424.243 112.857 424.187 113.202 424.187 113.578C424.187 113.956 424.243 114.302 424.356 114.617C424.471 114.931 424.646 115.183 424.881 115.372C425.119 115.562 425.418 115.656 425.779 115.656ZM431.003 113.002V116.5H429.856V110.609H430.957V111.568H431.03C431.165 111.256 431.377 111.005 431.666 110.816C431.958 110.627 432.325 110.532 432.767 110.532C433.168 110.532 433.52 110.617 433.822 110.786C434.123 110.952 434.357 111.2 434.524 111.53C434.69 111.859 434.773 112.267 434.773 112.753V116.5H433.626V112.891C433.626 112.464 433.515 112.13 433.292 111.89C433.07 111.647 432.764 111.526 432.376 111.526C432.11 111.526 431.873 111.583 431.666 111.698C431.462 111.813 431.299 111.982 431.179 112.205C431.062 112.424 431.003 112.69 431.003 113.002Z" fill="black" fill-opacity="0.5"/>
<rect x="475.16" y="101.5" width="136.33" height="23" rx="4.5" fill="white"/>
<rect x="475.16" y="101.5" width="136.33" height="23" rx="4.5" stroke="#E6E6E6"/>
<path fill-rule="evenodd" clip-rule="evenodd" d="M491.522 109.824C490.894 109.06 490.053 108.5 489.107 108.214C488.16 107.928 487.15 107.929 486.204 108.217C485.258 108.505 484.419 109.067 483.792 109.832C483.166 110.597 482.78 111.531 482.684 112.515C482.678 112.58 482.659 112.644 482.628 112.702C482.597 112.76 482.555 112.811 482.504 112.853C482.453 112.894 482.395 112.926 482.332 112.945C482.269 112.964 482.203 112.971 482.138 112.964C482.072 112.958 482.009 112.939 481.951 112.908C481.893 112.877 481.841 112.835 481.8 112.784C481.758 112.733 481.727 112.675 481.708 112.612C481.688 112.549 481.682 112.483 481.688 112.418C481.808 111.184 482.307 110.018 483.117 109.08C483.926 108.142 485.006 107.477 486.209 107.177C487.411 106.877 488.677 106.957 489.832 107.406C490.987 107.855 491.975 108.65 492.66 109.683V107.5C492.66 107.367 492.713 107.24 492.807 107.146C492.9 107.052 493.028 107 493.16 107C493.293 107 493.42 107.052 493.514 107.146C493.607 107.24 493.66 107.367 493.66 107.5V110.5C493.66 110.632 493.607 110.76 493.514 110.853C493.42 110.947 493.293 111 493.16 111H490.16C490.028 111 489.9 110.947 489.807 110.853C489.713 110.76 489.66 110.632 489.66 110.5C489.66 110.367 489.713 110.24 489.807 110.146C489.9 110.052 490.028 110 490.16 110H491.66C491.615 109.94 491.569 109.881 491.522 109.824ZM493.182 113.036C493.248 113.042 493.311 113.061 493.369 113.092C493.427 113.123 493.479 113.165 493.52 113.215C493.562 113.266 493.594 113.325 493.613 113.387C493.632 113.45 493.639 113.516 493.632 113.582C493.512 114.815 493.013 115.981 492.204 116.919C491.394 117.858 490.314 118.523 489.112 118.822C487.909 119.122 486.643 119.042 485.488 118.593C484.333 118.145 483.345 117.349 482.66 116.317V118.5C482.66 118.632 482.607 118.76 482.514 118.853C482.42 118.947 482.293 119 482.16 119C482.028 119 481.9 118.947 481.807 118.853C481.713 118.76 481.66 118.632 481.66 118.5V115.5C481.66 115.367 481.713 115.24 481.807 115.146C481.9 115.052 482.028 115 482.16 115H485.16C485.293 115 485.42 115.052 485.514 115.146C485.607 115.24 485.66 115.367 485.66 115.5C485.66 115.632 485.607 115.76 485.514 115.853C485.42 115.947 485.293 116 485.16 116H483.66C483.705 116.06 483.751 116.118 483.798 116.176C484.426 116.939 485.267 117.5 486.213 117.786C487.16 118.072 488.17 118.071 489.116 117.783C490.062 117.495 490.901 116.933 491.528 116.168C492.154 115.403 492.54 114.47 492.636 113.486C492.642 113.42 492.662 113.357 492.692 113.299C492.723 113.24 492.765 113.189 492.816 113.147C492.867 113.105 492.926 113.074 492.989 113.055C493.052 113.036 493.118 113.029 493.183 113.036" fill="black" fill-opacity="0.5"/>
<path d="M507.184 111.602H505.965C505.918 111.341 505.831 111.112 505.703 110.914C505.576 110.716 505.419 110.548 505.234 110.41C505.049 110.272 504.842 110.168 504.613 110.098C504.387 110.027 504.146 109.992 503.891 109.992C503.43 109.992 503.017 110.108 502.652 110.34C502.29 110.572 502.004 110.911 501.793 111.359C501.585 111.807 501.48 112.354 501.48 113C501.48 113.651 501.585 114.201 501.793 114.648C502.004 115.096 502.292 115.435 502.656 115.664C503.021 115.893 503.431 116.008 503.887 116.008C504.139 116.008 504.379 115.974 504.605 115.906C504.835 115.836 505.042 115.733 505.227 115.598C505.411 115.462 505.568 115.297 505.695 115.102C505.826 114.904 505.915 114.677 505.965 114.422L507.184 114.426C507.118 114.819 506.992 115.181 506.805 115.512C506.62 115.84 506.382 116.124 506.09 116.363C505.801 116.6 505.47 116.784 505.098 116.914C504.725 117.044 504.319 117.109 503.879 117.109C503.186 117.109 502.569 116.945 502.027 116.617C501.486 116.286 501.059 115.814 500.746 115.199C500.436 114.585 500.281 113.852 500.281 113C500.281 112.146 500.438 111.413 500.75 110.801C501.063 110.186 501.49 109.715 502.031 109.387C502.573 109.056 503.189 108.891 503.879 108.891C504.303 108.891 504.699 108.952 505.066 109.074C505.436 109.194 505.768 109.371 506.062 109.605C506.357 109.837 506.6 110.121 506.793 110.457C506.986 110.79 507.116 111.172 507.184 111.602ZM509.757 113.437V117H508.589V109H509.742V111.977H509.816C509.956 111.654 510.171 111.397 510.46 111.207C510.749 111.017 511.127 110.922 511.593 110.922C512.005 110.922 512.364 111.007 512.671 111.176C512.981 111.345 513.221 111.598 513.39 111.934C513.562 112.267 513.648 112.684 513.648 113.184V117H512.48V113.324C512.48 112.884 512.367 112.543 512.14 112.301C511.913 112.056 511.598 111.934 511.195 111.934C510.919 111.934 510.671 111.992 510.452 112.109C510.236 112.227 510.066 112.398 509.941 112.625C509.818 112.849 509.757 113.12 509.757 113.437ZM517.007 117.133C516.627 117.133 516.284 117.063 515.976 116.922C515.669 116.779 515.425 116.572 515.246 116.301C515.069 116.03 514.98 115.698 514.98 115.305C514.98 114.966 515.045 114.687 515.175 114.469C515.306 114.25 515.481 114.077 515.703 113.949C515.924 113.822 516.172 113.725 516.445 113.66C516.718 113.595 516.997 113.546 517.281 113.512C517.64 113.47 517.932 113.436 518.156 113.41C518.38 113.382 518.543 113.336 518.644 113.273C518.746 113.211 518.797 113.109 518.797 112.969V112.941C518.797 112.6 518.7 112.336 518.507 112.148C518.317 111.961 518.034 111.867 517.656 111.867C517.263 111.867 516.953 111.954 516.726 112.129C516.502 112.301 516.347 112.492 516.261 112.703L515.164 112.453C515.294 112.089 515.484 111.794 515.734 111.57C515.987 111.344 516.277 111.18 516.605 111.078C516.933 110.974 517.278 110.922 517.64 110.922C517.88 110.922 518.134 110.951 518.402 111.008C518.673 111.062 518.925 111.164 519.16 111.312C519.397 111.461 519.591 111.673 519.742 111.949C519.893 112.223 519.968 112.578 519.968 113.016V117H518.828V116.18H518.781C518.705 116.331 518.592 116.479 518.441 116.625C518.29 116.771 518.096 116.892 517.859 116.988C517.622 117.085 517.338 117.133 517.007 117.133ZM517.261 116.195C517.584 116.195 517.86 116.132 518.089 116.004C518.321 115.876 518.497 115.71 518.617 115.504C518.739 115.296 518.8 115.073 518.8 114.836V114.062C518.759 114.104 518.678 114.143 518.558 114.18C518.441 114.214 518.307 114.243 518.156 114.27C518.005 114.293 517.858 114.315 517.714 114.336C517.571 114.354 517.451 114.37 517.355 114.383C517.129 114.411 516.922 114.46 516.734 114.527C516.549 114.595 516.401 114.693 516.289 114.82C516.179 114.945 516.125 115.112 516.125 115.32C516.125 115.609 516.231 115.828 516.445 115.977C516.659 116.122 516.931 116.195 517.261 116.195ZM522.747 113.437V117H521.579V111H522.7V111.977H522.774C522.912 111.659 523.129 111.404 523.423 111.211C523.72 111.018 524.093 110.922 524.544 110.922C524.953 110.922 525.311 111.008 525.618 111.18C525.925 111.349 526.164 111.602 526.333 111.937C526.502 112.273 526.587 112.689 526.587 113.184V117H525.419V113.324C525.419 112.889 525.306 112.549 525.079 112.305C524.853 112.057 524.541 111.934 524.145 111.934C523.875 111.934 523.634 111.992 523.423 112.109C523.214 112.227 523.049 112.398 522.927 112.625C522.807 112.849 522.747 113.12 522.747 113.437ZM530.724 119.375C530.247 119.375 529.837 119.313 529.493 119.188C529.152 119.063 528.874 118.897 528.657 118.691C528.441 118.486 528.28 118.26 528.173 118.016L529.177 117.602C529.247 117.716 529.341 117.837 529.458 117.965C529.578 118.095 529.74 118.206 529.943 118.297C530.148 118.388 530.413 118.434 530.736 118.434C531.178 118.434 531.544 118.326 531.833 118.109C532.122 117.896 532.267 117.555 532.267 117.086V115.906H532.193C532.122 116.034 532.021 116.176 531.888 116.332C531.758 116.488 531.578 116.624 531.349 116.738C531.12 116.853 530.822 116.91 530.454 116.91C529.98 116.91 529.553 116.799 529.173 116.578C528.796 116.354 528.496 116.025 528.275 115.59C528.056 115.152 527.947 114.615 527.947 113.977C527.947 113.339 528.055 112.792 528.271 112.336C528.49 111.88 528.789 111.531 529.169 111.289C529.549 111.044 529.98 110.922 530.462 110.922C530.835 110.922 531.135 110.984 531.365 111.109C531.594 111.232 531.772 111.375 531.9 111.539C532.03 111.703 532.13 111.848 532.2 111.973H532.286V111H533.431V117.133C533.431 117.648 533.311 118.072 533.072 118.402C532.832 118.733 532.508 118.978 532.099 119.137C531.693 119.296 531.234 119.375 530.724 119.375ZM530.712 115.941C531.048 115.941 531.332 115.863 531.564 115.707C531.798 115.548 531.975 115.322 532.095 115.027C532.217 114.73 532.279 114.375 532.279 113.961C532.279 113.557 532.219 113.202 532.099 112.895C531.979 112.587 531.803 112.348 531.572 112.176C531.34 112.001 531.053 111.914 530.712 111.914C530.361 111.914 530.068 112.005 529.833 112.188C529.599 112.367 529.422 112.612 529.302 112.922C529.185 113.232 529.126 113.578 529.126 113.961C529.126 114.354 529.186 114.699 529.306 114.996C529.426 115.293 529.603 115.525 529.837 115.691C530.074 115.858 530.366 115.941 530.712 115.941ZM537.638 117.121C537.047 117.121 536.538 116.995 536.111 116.742C535.686 116.487 535.358 116.129 535.127 115.668C534.897 115.204 534.783 114.661 534.783 114.039C534.783 113.424 534.897 112.883 535.127 112.414C535.358 111.945 535.681 111.579 536.095 111.316C536.512 111.053 536.999 110.922 537.556 110.922C537.895 110.922 538.223 110.978 538.541 111.09C538.858 111.202 539.143 111.378 539.396 111.617C539.649 111.857 539.848 112.168 539.994 112.551C540.14 112.931 540.213 113.393 540.213 113.937V114.352H535.443V113.477H539.068C539.068 113.169 539.005 112.897 538.88 112.66C538.755 112.421 538.58 112.232 538.353 112.094C538.129 111.956 537.866 111.887 537.564 111.887C537.236 111.887 536.949 111.967 536.705 112.129C536.463 112.288 536.275 112.496 536.142 112.754C536.012 113.009 535.947 113.286 535.947 113.586V114.27C535.947 114.671 536.017 115.012 536.158 115.293C536.301 115.574 536.5 115.789 536.755 115.937C537.011 116.083 537.309 116.156 537.65 116.156C537.871 116.156 538.073 116.125 538.255 116.062C538.438 115.997 538.595 115.901 538.728 115.773C538.861 115.646 538.963 115.488 539.033 115.301L540.138 115.5C540.05 115.826 539.891 116.111 539.662 116.355C539.435 116.598 539.15 116.786 538.806 116.922C538.465 117.055 538.076 117.121 537.638 117.121ZM547.33 111V111.937H544.053V111H547.33ZM544.932 109.562H546.1V115.238C546.1 115.465 546.134 115.635 546.201 115.75C546.269 115.862 546.356 115.939 546.463 115.98C546.572 116.02 546.691 116.039 546.819 116.039C546.912 116.039 546.994 116.033 547.065 116.02C547.135 116.007 547.19 115.996 547.229 115.988L547.44 116.953C547.372 116.979 547.276 117.005 547.151 117.031C547.026 117.06 546.869 117.076 546.682 117.078C546.375 117.083 546.088 117.029 545.822 116.914C545.557 116.799 545.342 116.622 545.178 116.383C545.014 116.143 544.932 115.842 544.932 115.48V109.562ZM551.14 117.121C550.578 117.121 550.087 116.992 549.668 116.734C549.248 116.477 548.923 116.116 548.691 115.652C548.459 115.189 548.343 114.647 548.343 114.027C548.343 113.405 548.459 112.861 548.691 112.395C548.923 111.928 549.248 111.566 549.668 111.309C550.087 111.051 550.578 110.922 551.14 110.922C551.703 110.922 552.194 111.051 552.613 111.309C553.032 111.566 553.358 111.928 553.589 112.395C553.821 112.861 553.937 113.405 553.937 114.027C553.937 114.647 553.821 115.189 553.589 115.652C553.358 116.116 553.032 116.477 552.613 116.734C552.194 116.992 551.703 117.121 551.14 117.121ZM551.144 116.141C551.509 116.141 551.811 116.044 552.05 115.852C552.29 115.659 552.467 115.402 552.582 115.082C552.699 114.762 552.757 114.409 552.757 114.023C552.757 113.641 552.699 113.289 552.582 112.969C552.467 112.646 552.29 112.387 552.05 112.191C551.811 111.996 551.509 111.898 551.144 111.898C550.777 111.898 550.472 111.996 550.23 112.191C549.99 112.387 549.812 112.646 549.695 112.969C549.58 113.289 549.523 113.641 549.523 114.023C549.523 114.409 549.58 114.762 549.695 115.082C549.812 115.402 549.99 115.659 550.23 115.852C550.472 116.044 550.777 116.141 551.144 116.141Z" fill="black" fill-opacity="0.9"/>
<path fill-rule="evenodd" clip-rule="evenodd" d="M596.636 111.646C596.683 111.599 596.738 111.562 596.799 111.537C596.859 111.512 596.924 111.499 596.99 111.499C597.056 111.499 597.121 111.512 597.182 111.537C597.243 111.562 597.298 111.599 597.344 111.646L598.99 113.293L600.636 111.646C600.683 111.599 600.738 111.563 600.799 111.537C600.859 111.512 600.924 111.499 600.99 111.499C601.056 111.499 601.121 111.512 601.182 111.537C601.242 111.563 601.298 111.599 601.344 111.646C601.391 111.692 601.428 111.748 601.453 111.808C601.478 111.869 601.491 111.934 601.491 112C601.491 112.066 601.478 112.131 601.453 112.192C601.428 112.252 601.391 112.307 601.344 112.354L599.344 114.354C599.298 114.4 599.243 114.437 599.182 114.463C599.121 114.488 599.056 114.501 598.99 114.501C598.924 114.501 598.859 114.488 598.799 114.463C598.738 114.437 598.683 114.4 598.636 114.354L596.636 112.354C596.59 112.307 596.553 112.252 596.527 112.192C596.502 112.131 596.489 112.066 596.489 112C596.489 111.934 596.502 111.869 596.527 111.808C596.553 111.748 596.59 111.692 596.636 111.646Z" fill="black" fill-opacity="0.9"/>
<path d="M407.147 143.209C407.106 142.846 406.937 142.564 406.641 142.365C406.344 142.163 405.971 142.062 405.521 142.062C405.199 142.062 404.92 142.113 404.685 142.215C404.449 142.315 404.267 142.453 404.136 142.63C404.008 142.804 403.944 143.002 403.944 143.224C403.944 143.411 403.988 143.572 404.075 143.707C404.164 143.843 404.281 143.957 404.424 144.049C404.57 144.138 404.726 144.214 404.892 144.275C405.058 144.334 405.218 144.382 405.371 144.421L406.138 144.62C406.389 144.682 406.646 144.765 406.909 144.869C407.172 144.974 407.417 145.112 407.642 145.284C407.867 145.455 408.048 145.667 408.186 145.92C408.327 146.173 408.397 146.476 408.397 146.829C408.397 147.274 408.282 147.669 408.052 148.014C407.824 148.36 407.493 148.632 407.059 148.831C406.627 149.031 406.104 149.13 405.49 149.13C404.902 149.13 404.393 149.037 403.964 148.85C403.534 148.664 403.198 148.399 402.955 148.057C402.712 147.711 402.578 147.302 402.552 146.829H403.741C403.764 147.113 403.856 147.35 404.017 147.539C404.181 147.725 404.389 147.865 404.642 147.957C404.898 148.046 405.178 148.091 405.482 148.091C405.817 148.091 406.115 148.039 406.376 147.934C406.639 147.826 406.846 147.678 406.997 147.489C407.148 147.297 407.224 147.073 407.224 146.818C407.224 146.585 407.157 146.395 407.024 146.246C406.894 146.098 406.716 145.975 406.491 145.878C406.269 145.781 406.017 145.695 405.736 145.621L404.807 145.368C404.178 145.197 403.68 144.945 403.312 144.612C402.946 144.28 402.763 143.84 402.763 143.293C402.763 142.841 402.886 142.446 403.131 142.108C403.377 141.771 403.709 141.509 404.129 141.322C404.548 141.133 405.021 141.038 405.548 141.038C406.079 141.038 406.549 141.131 406.955 141.318C407.364 141.505 407.686 141.762 407.922 142.089C408.157 142.414 408.28 142.787 408.29 143.209H407.147ZM412.526 143.109V144.03H409.308V143.109H412.526ZM410.171 141.698H411.318V147.27C411.318 147.493 411.351 147.66 411.418 147.773C411.484 147.883 411.57 147.958 411.675 147.999C411.782 148.037 411.898 148.057 412.024 148.057C412.116 148.057 412.196 148.05 412.265 148.037C412.334 148.025 412.388 148.014 412.426 148.007L412.634 148.954C412.567 148.98 412.472 149.005 412.35 149.031C412.227 149.059 412.074 149.074 411.889 149.077C411.588 149.082 411.307 149.028 411.046 148.916C410.785 148.803 410.574 148.629 410.413 148.394C410.252 148.159 410.171 147.863 410.171 147.508V141.698ZM415.564 149.13C415.191 149.13 414.853 149.061 414.551 148.923C414.25 148.783 414.011 148.579 413.834 148.313C413.66 148.048 413.573 147.722 413.573 147.336C413.573 147.003 413.637 146.73 413.765 146.515C413.893 146.3 414.066 146.13 414.283 146.005C414.5 145.879 414.743 145.785 415.012 145.721C415.28 145.657 415.554 145.608 415.832 145.575C416.185 145.534 416.472 145.501 416.692 145.475C416.911 145.447 417.071 145.403 417.171 145.341C417.271 145.28 417.321 145.18 417.321 145.042V145.015C417.321 144.68 417.226 144.421 417.037 144.237C416.85 144.053 416.571 143.961 416.201 143.961C415.815 143.961 415.51 144.046 415.288 144.217C415.068 144.386 414.916 144.574 414.831 144.781L413.754 144.536C413.882 144.178 414.068 143.889 414.314 143.669C414.562 143.447 414.847 143.286 415.169 143.186C415.491 143.084 415.83 143.032 416.185 143.032C416.421 143.032 416.67 143.061 416.933 143.117C417.199 143.17 417.447 143.27 417.677 143.416C417.91 143.562 418.1 143.77 418.249 144.041C418.397 144.31 418.471 144.659 418.471 145.088V149H417.351V148.195H417.305C417.231 148.343 417.12 148.489 416.972 148.632C416.823 148.775 416.633 148.894 416.4 148.988C416.167 149.083 415.889 149.13 415.564 149.13ZM415.813 148.21C416.13 148.21 416.401 148.147 416.626 148.022C416.854 147.897 417.026 147.733 417.144 147.531C417.264 147.327 417.324 147.108 417.324 146.875V146.116C417.283 146.157 417.204 146.195 417.087 146.231C416.972 146.264 416.84 146.294 416.692 146.319C416.543 146.342 416.399 146.364 416.258 146.384C416.118 146.402 416 146.418 415.905 146.43C415.683 146.459 415.48 146.506 415.296 146.572C415.114 146.639 414.968 146.735 414.858 146.86C414.751 146.983 414.697 147.146 414.697 147.351C414.697 147.635 414.802 147.849 415.012 147.995C415.221 148.138 415.489 148.21 415.813 148.21ZM422.803 143.109V144.03H419.586V143.109H422.803ZM420.448 141.698H421.595V147.27C421.595 147.493 421.628 147.66 421.695 147.773C421.761 147.883 421.847 147.958 421.952 147.999C422.059 148.037 422.176 148.057 422.301 148.057C422.393 148.057 422.473 148.05 422.543 148.037C422.612 148.025 422.665 148.014 422.704 148.007L422.911 148.954C422.844 148.98 422.75 149.005 422.627 149.031C422.504 149.059 422.351 149.074 422.167 149.077C421.865 149.082 421.584 149.028 421.323 148.916C421.062 148.803 420.851 148.629 420.69 148.394C420.529 148.159 420.448 147.863 420.448 147.508V141.698ZM426.602 149.119C426.022 149.119 425.522 148.995 425.103 148.747C424.686 148.496 424.364 148.145 424.136 147.692C423.911 147.237 423.799 146.704 423.799 146.093C423.799 145.489 423.911 144.958 424.136 144.497C424.364 144.037 424.681 143.678 425.088 143.42C425.497 143.162 425.975 143.032 426.522 143.032C426.854 143.032 427.176 143.087 427.488 143.197C427.8 143.307 428.08 143.48 428.328 143.715C428.576 143.95 428.772 144.256 428.915 144.632C429.058 145.005 429.13 145.459 429.13 145.993V146.4H424.447V145.541H428.006C428.006 145.239 427.945 144.972 427.822 144.739C427.699 144.504 427.527 144.318 427.304 144.183C427.084 144.047 426.826 143.98 426.53 143.98C426.207 143.98 425.926 144.059 425.686 144.217C425.448 144.373 425.264 144.578 425.134 144.831C425.006 145.082 424.942 145.354 424.942 145.648V146.319C424.942 146.713 425.011 147.048 425.149 147.324C425.29 147.6 425.485 147.811 425.736 147.957C425.986 148.1 426.279 148.172 426.614 148.172C426.831 148.172 427.029 148.141 427.208 148.08C427.387 148.016 427.542 147.921 427.672 147.796C427.803 147.67 427.903 147.516 427.972 147.332L429.057 147.527C428.97 147.847 428.814 148.127 428.589 148.367C428.367 148.605 428.087 148.79 427.749 148.923C427.414 149.054 427.032 149.119 426.602 149.119Z" fill="black" fill-opacity="0.5"/>
<rect x="475.16" y="133.5" width="136.33" height="23" rx="4.5" fill="white"/>
<rect x="475.16" y="133.5" width="136.33" height="23" rx="4.5" stroke="#E6E6E6"/>
<path d="M483.539 149.5V141.5H484.746V144.977H488.734V141.5H489.945V149.5H488.734V146.012H484.746V149.5H483.539ZM494.192 149.621C493.629 149.621 493.138 149.492 492.719 149.234C492.3 148.977 491.974 148.616 491.743 148.152C491.511 147.689 491.395 147.147 491.395 146.527C491.395 145.905 491.511 145.361 491.743 144.895C491.974 144.428 492.3 144.066 492.719 143.809C493.138 143.551 493.629 143.422 494.192 143.422C494.754 143.422 495.245 143.551 495.664 143.809C496.084 144.066 496.409 144.428 496.641 144.895C496.873 145.361 496.989 145.905 496.989 146.527C496.989 147.147 496.873 147.689 496.641 148.152C496.409 148.616 496.084 148.977 495.664 149.234C495.245 149.492 494.754 149.621 494.192 149.621ZM494.196 148.641C494.56 148.641 494.862 148.544 495.102 148.352C495.341 148.159 495.519 147.902 495.633 147.582C495.75 147.262 495.809 146.909 495.809 146.523C495.809 146.141 495.75 145.789 495.633 145.469C495.519 145.146 495.341 144.887 495.102 144.691C494.862 144.496 494.56 144.398 494.196 144.398C493.828 144.398 493.524 144.496 493.282 144.691C493.042 144.887 492.864 145.146 492.746 145.469C492.632 145.789 492.575 146.141 492.575 146.523C492.575 146.909 492.632 147.262 492.746 147.582C492.864 147.902 493.042 148.159 493.282 148.352C493.524 148.544 493.828 148.641 494.196 148.641ZM503.276 143.5L501.1 149.5H499.85L497.671 143.5H498.924L500.444 148.117H500.506L502.022 143.5H503.276ZM506.811 149.621C506.219 149.621 505.71 149.495 505.283 149.242C504.859 148.987 504.531 148.629 504.299 148.168C504.07 147.704 503.955 147.161 503.955 146.539C503.955 145.924 504.07 145.383 504.299 144.914C504.531 144.445 504.853 144.079 505.268 143.816C505.684 143.553 506.171 143.422 506.728 143.422C507.067 143.422 507.395 143.478 507.713 143.59C508.031 143.702 508.316 143.878 508.568 144.117C508.821 144.357 509.02 144.668 509.166 145.051C509.312 145.431 509.385 145.893 509.385 146.437V146.852H504.615V145.977H508.24C508.24 145.669 508.178 145.397 508.053 145.16C507.928 144.921 507.752 144.732 507.525 144.594C507.301 144.456 507.038 144.387 506.736 144.387C506.408 144.387 506.122 144.467 505.877 144.629C505.635 144.788 505.447 144.996 505.314 145.254C505.184 145.509 505.119 145.786 505.119 146.086V146.77C505.119 147.171 505.189 147.512 505.33 147.793C505.473 148.074 505.672 148.289 505.928 148.437C506.183 148.583 506.481 148.656 506.822 148.656C507.044 148.656 507.245 148.625 507.428 148.562C507.61 148.497 507.768 148.401 507.9 148.273C508.033 148.146 508.135 147.988 508.205 147.801L509.311 148C509.222 148.326 509.063 148.611 508.834 148.855C508.607 149.098 508.322 149.286 507.978 149.422C507.637 149.555 507.248 149.621 506.811 149.621ZM510.736 149.5V143.5H511.865V144.453H511.927C512.036 144.13 512.229 143.876 512.505 143.691C512.784 143.504 513.099 143.41 513.45 143.41C513.523 143.41 513.609 143.413 513.708 143.418C513.81 143.423 513.889 143.43 513.947 143.437V144.555C513.9 144.542 513.816 144.527 513.697 144.512C513.577 144.493 513.457 144.484 513.337 144.484C513.061 144.484 512.815 144.543 512.599 144.66C512.385 144.775 512.216 144.935 512.091 145.141C511.966 145.344 511.904 145.576 511.904 145.836V149.5H510.736Z" fill="black" fill-opacity="0.9"/>
<path fill-rule="evenodd" clip-rule="evenodd" d="M596.636 144.146C596.683 144.099 596.738 144.062 596.799 144.037C596.859 144.012 596.924 143.999 596.99 143.999C597.056 143.999 597.121 144.012 597.182 144.037C597.243 144.062 597.298 144.099 597.344 144.146L598.99 145.793L600.636 144.146C600.683 144.099 600.738 144.063 600.799 144.037C600.859 144.012 600.924 143.999 600.99 143.999C601.056 143.999 601.121 144.012 601.182 144.037C601.242 144.063 601.298 144.099 601.344 144.146C601.391 144.192 601.428 144.248 601.453 144.308C601.478 144.369 601.491 144.434 601.491 144.5C601.491 144.566 601.478 144.631 601.453 144.692C601.428 144.752 601.391 144.807 601.344 144.854L599.344 146.854C599.298 146.9 599.243 146.937 599.182 146.963C599.121 146.988 599.056 147.001 598.99 147.001C598.924 147.001 598.859 146.988 598.799 146.963C598.738 146.937 598.683 146.9 598.636 146.854L596.636 144.854C596.59 144.807 596.553 144.752 596.527 144.692C596.502 144.631 596.489 144.566 596.489 144.5C596.489 144.434 596.502 144.369 596.527 144.308C596.553 144.248 596.59 144.192 596.636 144.146Z" fill="black" fill-opacity="0.9"/>
<path d="M403.526 197.5H402.268L405.095 189.645H406.464L409.291 197.5H408.033L405.812 191.072H405.751L403.526 197.5ZM403.737 194.424H407.818V195.421H403.737V194.424ZM411.535 194.002V197.5H410.388V191.609H411.489V192.568H411.562C411.697 192.256 411.909 192.005 412.198 191.816C412.49 191.627 412.857 191.532 413.299 191.532C413.7 191.532 414.052 191.617 414.354 191.786C414.655 191.952 414.889 192.2 415.055 192.53C415.222 192.859 415.305 193.267 415.305 193.753V197.5H414.158V193.891C414.158 193.464 414.047 193.13 413.824 192.89C413.602 192.647 413.296 192.526 412.908 192.526C412.642 192.526 412.405 192.583 412.198 192.698C411.994 192.813 411.831 192.982 411.711 193.205C411.594 193.424 411.535 193.69 411.535 194.002ZM416.898 197.5V191.609H418.044V197.5H416.898ZM417.477 190.7C417.277 190.7 417.106 190.634 416.963 190.501C416.822 190.365 416.752 190.204 416.752 190.017C416.752 189.828 416.822 189.667 416.963 189.534C417.106 189.399 417.277 189.331 417.477 189.331C417.676 189.331 417.846 189.399 417.987 189.534C418.13 189.667 418.202 189.828 418.202 190.017C418.202 190.204 418.13 190.365 417.987 190.501C417.846 190.634 417.676 190.7 417.477 190.7ZM419.642 197.5V191.609H420.743V192.568H420.816C420.938 192.243 421.139 191.99 421.418 191.809C421.697 191.624 422.03 191.532 422.419 191.532C422.813 191.532 423.142 191.624 423.408 191.809C423.677 191.993 423.875 192.246 424.003 192.568H424.064C424.205 192.253 424.428 192.003 424.735 191.816C425.042 191.627 425.408 191.532 425.832 191.532C426.367 191.532 426.803 191.7 427.14 192.035C427.48 192.37 427.65 192.875 427.65 193.55V197.5H426.503V193.657C426.503 193.258 426.395 192.969 426.177 192.79C425.96 192.611 425.701 192.522 425.399 192.522C425.026 192.522 424.735 192.637 424.528 192.867C424.321 193.095 424.218 193.387 424.218 193.745V197.5H423.075V193.584C423.075 193.265 422.975 193.008 422.776 192.813C422.576 192.619 422.317 192.522 421.997 192.522C421.78 192.522 421.579 192.579 421.395 192.694C421.213 192.807 421.066 192.964 420.954 193.166C420.844 193.368 420.789 193.602 420.789 193.868V197.5H419.642ZM430.956 197.63C430.583 197.63 430.246 197.561 429.944 197.423C429.642 197.283 429.403 197.079 429.227 196.813C429.053 196.548 428.966 196.222 428.966 195.836C428.966 195.503 429.03 195.23 429.158 195.015C429.286 194.8 429.458 194.63 429.675 194.505C429.893 194.379 430.136 194.285 430.404 194.221C430.673 194.157 430.946 194.108 431.225 194.075C431.578 194.034 431.864 194.001 432.084 193.975C432.304 193.947 432.464 193.903 432.563 193.841C432.663 193.78 432.713 193.68 432.713 193.542V193.515C432.713 193.18 432.618 192.921 432.429 192.737C432.242 192.553 431.964 192.461 431.593 192.461C431.207 192.461 430.903 192.546 430.68 192.717C430.46 192.886 430.308 193.074 430.224 193.281L429.146 193.036C429.274 192.678 429.461 192.389 429.706 192.169C429.954 191.947 430.239 191.786 430.561 191.686C430.884 191.584 431.222 191.532 431.578 191.532C431.813 191.532 432.062 191.561 432.326 191.617C432.591 191.67 432.839 191.77 433.07 191.916C433.302 192.062 433.493 192.27 433.641 192.541C433.789 192.81 433.864 193.159 433.864 193.588V197.5H432.744V196.695H432.698C432.623 196.843 432.512 196.989 432.364 197.132C432.216 197.275 432.025 197.394 431.792 197.488C431.56 197.583 431.281 197.63 430.956 197.63ZM431.206 196.71C431.523 196.71 431.794 196.647 432.019 196.522C432.246 196.397 432.419 196.233 432.537 196.031C432.657 195.827 432.717 195.608 432.717 195.375V194.616C432.676 194.657 432.597 194.695 432.479 194.731C432.364 194.764 432.232 194.794 432.084 194.819C431.936 194.842 431.791 194.864 431.651 194.884C431.51 194.902 431.392 194.918 431.298 194.93C431.075 194.959 430.872 195.006 430.688 195.072C430.506 195.139 430.361 195.235 430.251 195.36C430.143 195.483 430.09 195.646 430.09 195.851C430.09 196.135 430.194 196.349 430.404 196.495C430.614 196.638 430.881 196.71 431.206 196.71ZM438.196 191.609V192.53H434.978V191.609H438.196ZM435.841 190.198H436.988V195.77C436.988 195.993 437.021 196.16 437.087 196.273C437.154 196.383 437.239 196.458 437.344 196.499C437.452 196.537 437.568 196.557 437.693 196.557C437.785 196.557 437.866 196.55 437.935 196.537C438.004 196.525 438.058 196.514 438.096 196.507L438.303 197.454C438.237 197.48 438.142 197.505 438.019 197.531C437.897 197.559 437.743 197.574 437.559 197.577C437.257 197.582 436.976 197.528 436.715 197.416C436.455 197.303 436.244 197.129 436.083 196.894C435.921 196.659 435.841 196.363 435.841 196.008V190.198ZM439.519 197.5V191.609H440.666V197.5H439.519ZM440.098 190.7C439.899 190.7 439.728 190.634 439.584 190.501C439.444 190.365 439.374 190.204 439.374 190.017C439.374 189.828 439.444 189.667 439.584 189.534C439.728 189.399 439.899 189.331 440.098 189.331C440.298 189.331 440.468 189.399 440.608 189.534C440.752 189.667 440.823 189.828 440.823 190.017C440.823 190.204 440.752 190.365 440.608 190.501C440.468 190.634 440.298 190.7 440.098 190.7ZM444.745 197.619C444.193 197.619 443.711 197.492 443.299 197.239C442.888 196.986 442.568 196.632 442.34 196.177C442.113 195.722 441.999 195.19 441.999 194.581C441.999 193.97 442.113 193.436 442.34 192.978C442.568 192.521 442.888 192.165 443.299 191.912C443.711 191.659 444.193 191.532 444.745 191.532C445.297 191.532 445.779 191.659 446.191 191.912C446.603 192.165 446.922 192.521 447.15 192.978C447.377 193.436 447.491 193.97 447.491 194.581C447.491 195.19 447.377 195.722 447.15 196.177C446.922 196.632 446.603 196.986 446.191 197.239C445.779 197.492 445.297 197.619 444.745 197.619ZM444.749 196.656C445.107 196.656 445.403 196.562 445.639 196.372C445.874 196.183 446.048 195.931 446.16 195.617C446.275 195.302 446.333 194.956 446.333 194.578C446.333 194.202 446.275 193.857 446.16 193.542C446.048 193.225 445.874 192.971 445.639 192.779C445.403 192.587 445.107 192.491 444.749 192.491C444.388 192.491 444.089 192.587 443.851 192.779C443.616 192.971 443.441 193.225 443.326 193.542C443.214 193.857 443.157 194.202 443.157 194.578C443.157 194.956 443.214 195.302 443.326 195.617C443.441 195.931 443.616 196.183 443.851 196.372C444.089 196.562 444.388 196.656 444.749 196.656ZM449.973 194.002V197.5H448.826V191.609H449.927V192.568H450C450.135 192.256 450.347 192.005 450.636 191.816C450.928 191.627 451.295 191.532 451.737 191.532C452.138 191.532 452.49 191.617 452.792 191.786C453.093 191.952 453.327 192.2 453.494 192.53C453.66 192.859 453.743 193.267 453.743 193.753V197.5H452.596V193.891C452.596 193.464 452.485 193.13 452.262 192.89C452.04 192.647 451.734 192.526 451.346 192.526C451.08 192.526 450.843 192.583 450.636 192.698C450.432 192.813 450.269 192.982 450.149 193.205C450.032 193.424 449.973 193.69 449.973 194.002Z" fill="black" fill-opacity="0.5"/>
<rect x="475.16" y="182.5" width="136.33" height="23" rx="4.5" fill="white"/>
<rect x="475.16" y="182.5" width="136.33" height="23" rx="4.5" stroke="#E6E6E6"/>
<path d="M485.708 189.145V197H484.523V189.145H485.708ZM488.544 193.502V197H487.397V191.109H488.498V192.068H488.571C488.706 191.756 488.918 191.505 489.207 191.316C489.499 191.127 489.866 191.032 490.308 191.032C490.709 191.032 491.061 191.117 491.363 191.286C491.664 191.452 491.898 191.7 492.064 192.03C492.231 192.359 492.314 192.767 492.314 193.253V197H491.167V193.391C491.167 192.964 491.056 192.63 490.833 192.39C490.611 192.147 490.305 192.026 489.917 192.026C489.651 192.026 489.414 192.083 489.207 192.198C489.003 192.313 488.84 192.482 488.72 192.705C488.603 192.924 488.544 193.19 488.544 193.502ZM498.321 192.547L497.282 192.731C497.238 192.598 497.169 192.472 497.075 192.352C496.983 192.232 496.857 192.133 496.699 192.056C496.54 191.98 496.342 191.941 496.104 191.941C495.78 191.941 495.509 192.014 495.291 192.16C495.074 192.303 494.965 192.488 494.965 192.716C494.965 192.913 495.038 193.071 495.184 193.192C495.33 193.312 495.565 193.41 495.889 193.487L496.825 193.702C497.367 193.827 497.771 194.02 498.037 194.281C498.303 194.542 498.436 194.88 498.436 195.297C498.436 195.65 498.334 195.964 498.129 196.241C497.927 196.514 497.645 196.729 497.282 196.885C496.921 197.041 496.503 197.119 496.028 197.119C495.368 197.119 494.83 196.978 494.413 196.697C493.996 196.413 493.74 196.011 493.646 195.489L494.754 195.32C494.823 195.609 494.965 195.828 495.18 195.976C495.395 196.122 495.675 196.195 496.02 196.195C496.396 196.195 496.696 196.117 496.921 195.961C497.146 195.802 497.259 195.609 497.259 195.382C497.259 195.197 497.19 195.043 497.052 194.917C496.916 194.792 496.708 194.698 496.426 194.634L495.429 194.415C494.88 194.29 494.473 194.09 494.21 193.817C493.949 193.543 493.818 193.197 493.818 192.777C493.818 192.43 493.916 192.125 494.11 191.865C494.304 191.604 494.573 191.401 494.915 191.255C495.258 191.107 495.65 191.032 496.093 191.032C496.729 191.032 497.231 191.17 497.596 191.447C497.962 191.72 498.203 192.087 498.321 192.547ZM502.502 191.109V192.03H499.284V191.109H502.502ZM500.147 189.698H501.294V195.27C501.294 195.493 501.327 195.66 501.393 195.773C501.46 195.883 501.546 195.958 501.65 195.999C501.758 196.037 501.874 196.057 501.999 196.057C502.091 196.057 502.172 196.05 502.241 196.037C502.31 196.025 502.364 196.014 502.402 196.007L502.609 196.954C502.543 196.98 502.448 197.005 502.325 197.031C502.203 197.059 502.049 197.074 501.865 197.077C501.563 197.082 501.282 197.028 501.021 196.916C500.761 196.803 500.55 196.629 500.389 196.394C500.227 196.159 500.147 195.863 500.147 195.508V189.698ZM505.54 197.13C505.166 197.13 504.829 197.061 504.527 196.923C504.225 196.783 503.986 196.579 503.81 196.313C503.636 196.048 503.549 195.722 503.549 195.336C503.549 195.003 503.613 194.73 503.741 194.515C503.869 194.3 504.041 194.13 504.259 194.005C504.476 193.879 504.719 193.785 504.987 193.721C505.256 193.657 505.529 193.608 505.808 193.575C506.161 193.534 506.447 193.501 506.667 193.475C506.887 193.447 507.047 193.403 507.147 193.341C507.246 193.28 507.296 193.18 507.296 193.042V193.015C507.296 192.68 507.202 192.421 507.012 192.237C506.826 192.053 506.547 191.961 506.176 191.961C505.79 191.961 505.486 192.046 505.263 192.217C505.044 192.386 504.891 192.574 504.807 192.781L503.729 192.536C503.857 192.178 504.044 191.889 504.289 191.669C504.537 191.447 504.822 191.286 505.145 191.186C505.467 191.084 505.806 191.032 506.161 191.032C506.396 191.032 506.645 191.061 506.909 191.117C507.175 191.17 507.423 191.27 507.653 191.416C507.885 191.562 508.076 191.77 508.224 192.041C508.373 192.31 508.447 192.659 508.447 193.088V197H507.327V196.195H507.281C507.207 196.343 507.095 196.489 506.947 196.632C506.799 196.775 506.608 196.894 506.376 196.988C506.143 197.083 505.864 197.13 505.54 197.13ZM505.789 196.21C506.106 196.21 506.377 196.147 506.602 196.022C506.83 195.897 507.002 195.733 507.12 195.531C507.24 195.327 507.3 195.108 507.3 194.875V194.116C507.259 194.157 507.18 194.195 507.062 194.231C506.947 194.264 506.815 194.294 506.667 194.319C506.519 194.342 506.374 194.364 506.234 194.384C506.093 194.402 505.976 194.418 505.881 194.43C505.658 194.459 505.455 194.506 505.271 194.572C505.09 194.639 504.944 194.735 504.834 194.86C504.727 194.983 504.673 195.146 504.673 195.351C504.673 195.635 504.778 195.849 504.987 195.995C505.197 196.138 505.464 196.21 505.789 196.21ZM511.176 193.502V197H510.029V191.109H511.13V192.068H511.203C511.338 191.756 511.55 191.505 511.839 191.316C512.131 191.127 512.498 191.032 512.94 191.032C513.341 191.032 513.693 191.117 513.995 191.286C514.296 191.452 514.53 191.7 514.697 192.03C514.863 192.359 514.946 192.767 514.946 193.253V197H513.799V193.391C513.799 192.964 513.688 192.63 513.465 192.39C513.243 192.147 512.937 192.026 512.549 192.026C512.283 192.026 512.046 192.083 511.839 192.198C511.635 192.313 511.472 192.482 511.352 192.705C511.235 192.924 511.176 193.19 511.176 193.502ZM519.289 191.109V192.03H516.071V191.109H519.289ZM516.934 189.698H518.081V195.27C518.081 195.493 518.114 195.66 518.18 195.773C518.247 195.883 518.332 195.958 518.437 195.999C518.545 196.037 518.661 196.057 518.786 196.057C518.878 196.057 518.959 196.05 519.028 196.037C519.097 196.025 519.151 196.014 519.189 196.007L519.396 196.954C519.33 196.98 519.235 197.005 519.112 197.031C518.989 197.059 518.836 197.074 518.652 197.077C518.35 197.082 518.069 197.028 517.808 196.916C517.547 196.803 517.336 196.629 517.175 196.394C517.014 196.159 516.934 195.863 516.934 195.508V189.698Z" fill="black" fill-opacity="0.9"/>
<path fill-rule="evenodd" clip-rule="evenodd" d="M596.636 192.646C596.683 192.599 596.738 192.562 596.799 192.537C596.859 192.512 596.924 192.499 596.99 192.499C597.056 192.499 597.121 192.512 597.182 192.537C597.243 192.562 597.298 192.599 597.344 192.646L598.99 194.293L600.636 192.646C600.683 192.599 600.738 192.563 600.799 192.537C600.859 192.512 600.924 192.499 600.99 192.499C601.056 192.499 601.121 192.512 601.182 192.537C601.242 192.563 601.298 192.599 601.344 192.646C601.391 192.692 601.428 192.748 601.453 192.808C601.478 192.869 601.491 192.934 601.491 193C601.491 193.066 601.478 193.131 601.453 193.192C601.428 193.252 601.391 193.307 601.344 193.354L599.344 195.354C599.298 195.4 599.243 195.437 599.182 195.463C599.121 195.488 599.056 195.501 598.99 195.501C598.924 195.501 598.859 195.488 598.799 195.463C598.738 195.437 598.683 195.4 598.636 195.354L596.636 193.354C596.59 193.307 596.553 193.252 596.527 193.192C596.502 193.131 596.489 193.066 596.489 193C596.489 192.934 596.502 192.869 596.527 192.808C596.553 192.748 596.59 192.692 596.636 192.646Z" fill="black" fill-opacity="0.9"/>
<path d="M392.768 240.525C392.862 240.432 392.989 240.379 393.121 240.379C393.254 240.379 393.381 240.432 393.475 240.525L395.596 242.646C395.69 242.74 395.742 242.867 395.742 243C395.742 243.132 395.69 243.26 395.596 243.353L393.475 245.475C393.381 245.569 393.254 245.622 393.121 245.622C392.988 245.621 392.861 245.569 392.767 245.475C392.674 245.381 392.621 245.254 392.621 245.121C392.621 244.988 392.674 244.861 392.768 244.767L394.535 243L392.768 241.232C392.674 241.139 392.621 241.011 392.621 240.879C392.621 240.746 392.674 240.619 392.768 240.525Z" fill="black" fill-opacity="0.3"/>
<path d="M407.137 241.699C407.1 241.358 406.947 241.092 406.676 240.902C406.408 240.712 406.059 240.617 405.629 240.617C405.327 240.617 405.068 240.663 404.852 240.754C404.635 240.845 404.47 240.969 404.355 241.125C404.241 241.281 404.182 241.46 404.18 241.66C404.18 241.827 404.217 241.971 404.293 242.094C404.371 242.216 404.477 242.32 404.609 242.406C404.742 242.49 404.889 242.56 405.051 242.617C405.212 242.674 405.375 242.723 405.539 242.762L406.289 242.949C406.591 243.02 406.882 243.115 407.16 243.234C407.441 243.354 407.693 243.505 407.914 243.688C408.138 243.87 408.315 244.09 408.445 244.348C408.576 244.605 408.641 244.908 408.641 245.254C408.641 245.723 408.521 246.135 408.281 246.492C408.042 246.846 407.695 247.124 407.242 247.324C406.792 247.522 406.246 247.621 405.605 247.621C404.983 247.621 404.443 247.525 403.984 247.332C403.529 247.139 403.172 246.858 402.914 246.488C402.659 246.118 402.521 245.668 402.5 245.137H403.926C403.947 245.415 404.033 245.647 404.184 245.832C404.335 246.017 404.531 246.155 404.773 246.246C405.018 246.337 405.292 246.383 405.594 246.383C405.909 246.383 406.185 246.336 406.422 246.242C406.661 246.146 406.849 246.013 406.984 245.844C407.12 245.672 407.189 245.471 407.191 245.242C407.189 245.034 407.128 244.862 407.008 244.727C406.888 244.589 406.72 244.474 406.504 244.383C406.29 244.289 406.04 244.206 405.754 244.133L404.844 243.898C404.185 243.729 403.664 243.473 403.281 243.129C402.901 242.783 402.711 242.323 402.711 241.75C402.711 241.279 402.839 240.866 403.094 240.512C403.352 240.158 403.702 239.883 404.145 239.687C404.587 239.49 405.089 239.391 405.648 239.391C406.216 239.391 406.714 239.49 407.141 239.687C407.57 239.883 407.908 240.155 408.152 240.504C408.397 240.85 408.523 241.249 408.531 241.699H407.137ZM412.921 241.5V242.594H409.472V241.5H412.921ZM410.324 240.062H411.738V245.695C411.738 245.885 411.766 246.031 411.824 246.133C411.883 246.232 411.962 246.299 412.058 246.336C412.154 246.372 412.261 246.391 412.378 246.391C412.467 246.391 412.548 246.384 412.62 246.371C412.696 246.358 412.753 246.346 412.792 246.336L413.031 247.441C412.955 247.467 412.847 247.496 412.706 247.527C412.568 247.559 412.399 247.577 412.199 247.582C411.844 247.592 411.525 247.539 411.242 247.422C410.958 247.302 410.732 247.117 410.566 246.867C410.402 246.617 410.321 246.305 410.324 245.93V240.062ZM415.885 247.621C415.505 247.621 415.163 247.553 414.858 247.418C414.556 247.28 414.316 247.077 414.139 246.809C413.965 246.54 413.878 246.21 413.878 245.816C413.878 245.478 413.94 245.198 414.065 244.977C414.19 244.755 414.361 244.578 414.577 244.445C414.793 244.312 415.036 244.212 415.307 244.145C415.581 244.074 415.863 244.023 416.155 243.992C416.506 243.956 416.792 243.923 417.01 243.895C417.229 243.863 417.388 243.816 417.487 243.754C417.589 243.689 417.639 243.589 417.639 243.453V243.43C417.639 243.135 417.552 242.908 417.378 242.746C417.203 242.585 416.952 242.504 416.624 242.504C416.277 242.504 416.003 242.579 415.799 242.73C415.599 242.882 415.464 243.06 415.393 243.266L414.073 243.078C414.177 242.714 414.349 242.409 414.589 242.164C414.828 241.917 415.121 241.732 415.467 241.609C415.814 241.484 416.197 241.422 416.616 241.422C416.905 241.422 417.193 241.456 417.479 241.523C417.766 241.591 418.027 241.703 418.264 241.859C418.501 242.013 418.691 242.223 418.835 242.488C418.98 242.754 419.053 243.086 419.053 243.484V247.5H417.694V246.676H417.647C417.561 246.842 417.44 246.999 417.284 247.145C417.13 247.288 416.936 247.404 416.702 247.492C416.47 247.578 416.198 247.621 415.885 247.621ZM416.253 246.582C416.536 246.582 416.783 246.526 416.991 246.414C417.199 246.299 417.359 246.148 417.471 245.961C417.586 245.773 417.643 245.569 417.643 245.348V244.641C417.599 244.677 417.523 244.711 417.417 244.742C417.312 244.773 417.195 244.801 417.065 244.824C416.935 244.848 416.806 244.868 416.678 244.887C416.551 244.905 416.44 244.921 416.346 244.934C416.135 244.962 415.947 245.009 415.78 245.074C415.613 245.139 415.482 245.23 415.385 245.348C415.289 245.462 415.241 245.611 415.241 245.793C415.241 246.053 415.336 246.25 415.526 246.383C415.716 246.516 415.958 246.582 416.253 246.582ZM423.526 241.5V242.594H420.077V241.5H423.526ZM420.929 240.062H422.343V245.695C422.343 245.885 422.371 246.031 422.429 246.133C422.489 246.232 422.567 246.299 422.663 246.336C422.759 246.372 422.866 246.391 422.983 246.391C423.072 246.391 423.153 246.384 423.226 246.371C423.301 246.358 423.358 246.346 423.397 246.336L423.636 247.441C423.56 247.467 423.452 247.496 423.311 247.527C423.173 247.559 423.004 247.577 422.804 247.582C422.45 247.592 422.13 247.539 421.847 247.422C421.563 247.302 421.338 247.117 421.171 246.867C421.007 246.617 420.926 246.305 420.929 245.93V240.062ZM427.356 247.617C426.754 247.617 426.235 247.492 425.797 247.242C425.362 246.99 425.028 246.633 424.793 246.172C424.559 245.708 424.442 245.163 424.442 244.535C424.442 243.918 424.559 243.376 424.793 242.91C425.03 242.441 425.361 242.077 425.785 241.816C426.21 241.553 426.709 241.422 427.282 241.422C427.651 241.422 428 241.482 428.328 241.602C428.659 241.719 428.951 241.901 429.203 242.148C429.459 242.396 429.659 242.711 429.805 243.094C429.951 243.474 430.024 243.927 430.024 244.453V244.887H425.106V243.934H428.668C428.666 243.663 428.607 243.422 428.492 243.211C428.378 242.997 428.218 242.829 428.012 242.707C427.809 242.585 427.572 242.523 427.301 242.523C427.012 242.523 426.758 242.594 426.539 242.734C426.321 242.872 426.15 243.055 426.028 243.281C425.908 243.505 425.847 243.751 425.844 244.02V244.852C425.844 245.201 425.908 245.5 426.035 245.75C426.163 245.997 426.341 246.187 426.571 246.32C426.8 246.451 427.068 246.516 427.375 246.516C427.581 246.516 427.767 246.487 427.934 246.43C428.101 246.37 428.245 246.283 428.367 246.168C428.49 246.053 428.582 245.911 428.645 245.742L429.965 245.891C429.882 246.24 429.723 246.544 429.489 246.805C429.257 247.062 428.96 247.263 428.598 247.406C428.236 247.547 427.822 247.617 427.356 247.617Z" fill="black" fill-opacity="0.5"/>
</g>
<rect x="386.5" y="0.5" width="241" height="266" rx="11.5" stroke="#E7E5E4"/>
<defs>
<clipPath id="clip0_1127_23040">
<rect x="386" width="242" height="267" rx="12" fill="white"/>
</clipPath>
<clipPath id="clip1_1127_23040">
<rect width="87.33" height="16" fill="white" transform="translate(499.66 55.5)"/>
</clipPath>
</defs>
</svg>
