<svg width="334" height="50" viewBox="0 0 334 50" fill="none" xmlns="http://www.w3.org/2000/svg">
<rect x="1" y="1" width="332" height="48" stroke="#292524" stroke-width="2"/>
<g clip-path="url(#clip0_1127_23444)">
<rect x="2" y="2" width="330" height="46" fill="#FDE68A"/>
<mask id="path-4-inside-1_1127_23444" fill="white">
<path d="M2 2.96021H46.0796V47.0399H2V2.96021Z"/>
</mask>
<path d="M46.0796 2.96021H45.0796V47.0399H46.0796H47.0796V2.96021H46.0796Z" fill="#292524" mask="url(#path-4-inside-1_1127_23444)"/>
<path d="M24.0315 27.4999C25.3039 27.5042 27.2398 27.834 28.8436 28.4827C29.645 28.8069 30.3321 29.1982 30.8105 29.6426C31.2855 30.0839 31.5214 30.5435 31.5198 31.0248L31.5148 32.5248L16.5149 32.475L16.5199 30.975C16.5215 30.4936 16.7604 30.0357 17.2383 29.5975C17.7196 29.1563 18.4093 28.7695 19.2128 28.4507C20.821 27.8127 22.759 27.4957 24.0315 27.4999ZM24.0647 17.5C25.9985 17.5064 27.5595 19.0777 27.553 21.0116C27.5466 22.9454 25.9753 24.5064 24.0414 24.4999C22.1076 24.4935 20.5467 22.9222 20.5531 20.9883C20.5595 19.0545 22.1309 17.4936 24.0647 17.5Z" fill="#292524" stroke="#292524"/>
<path d="M62.7401 32.28C61.7001 32.28 60.7934 32.0933 60.0201 31.72C59.2467 31.3467 58.6467 30.7933 58.2201 30.06C57.7934 29.3133 57.5801 28.4 57.5801 27.32V18H59.2401V27.34C59.2401 28.4867 59.5467 29.3467 60.1601 29.92C60.7734 30.4933 61.6334 30.78 62.7401 30.78C63.8467 30.78 64.7067 30.4933 65.3201 29.92C65.9334 29.3467 66.2401 28.4867 66.2401 27.34V18H67.9201V27.32C67.9201 28.4 67.7067 29.3133 67.2801 30.06C66.8534 30.7933 66.2467 31.3467 65.4601 31.72C64.6867 32.0933 63.7801 32.28 62.7401 32.28ZM75.0004 32.28C73.7871 32.28 72.7604 32 71.9204 31.44C71.0937 30.88 70.5937 29.9933 70.4204 28.78L71.9204 28.44C72.0271 29.08 72.2271 29.5867 72.5204 29.96C72.8137 30.32 73.1737 30.58 73.6004 30.74C74.0404 30.8867 74.5071 30.96 75.0004 30.96C75.7337 30.96 76.3137 30.8133 76.7404 30.52C77.1671 30.2267 77.3804 29.8333 77.3804 29.34C77.3804 28.8333 77.1737 28.48 76.7604 28.28C76.3604 28.0667 75.8071 27.8933 75.1004 27.76L74.2804 27.62C73.6537 27.5133 73.0804 27.3467 72.5604 27.12C72.0404 26.8933 71.6271 26.5867 71.3204 26.2C71.0137 25.8133 70.8604 25.3267 70.8604 24.74C70.8604 23.86 71.2004 23.1733 71.8804 22.68C72.5604 22.1867 73.4604 21.94 74.5804 21.94C75.6871 21.94 76.5804 22.1933 77.2604 22.7C77.9537 23.1933 78.4004 23.8933 78.6004 24.8L77.1204 25.18C77.0004 24.4733 76.7137 23.98 76.2604 23.7C75.8071 23.4067 75.2471 23.26 74.5804 23.26C73.9137 23.26 73.3871 23.3867 73.0004 23.64C72.6137 23.88 72.4204 24.24 72.4204 24.72C72.4204 25.1867 72.6004 25.5333 72.9604 25.76C73.3337 25.9733 73.8271 26.1333 74.4404 26.24L75.2604 26.38C75.9537 26.5 76.5737 26.6667 77.1204 26.88C77.6804 27.08 78.1204 27.3733 78.4404 27.76C78.7737 28.1467 78.9404 28.6533 78.9404 29.28C78.9404 30.24 78.5804 30.98 77.8604 31.5C77.1537 32.02 76.2004 32.28 75.0004 32.28ZM86.0873 32.28C85.1006 32.28 84.2339 32.0733 83.4873 31.66C82.7406 31.2333 82.1606 30.64 81.7473 29.88C81.3339 29.12 81.1273 28.24 81.1273 27.24V27C81.1273 25.9867 81.3339 25.1 81.7473 24.34C82.1606 23.58 82.7339 22.9933 83.4673 22.58C84.2006 22.1533 85.0406 21.94 85.9873 21.94C86.9073 21.94 87.7206 22.14 88.4273 22.54C89.1339 22.9267 89.6873 23.4867 90.0873 24.22C90.4873 24.9533 90.6873 25.8133 90.6873 26.8V27.52H82.7073C82.7473 28.5733 83.0873 29.4 83.7273 30C84.3673 30.5867 85.1673 30.88 86.1273 30.88C86.9673 30.88 87.6139 30.6867 88.0673 30.3C88.5206 29.9133 88.8673 29.4533 89.1073 28.92L90.4673 29.58C90.2673 29.9933 89.9873 30.4067 89.6273 30.82C89.2806 31.2333 88.8206 31.58 88.2473 31.86C87.6873 32.14 86.9673 32.28 86.0873 32.28ZM82.7273 26.22H89.0873C89.0339 25.3133 88.7206 24.6067 88.1473 24.1C87.5873 23.5933 86.8673 23.34 85.9873 23.34C85.0939 23.34 84.3606 23.5933 83.7873 24.1C83.2139 24.6067 82.8606 25.3133 82.7273 26.22ZM93.4432 32V22.22H94.9832V23.42H95.2632C95.4365 22.9933 95.7032 22.68 96.0632 22.48C96.4232 22.28 96.8965 22.18 97.4832 22.18H98.6432V23.62H97.3832C96.6765 23.62 96.1032 23.82 95.6632 24.22C95.2365 24.6067 95.0232 25.2133 95.0232 26.04V32H93.4432ZM100.982 32V22.22H102.522V23.88H102.802C103.016 23.4133 103.376 22.9933 103.882 22.62C104.402 22.2333 105.162 22.04 106.162 22.04C106.896 22.04 107.549 22.1933 108.122 22.5C108.709 22.8067 109.176 23.26 109.522 23.86C109.869 24.46 110.042 25.2 110.042 26.08V32H108.462V26.2C108.462 25.2267 108.216 24.52 107.722 24.08C107.242 23.64 106.589 23.42 105.762 23.42C104.816 23.42 104.042 23.7267 103.442 24.34C102.856 24.9533 102.562 25.8667 102.562 27.08V32H100.982ZM116.248 32.28C115.568 32.28 114.948 32.16 114.388 31.92C113.828 31.68 113.388 31.3333 113.068 30.88C112.748 30.4267 112.588 29.8733 112.588 29.22C112.588 28.5533 112.748 28.0067 113.068 27.58C113.388 27.14 113.828 26.8133 114.388 26.6C114.948 26.3733 115.575 26.26 116.268 26.26H119.568V25.54C119.568 24.8467 119.361 24.3 118.948 23.9C118.548 23.5 117.948 23.3 117.148 23.3C116.361 23.3 115.748 23.4933 115.308 23.88C114.868 24.2533 114.568 24.76 114.408 25.4L112.928 24.92C113.088 24.3733 113.341 23.88 113.688 23.44C114.035 22.9867 114.495 22.6267 115.068 22.36C115.655 22.08 116.355 21.94 117.168 21.94C118.421 21.94 119.395 22.2667 120.088 22.92C120.781 23.56 121.128 24.4667 121.128 25.64V30.06C121.128 30.46 121.315 30.66 121.688 30.66H122.588V32H121.208C120.768 32 120.415 31.88 120.148 31.64C119.881 31.3867 119.748 31.0533 119.748 30.64V30.54H119.508C119.361 30.7933 119.161 31.06 118.908 31.34C118.668 31.6067 118.335 31.8267 117.908 32C117.481 32.1867 116.928 32.28 116.248 32.28ZM116.428 30.92C117.361 30.92 118.115 30.6467 118.688 30.1C119.275 29.54 119.568 28.76 119.568 27.76V27.54H116.328C115.701 27.54 115.181 27.68 114.768 27.96C114.368 28.2267 114.168 28.6333 114.168 29.18C114.168 29.7267 114.375 30.1533 114.788 30.46C115.215 30.7667 115.761 30.92 116.428 30.92ZM124.752 32V22.22H126.292V23.44H126.572C126.758 23.0933 127.065 22.7733 127.492 22.48C127.918 22.1867 128.518 22.04 129.292 22.04C130.052 22.04 130.665 22.2067 131.132 22.54C131.612 22.8733 131.958 23.28 132.172 23.76H132.452C132.678 23.28 133.018 22.8733 133.472 22.54C133.938 22.2067 134.585 22.04 135.412 22.04C136.065 22.04 136.638 22.1733 137.132 22.44C137.625 22.7067 138.012 23.0933 138.292 23.6C138.585 24.0933 138.732 24.6867 138.732 25.38V32H137.152V25.52C137.152 24.8667 136.958 24.3533 136.572 23.98C136.198 23.5933 135.672 23.4 134.992 23.4C134.272 23.4 133.678 23.6333 133.212 24.1C132.758 24.5667 132.532 25.24 132.532 26.12V32H130.952V25.52C130.952 24.8667 130.758 24.3533 130.372 23.98C129.998 23.5933 129.472 23.4 128.792 23.4C128.072 23.4 127.478 23.6333 127.012 24.1C126.558 24.5667 126.332 25.24 126.332 26.12V32H124.752ZM146.439 32.28C145.452 32.28 144.585 32.0733 143.839 31.66C143.092 31.2333 142.512 30.64 142.099 29.88C141.685 29.12 141.479 28.24 141.479 27.24V27C141.479 25.9867 141.685 25.1 142.099 24.34C142.512 23.58 143.085 22.9933 143.819 22.58C144.552 22.1533 145.392 21.94 146.339 21.94C147.259 21.94 148.072 22.14 148.779 22.54C149.485 22.9267 150.039 23.4867 150.439 24.22C150.839 24.9533 151.039 25.8133 151.039 26.8V27.52H143.059C143.099 28.5733 143.439 29.4 144.079 30C144.719 30.5867 145.519 30.88 146.479 30.88C147.319 30.88 147.965 30.6867 148.419 30.3C148.872 29.9133 149.219 29.4533 149.459 28.92L150.819 29.58C150.619 29.9933 150.339 30.4067 149.979 30.82C149.632 31.2333 149.172 31.58 148.599 31.86C148.039 32.14 147.319 32.28 146.439 32.28ZM143.079 26.22H149.439C149.385 25.3133 149.072 24.6067 148.499 24.1C147.939 23.5933 147.219 23.34 146.339 23.34C145.445 23.34 144.712 23.5933 144.139 24.1C143.565 24.6067 143.212 25.3133 143.079 26.22Z" fill="#292524"/>
</g>
<rect x="2.5" y="2.5" width="329" height="45" stroke="#1C1917"/>
<rect x="2.5" y="2.5" width="329" height="45" stroke="black" stroke-opacity="0.2"/>
<defs>
<clipPath id="clip0_1127_23444">
<rect x="2" y="2" width="330" height="46" fill="white"/>
</clipPath>
</defs>
</svg>
