<svg width="330" height="46" viewBox="0 0 330 46" fill="none" xmlns="http://www.w3.org/2000/svg">
<g clip-path="url(#clip0_1127_23416)">
<rect width="330" height="46" fill="#FFFBEB"/>
<mask id="path-3-inside-1_1127_23416" fill="white">
<path d="M0 0.960205H44.0796V45.0399H0V0.960205Z"/>
</mask>
<path d="M44.0796 0.960205H43.0796V45.0399H44.0796H45.0796V0.960205H44.0796Z" fill="#292524" mask="url(#path-3-inside-1_1127_23416)"/>
<path d="M22.0315 25.4999C23.3039 25.5042 25.2398 25.834 26.8436 26.4827C27.645 26.8069 28.3321 27.1982 28.8105 27.6426C29.2855 28.0839 29.5214 28.5435 29.5198 29.0248L29.5148 30.5248L14.5149 30.475L14.5199 28.975C14.5215 28.4936 14.7604 28.0357 15.2383 27.5975C15.7196 27.1563 16.4093 26.7695 17.2128 26.4507C18.821 25.8127 20.759 25.4957 22.0315 25.4999ZM22.0647 15.5C23.9985 15.5064 25.5595 17.0777 25.553 19.0116C25.5466 20.9454 23.9753 22.5064 22.0414 22.4999C20.1076 22.4935 18.5467 20.9222 18.5531 18.9883C18.5595 17.0545 20.1309 15.4936 22.0647 15.5Z" fill="#292524" stroke="#292524"/>
<rect width="285.92" height="46" transform="translate(44.0801)" fill="#FEF3C7"/>
<path d="M60.7401 30.28C59.7001 30.28 58.7934 30.0933 58.0201 29.72C57.2467 29.3467 56.6467 28.7933 56.2201 28.06C55.7934 27.3133 55.5801 26.4 55.5801 25.32V16H57.2401V25.34C57.2401 26.4867 57.5467 27.3467 58.1601 27.92C58.7734 28.4933 59.6334 28.78 60.7401 28.78C61.8467 28.78 62.7067 28.4933 63.3201 27.92C63.9334 27.3467 64.2401 26.4867 64.2401 25.34V16H65.9201V25.32C65.9201 26.4 65.7067 27.3133 65.2801 28.06C64.8534 28.7933 64.2467 29.3467 63.4601 29.72C62.6867 30.0933 61.7801 30.28 60.7401 30.28ZM73.0004 30.28C71.7871 30.28 70.7604 30 69.9204 29.44C69.0937 28.88 68.5937 27.9933 68.4204 26.78L69.9204 26.44C70.0271 27.08 70.2271 27.5867 70.5204 27.96C70.8137 28.32 71.1737 28.58 71.6004 28.74C72.0404 28.8867 72.5071 28.96 73.0004 28.96C73.7337 28.96 74.3137 28.8133 74.7404 28.52C75.1671 28.2267 75.3804 27.8333 75.3804 27.34C75.3804 26.8333 75.1737 26.48 74.7604 26.28C74.3604 26.0667 73.8071 25.8933 73.1004 25.76L72.2804 25.62C71.6537 25.5133 71.0804 25.3467 70.5604 25.12C70.0404 24.8933 69.6271 24.5867 69.3204 24.2C69.0137 23.8133 68.8604 23.3267 68.8604 22.74C68.8604 21.86 69.2004 21.1733 69.8804 20.68C70.5604 20.1867 71.4604 19.94 72.5804 19.94C73.6871 19.94 74.5804 20.1933 75.2604 20.7C75.9537 21.1933 76.4004 21.8933 76.6004 22.8L75.1204 23.18C75.0004 22.4733 74.7137 21.98 74.2604 21.7C73.8071 21.4067 73.2471 21.26 72.5804 21.26C71.9137 21.26 71.3871 21.3867 71.0004 21.64C70.6137 21.88 70.4204 22.24 70.4204 22.72C70.4204 23.1867 70.6004 23.5333 70.9604 23.76C71.3337 23.9733 71.8271 24.1333 72.4404 24.24L73.2604 24.38C73.9537 24.5 74.5737 24.6667 75.1204 24.88C75.6804 25.08 76.1204 25.3733 76.4404 25.76C76.7737 26.1467 76.9404 26.6533 76.9404 27.28C76.9404 28.24 76.5804 28.98 75.8604 29.5C75.1537 30.02 74.2004 30.28 73.0004 30.28ZM84.0873 30.28C83.1006 30.28 82.2339 30.0733 81.4873 29.66C80.7406 29.2333 80.1606 28.64 79.7473 27.88C79.3339 27.12 79.1273 26.24 79.1273 25.24V25C79.1273 23.9867 79.3339 23.1 79.7473 22.34C80.1606 21.58 80.7339 20.9933 81.4673 20.58C82.2006 20.1533 83.0406 19.94 83.9873 19.94C84.9073 19.94 85.7206 20.14 86.4273 20.54C87.1339 20.9267 87.6873 21.4867 88.0873 22.22C88.4873 22.9533 88.6873 23.8133 88.6873 24.8V25.52H80.7073C80.7473 26.5733 81.0873 27.4 81.7273 28C82.3673 28.5867 83.1673 28.88 84.1273 28.88C84.9673 28.88 85.6139 28.6867 86.0673 28.3C86.5206 27.9133 86.8673 27.4533 87.1073 26.92L88.4673 27.58C88.2673 27.9933 87.9873 28.4067 87.6273 28.82C87.2806 29.2333 86.8206 29.58 86.2473 29.86C85.6873 30.14 84.9673 30.28 84.0873 30.28ZM80.7273 24.22H87.0873C87.0339 23.3133 86.7206 22.6067 86.1473 22.1C85.5873 21.5933 84.8673 21.34 83.9873 21.34C83.0939 21.34 82.3606 21.5933 81.7873 22.1C81.2139 22.6067 80.8606 23.3133 80.7273 24.22ZM91.4432 30V20.22H92.9832V21.42H93.2632C93.4365 20.9933 93.7032 20.68 94.0632 20.48C94.4232 20.28 94.8965 20.18 95.4832 20.18H96.6432V21.62H95.3832C94.6765 21.62 94.1032 21.82 93.6632 22.22C93.2365 22.6067 93.0232 23.2133 93.0232 24.04V30H91.4432ZM98.9823 30V20.22H100.522V21.88H100.802C101.016 21.4133 101.376 20.9933 101.882 20.62C102.402 20.2333 103.162 20.04 104.162 20.04C104.896 20.04 105.549 20.1933 106.122 20.5C106.709 20.8067 107.176 21.26 107.522 21.86C107.869 22.46 108.042 23.2 108.042 24.08V30H106.462V24.2C106.462 23.2267 106.216 22.52 105.722 22.08C105.242 21.64 104.589 21.42 103.762 21.42C102.816 21.42 102.042 21.7267 101.442 22.34C100.856 22.9533 100.562 23.8667 100.562 25.08V30H98.9823ZM114.248 30.28C113.568 30.28 112.948 30.16 112.388 29.92C111.828 29.68 111.388 29.3333 111.068 28.88C110.748 28.4267 110.588 27.8733 110.588 27.22C110.588 26.5533 110.748 26.0067 111.068 25.58C111.388 25.14 111.828 24.8133 112.388 24.6C112.948 24.3733 113.575 24.26 114.268 24.26H117.568V23.54C117.568 22.8467 117.361 22.3 116.948 21.9C116.548 21.5 115.948 21.3 115.148 21.3C114.361 21.3 113.748 21.4933 113.308 21.88C112.868 22.2533 112.568 22.76 112.408 23.4L110.928 22.92C111.088 22.3733 111.341 21.88 111.688 21.44C112.035 20.9867 112.495 20.6267 113.068 20.36C113.655 20.08 114.355 19.94 115.168 19.94C116.421 19.94 117.395 20.2667 118.088 20.92C118.781 21.56 119.128 22.4667 119.128 23.64V28.06C119.128 28.46 119.315 28.66 119.688 28.66H120.588V30H119.208C118.768 30 118.415 29.88 118.148 29.64C117.881 29.3867 117.748 29.0533 117.748 28.64V28.54H117.508C117.361 28.7933 117.161 29.06 116.908 29.34C116.668 29.6067 116.335 29.8267 115.908 30C115.481 30.1867 114.928 30.28 114.248 30.28ZM114.428 28.92C115.361 28.92 116.115 28.6467 116.688 28.1C117.275 27.54 117.568 26.76 117.568 25.76V25.54H114.328C113.701 25.54 113.181 25.68 112.768 25.96C112.368 26.2267 112.168 26.6333 112.168 27.18C112.168 27.7267 112.375 28.1533 112.788 28.46C113.215 28.7667 113.761 28.92 114.428 28.92ZM122.752 30V20.22H124.292V21.44H124.572C124.758 21.0933 125.065 20.7733 125.492 20.48C125.918 20.1867 126.518 20.04 127.292 20.04C128.052 20.04 128.665 20.2067 129.132 20.54C129.612 20.8733 129.958 21.28 130.172 21.76H130.452C130.678 21.28 131.018 20.8733 131.472 20.54C131.938 20.2067 132.585 20.04 133.412 20.04C134.065 20.04 134.638 20.1733 135.132 20.44C135.625 20.7067 136.012 21.0933 136.292 21.6C136.585 22.0933 136.732 22.6867 136.732 23.38V30H135.152V23.52C135.152 22.8667 134.958 22.3533 134.572 21.98C134.198 21.5933 133.672 21.4 132.992 21.4C132.272 21.4 131.678 21.6333 131.212 22.1C130.758 22.5667 130.532 23.24 130.532 24.12V30H128.952V23.52C128.952 22.8667 128.758 22.3533 128.372 21.98C127.998 21.5933 127.472 21.4 126.792 21.4C126.072 21.4 125.478 21.6333 125.012 22.1C124.558 22.5667 124.332 23.24 124.332 24.12V30H122.752ZM144.439 30.28C143.452 30.28 142.585 30.0733 141.839 29.66C141.092 29.2333 140.512 28.64 140.099 27.88C139.685 27.12 139.479 26.24 139.479 25.24V25C139.479 23.9867 139.685 23.1 140.099 22.34C140.512 21.58 141.085 20.9933 141.819 20.58C142.552 20.1533 143.392 19.94 144.339 19.94C145.259 19.94 146.072 20.14 146.779 20.54C147.485 20.9267 148.039 21.4867 148.439 22.22C148.839 22.9533 149.039 23.8133 149.039 24.8V25.52H141.059C141.099 26.5733 141.439 27.4 142.079 28C142.719 28.5867 143.519 28.88 144.479 28.88C145.319 28.88 145.965 28.6867 146.419 28.3C146.872 27.9133 147.219 27.4533 147.459 26.92L148.819 27.58C148.619 27.9933 148.339 28.4067 147.979 28.82C147.632 29.2333 147.172 29.58 146.599 29.86C146.039 30.14 145.319 30.28 144.439 30.28ZM141.079 24.22H147.439C147.385 23.3133 147.072 22.6067 146.499 22.1C145.939 21.5933 145.219 21.34 144.339 21.34C143.445 21.34 142.712 21.5933 142.139 22.1C141.565 22.6067 141.212 23.3133 141.079 24.22ZM156.871 34.92V13.88H158.451V34.92H156.871Z" fill="#292524"/>
</g>
<rect x="0.5" y="0.5" width="329" height="45" stroke="#1C1917"/>
<defs>
<clipPath id="clip0_1127_23416">
<rect width="330" height="46" fill="white"/>
</clipPath>
</defs>
</svg>
