<svg width="710" height="140" viewBox="0 0 710 140" fill="none" xmlns="http://www.w3.org/2000/svg">
<rect x="0.5" y="0.5" width="139" height="139" rx="23.5" fill="#FFFBEB"/>
<rect x="0.5" y="0.5" width="139" height="139" rx="23.5" stroke="#292524"/>
<path fill-rule="evenodd" clip-rule="evenodd" d="M70.7068 44.7928C70.5193 44.6053 70.265 44.5 69.9998 44.5C69.7346 44.5 69.4803 44.6053 69.2928 44.7928L66.2928 47.7928C66.1053 47.9803 66 48.2346 66 48.4998C66 48.765 66.1053 49.0193 66.2928 49.2068L69.2928 52.2068C69.4803 52.3943 69.7346 52.4996 69.9998 52.4996C70.265 52.4996 70.5193 52.3943 70.7068 52.2068L73.7068 49.2068C73.8943 49.0193 73.9996 48.765 73.9996 48.4998C73.9996 48.2346 73.8943 47.9803 73.7068 47.7928L70.7068 44.7928ZM69.2928 56.7928C69.4803 56.6053 69.7346 56.5 69.9998 56.5C70.265 56.5 70.5193 56.6053 70.7068 56.7928L73.7068 59.7928C73.8943 59.9803 73.9996 60.2346 73.9996 60.4998C73.9996 60.765 73.8943 61.0193 73.7068 61.2068L70.7068 64.2068C70.5193 64.3943 70.265 64.4996 69.9998 64.4996C69.7346 64.4996 69.4803 64.3943 69.2928 64.2068L66.2928 61.2068C66.1053 61.0193 66 60.765 66 60.4998C66 60.2346 66.1053 59.9803 66.2928 59.7928L69.2928 56.7928ZM75.2928 50.7928C75.4803 50.6053 75.7346 50.5 75.9998 50.5C76.265 50.5 76.5193 50.6053 76.7068 50.7928L79.7068 53.7928C79.8943 53.9803 79.9996 54.2346 79.9996 54.4998C79.9996 54.765 79.8943 55.0193 79.7068 55.2068L76.7068 58.2068C76.5193 58.3943 76.265 58.4996 75.9998 58.4996C75.7346 58.4996 75.4803 58.3943 75.2928 58.2068L72.2928 55.2068C72.1053 55.0193 72 54.765 72 54.4998C72 54.2346 72.1053 53.9803 72.2928 53.7928L75.2928 50.7928ZM63.2928 50.7928C63.4803 50.6053 63.7346 50.5 63.9998 50.5C64.265 50.5 64.5193 50.6053 64.7068 50.7928L67.7068 53.7928C67.8943 53.9803 67.9996 54.2346 67.9996 54.4998C67.9996 54.765 67.8943 55.0193 67.7068 55.2068L64.7068 58.2068C64.5193 58.3943 64.265 58.4996 63.9998 58.4996C63.7346 58.4996 63.4803 58.3943 63.2928 58.2068L60.2928 55.2068C60.1053 55.0193 60 54.765 60 54.4998C60 54.2346 60.1053 53.9803 60.2928 53.7928L63.2928 50.7928Z" fill="#44403C"/>
<path d="M24.976 92.752C23.416 92.752 22.18 92.32 21.268 91.456C20.356 90.58 19.9 89.332 19.9 87.712V84.688C19.9 83.068 20.356 81.826 21.268 80.962C22.18 80.086 23.416 79.648 24.976 79.648C26.524 79.648 27.718 80.074 28.558 80.926C29.41 81.766 29.836 82.924 29.836 84.4V84.508H27.496V84.328C27.496 83.584 27.286 82.972 26.866 82.492C26.458 82.012 25.828 81.772 24.976 81.772C24.136 81.772 23.476 82.03 22.996 82.546C22.516 83.062 22.276 83.764 22.276 84.652V87.748C22.276 88.624 22.516 89.326 22.996 89.854C23.476 90.37 24.136 90.628 24.976 90.628C25.828 90.628 26.458 90.388 26.866 89.908C27.286 89.416 27.496 88.804 27.496 88.072V87.748H29.836V88C29.836 89.476 29.41 90.64 28.558 91.492C27.718 92.332 26.524 92.752 24.976 92.752ZM36.092 92.752C35.204 92.752 34.406 92.572 33.698 92.212C32.99 91.852 32.432 91.33 32.024 90.646C31.616 89.962 31.412 89.14 31.412 88.18V87.892C31.412 86.932 31.616 86.11 32.024 85.426C32.432 84.742 32.99 84.22 33.698 83.86C34.406 83.5 35.204 83.32 36.092 83.32C36.98 83.32 37.778 83.5 38.486 83.86C39.194 84.22 39.752 84.742 40.16 85.426C40.568 86.11 40.772 86.932 40.772 87.892V88.18C40.772 89.14 40.568 89.962 40.16 90.646C39.752 91.33 39.194 91.852 38.486 92.212C37.778 92.572 36.98 92.752 36.092 92.752ZM36.092 90.736C36.788 90.736 37.364 90.514 37.82 90.07C38.276 89.614 38.504 88.966 38.504 88.126V87.946C38.504 87.106 38.276 86.464 37.82 86.02C37.376 85.564 36.8 85.336 36.092 85.336C35.396 85.336 34.82 85.564 34.364 86.02C33.908 86.464 33.68 87.106 33.68 87.946V88.126C33.68 88.966 33.908 89.614 34.364 90.07C34.82 90.514 35.396 90.736 36.092 90.736ZM42.8655 92.5V83.572H45.0975V84.544H45.4215C45.5775 84.244 45.8355 83.986 46.1955 83.77C46.5555 83.542 47.0295 83.428 47.6175 83.428C48.2535 83.428 48.7635 83.554 49.1475 83.806C49.5315 84.046 49.8255 84.364 50.0295 84.76H50.3535C50.5575 84.376 50.8455 84.058 51.2175 83.806C51.5895 83.554 52.1175 83.428 52.8015 83.428C53.3535 83.428 53.8515 83.548 54.2955 83.788C54.7515 84.016 55.1115 84.37 55.3755 84.85C55.6515 85.318 55.7895 85.912 55.7895 86.632V92.5H53.5215V86.794C53.5215 86.302 53.3955 85.936 53.1435 85.696C52.8915 85.444 52.5375 85.318 52.0815 85.318C51.5655 85.318 51.1635 85.486 50.8755 85.822C50.5995 86.146 50.4615 86.614 50.4615 87.226V92.5H48.1935V86.794C48.1935 86.302 48.0675 85.936 47.8155 85.696C47.5635 85.444 47.2095 85.318 46.7535 85.318C46.2375 85.318 45.8355 85.486 45.5475 85.822C45.2715 86.146 45.1335 86.614 45.1335 87.226V92.5H42.8655ZM58.2288 96.1V83.572H60.4608V84.652H60.7848C60.9888 84.304 61.3068 83.998 61.7388 83.734C62.1708 83.458 62.7888 83.32 63.5928 83.32C64.3128 83.32 64.9788 83.5 65.5908 83.86C66.2028 84.208 66.6948 84.724 67.0668 85.408C67.4388 86.092 67.6248 86.92 67.6248 87.892V88.18C67.6248 89.152 67.4388 89.98 67.0668 90.664C66.6948 91.348 66.2028 91.87 65.5908 92.23C64.9788 92.578 64.3128 92.752 63.5928 92.752C63.0528 92.752 62.5968 92.686 62.2248 92.554C61.8648 92.434 61.5708 92.278 61.3428 92.086C61.1268 91.882 60.9528 91.678 60.8208 91.474H60.4968V96.1H58.2288ZM62.9088 90.772C63.6168 90.772 64.1988 90.55 64.6548 90.106C65.1228 89.65 65.3568 88.99 65.3568 88.126V87.946C65.3568 87.082 65.1228 86.428 64.6548 85.984C64.1868 85.528 63.6048 85.3 62.9088 85.3C62.2128 85.3 61.6308 85.528 61.1628 85.984C60.6948 86.428 60.4608 87.082 60.4608 87.946V88.126C60.4608 88.99 60.6948 89.65 61.1628 90.106C61.6308 90.55 62.2128 90.772 62.9088 90.772ZM73.9553 92.752C73.0673 92.752 72.2693 92.572 71.5613 92.212C70.8533 91.852 70.2953 91.33 69.8873 90.646C69.4793 89.962 69.2753 89.14 69.2753 88.18V87.892C69.2753 86.932 69.4793 86.11 69.8873 85.426C70.2953 84.742 70.8533 84.22 71.5613 83.86C72.2693 83.5 73.0673 83.32 73.9553 83.32C74.8433 83.32 75.6413 83.5 76.3493 83.86C77.0573 84.22 77.6153 84.742 78.0233 85.426C78.4313 86.11 78.6353 86.932 78.6353 87.892V88.18C78.6353 89.14 78.4313 89.962 78.0233 90.646C77.6153 91.33 77.0573 91.852 76.3493 92.212C75.6413 92.572 74.8433 92.752 73.9553 92.752ZM73.9553 90.736C74.6513 90.736 75.2273 90.514 75.6833 90.07C76.1393 89.614 76.3673 88.966 76.3673 88.126V87.946C76.3673 87.106 76.1393 86.464 75.6833 86.02C75.2393 85.564 74.6633 85.336 73.9553 85.336C73.2593 85.336 72.6833 85.564 72.2273 86.02C71.7713 86.464 71.5433 87.106 71.5433 87.946V88.126C71.5433 88.966 71.7713 89.614 72.2273 90.07C72.6833 90.514 73.2593 90.736 73.9553 90.736ZM80.7288 92.5V83.572H82.9608V84.742H83.2848C83.4288 84.43 83.6988 84.136 84.0947 83.86C84.4908 83.572 85.0908 83.428 85.8948 83.428C86.5908 83.428 87.1968 83.59 87.7128 83.914C88.2408 84.226 88.6488 84.664 88.9368 85.228C89.2248 85.78 89.3688 86.428 89.3688 87.172V92.5H87.1008V87.352C87.1008 86.68 86.9328 86.176 86.5968 85.84C86.2728 85.504 85.8048 85.336 85.1928 85.336C84.4968 85.336 83.9568 85.57 83.5728 86.038C83.1888 86.494 82.9968 87.136 82.9968 87.964V92.5H80.7288ZM95.8885 92.752C95.0005 92.752 94.2145 92.566 93.5305 92.194C92.8585 91.81 92.3305 91.276 91.9465 90.592C91.5745 89.896 91.3885 89.08 91.3885 88.144V87.928C91.3885 86.992 91.5745 86.182 91.9465 85.498C92.3185 84.802 92.8405 84.268 93.5125 83.896C94.1845 83.512 94.9645 83.32 95.8525 83.32C96.7285 83.32 97.4905 83.518 98.1385 83.914C98.7865 84.298 99.2905 84.838 99.6505 85.534C100.011 86.218 100.191 87.016 100.191 87.928V88.702H93.6925C93.7165 89.314 93.9445 89.812 94.3765 90.196C94.8085 90.58 95.3365 90.772 95.9605 90.772C96.5965 90.772 97.0645 90.634 97.3645 90.358C97.6645 90.082 97.8925 89.776 98.0485 89.44L99.9025 90.412C99.7345 90.724 99.4885 91.066 99.1645 91.438C98.8525 91.798 98.4325 92.11 97.9045 92.374C97.3765 92.626 96.7045 92.752 95.8885 92.752ZM93.7105 87.01H97.8865C97.8385 86.494 97.6285 86.08 97.2565 85.768C96.8965 85.456 96.4225 85.3 95.8345 85.3C95.2225 85.3 94.7365 85.456 94.3765 85.768C94.0165 86.08 93.7945 86.494 93.7105 87.01ZM102.209 92.5V83.572H104.441V84.742H104.765C104.909 84.43 105.179 84.136 105.575 83.86C105.971 83.572 106.571 83.428 107.375 83.428C108.071 83.428 108.677 83.59 109.193 83.914C109.721 84.226 110.129 84.664 110.417 85.228C110.705 85.78 110.849 86.428 110.849 87.172V92.5H108.581V87.352C108.581 86.68 108.413 86.176 108.077 85.84C107.753 85.504 107.285 85.336 106.673 85.336C105.977 85.336 105.437 85.57 105.053 86.038C104.669 86.494 104.477 87.136 104.477 87.964V92.5H102.209ZM116.475 92.5C115.887 92.5 115.407 92.32 115.035 91.96C114.675 91.588 114.495 91.096 114.495 90.484V85.444H112.263V83.572H114.495V80.8H116.763V83.572H119.211V85.444H116.763V90.088C116.763 90.448 116.931 90.628 117.267 90.628H118.995V92.5H116.475Z" fill="#1C1917"/>
<rect x="190.5" y="0.5" width="139" height="139" rx="69.5" fill="#FDF2F8"/>
<rect x="190.5" y="0.5" width="139" height="139" rx="69.5" stroke="#292524"/>
<path d="M268 51.4652C267.96 47.0752 264.4 43.5352 260 43.5352C255.6 43.5352 252.04 47.0752 252 51.4652V57.4652C252 61.8852 255.58 65.4652 260 65.4652C264.42 65.4652 268 61.8852 268 57.4652V51.4652ZM266 51.4652H261V45.6252C263.81 46.0952 265.96 48.5252 266 51.4652ZM259 45.6252V51.4652H254C254.04 48.5252 256.19 46.0952 259 45.6252ZM266 57.4652C266 60.7752 263.31 63.4652 260 63.4652C256.69 63.4652 254 60.7752 254 57.4652V53.4652H266V57.4652Z" fill="#44403C"/>
<path d="M233.32 92.5V81.664H229.45V79.9H239.134V81.664H235.264V92.5H233.32ZM239.649 92.5V83.626H241.467V84.67H241.755C241.899 84.298 242.127 84.028 242.439 83.86C242.763 83.68 243.159 83.59 243.627 83.59H244.689V85.264H243.555C242.955 85.264 242.463 85.432 242.079 85.768C241.695 86.092 241.503 86.596 241.503 87.28V92.5H239.649ZM246.61 92.5V83.626H248.464V92.5H246.61ZM247.546 82.42C247.186 82.42 246.88 82.306 246.628 82.078C246.388 81.838 246.268 81.532 246.268 81.16C246.268 80.788 246.388 80.488 246.628 80.26C246.88 80.02 247.186 79.9 247.546 79.9C247.918 79.9 248.224 80.02 248.464 80.26C248.704 80.488 248.824 80.788 248.824 81.16C248.824 81.532 248.704 81.838 248.464 82.078C248.224 82.306 247.918 82.42 247.546 82.42ZM250.784 88.108V87.838C250.784 86.902 250.97 86.104 251.342 85.444C251.726 84.784 252.23 84.274 252.854 83.914C253.478 83.554 254.162 83.374 254.906 83.374C255.77 83.374 256.43 83.536 256.886 83.86C257.354 84.184 257.696 84.532 257.912 84.904H258.2V83.626H260V94.318C260 94.858 259.838 95.29 259.514 95.614C259.202 95.938 258.77 96.1 258.218 96.1H252.242V94.48H257.642C257.99 94.48 258.164 94.3 258.164 93.94V91.114H257.876C257.744 91.33 257.558 91.552 257.318 91.78C257.078 92.008 256.76 92.194 256.364 92.338C255.98 92.482 255.494 92.554 254.906 92.554C254.162 92.554 253.472 92.38 252.836 92.032C252.212 91.672 251.714 91.162 251.342 90.502C250.97 89.83 250.784 89.032 250.784 88.108ZM255.41 90.934C256.214 90.934 256.874 90.682 257.39 90.178C257.918 89.662 258.182 88.954 258.182 88.054V87.892C258.182 86.968 257.924 86.26 257.408 85.768C256.892 85.264 256.226 85.012 255.41 85.012C254.618 85.012 253.958 85.264 253.43 85.768C252.914 86.26 252.656 86.968 252.656 87.892V88.054C252.656 88.954 252.914 89.662 253.43 90.178C253.958 90.682 254.618 90.934 255.41 90.934ZM262.297 88.108V87.838C262.297 86.902 262.483 86.104 262.855 85.444C263.239 84.784 263.743 84.274 264.367 83.914C264.991 83.554 265.675 83.374 266.419 83.374C267.283 83.374 267.943 83.536 268.399 83.86C268.867 84.184 269.209 84.532 269.425 84.904H269.713V83.626H271.513V94.318C271.513 94.858 271.351 95.29 271.027 95.614C270.715 95.938 270.283 96.1 269.731 96.1H263.755V94.48H269.155C269.503 94.48 269.677 94.3 269.677 93.94V91.114H269.389C269.257 91.33 269.071 91.552 268.831 91.78C268.591 92.008 268.273 92.194 267.877 92.338C267.493 92.482 267.007 92.554 266.419 92.554C265.675 92.554 264.985 92.38 264.349 92.032C263.725 91.672 263.227 91.162 262.855 90.502C262.483 89.83 262.297 89.032 262.297 88.108ZM266.923 90.934C267.727 90.934 268.387 90.682 268.903 90.178C269.431 89.662 269.695 88.954 269.695 88.054V87.892C269.695 86.968 269.437 86.26 268.921 85.768C268.405 85.264 267.739 85.012 266.923 85.012C266.131 85.012 265.471 85.264 264.943 85.768C264.427 86.26 264.169 86.968 264.169 87.892V88.054C264.169 88.954 264.427 89.662 264.943 90.178C265.471 90.682 266.131 90.934 266.923 90.934ZM278.311 92.752C277.411 92.752 276.625 92.566 275.953 92.194C275.281 91.81 274.753 91.276 274.369 90.592C273.997 89.896 273.811 89.092 273.811 88.18V87.964C273.811 87.04 273.997 86.236 274.369 85.552C274.741 84.856 275.257 84.322 275.917 83.95C276.589 83.566 277.363 83.374 278.239 83.374C279.091 83.374 279.835 83.566 280.471 83.95C281.119 84.322 281.623 84.844 281.983 85.516C282.343 86.188 282.523 86.974 282.523 87.874V88.576H275.701C275.725 89.356 275.983 89.98 276.475 90.448C276.979 90.904 277.603 91.132 278.347 91.132C279.043 91.132 279.565 90.976 279.913 90.664C280.273 90.352 280.549 89.992 280.741 89.584L282.271 90.376C282.103 90.712 281.857 91.066 281.533 91.438C281.221 91.81 280.807 92.122 280.291 92.374C279.775 92.626 279.115 92.752 278.311 92.752ZM275.719 87.154H280.633C280.585 86.482 280.345 85.96 279.913 85.588C279.481 85.204 278.917 85.012 278.221 85.012C277.525 85.012 276.955 85.204 276.511 85.588C276.079 85.96 275.815 86.482 275.719 87.154ZM284.755 92.5V83.626H286.573V84.67H286.861C287.005 84.298 287.233 84.028 287.545 83.86C287.869 83.68 288.265 83.59 288.733 83.59H289.795V85.264H288.661C288.061 85.264 287.569 85.432 287.185 85.768C286.801 86.092 286.609 86.596 286.609 87.28V92.5H284.755Z" fill="#1C1917"/>
<rect x="380.5" y="0.5" width="139" height="139" rx="69.5" fill="#F7FEE7"/>
<rect x="380.5" y="0.5" width="139" height="139" rx="69.5" stroke="#292524"/>
<path d="M452.69 44.7104L442.33 53.9904C441.69 54.5704 442.05 55.6404 442.91 55.7204L451 56.5004L446.15 63.2604C445.93 63.5704 445.96 64.0004 446.23 64.2704C446.53 64.5704 447 64.5804 447.31 64.2904L457.67 55.0104C458.31 54.4304 457.95 53.3604 457.09 53.2804L449 52.5004L453.85 45.7404C454.07 45.4304 454.04 45.0004 453.77 44.7304C453.47 44.4304 453 44.4204 452.69 44.7104Z" fill="#44403C"/>
<path d="M421.878 92.5L425.478 79.9H428.898L432.48 92.5H430.482L429.654 89.53H424.722L423.894 92.5H421.878ZM425.208 87.73H429.168L427.332 81.106H427.044L425.208 87.73ZM438.363 92.752C437.511 92.752 436.737 92.572 436.041 92.212C435.357 91.852 434.811 91.33 434.403 90.646C434.007 89.962 433.809 89.14 433.809 88.18V87.946C433.809 86.986 434.007 86.17 434.403 85.498C434.811 84.814 435.357 84.292 436.041 83.932C436.737 83.56 437.511 83.374 438.363 83.374C439.215 83.374 439.941 83.53 440.541 83.842C441.141 84.154 441.621 84.568 441.981 85.084C442.353 85.6 442.593 86.17 442.701 86.794L440.901 87.172C440.841 86.776 440.715 86.416 440.523 86.092C440.331 85.768 440.061 85.51 439.713 85.318C439.365 85.126 438.927 85.03 438.399 85.03C437.883 85.03 437.415 85.15 436.995 85.39C436.587 85.618 436.263 85.954 436.023 86.398C435.783 86.83 435.663 87.358 435.663 87.982V88.144C435.663 88.768 435.783 89.302 436.023 89.746C436.263 90.19 436.587 90.526 436.995 90.754C437.415 90.982 437.883 91.096 438.399 91.096C439.179 91.096 439.773 90.898 440.181 90.502C440.589 90.094 440.847 89.578 440.955 88.954L442.755 89.368C442.611 89.98 442.353 90.544 441.981 91.06C441.621 91.576 441.141 91.99 440.541 92.302C439.941 92.602 439.215 92.752 438.363 92.752ZM447.889 92.5C447.349 92.5 446.917 92.338 446.593 92.014C446.281 91.69 446.125 91.258 446.125 90.718V85.192H443.677V83.626H446.125V80.692H447.979V83.626H450.625V85.192H447.979V90.394C447.979 90.754 448.147 90.934 448.483 90.934H450.337V92.5H447.889ZM452.804 92.5V83.626H454.658V92.5H452.804ZM453.74 82.42C453.38 82.42 453.074 82.306 452.822 82.078C452.582 81.838 452.462 81.532 452.462 81.16C452.462 80.788 452.582 80.488 452.822 80.26C453.074 80.02 453.38 79.9 453.74 79.9C454.112 79.9 454.418 80.02 454.658 80.26C454.898 80.488 455.018 80.788 455.018 81.16C455.018 81.532 454.898 81.838 454.658 82.078C454.418 82.306 454.112 82.42 453.74 82.42ZM461.567 92.752C460.679 92.752 459.887 92.572 459.191 92.212C458.507 91.84 457.967 91.312 457.571 90.628C457.175 89.944 456.977 89.134 456.977 88.198V87.928C456.977 86.992 457.175 86.188 457.571 85.516C457.967 84.832 458.507 84.304 459.191 83.932C459.887 83.56 460.679 83.374 461.567 83.374C462.455 83.374 463.247 83.56 463.943 83.932C464.639 84.304 465.185 84.832 465.581 85.516C465.977 86.188 466.175 86.992 466.175 87.928V88.198C466.175 89.134 465.977 89.944 465.581 90.628C465.185 91.312 464.639 91.84 463.943 92.212C463.247 92.572 462.455 92.752 461.567 92.752ZM461.567 91.096C462.383 91.096 463.043 90.838 463.547 90.322C464.063 89.794 464.321 89.068 464.321 88.144V87.982C464.321 87.058 464.069 86.338 463.565 85.822C463.061 85.294 462.395 85.03 461.567 85.03C460.763 85.03 460.103 85.294 459.587 85.822C459.083 86.338 458.831 87.058 458.831 87.982V88.144C458.831 89.068 459.083 89.794 459.587 90.322C460.103 90.838 460.763 91.096 461.567 91.096ZM468.483 92.5V83.626H470.301V84.958H470.589C470.757 84.598 471.057 84.262 471.489 83.95C471.921 83.638 472.563 83.482 473.415 83.482C474.087 83.482 474.681 83.632 475.197 83.932C475.725 84.232 476.139 84.658 476.439 85.21C476.739 85.75 476.889 86.404 476.889 87.172V92.5H475.035V87.316C475.035 86.548 474.843 85.984 474.459 85.624C474.075 85.252 473.547 85.066 472.875 85.066C472.107 85.066 471.489 85.318 471.021 85.822C470.565 86.326 470.337 87.058 470.337 88.018V92.5H468.483Z" fill="#1C1917"/>
<rect x="570.5" y="0.5" width="139" height="139" rx="69.5" fill="#F0F9FF"/>
<rect x="570.5" y="0.5" width="139" height="139" rx="69.5" stroke="#292524"/>
<path d="M648.94 53.5C648.48 49.33 645.17 46.02 641 45.56V43.5H639V45.56C634.83 46.02 631.52 49.33 631.06 53.5H629V55.5H631.06C631.52 59.67 634.83 62.98 639 63.44V65.5H641V63.44C645.17 62.98 648.48 59.67 648.94 55.5H651V53.5H648.94ZM640 61.5C636.13 61.5 633 58.37 633 54.5C633 50.63 636.13 47.5 640 47.5C643.87 47.5 647 50.63 647 54.5C647 58.37 643.87 61.5 640 61.5Z" fill="#44403C"/>
<path d="M590.346 92.5V90.772H592.038V81.628H590.346V79.9H595.386C597.066 79.9 598.35 80.326 599.238 81.178C600.138 82.03 600.588 83.314 600.588 85.03V87.388C600.588 89.104 600.138 90.388 599.238 91.24C598.35 92.08 597.066 92.5 595.386 92.5H590.346ZM594 90.736H595.404C596.496 90.736 597.306 90.46 597.834 89.908C598.362 89.356 598.626 88.534 598.626 87.442V84.958C598.626 83.854 598.362 83.032 597.834 82.492C597.306 81.952 596.496 81.682 595.404 81.682H594V90.736ZM606.907 92.752C606.007 92.752 605.221 92.566 604.549 92.194C603.877 91.81 603.349 91.276 602.965 90.592C602.593 89.896 602.407 89.092 602.407 88.18V87.964C602.407 87.04 602.593 86.236 602.965 85.552C603.337 84.856 603.853 84.322 604.513 83.95C605.185 83.566 605.959 83.374 606.835 83.374C607.687 83.374 608.431 83.566 609.067 83.95C609.715 84.322 610.219 84.844 610.579 85.516C610.939 86.188 611.119 86.974 611.119 87.874V88.576H604.297C604.321 89.356 604.579 89.98 605.071 90.448C605.575 90.904 606.199 91.132 606.943 91.132C607.639 91.132 608.161 90.976 608.509 90.664C608.869 90.352 609.145 89.992 609.337 89.584L610.867 90.376C610.699 90.712 610.453 91.066 610.129 91.438C609.817 91.81 609.403 92.122 608.887 92.374C608.371 92.626 607.711 92.752 606.907 92.752ZM604.315 87.154H609.229C609.181 86.482 608.941 85.96 608.509 85.588C608.077 85.204 607.513 85.012 606.817 85.012C606.121 85.012 605.551 85.204 605.107 85.588C604.675 85.96 604.411 86.482 604.315 87.154ZM616.986 92.752C615.858 92.752 614.922 92.5 614.178 91.996C613.434 91.492 612.978 90.73 612.81 89.71L614.538 89.296C614.634 89.788 614.796 90.178 615.024 90.466C615.252 90.754 615.534 90.958 615.87 91.078C616.218 91.198 616.59 91.258 616.986 91.258C617.574 91.258 618.024 91.144 618.336 90.916C618.66 90.688 618.822 90.394 618.822 90.034C618.822 89.674 618.672 89.41 618.372 89.242C618.072 89.074 617.628 88.936 617.04 88.828L616.428 88.72C615.828 88.612 615.282 88.456 614.79 88.252C614.298 88.048 613.908 87.766 613.62 87.406C613.332 87.046 613.188 86.584 613.188 86.02C613.188 85.18 613.5 84.532 614.124 84.076C614.748 83.608 615.576 83.374 616.608 83.374C617.604 83.374 618.42 83.602 619.056 84.058C619.704 84.502 620.124 85.108 620.316 85.876L618.588 86.362C618.48 85.822 618.252 85.444 617.904 85.228C617.556 85 617.124 84.886 616.608 84.886C616.104 84.886 615.708 84.982 615.42 85.174C615.132 85.354 614.988 85.612 614.988 85.948C614.988 86.308 615.126 86.572 615.402 86.74C615.69 86.908 616.074 87.034 616.554 87.118L617.184 87.226C617.82 87.334 618.402 87.484 618.93 87.676C619.458 87.868 619.872 88.144 620.172 88.504C620.484 88.864 620.64 89.344 620.64 89.944C620.64 90.832 620.31 91.522 619.65 92.014C618.99 92.506 618.102 92.752 616.986 92.752ZM625.944 92.5C625.404 92.5 624.972 92.338 624.648 92.014C624.336 91.69 624.18 91.258 624.18 90.718V85.192H621.732V83.626H624.18V80.692H626.034V83.626H628.68V85.192H626.034V90.394C626.034 90.754 626.202 90.934 626.538 90.934H628.392V92.5H625.944ZM630.858 92.5V83.626H632.712V92.5H630.858ZM631.794 82.42C631.434 82.42 631.128 82.306 630.876 82.078C630.636 81.838 630.516 81.532 630.516 81.16C630.516 80.788 630.636 80.488 630.876 80.26C631.128 80.02 631.434 79.9 631.794 79.9C632.166 79.9 632.472 80.02 632.712 80.26C632.952 80.488 633.072 80.788 633.072 81.16C633.072 81.532 632.952 81.838 632.712 82.078C632.472 82.306 632.166 82.42 631.794 82.42ZM635.464 92.5V83.626H637.282V84.958H637.57C637.738 84.598 638.038 84.262 638.47 83.95C638.902 83.638 639.544 83.482 640.396 83.482C641.068 83.482 641.662 83.632 642.178 83.932C642.706 84.232 643.12 84.658 643.42 85.21C643.72 85.75 643.87 86.404 643.87 87.172V92.5H642.016V87.316C642.016 86.548 641.824 85.984 641.44 85.624C641.056 85.252 640.528 85.066 639.856 85.066C639.088 85.066 638.47 85.318 638.002 85.822C637.546 86.326 637.318 87.058 637.318 88.018V92.5H635.464ZM649.292 92.752C648.656 92.752 648.086 92.644 647.582 92.428C647.09 92.212 646.694 91.894 646.394 91.474C646.106 91.054 645.962 90.544 645.962 89.944C645.962 89.332 646.106 88.828 646.394 88.432C646.694 88.024 647.096 87.718 647.6 87.514C648.116 87.31 648.698 87.208 649.346 87.208H652.046V86.632C652.046 86.116 651.89 85.702 651.578 85.39C651.266 85.078 650.786 84.922 650.138 84.922C649.502 84.922 649.016 85.072 648.68 85.372C648.344 85.672 648.122 86.062 648.014 86.542L646.286 85.984C646.43 85.504 646.658 85.072 646.97 84.688C647.294 84.292 647.72 83.974 648.248 83.734C648.776 83.494 649.412 83.374 650.156 83.374C651.308 83.374 652.214 83.668 652.874 84.256C653.534 84.844 653.864 85.678 653.864 86.758V90.412C653.864 90.772 654.032 90.952 654.368 90.952H655.124V92.5H653.738C653.318 92.5 652.976 92.392 652.712 92.176C652.448 91.96 652.316 91.666 652.316 91.294V91.24H652.046C651.95 91.42 651.806 91.63 651.614 91.87C651.422 92.11 651.14 92.32 650.768 92.5C650.396 92.668 649.904 92.752 649.292 92.752ZM649.562 91.222C650.306 91.222 650.906 91.012 651.362 90.592C651.818 90.16 652.046 89.572 652.046 88.828V88.648H649.454C648.962 88.648 648.566 88.756 648.266 88.972C647.966 89.176 647.816 89.482 647.816 89.89C647.816 90.298 647.972 90.622 648.284 90.862C648.596 91.102 649.022 91.222 649.562 91.222ZM659.641 92.5C659.101 92.5 658.669 92.338 658.345 92.014C658.033 91.69 657.877 91.258 657.877 90.718V85.192H655.429V83.626H657.877V80.692H659.731V83.626H662.377V85.192H659.731V90.394C659.731 90.754 659.899 90.934 660.235 90.934H662.089V92.5H659.641ZM664.556 92.5V83.626H666.41V92.5H664.556ZM665.492 82.42C665.132 82.42 664.826 82.306 664.574 82.078C664.334 81.838 664.214 81.532 664.214 81.16C664.214 80.788 664.334 80.488 664.574 80.26C664.826 80.02 665.132 79.9 665.492 79.9C665.864 79.9 666.17 80.02 666.41 80.26C666.65 80.488 666.77 80.788 666.77 81.16C666.77 81.532 666.65 81.838 666.41 82.078C666.17 82.306 665.864 82.42 665.492 82.42ZM673.319 92.752C672.431 92.752 671.639 92.572 670.943 92.212C670.259 91.84 669.719 91.312 669.323 90.628C668.927 89.944 668.729 89.134 668.729 88.198V87.928C668.729 86.992 668.927 86.188 669.323 85.516C669.719 84.832 670.259 84.304 670.943 83.932C671.639 83.56 672.431 83.374 673.319 83.374C674.207 83.374 674.999 83.56 675.695 83.932C676.391 84.304 676.937 84.832 677.333 85.516C677.729 86.188 677.927 86.992 677.927 87.928V88.198C677.927 89.134 677.729 89.944 677.333 90.628C676.937 91.312 676.391 91.84 675.695 92.212C674.999 92.572 674.207 92.752 673.319 92.752ZM673.319 91.096C674.135 91.096 674.795 90.838 675.299 90.322C675.815 89.794 676.073 89.068 676.073 88.144V87.982C676.073 87.058 675.821 86.338 675.317 85.822C674.813 85.294 674.147 85.03 673.319 85.03C672.515 85.03 671.855 85.294 671.339 85.822C670.835 86.338 670.583 87.058 670.583 87.982V88.144C670.583 89.068 670.835 89.794 671.339 90.322C671.855 90.838 672.515 91.096 673.319 91.096ZM680.235 92.5V83.626H682.053V84.958H682.341C682.509 84.598 682.809 84.262 683.241 83.95C683.673 83.638 684.315 83.482 685.167 83.482C685.839 83.482 686.433 83.632 686.949 83.932C687.477 84.232 687.891 84.658 688.191 85.21C688.491 85.75 688.641 86.404 688.641 87.172V92.5H686.787V87.316C686.787 86.548 686.595 85.984 686.211 85.624C685.827 85.252 685.299 85.066 684.627 85.066C683.859 85.066 683.241 85.318 682.773 85.822C682.317 86.326 682.089 87.058 682.089 88.018V92.5H680.235Z" fill="#1C1917"/>
<path d="M137.333 70C137.333 71.4728 138.527 72.6667 140 72.6667C141.473 72.6667 142.667 71.4728 142.667 70C142.667 68.5272 141.473 67.3333 140 67.3333C138.527 67.3333 137.333 68.5272 137.333 70ZM190.354 70.3536C190.549 70.1583 190.549 69.8417 190.354 69.6464L187.172 66.4645C186.976 66.2692 186.66 66.2692 186.464 66.4645C186.269 66.6597 186.269 66.9763 186.464 67.1716L189.293 70L186.464 72.8284C186.269 73.0237 186.269 73.3403 186.464 73.5355C186.66 73.7308 186.976 73.7308 187.172 73.5355L190.354 70.3536ZM140 70L140 70.5L190 70.5L190 70L190 69.5L140 69.5L140 70Z" fill="#292524"/>
<path d="M327.333 70C327.333 71.4728 328.527 72.6667 330 72.6667C331.473 72.6667 332.667 71.4728 332.667 70C332.667 68.5272 331.473 67.3333 330 67.3333C328.527 67.3333 327.333 68.5272 327.333 70ZM380.354 70.3536C380.549 70.1583 380.549 69.8417 380.354 69.6464L377.172 66.4645C376.976 66.2692 376.66 66.2692 376.464 66.4645C376.269 66.6597 376.269 66.9763 376.464 67.1716L379.293 70L376.464 72.8284C376.269 73.0237 376.269 73.3403 376.464 73.5355C376.66 73.7308 376.976 73.7308 377.172 73.5355L380.354 70.3536ZM330 70L330 70.5L380 70.5L380 70L380 69.5L330 69.5L330 70Z" fill="#292524"/>
<path d="M517.333 70C517.333 71.4728 518.527 72.6667 520 72.6667C521.473 72.6667 522.667 71.4728 522.667 70C522.667 68.5272 521.473 67.3333 520 67.3333C518.527 67.3333 517.333 68.5272 517.333 70ZM570.354 70.3536C570.549 70.1583 570.549 69.8417 570.354 69.6464L567.172 66.4645C566.976 66.2692 566.66 66.2692 566.464 66.4645C566.269 66.6597 566.269 66.9763 566.464 67.1716L569.293 70L566.464 72.8284C566.269 73.0237 566.269 73.3403 566.464 73.5355C566.66 73.7308 566.976 73.7308 567.172 73.5355L570.354 70.3536ZM520 70L520 70.5L570 70.5L570 70L570 69.5L520 69.5L520 70Z" fill="#292524"/>
</svg>
