<svg width="692" height="64" viewBox="0 0 692 64" fill="none" xmlns="http://www.w3.org/2000/svg">
<rect x="256.5" y="0.5" width="179" height="63" rx="23.5" fill="#D1FAE5"/>
<rect x="256.5" y="0.5" width="179" height="63" rx="23.5" stroke="#292524"/>
<path d="M297.5 25.25C298.6 25.25 299.5 24.35 299.5 23.25C299.5 22.15 298.6 21.25 297.5 21.25C296.4 21.25 295.5 22.15 295.5 23.25C295.5 24.35 296.4 25.25 297.5 25.25ZM293.8 28.65L291 42.75H293.1L294.9 34.75L297 36.75V42.75H299V35.25L296.9 33.25L297.5 30.25C298.8 31.75 300.8 32.75 303 32.75V30.75C301.1 30.75 299.5 29.75 298.7 28.35L297.7 26.75C297.14 25.86 296.02 25.5 295.05 25.91L290 28.05V32.75H292V29.35L293.8 28.65Z" fill="#44403C"/>
<path d="M317.814 38.5V25.9H321.468L324.222 37.204H324.51L327.264 25.9H330.918V38.5H329.028V27.268H328.74L326.004 38.5H322.728L319.992 27.268H319.704V38.5H317.814ZM337.758 38.752C336.87 38.752 336.078 38.572 335.382 38.212C334.698 37.84 334.158 37.312 333.762 36.628C333.366 35.944 333.168 35.134 333.168 34.198V33.928C333.168 32.992 333.366 32.188 333.762 31.516C334.158 30.832 334.698 30.304 335.382 29.932C336.078 29.56 336.87 29.374 337.758 29.374C338.646 29.374 339.438 29.56 340.134 29.932C340.83 30.304 341.376 30.832 341.772 31.516C342.168 32.188 342.366 32.992 342.366 33.928V34.198C342.366 35.134 342.168 35.944 341.772 36.628C341.376 37.312 340.83 37.84 340.134 38.212C339.438 38.572 338.646 38.752 337.758 38.752ZM337.758 37.096C338.574 37.096 339.234 36.838 339.738 36.322C340.254 35.794 340.512 35.068 340.512 34.144V33.982C340.512 33.058 340.26 32.338 339.756 31.822C339.252 31.294 338.586 31.03 337.758 31.03C336.954 31.03 336.294 31.294 335.778 31.822C335.274 32.338 335.022 33.058 335.022 33.982V34.144C335.022 35.068 335.274 35.794 335.778 36.322C336.294 36.838 336.954 37.096 337.758 37.096ZM344.675 38.5V29.626H346.493V30.958H346.781C346.949 30.598 347.249 30.262 347.681 29.95C348.113 29.638 348.755 29.482 349.607 29.482C350.279 29.482 350.873 29.632 351.389 29.932C351.917 30.232 352.331 30.658 352.631 31.21C352.931 31.75 353.081 32.404 353.081 33.172V38.5H351.227V33.316C351.227 32.548 351.035 31.984 350.651 31.624C350.267 31.252 349.739 31.066 349.067 31.066C348.299 31.066 347.681 31.318 347.213 31.822C346.757 32.326 346.529 33.058 346.529 34.018V38.5H344.675ZM358.833 38.5C358.293 38.5 357.861 38.338 357.537 38.014C357.225 37.69 357.069 37.258 357.069 36.718V31.192H354.621V29.626H357.069V26.692H358.923V29.626H361.569V31.192H358.923V36.394C358.923 36.754 359.091 36.934 359.427 36.934H361.281V38.5H358.833ZM363.747 38.5V25.9H365.601V30.886H365.889C366.009 30.658 366.177 30.436 366.393 30.22C366.621 30.004 366.915 29.83 367.275 29.698C367.647 29.554 368.115 29.482 368.679 29.482C369.351 29.482 369.945 29.632 370.461 29.932C370.989 30.232 371.403 30.658 371.703 31.21C372.003 31.75 372.153 32.404 372.153 33.172V38.5H370.299V33.316C370.299 32.548 370.107 31.984 369.723 31.624C369.339 31.252 368.811 31.066 368.139 31.066C367.371 31.066 366.753 31.318 366.285 31.822C365.829 32.326 365.601 33.058 365.601 34.018V38.5H363.747Z" fill="#1C1917"/>
<rect x="381.5" y="22" width="6" height="20" rx="3" fill="#44403C"/>
<rect x="391.5" y="22" width="6" height="20" rx="3" fill="#44403C"/>
<rect x="402" y="22.5" width="5" height="19" rx="2.5" stroke="#44403C"/>
<rect x="0.5" y="0.5" width="179" height="63" rx="23.5" fill="#ECFDF5"/>
<rect x="0.5" y="0.5" width="179" height="63" rx="23.5" stroke="#292524"/>
<path d="M45.3199 26C46.4245 26 47.3199 25.1046 47.3199 24C47.3199 22.8954 46.4245 22 45.3199 22C44.2154 22 43.3199 22.8954 43.3199 24C43.3199 25.1046 44.2154 26 45.3199 26Z" fill="#44403C"/>
<path d="M49.2099 28.11C48.8199 27.72 48.1499 27 46.8499 27C46.6399 27 45.4299 27 44.3099 27C41.5599 26.99 39.3199 24.75 39.3199 22H37.3199C37.3199 25.16 39.4299 27.84 42.3199 28.71V42H44.3199V36H46.3199V42H48.3199V30.05L52.2699 34L53.6799 32.59L49.2099 28.11Z" fill="#44403C"/>
<path d="M67.948 38.5L66.094 25.9H68.038L69.55 37.186H69.838L71.782 25.9H75.184L77.128 37.186H77.416L78.91 25.9H80.854L79 38.5H75.598L73.618 27.052H73.33L71.368 38.5H67.948ZM86.7212 38.752C85.8212 38.752 85.0352 38.566 84.3632 38.194C83.6912 37.81 83.1632 37.276 82.7792 36.592C82.4072 35.896 82.2212 35.092 82.2212 34.18V33.964C82.2212 33.04 82.4072 32.236 82.7792 31.552C83.1512 30.856 83.6672 30.322 84.3272 29.95C84.9992 29.566 85.7732 29.374 86.6492 29.374C87.5012 29.374 88.2452 29.566 88.8812 29.95C89.5292 30.322 90.0332 30.844 90.3932 31.516C90.7532 32.188 90.9332 32.974 90.9332 33.874V34.576H84.1112C84.1352 35.356 84.3932 35.98 84.8852 36.448C85.3892 36.904 86.0132 37.132 86.7572 37.132C87.4532 37.132 87.9752 36.976 88.3232 36.664C88.6832 36.352 88.9592 35.992 89.1512 35.584L90.6812 36.376C90.5132 36.712 90.2672 37.066 89.9432 37.438C89.6312 37.81 89.2172 38.122 88.7012 38.374C88.1852 38.626 87.5252 38.752 86.7212 38.752ZM84.1292 33.154H89.0432C88.9952 32.482 88.7552 31.96 88.3232 31.588C87.8912 31.204 87.3272 31.012 86.6312 31.012C85.9352 31.012 85.3652 31.204 84.9212 31.588C84.4892 31.96 84.2252 32.482 84.1292 33.154ZM97.2329 38.752C96.3329 38.752 95.5469 38.566 94.8749 38.194C94.2029 37.81 93.6749 37.276 93.2909 36.592C92.9189 35.896 92.7329 35.092 92.7329 34.18V33.964C92.7329 33.04 92.9189 32.236 93.2909 31.552C93.6629 30.856 94.1789 30.322 94.8389 29.95C95.5109 29.566 96.2849 29.374 97.1609 29.374C98.0129 29.374 98.7569 29.566 99.3929 29.95C100.041 30.322 100.545 30.844 100.905 31.516C101.265 32.188 101.445 32.974 101.445 33.874V34.576H94.6229C94.6469 35.356 94.9049 35.98 95.3969 36.448C95.9009 36.904 96.5249 37.132 97.2689 37.132C97.9649 37.132 98.4869 36.976 98.8349 36.664C99.1949 36.352 99.4709 35.992 99.6629 35.584L101.193 36.376C101.025 36.712 100.779 37.066 100.455 37.438C100.143 37.81 99.7289 38.122 99.2129 38.374C98.6969 38.626 98.0369 38.752 97.2329 38.752ZM94.6409 33.154H99.5549C99.5069 32.482 99.2669 31.96 98.8349 31.588C98.4029 31.204 97.8389 31.012 97.1429 31.012C96.4469 31.012 95.8769 31.204 95.4329 31.588C95.0009 31.96 94.7369 32.482 94.6409 33.154ZM103.677 38.5V25.9H105.531V33.082H105.819L109.311 29.626H111.777L107.295 33.928L111.921 38.5H109.473L105.819 34.81H105.531V38.5H103.677Z" fill="#1C1917"/>
<rect x="120.5" y="22" width="6" height="20" rx="3" fill="#44403C"/>
<rect x="131" y="22.5" width="5" height="19" rx="2.5" stroke="#44403C"/>
<rect x="141" y="22.5" width="5" height="19" rx="2.5" stroke="#44403C"/>
<rect x="512.5" y="0.5" width="179" height="63" rx="23.5" fill="#A7F3D0"/>
<rect x="512.5" y="0.5" width="179" height="63" rx="23.5" stroke="#292524"/>
<path d="M550.55 25.25C551.65 25.25 552.55 24.35 552.55 23.25C552.55 22.15 551.65 21.25 550.55 21.25C549.45 21.25 548.55 22.15 548.55 23.25C548.55 24.35 549.45 25.25 550.55 25.25ZM546.95 39.15L547.95 34.75L550.05 36.75V42.75H552.05V35.25L549.95 33.25L550.55 30.25C551.85 31.75 553.85 32.75 556.05 32.75V30.75C554.15 30.75 552.55 29.75 551.75 28.35L550.75 26.75C550.35 26.15 549.75 25.75 549.05 25.75C548.75 25.75 548.55 25.85 548.25 25.85L543.05 28.05V32.75H545.05V29.35L546.85 28.65L545.25 36.75L540.35 35.75L539.95 37.75L546.95 39.15Z" fill="#44403C"/>
<path d="M574.048 38.752C572.5 38.752 571.27 38.32 570.358 37.456C569.446 36.58 568.99 35.32 568.99 33.676V30.724C568.99 29.08 569.446 27.826 570.358 26.962C571.27 26.086 572.5 25.648 574.048 25.648C575.596 25.648 576.826 26.086 577.738 26.962C578.662 27.826 579.124 29.08 579.124 30.724V33.676C579.124 35.32 578.662 36.58 577.738 37.456C576.826 38.32 575.596 38.752 574.048 38.752ZM574.048 37.006C575.044 37.006 575.812 36.718 576.352 36.142C576.892 35.554 577.162 34.756 577.162 33.748V30.652C577.162 29.644 576.892 28.852 576.352 28.276C575.812 27.688 575.044 27.394 574.048 27.394C573.076 27.394 572.314 27.688 571.762 28.276C571.21 28.852 570.934 29.644 570.934 30.652V33.748C570.934 34.756 571.21 35.554 571.762 36.142C572.314 36.718 573.076 37.006 574.048 37.006ZM574.822 41.578C574.306 41.578 573.886 41.416 573.562 41.092C573.25 40.78 573.094 40.354 573.094 39.814V38.5H575.002V39.49C575.002 39.85 575.17 40.03 575.506 40.03H576.622V41.578H574.822ZM584.881 38.662C584.209 38.662 583.609 38.512 583.081 38.212C582.553 37.912 582.139 37.486 581.839 36.934C581.539 36.382 581.389 35.722 581.389 34.954V29.626H583.243V34.828C583.243 35.596 583.435 36.166 583.819 36.538C584.203 36.898 584.737 37.078 585.421 37.078C586.177 37.078 586.783 36.826 587.239 36.322C587.707 35.806 587.941 35.068 587.941 34.108V29.626H589.795V38.5H587.977V37.168H587.689C587.521 37.528 587.221 37.87 586.789 38.194C586.357 38.506 585.721 38.662 584.881 38.662ZM595.29 38.752C594.654 38.752 594.084 38.644 593.58 38.428C593.088 38.212 592.692 37.894 592.392 37.474C592.104 37.054 591.96 36.544 591.96 35.944C591.96 35.332 592.104 34.828 592.392 34.432C592.692 34.024 593.094 33.718 593.598 33.514C594.114 33.31 594.696 33.208 595.344 33.208H598.044V32.632C598.044 32.116 597.888 31.702 597.576 31.39C597.264 31.078 596.784 30.922 596.136 30.922C595.5 30.922 595.014 31.072 594.678 31.372C594.342 31.672 594.12 32.062 594.012 32.542L592.284 31.984C592.428 31.504 592.656 31.072 592.968 30.688C593.292 30.292 593.718 29.974 594.246 29.734C594.774 29.494 595.41 29.374 596.154 29.374C597.306 29.374 598.212 29.668 598.872 30.256C599.532 30.844 599.862 31.678 599.862 32.758V36.412C599.862 36.772 600.03 36.952 600.366 36.952H601.122V38.5H599.736C599.316 38.5 598.974 38.392 598.71 38.176C598.446 37.96 598.314 37.666 598.314 37.294V37.24H598.044C597.948 37.42 597.804 37.63 597.612 37.87C597.42 38.11 597.138 38.32 596.766 38.5C596.394 38.668 595.902 38.752 595.29 38.752ZM595.56 37.222C596.304 37.222 596.904 37.012 597.36 36.592C597.816 36.16 598.044 35.572 598.044 34.828V34.648H595.452C594.96 34.648 594.564 34.756 594.264 34.972C593.964 35.176 593.814 35.482 593.814 35.89C593.814 36.298 593.97 36.622 594.282 36.862C594.594 37.102 595.02 37.222 595.56 37.222ZM602.925 38.5V29.626H604.743V30.67H605.031C605.175 30.298 605.403 30.028 605.715 29.86C606.039 29.68 606.435 29.59 606.903 29.59H607.965V31.264H606.831C606.231 31.264 605.739 31.432 605.355 31.768C604.971 32.092 604.779 32.596 604.779 33.28V38.5H602.925ZM613.216 38.5C612.676 38.5 612.244 38.338 611.92 38.014C611.608 37.69 611.452 37.258 611.452 36.718V31.192H609.004V29.626H611.452V26.692H613.306V29.626H615.952V31.192H613.306V36.394C613.306 36.754 613.474 36.934 613.81 36.934H615.664V38.5H613.216ZM621.881 38.752C620.981 38.752 620.195 38.566 619.523 38.194C618.851 37.81 618.323 37.276 617.939 36.592C617.567 35.896 617.381 35.092 617.381 34.18V33.964C617.381 33.04 617.567 32.236 617.939 31.552C618.311 30.856 618.827 30.322 619.487 29.95C620.159 29.566 620.933 29.374 621.809 29.374C622.661 29.374 623.405 29.566 624.041 29.95C624.689 30.322 625.193 30.844 625.553 31.516C625.913 32.188 626.093 32.974 626.093 33.874V34.576H619.271C619.295 35.356 619.553 35.98 620.045 36.448C620.549 36.904 621.173 37.132 621.917 37.132C622.613 37.132 623.135 36.976 623.483 36.664C623.843 36.352 624.119 35.992 624.311 35.584L625.841 36.376C625.673 36.712 625.427 37.066 625.103 37.438C624.791 37.81 624.377 38.122 623.861 38.374C623.345 38.626 622.685 38.752 621.881 38.752ZM619.289 33.154H624.203C624.155 32.482 623.915 31.96 623.483 31.588C623.051 31.204 622.487 31.012 621.791 31.012C621.095 31.012 620.525 31.204 620.081 31.588C619.649 31.96 619.385 32.482 619.289 33.154ZM628.325 38.5V29.626H630.143V30.67H630.431C630.575 30.298 630.803 30.028 631.115 29.86C631.439 29.68 631.835 29.59 632.303 29.59H633.365V31.264H632.231C631.631 31.264 631.139 31.432 630.755 31.768C630.371 32.092 630.179 32.596 630.179 33.28V38.5H628.325Z" fill="#1C1917"/>
<rect x="642" y="22" width="6" height="20" rx="3" fill="#44403C"/>
<rect x="652" y="22" width="6" height="20" rx="3" fill="#44403C"/>
<rect x="662" y="22" width="6" height="20" rx="3" fill="#44403C"/>
<path d="M177.333 32C177.333 33.4728 178.527 34.6667 180 34.6667C181.473 34.6667 182.667 33.4728 182.667 32C182.667 30.5272 181.473 29.3333 180 29.3333C178.527 29.3333 177.333 30.5272 177.333 32ZM253.333 32C253.333 33.4728 254.527 34.6667 256 34.6667C257.473 34.6667 258.667 33.4728 258.667 32C258.667 30.5272 257.473 29.3333 256 29.3333C254.527 29.3333 253.333 30.5272 253.333 32ZM180 32L180 32.5L256 32.5L256 32L256 31.5L180 31.5L180 32Z" fill="#292524"/>
<path d="M433.333 32C433.333 33.4728 434.527 34.6667 436 34.6667C437.473 34.6667 438.667 33.4728 438.667 32C438.667 30.5272 437.473 29.3333 436 29.3333C434.527 29.3333 433.333 30.5272 433.333 32ZM509.333 32C509.333 33.4728 510.527 34.6667 512 34.6667C513.473 34.6667 514.667 33.4728 514.667 32C514.667 30.5272 513.473 29.3333 512 29.3333C510.527 29.3333 509.333 30.5272 509.333 32ZM436 32L436 32.5L512 32.5L512 32L512 31.5L436 31.5L436 32Z" fill="#292524"/>
</svg>
