<svg width="720" height="166" viewBox="0 0 720 166" fill="none" xmlns="http://www.w3.org/2000/svg">
<rect x="200.5" y="0.5" width="319" height="62" rx="23.5" fill="#CCFBF1"/>
<rect x="200.5" y="0.5" width="319" height="62" rx="23.5" stroke="#292524"/>
<path d="M322.814 38V25.4H327.818C328.586 25.4 329.27 25.556 329.87 25.868C330.482 26.168 330.956 26.6 331.292 27.164C331.64 27.716 331.814 28.382 331.814 29.162V29.396C331.814 30.176 331.634 30.848 331.274 31.412C330.926 31.976 330.452 32.408 329.852 32.708C329.252 33.008 328.574 33.158 327.818 33.158H324.758V38H322.814ZM324.758 31.394H327.62C328.304 31.394 328.85 31.214 329.258 30.854C329.666 30.494 329.87 30.002 329.87 29.378V29.198C329.87 28.562 329.666 28.064 329.258 27.704C328.85 27.344 328.304 27.164 327.62 27.164H324.758V31.394ZM333.714 38V29.126H335.532V30.17H335.82C335.964 29.798 336.192 29.528 336.504 29.36C336.828 29.18 337.224 29.09 337.692 29.09H338.754V30.764H337.62C337.02 30.764 336.528 30.932 336.144 31.268C335.76 31.592 335.568 32.096 335.568 32.78V38H333.714ZM344.516 38.252C343.628 38.252 342.836 38.072 342.14 37.712C341.456 37.34 340.916 36.812 340.52 36.128C340.124 35.444 339.926 34.634 339.926 33.698V33.428C339.926 32.492 340.124 31.688 340.52 31.016C340.916 30.332 341.456 29.804 342.14 29.432C342.836 29.06 343.628 28.874 344.516 28.874C345.404 28.874 346.196 29.06 346.892 29.432C347.588 29.804 348.134 30.332 348.53 31.016C348.926 31.688 349.124 32.492 349.124 33.428V33.698C349.124 34.634 348.926 35.444 348.53 36.128C348.134 36.812 347.588 37.34 346.892 37.712C346.196 38.072 345.404 38.252 344.516 38.252ZM344.516 36.596C345.332 36.596 345.992 36.338 346.496 35.822C347.012 35.294 347.27 34.568 347.27 33.644V33.482C347.27 32.558 347.018 31.838 346.514 31.322C346.01 30.794 345.344 30.53 344.516 30.53C343.712 30.53 343.052 30.794 342.536 31.322C342.032 31.838 341.78 32.558 341.78 33.482V33.644C341.78 34.568 342.032 35.294 342.536 35.822C343.052 36.338 343.712 36.596 344.516 36.596ZM351.432 41.6V29.126H353.25V30.404H353.538C353.766 30.008 354.108 29.654 354.564 29.342C355.032 29.03 355.698 28.874 356.562 28.874C357.306 28.874 357.984 29.054 358.596 29.414C359.22 29.774 359.718 30.296 360.09 30.98C360.474 31.652 360.666 32.468 360.666 33.428V33.698C360.666 34.658 360.48 35.48 360.108 36.164C359.736 36.836 359.238 37.352 358.614 37.712C357.99 38.072 357.306 38.252 356.562 38.252C355.986 38.252 355.5 38.18 355.104 38.036C354.708 37.892 354.39 37.712 354.15 37.496C353.91 37.268 353.718 37.034 353.574 36.794H353.286V41.6H351.432ZM356.022 36.632C356.838 36.632 357.504 36.374 358.02 35.858C358.536 35.342 358.794 34.604 358.794 33.644V33.482C358.794 32.534 358.53 31.802 358.002 31.286C357.486 30.77 356.826 30.512 356.022 30.512C355.23 30.512 354.57 30.77 354.042 31.286C353.526 31.802 353.268 32.534 353.268 33.482V33.644C353.268 34.604 353.526 35.342 354.042 35.858C354.57 36.374 355.23 36.632 356.022 36.632ZM367.032 38.252C366.132 38.252 365.346 38.066 364.674 37.694C364.002 37.31 363.474 36.776 363.09 36.092C362.718 35.396 362.532 34.592 362.532 33.68V33.464C362.532 32.54 362.718 31.736 363.09 31.052C363.462 30.356 363.978 29.822 364.638 29.45C365.31 29.066 366.084 28.874 366.96 28.874C367.812 28.874 368.556 29.066 369.192 29.45C369.84 29.822 370.344 30.344 370.704 31.016C371.064 31.688 371.244 32.474 371.244 33.374V34.076H364.422C364.446 34.856 364.704 35.48 365.196 35.948C365.7 36.404 366.324 36.632 367.068 36.632C367.764 36.632 368.286 36.476 368.634 36.164C368.994 35.852 369.27 35.492 369.462 35.084L370.992 35.876C370.824 36.212 370.578 36.566 370.254 36.938C369.942 37.31 369.528 37.622 369.012 37.874C368.496 38.126 367.836 38.252 367.032 38.252ZM364.44 32.654H369.354C369.306 31.982 369.066 31.46 368.634 31.088C368.202 30.704 367.638 30.512 366.942 30.512C366.246 30.512 365.676 30.704 365.232 31.088C364.8 31.46 364.536 31.982 364.44 32.654ZM373.475 38V29.126H375.293V30.17H375.581C375.725 29.798 375.953 29.528 376.265 29.36C376.589 29.18 376.985 29.09 377.453 29.09H378.515V30.764H377.381C376.781 30.764 376.289 30.932 375.905 31.268C375.521 31.592 375.329 32.096 375.329 32.78V38H373.475ZM383.766 38C383.226 38 382.794 37.838 382.47 37.514C382.158 37.19 382.002 36.758 382.002 36.218V30.692H379.554V29.126H382.002V26.192H383.856V29.126H386.502V30.692H383.856V35.894C383.856 36.254 384.024 36.434 384.36 36.434H386.214V38H383.766ZM389.707 41.6V39.98H394.657C394.993 39.98 395.161 39.8 395.161 39.44V36.704H394.873C394.765 36.944 394.597 37.178 394.369 37.406C394.153 37.622 393.859 37.802 393.487 37.946C393.115 38.09 392.647 38.162 392.083 38.162C391.411 38.162 390.811 38.012 390.283 37.712C389.755 37.412 389.341 36.986 389.041 36.434C388.741 35.882 388.591 35.228 388.591 34.472V29.126H390.445V34.328C390.445 35.096 390.637 35.666 391.021 36.038C391.405 36.398 391.939 36.578 392.623 36.578C393.379 36.578 393.985 36.326 394.441 35.822C394.909 35.318 395.143 34.586 395.143 33.626V29.126H396.997V39.818C396.997 40.358 396.835 40.79 396.511 41.114C396.199 41.438 395.767 41.6 395.215 41.6H389.707Z" fill="#1C1917"/>
<rect x="200.5" y="103.5" width="149" height="62" rx="23.5" fill="#EEF2FF"/>
<rect x="200.5" y="103.5" width="149" height="62" rx="23.5" stroke="#292524"/>
<path d="M251.814 141V128.4H255.558L258.978 139.704H259.266V128.4H261.192V141H257.448L254.028 129.678H253.74V141H251.814ZM266.628 141.252C265.992 141.252 265.422 141.144 264.918 140.928C264.426 140.712 264.03 140.394 263.73 139.974C263.442 139.554 263.298 139.044 263.298 138.444C263.298 137.832 263.442 137.328 263.73 136.932C264.03 136.524 264.432 136.218 264.936 136.014C265.452 135.81 266.034 135.708 266.682 135.708H269.382V135.132C269.382 134.616 269.226 134.202 268.914 133.89C268.602 133.578 268.122 133.422 267.474 133.422C266.838 133.422 266.352 133.572 266.016 133.872C265.68 134.172 265.458 134.562 265.35 135.042L263.622 134.484C263.766 134.004 263.994 133.572 264.306 133.188C264.63 132.792 265.056 132.474 265.584 132.234C266.112 131.994 266.748 131.874 267.492 131.874C268.644 131.874 269.55 132.168 270.21 132.756C270.87 133.344 271.2 134.178 271.2 135.258V138.912C271.2 139.272 271.368 139.452 271.704 139.452H272.46V141H271.074C270.654 141 270.312 140.892 270.048 140.676C269.784 140.46 269.652 140.166 269.652 139.794V139.74H269.382C269.286 139.92 269.142 140.13 268.95 140.37C268.758 140.61 268.476 140.82 268.104 141C267.732 141.168 267.24 141.252 266.628 141.252ZM266.898 139.722C267.642 139.722 268.242 139.512 268.698 139.092C269.154 138.66 269.382 138.072 269.382 137.328V137.148H266.79C266.298 137.148 265.902 137.256 265.602 137.472C265.302 137.676 265.152 137.982 265.152 138.39C265.152 138.798 265.308 139.122 265.62 139.362C265.932 139.602 266.358 139.722 266.898 139.722ZM274.263 141V132.126H276.081V133.17H276.369C276.537 132.858 276.807 132.582 277.179 132.342C277.551 132.102 278.055 131.982 278.691 131.982C279.351 131.982 279.879 132.12 280.275 132.396C280.683 132.66 280.989 133.002 281.193 133.422H281.481C281.685 133.014 281.979 132.672 282.363 132.396C282.759 132.12 283.317 131.982 284.037 131.982C284.613 131.982 285.123 132.102 285.567 132.342C286.011 132.57 286.365 132.918 286.629 133.386C286.893 133.842 287.025 134.412 287.025 135.096V141H285.171V135.24C285.171 134.7 285.021 134.286 284.721 133.998C284.433 133.698 284.019 133.548 283.479 133.548C282.903 133.548 282.441 133.734 282.093 134.106C281.745 134.478 281.571 135.012 281.571 135.708V141H279.717V135.24C279.717 134.7 279.567 134.286 279.267 133.998C278.979 133.698 278.565 133.548 278.025 133.548C277.449 133.548 276.987 133.734 276.639 134.106C276.291 134.478 276.117 135.012 276.117 135.708V141H274.263ZM293.764 141.252C292.864 141.252 292.078 141.066 291.406 140.694C290.734 140.31 290.206 139.776 289.822 139.092C289.45 138.396 289.264 137.592 289.264 136.68V136.464C289.264 135.54 289.45 134.736 289.822 134.052C290.194 133.356 290.71 132.822 291.37 132.45C292.042 132.066 292.816 131.874 293.692 131.874C294.544 131.874 295.288 132.066 295.924 132.45C296.572 132.822 297.076 133.344 297.436 134.016C297.796 134.688 297.976 135.474 297.976 136.374V137.076H291.154C291.178 137.856 291.436 138.48 291.928 138.948C292.432 139.404 293.056 139.632 293.8 139.632C294.496 139.632 295.018 139.476 295.366 139.164C295.726 138.852 296.002 138.492 296.194 138.084L297.724 138.876C297.556 139.212 297.31 139.566 296.986 139.938C296.674 140.31 296.26 140.622 295.744 140.874C295.228 141.126 294.568 141.252 293.764 141.252ZM291.172 135.654H296.086C296.038 134.982 295.798 134.46 295.366 134.088C294.934 133.704 294.37 133.512 293.674 133.512C292.978 133.512 292.408 133.704 291.964 134.088C291.532 134.46 291.268 134.982 291.172 135.654Z" fill="#1C1917"/>
<rect x="370.5" y="103.5" width="149" height="62" rx="23.5" fill="#F7FEE7"/>
<rect x="370.5" y="103.5" width="149" height="62" rx="23.5" stroke="#292524"/>
<path d="M424.888 141L421.378 128.4H423.394L426.454 139.776H426.688L429.73 128.4H431.746L428.254 141H424.888ZM435.669 141.252C435.033 141.252 434.463 141.144 433.959 140.928C433.467 140.712 433.071 140.394 432.771 139.974C432.483 139.554 432.339 139.044 432.339 138.444C432.339 137.832 432.483 137.328 432.771 136.932C433.071 136.524 433.473 136.218 433.977 136.014C434.493 135.81 435.075 135.708 435.723 135.708H438.423V135.132C438.423 134.616 438.267 134.202 437.955 133.89C437.643 133.578 437.163 133.422 436.515 133.422C435.879 133.422 435.393 133.572 435.057 133.872C434.721 134.172 434.499 134.562 434.391 135.042L432.663 134.484C432.807 134.004 433.035 133.572 433.347 133.188C433.671 132.792 434.097 132.474 434.625 132.234C435.153 131.994 435.789 131.874 436.533 131.874C437.685 131.874 438.591 132.168 439.251 132.756C439.911 133.344 440.241 134.178 440.241 135.258V138.912C440.241 139.272 440.409 139.452 440.745 139.452H441.501V141H440.115C439.695 141 439.353 140.892 439.089 140.676C438.825 140.46 438.693 140.166 438.693 139.794V139.74H438.423C438.327 139.92 438.183 140.13 437.991 140.37C437.799 140.61 437.517 140.82 437.145 141C436.773 141.168 436.281 141.252 435.669 141.252ZM435.939 139.722C436.683 139.722 437.283 139.512 437.739 139.092C438.195 138.66 438.423 138.072 438.423 137.328V137.148H435.831C435.339 137.148 434.943 137.256 434.643 137.472C434.343 137.676 434.193 137.982 434.193 138.39C434.193 138.798 434.349 139.122 434.661 139.362C434.973 139.602 435.399 139.722 435.939 139.722ZM443.304 141V128.4H445.158V141H443.304ZM451.311 141.162C450.639 141.162 450.039 141.012 449.511 140.712C448.983 140.412 448.569 139.986 448.269 139.434C447.969 138.882 447.819 138.222 447.819 137.454V132.126H449.673V137.328C449.673 138.096 449.865 138.666 450.249 139.038C450.633 139.398 451.167 139.578 451.851 139.578C452.607 139.578 453.213 139.326 453.669 138.822C454.137 138.306 454.371 137.568 454.371 136.608V132.126H456.225V141H454.407V139.668H454.119C453.951 140.028 453.651 140.37 453.219 140.694C452.787 141.006 452.151 141.162 451.311 141.162ZM463.034 141.252C462.134 141.252 461.348 141.066 460.676 140.694C460.004 140.31 459.476 139.776 459.092 139.092C458.72 138.396 458.534 137.592 458.534 136.68V136.464C458.534 135.54 458.72 134.736 459.092 134.052C459.464 133.356 459.98 132.822 460.64 132.45C461.312 132.066 462.086 131.874 462.962 131.874C463.814 131.874 464.558 132.066 465.194 132.45C465.842 132.822 466.346 133.344 466.706 134.016C467.066 134.688 467.246 135.474 467.246 136.374V137.076H460.424C460.448 137.856 460.706 138.48 461.198 138.948C461.702 139.404 462.326 139.632 463.07 139.632C463.766 139.632 464.288 139.476 464.636 139.164C464.996 138.852 465.272 138.492 465.464 138.084L466.994 138.876C466.826 139.212 466.58 139.566 466.256 139.938C465.944 140.31 465.53 140.622 465.014 140.874C464.498 141.126 463.838 141.252 463.034 141.252ZM460.442 135.654H465.356C465.308 134.982 465.068 134.46 464.636 134.088C464.204 133.704 463.64 133.512 462.944 133.512C462.248 133.512 461.678 133.704 461.234 134.088C460.802 134.46 460.538 134.982 460.442 135.654Z" fill="#1C1917"/>
<path d="M360 63L360 71.5714C360 77.8832 365.117 83 371.429 83L433.571 83C439.883 83 445 88.1167 445 94.4286L445 103" stroke="#292524"/>
<path d="M360 63L360 71.5714C360 77.8832 354.883 83 348.571 83L286.429 83C280.117 83 275 88.1167 275 94.4286L275 103" stroke="#292524"/>
</svg>
