<svg width="1248" height="72" viewBox="0 0 1248 72" fill="none" xmlns="http://www.w3.org/2000/svg">
<path d="M0 2C0 0.89543 0.895431 0 2 0H258.409C259.514 0 260.409 0.895431 260.409 2V69.7241C260.409 70.8287 259.514 71.7241 258.409 71.7241H1.99999C0.89542 71.7241 0 70.8287 0 69.7241V2Z" fill="#292524"/>
<path d="M44.7281 38.966C44.8927 38.9665 45.051 39.0323 45.167 39.1491L48.8782 42.8851C48.9941 43.0017 49.0588 43.1597 49.0584 43.3242C49.0579 43.4887 48.992 43.647 48.8753 43.763L45.1393 47.4742C45.0225 47.5902 44.8638 47.655 44.6993 47.6544C44.5348 47.6537 44.3773 47.588 44.2614 47.4713L40.5501 43.7353C40.4342 43.6185 40.3694 43.4599 40.37 43.2953C40.3706 43.1309 40.4364 42.9733 40.5531 42.8574L44.2891 39.1462C44.4057 39.0303 44.5637 38.9656 44.7281 38.966ZM37.3047 31.493C37.4693 31.4936 37.6275 31.5594 37.7435 31.6761L41.4548 35.4121C41.5706 35.5288 41.6354 35.6868 41.635 35.8512C41.6344 36.0158 41.5686 36.174 41.4519 36.29L37.7159 40.0013C37.5991 40.1172 37.4404 40.182 37.2758 40.1815C37.1114 40.1808 36.9539 40.115 36.8379 39.9984L33.1267 36.2624C33.0107 36.1456 32.946 35.9869 32.9465 35.8223C32.9472 35.6579 33.013 35.5003 33.1296 35.3844L36.8656 31.6732C36.9823 31.5573 37.1403 31.4926 37.3047 31.493ZM52.2011 31.5425C52.3657 31.5431 52.5239 31.6089 52.6399 31.7256L56.3512 35.4616C56.467 35.5783 56.5318 35.7363 56.5314 35.9007C56.5308 36.0653 56.465 36.2235 56.3483 36.3396L52.6123 40.0508C52.4955 40.1668 52.3368 40.2315 52.1722 40.231C52.0078 40.2303 51.8502 40.1645 51.7343 40.0479L48.0231 36.3119C47.9071 36.1951 47.8424 36.0364 47.8429 35.8718C47.8436 35.7074 47.9094 35.5499 48.026 35.434L51.762 31.7227C51.8787 31.6069 52.0367 31.5421 52.2011 31.5425ZM44.7777 24.0696C44.9422 24.0701 45.1005 24.1359 45.2165 24.2527L48.9277 27.9887C49.0436 28.1054 49.1084 28.2633 49.1079 28.4277C49.1074 28.5923 49.0416 28.7506 48.9248 28.8666L45.1888 32.5778C45.072 32.6938 44.9134 32.7586 44.7488 32.758C44.5843 32.7573 44.4268 32.6916 44.3109 32.5749L40.5997 28.8389C40.4837 28.7221 40.4189 28.5635 40.4195 28.3989C40.4201 28.2344 40.4859 28.0769 40.6026 27.961L44.3386 24.2498C44.4553 24.1339 44.6132 24.0691 44.7777 24.0696Z" fill="#FAFAFA" stroke="#FAFAFA" stroke-width="1.24138"/>
<path d="M70.7831 44.8623V43.0002H73.2162V29.3451H70.7831V27.483H77.561C79.8452 27.483 81.6079 28.0623 82.8493 29.2209C84.1072 30.3795 84.7362 32.1589 84.7362 34.5589V37.7864C84.7362 40.203 84.1072 41.9906 82.8493 43.1492C81.6079 44.2913 79.8452 44.8623 77.561 44.8623H70.7831ZM75.3017 42.9754H77.561C79.2493 42.9754 80.5238 42.5616 81.3845 41.734C82.2452 40.9064 82.6755 39.6237 82.6755 37.8858V34.4844C82.6755 32.7133 82.2452 31.4223 81.3845 30.6113C80.5238 29.8002 79.2493 29.3947 77.561 29.3947H75.3017V42.9754ZM93.7011 45.2099C92.4763 45.2099 91.4004 44.9533 90.4735 44.4402C89.5466 43.9106 88.8266 43.174 88.3135 42.2306C87.8004 41.2871 87.5439 40.1947 87.5439 38.9533V38.6554C87.5439 37.3975 87.8004 36.2968 88.3135 35.3533C88.8266 34.4099 89.5383 33.6816 90.4487 33.1685C91.359 32.6389 92.4018 32.374 93.577 32.374C94.719 32.374 95.7287 32.6223 96.6059 33.1189C97.4832 33.5989 98.1701 34.294 98.6666 35.2044C99.1632 36.1147 99.4114 37.1823 99.4114 38.4071V39.3009H89.5052C89.5549 40.6085 89.977 41.6347 90.7714 42.3795C91.5659 43.1078 92.559 43.472 93.7508 43.472C94.7935 43.472 95.5963 43.232 96.159 42.752C96.7218 42.272 97.1521 41.7009 97.4501 41.0389L99.1383 41.8582C98.8901 42.3713 98.5425 42.8844 98.0956 43.3975C97.6652 43.9106 97.0942 44.3409 96.3825 44.6885C95.6873 45.0361 94.7935 45.2099 93.7011 45.2099ZM89.5301 37.6871H97.4252C97.359 36.5616 96.9701 35.6844 96.2583 35.0554C95.5632 34.4264 94.6694 34.112 93.577 34.112C92.468 34.112 91.5577 34.4264 90.8459 35.0554C90.1342 35.6844 89.6956 36.5616 89.5301 37.6871ZM104.707 44.8623V34.4347H100.983V32.7216H104.707V29.6182C104.707 28.9561 104.889 28.4347 105.253 28.054C105.634 27.6733 106.172 27.483 106.867 27.483H109.921V29.1713H107.413C106.917 29.1713 106.668 29.4195 106.668 29.9161V32.7216H110.492V34.4347H106.668V44.8623H104.707ZM116.813 45.2099C115.969 45.2099 115.199 45.0609 114.504 44.763C113.809 44.4651 113.262 44.0347 112.865 43.472C112.468 42.9092 112.269 42.2223 112.269 41.4113C112.269 40.5837 112.468 39.9051 112.865 39.3754C113.262 38.8292 113.809 38.4237 114.504 38.1589C115.199 37.8775 115.977 37.7368 116.838 37.7368H120.934V36.843C120.934 35.9823 120.678 35.3037 120.164 34.8071C119.668 34.3106 118.923 34.0623 117.93 34.0623C116.953 34.0623 116.192 34.3023 115.646 34.7823C115.1 35.2458 114.727 35.8747 114.529 36.6692L112.691 36.0733C112.89 35.3947 113.204 34.7823 113.635 34.2361C114.065 33.6733 114.636 33.2264 115.348 32.8954C116.076 32.5478 116.945 32.374 117.955 32.374C119.511 32.374 120.719 32.7795 121.58 33.5906C122.44 34.3851 122.871 35.5106 122.871 36.9671V42.454C122.871 42.9506 123.102 43.1989 123.566 43.1989H124.683V44.8623H122.97C122.424 44.8623 121.985 44.7133 121.654 44.4154C121.323 44.1009 121.158 43.6871 121.158 43.174V43.0499H120.86C120.678 43.3644 120.429 43.6954 120.115 44.043C119.817 44.374 119.403 44.6471 118.873 44.8623C118.344 45.094 117.657 45.2099 116.813 45.2099ZM117.036 43.5216C118.195 43.5216 119.13 43.1823 119.842 42.5037C120.57 41.8085 120.934 40.8402 120.934 39.5989V39.3258H116.912C116.134 39.3258 115.489 39.4995 114.975 39.8471C114.479 40.1782 114.231 40.683 114.231 41.3616C114.231 42.0402 114.487 42.5699 115 42.9506C115.53 43.3313 116.209 43.5216 117.036 43.5216ZM131.697 45.0858C130.82 45.0858 130.009 44.8954 129.264 44.5147C128.535 44.134 127.956 43.5713 127.526 42.8264C127.112 42.0651 126.905 41.1464 126.905 40.0706V32.7216H128.866V39.9216C128.866 41.1299 129.164 42.0071 129.76 42.5533C130.373 43.0995 131.192 43.3726 132.218 43.3726C133.377 43.3726 134.329 42.992 135.073 42.2306C135.818 41.4692 136.191 40.3354 136.191 38.8292V32.7216H138.152V44.8623H136.24V42.8016H135.893C135.628 43.3809 135.173 43.9106 134.527 44.3906C133.882 44.854 132.938 45.0858 131.697 45.0858ZM142.256 44.8623V27.483H144.217V44.8623H142.256ZM152.811 44.8623C152.116 44.8623 151.578 44.672 151.197 44.2913C150.833 43.9106 150.651 43.3892 150.651 42.7271V34.4347H147.001V32.7216H150.651V28.4016H152.612V32.7216H156.585V34.4347H152.612V42.4292C152.612 42.9258 152.852 43.174 153.332 43.174H156.038V44.8623H152.811ZM171.824 45.2099C170.566 45.2099 169.441 44.9864 168.448 44.5395C167.455 44.0926 166.668 43.4223 166.089 42.5285C165.526 41.6182 165.245 40.4844 165.245 39.1271V38.6058H167.306V39.1271C167.306 40.5671 167.728 41.643 168.572 42.3547C169.416 43.0499 170.5 43.3975 171.824 43.3975C173.181 43.3975 174.216 43.0913 174.928 42.4789C175.639 41.8664 175.995 41.0968 175.995 40.1699C175.995 39.5244 175.83 39.0113 175.499 38.6306C175.184 38.2499 174.737 37.9437 174.158 37.712C173.579 37.4637 172.9 37.2485 172.122 37.0664L170.831 36.7437C169.821 36.4789 168.928 36.1561 168.15 35.7754C167.372 35.3947 166.759 34.8982 166.312 34.2858C165.882 33.6568 165.667 32.854 165.667 31.8775C165.667 30.9009 165.907 30.0568 166.387 29.3451C166.884 28.6333 167.57 28.0871 168.448 27.7064C169.341 27.3258 170.368 27.1354 171.526 27.1354C172.701 27.1354 173.752 27.3423 174.679 27.7561C175.623 28.1533 176.359 28.7492 176.889 29.5437C177.435 30.3216 177.708 31.3064 177.708 32.4982V33.5409H175.648V32.4982C175.648 31.654 175.466 30.9754 175.101 30.4623C174.754 29.9492 174.266 29.5685 173.637 29.3202C173.024 29.072 172.321 28.9478 171.526 28.9478C170.384 28.9478 169.466 29.2044 168.77 29.7175C168.075 30.214 167.728 30.9258 167.728 31.8526C167.728 32.4651 167.877 32.9616 168.175 33.3423C168.472 33.723 168.895 34.0375 169.441 34.2858C169.987 34.5175 170.641 34.7244 171.402 34.9064L172.693 35.2292C173.703 35.4444 174.605 35.7423 175.399 36.123C176.21 36.4871 176.856 36.992 177.336 37.6375C177.816 38.2664 178.056 39.094 178.056 40.1202C178.056 41.1464 177.799 42.0402 177.286 42.8016C176.773 43.563 176.045 44.1589 175.101 44.5892C174.175 45.003 173.082 45.2099 171.824 45.2099ZM185.809 44.8623C185.114 44.8623 184.576 44.672 184.195 44.2913C183.831 43.9106 183.649 43.3892 183.649 42.7271V34.4347H179.999V32.7216H183.649V28.4016H185.61V32.7216H189.583V34.4347H185.61V42.4292C185.61 42.9258 185.85 43.174 186.33 43.174H189.037V44.8623H185.809ZM196.411 45.2099C195.567 45.2099 194.797 45.0609 194.102 44.763C193.407 44.4651 192.861 44.0347 192.464 43.472C192.066 42.9092 191.868 42.2223 191.868 41.4113C191.868 40.5837 192.066 39.9051 192.464 39.3754C192.861 38.8292 193.407 38.4237 194.102 38.1589C194.797 37.8775 195.575 37.7368 196.436 37.7368H200.533V36.843C200.533 35.9823 200.276 35.3037 199.763 34.8071C199.266 34.3106 198.522 34.0623 197.529 34.0623C196.552 34.0623 195.791 34.3023 195.244 34.7823C194.698 35.2458 194.326 35.8747 194.127 36.6692L192.29 36.0733C192.489 35.3947 192.803 34.7823 193.233 34.2361C193.664 33.6733 194.235 33.2264 194.946 32.8954C195.675 32.5478 196.544 32.374 197.553 32.374C199.109 32.374 200.317 32.7795 201.178 33.5906C202.039 34.3851 202.469 35.5106 202.469 36.9671V42.454C202.469 42.9506 202.701 43.1989 203.164 43.1989H204.282V44.8623H202.569C202.022 44.8623 201.584 44.7133 201.253 44.4154C200.922 44.1009 200.756 43.6871 200.756 43.174V43.0499H200.458C200.276 43.3644 200.028 43.6954 199.713 44.043C199.415 44.374 199.002 44.6471 198.472 44.8623C197.942 45.094 197.255 45.2099 196.411 45.2099ZM196.635 43.5216C197.793 43.5216 198.729 43.1823 199.44 42.5037C200.169 41.8085 200.533 40.8402 200.533 39.5989V39.3258H196.511C195.733 39.3258 195.087 39.4995 194.574 39.8471C194.077 40.1782 193.829 40.683 193.829 41.3616C193.829 42.0402 194.086 42.5699 194.599 42.9506C195.129 43.3313 195.807 43.5216 196.635 43.5216ZM210.637 44.8623C209.942 44.8623 209.404 44.672 209.023 44.2913C208.659 43.9106 208.477 43.3892 208.477 42.7271V34.4347H204.827V32.7216H208.477V28.4016H210.438V32.7216H214.41V34.4347H210.438V42.4292C210.438 42.9258 210.678 43.174 211.158 43.174H213.864V44.8623H210.637ZM222.712 45.2099C221.488 45.2099 220.412 44.9533 219.485 44.4402C218.558 43.9106 217.838 43.174 217.325 42.2306C216.812 41.2871 216.555 40.1947 216.555 38.9533V38.6554C216.555 37.3975 216.812 36.2968 217.325 35.3533C217.838 34.4099 218.55 33.6816 219.46 33.1685C220.37 32.6389 221.413 32.374 222.588 32.374C223.73 32.374 224.74 32.6223 225.617 33.1189C226.494 33.5989 227.181 34.294 227.678 35.2044C228.174 36.1147 228.423 37.1823 228.423 38.4071V39.3009H218.517C218.566 40.6085 218.988 41.6347 219.783 42.3795C220.577 43.1078 221.57 43.472 222.762 43.472C223.805 43.472 224.608 43.232 225.17 42.752C225.733 42.272 226.163 41.7009 226.461 41.0389L228.15 41.8582C227.901 42.3713 227.554 42.8844 227.107 43.3975C226.677 43.9106 226.106 44.3409 225.394 44.6885C224.699 45.0361 223.805 45.2099 222.712 45.2099ZM218.541 37.6871H226.437C226.37 36.5616 225.981 35.6844 225.27 35.0554C224.574 34.4264 223.681 34.112 222.588 34.112C221.479 34.112 220.569 34.4264 219.857 35.0554C219.146 35.6844 218.707 36.5616 218.541 37.6871Z" fill="#FAFAFA"/>
<path d="M512 0.621094H748.409C749.171 0.621094 749.788 1.23823 749.788 2V69.7246C749.788 70.4862 749.171 71.1035 748.409 71.1035H512C511.238 71.1035 510.621 70.4862 510.621 69.7246V2C510.621 1.23823 511.238 0.621094 512 0.621094Z" fill="#FFFBEB"/>
<path d="M512 0.621094H748.409C749.171 0.621094 749.788 1.23823 749.788 2V69.7246C749.788 70.4862 749.171 71.1035 748.409 71.1035H512C511.238 71.1035 510.621 70.4862 510.621 69.7246V2C510.621 1.23823 511.238 0.621094 512 0.621094Z" stroke="#1C1917" stroke-width="1.24138"/>
<path d="M554.728 38.966C554.893 38.9665 555.051 39.0323 555.167 39.1491L558.878 42.8851C558.994 43.0017 559.059 43.1597 559.058 43.3242C559.058 43.4887 558.992 43.647 558.875 43.763L555.139 47.4742C555.023 47.5902 554.864 47.655 554.699 47.6544C554.535 47.6537 554.377 47.588 554.261 47.4713L550.55 43.7353C550.434 43.6185 550.369 43.4599 550.37 43.2953C550.371 43.1309 550.436 42.9733 550.553 42.8574L554.289 39.1462C554.406 39.0303 554.564 38.9656 554.728 38.966ZM547.305 31.493C547.469 31.4936 547.628 31.5594 547.744 31.6761L551.455 35.4121C551.571 35.5288 551.635 35.6868 551.635 35.8512C551.634 36.0158 551.569 36.174 551.452 36.29L547.716 40.0013C547.599 40.1172 547.44 40.182 547.276 40.1815C547.111 40.1808 546.954 40.115 546.838 39.9984L543.127 36.2624C543.011 36.1456 542.946 35.9869 542.947 35.8223C542.947 35.6579 543.013 35.5003 543.13 35.3844L546.866 31.6732C546.982 31.5573 547.14 31.4926 547.305 31.493ZM562.201 31.5425C562.366 31.5431 562.524 31.6089 562.64 31.7256L566.351 35.4616C566.467 35.5783 566.532 35.7363 566.531 35.9007C566.531 36.0653 566.465 36.2235 566.348 36.3396L562.612 40.0508C562.495 40.1668 562.337 40.2315 562.172 40.231C562.008 40.2303 561.85 40.1645 561.734 40.0479L558.023 36.3119C557.907 36.1951 557.842 36.0364 557.843 35.8718C557.844 35.7074 557.909 35.5499 558.026 35.434L561.762 31.7227C561.879 31.6069 562.037 31.5421 562.201 31.5425ZM554.778 24.0696C554.942 24.0701 555.1 24.1359 555.216 24.2527L558.928 27.9887C559.044 28.1054 559.108 28.2633 559.108 28.4277C559.107 28.5923 559.042 28.7506 558.925 28.8666L555.189 32.5778C555.072 32.6938 554.913 32.7586 554.749 32.758C554.584 32.7573 554.427 32.6916 554.311 32.5749L550.6 28.8389C550.484 28.7221 550.419 28.5635 550.419 28.3989C550.42 28.2344 550.486 28.0769 550.603 27.961L554.339 24.2498C554.455 24.1339 554.613 24.0691 554.778 24.0696Z" fill="#292524" stroke="#44403C" stroke-width="1.24138"/>
<path d="M581.602 44.8623V27.483H583.688V35.2044H591.831V27.483H593.917V44.8623H591.831V37.0913H583.688V44.8623H581.602ZM603.581 45.2099C602.356 45.2099 601.272 44.9533 600.329 44.4402C599.402 43.9271 598.673 43.2071 598.144 42.2802C597.631 41.3368 597.374 40.2278 597.374 38.9533V38.6306C597.374 37.3726 597.631 36.272 598.144 35.3285C598.673 34.3851 599.402 33.6568 600.329 33.1437C601.272 32.6306 602.356 32.374 603.581 32.374C604.806 32.374 605.882 32.6306 606.809 33.1437C607.752 33.6568 608.48 34.3851 608.993 35.3285C609.523 36.272 609.788 37.3726 609.788 38.6306V38.9533C609.788 40.2278 609.523 41.3368 608.993 42.2802C608.48 43.2071 607.752 43.9271 606.809 44.4402C605.882 44.9533 604.806 45.2099 603.581 45.2099ZM603.581 43.4471C604.872 43.4471 605.898 43.0416 606.66 42.2306C607.438 41.403 607.827 40.294 607.827 38.9037V38.6802C607.827 37.2899 607.438 36.1892 606.66 35.3782C605.898 34.5506 604.872 34.1368 603.581 34.1368C602.307 34.1368 601.28 34.5506 600.502 35.3782C599.724 36.1892 599.336 37.2899 599.336 38.6802V38.9037C599.336 40.294 599.724 41.403 600.502 42.2306C601.28 43.0416 602.307 43.4471 603.581 43.4471ZM615.887 44.8623L611.542 32.7216H613.628L617.277 43.3975H617.625L621.275 32.7216H623.36L619.015 44.8623H615.887ZM631.244 45.2099C630.019 45.2099 628.944 44.9533 628.017 44.4402C627.09 43.9106 626.37 43.174 625.857 42.2306C625.344 41.2871 625.087 40.1947 625.087 38.9533V38.6554C625.087 37.3975 625.344 36.2968 625.857 35.3533C626.37 34.4099 627.081 33.6816 627.992 33.1685C628.902 32.6389 629.945 32.374 631.12 32.374C632.262 32.374 633.272 32.6223 634.149 33.1189C635.026 33.5989 635.713 34.294 636.21 35.2044C636.706 36.1147 636.955 37.1823 636.955 38.4071V39.3009H627.048C627.098 40.6085 627.52 41.6347 628.315 42.3795C629.109 43.1078 630.102 43.472 631.294 43.472C632.337 43.472 633.139 43.232 633.702 42.752C634.265 42.272 634.695 41.7009 634.993 41.0389L636.681 41.8582C636.433 42.3713 636.086 42.8844 635.639 43.3975C635.208 43.9106 634.637 44.3409 633.926 44.6885C633.23 45.0361 632.337 45.2099 631.244 45.2099ZM627.073 37.6871H634.968C634.902 36.5616 634.513 35.6844 633.801 35.0554C633.106 34.4264 632.212 34.112 631.12 34.112C630.011 34.112 629.101 34.4264 628.389 35.0554C627.677 35.6844 627.239 36.5616 627.073 37.6871ZM640.376 44.8623V32.7216H642.287V34.2113H642.635C642.85 33.6816 643.181 33.2926 643.628 33.0444C644.075 32.7961 644.663 32.672 645.391 32.672H646.831V34.4595H645.267C644.39 34.4595 643.678 34.7078 643.132 35.2044C642.602 35.6844 642.337 36.4375 642.337 37.4637V44.8623H640.376ZM661.797 45.2099C660.539 45.2099 659.414 44.9864 658.421 44.5395C657.428 44.0926 656.641 43.4223 656.062 42.5285C655.499 41.6182 655.218 40.4844 655.218 39.1271V38.6058H657.279V39.1271C657.279 40.5671 657.701 41.643 658.545 42.3547C659.389 43.0499 660.473 43.3975 661.797 43.3975C663.155 43.3975 664.189 43.0913 664.901 42.4789C665.612 41.8664 665.968 41.0968 665.968 40.1699C665.968 39.5244 665.803 39.0113 665.472 38.6306C665.157 38.2499 664.71 37.9437 664.131 37.712C663.552 37.4637 662.873 37.2485 662.095 37.0664L660.804 36.7437C659.795 36.4789 658.901 36.1561 658.123 35.7754C657.345 35.3947 656.732 34.8982 656.286 34.2858C655.855 33.6568 655.64 32.854 655.64 31.8775C655.64 30.9009 655.88 30.0568 656.36 29.3451C656.857 28.6333 657.543 28.0871 658.421 27.7064C659.315 27.3258 660.341 27.1354 661.499 27.1354C662.675 27.1354 663.726 27.3423 664.652 27.7561C665.596 28.1533 666.332 28.7492 666.862 29.5437C667.408 30.3216 667.681 31.3064 667.681 32.4982V33.5409H665.621V32.4982C665.621 31.654 665.439 30.9754 665.075 30.4623C664.727 29.9492 664.239 29.5685 663.61 29.3202C662.997 29.072 662.294 28.9478 661.499 28.9478C660.357 28.9478 659.439 29.2044 658.743 29.7175C658.048 30.214 657.701 30.9258 657.701 31.8526C657.701 32.4651 657.85 32.9616 658.148 33.3423C658.446 33.723 658.868 34.0375 659.414 34.2858C659.96 34.5175 660.614 34.7244 661.375 34.9064L662.666 35.2292C663.676 35.4444 664.578 35.7423 665.372 36.123C666.183 36.4871 666.829 36.992 667.309 37.6375C667.789 38.2664 668.029 39.094 668.029 40.1202C668.029 41.1464 667.772 42.0402 667.259 42.8016C666.746 43.563 666.018 44.1589 665.075 44.5892C664.148 45.003 663.055 45.2099 661.797 45.2099ZM675.782 44.8623C675.087 44.8623 674.549 44.672 674.168 44.2913C673.804 43.9106 673.622 43.3892 673.622 42.7271V34.4347H669.973V32.7216H673.622V28.4016H675.584V32.7216H679.556V34.4347H675.584V42.4292C675.584 42.9258 675.824 43.174 676.304 43.174H679.01V44.8623H675.782ZM686.384 45.2099C685.54 45.2099 684.771 45.0609 684.075 44.763C683.38 44.4651 682.834 44.0347 682.437 43.472C682.04 42.9092 681.841 42.2223 681.841 41.4113C681.841 40.5837 682.04 39.9051 682.437 39.3754C682.834 38.8292 683.38 38.4237 684.075 38.1589C684.771 37.8775 685.548 37.7368 686.409 37.7368H690.506V36.843C690.506 35.9823 690.249 35.3037 689.736 34.8071C689.24 34.3106 688.495 34.0623 687.502 34.0623C686.525 34.0623 685.764 34.3023 685.217 34.7823C684.671 35.2458 684.299 35.8747 684.1 36.6692L682.263 36.0733C682.462 35.3947 682.776 34.7823 683.206 34.2361C683.637 33.6733 684.208 33.2264 684.92 32.8954C685.648 32.5478 686.517 32.374 687.526 32.374C689.082 32.374 690.291 32.7795 691.151 33.5906C692.012 34.3851 692.442 35.5106 692.442 36.9671V42.454C692.442 42.9506 692.674 43.1989 693.137 43.1989H694.255V44.8623H692.542C691.995 44.8623 691.557 44.7133 691.226 44.4154C690.895 44.1009 690.729 43.6871 690.729 43.174V43.0499H690.431C690.249 43.3644 690.001 43.6954 689.686 44.043C689.388 44.374 688.975 44.6471 688.445 44.8623C687.915 45.094 687.228 45.2099 686.384 45.2099ZM686.608 43.5216C687.766 43.5216 688.702 43.1823 689.413 42.5037C690.142 41.8085 690.506 40.8402 690.506 39.5989V39.3258H686.484C685.706 39.3258 685.06 39.4995 684.547 39.8471C684.051 40.1782 683.802 40.683 683.802 41.3616C683.802 42.0402 684.059 42.5699 684.572 42.9506C685.102 43.3313 685.78 43.5216 686.608 43.5216ZM700.61 44.8623C699.915 44.8623 699.377 44.672 698.996 44.2913C698.632 43.9106 698.45 43.3892 698.45 42.7271V34.4347H694.8V32.7216H698.45V28.4016H700.411V32.7216H704.384V34.4347H700.411V42.4292C700.411 42.9258 700.651 43.174 701.131 43.174H703.837V44.8623H700.61ZM712.685 45.2099C711.461 45.2099 710.385 44.9533 709.458 44.4402C708.531 43.9106 707.811 43.174 707.298 42.2306C706.785 41.2871 706.528 40.1947 706.528 38.9533V38.6554C706.528 37.3975 706.785 36.2968 707.298 35.3533C707.811 34.4099 708.523 33.6816 709.433 33.1685C710.343 32.6389 711.386 32.374 712.561 32.374C713.703 32.374 714.713 32.6223 715.59 33.1189C716.468 33.5989 717.154 34.294 717.651 35.2044C718.148 36.1147 718.396 37.1823 718.396 38.4071V39.3009H708.49C708.539 40.6085 708.961 41.6347 709.756 42.3795C710.55 43.1078 711.543 43.472 712.735 43.472C713.778 43.472 714.581 43.232 715.143 42.752C715.706 42.272 716.137 41.7009 716.434 41.0389L718.123 41.8582C717.874 42.3713 717.527 42.8844 717.08 43.3975C716.65 43.9106 716.079 44.3409 715.367 44.6885C714.672 45.0361 713.778 45.2099 712.685 45.2099ZM708.514 37.6871H716.41C716.343 36.5616 715.954 35.6844 715.243 35.0554C714.548 34.4264 713.654 34.112 712.561 34.112C711.452 34.112 710.542 34.4264 709.83 35.0554C709.119 35.6844 708.68 36.5616 708.514 37.6871Z" fill="#44403C"/>
<path d="M1002 0.621094H1245.41C1246.17 0.621094 1246.79 1.23823 1246.79 2V69.7246C1246.79 70.4862 1246.17 71.1035 1245.41 71.1035H1002C1001.24 71.1035 1000.62 70.4862 1000.62 69.7246V2C1000.62 1.23823 1001.24 0.621094 1002 0.621094Z" fill="#FDE68A"/>
<path d="M1002 0.621094H1245.41C1246.17 0.621094 1246.79 1.23823 1246.79 2V69.7246C1246.79 70.4862 1246.17 71.1035 1245.41 71.1035H1002C1001.24 71.1035 1000.62 70.4862 1000.62 69.7246V2C1000.62 1.23823 1001.24 0.621094 1002 0.621094Z" stroke="#1C1917" stroke-width="1.24138"/>
<path d="M1044.73 38.966C1044.89 38.9665 1045.05 39.0323 1045.17 39.1491L1048.88 42.8851C1048.99 43.0017 1049.06 43.1597 1049.06 43.3242C1049.06 43.4887 1048.99 43.647 1048.88 43.763L1045.14 47.4742C1045.02 47.5902 1044.86 47.655 1044.7 47.6544C1044.53 47.6537 1044.38 47.588 1044.26 47.4713L1040.55 43.7353C1040.43 43.6185 1040.37 43.4599 1040.37 43.2953C1040.37 43.1309 1040.44 42.9733 1040.55 42.8574L1044.29 39.1462C1044.41 39.0303 1044.56 38.9656 1044.73 38.966ZM1037.3 31.493C1037.47 31.4936 1037.63 31.5594 1037.74 31.6761L1041.45 35.4121C1041.57 35.5288 1041.64 35.6868 1041.63 35.8512C1041.63 36.0158 1041.57 36.174 1041.45 36.29L1037.72 40.0013C1037.6 40.1172 1037.44 40.182 1037.28 40.1815C1037.11 40.1808 1036.95 40.115 1036.84 39.9984L1033.13 36.2624C1033.01 36.1456 1032.95 35.9869 1032.95 35.8223C1032.95 35.6579 1033.01 35.5003 1033.13 35.3844L1036.87 31.6732C1036.98 31.5573 1037.14 31.4926 1037.3 31.493ZM1052.2 31.5425C1052.37 31.5431 1052.52 31.6089 1052.64 31.7256L1056.35 35.4616C1056.47 35.5783 1056.53 35.7363 1056.53 35.9007C1056.53 36.0653 1056.47 36.2235 1056.35 36.3396L1052.61 40.0508C1052.5 40.1668 1052.34 40.2315 1052.17 40.231C1052.01 40.2303 1051.85 40.1645 1051.73 40.0479L1048.02 36.3119C1047.91 36.1951 1047.84 36.0364 1047.84 35.8718C1047.84 35.7074 1047.91 35.5499 1048.03 35.434L1051.76 31.7227C1051.88 31.6069 1052.04 31.5421 1052.2 31.5425ZM1044.78 24.0696C1044.94 24.0701 1045.1 24.1359 1045.22 24.2527L1048.93 27.9887C1049.04 28.1054 1049.11 28.2633 1049.11 28.4277C1049.11 28.5923 1049.04 28.7506 1048.92 28.8666L1045.19 32.5778C1045.07 32.6938 1044.91 32.7586 1044.75 32.758C1044.58 32.7573 1044.43 32.6916 1044.31 32.5749L1040.6 28.8389C1040.48 28.7221 1040.42 28.5635 1040.42 28.3989C1040.42 28.2344 1040.49 28.0769 1040.6 27.961L1044.34 24.2498C1044.46 24.1339 1044.61 24.0691 1044.78 24.0696Z" fill="#292524" stroke="#44403C" stroke-width="1.24138"/>
<path d="M1070.24 44.8623L1075.6 27.483H1079.27L1084.64 44.8623H1082.48L1081.14 40.4678H1073.74L1072.4 44.8623H1070.24ZM1074.26 38.5809H1080.59L1077.61 28.7492H1077.26L1074.26 38.5809ZM1092.9 45.2099C1091.73 45.2099 1090.67 44.9616 1089.72 44.4651C1088.8 43.952 1088.06 43.2237 1087.51 42.2802C1086.98 41.3368 1086.72 40.2195 1086.72 38.9285V38.6554C1086.72 37.3478 1086.98 36.2306 1087.51 35.3037C1088.06 34.3602 1088.8 33.6402 1089.72 33.1437C1090.67 32.6306 1091.73 32.374 1092.9 32.374C1094.06 32.374 1095.05 32.5892 1095.86 33.0195C1096.68 33.4499 1097.33 34.0209 1097.79 34.7326C1098.27 35.4444 1098.58 36.2058 1098.71 37.0168L1096.8 37.414C1096.72 36.8182 1096.52 36.272 1096.2 35.7754C1095.91 35.2789 1095.48 34.8816 1094.94 34.5837C1094.39 34.2858 1093.72 34.1368 1092.93 34.1368C1092.12 34.1368 1091.39 34.3189 1090.74 34.683C1090.11 35.0471 1089.61 35.5685 1089.23 36.2471C1088.86 36.9258 1088.68 37.7368 1088.68 38.6802V38.9037C1088.68 39.8471 1088.86 40.6582 1089.23 41.3368C1089.61 42.0154 1090.11 42.5368 1090.74 42.9009C1091.39 43.2651 1092.12 43.4471 1092.93 43.4471C1094.13 43.4471 1095.05 43.1326 1095.68 42.5037C1096.33 41.8747 1096.73 41.0968 1096.87 40.1699L1098.81 40.592C1098.63 41.3864 1098.3 42.1395 1097.82 42.8513C1097.34 43.563 1096.68 44.134 1095.86 44.5644C1095.05 44.9947 1094.06 45.2099 1092.9 45.2099ZM1106.11 44.8623C1105.42 44.8623 1104.88 44.672 1104.5 44.2913C1104.14 43.9106 1103.95 43.3892 1103.95 42.7271V34.4347H1100.3V32.7216H1103.95V28.4016H1105.91V32.7216H1109.89V34.4347H1105.91V42.4292C1105.91 42.9258 1106.15 43.174 1106.63 43.174H1109.34V44.8623H1106.11ZM1113.06 44.8623V32.7216H1115.03V44.8623H1113.06ZM1114.06 30.8347C1113.63 30.8347 1113.26 30.694 1112.96 30.4126C1112.68 30.1313 1112.54 29.7754 1112.54 29.3451C1112.54 28.8982 1112.68 28.534 1112.96 28.2526C1113.26 27.9713 1113.63 27.8306 1114.06 27.8306C1114.49 27.8306 1114.84 27.9713 1115.12 28.2526C1115.41 28.534 1115.55 28.8982 1115.55 29.3451C1115.55 29.7754 1115.41 30.1313 1115.12 30.4126C1114.84 30.694 1114.49 30.8347 1114.06 30.8347ZM1122.23 44.8623L1117.88 32.7216H1119.97L1123.62 43.3975H1123.97L1127.62 32.7216H1129.7L1125.36 44.8623H1122.23ZM1137.59 45.2099C1136.36 45.2099 1135.29 44.9533 1134.36 44.4402C1133.43 43.9106 1132.71 43.174 1132.2 42.2306C1131.69 41.2871 1131.43 40.1947 1131.43 38.9533V38.6554C1131.43 37.3975 1131.69 36.2968 1132.2 35.3533C1132.71 34.4099 1133.42 33.6816 1134.33 33.1685C1135.24 32.6389 1136.29 32.374 1137.46 32.374C1138.6 32.374 1139.61 32.6223 1140.49 33.1189C1141.37 33.5989 1142.05 34.294 1142.55 35.2044C1143.05 36.1147 1143.3 37.1823 1143.3 38.4071V39.3009H1133.39C1133.44 40.6085 1133.86 41.6347 1134.66 42.3795C1135.45 43.1078 1136.44 43.472 1137.64 43.472C1138.68 43.472 1139.48 43.232 1140.04 42.752C1140.61 42.272 1141.04 41.7009 1141.33 41.0389L1143.02 41.8582C1142.77 42.3713 1142.43 42.8844 1141.98 43.3975C1141.55 43.9106 1140.98 44.3409 1140.27 44.6885C1139.57 45.0361 1138.68 45.2099 1137.59 45.2099ZM1133.41 37.6871H1141.31C1141.24 36.5616 1140.85 35.6844 1140.14 35.0554C1139.45 34.4264 1138.55 34.112 1137.46 34.112C1136.35 34.112 1135.44 34.4264 1134.73 35.0554C1134.02 35.6844 1133.58 36.5616 1133.41 37.6871ZM1158.78 45.2099C1157.52 45.2099 1156.4 44.9864 1155.4 44.5395C1154.41 44.0926 1153.62 43.4223 1153.04 42.5285C1152.48 41.6182 1152.2 40.4844 1152.2 39.1271V38.6058H1154.26V39.1271C1154.26 40.5671 1154.68 41.643 1155.53 42.3547C1156.37 43.0499 1157.46 43.3975 1158.78 43.3975C1160.14 43.3975 1161.17 43.0913 1161.88 42.4789C1162.6 41.8664 1162.95 41.0968 1162.95 40.1699C1162.95 39.5244 1162.79 39.0113 1162.45 38.6306C1162.14 38.2499 1161.69 37.9437 1161.11 37.712C1160.53 37.4637 1159.86 37.2485 1159.08 37.0664L1157.79 36.7437C1156.78 36.4789 1155.88 36.1561 1155.11 35.7754C1154.33 35.3947 1153.72 34.8982 1153.27 34.2858C1152.84 33.6568 1152.62 32.854 1152.62 31.8775C1152.62 30.9009 1152.86 30.0568 1153.34 29.3451C1153.84 28.6333 1154.53 28.0871 1155.4 27.7064C1156.3 27.3258 1157.32 27.1354 1158.48 27.1354C1159.66 27.1354 1160.71 27.3423 1161.64 27.7561C1162.58 28.1533 1163.32 28.7492 1163.84 29.5437C1164.39 30.3216 1164.66 31.3064 1164.66 32.4982V33.5409H1162.6V32.4982C1162.6 31.654 1162.42 30.9754 1162.06 30.4623C1161.71 29.9492 1161.22 29.5685 1160.59 29.3202C1159.98 29.072 1159.28 28.9478 1158.48 28.9478C1157.34 28.9478 1156.42 29.2044 1155.73 29.7175C1155.03 30.214 1154.68 30.9258 1154.68 31.8526C1154.68 32.4651 1154.83 32.9616 1155.13 33.3423C1155.43 33.723 1155.85 34.0375 1156.4 34.2858C1156.94 34.5175 1157.6 34.7244 1158.36 34.9064L1159.65 35.2292C1160.66 35.4444 1161.56 35.7423 1162.36 36.123C1163.17 36.4871 1163.81 36.992 1164.29 37.6375C1164.77 38.2664 1165.01 39.094 1165.01 40.1202C1165.01 41.1464 1164.76 42.0402 1164.24 42.8016C1163.73 43.563 1163 44.1589 1162.06 44.5892C1161.13 45.003 1160.04 45.2099 1158.78 45.2099ZM1172.76 44.8623C1172.07 44.8623 1171.53 44.672 1171.15 44.2913C1170.79 43.9106 1170.6 43.3892 1170.6 42.7271V34.4347H1166.96V32.7216H1170.6V28.4016H1172.57V32.7216H1176.54V34.4347H1172.57V42.4292C1172.57 42.9258 1172.81 43.174 1173.29 43.174H1175.99V44.8623H1172.76ZM1183.37 45.2099C1182.52 45.2099 1181.75 45.0609 1181.06 44.763C1180.36 44.4651 1179.82 44.0347 1179.42 43.472C1179.02 42.9092 1178.82 42.2223 1178.82 41.4113C1178.82 40.5837 1179.02 39.9051 1179.42 39.3754C1179.82 38.8292 1180.36 38.4237 1181.06 38.1589C1181.75 37.8775 1182.53 37.7368 1183.39 37.7368H1187.49V36.843C1187.49 35.9823 1187.23 35.3037 1186.72 34.8071C1186.22 34.3106 1185.48 34.0623 1184.48 34.0623C1183.51 34.0623 1182.75 34.3023 1182.2 34.7823C1181.65 35.2458 1181.28 35.8747 1181.08 36.6692L1179.25 36.0733C1179.44 35.3947 1179.76 34.7823 1180.19 34.2361C1180.62 33.6733 1181.19 33.2264 1181.9 32.8954C1182.63 32.5478 1183.5 32.374 1184.51 32.374C1186.07 32.374 1187.27 32.7795 1188.13 33.5906C1188.99 34.3851 1189.43 35.5106 1189.43 36.9671V42.454C1189.43 42.9506 1189.66 43.1989 1190.12 43.1989H1191.24V44.8623H1189.52C1188.98 44.8623 1188.54 44.7133 1188.21 44.4154C1187.88 44.1009 1187.71 43.6871 1187.71 43.174V43.0499H1187.41C1187.23 43.3644 1186.98 43.6954 1186.67 44.043C1186.37 44.374 1185.96 44.6471 1185.43 44.8623C1184.9 45.094 1184.21 45.2099 1183.37 45.2099ZM1183.59 43.5216C1184.75 43.5216 1185.68 43.1823 1186.4 42.5037C1187.12 41.8085 1187.49 40.8402 1187.49 39.5989V39.3258H1183.47C1182.69 39.3258 1182.04 39.4995 1181.53 39.8471C1181.03 40.1782 1180.79 40.683 1180.79 41.3616C1180.79 42.0402 1181.04 42.5699 1181.55 42.9506C1182.08 43.3313 1182.76 43.5216 1183.59 43.5216ZM1197.59 44.8623C1196.9 44.8623 1196.36 44.672 1195.98 44.2913C1195.61 43.9106 1195.43 43.3892 1195.43 42.7271V34.4347H1191.78V32.7216H1195.43V28.4016H1197.39V32.7216H1201.37V34.4347H1197.39V42.4292C1197.39 42.9258 1197.63 43.174 1198.11 43.174H1200.82V44.8623H1197.59ZM1209.67 45.2099C1208.44 45.2099 1207.37 44.9533 1206.44 44.4402C1205.51 43.9106 1204.79 43.174 1204.28 42.2306C1203.77 41.2871 1203.51 40.1947 1203.51 38.9533V38.6554C1203.51 37.3975 1203.77 36.2968 1204.28 35.3533C1204.79 34.4099 1205.51 33.6816 1206.42 33.1685C1207.33 32.6389 1208.37 32.374 1209.54 32.374C1210.69 32.374 1211.7 32.6223 1212.57 33.1189C1213.45 33.5989 1214.14 34.294 1214.63 35.2044C1215.13 36.1147 1215.38 37.1823 1215.38 38.4071V39.3009H1205.47C1205.52 40.6085 1205.94 41.6347 1206.74 42.3795C1207.53 43.1078 1208.53 43.472 1209.72 43.472C1210.76 43.472 1211.56 43.232 1212.13 42.752C1212.69 42.272 1213.12 41.7009 1213.42 41.0389L1215.11 41.8582C1214.86 42.3713 1214.51 42.8844 1214.06 43.3975C1213.63 43.9106 1213.06 44.3409 1212.35 44.6885C1211.65 45.0361 1210.76 45.2099 1209.67 45.2099ZM1205.5 37.6871H1213.39C1213.33 36.5616 1212.94 35.6844 1212.23 35.0554C1211.53 34.4264 1210.64 34.112 1209.54 34.112C1208.44 34.112 1207.52 34.4264 1206.81 35.0554C1206.1 35.6844 1205.66 36.5616 1205.5 37.6871Z" fill="#44403C"/>
<path d="M252 36C252 40.4183 255.582 44 260 44C264.418 44 268 40.4183 268 36C268 31.5817 264.418 28 260 28C255.582 28 252 31.5817 252 36ZM511.061 37.0607C511.646 36.4749 511.646 35.5251 511.061 34.9393L501.515 25.3934C500.929 24.8076 499.979 24.8076 499.393 25.3934C498.808 25.9792 498.808 26.9289 499.393 27.5147L507.879 36L499.393 44.4853C498.808 45.0711 498.808 46.0208 499.393 46.6066C499.979 47.1924 500.929 47.1924 501.515 46.6066L511.061 37.0607ZM260 36V37.5H510V36V34.5H260V36Z" fill="#9333EA"/>
<path d="M742 36C742 40.4183 745.582 44 750 44C754.418 44 758 40.4183 758 36C758 31.5817 754.418 28 750 28C745.582 28 742 31.5817 742 36ZM1001.06 37.0607C1001.65 36.4749 1001.65 35.5251 1001.06 34.9393L991.515 25.3934C990.929 24.8076 989.979 24.8076 989.393 25.3934C988.808 25.9792 988.808 26.9289 989.393 27.5147L997.879 36L989.393 44.4853C988.808 45.0711 988.808 46.0208 989.393 46.6066C989.979 47.1924 990.929 47.1924 991.515 46.6066L1001.06 37.0607ZM750 36V37.5H1000V36V34.5H750V36Z" fill="#9333EA"/>
<rect x="307.333" y="20.3333" width="155.333" height="31.3333" rx="5" fill="#D8B4FE"/>
<rect x="307.333" y="20.3333" width="155.333" height="31.3333" rx="5" stroke="#9333EA" stroke-width="0.666667"/>
<path fill-rule="evenodd" clip-rule="evenodd" d="M325 27.9998C324.469 27.9998 323.961 28.2106 323.586 28.5856C323.211 28.9607 323 29.4694 323 29.9998C323 30.5303 323.211 31.039 323.586 31.4141C323.961 31.7891 324.469 31.9998 325 31.9998C325.53 31.9998 326.039 31.7891 326.414 31.4141C326.789 31.039 327 30.5303 327 29.9998C327 29.4694 326.789 28.9607 326.414 28.5856C326.039 28.2106 325.53 27.9998 325 27.9998ZM321.667 29.9998C321.667 29.1158 322.018 28.2679 322.643 27.6428C323.268 27.0177 324.116 26.6665 325 26.6665C325.884 26.6665 326.732 27.0177 327.357 27.6428C327.982 28.2679 328.333 29.1158 328.333 29.9998C328.333 30.8839 327.982 31.7317 327.357 32.3569C326.732 32.982 325.884 33.3332 325 33.3332C324.116 33.3332 323.268 32.982 322.643 32.3569C322.018 31.7317 321.667 30.8839 321.667 29.9998ZM317 40.8038V41.3332C317 41.5412 317.107 41.8132 317.463 42.1372C317.819 42.4612 318.372 42.7838 319.111 43.0678C320.587 43.6345 322.667 43.9998 325 43.9998C327.333 43.9998 329.415 43.6345 330.889 43.0678C331.628 42.7838 332.181 42.4612 332.537 42.1372C332.893 41.8132 333 41.5412 333 41.3332V40.8038C332.541 41.1278 331.987 41.4078 331.368 41.6452C329.705 42.2852 327.453 42.6665 325 42.6665C322.547 42.6665 320.295 42.2852 318.632 41.6452C318.056 41.4317 317.508 41.1492 317 40.8038ZM317 38.6665C317 38.8745 317.107 39.1465 317.463 39.4705C317.819 39.7945 318.372 40.1172 319.111 40.4012C320.587 40.9678 322.667 41.3332 325 41.3332C327.333 41.3332 329.415 40.9678 330.889 40.4012C331.628 40.1172 332.181 39.7945 332.537 39.4705C332.893 39.1465 333 38.8745 333 38.6665C333 38.4585 332.893 38.1865 332.537 37.8625C332.181 37.5385 331.628 37.2158 330.889 36.9318C329.413 36.3652 327.333 35.9998 325 35.9998C322.667 35.9998 320.585 36.3652 319.111 36.9318C318.372 37.2158 317.819 37.5385 317.463 37.8625C317.107 38.1865 317 38.4585 317 38.6665ZM315.667 38.6665C315.667 37.9545 316.045 37.3492 316.565 36.8758C317.085 36.4025 317.804 36.0065 318.632 35.6878C320.295 35.0478 322.547 34.6665 325 34.6665C327.453 34.6665 329.705 35.0478 331.368 35.6878C332.196 36.0065 332.913 36.4025 333.435 36.8758C333.955 37.3492 334.333 37.9545 334.333 38.6665V41.3332C334.333 42.0465 333.955 42.6505 333.435 43.1238C332.915 43.5972 332.196 43.9932 331.368 44.3118C329.705 44.9518 327.453 45.3332 325 45.3332C322.547 45.3332 320.295 44.9518 318.632 44.3118C317.804 43.9932 317.087 43.5972 316.565 43.1238C316.045 42.6505 315.667 42.0465 315.667 41.3332V38.6665Z" fill="#3B0764"/>
<path d="M344.523 42L341.341 30.3636H342.773L345.205 39.8409H345.318L347.795 30.3636H349.386L351.864 39.8409H351.977L354.409 30.3636H355.841L352.659 42H351.205L348.636 32.7273H348.545L345.977 42H344.523ZM358.756 36.75V42H357.415V30.3636H358.756V34.6364H358.869C359.074 34.1856 359.381 33.8277 359.79 33.5625C360.203 33.2936 360.752 33.1591 361.438 33.1591C362.032 33.1591 362.553 33.2784 363 33.517C363.447 33.7519 363.794 34.1136 364.04 34.6023C364.29 35.0871 364.415 35.7045 364.415 36.4545V42H363.074V36.5455C363.074 35.8523 362.894 35.3163 362.534 34.9375C362.178 34.5549 361.684 34.3636 361.051 34.3636C360.612 34.3636 360.218 34.4564 359.869 34.642C359.525 34.8277 359.252 35.0985 359.051 35.4545C358.854 35.8106 358.756 36.2424 358.756 36.75ZM366.868 42V33.2727H368.209V42H366.868ZM367.55 31.8182C367.288 31.8182 367.063 31.7292 366.874 31.5511C366.688 31.3731 366.595 31.1591 366.595 30.9091C366.595 30.6591 366.688 30.4451 366.874 30.267C367.063 30.089 367.288 30 367.55 30C367.811 30 368.035 30.089 368.22 30.267C368.41 30.4451 368.504 30.6591 368.504 30.9091C368.504 31.1591 368.41 31.3731 368.22 31.5511C368.035 31.7292 367.811 31.8182 367.55 31.8182ZM372.006 30.3636V42H370.665V30.3636H372.006ZM378.121 42.1818C377.28 42.1818 376.554 41.9962 375.945 41.625C375.339 41.25 374.871 40.7273 374.541 40.0568C374.215 39.3826 374.053 38.5985 374.053 37.7045C374.053 36.8106 374.215 36.0227 374.541 35.3409C374.871 34.6553 375.329 34.1212 375.916 33.7386C376.507 33.3523 377.196 33.1591 377.984 33.1591C378.439 33.1591 378.888 33.2348 379.331 33.3864C379.774 33.5379 380.178 33.7841 380.541 34.125C380.905 34.4621 381.195 34.9091 381.411 35.4659C381.626 36.0227 381.734 36.7083 381.734 37.5227V38.0909H375.007V36.9318H380.371C380.371 36.4394 380.272 36 380.075 35.6136C379.882 35.2273 379.606 34.9223 379.246 34.6989C378.89 34.4754 378.469 34.3636 377.984 34.3636C377.45 34.3636 376.988 34.4962 376.598 34.7614C376.212 35.0227 375.914 35.3636 375.706 35.7841C375.498 36.2045 375.393 36.6553 375.393 37.1364V37.9091C375.393 38.5682 375.507 39.1269 375.734 39.5852C375.965 40.0398 376.286 40.3864 376.695 40.625C377.104 40.8598 377.579 40.9773 378.121 40.9773C378.473 40.9773 378.791 40.928 379.075 40.8295C379.363 40.7273 379.611 40.5758 379.82 40.375C380.028 40.1705 380.189 39.9167 380.303 39.6136L381.598 39.9773C381.462 40.4167 381.232 40.803 380.911 41.1364C380.589 41.4659 380.191 41.7235 379.717 41.9091C379.244 42.0909 378.712 42.1818 378.121 42.1818ZM389.615 36.75V42H388.274V30.3636H389.615V34.6364H389.729C389.933 34.1856 390.24 33.8277 390.649 33.5625C391.062 33.2936 391.611 33.1591 392.297 33.1591C392.892 33.1591 393.412 33.2784 393.859 33.517C394.306 33.7519 394.653 34.1136 394.899 34.6023C395.149 35.0871 395.274 35.7045 395.274 36.4545V42H393.933V36.5455C393.933 35.8523 393.753 35.3163 393.393 34.9375C393.037 34.5549 392.543 34.3636 391.911 34.3636C391.471 34.3636 391.077 34.4564 390.729 34.642C390.384 34.8277 390.111 35.0985 389.911 35.4545C389.714 35.8106 389.615 36.2424 389.615 36.75ZM401.273 42.1818C400.485 42.1818 399.794 41.9943 399.199 41.6193C398.608 41.2443 398.146 40.7197 397.812 40.0455C397.483 39.3712 397.318 38.5833 397.318 37.6818C397.318 36.7727 397.483 35.9792 397.812 35.3011C398.146 34.6231 398.608 34.0966 399.199 33.7216C399.794 33.3466 400.485 33.1591 401.273 33.1591C402.061 33.1591 402.75 33.3466 403.341 33.7216C403.936 34.0966 404.398 34.6231 404.727 35.3011C405.061 35.9792 405.227 36.7727 405.227 37.6818C405.227 38.5833 405.061 39.3712 404.727 40.0455C404.398 40.7197 403.936 41.2443 403.341 41.6193C402.75 41.9943 402.061 42.1818 401.273 42.1818ZM401.273 40.9773C401.871 40.9773 402.364 40.8239 402.75 40.517C403.136 40.2102 403.422 39.8068 403.608 39.3068C403.794 38.8068 403.886 38.2652 403.886 37.6818C403.886 37.0985 403.794 36.5549 403.608 36.0511C403.422 35.5473 403.136 35.1402 402.75 34.8295C402.364 34.5189 401.871 34.3636 401.273 34.3636C400.674 34.3636 400.182 34.5189 399.795 34.8295C399.409 35.1402 399.123 35.5473 398.938 36.0511C398.752 36.5549 398.659 37.0985 398.659 37.6818C398.659 38.2652 398.752 38.8068 398.938 39.3068C399.123 39.8068 399.409 40.2102 399.795 40.517C400.182 40.8239 400.674 40.9773 401.273 40.9773ZM414.098 33.2727L410.871 42H409.507L406.28 33.2727H407.734L410.143 40.2273H410.234L412.643 33.2727H414.098ZM419.214 42.1818C418.374 42.1818 417.648 41.9962 417.038 41.625C416.432 41.25 415.964 40.7273 415.635 40.0568C415.309 39.3826 415.146 38.5985 415.146 37.7045C415.146 36.8106 415.309 36.0227 415.635 35.3409C415.964 34.6553 416.423 34.1212 417.01 33.7386C417.601 33.3523 418.29 33.1591 419.078 33.1591C419.533 33.1591 419.982 33.2348 420.425 33.3864C420.868 33.5379 421.271 33.7841 421.635 34.125C421.999 34.4621 422.288 34.9091 422.504 35.4659C422.72 36.0227 422.828 36.7083 422.828 37.5227V38.0909H416.101V36.9318H421.464C421.464 36.4394 421.366 36 421.169 35.6136C420.976 35.2273 420.699 34.9223 420.339 34.6989C419.983 34.4754 419.563 34.3636 419.078 34.3636C418.544 34.3636 418.082 34.4962 417.692 34.7614C417.305 35.0227 417.008 35.3636 416.8 35.7841C416.591 36.2045 416.487 36.6553 416.487 37.1364V37.9091C416.487 38.5682 416.601 39.1269 416.828 39.5852C417.059 40.0398 417.379 40.3864 417.788 40.625C418.197 40.8598 418.673 40.9773 419.214 40.9773C419.567 40.9773 419.885 40.928 420.169 40.8295C420.457 40.7273 420.705 40.5758 420.913 40.375C421.122 40.1705 421.283 39.9167 421.396 39.6136L422.692 39.9773C422.555 40.4167 422.326 40.803 422.004 41.1364C421.682 41.4659 421.285 41.7235 420.811 41.9091C420.338 42.0909 419.805 42.1818 419.214 42.1818ZM424.868 42V33.2727H426.163V34.5909H426.254C426.413 34.1591 426.701 33.8087 427.118 33.5398C427.535 33.2708 428.004 33.1364 428.527 33.1364C428.625 33.1364 428.749 33.1383 428.896 33.142C429.044 33.1458 429.156 33.1515 429.232 33.1591V34.5227C429.186 34.5114 429.082 34.4943 428.919 34.4716C428.76 34.4451 428.591 34.4318 428.413 34.4318C427.989 34.4318 427.61 34.5208 427.277 34.6989C426.947 34.8731 426.686 35.1155 426.493 35.4261C426.304 35.733 426.209 36.0833 426.209 36.4773V42H424.868ZM430.821 42V33.2727H432.162V42H430.821ZM431.503 31.8182C431.241 31.8182 431.016 31.7292 430.827 31.5511C430.641 31.3731 430.548 31.1591 430.548 30.9091C430.548 30.6591 430.641 30.4451 430.827 30.267C431.016 30.089 431.241 30 431.503 30C431.764 30 431.988 30.089 432.173 30.267C432.363 30.4451 432.457 30.6591 432.457 30.9091C432.457 31.1591 432.363 31.3731 432.173 31.5511C431.988 31.7292 431.764 31.8182 431.503 31.8182ZM435.959 36.75V42H434.618V33.2727H435.913V34.6364H436.027C436.232 34.1932 436.542 33.8371 436.959 33.5682C437.375 33.2955 437.913 33.1591 438.572 33.1591C439.163 33.1591 439.68 33.2803 440.124 33.5227C440.567 33.7614 440.911 34.125 441.158 34.6136C441.404 35.0985 441.527 35.7121 441.527 36.4545V42H440.186V36.5455C440.186 35.8598 440.008 35.3258 439.652 34.9432C439.296 34.5568 438.807 34.3636 438.186 34.3636C437.758 34.3636 437.375 34.4564 437.038 34.642C436.705 34.8277 436.442 35.0985 436.249 35.4545C436.055 35.8106 435.959 36.2424 435.959 36.75ZM447.5 45.4545C446.852 45.4545 446.295 45.3712 445.83 45.2045C445.364 45.0417 444.975 44.8258 444.665 44.5568C444.358 44.2917 444.114 44.0076 443.932 43.7045L445 42.9545C445.121 43.1136 445.275 43.2955 445.46 43.5C445.646 43.7083 445.9 43.8883 446.222 44.0398C446.547 44.1951 446.973 44.2727 447.5 44.2727C448.205 44.2727 448.786 44.1023 449.244 43.7614C449.703 43.4205 449.932 42.8864 449.932 42.1591V40.3864H449.818C449.72 40.5455 449.58 40.7424 449.398 40.9773C449.22 41.2083 448.962 41.4148 448.625 41.5966C448.292 41.7746 447.841 41.8636 447.273 41.8636C446.568 41.8636 445.936 41.697 445.375 41.3636C444.818 41.0303 444.377 40.5455 444.051 39.9091C443.729 39.2727 443.568 38.5 443.568 37.5909C443.568 36.697 443.725 35.9186 444.04 35.2557C444.354 34.589 444.792 34.0739 445.352 33.7102C445.913 33.3428 446.561 33.1591 447.295 33.1591C447.864 33.1591 448.314 33.2538 448.648 33.4432C448.985 33.6288 449.242 33.8409 449.42 34.0795C449.602 34.3144 449.742 34.5076 449.841 34.6591H449.977V33.2727H451.273V42.25C451.273 43 451.102 43.6098 450.761 44.0795C450.424 44.553 449.97 44.8996 449.398 45.1193C448.83 45.3428 448.197 45.4545 447.5 45.4545ZM447.455 40.6591C447.992 40.6591 448.447 40.536 448.818 40.2898C449.189 40.0436 449.472 39.6894 449.665 39.2273C449.858 38.7652 449.955 38.2121 449.955 37.5682C449.955 36.9394 449.86 36.3845 449.67 35.9034C449.481 35.4223 449.201 35.0455 448.83 34.7727C448.458 34.5 448 34.3636 447.455 34.3636C446.886 34.3636 446.413 34.5076 446.034 34.7955C445.659 35.0833 445.377 35.4697 445.188 35.9545C445.002 36.4394 444.909 36.9773 444.909 37.5682C444.909 38.1742 445.004 38.7102 445.193 39.1761C445.386 39.6383 445.67 40.0019 446.045 40.267C446.424 40.5284 446.894 40.6591 447.455 40.6591Z" fill="#3B0764"/>
<rect x="822.333" y="20.3333" width="104.333" height="31.3333" rx="5" fill="#D8B4FE"/>
<rect x="822.333" y="20.3333" width="104.333" height="31.3333" rx="5" stroke="#9333EA" stroke-width="0.666667"/>
<path fill-rule="evenodd" clip-rule="evenodd" d="M836.428 27.3757C836.591 27.3081 836.774 27.3081 836.938 27.3756C837.101 27.4431 837.231 27.5726 837.299 27.7357L838.335 30.237C838.471 30.5637 838.283 30.9357 837.955 31.0717C837.627 31.2077 837.239 31.0744 837.103 30.7464L836.067 28.2477C836.033 28.1667 836.016 28.0799 836.015 27.9923C836.015 27.9046 836.033 27.8177 836.066 27.7367C836.1 27.6558 836.149 27.5822 836.211 27.5202C836.273 27.4583 836.347 27.4092 836.428 27.3757ZM834.748 33.1024L832.248 32.0664C832.084 31.9987 831.901 31.9986 831.737 32.0662C831.574 32.1339 831.444 32.2637 831.377 32.427C831.309 32.5904 831.309 32.774 831.376 32.9374C831.444 33.1008 831.574 33.2307 831.737 33.2984L834.237 34.3344C834.565 34.469 834.936 34.281 835.072 33.9544C835.208 33.6264 835.076 33.2397 834.748 33.1024ZM834.237 37.6637L831.737 38.6984C831.574 38.7661 831.444 38.8959 831.376 39.0593C831.309 39.2228 831.309 39.4063 831.377 39.5697C831.444 39.7331 831.574 39.8629 831.737 39.9305C831.901 39.9981 832.084 39.9981 832.248 39.9304L834.748 38.8944C835.076 38.7584 835.208 38.3704 835.072 38.0424C834.936 37.7144 834.565 37.5277 834.237 37.6637ZM837.103 41.2504L836.067 43.749C836.033 43.8299 836.016 43.9166 836.016 44.0042C836.016 44.0918 836.033 44.1785 836.066 44.2594C836.1 44.3403 836.149 44.4138 836.211 44.4758C836.273 44.5377 836.346 44.5868 836.427 44.6204C836.508 44.6539 836.595 44.6712 836.682 44.6712C836.77 44.6712 836.857 44.654 836.938 44.6205C837.018 44.587 837.092 44.5379 837.154 44.476C837.216 44.4141 837.265 44.3406 837.299 44.2597L838.335 41.7597C838.471 41.433 838.281 41.061 837.955 40.925C837.628 40.789 837.239 40.9224 837.103 41.2504ZM845.763 34.333L848.261 33.297C848.344 33.2646 848.419 33.2162 848.482 33.1544C848.546 33.0927 848.596 33.019 848.631 32.9375C848.665 32.856 848.683 32.7685 848.684 32.68C848.684 32.5914 848.667 32.5037 848.633 32.4219C848.599 32.3401 848.55 32.2659 848.487 32.2035C848.424 32.1411 848.349 32.0919 848.267 32.0587C848.185 32.0255 848.097 32.0089 848.009 32.01C847.92 32.0111 847.833 32.0298 847.752 32.065L845.252 33.101C844.924 33.2357 844.791 33.625 844.927 33.953C845.063 34.281 845.435 34.4677 845.763 34.333ZM842.896 30.7464L843.932 28.2464C844 28.083 844 27.8994 843.932 27.736C843.864 27.5726 843.735 27.4428 843.571 27.375C843.408 27.3073 843.224 27.3073 843.061 27.3749C842.897 27.4426 842.768 27.5723 842.7 27.7357L841.665 30.2357C841.529 30.5624 841.717 30.9344 842.044 31.0704C842.372 31.2064 842.761 31.073 842.897 30.745M840.471 34.7477C840.231 34.6575 839.97 34.6383 839.72 34.6925C839.469 34.7466 839.24 34.8717 839.058 35.0529C838.877 35.2341 838.752 35.4636 838.698 35.7141C838.644 35.9645 838.663 36.2252 838.753 36.465L841.753 44.465C841.853 44.731 842.036 44.9581 842.274 45.1132C842.512 45.2682 842.794 45.343 843.077 45.3268C843.361 45.3106 843.632 45.2041 843.851 45.023C844.07 44.8418 844.225 44.5954 844.295 44.3197L845.101 41.0957L848.325 40.2904C848.601 40.2215 848.848 40.0661 849.03 39.8469C849.211 39.6277 849.318 39.3562 849.334 39.0721C849.35 38.788 849.275 38.5062 849.119 38.2679C848.963 38.0296 848.736 37.8473 848.469 37.7477L840.471 34.7477ZM845.724 39.5664L844 39.9997L843.569 41.7197L843 43.9997L842.176 41.7997L840.621 37.6557L840 35.9997L841.657 36.621L845.801 38.1744L848 38.9997L845.724 39.5664Z" fill="#3B0764"/>
<path d="M867.227 36.1818C867.227 37.4091 867.006 38.4697 866.562 39.3636C866.119 40.2576 865.511 40.947 864.739 41.4318C863.966 41.9167 863.083 42.1591 862.091 42.1591C861.098 42.1591 860.216 41.9167 859.443 41.4318C858.67 40.947 858.063 40.2576 857.619 39.3636C857.176 38.4697 856.955 37.4091 856.955 36.1818C856.955 34.9545 857.176 33.8939 857.619 33C858.063 32.1061 858.67 31.4167 859.443 30.9318C860.216 30.447 861.098 30.2045 862.091 30.2045C863.083 30.2045 863.966 30.447 864.739 30.9318C865.511 31.4167 866.119 32.1061 866.562 33C867.006 33.8939 867.227 34.9545 867.227 36.1818ZM865.864 36.1818C865.864 35.1742 865.695 34.3239 865.358 33.6307C865.025 32.9375 864.572 32.4129 864 32.0568C863.432 31.7008 862.795 31.5227 862.091 31.5227C861.386 31.5227 860.748 31.7008 860.176 32.0568C859.608 32.4129 859.155 32.9375 858.818 33.6307C858.485 34.3239 858.318 35.1742 858.318 36.1818C858.318 37.1894 858.485 38.0398 858.818 38.733C859.155 39.4261 859.608 39.9508 860.176 40.3068C860.748 40.6629 861.386 40.8409 862.091 40.8409C862.795 40.8409 863.432 40.6629 864 40.3068C864.572 39.9508 865.025 39.4261 865.358 38.733C865.695 38.0398 865.864 37.1894 865.864 36.1818ZM870.756 36.75V42H869.415V33.2727H870.71V34.6364H870.824C871.028 34.1932 871.339 33.8371 871.756 33.5682C872.172 33.2955 872.71 33.1591 873.369 33.1591C873.96 33.1591 874.477 33.2803 874.92 33.5227C875.364 33.7614 875.708 34.125 875.955 34.6136C876.201 35.0985 876.324 35.7121 876.324 36.4545V42H874.983V36.5455C874.983 35.8598 874.805 35.3258 874.449 34.9432C874.093 34.5568 873.604 34.3636 872.983 34.3636C872.555 34.3636 872.172 34.4564 871.835 34.642C871.502 34.8277 871.239 35.0985 871.045 35.4545C870.852 35.8106 870.756 36.2424 870.756 36.75ZM886.82 42.1818C886.001 42.1818 885.297 41.9886 884.706 41.6023C884.115 41.2159 883.661 40.6837 883.342 40.0057C883.024 39.3277 882.865 38.553 882.865 37.6818C882.865 36.7955 883.028 36.0133 883.354 35.3352C883.683 34.6534 884.142 34.1212 884.729 33.7386C885.32 33.3523 886.009 33.1591 886.797 33.1591C887.411 33.1591 887.964 33.2727 888.456 33.5C888.948 33.7273 889.352 34.0455 889.666 34.4545C889.981 34.8636 890.176 35.3409 890.251 35.8864H888.911C888.808 35.4886 888.581 35.1364 888.229 34.8295C887.88 34.5189 887.411 34.3636 886.82 34.3636C886.297 34.3636 885.839 34.5 885.445 34.7727C885.054 35.0417 884.75 35.4223 884.53 35.9148C884.314 36.4034 884.206 36.9773 884.206 37.6364C884.206 38.3106 884.312 38.8977 884.524 39.3977C884.74 39.8977 885.043 40.286 885.433 40.5625C885.827 40.839 886.289 40.9773 886.82 40.9773C887.168 40.9773 887.484 40.9167 887.768 40.7955C888.053 40.6742 888.293 40.5 888.49 40.2727C888.687 40.0455 888.827 39.7727 888.911 39.4545H890.251C890.176 39.9697 889.988 40.4337 889.689 40.8466C889.393 41.2557 889.001 41.5814 888.513 41.8239C888.028 42.0625 887.464 42.1818 886.82 42.1818ZM893.553 30.3636V42H892.212V30.3636H893.553ZM896.009 42V33.2727H897.349V42H896.009ZM896.69 31.8182C896.429 31.8182 896.204 31.7292 896.014 31.5511C895.829 31.3731 895.736 31.1591 895.736 30.9091C895.736 30.6591 895.829 30.4451 896.014 30.267C896.204 30.089 896.429 30 896.69 30C896.952 30 897.175 30.089 897.361 30.267C897.55 30.4451 897.645 30.6591 897.645 30.9091C897.645 31.1591 897.55 31.3731 897.361 31.5511C897.175 31.7292 896.952 31.8182 896.69 31.8182ZM903.351 42.1818C902.533 42.1818 901.828 41.9886 901.237 41.6023C900.646 41.2159 900.192 40.6837 899.874 40.0057C899.555 39.3277 899.396 38.553 899.396 37.6818C899.396 36.7955 899.559 36.0133 899.885 35.3352C900.214 34.6534 900.673 34.1212 901.26 33.7386C901.851 33.3523 902.54 33.1591 903.328 33.1591C903.942 33.1591 904.495 33.2727 904.987 33.5C905.48 33.7273 905.883 34.0455 906.197 34.4545C906.512 34.8636 906.707 35.3409 906.783 35.8864H905.442C905.339 35.4886 905.112 35.1364 904.76 34.8295C904.411 34.5189 903.942 34.3636 903.351 34.3636C902.828 34.3636 902.37 34.5 901.976 34.7727C901.586 35.0417 901.281 35.4223 901.061 35.9148C900.845 36.4034 900.737 36.9773 900.737 37.6364C900.737 38.3106 900.843 38.8977 901.055 39.3977C901.271 39.8977 901.574 40.286 901.964 40.5625C902.358 40.839 902.821 40.9773 903.351 40.9773C903.699 40.9773 904.016 40.9167 904.3 40.7955C904.584 40.6742 904.824 40.5 905.021 40.2727C905.218 40.0455 905.358 39.7727 905.442 39.4545H906.783C906.707 39.9697 906.519 40.4337 906.22 40.8466C905.925 41.2557 905.533 41.5814 905.044 41.8239C904.559 42.0625 903.995 42.1818 903.351 42.1818ZM909.993 38.8182L909.97 37.1591H910.243L914.061 33.2727H915.72L911.652 37.3864H911.538L909.993 38.8182ZM908.743 42V30.3636H910.084V42H908.743ZM914.288 42L910.879 37.6818L911.834 36.75L915.993 42H914.288Z" fill="#3B0764"/>
</svg>
