<svg width="405" height="217" viewBox="0 0 405 217" fill="none" xmlns="http://www.w3.org/2000/svg">
<rect x="0.5" y="0.5" width="186" height="36" stroke="#292524"/>
<path fill-rule="evenodd" clip-rule="evenodd" d="M15.375 12.25C15.5408 12.25 15.6997 12.3158 15.8169 12.4331C15.9342 12.5503 16 12.7092 16 12.875V14.75H21V12.875C21 12.7092 21.0658 12.5503 21.1831 12.4331C21.3003 12.3158 21.4592 12.25 21.625 12.25C21.7908 12.25 21.9497 12.3158 22.0669 12.4331C22.1842 12.5503 22.25 12.7092 22.25 12.875V14.75H24.125C24.2908 14.75 24.4497 14.8158 24.5669 14.9331C24.6842 15.0503 24.75 15.2092 24.75 15.375C24.75 15.5408 24.6842 15.6997 24.5669 15.8169C24.4497 15.9342 24.2908 16 24.125 16H22.25V21H24.125C24.2908 21 24.4497 21.0658 24.5669 21.1831C24.6842 21.3003 24.75 21.4592 24.75 21.625C24.75 21.7908 24.6842 21.9497 24.5669 22.0669C24.4497 22.1842 24.2908 22.25 24.125 22.25H22.25V24.125C22.25 24.2908 22.1842 24.4497 22.0669 24.5669C21.9497 24.6842 21.7908 24.75 21.625 24.75C21.4592 24.75 21.3003 24.6842 21.1831 24.5669C21.0658 24.4497 21 24.2908 21 24.125V22.25H16V24.125C16 24.2908 15.9342 24.4497 15.8169 24.5669C15.6997 24.6842 15.5408 24.75 15.375 24.75C15.2092 24.75 15.0503 24.6842 14.9331 24.5669C14.8158 24.4497 14.75 24.2908 14.75 24.125V22.25H12.875C12.7092 22.25 12.5503 22.1842 12.4331 22.0669C12.3158 21.9497 12.25 21.7908 12.25 21.625C12.25 21.4592 12.3158 21.3003 12.4331 21.1831C12.5503 21.0658 12.7092 21 12.875 21H14.75V16H12.875C12.7092 16 12.5503 15.9342 12.4331 15.8169C12.3158 15.6997 12.25 15.5408 12.25 15.375C12.25 15.2092 12.3158 15.0503 12.4331 14.9331C12.5503 14.8158 12.7092 14.75 12.875 14.75H14.75V12.875C14.75 12.7092 14.8158 12.5503 14.9331 12.4331C15.0503 12.3158 15.2092 12.25 15.375 12.25ZM21 21V16H16V21H21Z" fill="#44403C"/>
<path d="M38.021 23.5V13.7H44.069V15.072H39.533V17.9H43.705V19.272H39.533V23.5H38.021ZM45.5826 23.5V16.598H46.9966V17.41H47.2206C47.3326 17.1207 47.5099 16.9107 47.7526 16.78C48.0046 16.64 48.3126 16.57 48.6766 16.57H49.5026V17.872H48.6206C48.1539 17.872 47.7712 18.0027 47.4726 18.264C47.1739 18.516 47.0246 18.908 47.0246 19.44V23.5H45.5826ZM52.9472 23.696C52.4525 23.696 52.0092 23.612 51.6172 23.444C51.2345 23.276 50.9265 23.0287 50.6932 22.702C50.4692 22.3753 50.3572 21.9787 50.3572 21.512C50.3572 21.036 50.4692 20.644 50.6932 20.336C50.9265 20.0187 51.2392 19.7807 51.6312 19.622C52.0325 19.4633 52.4852 19.384 52.9892 19.384H55.0892V18.936C55.0892 18.5347 54.9679 18.2127 54.7252 17.97C54.4825 17.7273 54.1092 17.606 53.6052 17.606C53.1105 17.606 52.7325 17.7227 52.4712 17.956C52.2099 18.1893 52.0372 18.4927 51.9532 18.866L50.6092 18.432C50.7212 18.0587 50.8985 17.7227 51.1412 17.424C51.3932 17.116 51.7245 16.8687 52.1352 16.682C52.5459 16.4953 53.0405 16.402 53.6192 16.402C54.5152 16.402 55.2199 16.6307 55.7332 17.088C56.2465 17.5453 56.5032 18.194 56.5032 19.034V21.876C56.5032 22.156 56.6339 22.296 56.8952 22.296H57.4832V23.5H56.4052C56.0785 23.5 55.8125 23.416 55.6072 23.248C55.4019 23.08 55.2992 22.8513 55.2992 22.562V22.52H55.0892C55.0145 22.66 54.9025 22.8233 54.7532 23.01C54.6039 23.1967 54.3845 23.36 54.0952 23.5C53.8059 23.6307 53.4232 23.696 52.9472 23.696ZM53.1572 22.506C53.7359 22.506 54.2025 22.3427 54.5572 22.016C54.9119 21.68 55.0892 21.2227 55.0892 20.644V20.504H53.0732C52.6905 20.504 52.3825 20.588 52.1492 20.756C51.9159 20.9147 51.7992 21.1527 51.7992 21.47C51.7992 21.7873 51.9205 22.0393 52.1632 22.226C52.4059 22.4127 52.7372 22.506 53.1572 22.506ZM58.8853 23.5V16.598H60.2993V17.41H60.5233C60.654 17.1673 60.864 16.9527 61.1533 16.766C61.4426 16.5793 61.8346 16.486 62.3293 16.486C62.8426 16.486 63.2533 16.5933 63.5613 16.808C63.8786 17.0133 64.1166 17.2793 64.2753 17.606H64.4993C64.658 17.2887 64.8866 17.0227 65.1853 16.808C65.4933 16.5933 65.9273 16.486 66.4873 16.486C66.9353 16.486 67.332 16.5793 67.6773 16.766C68.0226 16.9433 68.298 17.214 68.5033 17.578C68.7086 17.9327 68.8113 18.376 68.8113 18.908V23.5H67.3693V19.02C67.3693 18.6 67.2526 18.278 67.0193 18.054C66.7953 17.8207 66.4733 17.704 66.0533 17.704C65.6053 17.704 65.246 17.8487 64.9753 18.138C64.7046 18.4273 64.5693 18.8427 64.5693 19.384V23.5H63.1273V19.02C63.1273 18.6 63.0106 18.278 62.7773 18.054C62.5533 17.8207 62.2313 17.704 61.8113 17.704C61.3633 17.704 61.004 17.8487 60.7333 18.138C60.4626 18.4273 60.3273 18.8427 60.3273 19.384V23.5H58.8853ZM74.0532 23.696C73.3532 23.696 72.7419 23.5513 72.2192 23.262C71.6965 22.9633 71.2859 22.548 70.9872 22.016C70.6979 21.4747 70.5532 20.8493 70.5532 20.14V19.972C70.5532 19.2533 70.6979 18.628 70.9872 18.096C71.2765 17.5547 71.6779 17.1393 72.1912 16.85C72.7139 16.5513 73.3159 16.402 73.9972 16.402C74.6599 16.402 75.2385 16.5513 75.7332 16.85C76.2372 17.1393 76.6292 17.5453 76.9092 18.068C77.1892 18.5907 77.3292 19.202 77.3292 19.902V20.448H72.0232C72.0419 21.0547 72.2425 21.54 72.6252 21.904C73.0172 22.2587 73.5025 22.436 74.0812 22.436C74.6225 22.436 75.0285 22.3147 75.2992 22.072C75.5792 21.8293 75.7939 21.5493 75.9432 21.232L77.1332 21.848C77.0025 22.1093 76.8112 22.3847 76.5592 22.674C76.3165 22.9633 75.9945 23.206 75.5932 23.402C75.1919 23.598 74.6785 23.696 74.0532 23.696ZM72.0372 19.342H75.8592C75.8219 18.8193 75.6352 18.4133 75.2992 18.124C74.9632 17.8253 74.5245 17.676 73.9832 17.676C73.4419 17.676 72.9985 17.8253 72.6532 18.124C72.3172 18.4133 72.1119 18.8193 72.0372 19.342Z" fill="#1C1917"/>
<rect x="0.5" y="36.5" width="186" height="36" stroke="#292524"/>
<path fill-rule="evenodd" clip-rule="evenodd" d="M23.375 48.25C23.5408 48.25 23.6997 48.3158 23.8169 48.4331C23.9342 48.5503 24 48.7092 24 48.875V50.75H29V48.875C29 48.7092 29.0658 48.5503 29.1831 48.4331C29.3003 48.3158 29.4592 48.25 29.625 48.25C29.7908 48.25 29.9497 48.3158 30.0669 48.4331C30.1842 48.5503 30.25 48.7092 30.25 48.875V50.75H32.125C32.2908 50.75 32.4497 50.8158 32.5669 50.9331C32.6842 51.0503 32.75 51.2092 32.75 51.375C32.75 51.5408 32.6842 51.6997 32.5669 51.8169C32.4497 51.9342 32.2908 52 32.125 52H30.25V57H32.125C32.2908 57 32.4497 57.0658 32.5669 57.1831C32.6842 57.3003 32.75 57.4592 32.75 57.625C32.75 57.7908 32.6842 57.9497 32.5669 58.0669C32.4497 58.1842 32.2908 58.25 32.125 58.25H30.25V60.125C30.25 60.2908 30.1842 60.4497 30.0669 60.5669C29.9497 60.6842 29.7908 60.75 29.625 60.75C29.4592 60.75 29.3003 60.6842 29.1831 60.5669C29.0658 60.4497 29 60.2908 29 60.125V58.25H24V60.125C24 60.2908 23.9342 60.4497 23.8169 60.5669C23.6997 60.6842 23.5408 60.75 23.375 60.75C23.2092 60.75 23.0503 60.6842 22.9331 60.5669C22.8158 60.4497 22.75 60.2908 22.75 60.125V58.25H20.875C20.7092 58.25 20.5503 58.1842 20.4331 58.0669C20.3158 57.9497 20.25 57.7908 20.25 57.625C20.25 57.4592 20.3158 57.3003 20.4331 57.1831C20.5503 57.0658 20.7092 57 20.875 57H22.75V52H20.875C20.7092 52 20.5503 51.9342 20.4331 51.8169C20.3158 51.6997 20.25 51.5408 20.25 51.375C20.25 51.2092 20.3158 51.0503 20.4331 50.9331C20.5503 50.8158 20.7092 50.75 20.875 50.75H22.75V48.875C22.75 48.7092 22.8158 48.5503 22.9331 48.4331C23.0503 48.3158 23.2092 48.25 23.375 48.25ZM29 57V52H24V57H29Z" fill="#44403C"/>
<path d="M46.021 59.5V49.7H52.069V51.072H47.533V53.9H51.705V55.272H47.533V59.5H46.021ZM53.5826 59.5V52.598H54.9966V53.41H55.2206C55.3326 53.1207 55.5099 52.9107 55.7526 52.78C56.0046 52.64 56.3126 52.57 56.6766 52.57H57.5026V53.872H56.6206C56.1539 53.872 55.7712 54.0027 55.4726 54.264C55.1739 54.516 55.0246 54.908 55.0246 55.44V59.5H53.5826ZM60.9472 59.696C60.4525 59.696 60.0092 59.612 59.6172 59.444C59.2345 59.276 58.9265 59.0287 58.6932 58.702C58.4692 58.3753 58.3572 57.9787 58.3572 57.512C58.3572 57.036 58.4692 56.644 58.6932 56.336C58.9265 56.0187 59.2392 55.7807 59.6312 55.622C60.0325 55.4633 60.4852 55.384 60.9892 55.384H63.0892V54.936C63.0892 54.5347 62.9679 54.2127 62.7252 53.97C62.4825 53.7273 62.1092 53.606 61.6052 53.606C61.1105 53.606 60.7325 53.7227 60.4712 53.956C60.2099 54.1893 60.0372 54.4927 59.9532 54.866L58.6092 54.432C58.7212 54.0587 58.8985 53.7227 59.1412 53.424C59.3932 53.116 59.7245 52.8687 60.1352 52.682C60.5459 52.4953 61.0405 52.402 61.6192 52.402C62.5152 52.402 63.2199 52.6307 63.7332 53.088C64.2465 53.5453 64.5032 54.194 64.5032 55.034V57.876C64.5032 58.156 64.6339 58.296 64.8952 58.296H65.4832V59.5H64.4052C64.0785 59.5 63.8125 59.416 63.6072 59.248C63.4019 59.08 63.2992 58.8513 63.2992 58.562V58.52H63.0892C63.0145 58.66 62.9025 58.8233 62.7532 59.01C62.6039 59.1967 62.3845 59.36 62.0952 59.5C61.8059 59.6307 61.4232 59.696 60.9472 59.696ZM61.1572 58.506C61.7359 58.506 62.2025 58.3427 62.5572 58.016C62.9119 57.68 63.0892 57.2227 63.0892 56.644V56.504H61.0732C60.6905 56.504 60.3825 56.588 60.1492 56.756C59.9159 56.9147 59.7992 57.1527 59.7992 57.47C59.7992 57.7873 59.9205 58.0393 60.1632 58.226C60.4059 58.4127 60.7372 58.506 61.1572 58.506ZM66.8853 59.5V52.598H68.2993V53.41H68.5233C68.654 53.1673 68.864 52.9527 69.1533 52.766C69.4426 52.5793 69.8346 52.486 70.3293 52.486C70.8426 52.486 71.2533 52.5933 71.5613 52.808C71.8786 53.0133 72.1166 53.2793 72.2753 53.606H72.4993C72.658 53.2887 72.8866 53.0227 73.1853 52.808C73.4933 52.5933 73.9273 52.486 74.4873 52.486C74.9353 52.486 75.332 52.5793 75.6773 52.766C76.0226 52.9433 76.298 53.214 76.5033 53.578C76.7086 53.9327 76.8113 54.376 76.8113 54.908V59.5H75.3693V55.02C75.3693 54.6 75.2526 54.278 75.0193 54.054C74.7953 53.8207 74.4733 53.704 74.0533 53.704C73.6053 53.704 73.246 53.8487 72.9753 54.138C72.7046 54.4273 72.5693 54.8427 72.5693 55.384V59.5H71.1273V55.02C71.1273 54.6 71.0106 54.278 70.7773 54.054C70.5533 53.8207 70.2313 53.704 69.8113 53.704C69.3633 53.704 69.004 53.8487 68.7333 54.138C68.4626 54.4273 68.3273 54.8427 68.3273 55.384V59.5H66.8853ZM82.0532 59.696C81.3532 59.696 80.7419 59.5513 80.2192 59.262C79.6965 58.9633 79.2859 58.548 78.9872 58.016C78.6979 57.4747 78.5532 56.8493 78.5532 56.14V55.972C78.5532 55.2533 78.6979 54.628 78.9872 54.096C79.2765 53.5547 79.6779 53.1393 80.1912 52.85C80.7139 52.5513 81.3159 52.402 81.9972 52.402C82.6599 52.402 83.2385 52.5513 83.7332 52.85C84.2372 53.1393 84.6292 53.5453 84.9092 54.068C85.1892 54.5907 85.3292 55.202 85.3292 55.902V56.448H80.0232C80.0419 57.0547 80.2425 57.54 80.6252 57.904C81.0172 58.2587 81.5025 58.436 82.0812 58.436C82.6225 58.436 83.0285 58.3147 83.2992 58.072C83.5792 57.8293 83.7939 57.5493 83.9432 57.232L85.1332 57.848C85.0025 58.1093 84.8112 58.3847 84.5592 58.674C84.3165 58.9633 83.9945 59.206 83.5932 59.402C83.1919 59.598 82.6785 59.696 82.0532 59.696ZM80.0372 55.342H83.8592C83.8219 54.8193 83.6352 54.4133 83.2992 54.124C82.9632 53.8253 82.5245 53.676 81.9832 53.676C81.4419 53.676 80.9985 53.8253 80.6532 54.124C80.3172 54.4133 80.1119 54.8193 80.0372 55.342Z" fill="#1C1917"/>
<rect x="0.5" y="72.5" width="186" height="36" stroke="#292524"/>
<path fill-rule="evenodd" clip-rule="evenodd" d="M31.375 84.25C31.5408 84.25 31.6997 84.3158 31.8169 84.4331C31.9342 84.5503 32 84.7092 32 84.875V86.75H37V84.875C37 84.7092 37.0658 84.5503 37.1831 84.4331C37.3003 84.3158 37.4592 84.25 37.625 84.25C37.7908 84.25 37.9497 84.3158 38.0669 84.4331C38.1842 84.5503 38.25 84.7092 38.25 84.875V86.75H40.125C40.2908 86.75 40.4497 86.8158 40.5669 86.9331C40.6842 87.0503 40.75 87.2092 40.75 87.375C40.75 87.5408 40.6842 87.6997 40.5669 87.8169C40.4497 87.9342 40.2908 88 40.125 88H38.25V93H40.125C40.2908 93 40.4497 93.0658 40.5669 93.1831C40.6842 93.3003 40.75 93.4592 40.75 93.625C40.75 93.7908 40.6842 93.9497 40.5669 94.0669C40.4497 94.1842 40.2908 94.25 40.125 94.25H38.25V96.125C38.25 96.2908 38.1842 96.4497 38.0669 96.5669C37.9497 96.6842 37.7908 96.75 37.625 96.75C37.4592 96.75 37.3003 96.6842 37.1831 96.5669C37.0658 96.4497 37 96.2908 37 96.125V94.25H32V96.125C32 96.2908 31.9342 96.4497 31.8169 96.5669C31.6997 96.6842 31.5408 96.75 31.375 96.75C31.2092 96.75 31.0503 96.6842 30.9331 96.5669C30.8158 96.4497 30.75 96.2908 30.75 96.125V94.25H28.875C28.7092 94.25 28.5503 94.1842 28.4331 94.0669C28.3158 93.9497 28.25 93.7908 28.25 93.625C28.25 93.4592 28.3158 93.3003 28.4331 93.1831C28.5503 93.0658 28.7092 93 28.875 93H30.75V88H28.875C28.7092 88 28.5503 87.9342 28.4331 87.8169C28.3158 87.6997 28.25 87.5408 28.25 87.375C28.25 87.2092 28.3158 87.0503 28.4331 86.9331C28.5503 86.8158 28.7092 86.75 28.875 86.75H30.75V84.875C30.75 84.7092 30.8158 84.5503 30.9331 84.4331C31.0503 84.3158 31.2092 84.25 31.375 84.25ZM37 93V88H32V93H37Z" fill="#44403C"/>
<path d="M54.021 95.5V85.7H60.069V87.072H55.533V89.9H59.705V91.272H55.533V95.5H54.021ZM61.5826 95.5V88.598H62.9966V89.41H63.2206C63.3326 89.1207 63.5099 88.9107 63.7526 88.78C64.0046 88.64 64.3126 88.57 64.6766 88.57H65.5026V89.872H64.6206C64.1539 89.872 63.7712 90.0027 63.4726 90.264C63.1739 90.516 63.0246 90.908 63.0246 91.44V95.5H61.5826ZM68.9472 95.696C68.4525 95.696 68.0092 95.612 67.6172 95.444C67.2345 95.276 66.9265 95.0287 66.6932 94.702C66.4692 94.3753 66.3572 93.9787 66.3572 93.512C66.3572 93.036 66.4692 92.644 66.6932 92.336C66.9265 92.0187 67.2392 91.7807 67.6312 91.622C68.0325 91.4633 68.4852 91.384 68.9892 91.384H71.0892V90.936C71.0892 90.5347 70.9679 90.2127 70.7252 89.97C70.4825 89.7273 70.1092 89.606 69.6052 89.606C69.1105 89.606 68.7325 89.7227 68.4712 89.956C68.2099 90.1893 68.0372 90.4927 67.9532 90.866L66.6092 90.432C66.7212 90.0587 66.8985 89.7227 67.1412 89.424C67.3932 89.116 67.7245 88.8687 68.1352 88.682C68.5459 88.4953 69.0405 88.402 69.6192 88.402C70.5152 88.402 71.2199 88.6307 71.7332 89.088C72.2465 89.5453 72.5032 90.194 72.5032 91.034V93.876C72.5032 94.156 72.6339 94.296 72.8952 94.296H73.4832V95.5H72.4052C72.0785 95.5 71.8125 95.416 71.6072 95.248C71.4019 95.08 71.2992 94.8513 71.2992 94.562V94.52H71.0892C71.0145 94.66 70.9025 94.8233 70.7532 95.01C70.6039 95.1967 70.3845 95.36 70.0952 95.5C69.8059 95.6307 69.4232 95.696 68.9472 95.696ZM69.1572 94.506C69.7359 94.506 70.2025 94.3427 70.5572 94.016C70.9119 93.68 71.0892 93.2227 71.0892 92.644V92.504H69.0732C68.6905 92.504 68.3825 92.588 68.1492 92.756C67.9159 92.9147 67.7992 93.1527 67.7992 93.47C67.7992 93.7873 67.9205 94.0393 68.1632 94.226C68.4059 94.4127 68.7372 94.506 69.1572 94.506ZM74.8853 95.5V88.598H76.2993V89.41H76.5233C76.654 89.1673 76.864 88.9527 77.1533 88.766C77.4426 88.5793 77.8346 88.486 78.3293 88.486C78.8426 88.486 79.2533 88.5933 79.5613 88.808C79.8786 89.0133 80.1166 89.2793 80.2753 89.606H80.4993C80.658 89.2887 80.8866 89.0227 81.1853 88.808C81.4933 88.5933 81.9273 88.486 82.4873 88.486C82.9353 88.486 83.332 88.5793 83.6773 88.766C84.0226 88.9433 84.298 89.214 84.5033 89.578C84.7086 89.9327 84.8113 90.376 84.8113 90.908V95.5H83.3693V91.02C83.3693 90.6 83.2526 90.278 83.0193 90.054C82.7953 89.8207 82.4733 89.704 82.0533 89.704C81.6053 89.704 81.246 89.8487 80.9753 90.138C80.7046 90.4273 80.5693 90.8427 80.5693 91.384V95.5H79.1273V91.02C79.1273 90.6 79.0106 90.278 78.7773 90.054C78.5533 89.8207 78.2313 89.704 77.8113 89.704C77.3633 89.704 77.004 89.8487 76.7333 90.138C76.4626 90.4273 76.3273 90.8427 76.3273 91.384V95.5H74.8853ZM90.0532 95.696C89.3532 95.696 88.7419 95.5513 88.2192 95.262C87.6965 94.9633 87.2859 94.548 86.9872 94.016C86.6979 93.4747 86.5532 92.8493 86.5532 92.14V91.972C86.5532 91.2533 86.6979 90.628 86.9872 90.096C87.2765 89.5547 87.6779 89.1393 88.1912 88.85C88.7139 88.5513 89.3159 88.402 89.9972 88.402C90.6599 88.402 91.2385 88.5513 91.7332 88.85C92.2372 89.1393 92.6292 89.5453 92.9092 90.068C93.1892 90.5907 93.3292 91.202 93.3292 91.902V92.448H88.0232C88.0419 93.0547 88.2425 93.54 88.6252 93.904C89.0172 94.2587 89.5025 94.436 90.0812 94.436C90.6225 94.436 91.0285 94.3147 91.2992 94.072C91.5792 93.8293 91.7939 93.5493 91.9432 93.232L93.1332 93.848C93.0025 94.1093 92.8112 94.3847 92.5592 94.674C92.3165 94.9633 91.9945 95.206 91.5932 95.402C91.1919 95.598 90.6785 95.696 90.0532 95.696ZM88.0372 91.342H91.8592C91.8219 90.8193 91.6352 90.4133 91.2992 90.124C90.9632 89.8253 90.5245 89.676 89.9832 89.676C89.4419 89.676 88.9985 89.8253 88.6532 90.124C88.3172 90.4133 88.1119 90.8193 88.0372 91.342Z" fill="#1C1917"/>
<rect x="0.5" y="108.5" width="186" height="36" stroke="#292524"/>
<path fill-rule="evenodd" clip-rule="evenodd" d="M23.375 120.25C23.5408 120.25 23.6997 120.316 23.8169 120.433C23.9342 120.55 24 120.709 24 120.875V122.75H29V120.875C29 120.709 29.0658 120.55 29.1831 120.433C29.3003 120.316 29.4592 120.25 29.625 120.25C29.7908 120.25 29.9497 120.316 30.0669 120.433C30.1842 120.55 30.25 120.709 30.25 120.875V122.75H32.125C32.2908 122.75 32.4497 122.816 32.5669 122.933C32.6842 123.05 32.75 123.209 32.75 123.375C32.75 123.541 32.6842 123.7 32.5669 123.817C32.4497 123.934 32.2908 124 32.125 124H30.25V129H32.125C32.2908 129 32.4497 129.066 32.5669 129.183C32.6842 129.3 32.75 129.459 32.75 129.625C32.75 129.791 32.6842 129.95 32.5669 130.067C32.4497 130.184 32.2908 130.25 32.125 130.25H30.25V132.125C30.25 132.291 30.1842 132.45 30.0669 132.567C29.9497 132.684 29.7908 132.75 29.625 132.75C29.4592 132.75 29.3003 132.684 29.1831 132.567C29.0658 132.45 29 132.291 29 132.125V130.25H24V132.125C24 132.291 23.9342 132.45 23.8169 132.567C23.6997 132.684 23.5408 132.75 23.375 132.75C23.2092 132.75 23.0503 132.684 22.9331 132.567C22.8158 132.45 22.75 132.291 22.75 132.125V130.25H20.875C20.7092 130.25 20.5503 130.184 20.4331 130.067C20.3158 129.95 20.25 129.791 20.25 129.625C20.25 129.459 20.3158 129.3 20.4331 129.183C20.5503 129.066 20.7092 129 20.875 129H22.75V124H20.875C20.7092 124 20.5503 123.934 20.4331 123.817C20.3158 123.7 20.25 123.541 20.25 123.375C20.25 123.209 20.3158 123.05 20.4331 122.933C20.5503 122.816 20.7092 122.75 20.875 122.75H22.75V120.875C22.75 120.709 22.8158 120.55 22.9331 120.433C23.0503 120.316 23.2092 120.25 23.375 120.25ZM29 129V124H24V129H29Z" fill="#44403C"/>
<path d="M46.021 131.5V121.7H52.069V123.072H47.533V125.9H51.705V127.272H47.533V131.5H46.021ZM53.5826 131.5V124.598H54.9966V125.41H55.2206C55.3326 125.121 55.5099 124.911 55.7526 124.78C56.0046 124.64 56.3126 124.57 56.6766 124.57H57.5026V125.872H56.6206C56.1539 125.872 55.7712 126.003 55.4726 126.264C55.1739 126.516 55.0246 126.908 55.0246 127.44V131.5H53.5826ZM60.9472 131.696C60.4525 131.696 60.0092 131.612 59.6172 131.444C59.2345 131.276 58.9265 131.029 58.6932 130.702C58.4692 130.375 58.3572 129.979 58.3572 129.512C58.3572 129.036 58.4692 128.644 58.6932 128.336C58.9265 128.019 59.2392 127.781 59.6312 127.622C60.0325 127.463 60.4852 127.384 60.9892 127.384H63.0892V126.936C63.0892 126.535 62.9679 126.213 62.7252 125.97C62.4825 125.727 62.1092 125.606 61.6052 125.606C61.1105 125.606 60.7325 125.723 60.4712 125.956C60.2099 126.189 60.0372 126.493 59.9532 126.866L58.6092 126.432C58.7212 126.059 58.8985 125.723 59.1412 125.424C59.3932 125.116 59.7245 124.869 60.1352 124.682C60.5459 124.495 61.0405 124.402 61.6192 124.402C62.5152 124.402 63.2199 124.631 63.7332 125.088C64.2465 125.545 64.5032 126.194 64.5032 127.034V129.876C64.5032 130.156 64.6339 130.296 64.8952 130.296H65.4832V131.5H64.4052C64.0785 131.5 63.8125 131.416 63.6072 131.248C63.4019 131.08 63.2992 130.851 63.2992 130.562V130.52H63.0892C63.0145 130.66 62.9025 130.823 62.7532 131.01C62.6039 131.197 62.3845 131.36 62.0952 131.5C61.8059 131.631 61.4232 131.696 60.9472 131.696ZM61.1572 130.506C61.7359 130.506 62.2025 130.343 62.5572 130.016C62.9119 129.68 63.0892 129.223 63.0892 128.644V128.504H61.0732C60.6905 128.504 60.3825 128.588 60.1492 128.756C59.9159 128.915 59.7992 129.153 59.7992 129.47C59.7992 129.787 59.9205 130.039 60.1632 130.226C60.4059 130.413 60.7372 130.506 61.1572 130.506ZM66.8853 131.5V124.598H68.2993V125.41H68.5233C68.654 125.167 68.864 124.953 69.1533 124.766C69.4426 124.579 69.8346 124.486 70.3293 124.486C70.8426 124.486 71.2533 124.593 71.5613 124.808C71.8786 125.013 72.1166 125.279 72.2753 125.606H72.4993C72.658 125.289 72.8866 125.023 73.1853 124.808C73.4933 124.593 73.9273 124.486 74.4873 124.486C74.9353 124.486 75.332 124.579 75.6773 124.766C76.0226 124.943 76.298 125.214 76.5033 125.578C76.7086 125.933 76.8113 126.376 76.8113 126.908V131.5H75.3693V127.02C75.3693 126.6 75.2526 126.278 75.0193 126.054C74.7953 125.821 74.4733 125.704 74.0533 125.704C73.6053 125.704 73.246 125.849 72.9753 126.138C72.7046 126.427 72.5693 126.843 72.5693 127.384V131.5H71.1273V127.02C71.1273 126.6 71.0106 126.278 70.7773 126.054C70.5533 125.821 70.2313 125.704 69.8113 125.704C69.3633 125.704 69.004 125.849 68.7333 126.138C68.4626 126.427 68.3273 126.843 68.3273 127.384V131.5H66.8853ZM82.0532 131.696C81.3532 131.696 80.7419 131.551 80.2192 131.262C79.6965 130.963 79.2859 130.548 78.9872 130.016C78.6979 129.475 78.5532 128.849 78.5532 128.14V127.972C78.5532 127.253 78.6979 126.628 78.9872 126.096C79.2765 125.555 79.6779 125.139 80.1912 124.85C80.7139 124.551 81.3159 124.402 81.9972 124.402C82.6599 124.402 83.2385 124.551 83.7332 124.85C84.2372 125.139 84.6292 125.545 84.9092 126.068C85.1892 126.591 85.3292 127.202 85.3292 127.902V128.448H80.0232C80.0419 129.055 80.2425 129.54 80.6252 129.904C81.0172 130.259 81.5025 130.436 82.0812 130.436C82.6225 130.436 83.0285 130.315 83.2992 130.072C83.5792 129.829 83.7939 129.549 83.9432 129.232L85.1332 129.848C85.0025 130.109 84.8112 130.385 84.5592 130.674C84.3165 130.963 83.9945 131.206 83.5932 131.402C83.1919 131.598 82.6785 131.696 82.0532 131.696ZM80.0372 127.342H83.8592C83.8219 126.819 83.6352 126.413 83.2992 126.124C82.9632 125.825 82.5245 125.676 81.9832 125.676C81.4419 125.676 80.9985 125.825 80.6532 126.124C80.3172 126.413 80.1119 126.819 80.0372 127.342Z" fill="#1C1917"/>
<rect x="0.5" y="144.5" width="186" height="36" stroke="#292524"/>
<path fill-rule="evenodd" clip-rule="evenodd" d="M31.375 156.25C31.5408 156.25 31.6997 156.316 31.8169 156.433C31.9342 156.55 32 156.709 32 156.875V158.75H37V156.875C37 156.709 37.0658 156.55 37.1831 156.433C37.3003 156.316 37.4592 156.25 37.625 156.25C37.7908 156.25 37.9497 156.316 38.0669 156.433C38.1842 156.55 38.25 156.709 38.25 156.875V158.75H40.125C40.2908 158.75 40.4497 158.816 40.5669 158.933C40.6842 159.05 40.75 159.209 40.75 159.375C40.75 159.541 40.6842 159.7 40.5669 159.817C40.4497 159.934 40.2908 160 40.125 160H38.25V165H40.125C40.2908 165 40.4497 165.066 40.5669 165.183C40.6842 165.3 40.75 165.459 40.75 165.625C40.75 165.791 40.6842 165.95 40.5669 166.067C40.4497 166.184 40.2908 166.25 40.125 166.25H38.25V168.125C38.25 168.291 38.1842 168.45 38.0669 168.567C37.9497 168.684 37.7908 168.75 37.625 168.75C37.4592 168.75 37.3003 168.684 37.1831 168.567C37.0658 168.45 37 168.291 37 168.125V166.25H32V168.125C32 168.291 31.9342 168.45 31.8169 168.567C31.6997 168.684 31.5408 168.75 31.375 168.75C31.2092 168.75 31.0503 168.684 30.9331 168.567C30.8158 168.45 30.75 168.291 30.75 168.125V166.25H28.875C28.7092 166.25 28.5503 166.184 28.4331 166.067C28.3158 165.95 28.25 165.791 28.25 165.625C28.25 165.459 28.3158 165.3 28.4331 165.183C28.5503 165.066 28.7092 165 28.875 165H30.75V160H28.875C28.7092 160 28.5503 159.934 28.4331 159.817C28.3158 159.7 28.25 159.541 28.25 159.375C28.25 159.209 28.3158 159.05 28.4331 158.933C28.5503 158.816 28.7092 158.75 28.875 158.75H30.75V156.875C30.75 156.709 30.8158 156.55 30.9331 156.433C31.0503 156.316 31.2092 156.25 31.375 156.25ZM37 165V160H32V165H37Z" fill="#44403C"/>
<path d="M54.021 167.5V157.7H60.069V159.072H55.533V161.9H59.705V163.272H55.533V167.5H54.021ZM61.5826 167.5V160.598H62.9966V161.41H63.2206C63.3326 161.121 63.5099 160.911 63.7526 160.78C64.0046 160.64 64.3126 160.57 64.6766 160.57H65.5026V161.872H64.6206C64.1539 161.872 63.7712 162.003 63.4726 162.264C63.1739 162.516 63.0246 162.908 63.0246 163.44V167.5H61.5826ZM68.9472 167.696C68.4525 167.696 68.0092 167.612 67.6172 167.444C67.2345 167.276 66.9265 167.029 66.6932 166.702C66.4692 166.375 66.3572 165.979 66.3572 165.512C66.3572 165.036 66.4692 164.644 66.6932 164.336C66.9265 164.019 67.2392 163.781 67.6312 163.622C68.0325 163.463 68.4852 163.384 68.9892 163.384H71.0892V162.936C71.0892 162.535 70.9679 162.213 70.7252 161.97C70.4825 161.727 70.1092 161.606 69.6052 161.606C69.1105 161.606 68.7325 161.723 68.4712 161.956C68.2099 162.189 68.0372 162.493 67.9532 162.866L66.6092 162.432C66.7212 162.059 66.8985 161.723 67.1412 161.424C67.3932 161.116 67.7245 160.869 68.1352 160.682C68.5459 160.495 69.0405 160.402 69.6192 160.402C70.5152 160.402 71.2199 160.631 71.7332 161.088C72.2465 161.545 72.5032 162.194 72.5032 163.034V165.876C72.5032 166.156 72.6339 166.296 72.8952 166.296H73.4832V167.5H72.4052C72.0785 167.5 71.8125 167.416 71.6072 167.248C71.4019 167.08 71.2992 166.851 71.2992 166.562V166.52H71.0892C71.0145 166.66 70.9025 166.823 70.7532 167.01C70.6039 167.197 70.3845 167.36 70.0952 167.5C69.8059 167.631 69.4232 167.696 68.9472 167.696ZM69.1572 166.506C69.7359 166.506 70.2025 166.343 70.5572 166.016C70.9119 165.68 71.0892 165.223 71.0892 164.644V164.504H69.0732C68.6905 164.504 68.3825 164.588 68.1492 164.756C67.9159 164.915 67.7992 165.153 67.7992 165.47C67.7992 165.787 67.9205 166.039 68.1632 166.226C68.4059 166.413 68.7372 166.506 69.1572 166.506ZM74.8853 167.5V160.598H76.2993V161.41H76.5233C76.654 161.167 76.864 160.953 77.1533 160.766C77.4426 160.579 77.8346 160.486 78.3293 160.486C78.8426 160.486 79.2533 160.593 79.5613 160.808C79.8786 161.013 80.1166 161.279 80.2753 161.606H80.4993C80.658 161.289 80.8866 161.023 81.1853 160.808C81.4933 160.593 81.9273 160.486 82.4873 160.486C82.9353 160.486 83.332 160.579 83.6773 160.766C84.0226 160.943 84.298 161.214 84.5033 161.578C84.7086 161.933 84.8113 162.376 84.8113 162.908V167.5H83.3693V163.02C83.3693 162.6 83.2526 162.278 83.0193 162.054C82.7953 161.821 82.4733 161.704 82.0533 161.704C81.6053 161.704 81.246 161.849 80.9753 162.138C80.7046 162.427 80.5693 162.843 80.5693 163.384V167.5H79.1273V163.02C79.1273 162.6 79.0106 162.278 78.7773 162.054C78.5533 161.821 78.2313 161.704 77.8113 161.704C77.3633 161.704 77.004 161.849 76.7333 162.138C76.4626 162.427 76.3273 162.843 76.3273 163.384V167.5H74.8853ZM90.0532 167.696C89.3532 167.696 88.7419 167.551 88.2192 167.262C87.6965 166.963 87.2859 166.548 86.9872 166.016C86.6979 165.475 86.5532 164.849 86.5532 164.14V163.972C86.5532 163.253 86.6979 162.628 86.9872 162.096C87.2765 161.555 87.6779 161.139 88.1912 160.85C88.7139 160.551 89.3159 160.402 89.9972 160.402C90.6599 160.402 91.2385 160.551 91.7332 160.85C92.2372 161.139 92.6292 161.545 92.9092 162.068C93.1892 162.591 93.3292 163.202 93.3292 163.902V164.448H88.0232C88.0419 165.055 88.2425 165.54 88.6252 165.904C89.0172 166.259 89.5025 166.436 90.0812 166.436C90.6225 166.436 91.0285 166.315 91.2992 166.072C91.5792 165.829 91.7939 165.549 91.9432 165.232L93.1332 165.848C93.0025 166.109 92.8112 166.385 92.5592 166.674C92.3165 166.963 91.9945 167.206 91.5932 167.402C91.1919 167.598 90.6785 167.696 90.0532 167.696ZM88.0372 163.342H91.8592C91.8219 162.819 91.6352 162.413 91.2992 162.124C90.9632 161.825 90.5245 161.676 89.9832 161.676C89.4419 161.676 88.9985 161.825 88.6532 162.124C88.3172 162.413 88.1119 162.819 88.0372 163.342Z" fill="#1C1917"/>
<rect x="0.5" y="180.5" width="186" height="36" stroke="#292524"/>
<path fill-rule="evenodd" clip-rule="evenodd" d="M31.375 192.25C31.5408 192.25 31.6997 192.316 31.8169 192.433C31.9342 192.55 32 192.709 32 192.875V194.75H37V192.875C37 192.709 37.0658 192.55 37.1831 192.433C37.3003 192.316 37.4592 192.25 37.625 192.25C37.7908 192.25 37.9497 192.316 38.0669 192.433C38.1842 192.55 38.25 192.709 38.25 192.875V194.75H40.125C40.2908 194.75 40.4497 194.816 40.5669 194.933C40.6842 195.05 40.75 195.209 40.75 195.375C40.75 195.541 40.6842 195.7 40.5669 195.817C40.4497 195.934 40.2908 196 40.125 196H38.25V201H40.125C40.2908 201 40.4497 201.066 40.5669 201.183C40.6842 201.3 40.75 201.459 40.75 201.625C40.75 201.791 40.6842 201.95 40.5669 202.067C40.4497 202.184 40.2908 202.25 40.125 202.25H38.25V204.125C38.25 204.291 38.1842 204.45 38.0669 204.567C37.9497 204.684 37.7908 204.75 37.625 204.75C37.4592 204.75 37.3003 204.684 37.1831 204.567C37.0658 204.45 37 204.291 37 204.125V202.25H32V204.125C32 204.291 31.9342 204.45 31.8169 204.567C31.6997 204.684 31.5408 204.75 31.375 204.75C31.2092 204.75 31.0503 204.684 30.9331 204.567C30.8158 204.45 30.75 204.291 30.75 204.125V202.25H28.875C28.7092 202.25 28.5503 202.184 28.4331 202.067C28.3158 201.95 28.25 201.791 28.25 201.625C28.25 201.459 28.3158 201.3 28.4331 201.183C28.5503 201.066 28.7092 201 28.875 201H30.75V196H28.875C28.7092 196 28.5503 195.934 28.4331 195.817C28.3158 195.7 28.25 195.541 28.25 195.375C28.25 195.209 28.3158 195.05 28.4331 194.933C28.5503 194.816 28.7092 194.75 28.875 194.75H30.75V192.875C30.75 192.709 30.8158 192.55 30.9331 192.433C31.0503 192.316 31.2092 192.25 31.375 192.25ZM37 201V196H32V201H37Z" fill="#44403C"/>
<path d="M54.021 203.5V193.7H60.069V195.072H55.533V197.9H59.705V199.272H55.533V203.5H54.021ZM61.5826 203.5V196.598H62.9966V197.41H63.2206C63.3326 197.121 63.5099 196.911 63.7526 196.78C64.0046 196.64 64.3126 196.57 64.6766 196.57H65.5026V197.872H64.6206C64.1539 197.872 63.7712 198.003 63.4726 198.264C63.1739 198.516 63.0246 198.908 63.0246 199.44V203.5H61.5826ZM68.9472 203.696C68.4525 203.696 68.0092 203.612 67.6172 203.444C67.2345 203.276 66.9265 203.029 66.6932 202.702C66.4692 202.375 66.3572 201.979 66.3572 201.512C66.3572 201.036 66.4692 200.644 66.6932 200.336C66.9265 200.019 67.2392 199.781 67.6312 199.622C68.0325 199.463 68.4852 199.384 68.9892 199.384H71.0892V198.936C71.0892 198.535 70.9679 198.213 70.7252 197.97C70.4825 197.727 70.1092 197.606 69.6052 197.606C69.1105 197.606 68.7325 197.723 68.4712 197.956C68.2099 198.189 68.0372 198.493 67.9532 198.866L66.6092 198.432C66.7212 198.059 66.8985 197.723 67.1412 197.424C67.3932 197.116 67.7245 196.869 68.1352 196.682C68.5459 196.495 69.0405 196.402 69.6192 196.402C70.5152 196.402 71.2199 196.631 71.7332 197.088C72.2465 197.545 72.5032 198.194 72.5032 199.034V201.876C72.5032 202.156 72.6339 202.296 72.8952 202.296H73.4832V203.5H72.4052C72.0785 203.5 71.8125 203.416 71.6072 203.248C71.4019 203.08 71.2992 202.851 71.2992 202.562V202.52H71.0892C71.0145 202.66 70.9025 202.823 70.7532 203.01C70.6039 203.197 70.3845 203.36 70.0952 203.5C69.8059 203.631 69.4232 203.696 68.9472 203.696ZM69.1572 202.506C69.7359 202.506 70.2025 202.343 70.5572 202.016C70.9119 201.68 71.0892 201.223 71.0892 200.644V200.504H69.0732C68.6905 200.504 68.3825 200.588 68.1492 200.756C67.9159 200.915 67.7992 201.153 67.7992 201.47C67.7992 201.787 67.9205 202.039 68.1632 202.226C68.4059 202.413 68.7372 202.506 69.1572 202.506ZM74.8853 203.5V196.598H76.2993V197.41H76.5233C76.654 197.167 76.864 196.953 77.1533 196.766C77.4426 196.579 77.8346 196.486 78.3293 196.486C78.8426 196.486 79.2533 196.593 79.5613 196.808C79.8786 197.013 80.1166 197.279 80.2753 197.606H80.4993C80.658 197.289 80.8866 197.023 81.1853 196.808C81.4933 196.593 81.9273 196.486 82.4873 196.486C82.9353 196.486 83.332 196.579 83.6773 196.766C84.0226 196.943 84.298 197.214 84.5033 197.578C84.7086 197.933 84.8113 198.376 84.8113 198.908V203.5H83.3693V199.02C83.3693 198.6 83.2526 198.278 83.0193 198.054C82.7953 197.821 82.4733 197.704 82.0533 197.704C81.6053 197.704 81.246 197.849 80.9753 198.138C80.7046 198.427 80.5693 198.843 80.5693 199.384V203.5H79.1273V199.02C79.1273 198.6 79.0106 198.278 78.7773 198.054C78.5533 197.821 78.2313 197.704 77.8113 197.704C77.3633 197.704 77.004 197.849 76.7333 198.138C76.4626 198.427 76.3273 198.843 76.3273 199.384V203.5H74.8853ZM90.0532 203.696C89.3532 203.696 88.7419 203.551 88.2192 203.262C87.6965 202.963 87.2859 202.548 86.9872 202.016C86.6979 201.475 86.5532 200.849 86.5532 200.14V199.972C86.5532 199.253 86.6979 198.628 86.9872 198.096C87.2765 197.555 87.6779 197.139 88.1912 196.85C88.7139 196.551 89.3159 196.402 89.9972 196.402C90.6599 196.402 91.2385 196.551 91.7332 196.85C92.2372 197.139 92.6292 197.545 92.9092 198.068C93.1892 198.591 93.3292 199.202 93.3292 199.902V200.448H88.0232C88.0419 201.055 88.2425 201.54 88.6252 201.904C89.0172 202.259 89.5025 202.436 90.0812 202.436C90.6225 202.436 91.0285 202.315 91.2992 202.072C91.5792 201.829 91.7939 201.549 91.9432 201.232L93.1332 201.848C93.0025 202.109 92.8112 202.385 92.5592 202.674C92.3165 202.963 91.9945 203.206 91.5932 203.402C91.1919 203.598 90.6785 203.696 90.0532 203.696ZM88.0372 199.342H91.8592C91.8219 198.819 91.6352 198.413 91.2992 198.124C90.9632 197.825 90.5245 197.676 89.9832 197.676C89.4419 197.676 88.9985 197.825 88.6532 198.124C88.3172 198.413 88.1119 198.819 88.0372 199.342Z" fill="#1C1917"/>
<rect x="218.5" y="0.5" width="186" height="36" fill="#FFFBEB"/>
<rect x="218.5" y="0.5" width="186" height="36" stroke="#292524"/>
<path fill-rule="evenodd" clip-rule="evenodd" d="M231.5 13.5H234V23.5H231.5V13.5ZM230.25 13.5C230.25 13.1685 230.382 12.8505 230.616 12.6161C230.851 12.3817 231.168 12.25 231.5 12.25H234C234.332 12.25 234.649 12.3817 234.884 12.6161C235.118 12.8505 235.25 13.1685 235.25 13.5V23.5C235.25 23.8315 235.118 24.1495 234.884 24.3839C234.649 24.6183 234.332 24.75 234 24.75H231.5C231.168 24.75 230.851 24.6183 230.616 24.3839C230.382 24.1495 230.25 23.8315 230.25 23.5V13.5ZM239 16H241.5V21H239V16ZM237.75 16C237.75 15.6685 237.882 15.3505 238.116 15.1161C238.351 14.8817 238.668 14.75 239 14.75H241.5C241.832 14.75 242.149 14.8817 242.384 15.1161C242.618 15.3505 242.75 15.6685 242.75 16V21C242.75 21.3315 242.618 21.6495 242.384 21.8839C242.149 22.1183 241.832 22.25 241.5 22.25H239C238.668 22.25 238.351 22.1183 238.116 21.8839C237.882 21.6495 237.75 21.3315 237.75 21V16Z" fill="#44403C"/>
<path d="M262.023 21.68L256.143 19.51V17.69L262.023 15.52V16.962L257.571 18.488V18.712L262.023 20.238V21.68ZM268.479 23.696C267.807 23.696 267.289 23.5747 266.925 23.332C266.57 23.0893 266.304 22.8187 266.127 22.52H265.903V23.5H264.489V13.7H265.931V17.536H266.155C266.267 17.3493 266.416 17.172 266.603 17.004C266.789 16.8267 267.037 16.682 267.345 16.57C267.653 16.458 268.031 16.402 268.479 16.402C269.057 16.402 269.589 16.542 270.075 16.822C270.56 17.102 270.947 17.508 271.237 18.04C271.526 18.572 271.671 19.2067 271.671 19.944V20.154C271.671 20.9007 271.521 21.54 271.223 22.072C270.933 22.5947 270.546 22.996 270.061 23.276C269.585 23.556 269.057 23.696 268.479 23.696ZM268.059 22.436C268.684 22.436 269.197 22.2353 269.599 21.834C270.009 21.4327 270.215 20.8587 270.215 20.112V19.986C270.215 19.2487 270.014 18.6793 269.613 18.278C269.211 17.8767 268.693 17.676 268.059 17.676C267.443 17.676 266.929 17.8767 266.519 18.278C266.117 18.6793 265.917 19.2487 265.917 19.986V20.112C265.917 20.8587 266.117 21.4327 266.519 21.834C266.929 22.2353 267.443 22.436 268.059 22.436ZM276.692 23.696C276.001 23.696 275.385 23.556 274.844 23.276C274.312 22.9867 273.892 22.576 273.584 22.044C273.276 21.512 273.122 20.882 273.122 20.154V19.944C273.122 19.216 273.276 18.5907 273.584 18.068C273.892 17.536 274.312 17.1253 274.844 16.836C275.385 16.5467 276.001 16.402 276.692 16.402C277.382 16.402 277.998 16.5467 278.54 16.836C279.081 17.1253 279.506 17.536 279.814 18.068C280.122 18.5907 280.276 19.216 280.276 19.944V20.154C280.276 20.882 280.122 21.512 279.814 22.044C279.506 22.576 279.081 22.9867 278.54 23.276C277.998 23.556 277.382 23.696 276.692 23.696ZM276.692 22.408C277.326 22.408 277.84 22.2073 278.232 21.806C278.633 21.3953 278.834 20.8307 278.834 20.112V19.986C278.834 19.2673 278.638 18.7073 278.246 18.306C277.854 17.8953 277.336 17.69 276.692 17.69C276.066 17.69 275.553 17.8953 275.152 18.306C274.76 18.7073 274.564 19.2673 274.564 19.986V20.112C274.564 20.8307 274.76 21.3953 275.152 21.806C275.553 22.2073 276.066 22.408 276.692 22.408ZM284.927 23.696C284.358 23.696 283.83 23.556 283.345 23.276C282.86 22.996 282.468 22.5947 282.169 22.072C281.88 21.54 281.735 20.9007 281.735 20.154V19.944C281.735 19.2067 281.88 18.572 282.169 18.04C282.458 17.508 282.846 17.102 283.331 16.822C283.816 16.542 284.348 16.402 284.927 16.402C285.375 16.402 285.748 16.458 286.047 16.57C286.355 16.682 286.607 16.8267 286.803 17.004C286.999 17.172 287.148 17.3493 287.251 17.536H287.475V13.7H288.917V23.5H287.503V22.52H287.279C287.102 22.8187 286.831 23.0893 286.467 23.332C286.112 23.5747 285.599 23.696 284.927 23.696ZM285.333 22.436C285.958 22.436 286.472 22.2353 286.873 21.834C287.284 21.4327 287.489 20.8587 287.489 20.112V19.986C287.489 19.2487 287.288 18.6793 286.887 18.278C286.486 17.8767 285.968 17.676 285.333 17.676C284.717 17.676 284.204 17.8767 283.793 18.278C283.392 18.6793 283.191 19.2487 283.191 19.986V20.112C283.191 20.8587 283.392 21.4327 283.793 21.834C284.204 22.2353 284.717 22.436 285.333 22.436ZM291.838 26.3V25.04H295.688C295.949 25.04 296.08 24.9 296.08 24.62V22.492H295.856C295.772 22.6787 295.641 22.8607 295.464 23.038C295.296 23.206 295.067 23.346 294.778 23.458C294.488 23.57 294.124 23.626 293.686 23.626C293.163 23.626 292.696 23.5093 292.286 23.276C291.875 23.0427 291.553 22.7113 291.32 22.282C291.086 21.8527 290.97 21.344 290.97 20.756V16.598H292.412V20.644C292.412 21.2413 292.561 21.6847 292.86 21.974C293.158 22.254 293.574 22.394 294.106 22.394C294.694 22.394 295.165 22.198 295.52 21.806C295.884 21.414 296.066 20.8447 296.066 20.098V16.598H297.508V24.914C297.508 25.334 297.382 25.67 297.13 25.922C296.887 26.174 296.551 26.3 296.122 26.3H291.838ZM299.975 21.68V20.238L304.441 18.712V18.488L299.975 16.962V15.52L305.855 17.69V19.51L299.975 21.68Z" fill="#1C1917"/>
<rect x="218.5" y="36.5" width="186" height="36" fill="#FFFBEB"/>
<rect x="218.5" y="36.5" width="186" height="36" stroke="#292524"/>
<path fill-rule="evenodd" clip-rule="evenodd" d="M239.5 49.5H242V59.5H239.5V49.5ZM238.25 49.5C238.25 49.1685 238.382 48.8505 238.616 48.6161C238.851 48.3817 239.168 48.25 239.5 48.25H242C242.332 48.25 242.649 48.3817 242.884 48.6161C243.118 48.8505 243.25 49.1685 243.25 49.5V59.5C243.25 59.8315 243.118 60.1495 242.884 60.3839C242.649 60.6183 242.332 60.75 242 60.75H239.5C239.168 60.75 238.851 60.6183 238.616 60.3839C238.382 60.1495 238.25 59.8315 238.25 59.5V49.5ZM247 52H249.5V57H247V52ZM245.75 52C245.75 51.6685 245.882 51.3505 246.116 51.1161C246.351 50.8817 246.668 50.75 247 50.75H249.5C249.832 50.75 250.149 50.8817 250.384 51.1161C250.618 51.3505 250.75 51.6685 250.75 52V57C250.75 57.3315 250.618 57.6495 250.384 57.8839C250.149 58.1183 249.832 58.25 249.5 58.25H247C246.668 58.25 246.351 58.1183 246.116 57.8839C245.882 57.6495 245.75 57.3315 245.75 57V52Z" fill="#44403C"/>
<path d="M269.967 57.68L264.087 55.51V53.69L269.967 51.52V52.962L265.515 54.488V54.712L269.967 56.238V57.68ZM272.432 59.5V49.7H273.874V53.578H274.098C274.191 53.4007 274.322 53.228 274.49 53.06C274.667 52.892 274.896 52.7567 275.176 52.654C275.465 52.542 275.829 52.486 276.268 52.486C276.791 52.486 277.253 52.6027 277.654 52.836C278.065 53.0693 278.387 53.4007 278.62 53.83C278.853 54.25 278.97 54.7587 278.97 55.356V59.5H277.528V55.468C277.528 54.8707 277.379 54.432 277.08 54.152C276.781 53.8627 276.371 53.718 275.848 53.718C275.251 53.718 274.77 53.914 274.406 54.306C274.051 54.698 273.874 55.2673 273.874 56.014V59.5H272.432ZM284.209 59.696C283.509 59.696 282.898 59.5513 282.375 59.262C281.853 58.9633 281.442 58.548 281.143 58.016C280.854 57.4747 280.709 56.8493 280.709 56.14V55.972C280.709 55.2533 280.854 54.628 281.143 54.096C281.433 53.5547 281.834 53.1393 282.347 52.85C282.87 52.5513 283.472 52.402 284.153 52.402C284.816 52.402 285.395 52.5513 285.889 52.85C286.393 53.1393 286.785 53.5453 287.065 54.068C287.345 54.5907 287.485 55.202 287.485 55.902V56.448H282.179C282.198 57.0547 282.399 57.54 282.781 57.904C283.173 58.2587 283.659 58.436 284.237 58.436C284.779 58.436 285.185 58.3147 285.455 58.072C285.735 57.8293 285.95 57.5493 286.099 57.232L287.289 57.848C287.159 58.1093 286.967 58.3847 286.715 58.674C286.473 58.9633 286.151 59.206 285.749 59.402C285.348 59.598 284.835 59.696 284.209 59.696ZM282.193 55.342H286.015C285.978 54.8193 285.791 54.4133 285.455 54.124C285.119 53.8253 284.681 53.676 284.139 53.676C283.598 53.676 283.155 53.8253 282.809 54.124C282.473 54.4133 282.268 54.8193 282.193 55.342ZM291.363 59.696C290.869 59.696 290.425 59.612 290.033 59.444C289.651 59.276 289.343 59.0287 289.109 58.702C288.885 58.3753 288.773 57.9787 288.773 57.512C288.773 57.036 288.885 56.644 289.109 56.336C289.343 56.0187 289.655 55.7807 290.047 55.622C290.449 55.4633 290.901 55.384 291.405 55.384H293.505V54.936C293.505 54.5347 293.384 54.2127 293.141 53.97C292.899 53.7273 292.525 53.606 292.021 53.606C291.527 53.606 291.149 53.7227 290.887 53.956C290.626 54.1893 290.453 54.4927 290.369 54.866L289.025 54.432C289.137 54.0587 289.315 53.7227 289.557 53.424C289.809 53.116 290.141 52.8687 290.551 52.682C290.962 52.4953 291.457 52.402 292.035 52.402C292.931 52.402 293.636 52.6307 294.149 53.088C294.663 53.5453 294.919 54.194 294.919 55.034V57.876C294.919 58.156 295.05 58.296 295.311 58.296H295.899V59.5H294.821C294.495 59.5 294.229 59.416 294.023 59.248C293.818 59.08 293.715 58.8513 293.715 58.562V58.52H293.505C293.431 58.66 293.319 58.8233 293.169 59.01C293.02 59.1967 292.801 59.36 292.511 59.5C292.222 59.6307 291.839 59.696 291.363 59.696ZM291.573 58.506C292.152 58.506 292.619 58.3427 292.973 58.016C293.328 57.68 293.505 57.2227 293.505 56.644V56.504H291.489C291.107 56.504 290.799 56.588 290.565 56.756C290.332 56.9147 290.215 57.1527 290.215 57.47C290.215 57.7873 290.337 58.0393 290.579 58.226C290.822 58.4127 291.153 58.506 291.573 58.506ZM299.993 59.696C299.424 59.696 298.897 59.556 298.411 59.276C297.926 58.996 297.534 58.5947 297.235 58.072C296.946 57.54 296.801 56.9007 296.801 56.154V55.944C296.801 55.2067 296.946 54.572 297.235 54.04C297.525 53.508 297.912 53.102 298.397 52.822C298.883 52.542 299.415 52.402 299.993 52.402C300.441 52.402 300.815 52.458 301.113 52.57C301.421 52.682 301.673 52.8267 301.869 53.004C302.065 53.172 302.215 53.3493 302.317 53.536H302.541V49.7H303.983V59.5H302.569V58.52H302.345C302.168 58.8187 301.897 59.0893 301.533 59.332C301.179 59.5747 300.665 59.696 299.993 59.696ZM300.399 58.436C301.025 58.436 301.538 58.2353 301.939 57.834C302.35 57.4327 302.555 56.8587 302.555 56.112V55.986C302.555 55.2487 302.355 54.6793 301.953 54.278C301.552 53.8767 301.034 53.676 300.399 53.676C299.783 53.676 299.27 53.8767 298.859 54.278C298.458 54.6793 298.257 55.2487 298.257 55.986V56.112C298.257 56.8587 298.458 57.4327 298.859 57.834C299.27 58.2353 299.783 58.436 300.399 58.436ZM309.27 59.696C308.57 59.696 307.959 59.5513 307.436 59.262C306.913 58.9633 306.503 58.548 306.204 58.016C305.915 57.4747 305.77 56.8493 305.77 56.14V55.972C305.77 55.2533 305.915 54.628 306.204 54.096C306.493 53.5547 306.895 53.1393 307.408 52.85C307.931 52.5513 308.533 52.402 309.214 52.402C309.877 52.402 310.455 52.5513 310.95 52.85C311.454 53.1393 311.846 53.5453 312.126 54.068C312.406 54.5907 312.546 55.202 312.546 55.902V56.448H307.24C307.259 57.0547 307.459 57.54 307.842 57.904C308.234 58.2587 308.719 58.436 309.298 58.436C309.839 58.436 310.245 58.3147 310.516 58.072C310.796 57.8293 311.011 57.5493 311.16 57.232L312.35 57.848C312.219 58.1093 312.028 58.3847 311.776 58.674C311.533 58.9633 311.211 59.206 310.81 59.402C310.409 59.598 309.895 59.696 309.27 59.696ZM307.254 55.342H311.076C311.039 54.8193 310.852 54.4133 310.516 54.124C310.18 53.8253 309.741 53.676 309.2 53.676C308.659 53.676 308.215 53.8253 307.87 54.124C307.534 54.4133 307.329 54.8193 307.254 55.342ZM314.282 59.5V52.598H315.696V53.41H315.92C316.032 53.1207 316.209 52.9107 316.452 52.78C316.704 52.64 317.012 52.57 317.376 52.57H318.202V53.872H317.32C316.853 53.872 316.47 54.0027 316.172 54.264C315.873 54.516 315.724 54.908 315.724 55.44V59.5H314.282ZM320.032 57.68V56.238L324.498 54.712V54.488L320.032 52.962V51.52L325.912 53.69V55.51L320.032 57.68Z" fill="#1C1917"/>
<rect x="218.5" y="72.5" width="186" height="36" fill="#FFFBEB"/>
<rect x="218.5" y="72.5" width="186" height="36" stroke="#292524"/>
<path fill-rule="evenodd" clip-rule="evenodd" d="M247.5 85.5H250V95.5H247.5V85.5ZM246.25 85.5C246.25 85.1685 246.382 84.8505 246.616 84.6161C246.851 84.3817 247.168 84.25 247.5 84.25H250C250.332 84.25 250.649 84.3817 250.884 84.6161C251.118 84.8505 251.25 85.1685 251.25 85.5V95.5C251.25 95.8315 251.118 96.1495 250.884 96.3839C250.649 96.6183 250.332 96.75 250 96.75H247.5C247.168 96.75 246.851 96.6183 246.616 96.3839C246.382 96.1495 246.25 95.8315 246.25 95.5V85.5ZM255 88H257.5V93H255V88ZM253.75 88C253.75 87.6685 253.882 87.3505 254.116 87.1161C254.351 86.8817 254.668 86.75 255 86.75H257.5C257.832 86.75 258.149 86.8817 258.384 87.1161C258.618 87.3505 258.75 87.6685 258.75 88V93C258.75 93.3315 258.618 93.6495 258.384 93.8839C258.149 94.1183 257.832 94.25 257.5 94.25H255C254.668 94.25 254.351 94.1183 254.116 93.8839C253.882 93.6495 253.75 93.3315 253.75 93V88Z" fill="#44403C"/>
<path d="M278.135 93.68L272.255 91.51V89.69L278.135 87.52V88.962L273.683 90.488V90.712L278.135 92.238V93.68ZM280.601 95.5V88.598H282.015V89.634H282.239C282.37 89.354 282.603 89.0927 282.939 88.85C283.275 88.6073 283.774 88.486 284.437 88.486C284.96 88.486 285.422 88.6027 285.823 88.836C286.234 89.0693 286.556 89.4007 286.789 89.83C287.022 90.25 287.139 90.7587 287.139 91.356V95.5H285.697V91.468C285.697 90.8707 285.548 90.432 285.249 90.152C284.95 89.8627 284.54 89.718 284.017 89.718C283.42 89.718 282.939 89.914 282.575 90.306C282.22 90.698 282.043 91.2673 282.043 92.014V95.5H280.601ZM291.356 95.696C290.862 95.696 290.418 95.612 290.026 95.444C289.644 95.276 289.336 95.0287 289.102 94.702C288.878 94.3753 288.766 93.9787 288.766 93.512C288.766 93.036 288.878 92.644 289.102 92.336C289.336 92.0187 289.648 91.7807 290.04 91.622C290.442 91.4633 290.894 91.384 291.398 91.384H293.498V90.936C293.498 90.5347 293.377 90.2127 293.134 89.97C292.892 89.7273 292.518 89.606 292.014 89.606C291.52 89.606 291.142 89.7227 290.88 89.956C290.619 90.1893 290.446 90.4927 290.362 90.866L289.018 90.432C289.13 90.0587 289.308 89.7227 289.55 89.424C289.802 89.116 290.134 88.8687 290.544 88.682C290.955 88.4953 291.45 88.402 292.028 88.402C292.924 88.402 293.629 88.6307 294.142 89.088C294.656 89.5453 294.912 90.194 294.912 91.034V93.876C294.912 94.156 295.043 94.296 295.304 94.296H295.892V95.5H294.814C294.488 95.5 294.222 95.416 294.016 95.248C293.811 95.08 293.708 94.8513 293.708 94.562V94.52H293.498C293.424 94.66 293.312 94.8233 293.162 95.01C293.013 95.1967 292.794 95.36 292.504 95.5C292.215 95.6307 291.832 95.696 291.356 95.696ZM291.566 94.506C292.145 94.506 292.612 94.3427 292.966 94.016C293.321 93.68 293.498 93.2227 293.498 92.644V92.504H291.482C291.1 92.504 290.792 92.588 290.558 92.756C290.325 92.9147 290.208 93.1527 290.208 93.47C290.208 93.7873 290.33 94.0393 290.572 94.226C290.815 94.4127 291.146 94.506 291.566 94.506ZM298.508 95.5L296.184 88.598H297.71L299.544 94.436H299.768L301.602 88.598H303.128L300.804 95.5H298.508ZM304.863 93.68V92.238L309.329 90.712V90.488L304.863 88.962V87.52L310.743 89.69V91.51L304.863 93.68Z" fill="#1C1917"/>
<rect x="218.5" y="108.5" width="186" height="36" fill="#FFFBEB"/>
<rect x="218.5" y="108.5" width="186" height="36" stroke="#292524"/>
<path fill-rule="evenodd" clip-rule="evenodd" d="M239.5 121.5V124H249.5V121.5H239.5ZM239.5 120.25C239.168 120.25 238.851 120.382 238.616 120.616C238.382 120.851 238.25 121.168 238.25 121.5V124C238.25 124.332 238.382 124.649 238.616 124.884C238.851 125.118 239.168 125.25 239.5 125.25H249.5C249.832 125.25 250.149 125.118 250.384 124.884C250.618 124.649 250.75 124.332 250.75 124V121.5C250.75 121.168 250.618 120.851 250.384 120.616C250.149 120.382 249.832 120.25 249.5 120.25H239.5ZM239.5 129V131.5H244.5V129H239.5ZM239.5 127.75C239.168 127.75 238.851 127.882 238.616 128.116C238.382 128.351 238.25 128.668 238.25 129V131.5C238.25 131.832 238.382 132.149 238.616 132.384C238.851 132.618 239.168 132.75 239.5 132.75H244.5C244.832 132.75 245.149 132.618 245.384 132.384C245.618 132.149 245.75 131.832 245.75 131.5V129C245.75 128.668 245.618 128.351 245.384 128.116C245.149 127.882 244.832 127.75 244.5 127.75H239.5Z" fill="#44403C"/>
<path d="M270.21 129.68L264.33 127.51V125.69L270.21 123.52V124.962L265.758 126.488V126.712L270.21 128.238V129.68ZM275.503 131.696C274.626 131.696 273.898 131.5 273.319 131.108C272.741 130.716 272.386 130.123 272.255 129.33L273.599 129.008C273.674 129.391 273.8 129.694 273.977 129.918C274.155 130.142 274.374 130.301 274.635 130.394C274.906 130.487 275.195 130.534 275.503 130.534C275.961 130.534 276.311 130.445 276.553 130.268C276.805 130.091 276.931 129.862 276.931 129.582C276.931 129.302 276.815 129.097 276.581 128.966C276.348 128.835 276.003 128.728 275.545 128.644L275.069 128.56C274.603 128.476 274.178 128.355 273.795 128.196C273.413 128.037 273.109 127.818 272.885 127.538C272.661 127.258 272.549 126.899 272.549 126.46C272.549 125.807 272.792 125.303 273.277 124.948C273.763 124.584 274.407 124.402 275.209 124.402C275.984 124.402 276.619 124.579 277.113 124.934C277.617 125.279 277.944 125.751 278.093 126.348L276.749 126.726C276.665 126.306 276.488 126.012 276.217 125.844C275.947 125.667 275.611 125.578 275.209 125.578C274.817 125.578 274.509 125.653 274.285 125.802C274.061 125.942 273.949 126.143 273.949 126.404C273.949 126.684 274.057 126.889 274.271 127.02C274.495 127.151 274.794 127.249 275.167 127.314L275.657 127.398C276.152 127.482 276.605 127.599 277.015 127.748C277.426 127.897 277.748 128.112 277.981 128.392C278.224 128.672 278.345 129.045 278.345 129.512C278.345 130.203 278.089 130.739 277.575 131.122C277.062 131.505 276.371 131.696 275.503 131.696ZM283.195 131.696C282.495 131.696 281.883 131.551 281.361 131.262C280.838 130.963 280.427 130.548 280.129 130.016C279.839 129.475 279.695 128.849 279.695 128.14V127.972C279.695 127.253 279.839 126.628 280.129 126.096C280.418 125.555 280.819 125.139 281.333 124.85C281.855 124.551 282.457 124.402 283.139 124.402C283.801 124.402 284.38 124.551 284.875 124.85C285.379 125.139 285.771 125.545 286.051 126.068C286.331 126.591 286.471 127.202 286.471 127.902V128.448H281.165C281.183 129.055 281.384 129.54 281.767 129.904C282.159 130.259 282.644 130.436 283.223 130.436C283.764 130.436 284.17 130.315 284.441 130.072C284.721 129.829 284.935 129.549 285.085 129.232L286.275 129.848C286.144 130.109 285.953 130.385 285.701 130.674C285.458 130.963 285.136 131.206 284.735 131.402C284.333 131.598 283.82 131.696 283.195 131.696ZM281.179 127.342H285.001C284.963 126.819 284.777 126.413 284.441 126.124C284.105 125.825 283.666 125.676 283.125 125.676C282.583 125.676 282.14 125.825 281.795 126.124C281.459 126.413 281.253 126.819 281.179 127.342ZM291.413 131.696C290.75 131.696 290.148 131.556 289.607 131.276C289.075 130.996 288.65 130.59 288.333 130.058C288.025 129.526 287.871 128.887 287.871 128.14V127.958C287.871 127.211 288.025 126.577 288.333 126.054C288.65 125.522 289.075 125.116 289.607 124.836C290.148 124.547 290.75 124.402 291.413 124.402C292.075 124.402 292.64 124.523 293.107 124.766C293.573 125.009 293.947 125.331 294.227 125.732C294.516 126.133 294.703 126.577 294.787 127.062L293.387 127.356C293.34 127.048 293.242 126.768 293.093 126.516C292.943 126.264 292.733 126.063 292.463 125.914C292.192 125.765 291.851 125.69 291.441 125.69C291.039 125.69 290.675 125.783 290.349 125.97C290.031 126.147 289.779 126.409 289.593 126.754C289.406 127.09 289.313 127.501 289.313 127.986V128.112C289.313 128.597 289.406 129.013 289.593 129.358C289.779 129.703 290.031 129.965 290.349 130.142C290.675 130.319 291.039 130.408 291.441 130.408C292.047 130.408 292.509 130.254 292.827 129.946C293.144 129.629 293.345 129.227 293.429 128.742L294.829 129.064C294.717 129.54 294.516 129.979 294.227 130.38C293.947 130.781 293.573 131.103 293.107 131.346C292.64 131.579 292.075 131.696 291.413 131.696ZM298.822 131.5C298.402 131.5 298.066 131.374 297.814 131.122C297.571 130.87 297.45 130.534 297.45 130.114V125.816H295.546V124.598H297.45V122.316H298.892V124.598H300.95V125.816H298.892V129.862C298.892 130.142 299.023 130.282 299.284 130.282H300.726V131.5H298.822ZM302.644 131.5V124.598H304.086V131.5H302.644ZM303.372 123.66C303.092 123.66 302.854 123.571 302.658 123.394C302.471 123.207 302.378 122.969 302.378 122.68C302.378 122.391 302.471 122.157 302.658 121.98C302.854 121.793 303.092 121.7 303.372 121.7C303.661 121.7 303.899 121.793 304.086 121.98C304.273 122.157 304.366 122.391 304.366 122.68C304.366 122.969 304.273 123.207 304.086 123.394C303.899 123.571 303.661 123.66 303.372 123.66ZM309.46 131.696C308.769 131.696 308.153 131.556 307.612 131.276C307.08 130.987 306.66 130.576 306.352 130.044C306.044 129.512 305.89 128.882 305.89 128.154V127.944C305.89 127.216 306.044 126.591 306.352 126.068C306.66 125.536 307.08 125.125 307.612 124.836C308.153 124.547 308.769 124.402 309.46 124.402C310.151 124.402 310.767 124.547 311.308 124.836C311.849 125.125 312.274 125.536 312.582 126.068C312.89 126.591 313.044 127.216 313.044 127.944V128.154C313.044 128.882 312.89 129.512 312.582 130.044C312.274 130.576 311.849 130.987 311.308 131.276C310.767 131.556 310.151 131.696 309.46 131.696ZM309.46 130.408C310.095 130.408 310.608 130.207 311 129.806C311.401 129.395 311.602 128.831 311.602 128.112V127.986C311.602 127.267 311.406 126.707 311.014 126.306C310.622 125.895 310.104 125.69 309.46 125.69C308.835 125.69 308.321 125.895 307.92 126.306C307.528 126.707 307.332 127.267 307.332 127.986V128.112C307.332 128.831 307.528 129.395 307.92 129.806C308.321 130.207 308.835 130.408 309.46 130.408ZM314.839 131.5V124.598H316.253V125.634H316.477C316.608 125.354 316.841 125.093 317.177 124.85C317.513 124.607 318.013 124.486 318.675 124.486C319.198 124.486 319.66 124.603 320.061 124.836C320.472 125.069 320.794 125.401 321.027 125.83C321.261 126.25 321.377 126.759 321.377 127.356V131.5H319.935V127.468C319.935 126.871 319.786 126.432 319.487 126.152C319.189 125.863 318.778 125.718 318.255 125.718C317.658 125.718 317.177 125.914 316.813 126.306C316.459 126.698 316.281 127.267 316.281 128.014V131.5H314.839ZM323.789 129.68V128.238L328.255 126.712V126.488L323.789 124.962V123.52L329.669 125.69V127.51L323.789 129.68Z" fill="#1C1917"/>
<rect x="218.5" y="144.5" width="186" height="36" fill="#FFFBEB"/>
<rect x="218.5" y="144.5" width="186" height="36" stroke="#292524"/>
<path fill-rule="evenodd" clip-rule="evenodd" d="M247.5 157.5H250V167.5H247.5V157.5ZM246.25 157.5C246.25 157.168 246.382 156.851 246.616 156.616C246.851 156.382 247.168 156.25 247.5 156.25H250C250.332 156.25 250.649 156.382 250.884 156.616C251.118 156.851 251.25 157.168 251.25 157.5V167.5C251.25 167.832 251.118 168.149 250.884 168.384C250.649 168.618 250.332 168.75 250 168.75H247.5C247.168 168.75 246.851 168.618 246.616 168.384C246.382 168.149 246.25 167.832 246.25 167.5V157.5ZM255 160H257.5V165H255V160ZM253.75 160C253.75 159.668 253.882 159.351 254.116 159.116C254.351 158.882 254.668 158.75 255 158.75H257.5C257.832 158.75 258.149 158.882 258.384 159.116C258.618 159.351 258.75 159.668 258.75 160V165C258.75 165.332 258.618 165.649 258.384 165.884C258.149 166.118 257.832 166.25 257.5 166.25H255C254.668 166.25 254.351 166.118 254.116 165.884C253.882 165.649 253.75 165.332 253.75 165V160Z" fill="#44403C"/>
<path d="M277.833 165.68L271.953 163.51V161.69L277.833 159.52V160.962L273.381 162.488V162.712L277.833 164.238V165.68ZM282.44 167.696C281.946 167.696 281.502 167.612 281.11 167.444C280.728 167.276 280.42 167.029 280.186 166.702C279.962 166.375 279.85 165.979 279.85 165.512C279.85 165.036 279.962 164.644 280.186 164.336C280.42 164.019 280.732 163.781 281.124 163.622C281.526 163.463 281.978 163.384 282.482 163.384H284.582V162.936C284.582 162.535 284.461 162.213 284.218 161.97C283.976 161.727 283.602 161.606 283.098 161.606C282.604 161.606 282.226 161.723 281.964 161.956C281.703 162.189 281.53 162.493 281.446 162.866L280.102 162.432C280.214 162.059 280.392 161.723 280.634 161.424C280.886 161.116 281.218 160.869 281.628 160.682C282.039 160.495 282.534 160.402 283.112 160.402C284.008 160.402 284.713 160.631 285.226 161.088C285.74 161.545 285.996 162.194 285.996 163.034V165.876C285.996 166.156 286.127 166.296 286.388 166.296H286.976V167.5H285.898C285.572 167.5 285.306 167.416 285.1 167.248C284.895 167.08 284.792 166.851 284.792 166.562V166.52H284.582C284.508 166.66 284.396 166.823 284.246 167.01C284.097 167.197 283.878 167.36 283.588 167.5C283.299 167.631 282.916 167.696 282.44 167.696ZM282.65 166.506C283.229 166.506 283.696 166.343 284.05 166.016C284.405 165.68 284.582 165.223 284.582 164.644V164.504H282.566C282.184 164.504 281.876 164.588 281.642 164.756C281.409 164.915 281.292 165.153 281.292 165.47C281.292 165.787 281.414 166.039 281.656 166.226C281.899 166.413 282.23 166.506 282.65 166.506ZM288.378 167.5V160.598H289.792V161.41H290.016C290.128 161.121 290.306 160.911 290.548 160.78C290.8 160.64 291.108 160.57 291.472 160.57H292.298V161.872H291.416C290.95 161.872 290.567 162.003 290.268 162.264C289.97 162.516 289.82 162.908 289.82 163.44V167.5H288.378ZM296.383 167.5C295.963 167.5 295.627 167.374 295.375 167.122C295.132 166.87 295.011 166.534 295.011 166.114V161.816H293.107V160.598H295.011V158.316H296.453V160.598H298.511V161.816H296.453V165.862C296.453 166.142 296.583 166.282 296.845 166.282H298.287V167.5H296.383ZM300.205 167.5V160.598H301.647V167.5H300.205ZM300.933 159.66C300.653 159.66 300.415 159.571 300.219 159.394C300.032 159.207 299.939 158.969 299.939 158.68C299.939 158.391 300.032 158.157 300.219 157.98C300.415 157.793 300.653 157.7 300.933 157.7C301.222 157.7 301.46 157.793 301.647 157.98C301.833 158.157 301.927 158.391 301.927 158.68C301.927 158.969 301.833 159.207 301.647 159.394C301.46 159.571 301.222 159.66 300.933 159.66ZM306.993 167.696C306.33 167.696 305.728 167.556 305.187 167.276C304.655 166.996 304.23 166.59 303.913 166.058C303.605 165.526 303.451 164.887 303.451 164.14V163.958C303.451 163.211 303.605 162.577 303.913 162.054C304.23 161.522 304.655 161.116 305.187 160.836C305.728 160.547 306.33 160.402 306.993 160.402C307.655 160.402 308.22 160.523 308.687 160.766C309.153 161.009 309.527 161.331 309.807 161.732C310.096 162.133 310.283 162.577 310.367 163.062L308.967 163.356C308.92 163.048 308.822 162.768 308.673 162.516C308.523 162.264 308.313 162.063 308.043 161.914C307.772 161.765 307.431 161.69 307.021 161.69C306.619 161.69 306.255 161.783 305.929 161.97C305.611 162.147 305.359 162.409 305.173 162.754C304.986 163.09 304.893 163.501 304.893 163.986V164.112C304.893 164.597 304.986 165.013 305.173 165.358C305.359 165.703 305.611 165.965 305.929 166.142C306.255 166.319 306.619 166.408 307.021 166.408C307.627 166.408 308.089 166.254 308.407 165.946C308.724 165.629 308.925 165.227 309.009 164.742L310.409 165.064C310.297 165.54 310.096 165.979 309.807 166.38C309.527 166.781 309.153 167.103 308.687 167.346C308.22 167.579 307.655 167.696 306.993 167.696ZM312.072 167.5V157.7H313.514V167.5H312.072ZM318.818 167.696C318.118 167.696 317.507 167.551 316.984 167.262C316.461 166.963 316.051 166.548 315.752 166.016C315.463 165.475 315.318 164.849 315.318 164.14V163.972C315.318 163.253 315.463 162.628 315.752 162.096C316.041 161.555 316.443 161.139 316.956 160.85C317.479 160.551 318.081 160.402 318.762 160.402C319.425 160.402 320.003 160.551 320.498 160.85C321.002 161.139 321.394 161.545 321.674 162.068C321.954 162.591 322.094 163.202 322.094 163.902V164.448H316.788C316.807 165.055 317.007 165.54 317.39 165.904C317.782 166.259 318.267 166.436 318.846 166.436C319.387 166.436 319.793 166.315 320.064 166.072C320.344 165.829 320.559 165.549 320.708 165.232L321.898 165.848C321.767 166.109 321.576 166.385 321.324 166.674C321.081 166.963 320.759 167.206 320.358 167.402C319.957 167.598 319.443 167.696 318.818 167.696ZM316.802 163.342H320.624C320.587 162.819 320.4 162.413 320.064 162.124C319.728 161.825 319.289 161.676 318.748 161.676C318.207 161.676 317.763 161.825 317.418 162.124C317.082 162.413 316.877 162.819 316.802 163.342ZM324.166 165.68V164.238L328.632 162.712V162.488L324.166 160.962V159.52L330.046 161.69V163.51L324.166 165.68Z" fill="#1C1917"/>
<rect x="218.5" y="180.5" width="186" height="36" fill="#FFFBEB"/>
<rect x="218.5" y="180.5" width="186" height="36" stroke="#292524"/>
<path fill-rule="evenodd" clip-rule="evenodd" d="M247.5 193.5H250V203.5H247.5V193.5ZM246.25 193.5C246.25 193.168 246.382 192.851 246.616 192.616C246.851 192.382 247.168 192.25 247.5 192.25H250C250.332 192.25 250.649 192.382 250.884 192.616C251.118 192.851 251.25 193.168 251.25 193.5V203.5C251.25 203.832 251.118 204.149 250.884 204.384C250.649 204.618 250.332 204.75 250 204.75H247.5C247.168 204.75 246.851 204.618 246.616 204.384C246.382 204.149 246.25 203.832 246.25 203.5V193.5ZM255 193.5H257.5V198.5H255V193.5ZM253.75 193.5C253.75 193.168 253.882 192.851 254.116 192.616C254.351 192.382 254.668 192.25 255 192.25H257.5C257.832 192.25 258.149 192.382 258.384 192.616C258.618 192.851 258.75 193.168 258.75 193.5V198.5C258.75 198.832 258.618 199.149 258.384 199.384C258.149 199.618 257.832 199.75 257.5 199.75H255C254.668 199.75 254.351 199.618 254.116 199.384C253.882 199.149 253.75 198.832 253.75 198.5V193.5Z" fill="#44403C"/>
<path d="M278.225 201.68L272.345 199.51V197.69L278.225 195.52V196.962L273.773 198.488V198.712L278.225 200.238V201.68ZM284.681 203.696C284.009 203.696 283.491 203.575 283.127 203.332C282.772 203.089 282.506 202.819 282.329 202.52H282.105V203.5H280.691V193.7H282.133V197.536H282.357C282.469 197.349 282.618 197.172 282.805 197.004C282.992 196.827 283.239 196.682 283.547 196.57C283.855 196.458 284.233 196.402 284.681 196.402C285.26 196.402 285.792 196.542 286.277 196.822C286.762 197.102 287.15 197.508 287.439 198.04C287.728 198.572 287.873 199.207 287.873 199.944V200.154C287.873 200.901 287.724 201.54 287.425 202.072C287.136 202.595 286.748 202.996 286.263 203.276C285.787 203.556 285.26 203.696 284.681 203.696ZM284.261 202.436C284.886 202.436 285.4 202.235 285.801 201.834C286.212 201.433 286.417 200.859 286.417 200.112V199.986C286.417 199.249 286.216 198.679 285.815 198.278C285.414 197.877 284.896 197.676 284.261 197.676C283.645 197.676 283.132 197.877 282.721 198.278C282.32 198.679 282.119 199.249 282.119 199.986V200.112C282.119 200.859 282.32 201.433 282.721 201.834C283.132 202.235 283.645 202.436 284.261 202.436ZM292.306 203.626C291.783 203.626 291.316 203.509 290.906 203.276C290.495 203.043 290.173 202.711 289.94 202.282C289.706 201.853 289.59 201.339 289.59 200.742V196.598H291.032V200.644C291.032 201.241 291.181 201.685 291.48 201.974C291.778 202.254 292.194 202.394 292.726 202.394C293.314 202.394 293.785 202.198 294.14 201.806C294.504 201.405 294.686 200.831 294.686 200.084V196.598H296.128V203.5H294.714V202.464H294.49C294.359 202.744 294.126 203.01 293.79 203.262C293.454 203.505 292.959 203.626 292.306 203.626ZM300.849 203.5C300.429 203.5 300.093 203.374 299.841 203.122C299.599 202.87 299.477 202.534 299.477 202.114V197.816H297.573V196.598H299.477V194.316H300.919V196.598H302.543V197.816H300.919V201.862C300.919 202.142 301.05 202.282 301.311 202.282H302.753V203.5H300.849ZM305.385 203.5C304.965 203.5 304.629 203.374 304.377 203.122C304.125 202.87 303.999 202.534 303.999 202.114V197.816H302.543V196.598H303.999V194.316H305.441V196.598H307.513V197.816H305.441V201.862C305.441 202.142 305.577 202.282 305.847 202.282H307.275V203.5H305.385ZM312.444 203.696C311.754 203.696 311.138 203.556 310.596 203.276C310.064 202.987 309.644 202.576 309.336 202.044C309.028 201.512 308.874 200.882 308.874 200.154V199.944C308.874 199.216 309.028 198.591 309.336 198.068C309.644 197.536 310.064 197.125 310.596 196.836C311.138 196.547 311.754 196.402 312.444 196.402C313.135 196.402 313.751 196.547 314.292 196.836C314.834 197.125 315.258 197.536 315.566 198.068C315.874 198.591 316.028 199.216 316.028 199.944V200.154C316.028 200.882 315.874 201.512 315.566 202.044C315.258 202.576 314.834 202.987 314.292 203.276C313.751 203.556 313.135 203.696 312.444 203.696ZM312.444 202.408C313.079 202.408 313.592 202.207 313.984 201.806C314.386 201.395 314.586 200.831 314.586 200.112V199.986C314.586 199.267 314.39 198.707 313.998 198.306C313.606 197.895 313.088 197.69 312.444 197.69C311.819 197.69 311.306 197.895 310.904 198.306C310.512 198.707 310.316 199.267 310.316 199.986V200.112C310.316 200.831 310.512 201.395 310.904 201.806C311.306 202.207 311.819 202.408 312.444 202.408ZM317.824 203.5V196.598H319.238V197.634H319.462C319.592 197.354 319.826 197.093 320.162 196.85C320.498 196.607 320.997 196.486 321.66 196.486C322.182 196.486 322.644 196.603 323.046 196.836C323.456 197.069 323.778 197.401 324.012 197.83C324.245 198.25 324.362 198.759 324.362 199.356V203.5H322.92V199.468C322.92 198.871 322.77 198.432 322.472 198.152C322.173 197.863 321.762 197.718 321.24 197.718C320.642 197.718 320.162 197.914 319.798 198.306C319.443 198.698 319.266 199.267 319.266 200.014V203.5H317.824ZM326.773 201.68V200.238L331.239 198.712V198.488L326.773 196.962V195.52L332.653 197.69V199.51L326.773 201.68Z" fill="#1C1917"/>
</svg>
