<svg width="443" height="217" viewBox="0 0 443 217" fill="none" xmlns="http://www.w3.org/2000/svg">
<rect x="0.5" y="0.5" width="186" height="36" stroke="#292524"/>
<path fill-rule="evenodd" clip-rule="evenodd" d="M15.375 12.25C15.5408 12.25 15.6997 12.3158 15.8169 12.4331C15.9342 12.5503 16 12.7092 16 12.875V14.75H21V12.875C21 12.7092 21.0658 12.5503 21.1831 12.4331C21.3003 12.3158 21.4592 12.25 21.625 12.25C21.7908 12.25 21.9497 12.3158 22.0669 12.4331C22.1842 12.5503 22.25 12.7092 22.25 12.875V14.75H24.125C24.2908 14.75 24.4497 14.8158 24.5669 14.9331C24.6842 15.0503 24.75 15.2092 24.75 15.375C24.75 15.5408 24.6842 15.6997 24.5669 15.8169C24.4497 15.9342 24.2908 16 24.125 16H22.25V21H24.125C24.2908 21 24.4497 21.0658 24.5669 21.1831C24.6842 21.3003 24.75 21.4592 24.75 21.625C24.75 21.7908 24.6842 21.9497 24.5669 22.0669C24.4497 22.1842 24.2908 22.25 24.125 22.25H22.25V24.125C22.25 24.2908 22.1842 24.4497 22.0669 24.5669C21.9497 24.6842 21.7908 24.75 21.625 24.75C21.4592 24.75 21.3003 24.6842 21.1831 24.5669C21.0658 24.4497 21 24.2908 21 24.125V22.25H16V24.125C16 24.2908 15.9342 24.4497 15.8169 24.5669C15.6997 24.6842 15.5408 24.75 15.375 24.75C15.2092 24.75 15.0503 24.6842 14.9331 24.5669C14.8158 24.4497 14.75 24.2908 14.75 24.125V22.25H12.875C12.7092 22.25 12.5503 22.1842 12.4331 22.0669C12.3158 21.9497 12.25 21.7908 12.25 21.625C12.25 21.4592 12.3158 21.3003 12.4331 21.1831C12.5503 21.0658 12.7092 21 12.875 21H14.75V16H12.875C12.7092 16 12.5503 15.9342 12.4331 15.8169C12.3158 15.6997 12.25 15.5408 12.25 15.375C12.25 15.2092 12.3158 15.0503 12.4331 14.9331C12.5503 14.8158 12.7092 14.75 12.875 14.75H14.75V12.875C14.75 12.7092 14.8158 12.5503 14.9331 12.4331C15.0503 12.3158 15.2092 12.25 15.375 12.25ZM21 21V16H16V21H21Z" fill="#44403C"/>
<path d="M38.021 23.5V13.7H44.069V15.072H39.533V17.9H43.705V19.272H39.533V23.5H38.021ZM45.5826 23.5V16.598H46.9966V17.41H47.2206C47.3326 17.1207 47.5099 16.9107 47.7526 16.78C48.0046 16.64 48.3126 16.57 48.6766 16.57H49.5026V17.872H48.6206C48.1539 17.872 47.7712 18.0027 47.4726 18.264C47.1739 18.516 47.0246 18.908 47.0246 19.44V23.5H45.5826ZM52.9472 23.696C52.4525 23.696 52.0092 23.612 51.6172 23.444C51.2345 23.276 50.9265 23.0287 50.6932 22.702C50.4692 22.3753 50.3572 21.9787 50.3572 21.512C50.3572 21.036 50.4692 20.644 50.6932 20.336C50.9265 20.0187 51.2392 19.7807 51.6312 19.622C52.0325 19.4633 52.4852 19.384 52.9892 19.384H55.0892V18.936C55.0892 18.5347 54.9679 18.2127 54.7252 17.97C54.4825 17.7273 54.1092 17.606 53.6052 17.606C53.1105 17.606 52.7325 17.7227 52.4712 17.956C52.2099 18.1893 52.0372 18.4927 51.9532 18.866L50.6092 18.432C50.7212 18.0587 50.8985 17.7227 51.1412 17.424C51.3932 17.116 51.7245 16.8687 52.1352 16.682C52.5459 16.4953 53.0405 16.402 53.6192 16.402C54.5152 16.402 55.2199 16.6307 55.7332 17.088C56.2465 17.5453 56.5032 18.194 56.5032 19.034V21.876C56.5032 22.156 56.6339 22.296 56.8952 22.296H57.4832V23.5H56.4052C56.0785 23.5 55.8125 23.416 55.6072 23.248C55.4019 23.08 55.2992 22.8513 55.2992 22.562V22.52H55.0892C55.0145 22.66 54.9025 22.8233 54.7532 23.01C54.6039 23.1967 54.3845 23.36 54.0952 23.5C53.8059 23.6307 53.4232 23.696 52.9472 23.696ZM53.1572 22.506C53.7359 22.506 54.2025 22.3427 54.5572 22.016C54.9119 21.68 55.0892 21.2227 55.0892 20.644V20.504H53.0732C52.6905 20.504 52.3825 20.588 52.1492 20.756C51.9159 20.9147 51.7992 21.1527 51.7992 21.47C51.7992 21.7873 51.9205 22.0393 52.1632 22.226C52.4059 22.4127 52.7372 22.506 53.1572 22.506ZM58.8853 23.5V16.598H60.2993V17.41H60.5233C60.654 17.1673 60.864 16.9527 61.1533 16.766C61.4426 16.5793 61.8346 16.486 62.3293 16.486C62.8426 16.486 63.2533 16.5933 63.5613 16.808C63.8786 17.0133 64.1166 17.2793 64.2753 17.606H64.4993C64.658 17.2887 64.8866 17.0227 65.1853 16.808C65.4933 16.5933 65.9273 16.486 66.4873 16.486C66.9353 16.486 67.332 16.5793 67.6773 16.766C68.0226 16.9433 68.298 17.214 68.5033 17.578C68.7086 17.9327 68.8113 18.376 68.8113 18.908V23.5H67.3693V19.02C67.3693 18.6 67.2526 18.278 67.0193 18.054C66.7953 17.8207 66.4733 17.704 66.0533 17.704C65.6053 17.704 65.246 17.8487 64.9753 18.138C64.7046 18.4273 64.5693 18.8427 64.5693 19.384V23.5H63.1273V19.02C63.1273 18.6 63.0106 18.278 62.7773 18.054C62.5533 17.8207 62.2313 17.704 61.8113 17.704C61.3633 17.704 61.004 17.8487 60.7333 18.138C60.4626 18.4273 60.3273 18.8427 60.3273 19.384V23.5H58.8853ZM74.0532 23.696C73.3532 23.696 72.7419 23.5513 72.2192 23.262C71.6965 22.9633 71.2859 22.548 70.9872 22.016C70.6979 21.4747 70.5532 20.8493 70.5532 20.14V19.972C70.5532 19.2533 70.6979 18.628 70.9872 18.096C71.2765 17.5547 71.6779 17.1393 72.1912 16.85C72.7139 16.5513 73.3159 16.402 73.9972 16.402C74.6599 16.402 75.2385 16.5513 75.7332 16.85C76.2372 17.1393 76.6292 17.5453 76.9092 18.068C77.1892 18.5907 77.3292 19.202 77.3292 19.902V20.448H72.0232C72.0419 21.0547 72.2425 21.54 72.6252 21.904C73.0172 22.2587 73.5025 22.436 74.0812 22.436C74.6225 22.436 75.0285 22.3147 75.2992 22.072C75.5792 21.8293 75.7939 21.5493 75.9432 21.232L77.1332 21.848C77.0025 22.1093 76.8112 22.3847 76.5592 22.674C76.3165 22.9633 75.9945 23.206 75.5932 23.402C75.1919 23.598 74.6785 23.696 74.0532 23.696ZM72.0372 19.342H75.8592C75.8219 18.8193 75.6352 18.4133 75.2992 18.124C74.9632 17.8253 74.5245 17.676 73.9832 17.676C73.4419 17.676 72.9985 17.8253 72.6532 18.124C72.3172 18.4133 72.1119 18.8193 72.0372 19.342Z" fill="#1C1917"/>
<rect x="0.5" y="36.5" width="186" height="36" stroke="#292524"/>
<path fill-rule="evenodd" clip-rule="evenodd" d="M23.375 48.25C23.5408 48.25 23.6997 48.3158 23.8169 48.4331C23.9342 48.5503 24 48.7092 24 48.875V50.75H29V48.875C29 48.7092 29.0658 48.5503 29.1831 48.4331C29.3003 48.3158 29.4592 48.25 29.625 48.25C29.7908 48.25 29.9497 48.3158 30.0669 48.4331C30.1842 48.5503 30.25 48.7092 30.25 48.875V50.75H32.125C32.2908 50.75 32.4497 50.8158 32.5669 50.9331C32.6842 51.0503 32.75 51.2092 32.75 51.375C32.75 51.5408 32.6842 51.6997 32.5669 51.8169C32.4497 51.9342 32.2908 52 32.125 52H30.25V57H32.125C32.2908 57 32.4497 57.0658 32.5669 57.1831C32.6842 57.3003 32.75 57.4592 32.75 57.625C32.75 57.7908 32.6842 57.9497 32.5669 58.0669C32.4497 58.1842 32.2908 58.25 32.125 58.25H30.25V60.125C30.25 60.2908 30.1842 60.4497 30.0669 60.5669C29.9497 60.6842 29.7908 60.75 29.625 60.75C29.4592 60.75 29.3003 60.6842 29.1831 60.5669C29.0658 60.4497 29 60.2908 29 60.125V58.25H24V60.125C24 60.2908 23.9342 60.4497 23.8169 60.5669C23.6997 60.6842 23.5408 60.75 23.375 60.75C23.2092 60.75 23.0503 60.6842 22.9331 60.5669C22.8158 60.4497 22.75 60.2908 22.75 60.125V58.25H20.875C20.7092 58.25 20.5503 58.1842 20.4331 58.0669C20.3158 57.9497 20.25 57.7908 20.25 57.625C20.25 57.4592 20.3158 57.3003 20.4331 57.1831C20.5503 57.0658 20.7092 57 20.875 57H22.75V52H20.875C20.7092 52 20.5503 51.9342 20.4331 51.8169C20.3158 51.6997 20.25 51.5408 20.25 51.375C20.25 51.2092 20.3158 51.0503 20.4331 50.9331C20.5503 50.8158 20.7092 50.75 20.875 50.75H22.75V48.875C22.75 48.7092 22.8158 48.5503 22.9331 48.4331C23.0503 48.3158 23.2092 48.25 23.375 48.25ZM29 57V52H24V57H29Z" fill="#44403C"/>
<path d="M46.021 59.5V49.7H52.069V51.072H47.533V53.9H51.705V55.272H47.533V59.5H46.021ZM53.5826 59.5V52.598H54.9966V53.41H55.2206C55.3326 53.1207 55.5099 52.9107 55.7526 52.78C56.0046 52.64 56.3126 52.57 56.6766 52.57H57.5026V53.872H56.6206C56.1539 53.872 55.7712 54.0027 55.4726 54.264C55.1739 54.516 55.0246 54.908 55.0246 55.44V59.5H53.5826ZM60.9472 59.696C60.4525 59.696 60.0092 59.612 59.6172 59.444C59.2345 59.276 58.9265 59.0287 58.6932 58.702C58.4692 58.3753 58.3572 57.9787 58.3572 57.512C58.3572 57.036 58.4692 56.644 58.6932 56.336C58.9265 56.0187 59.2392 55.7807 59.6312 55.622C60.0325 55.4633 60.4852 55.384 60.9892 55.384H63.0892V54.936C63.0892 54.5347 62.9679 54.2127 62.7252 53.97C62.4825 53.7273 62.1092 53.606 61.6052 53.606C61.1105 53.606 60.7325 53.7227 60.4712 53.956C60.2099 54.1893 60.0372 54.4927 59.9532 54.866L58.6092 54.432C58.7212 54.0587 58.8985 53.7227 59.1412 53.424C59.3932 53.116 59.7245 52.8687 60.1352 52.682C60.5459 52.4953 61.0405 52.402 61.6192 52.402C62.5152 52.402 63.2199 52.6307 63.7332 53.088C64.2465 53.5453 64.5032 54.194 64.5032 55.034V57.876C64.5032 58.156 64.6339 58.296 64.8952 58.296H65.4832V59.5H64.4052C64.0785 59.5 63.8125 59.416 63.6072 59.248C63.4019 59.08 63.2992 58.8513 63.2992 58.562V58.52H63.0892C63.0145 58.66 62.9025 58.8233 62.7532 59.01C62.6039 59.1967 62.3845 59.36 62.0952 59.5C61.8059 59.6307 61.4232 59.696 60.9472 59.696ZM61.1572 58.506C61.7359 58.506 62.2025 58.3427 62.5572 58.016C62.9119 57.68 63.0892 57.2227 63.0892 56.644V56.504H61.0732C60.6905 56.504 60.3825 56.588 60.1492 56.756C59.9159 56.9147 59.7992 57.1527 59.7992 57.47C59.7992 57.7873 59.9205 58.0393 60.1632 58.226C60.4059 58.4127 60.7372 58.506 61.1572 58.506ZM66.8853 59.5V52.598H68.2993V53.41H68.5233C68.654 53.1673 68.864 52.9527 69.1533 52.766C69.4426 52.5793 69.8346 52.486 70.3293 52.486C70.8426 52.486 71.2533 52.5933 71.5613 52.808C71.8786 53.0133 72.1166 53.2793 72.2753 53.606H72.4993C72.658 53.2887 72.8866 53.0227 73.1853 52.808C73.4933 52.5933 73.9273 52.486 74.4873 52.486C74.9353 52.486 75.332 52.5793 75.6773 52.766C76.0226 52.9433 76.298 53.214 76.5033 53.578C76.7086 53.9327 76.8113 54.376 76.8113 54.908V59.5H75.3693V55.02C75.3693 54.6 75.2526 54.278 75.0193 54.054C74.7953 53.8207 74.4733 53.704 74.0533 53.704C73.6053 53.704 73.246 53.8487 72.9753 54.138C72.7046 54.4273 72.5693 54.8427 72.5693 55.384V59.5H71.1273V55.02C71.1273 54.6 71.0106 54.278 70.7773 54.054C70.5533 53.8207 70.2313 53.704 69.8113 53.704C69.3633 53.704 69.004 53.8487 68.7333 54.138C68.4626 54.4273 68.3273 54.8427 68.3273 55.384V59.5H66.8853ZM82.0532 59.696C81.3532 59.696 80.7419 59.5513 80.2192 59.262C79.6965 58.9633 79.2859 58.548 78.9872 58.016C78.6979 57.4747 78.5532 56.8493 78.5532 56.14V55.972C78.5532 55.2533 78.6979 54.628 78.9872 54.096C79.2765 53.5547 79.6779 53.1393 80.1912 52.85C80.7139 52.5513 81.3159 52.402 81.9972 52.402C82.6599 52.402 83.2385 52.5513 83.7332 52.85C84.2372 53.1393 84.6292 53.5453 84.9092 54.068C85.1892 54.5907 85.3292 55.202 85.3292 55.902V56.448H80.0232C80.0419 57.0547 80.2425 57.54 80.6252 57.904C81.0172 58.2587 81.5025 58.436 82.0812 58.436C82.6225 58.436 83.0285 58.3147 83.2992 58.072C83.5792 57.8293 83.7939 57.5493 83.9432 57.232L85.1332 57.848C85.0025 58.1093 84.8112 58.3847 84.5592 58.674C84.3165 58.9633 83.9945 59.206 83.5932 59.402C83.1919 59.598 82.6785 59.696 82.0532 59.696ZM80.0372 55.342H83.8592C83.8219 54.8193 83.6352 54.4133 83.2992 54.124C82.9632 53.8253 82.5245 53.676 81.9832 53.676C81.4419 53.676 80.9985 53.8253 80.6532 54.124C80.3172 54.4133 80.1119 54.8193 80.0372 55.342Z" fill="#1C1917"/>
<rect x="0.5" y="72.5" width="186" height="36" stroke="#292524"/>
<path fill-rule="evenodd" clip-rule="evenodd" d="M31.375 84.25C31.5408 84.25 31.6997 84.3158 31.8169 84.4331C31.9342 84.5503 32 84.7092 32 84.875V86.75H37V84.875C37 84.7092 37.0658 84.5503 37.1831 84.4331C37.3003 84.3158 37.4592 84.25 37.625 84.25C37.7908 84.25 37.9497 84.3158 38.0669 84.4331C38.1842 84.5503 38.25 84.7092 38.25 84.875V86.75H40.125C40.2908 86.75 40.4497 86.8158 40.5669 86.9331C40.6842 87.0503 40.75 87.2092 40.75 87.375C40.75 87.5408 40.6842 87.6997 40.5669 87.8169C40.4497 87.9342 40.2908 88 40.125 88H38.25V93H40.125C40.2908 93 40.4497 93.0658 40.5669 93.1831C40.6842 93.3003 40.75 93.4592 40.75 93.625C40.75 93.7908 40.6842 93.9497 40.5669 94.0669C40.4497 94.1842 40.2908 94.25 40.125 94.25H38.25V96.125C38.25 96.2908 38.1842 96.4497 38.0669 96.5669C37.9497 96.6842 37.7908 96.75 37.625 96.75C37.4592 96.75 37.3003 96.6842 37.1831 96.5669C37.0658 96.4497 37 96.2908 37 96.125V94.25H32V96.125C32 96.2908 31.9342 96.4497 31.8169 96.5669C31.6997 96.6842 31.5408 96.75 31.375 96.75C31.2092 96.75 31.0503 96.6842 30.9331 96.5669C30.8158 96.4497 30.75 96.2908 30.75 96.125V94.25H28.875C28.7092 94.25 28.5503 94.1842 28.4331 94.0669C28.3158 93.9497 28.25 93.7908 28.25 93.625C28.25 93.4592 28.3158 93.3003 28.4331 93.1831C28.5503 93.0658 28.7092 93 28.875 93H30.75V88H28.875C28.7092 88 28.5503 87.9342 28.4331 87.8169C28.3158 87.6997 28.25 87.5408 28.25 87.375C28.25 87.2092 28.3158 87.0503 28.4331 86.9331C28.5503 86.8158 28.7092 86.75 28.875 86.75H30.75V84.875C30.75 84.7092 30.8158 84.5503 30.9331 84.4331C31.0503 84.3158 31.2092 84.25 31.375 84.25ZM37 93V88H32V93H37Z" fill="#44403C"/>
<path d="M54.021 95.5V85.7H60.069V87.072H55.533V89.9H59.705V91.272H55.533V95.5H54.021ZM61.5826 95.5V88.598H62.9966V89.41H63.2206C63.3326 89.1207 63.5099 88.9107 63.7526 88.78C64.0046 88.64 64.3126 88.57 64.6766 88.57H65.5026V89.872H64.6206C64.1539 89.872 63.7712 90.0027 63.4726 90.264C63.1739 90.516 63.0246 90.908 63.0246 91.44V95.5H61.5826ZM68.9472 95.696C68.4525 95.696 68.0092 95.612 67.6172 95.444C67.2345 95.276 66.9265 95.0287 66.6932 94.702C66.4692 94.3753 66.3572 93.9787 66.3572 93.512C66.3572 93.036 66.4692 92.644 66.6932 92.336C66.9265 92.0187 67.2392 91.7807 67.6312 91.622C68.0325 91.4633 68.4852 91.384 68.9892 91.384H71.0892V90.936C71.0892 90.5347 70.9679 90.2127 70.7252 89.97C70.4825 89.7273 70.1092 89.606 69.6052 89.606C69.1105 89.606 68.7325 89.7227 68.4712 89.956C68.2099 90.1893 68.0372 90.4927 67.9532 90.866L66.6092 90.432C66.7212 90.0587 66.8985 89.7227 67.1412 89.424C67.3932 89.116 67.7245 88.8687 68.1352 88.682C68.5459 88.4953 69.0405 88.402 69.6192 88.402C70.5152 88.402 71.2199 88.6307 71.7332 89.088C72.2465 89.5453 72.5032 90.194 72.5032 91.034V93.876C72.5032 94.156 72.6339 94.296 72.8952 94.296H73.4832V95.5H72.4052C72.0785 95.5 71.8125 95.416 71.6072 95.248C71.4019 95.08 71.2992 94.8513 71.2992 94.562V94.52H71.0892C71.0145 94.66 70.9025 94.8233 70.7532 95.01C70.6039 95.1967 70.3845 95.36 70.0952 95.5C69.8059 95.6307 69.4232 95.696 68.9472 95.696ZM69.1572 94.506C69.7359 94.506 70.2025 94.3427 70.5572 94.016C70.9119 93.68 71.0892 93.2227 71.0892 92.644V92.504H69.0732C68.6905 92.504 68.3825 92.588 68.1492 92.756C67.9159 92.9147 67.7992 93.1527 67.7992 93.47C67.7992 93.7873 67.9205 94.0393 68.1632 94.226C68.4059 94.4127 68.7372 94.506 69.1572 94.506ZM74.8853 95.5V88.598H76.2993V89.41H76.5233C76.654 89.1673 76.864 88.9527 77.1533 88.766C77.4426 88.5793 77.8346 88.486 78.3293 88.486C78.8426 88.486 79.2533 88.5933 79.5613 88.808C79.8786 89.0133 80.1166 89.2793 80.2753 89.606H80.4993C80.658 89.2887 80.8866 89.0227 81.1853 88.808C81.4933 88.5933 81.9273 88.486 82.4873 88.486C82.9353 88.486 83.332 88.5793 83.6773 88.766C84.0226 88.9433 84.298 89.214 84.5033 89.578C84.7086 89.9327 84.8113 90.376 84.8113 90.908V95.5H83.3693V91.02C83.3693 90.6 83.2526 90.278 83.0193 90.054C82.7953 89.8207 82.4733 89.704 82.0533 89.704C81.6053 89.704 81.246 89.8487 80.9753 90.138C80.7046 90.4273 80.5693 90.8427 80.5693 91.384V95.5H79.1273V91.02C79.1273 90.6 79.0106 90.278 78.7773 90.054C78.5533 89.8207 78.2313 89.704 77.8113 89.704C77.3633 89.704 77.004 89.8487 76.7333 90.138C76.4626 90.4273 76.3273 90.8427 76.3273 91.384V95.5H74.8853ZM90.0532 95.696C89.3532 95.696 88.7419 95.5513 88.2192 95.262C87.6965 94.9633 87.2859 94.548 86.9872 94.016C86.6979 93.4747 86.5532 92.8493 86.5532 92.14V91.972C86.5532 91.2533 86.6979 90.628 86.9872 90.096C87.2765 89.5547 87.6779 89.1393 88.1912 88.85C88.7139 88.5513 89.3159 88.402 89.9972 88.402C90.6599 88.402 91.2385 88.5513 91.7332 88.85C92.2372 89.1393 92.6292 89.5453 92.9092 90.068C93.1892 90.5907 93.3292 91.202 93.3292 91.902V92.448H88.0232C88.0419 93.0547 88.2425 93.54 88.6252 93.904C89.0172 94.2587 89.5025 94.436 90.0812 94.436C90.6225 94.436 91.0285 94.3147 91.2992 94.072C91.5792 93.8293 91.7939 93.5493 91.9432 93.232L93.1332 93.848C93.0025 94.1093 92.8112 94.3847 92.5592 94.674C92.3165 94.9633 91.9945 95.206 91.5932 95.402C91.1919 95.598 90.6785 95.696 90.0532 95.696ZM88.0372 91.342H91.8592C91.8219 90.8193 91.6352 90.4133 91.2992 90.124C90.9632 89.8253 90.5245 89.676 89.9832 89.676C89.4419 89.676 88.9985 89.8253 88.6532 90.124C88.3172 90.4133 88.1119 90.8193 88.0372 91.342Z" fill="#1C1917"/>
<rect x="0.5" y="108.5" width="186" height="36" stroke="#292524"/>
<path fill-rule="evenodd" clip-rule="evenodd" d="M23.375 120.25C23.5408 120.25 23.6997 120.316 23.8169 120.433C23.9342 120.55 24 120.709 24 120.875V122.75H29V120.875C29 120.709 29.0658 120.55 29.1831 120.433C29.3003 120.316 29.4592 120.25 29.625 120.25C29.7908 120.25 29.9497 120.316 30.0669 120.433C30.1842 120.55 30.25 120.709 30.25 120.875V122.75H32.125C32.2908 122.75 32.4497 122.816 32.5669 122.933C32.6842 123.05 32.75 123.209 32.75 123.375C32.75 123.541 32.6842 123.7 32.5669 123.817C32.4497 123.934 32.2908 124 32.125 124H30.25V129H32.125C32.2908 129 32.4497 129.066 32.5669 129.183C32.6842 129.3 32.75 129.459 32.75 129.625C32.75 129.791 32.6842 129.95 32.5669 130.067C32.4497 130.184 32.2908 130.25 32.125 130.25H30.25V132.125C30.25 132.291 30.1842 132.45 30.0669 132.567C29.9497 132.684 29.7908 132.75 29.625 132.75C29.4592 132.75 29.3003 132.684 29.1831 132.567C29.0658 132.45 29 132.291 29 132.125V130.25H24V132.125C24 132.291 23.9342 132.45 23.8169 132.567C23.6997 132.684 23.5408 132.75 23.375 132.75C23.2092 132.75 23.0503 132.684 22.9331 132.567C22.8158 132.45 22.75 132.291 22.75 132.125V130.25H20.875C20.7092 130.25 20.5503 130.184 20.4331 130.067C20.3158 129.95 20.25 129.791 20.25 129.625C20.25 129.459 20.3158 129.3 20.4331 129.183C20.5503 129.066 20.7092 129 20.875 129H22.75V124H20.875C20.7092 124 20.5503 123.934 20.4331 123.817C20.3158 123.7 20.25 123.541 20.25 123.375C20.25 123.209 20.3158 123.05 20.4331 122.933C20.5503 122.816 20.7092 122.75 20.875 122.75H22.75V120.875C22.75 120.709 22.8158 120.55 22.9331 120.433C23.0503 120.316 23.2092 120.25 23.375 120.25ZM29 129V124H24V129H29Z" fill="#44403C"/>
<path d="M46.021 131.5V121.7H52.069V123.072H47.533V125.9H51.705V127.272H47.533V131.5H46.021ZM53.5826 131.5V124.598H54.9966V125.41H55.2206C55.3326 125.121 55.5099 124.911 55.7526 124.78C56.0046 124.64 56.3126 124.57 56.6766 124.57H57.5026V125.872H56.6206C56.1539 125.872 55.7712 126.003 55.4726 126.264C55.1739 126.516 55.0246 126.908 55.0246 127.44V131.5H53.5826ZM60.9472 131.696C60.4525 131.696 60.0092 131.612 59.6172 131.444C59.2345 131.276 58.9265 131.029 58.6932 130.702C58.4692 130.375 58.3572 129.979 58.3572 129.512C58.3572 129.036 58.4692 128.644 58.6932 128.336C58.9265 128.019 59.2392 127.781 59.6312 127.622C60.0325 127.463 60.4852 127.384 60.9892 127.384H63.0892V126.936C63.0892 126.535 62.9679 126.213 62.7252 125.97C62.4825 125.727 62.1092 125.606 61.6052 125.606C61.1105 125.606 60.7325 125.723 60.4712 125.956C60.2099 126.189 60.0372 126.493 59.9532 126.866L58.6092 126.432C58.7212 126.059 58.8985 125.723 59.1412 125.424C59.3932 125.116 59.7245 124.869 60.1352 124.682C60.5459 124.495 61.0405 124.402 61.6192 124.402C62.5152 124.402 63.2199 124.631 63.7332 125.088C64.2465 125.545 64.5032 126.194 64.5032 127.034V129.876C64.5032 130.156 64.6339 130.296 64.8952 130.296H65.4832V131.5H64.4052C64.0785 131.5 63.8125 131.416 63.6072 131.248C63.4019 131.08 63.2992 130.851 63.2992 130.562V130.52H63.0892C63.0145 130.66 62.9025 130.823 62.7532 131.01C62.6039 131.197 62.3845 131.36 62.0952 131.5C61.8059 131.631 61.4232 131.696 60.9472 131.696ZM61.1572 130.506C61.7359 130.506 62.2025 130.343 62.5572 130.016C62.9119 129.68 63.0892 129.223 63.0892 128.644V128.504H61.0732C60.6905 128.504 60.3825 128.588 60.1492 128.756C59.9159 128.915 59.7992 129.153 59.7992 129.47C59.7992 129.787 59.9205 130.039 60.1632 130.226C60.4059 130.413 60.7372 130.506 61.1572 130.506ZM66.8853 131.5V124.598H68.2993V125.41H68.5233C68.654 125.167 68.864 124.953 69.1533 124.766C69.4426 124.579 69.8346 124.486 70.3293 124.486C70.8426 124.486 71.2533 124.593 71.5613 124.808C71.8786 125.013 72.1166 125.279 72.2753 125.606H72.4993C72.658 125.289 72.8866 125.023 73.1853 124.808C73.4933 124.593 73.9273 124.486 74.4873 124.486C74.9353 124.486 75.332 124.579 75.6773 124.766C76.0226 124.943 76.298 125.214 76.5033 125.578C76.7086 125.933 76.8113 126.376 76.8113 126.908V131.5H75.3693V127.02C75.3693 126.6 75.2526 126.278 75.0193 126.054C74.7953 125.821 74.4733 125.704 74.0533 125.704C73.6053 125.704 73.246 125.849 72.9753 126.138C72.7046 126.427 72.5693 126.843 72.5693 127.384V131.5H71.1273V127.02C71.1273 126.6 71.0106 126.278 70.7773 126.054C70.5533 125.821 70.2313 125.704 69.8113 125.704C69.3633 125.704 69.004 125.849 68.7333 126.138C68.4626 126.427 68.3273 126.843 68.3273 127.384V131.5H66.8853ZM82.0532 131.696C81.3532 131.696 80.7419 131.551 80.2192 131.262C79.6965 130.963 79.2859 130.548 78.9872 130.016C78.6979 129.475 78.5532 128.849 78.5532 128.14V127.972C78.5532 127.253 78.6979 126.628 78.9872 126.096C79.2765 125.555 79.6779 125.139 80.1912 124.85C80.7139 124.551 81.3159 124.402 81.9972 124.402C82.6599 124.402 83.2385 124.551 83.7332 124.85C84.2372 125.139 84.6292 125.545 84.9092 126.068C85.1892 126.591 85.3292 127.202 85.3292 127.902V128.448H80.0232C80.0419 129.055 80.2425 129.54 80.6252 129.904C81.0172 130.259 81.5025 130.436 82.0812 130.436C82.6225 130.436 83.0285 130.315 83.2992 130.072C83.5792 129.829 83.7939 129.549 83.9432 129.232L85.1332 129.848C85.0025 130.109 84.8112 130.385 84.5592 130.674C84.3165 130.963 83.9945 131.206 83.5932 131.402C83.1919 131.598 82.6785 131.696 82.0532 131.696ZM80.0372 127.342H83.8592C83.8219 126.819 83.6352 126.413 83.2992 126.124C82.9632 125.825 82.5245 125.676 81.9832 125.676C81.4419 125.676 80.9985 125.825 80.6532 126.124C80.3172 126.413 80.1119 126.819 80.0372 127.342Z" fill="#1C1917"/>
<rect x="0.5" y="144.5" width="186" height="36" stroke="#292524"/>
<path fill-rule="evenodd" clip-rule="evenodd" d="M31.375 156.25C31.5408 156.25 31.6997 156.316 31.8169 156.433C31.9342 156.55 32 156.709 32 156.875V158.75H37V156.875C37 156.709 37.0658 156.55 37.1831 156.433C37.3003 156.316 37.4592 156.25 37.625 156.25C37.7908 156.25 37.9497 156.316 38.0669 156.433C38.1842 156.55 38.25 156.709 38.25 156.875V158.75H40.125C40.2908 158.75 40.4497 158.816 40.5669 158.933C40.6842 159.05 40.75 159.209 40.75 159.375C40.75 159.541 40.6842 159.7 40.5669 159.817C40.4497 159.934 40.2908 160 40.125 160H38.25V165H40.125C40.2908 165 40.4497 165.066 40.5669 165.183C40.6842 165.3 40.75 165.459 40.75 165.625C40.75 165.791 40.6842 165.95 40.5669 166.067C40.4497 166.184 40.2908 166.25 40.125 166.25H38.25V168.125C38.25 168.291 38.1842 168.45 38.0669 168.567C37.9497 168.684 37.7908 168.75 37.625 168.75C37.4592 168.75 37.3003 168.684 37.1831 168.567C37.0658 168.45 37 168.291 37 168.125V166.25H32V168.125C32 168.291 31.9342 168.45 31.8169 168.567C31.6997 168.684 31.5408 168.75 31.375 168.75C31.2092 168.75 31.0503 168.684 30.9331 168.567C30.8158 168.45 30.75 168.291 30.75 168.125V166.25H28.875C28.7092 166.25 28.5503 166.184 28.4331 166.067C28.3158 165.95 28.25 165.791 28.25 165.625C28.25 165.459 28.3158 165.3 28.4331 165.183C28.5503 165.066 28.7092 165 28.875 165H30.75V160H28.875C28.7092 160 28.5503 159.934 28.4331 159.817C28.3158 159.7 28.25 159.541 28.25 159.375C28.25 159.209 28.3158 159.05 28.4331 158.933C28.5503 158.816 28.7092 158.75 28.875 158.75H30.75V156.875C30.75 156.709 30.8158 156.55 30.9331 156.433C31.0503 156.316 31.2092 156.25 31.375 156.25ZM37 165V160H32V165H37Z" fill="#44403C"/>
<path d="M54.021 167.5V157.7H60.069V159.072H55.533V161.9H59.705V163.272H55.533V167.5H54.021ZM61.5826 167.5V160.598H62.9966V161.41H63.2206C63.3326 161.121 63.5099 160.911 63.7526 160.78C64.0046 160.64 64.3126 160.57 64.6766 160.57H65.5026V161.872H64.6206C64.1539 161.872 63.7712 162.003 63.4726 162.264C63.1739 162.516 63.0246 162.908 63.0246 163.44V167.5H61.5826ZM68.9472 167.696C68.4525 167.696 68.0092 167.612 67.6172 167.444C67.2345 167.276 66.9265 167.029 66.6932 166.702C66.4692 166.375 66.3572 165.979 66.3572 165.512C66.3572 165.036 66.4692 164.644 66.6932 164.336C66.9265 164.019 67.2392 163.781 67.6312 163.622C68.0325 163.463 68.4852 163.384 68.9892 163.384H71.0892V162.936C71.0892 162.535 70.9679 162.213 70.7252 161.97C70.4825 161.727 70.1092 161.606 69.6052 161.606C69.1105 161.606 68.7325 161.723 68.4712 161.956C68.2099 162.189 68.0372 162.493 67.9532 162.866L66.6092 162.432C66.7212 162.059 66.8985 161.723 67.1412 161.424C67.3932 161.116 67.7245 160.869 68.1352 160.682C68.5459 160.495 69.0405 160.402 69.6192 160.402C70.5152 160.402 71.2199 160.631 71.7332 161.088C72.2465 161.545 72.5032 162.194 72.5032 163.034V165.876C72.5032 166.156 72.6339 166.296 72.8952 166.296H73.4832V167.5H72.4052C72.0785 167.5 71.8125 167.416 71.6072 167.248C71.4019 167.08 71.2992 166.851 71.2992 166.562V166.52H71.0892C71.0145 166.66 70.9025 166.823 70.7532 167.01C70.6039 167.197 70.3845 167.36 70.0952 167.5C69.8059 167.631 69.4232 167.696 68.9472 167.696ZM69.1572 166.506C69.7359 166.506 70.2025 166.343 70.5572 166.016C70.9119 165.68 71.0892 165.223 71.0892 164.644V164.504H69.0732C68.6905 164.504 68.3825 164.588 68.1492 164.756C67.9159 164.915 67.7992 165.153 67.7992 165.47C67.7992 165.787 67.9205 166.039 68.1632 166.226C68.4059 166.413 68.7372 166.506 69.1572 166.506ZM74.8853 167.5V160.598H76.2993V161.41H76.5233C76.654 161.167 76.864 160.953 77.1533 160.766C77.4426 160.579 77.8346 160.486 78.3293 160.486C78.8426 160.486 79.2533 160.593 79.5613 160.808C79.8786 161.013 80.1166 161.279 80.2753 161.606H80.4993C80.658 161.289 80.8866 161.023 81.1853 160.808C81.4933 160.593 81.9273 160.486 82.4873 160.486C82.9353 160.486 83.332 160.579 83.6773 160.766C84.0226 160.943 84.298 161.214 84.5033 161.578C84.7086 161.933 84.8113 162.376 84.8113 162.908V167.5H83.3693V163.02C83.3693 162.6 83.2526 162.278 83.0193 162.054C82.7953 161.821 82.4733 161.704 82.0533 161.704C81.6053 161.704 81.246 161.849 80.9753 162.138C80.7046 162.427 80.5693 162.843 80.5693 163.384V167.5H79.1273V163.02C79.1273 162.6 79.0106 162.278 78.7773 162.054C78.5533 161.821 78.2313 161.704 77.8113 161.704C77.3633 161.704 77.004 161.849 76.7333 162.138C76.4626 162.427 76.3273 162.843 76.3273 163.384V167.5H74.8853ZM90.0532 167.696C89.3532 167.696 88.7419 167.551 88.2192 167.262C87.6965 166.963 87.2859 166.548 86.9872 166.016C86.6979 165.475 86.5532 164.849 86.5532 164.14V163.972C86.5532 163.253 86.6979 162.628 86.9872 162.096C87.2765 161.555 87.6779 161.139 88.1912 160.85C88.7139 160.551 89.3159 160.402 89.9972 160.402C90.6599 160.402 91.2385 160.551 91.7332 160.85C92.2372 161.139 92.6292 161.545 92.9092 162.068C93.1892 162.591 93.3292 163.202 93.3292 163.902V164.448H88.0232C88.0419 165.055 88.2425 165.54 88.6252 165.904C89.0172 166.259 89.5025 166.436 90.0812 166.436C90.6225 166.436 91.0285 166.315 91.2992 166.072C91.5792 165.829 91.7939 165.549 91.9432 165.232L93.1332 165.848C93.0025 166.109 92.8112 166.385 92.5592 166.674C92.3165 166.963 91.9945 167.206 91.5932 167.402C91.1919 167.598 90.6785 167.696 90.0532 167.696ZM88.0372 163.342H91.8592C91.8219 162.819 91.6352 162.413 91.2992 162.124C90.9632 161.825 90.5245 161.676 89.9832 161.676C89.4419 161.676 88.9985 161.825 88.6532 162.124C88.3172 162.413 88.1119 162.819 88.0372 163.342Z" fill="#1C1917"/>
<rect x="0.5" y="180.5" width="186" height="36" stroke="#292524"/>
<path fill-rule="evenodd" clip-rule="evenodd" d="M31.375 192.25C31.5408 192.25 31.6997 192.316 31.8169 192.433C31.9342 192.55 32 192.709 32 192.875V194.75H37V192.875C37 192.709 37.0658 192.55 37.1831 192.433C37.3003 192.316 37.4592 192.25 37.625 192.25C37.7908 192.25 37.9497 192.316 38.0669 192.433C38.1842 192.55 38.25 192.709 38.25 192.875V194.75H40.125C40.2908 194.75 40.4497 194.816 40.5669 194.933C40.6842 195.05 40.75 195.209 40.75 195.375C40.75 195.541 40.6842 195.7 40.5669 195.817C40.4497 195.934 40.2908 196 40.125 196H38.25V201H40.125C40.2908 201 40.4497 201.066 40.5669 201.183C40.6842 201.3 40.75 201.459 40.75 201.625C40.75 201.791 40.6842 201.95 40.5669 202.067C40.4497 202.184 40.2908 202.25 40.125 202.25H38.25V204.125C38.25 204.291 38.1842 204.45 38.0669 204.567C37.9497 204.684 37.7908 204.75 37.625 204.75C37.4592 204.75 37.3003 204.684 37.1831 204.567C37.0658 204.45 37 204.291 37 204.125V202.25H32V204.125C32 204.291 31.9342 204.45 31.8169 204.567C31.6997 204.684 31.5408 204.75 31.375 204.75C31.2092 204.75 31.0503 204.684 30.9331 204.567C30.8158 204.45 30.75 204.291 30.75 204.125V202.25H28.875C28.7092 202.25 28.5503 202.184 28.4331 202.067C28.3158 201.95 28.25 201.791 28.25 201.625C28.25 201.459 28.3158 201.3 28.4331 201.183C28.5503 201.066 28.7092 201 28.875 201H30.75V196H28.875C28.7092 196 28.5503 195.934 28.4331 195.817C28.3158 195.7 28.25 195.541 28.25 195.375C28.25 195.209 28.3158 195.05 28.4331 194.933C28.5503 194.816 28.7092 194.75 28.875 194.75H30.75V192.875C30.75 192.709 30.8158 192.55 30.9331 192.433C31.0503 192.316 31.2092 192.25 31.375 192.25ZM37 201V196H32V201H37Z" fill="#44403C"/>
<path d="M54.021 203.5V193.7H60.069V195.072H55.533V197.9H59.705V199.272H55.533V203.5H54.021ZM61.5826 203.5V196.598H62.9966V197.41H63.2206C63.3326 197.121 63.5099 196.911 63.7526 196.78C64.0046 196.64 64.3126 196.57 64.6766 196.57H65.5026V197.872H64.6206C64.1539 197.872 63.7712 198.003 63.4726 198.264C63.1739 198.516 63.0246 198.908 63.0246 199.44V203.5H61.5826ZM68.9472 203.696C68.4525 203.696 68.0092 203.612 67.6172 203.444C67.2345 203.276 66.9265 203.029 66.6932 202.702C66.4692 202.375 66.3572 201.979 66.3572 201.512C66.3572 201.036 66.4692 200.644 66.6932 200.336C66.9265 200.019 67.2392 199.781 67.6312 199.622C68.0325 199.463 68.4852 199.384 68.9892 199.384H71.0892V198.936C71.0892 198.535 70.9679 198.213 70.7252 197.97C70.4825 197.727 70.1092 197.606 69.6052 197.606C69.1105 197.606 68.7325 197.723 68.4712 197.956C68.2099 198.189 68.0372 198.493 67.9532 198.866L66.6092 198.432C66.7212 198.059 66.8985 197.723 67.1412 197.424C67.3932 197.116 67.7245 196.869 68.1352 196.682C68.5459 196.495 69.0405 196.402 69.6192 196.402C70.5152 196.402 71.2199 196.631 71.7332 197.088C72.2465 197.545 72.5032 198.194 72.5032 199.034V201.876C72.5032 202.156 72.6339 202.296 72.8952 202.296H73.4832V203.5H72.4052C72.0785 203.5 71.8125 203.416 71.6072 203.248C71.4019 203.08 71.2992 202.851 71.2992 202.562V202.52H71.0892C71.0145 202.66 70.9025 202.823 70.7532 203.01C70.6039 203.197 70.3845 203.36 70.0952 203.5C69.8059 203.631 69.4232 203.696 68.9472 203.696ZM69.1572 202.506C69.7359 202.506 70.2025 202.343 70.5572 202.016C70.9119 201.68 71.0892 201.223 71.0892 200.644V200.504H69.0732C68.6905 200.504 68.3825 200.588 68.1492 200.756C67.9159 200.915 67.7992 201.153 67.7992 201.47C67.7992 201.787 67.9205 202.039 68.1632 202.226C68.4059 202.413 68.7372 202.506 69.1572 202.506ZM74.8853 203.5V196.598H76.2993V197.41H76.5233C76.654 197.167 76.864 196.953 77.1533 196.766C77.4426 196.579 77.8346 196.486 78.3293 196.486C78.8426 196.486 79.2533 196.593 79.5613 196.808C79.8786 197.013 80.1166 197.279 80.2753 197.606H80.4993C80.658 197.289 80.8866 197.023 81.1853 196.808C81.4933 196.593 81.9273 196.486 82.4873 196.486C82.9353 196.486 83.332 196.579 83.6773 196.766C84.0226 196.943 84.298 197.214 84.5033 197.578C84.7086 197.933 84.8113 198.376 84.8113 198.908V203.5H83.3693V199.02C83.3693 198.6 83.2526 198.278 83.0193 198.054C82.7953 197.821 82.4733 197.704 82.0533 197.704C81.6053 197.704 81.246 197.849 80.9753 198.138C80.7046 198.427 80.5693 198.843 80.5693 199.384V203.5H79.1273V199.02C79.1273 198.6 79.0106 198.278 78.7773 198.054C78.5533 197.821 78.2313 197.704 77.8113 197.704C77.3633 197.704 77.004 197.849 76.7333 198.138C76.4626 198.427 76.3273 198.843 76.3273 199.384V203.5H74.8853ZM90.0532 203.696C89.3532 203.696 88.7419 203.551 88.2192 203.262C87.6965 202.963 87.2859 202.548 86.9872 202.016C86.6979 201.475 86.5532 200.849 86.5532 200.14V199.972C86.5532 199.253 86.6979 198.628 86.9872 198.096C87.2765 197.555 87.6779 197.139 88.1912 196.85C88.7139 196.551 89.3159 196.402 89.9972 196.402C90.6599 196.402 91.2385 196.551 91.7332 196.85C92.2372 197.139 92.6292 197.545 92.9092 198.068C93.1892 198.591 93.3292 199.202 93.3292 199.902V200.448H88.0232C88.0419 201.055 88.2425 201.54 88.6252 201.904C89.0172 202.259 89.5025 202.436 90.0812 202.436C90.6225 202.436 91.0285 202.315 91.2992 202.072C91.5792 201.829 91.7939 201.549 91.9432 201.232L93.1332 201.848C93.0025 202.109 92.8112 202.385 92.5592 202.674C92.3165 202.963 91.9945 203.206 91.5932 203.402C91.1919 203.598 90.6785 203.696 90.0532 203.696ZM88.0372 199.342H91.8592C91.8219 198.819 91.6352 198.413 91.2992 198.124C90.9632 197.825 90.5245 197.676 89.9832 197.676C89.4419 197.676 88.9985 197.825 88.6532 198.124C88.3172 198.413 88.1119 198.819 88.0372 199.342Z" fill="#1C1917"/>
<rect x="256.5" y="0.5" width="186" height="36" fill="#FFFBEB"/>
<rect x="256.5" y="0.5" width="186" height="36" stroke="#292524"/>
<path fill-rule="evenodd" clip-rule="evenodd" d="M269.5 13.5H272V23.5H269.5V13.5ZM268.25 13.5C268.25 13.1685 268.382 12.8505 268.616 12.6161C268.851 12.3817 269.168 12.25 269.5 12.25H272C272.332 12.25 272.649 12.3817 272.884 12.6161C273.118 12.8505 273.25 13.1685 273.25 13.5V23.5C273.25 23.8315 273.118 24.1495 272.884 24.3839C272.649 24.6183 272.332 24.75 272 24.75H269.5C269.168 24.75 268.851 24.6183 268.616 24.3839C268.382 24.1495 268.25 23.8315 268.25 23.5V13.5ZM277 16H279.5V21H277V16ZM275.75 16C275.75 15.6685 275.882 15.3505 276.116 15.1161C276.351 14.8817 276.668 14.75 277 14.75H279.5C279.832 14.75 280.149 14.8817 280.384 15.1161C280.618 15.3505 280.75 15.6685 280.75 16V21C280.75 21.3315 280.618 21.6495 280.384 21.8839C280.149 22.1183 279.832 22.25 279.5 22.25H277C276.668 22.25 276.351 22.1183 276.116 21.8839C275.882 21.6495 275.75 21.3315 275.75 21V16Z" fill="#44403C"/>
<path d="M300.023 21.68L294.143 19.51V17.69L300.023 15.52V16.962L295.571 18.488V18.712L300.023 20.238V21.68ZM306.479 23.696C305.807 23.696 305.289 23.5747 304.925 23.332C304.57 23.0893 304.304 22.8187 304.127 22.52H303.903V23.5H302.489V13.7H303.931V17.536H304.155C304.267 17.3493 304.416 17.172 304.603 17.004C304.789 16.8267 305.037 16.682 305.345 16.57C305.653 16.458 306.031 16.402 306.479 16.402C307.057 16.402 307.589 16.542 308.075 16.822C308.56 17.102 308.947 17.508 309.237 18.04C309.526 18.572 309.671 19.2067 309.671 19.944V20.154C309.671 20.9007 309.521 21.54 309.223 22.072C308.933 22.5947 308.546 22.996 308.061 23.276C307.585 23.556 307.057 23.696 306.479 23.696ZM306.059 22.436C306.684 22.436 307.197 22.2353 307.599 21.834C308.009 21.4327 308.215 20.8587 308.215 20.112V19.986C308.215 19.2487 308.014 18.6793 307.613 18.278C307.211 17.8767 306.693 17.676 306.059 17.676C305.443 17.676 304.929 17.8767 304.519 18.278C304.117 18.6793 303.917 19.2487 303.917 19.986V20.112C303.917 20.8587 304.117 21.4327 304.519 21.834C304.929 22.2353 305.443 22.436 306.059 22.436ZM314.692 23.696C314.001 23.696 313.385 23.556 312.844 23.276C312.312 22.9867 311.892 22.576 311.584 22.044C311.276 21.512 311.122 20.882 311.122 20.154V19.944C311.122 19.216 311.276 18.5907 311.584 18.068C311.892 17.536 312.312 17.1253 312.844 16.836C313.385 16.5467 314.001 16.402 314.692 16.402C315.382 16.402 315.998 16.5467 316.54 16.836C317.081 17.1253 317.506 17.536 317.814 18.068C318.122 18.5907 318.276 19.216 318.276 19.944V20.154C318.276 20.882 318.122 21.512 317.814 22.044C317.506 22.576 317.081 22.9867 316.54 23.276C315.998 23.556 315.382 23.696 314.692 23.696ZM314.692 22.408C315.326 22.408 315.84 22.2073 316.232 21.806C316.633 21.3953 316.834 20.8307 316.834 20.112V19.986C316.834 19.2673 316.638 18.7073 316.246 18.306C315.854 17.8953 315.336 17.69 314.692 17.69C314.066 17.69 313.553 17.8953 313.152 18.306C312.76 18.7073 312.564 19.2673 312.564 19.986V20.112C312.564 20.8307 312.76 21.3953 313.152 21.806C313.553 22.2073 314.066 22.408 314.692 22.408ZM322.927 23.696C322.358 23.696 321.83 23.556 321.345 23.276C320.86 22.996 320.468 22.5947 320.169 22.072C319.88 21.54 319.735 20.9007 319.735 20.154V19.944C319.735 19.2067 319.88 18.572 320.169 18.04C320.458 17.508 320.846 17.102 321.331 16.822C321.816 16.542 322.348 16.402 322.927 16.402C323.375 16.402 323.748 16.458 324.047 16.57C324.355 16.682 324.607 16.8267 324.803 17.004C324.999 17.172 325.148 17.3493 325.251 17.536H325.475V13.7H326.917V23.5H325.503V22.52H325.279C325.102 22.8187 324.831 23.0893 324.467 23.332C324.112 23.5747 323.599 23.696 322.927 23.696ZM323.333 22.436C323.958 22.436 324.472 22.2353 324.873 21.834C325.284 21.4327 325.489 20.8587 325.489 20.112V19.986C325.489 19.2487 325.288 18.6793 324.887 18.278C324.486 17.8767 323.968 17.676 323.333 17.676C322.717 17.676 322.204 17.8767 321.793 18.278C321.392 18.6793 321.191 19.2487 321.191 19.986V20.112C321.191 20.8587 321.392 21.4327 321.793 21.834C322.204 22.2353 322.717 22.436 323.333 22.436ZM329.838 26.3V25.04H333.688C333.949 25.04 334.08 24.9 334.08 24.62V22.492H333.856C333.772 22.6787 333.641 22.8607 333.464 23.038C333.296 23.206 333.067 23.346 332.778 23.458C332.488 23.57 332.124 23.626 331.686 23.626C331.163 23.626 330.696 23.5093 330.286 23.276C329.875 23.0427 329.553 22.7113 329.32 22.282C329.086 21.8527 328.97 21.344 328.97 20.756V16.598H330.412V20.644C330.412 21.2413 330.561 21.6847 330.86 21.974C331.158 22.254 331.574 22.394 332.106 22.394C332.694 22.394 333.165 22.198 333.52 21.806C333.884 21.414 334.066 20.8447 334.066 20.098V16.598H335.508V24.914C335.508 25.334 335.382 25.67 335.13 25.922C334.887 26.174 334.551 26.3 334.122 26.3H329.838ZM337.975 21.68V20.238L342.441 18.712V18.488L337.975 16.962V15.52L343.855 17.69V19.51L337.975 21.68Z" fill="#1C1917"/>
<rect x="256.5" y="36.5" width="186" height="36" fill="#FFFBEB"/>
<rect x="256.5" y="36.5" width="186" height="36" stroke="#292524"/>
<path fill-rule="evenodd" clip-rule="evenodd" d="M277.5 49.5H280V59.5H277.5V49.5ZM276.25 49.5C276.25 49.1685 276.382 48.8505 276.616 48.6161C276.851 48.3817 277.168 48.25 277.5 48.25H280C280.332 48.25 280.649 48.3817 280.884 48.6161C281.118 48.8505 281.25 49.1685 281.25 49.5V59.5C281.25 59.8315 281.118 60.1495 280.884 60.3839C280.649 60.6183 280.332 60.75 280 60.75H277.5C277.168 60.75 276.851 60.6183 276.616 60.3839C276.382 60.1495 276.25 59.8315 276.25 59.5V49.5ZM285 52H287.5V57H285V52ZM283.75 52C283.75 51.6685 283.882 51.3505 284.116 51.1161C284.351 50.8817 284.668 50.75 285 50.75H287.5C287.832 50.75 288.149 50.8817 288.384 51.1161C288.618 51.3505 288.75 51.6685 288.75 52V57C288.75 57.3315 288.618 57.6495 288.384 57.8839C288.149 58.1183 287.832 58.25 287.5 58.25H285C284.668 58.25 284.351 58.1183 284.116 57.8839C283.882 57.6495 283.75 57.3315 283.75 57V52Z" fill="#44403C"/>
<path d="M307.967 57.68L302.087 55.51V53.69L307.967 51.52V52.962L303.515 54.488V54.712L307.967 56.238V57.68ZM310.432 59.5V49.7H311.874V53.578H312.098C312.191 53.4007 312.322 53.228 312.49 53.06C312.667 52.892 312.896 52.7567 313.176 52.654C313.465 52.542 313.829 52.486 314.268 52.486C314.791 52.486 315.253 52.6027 315.654 52.836C316.065 53.0693 316.387 53.4007 316.62 53.83C316.853 54.25 316.97 54.7587 316.97 55.356V59.5H315.528V55.468C315.528 54.8707 315.379 54.432 315.08 54.152C314.781 53.8627 314.371 53.718 313.848 53.718C313.251 53.718 312.77 53.914 312.406 54.306C312.051 54.698 311.874 55.2673 311.874 56.014V59.5H310.432ZM322.209 59.696C321.509 59.696 320.898 59.5513 320.375 59.262C319.853 58.9633 319.442 58.548 319.143 58.016C318.854 57.4747 318.709 56.8493 318.709 56.14V55.972C318.709 55.2533 318.854 54.628 319.143 54.096C319.433 53.5547 319.834 53.1393 320.347 52.85C320.87 52.5513 321.472 52.402 322.153 52.402C322.816 52.402 323.395 52.5513 323.889 52.85C324.393 53.1393 324.785 53.5453 325.065 54.068C325.345 54.5907 325.485 55.202 325.485 55.902V56.448H320.179C320.198 57.0547 320.399 57.54 320.781 57.904C321.173 58.2587 321.659 58.436 322.237 58.436C322.779 58.436 323.185 58.3147 323.455 58.072C323.735 57.8293 323.95 57.5493 324.099 57.232L325.289 57.848C325.159 58.1093 324.967 58.3847 324.715 58.674C324.473 58.9633 324.151 59.206 323.749 59.402C323.348 59.598 322.835 59.696 322.209 59.696ZM320.193 55.342H324.015C323.978 54.8193 323.791 54.4133 323.455 54.124C323.119 53.8253 322.681 53.676 322.139 53.676C321.598 53.676 321.155 53.8253 320.809 54.124C320.473 54.4133 320.268 54.8193 320.193 55.342ZM329.363 59.696C328.869 59.696 328.425 59.612 328.033 59.444C327.651 59.276 327.343 59.0287 327.109 58.702C326.885 58.3753 326.773 57.9787 326.773 57.512C326.773 57.036 326.885 56.644 327.109 56.336C327.343 56.0187 327.655 55.7807 328.047 55.622C328.449 55.4633 328.901 55.384 329.405 55.384H331.505V54.936C331.505 54.5347 331.384 54.2127 331.141 53.97C330.899 53.7273 330.525 53.606 330.021 53.606C329.527 53.606 329.149 53.7227 328.887 53.956C328.626 54.1893 328.453 54.4927 328.369 54.866L327.025 54.432C327.137 54.0587 327.315 53.7227 327.557 53.424C327.809 53.116 328.141 52.8687 328.551 52.682C328.962 52.4953 329.457 52.402 330.035 52.402C330.931 52.402 331.636 52.6307 332.149 53.088C332.663 53.5453 332.919 54.194 332.919 55.034V57.876C332.919 58.156 333.05 58.296 333.311 58.296H333.899V59.5H332.821C332.495 59.5 332.229 59.416 332.023 59.248C331.818 59.08 331.715 58.8513 331.715 58.562V58.52H331.505C331.431 58.66 331.319 58.8233 331.169 59.01C331.02 59.1967 330.801 59.36 330.511 59.5C330.222 59.6307 329.839 59.696 329.363 59.696ZM329.573 58.506C330.152 58.506 330.619 58.3427 330.973 58.016C331.328 57.68 331.505 57.2227 331.505 56.644V56.504H329.489C329.107 56.504 328.799 56.588 328.565 56.756C328.332 56.9147 328.215 57.1527 328.215 57.47C328.215 57.7873 328.337 58.0393 328.579 58.226C328.822 58.4127 329.153 58.506 329.573 58.506ZM337.993 59.696C337.424 59.696 336.897 59.556 336.411 59.276C335.926 58.996 335.534 58.5947 335.235 58.072C334.946 57.54 334.801 56.9007 334.801 56.154V55.944C334.801 55.2067 334.946 54.572 335.235 54.04C335.525 53.508 335.912 53.102 336.397 52.822C336.883 52.542 337.415 52.402 337.993 52.402C338.441 52.402 338.815 52.458 339.113 52.57C339.421 52.682 339.673 52.8267 339.869 53.004C340.065 53.172 340.215 53.3493 340.317 53.536H340.541V49.7H341.983V59.5H340.569V58.52H340.345C340.168 58.8187 339.897 59.0893 339.533 59.332C339.179 59.5747 338.665 59.696 337.993 59.696ZM338.399 58.436C339.025 58.436 339.538 58.2353 339.939 57.834C340.35 57.4327 340.555 56.8587 340.555 56.112V55.986C340.555 55.2487 340.355 54.6793 339.953 54.278C339.552 53.8767 339.034 53.676 338.399 53.676C337.783 53.676 337.27 53.8767 336.859 54.278C336.458 54.6793 336.257 55.2487 336.257 55.986V56.112C336.257 56.8587 336.458 57.4327 336.859 57.834C337.27 58.2353 337.783 58.436 338.399 58.436ZM347.27 59.696C346.57 59.696 345.959 59.5513 345.436 59.262C344.913 58.9633 344.503 58.548 344.204 58.016C343.915 57.4747 343.77 56.8493 343.77 56.14V55.972C343.77 55.2533 343.915 54.628 344.204 54.096C344.493 53.5547 344.895 53.1393 345.408 52.85C345.931 52.5513 346.533 52.402 347.214 52.402C347.877 52.402 348.455 52.5513 348.95 52.85C349.454 53.1393 349.846 53.5453 350.126 54.068C350.406 54.5907 350.546 55.202 350.546 55.902V56.448H345.24C345.259 57.0547 345.459 57.54 345.842 57.904C346.234 58.2587 346.719 58.436 347.298 58.436C347.839 58.436 348.245 58.3147 348.516 58.072C348.796 57.8293 349.011 57.5493 349.16 57.232L350.35 57.848C350.219 58.1093 350.028 58.3847 349.776 58.674C349.533 58.9633 349.211 59.206 348.81 59.402C348.409 59.598 347.895 59.696 347.27 59.696ZM345.254 55.342H349.076C349.039 54.8193 348.852 54.4133 348.516 54.124C348.18 53.8253 347.741 53.676 347.2 53.676C346.659 53.676 346.215 53.8253 345.87 54.124C345.534 54.4133 345.329 54.8193 345.254 55.342ZM352.282 59.5V52.598H353.696V53.41H353.92C354.032 53.1207 354.209 52.9107 354.452 52.78C354.704 52.64 355.012 52.57 355.376 52.57H356.202V53.872H355.32C354.853 53.872 354.47 54.0027 354.172 54.264C353.873 54.516 353.724 54.908 353.724 55.44V59.5H352.282ZM358.032 57.68V56.238L362.498 54.712V54.488L358.032 52.962V51.52L363.912 53.69V55.51L358.032 57.68Z" fill="#1C1917"/>
<rect x="256.5" y="72.5" width="186" height="36" fill="#FFFBEB"/>
<rect x="256.5" y="72.5" width="186" height="36" stroke="#292524"/>
<path fill-rule="evenodd" clip-rule="evenodd" d="M285.5 85.5H288V95.5H285.5V85.5ZM284.25 85.5C284.25 85.1685 284.382 84.8505 284.616 84.6161C284.851 84.3817 285.168 84.25 285.5 84.25H288C288.332 84.25 288.649 84.3817 288.884 84.6161C289.118 84.8505 289.25 85.1685 289.25 85.5V95.5C289.25 95.8315 289.118 96.1495 288.884 96.3839C288.649 96.6183 288.332 96.75 288 96.75H285.5C285.168 96.75 284.851 96.6183 284.616 96.3839C284.382 96.1495 284.25 95.8315 284.25 95.5V85.5ZM293 88H295.5V93H293V88ZM291.75 88C291.75 87.6685 291.882 87.3505 292.116 87.1161C292.351 86.8817 292.668 86.75 293 86.75H295.5C295.832 86.75 296.149 86.8817 296.384 87.1161C296.618 87.3505 296.75 87.6685 296.75 88V93C296.75 93.3315 296.618 93.6495 296.384 93.8839C296.149 94.1183 295.832 94.25 295.5 94.25H293C292.668 94.25 292.351 94.1183 292.116 93.8839C291.882 93.6495 291.75 93.3315 291.75 93V88Z" fill="#44403C"/>
<path d="M316.135 93.68L310.255 91.51V89.69L316.135 87.52V88.962L311.683 90.488V90.712L316.135 92.238V93.68ZM318.601 95.5V88.598H320.015V89.634H320.239C320.37 89.354 320.603 89.0927 320.939 88.85C321.275 88.6073 321.774 88.486 322.437 88.486C322.96 88.486 323.422 88.6027 323.823 88.836C324.234 89.0693 324.556 89.4007 324.789 89.83C325.022 90.25 325.139 90.7587 325.139 91.356V95.5H323.697V91.468C323.697 90.8707 323.548 90.432 323.249 90.152C322.95 89.8627 322.54 89.718 322.017 89.718C321.42 89.718 320.939 89.914 320.575 90.306C320.22 90.698 320.043 91.2673 320.043 92.014V95.5H318.601ZM329.356 95.696C328.862 95.696 328.418 95.612 328.026 95.444C327.644 95.276 327.336 95.0287 327.102 94.702C326.878 94.3753 326.766 93.9787 326.766 93.512C326.766 93.036 326.878 92.644 327.102 92.336C327.336 92.0187 327.648 91.7807 328.04 91.622C328.442 91.4633 328.894 91.384 329.398 91.384H331.498V90.936C331.498 90.5347 331.377 90.2127 331.134 89.97C330.892 89.7273 330.518 89.606 330.014 89.606C329.52 89.606 329.142 89.7227 328.88 89.956C328.619 90.1893 328.446 90.4927 328.362 90.866L327.018 90.432C327.13 90.0587 327.308 89.7227 327.55 89.424C327.802 89.116 328.134 88.8687 328.544 88.682C328.955 88.4953 329.45 88.402 330.028 88.402C330.924 88.402 331.629 88.6307 332.142 89.088C332.656 89.5453 332.912 90.194 332.912 91.034V93.876C332.912 94.156 333.043 94.296 333.304 94.296H333.892V95.5H332.814C332.488 95.5 332.222 95.416 332.016 95.248C331.811 95.08 331.708 94.8513 331.708 94.562V94.52H331.498C331.424 94.66 331.312 94.8233 331.162 95.01C331.013 95.1967 330.794 95.36 330.504 95.5C330.215 95.6307 329.832 95.696 329.356 95.696ZM329.566 94.506C330.145 94.506 330.612 94.3427 330.966 94.016C331.321 93.68 331.498 93.2227 331.498 92.644V92.504H329.482C329.1 92.504 328.792 92.588 328.558 92.756C328.325 92.9147 328.208 93.1527 328.208 93.47C328.208 93.7873 328.33 94.0393 328.572 94.226C328.815 94.4127 329.146 94.506 329.566 94.506ZM336.508 95.5L334.184 88.598H335.71L337.544 94.436H337.768L339.602 88.598H341.128L338.804 95.5H336.508ZM342.863 93.68V92.238L347.329 90.712V90.488L342.863 88.962V87.52L348.743 89.69V91.51L342.863 93.68Z" fill="#1C1917"/>
<rect x="256.5" y="108.5" width="186" height="36" fill="#FFFBEB"/>
<rect x="256.5" y="108.5" width="186" height="36" stroke="#292524"/>
<path fill-rule="evenodd" clip-rule="evenodd" d="M277.5 121.5V124H287.5V121.5H277.5ZM277.5 120.25C277.168 120.25 276.851 120.382 276.616 120.616C276.382 120.851 276.25 121.168 276.25 121.5V124C276.25 124.332 276.382 124.649 276.616 124.884C276.851 125.118 277.168 125.25 277.5 125.25H287.5C287.832 125.25 288.149 125.118 288.384 124.884C288.618 124.649 288.75 124.332 288.75 124V121.5C288.75 121.168 288.618 120.851 288.384 120.616C288.149 120.382 287.832 120.25 287.5 120.25H277.5ZM277.5 129V131.5H282.5V129H277.5ZM277.5 127.75C277.168 127.75 276.851 127.882 276.616 128.116C276.382 128.351 276.25 128.668 276.25 129V131.5C276.25 131.832 276.382 132.149 276.616 132.384C276.851 132.618 277.168 132.75 277.5 132.75H282.5C282.832 132.75 283.149 132.618 283.384 132.384C283.618 132.149 283.75 131.832 283.75 131.5V129C283.75 128.668 283.618 128.351 283.384 128.116C283.149 127.882 282.832 127.75 282.5 127.75H277.5Z" fill="#44403C"/>
<path d="M308.21 129.68L302.33 127.51V125.69L308.21 123.52V124.962L303.758 126.488V126.712L308.21 128.238V129.68ZM313.503 131.696C312.626 131.696 311.898 131.5 311.319 131.108C310.741 130.716 310.386 130.123 310.255 129.33L311.599 129.008C311.674 129.391 311.8 129.694 311.977 129.918C312.155 130.142 312.374 130.301 312.635 130.394C312.906 130.487 313.195 130.534 313.503 130.534C313.961 130.534 314.311 130.445 314.553 130.268C314.805 130.091 314.931 129.862 314.931 129.582C314.931 129.302 314.815 129.097 314.581 128.966C314.348 128.835 314.003 128.728 313.545 128.644L313.069 128.56C312.603 128.476 312.178 128.355 311.795 128.196C311.413 128.037 311.109 127.818 310.885 127.538C310.661 127.258 310.549 126.899 310.549 126.46C310.549 125.807 310.792 125.303 311.277 124.948C311.763 124.584 312.407 124.402 313.209 124.402C313.984 124.402 314.619 124.579 315.113 124.934C315.617 125.279 315.944 125.751 316.093 126.348L314.749 126.726C314.665 126.306 314.488 126.012 314.217 125.844C313.947 125.667 313.611 125.578 313.209 125.578C312.817 125.578 312.509 125.653 312.285 125.802C312.061 125.942 311.949 126.143 311.949 126.404C311.949 126.684 312.057 126.889 312.271 127.02C312.495 127.151 312.794 127.249 313.167 127.314L313.657 127.398C314.152 127.482 314.605 127.599 315.015 127.748C315.426 127.897 315.748 128.112 315.981 128.392C316.224 128.672 316.345 129.045 316.345 129.512C316.345 130.203 316.089 130.739 315.575 131.122C315.062 131.505 314.371 131.696 313.503 131.696ZM321.195 131.696C320.495 131.696 319.883 131.551 319.361 131.262C318.838 130.963 318.427 130.548 318.129 130.016C317.839 129.475 317.695 128.849 317.695 128.14V127.972C317.695 127.253 317.839 126.628 318.129 126.096C318.418 125.555 318.819 125.139 319.333 124.85C319.855 124.551 320.457 124.402 321.139 124.402C321.801 124.402 322.38 124.551 322.875 124.85C323.379 125.139 323.771 125.545 324.051 126.068C324.331 126.591 324.471 127.202 324.471 127.902V128.448H319.165C319.183 129.055 319.384 129.54 319.767 129.904C320.159 130.259 320.644 130.436 321.223 130.436C321.764 130.436 322.17 130.315 322.441 130.072C322.721 129.829 322.935 129.549 323.085 129.232L324.275 129.848C324.144 130.109 323.953 130.385 323.701 130.674C323.458 130.963 323.136 131.206 322.735 131.402C322.333 131.598 321.82 131.696 321.195 131.696ZM319.179 127.342H323.001C322.963 126.819 322.777 126.413 322.441 126.124C322.105 125.825 321.666 125.676 321.125 125.676C320.583 125.676 320.14 125.825 319.795 126.124C319.459 126.413 319.253 126.819 319.179 127.342ZM329.413 131.696C328.75 131.696 328.148 131.556 327.607 131.276C327.075 130.996 326.65 130.59 326.333 130.058C326.025 129.526 325.871 128.887 325.871 128.14V127.958C325.871 127.211 326.025 126.577 326.333 126.054C326.65 125.522 327.075 125.116 327.607 124.836C328.148 124.547 328.75 124.402 329.413 124.402C330.075 124.402 330.64 124.523 331.107 124.766C331.573 125.009 331.947 125.331 332.227 125.732C332.516 126.133 332.703 126.577 332.787 127.062L331.387 127.356C331.34 127.048 331.242 126.768 331.093 126.516C330.943 126.264 330.733 126.063 330.463 125.914C330.192 125.765 329.851 125.69 329.441 125.69C329.039 125.69 328.675 125.783 328.349 125.97C328.031 126.147 327.779 126.409 327.593 126.754C327.406 127.09 327.313 127.501 327.313 127.986V128.112C327.313 128.597 327.406 129.013 327.593 129.358C327.779 129.703 328.031 129.965 328.349 130.142C328.675 130.319 329.039 130.408 329.441 130.408C330.047 130.408 330.509 130.254 330.827 129.946C331.144 129.629 331.345 129.227 331.429 128.742L332.829 129.064C332.717 129.54 332.516 129.979 332.227 130.38C331.947 130.781 331.573 131.103 331.107 131.346C330.64 131.579 330.075 131.696 329.413 131.696ZM336.822 131.5C336.402 131.5 336.066 131.374 335.814 131.122C335.571 130.87 335.45 130.534 335.45 130.114V125.816H333.546V124.598H335.45V122.316H336.892V124.598H338.95V125.816H336.892V129.862C336.892 130.142 337.023 130.282 337.284 130.282H338.726V131.5H336.822ZM340.644 131.5V124.598H342.086V131.5H340.644ZM341.372 123.66C341.092 123.66 340.854 123.571 340.658 123.394C340.471 123.207 340.378 122.969 340.378 122.68C340.378 122.391 340.471 122.157 340.658 121.98C340.854 121.793 341.092 121.7 341.372 121.7C341.661 121.7 341.899 121.793 342.086 121.98C342.273 122.157 342.366 122.391 342.366 122.68C342.366 122.969 342.273 123.207 342.086 123.394C341.899 123.571 341.661 123.66 341.372 123.66ZM347.46 131.696C346.769 131.696 346.153 131.556 345.612 131.276C345.08 130.987 344.66 130.576 344.352 130.044C344.044 129.512 343.89 128.882 343.89 128.154V127.944C343.89 127.216 344.044 126.591 344.352 126.068C344.66 125.536 345.08 125.125 345.612 124.836C346.153 124.547 346.769 124.402 347.46 124.402C348.151 124.402 348.767 124.547 349.308 124.836C349.849 125.125 350.274 125.536 350.582 126.068C350.89 126.591 351.044 127.216 351.044 127.944V128.154C351.044 128.882 350.89 129.512 350.582 130.044C350.274 130.576 349.849 130.987 349.308 131.276C348.767 131.556 348.151 131.696 347.46 131.696ZM347.46 130.408C348.095 130.408 348.608 130.207 349 129.806C349.401 129.395 349.602 128.831 349.602 128.112V127.986C349.602 127.267 349.406 126.707 349.014 126.306C348.622 125.895 348.104 125.69 347.46 125.69C346.835 125.69 346.321 125.895 345.92 126.306C345.528 126.707 345.332 127.267 345.332 127.986V128.112C345.332 128.831 345.528 129.395 345.92 129.806C346.321 130.207 346.835 130.408 347.46 130.408ZM352.839 131.5V124.598H354.253V125.634H354.477C354.608 125.354 354.841 125.093 355.177 124.85C355.513 124.607 356.013 124.486 356.675 124.486C357.198 124.486 357.66 124.603 358.061 124.836C358.472 125.069 358.794 125.401 359.027 125.83C359.261 126.25 359.377 126.759 359.377 127.356V131.5H357.935V127.468C357.935 126.871 357.786 126.432 357.487 126.152C357.189 125.863 356.778 125.718 356.255 125.718C355.658 125.718 355.177 125.914 354.813 126.306C354.459 126.698 354.281 127.267 354.281 128.014V131.5H352.839ZM361.789 129.68V128.238L366.255 126.712V126.488L361.789 124.962V123.52L367.669 125.69V127.51L361.789 129.68Z" fill="#1C1917"/>
<rect x="256.5" y="144.5" width="186" height="36" fill="#FFFBEB"/>
<rect x="256.5" y="144.5" width="186" height="36" stroke="#292524"/>
<path fill-rule="evenodd" clip-rule="evenodd" d="M285.5 157.5H288V167.5H285.5V157.5ZM284.25 157.5C284.25 157.168 284.382 156.851 284.616 156.616C284.851 156.382 285.168 156.25 285.5 156.25H288C288.332 156.25 288.649 156.382 288.884 156.616C289.118 156.851 289.25 157.168 289.25 157.5V167.5C289.25 167.832 289.118 168.149 288.884 168.384C288.649 168.618 288.332 168.75 288 168.75H285.5C285.168 168.75 284.851 168.618 284.616 168.384C284.382 168.149 284.25 167.832 284.25 167.5V157.5ZM293 160H295.5V165H293V160ZM291.75 160C291.75 159.668 291.882 159.351 292.116 159.116C292.351 158.882 292.668 158.75 293 158.75H295.5C295.832 158.75 296.149 158.882 296.384 159.116C296.618 159.351 296.75 159.668 296.75 160V165C296.75 165.332 296.618 165.649 296.384 165.884C296.149 166.118 295.832 166.25 295.5 166.25H293C292.668 166.25 292.351 166.118 292.116 165.884C291.882 165.649 291.75 165.332 291.75 165V160Z" fill="#44403C"/>
<path d="M315.833 165.68L309.953 163.51V161.69L315.833 159.52V160.962L311.381 162.488V162.712L315.833 164.238V165.68ZM320.44 167.696C319.946 167.696 319.502 167.612 319.11 167.444C318.728 167.276 318.42 167.029 318.186 166.702C317.962 166.375 317.85 165.979 317.85 165.512C317.85 165.036 317.962 164.644 318.186 164.336C318.42 164.019 318.732 163.781 319.124 163.622C319.526 163.463 319.978 163.384 320.482 163.384H322.582V162.936C322.582 162.535 322.461 162.213 322.218 161.97C321.976 161.727 321.602 161.606 321.098 161.606C320.604 161.606 320.226 161.723 319.964 161.956C319.703 162.189 319.53 162.493 319.446 162.866L318.102 162.432C318.214 162.059 318.392 161.723 318.634 161.424C318.886 161.116 319.218 160.869 319.628 160.682C320.039 160.495 320.534 160.402 321.112 160.402C322.008 160.402 322.713 160.631 323.226 161.088C323.74 161.545 323.996 162.194 323.996 163.034V165.876C323.996 166.156 324.127 166.296 324.388 166.296H324.976V167.5H323.898C323.572 167.5 323.306 167.416 323.1 167.248C322.895 167.08 322.792 166.851 322.792 166.562V166.52H322.582C322.508 166.66 322.396 166.823 322.246 167.01C322.097 167.197 321.878 167.36 321.588 167.5C321.299 167.631 320.916 167.696 320.44 167.696ZM320.65 166.506C321.229 166.506 321.696 166.343 322.05 166.016C322.405 165.68 322.582 165.223 322.582 164.644V164.504H320.566C320.184 164.504 319.876 164.588 319.642 164.756C319.409 164.915 319.292 165.153 319.292 165.47C319.292 165.787 319.414 166.039 319.656 166.226C319.899 166.413 320.23 166.506 320.65 166.506ZM326.378 167.5V160.598H327.792V161.41H328.016C328.128 161.121 328.306 160.911 328.548 160.78C328.8 160.64 329.108 160.57 329.472 160.57H330.298V161.872H329.416C328.95 161.872 328.567 162.003 328.268 162.264C327.97 162.516 327.82 162.908 327.82 163.44V167.5H326.378ZM334.383 167.5C333.963 167.5 333.627 167.374 333.375 167.122C333.132 166.87 333.011 166.534 333.011 166.114V161.816H331.107V160.598H333.011V158.316H334.453V160.598H336.511V161.816H334.453V165.862C334.453 166.142 334.583 166.282 334.845 166.282H336.287V167.5H334.383ZM338.205 167.5V160.598H339.647V167.5H338.205ZM338.933 159.66C338.653 159.66 338.415 159.571 338.219 159.394C338.032 159.207 337.939 158.969 337.939 158.68C337.939 158.391 338.032 158.157 338.219 157.98C338.415 157.793 338.653 157.7 338.933 157.7C339.222 157.7 339.46 157.793 339.647 157.98C339.833 158.157 339.927 158.391 339.927 158.68C339.927 158.969 339.833 159.207 339.647 159.394C339.46 159.571 339.222 159.66 338.933 159.66ZM344.993 167.696C344.33 167.696 343.728 167.556 343.187 167.276C342.655 166.996 342.23 166.59 341.913 166.058C341.605 165.526 341.451 164.887 341.451 164.14V163.958C341.451 163.211 341.605 162.577 341.913 162.054C342.23 161.522 342.655 161.116 343.187 160.836C343.728 160.547 344.33 160.402 344.993 160.402C345.655 160.402 346.22 160.523 346.687 160.766C347.153 161.009 347.527 161.331 347.807 161.732C348.096 162.133 348.283 162.577 348.367 163.062L346.967 163.356C346.92 163.048 346.822 162.768 346.673 162.516C346.523 162.264 346.313 162.063 346.043 161.914C345.772 161.765 345.431 161.69 345.021 161.69C344.619 161.69 344.255 161.783 343.929 161.97C343.611 162.147 343.359 162.409 343.173 162.754C342.986 163.09 342.893 163.501 342.893 163.986V164.112C342.893 164.597 342.986 165.013 343.173 165.358C343.359 165.703 343.611 165.965 343.929 166.142C344.255 166.319 344.619 166.408 345.021 166.408C345.627 166.408 346.089 166.254 346.407 165.946C346.724 165.629 346.925 165.227 347.009 164.742L348.409 165.064C348.297 165.54 348.096 165.979 347.807 166.38C347.527 166.781 347.153 167.103 346.687 167.346C346.22 167.579 345.655 167.696 344.993 167.696ZM350.072 167.5V157.7H351.514V167.5H350.072ZM356.818 167.696C356.118 167.696 355.507 167.551 354.984 167.262C354.461 166.963 354.051 166.548 353.752 166.016C353.463 165.475 353.318 164.849 353.318 164.14V163.972C353.318 163.253 353.463 162.628 353.752 162.096C354.041 161.555 354.443 161.139 354.956 160.85C355.479 160.551 356.081 160.402 356.762 160.402C357.425 160.402 358.003 160.551 358.498 160.85C359.002 161.139 359.394 161.545 359.674 162.068C359.954 162.591 360.094 163.202 360.094 163.902V164.448H354.788C354.807 165.055 355.007 165.54 355.39 165.904C355.782 166.259 356.267 166.436 356.846 166.436C357.387 166.436 357.793 166.315 358.064 166.072C358.344 165.829 358.559 165.549 358.708 165.232L359.898 165.848C359.767 166.109 359.576 166.385 359.324 166.674C359.081 166.963 358.759 167.206 358.358 167.402C357.957 167.598 357.443 167.696 356.818 167.696ZM354.802 163.342H358.624C358.587 162.819 358.4 162.413 358.064 162.124C357.728 161.825 357.289 161.676 356.748 161.676C356.207 161.676 355.763 161.825 355.418 162.124C355.082 162.413 354.877 162.819 354.802 163.342ZM362.166 165.68V164.238L366.632 162.712V162.488L362.166 160.962V159.52L368.046 161.69V163.51L362.166 165.68Z" fill="#1C1917"/>
<rect x="256.5" y="180.5" width="186" height="36" fill="#FFFBEB"/>
<rect x="256.5" y="180.5" width="186" height="36" stroke="#292524"/>
<path fill-rule="evenodd" clip-rule="evenodd" d="M285.5 193.5H288V203.5H285.5V193.5ZM284.25 193.5C284.25 193.168 284.382 192.851 284.616 192.616C284.851 192.382 285.168 192.25 285.5 192.25H288C288.332 192.25 288.649 192.382 288.884 192.616C289.118 192.851 289.25 193.168 289.25 193.5V203.5C289.25 203.832 289.118 204.149 288.884 204.384C288.649 204.618 288.332 204.75 288 204.75H285.5C285.168 204.75 284.851 204.618 284.616 204.384C284.382 204.149 284.25 203.832 284.25 203.5V193.5ZM293 193.5H295.5V198.5H293V193.5ZM291.75 193.5C291.75 193.168 291.882 192.851 292.116 192.616C292.351 192.382 292.668 192.25 293 192.25H295.5C295.832 192.25 296.149 192.382 296.384 192.616C296.618 192.851 296.75 193.168 296.75 193.5V198.5C296.75 198.832 296.618 199.149 296.384 199.384C296.149 199.618 295.832 199.75 295.5 199.75H293C292.668 199.75 292.351 199.618 292.116 199.384C291.882 199.149 291.75 198.832 291.75 198.5V193.5Z" fill="#44403C"/>
<path d="M316.225 201.68L310.345 199.51V197.69L316.225 195.52V196.962L311.773 198.488V198.712L316.225 200.238V201.68ZM322.681 203.696C322.009 203.696 321.491 203.575 321.127 203.332C320.772 203.089 320.506 202.819 320.329 202.52H320.105V203.5H318.691V193.7H320.133V197.536H320.357C320.469 197.349 320.618 197.172 320.805 197.004C320.992 196.827 321.239 196.682 321.547 196.57C321.855 196.458 322.233 196.402 322.681 196.402C323.26 196.402 323.792 196.542 324.277 196.822C324.762 197.102 325.15 197.508 325.439 198.04C325.728 198.572 325.873 199.207 325.873 199.944V200.154C325.873 200.901 325.724 201.54 325.425 202.072C325.136 202.595 324.748 202.996 324.263 203.276C323.787 203.556 323.26 203.696 322.681 203.696ZM322.261 202.436C322.886 202.436 323.4 202.235 323.801 201.834C324.212 201.433 324.417 200.859 324.417 200.112V199.986C324.417 199.249 324.216 198.679 323.815 198.278C323.414 197.877 322.896 197.676 322.261 197.676C321.645 197.676 321.132 197.877 320.721 198.278C320.32 198.679 320.119 199.249 320.119 199.986V200.112C320.119 200.859 320.32 201.433 320.721 201.834C321.132 202.235 321.645 202.436 322.261 202.436ZM330.306 203.626C329.783 203.626 329.316 203.509 328.906 203.276C328.495 203.043 328.173 202.711 327.94 202.282C327.706 201.853 327.59 201.339 327.59 200.742V196.598H329.032V200.644C329.032 201.241 329.181 201.685 329.48 201.974C329.778 202.254 330.194 202.394 330.726 202.394C331.314 202.394 331.785 202.198 332.14 201.806C332.504 201.405 332.686 200.831 332.686 200.084V196.598H334.128V203.5H332.714V202.464H332.49C332.359 202.744 332.126 203.01 331.79 203.262C331.454 203.505 330.959 203.626 330.306 203.626ZM338.849 203.5C338.429 203.5 338.093 203.374 337.841 203.122C337.599 202.87 337.477 202.534 337.477 202.114V197.816H335.573V196.598H337.477V194.316H338.919V196.598H340.543V197.816H338.919V201.862C338.919 202.142 339.05 202.282 339.311 202.282H340.753V203.5H338.849ZM343.385 203.5C342.965 203.5 342.629 203.374 342.377 203.122C342.125 202.87 341.999 202.534 341.999 202.114V197.816H340.543V196.598H341.999V194.316H343.441V196.598H345.513V197.816H343.441V201.862C343.441 202.142 343.577 202.282 343.847 202.282H345.275V203.5H343.385ZM350.444 203.696C349.754 203.696 349.138 203.556 348.596 203.276C348.064 202.987 347.644 202.576 347.336 202.044C347.028 201.512 346.874 200.882 346.874 200.154V199.944C346.874 199.216 347.028 198.591 347.336 198.068C347.644 197.536 348.064 197.125 348.596 196.836C349.138 196.547 349.754 196.402 350.444 196.402C351.135 196.402 351.751 196.547 352.292 196.836C352.834 197.125 353.258 197.536 353.566 198.068C353.874 198.591 354.028 199.216 354.028 199.944V200.154C354.028 200.882 353.874 201.512 353.566 202.044C353.258 202.576 352.834 202.987 352.292 203.276C351.751 203.556 351.135 203.696 350.444 203.696ZM350.444 202.408C351.079 202.408 351.592 202.207 351.984 201.806C352.386 201.395 352.586 200.831 352.586 200.112V199.986C352.586 199.267 352.39 198.707 351.998 198.306C351.606 197.895 351.088 197.69 350.444 197.69C349.819 197.69 349.306 197.895 348.904 198.306C348.512 198.707 348.316 199.267 348.316 199.986V200.112C348.316 200.831 348.512 201.395 348.904 201.806C349.306 202.207 349.819 202.408 350.444 202.408ZM355.824 203.5V196.598H357.238V197.634H357.462C357.592 197.354 357.826 197.093 358.162 196.85C358.498 196.607 358.997 196.486 359.66 196.486C360.182 196.486 360.644 196.603 361.046 196.836C361.456 197.069 361.778 197.401 362.012 197.83C362.245 198.25 362.362 198.759 362.362 199.356V203.5H360.92V199.468C360.92 198.871 360.77 198.432 360.472 198.152C360.173 197.863 359.762 197.718 359.24 197.718C358.642 197.718 358.162 197.914 357.798 198.306C357.443 198.698 357.266 199.267 357.266 200.014V203.5H355.824ZM364.773 201.68V200.238L369.239 198.712V198.488L364.773 196.962V195.52L370.653 197.69V199.51L364.773 201.68Z" fill="#1C1917"/>
</svg>
