<svg width="221" height="168" viewBox="0 0 221 168" fill="none" xmlns="http://www.w3.org/2000/svg">
<g clip-path="url(#clip0_1099_23422)">
<mask id="path-3-inside-1_1099_23422" fill="white">
<path d="M0 0H221V40H0V0Z"/>
</mask>
<path d="M221 40V39H0V40V41H221V40Z" fill="#E7E5E4" mask="url(#path-3-inside-1_1099_23422)"/>
<path d="M12.7767 24V16.125H14.2033V22.8041H17.6717V24H12.7767ZM20.6029 24.1192C20.2286 24.1192 19.8915 24.0526 19.5916 23.9193C19.2943 23.7834 19.0584 23.5834 18.8841 23.3194C18.7123 23.0554 18.6265 22.7298 18.6265 22.3427C18.6265 22.0095 18.688 21.7339 18.811 21.516C18.9341 21.2981 19.102 21.1238 19.3148 20.993C19.5275 20.8623 19.7672 20.7636 20.0338 20.697C20.303 20.6277 20.5811 20.5778 20.8682 20.547C21.2143 20.5111 21.495 20.4791 21.7103 20.4509C21.9257 20.4201 22.082 20.374 22.1795 20.3124C22.2794 20.2484 22.3294 20.1497 22.3294 20.0164V19.9933C22.3294 19.7036 22.2435 19.4793 22.0718 19.3204C21.9 19.1614 21.6527 19.082 21.3297 19.082C20.9887 19.082 20.7183 19.1563 20.5183 19.305C20.3209 19.4537 20.1876 19.6293 20.1184 19.8318L18.8187 19.6472C18.9213 19.2883 19.0905 18.9884 19.3263 18.7474C19.5621 18.5039 19.8505 18.3219 20.1915 18.2014C20.5324 18.0784 20.9092 18.0168 21.322 18.0168C21.6065 18.0168 21.8898 18.0502 22.1718 18.1168C22.4537 18.1835 22.7114 18.2937 22.9446 18.4475C23.1779 18.5988 23.3651 18.8051 23.506 19.0666C23.6496 19.3281 23.7214 19.6549 23.7214 20.0471V24H22.3832V23.1887H22.3371C22.2525 23.3527 22.1333 23.5065 21.9795 23.6501C21.8283 23.7911 21.6373 23.9052 21.4066 23.9923C21.1784 24.0769 20.9105 24.1192 20.6029 24.1192ZM20.9644 23.0964C21.2438 23.0964 21.486 23.0413 21.6911 22.931C21.8962 22.8182 22.0538 22.6696 22.1641 22.485C22.2769 22.3004 22.3333 22.0992 22.3333 21.8813V21.1853C22.2897 21.2212 22.2153 21.2545 22.1102 21.2853C22.0077 21.316 21.8923 21.343 21.7642 21.366C21.636 21.3891 21.5091 21.4096 21.3835 21.4276C21.2579 21.4455 21.1489 21.4609 21.0566 21.4737C20.849 21.5019 20.6632 21.548 20.4991 21.6121C20.335 21.6762 20.2056 21.7659 20.1107 21.8813C20.0159 21.9941 19.9685 22.1402 19.9685 22.3196C19.9685 22.576 20.062 22.7695 20.2492 22.9003C20.4363 23.031 20.6747 23.0964 20.9644 23.0964ZM25.8297 26.2148C25.64 26.2148 25.4644 26.1995 25.3029 26.1687C25.144 26.1405 25.0171 26.1072 24.9223 26.0687L25.2453 24.9844C25.4478 25.0433 25.6285 25.0715 25.7874 25.069C25.9464 25.0664 26.0861 25.0164 26.2066 24.919C26.3296 24.8242 26.4334 24.6652 26.518 24.4422L26.6372 24.123L24.4954 18.0937H25.972L27.3332 22.5542H27.3947L28.7598 18.0937H30.2402L27.8754 24.7152C27.7652 25.028 27.619 25.2958 27.437 25.5189C27.255 25.7444 27.032 25.9162 26.768 26.0341C26.5065 26.1546 26.1937 26.2148 25.8297 26.2148ZM33.6722 24.1154C33.0801 24.1154 32.5687 23.9923 32.138 23.7462C31.7099 23.4976 31.3805 23.1464 31.1498 22.6926C30.9191 22.2363 30.8037 21.6993 30.8037 21.0815C30.8037 20.4739 30.9191 19.9407 31.1498 19.4819C31.3831 19.0204 31.7086 18.6616 32.1265 18.4052C32.5443 18.1463 33.0352 18.0168 33.5992 18.0168C33.9632 18.0168 34.3067 18.0758 34.6297 18.1937C34.9553 18.3091 35.2424 18.4885 35.491 18.7321C35.7423 18.9756 35.9396 19.2858 36.0832 19.6626C36.2268 20.0369 36.2985 20.4829 36.2985 21.0007V21.4276H31.4574V20.4893H34.9642C34.9617 20.2227 34.904 19.9856 34.7912 19.778C34.6784 19.5677 34.5208 19.4024 34.3182 19.2819C34.1183 19.1614 33.885 19.1012 33.6184 19.1012C33.3339 19.1012 33.0839 19.1704 32.8686 19.3088C32.6533 19.4447 32.4854 19.6241 32.3649 19.8472C32.247 20.0676 32.1867 20.3099 32.1842 20.5739V21.3929C32.1842 21.7365 32.247 22.0312 32.3726 22.2773C32.4982 22.5209 32.6738 22.708 32.8994 22.8387C33.1249 22.9669 33.389 23.031 33.6915 23.031C33.894 23.031 34.0773 23.0028 34.2413 22.9464C34.4054 22.8875 34.5477 22.8016 34.6682 22.6888C34.7886 22.576 34.8796 22.4363 34.9412 22.2697L36.2409 22.4158C36.1588 22.7593 36.0024 23.0592 35.7717 23.3156C35.5436 23.5693 35.2514 23.7667 34.895 23.9077C34.5387 24.0461 34.1311 24.1154 33.6722 24.1154ZM37.5311 24V18.0937H38.8808V19.0781H38.9423C39.05 18.7372 39.2346 18.4744 39.496 18.2899C39.7601 18.1027 40.0613 18.0092 40.3997 18.0092C40.4766 18.0092 40.5624 18.013 40.6573 18.0207C40.7547 18.0258 40.8354 18.0348 40.8995 18.0476V19.3281C40.8406 19.3076 40.747 19.2896 40.6188 19.2742C40.4932 19.2563 40.3715 19.2473 40.2535 19.2473C39.9998 19.2473 39.7716 19.3024 39.5691 19.4127C39.3691 19.5203 39.2115 19.6703 39.0961 19.8625C38.9808 20.0548 38.9231 20.2766 38.9231 20.5278V24H37.5311ZM46.5474 19.6549L45.2785 19.7933C45.2426 19.6652 45.1798 19.5447 45.0901 19.4319C45.0029 19.3191 44.885 19.2281 44.7363 19.1589C44.5876 19.0897 44.4056 19.0551 44.1903 19.0551C43.9006 19.0551 43.6571 19.1179 43.4597 19.2435C43.2649 19.3691 43.1687 19.5319 43.1713 19.7318C43.1687 19.9036 43.2315 20.0433 43.3597 20.1509C43.4905 20.2586 43.7058 20.347 44.0057 20.4163L45.0132 20.6316C45.572 20.7521 45.9873 20.9431 46.259 21.2045C46.5333 21.466 46.6717 21.8082 46.6743 22.2312C46.6717 22.6029 46.5628 22.931 46.3474 23.2156C46.1347 23.4976 45.8386 23.718 45.4592 23.877C45.0798 24.0359 44.644 24.1154 44.1518 24.1154C43.4289 24.1154 42.847 23.9641 42.4061 23.6616C41.9652 23.3566 41.7024 22.9323 41.6178 22.3889L42.9752 22.2581C43.0367 22.5247 43.1675 22.726 43.3674 22.8618C43.5674 22.9977 43.8276 23.0656 44.148 23.0656C44.4787 23.0656 44.744 22.9977 44.9439 22.8618C45.1465 22.726 45.2477 22.558 45.2477 22.3581C45.2477 22.1889 45.1823 22.0492 45.0516 21.939C44.9234 21.8287 44.7235 21.7441 44.4518 21.6852L43.4443 21.4737C42.8778 21.3558 42.4587 21.1571 42.1869 20.8777C41.9152 20.5957 41.7806 20.2394 41.7832 19.8087C41.7806 19.4447 41.8793 19.1294 42.0793 18.8628C42.2818 18.5936 42.5625 18.386 42.9214 18.2399C43.2828 18.0912 43.6994 18.0168 44.1711 18.0168C44.8632 18.0168 45.4079 18.1642 45.8053 18.459C46.2052 18.7538 46.4526 19.1525 46.5474 19.6549Z" fill="#292524"/>
<path fill-rule="evenodd" clip-rule="evenodd" d="M191.5 15.0001C191.367 15.0001 191.24 15.0528 191.146 15.1466C191.053 15.2404 191 15.3675 191 15.5001C191 15.6328 191.053 15.7599 191.146 15.8537C191.24 15.9475 191.367 16.0001 191.5 16.0001H196.5C196.633 16.0001 196.76 15.9475 196.854 15.8537C196.947 15.7599 197 15.6328 197 15.5001C197 15.3675 196.947 15.2404 196.854 15.1466C196.76 15.0528 196.633 15.0001 196.5 15.0001H191.5ZM191.5 18.0001C191.367 18.0001 191.24 18.0528 191.146 18.1466C191.053 18.2404 191 18.3675 191 18.5001C191 18.6328 191.053 18.7599 191.146 18.8537C191.24 18.9475 191.367 19.0001 191.5 19.0001H196.5C196.633 19.0001 196.76 18.9475 196.854 18.8537C196.947 18.7599 197 18.6328 197 18.5001C197 18.3675 196.947 18.2404 196.854 18.1466C196.76 18.0528 196.633 18.0001 196.5 18.0001H191.5ZM191 21.5001C191 21.3675 191.053 21.2404 191.146 21.1466C191.24 21.0528 191.367 21.0001 191.5 21.0001H196.5C196.633 21.0001 196.76 21.0528 196.854 21.1466C196.947 21.2404 197 21.3675 197 21.5001C197 21.6328 196.947 21.7599 196.854 21.8537C196.76 21.9475 196.633 22.0001 196.5 22.0001H191.5C191.367 22.0001 191.24 21.9475 191.146 21.8537C191.053 21.7599 191 21.6328 191 21.5001ZM191.5 24.0001C191.367 24.0001 191.24 24.0528 191.146 24.1466C191.053 24.2404 191 24.3675 191 24.5001C191 24.6328 191.053 24.7599 191.146 24.8537C191.24 24.9475 191.367 25.0001 191.5 25.0001H196.5C196.633 25.0001 196.76 24.9475 196.854 24.8537C196.947 24.7599 197 24.6328 197 24.5001C197 24.3675 196.947 24.2404 196.854 24.1466C196.76 24.0528 196.633 24.0001 196.5 24.0001H191.5ZM198.146 24.1461L200.146 22.1461C200.192 22.0996 200.248 22.0626 200.308 22.0374C200.369 22.0122 200.434 21.9992 200.5 21.9992C200.566 21.9992 200.631 22.0122 200.692 22.0374C200.752 22.0626 200.808 22.0996 200.854 22.1461L202.854 24.1461C202.948 24.24 203.001 24.3674 203.001 24.5001C203.001 24.6329 202.948 24.7603 202.854 24.8541C202.76 24.948 202.633 25.0008 202.5 25.0008C202.367 25.0008 202.24 24.948 202.146 24.8541L200.5 23.2071L198.854 24.8541C198.76 24.948 198.633 25.0008 198.5 25.0008C198.367 25.0008 198.24 24.948 198.146 24.8541C198.052 24.7603 197.999 24.6329 197.999 24.5001C197.999 24.3674 198.052 24.24 198.146 24.1461ZM200.854 17.8541C200.808 17.9007 200.752 17.9376 200.692 17.9629C200.631 17.9881 200.566 18.001 200.5 18.001C200.434 18.001 200.369 17.9881 200.308 17.9629C200.248 17.9376 200.192 17.9007 200.146 17.8541L198.146 15.8541C198.1 15.8077 198.063 15.7525 198.037 15.6917C198.012 15.631 197.999 15.5659 197.999 15.5001C197.999 15.4344 198.012 15.3693 198.037 15.3086C198.063 15.2478 198.1 15.1926 198.146 15.1461C198.24 15.0523 198.367 14.9995 198.5 14.9995C198.566 14.9995 198.631 15.0125 198.692 15.0376C198.752 15.0628 198.808 15.0997 198.854 15.1461L200.5 16.7931L202.146 15.1461C202.24 15.0523 202.367 14.9995 202.5 14.9995C202.633 14.9995 202.76 15.0523 202.854 15.1461C202.948 15.24 203.001 15.3674 203.001 15.5001C203.001 15.6329 202.948 15.7603 202.854 15.8541L200.854 17.8541Z" fill="#292524"/>
<path fill-rule="evenodd" clip-rule="evenodd" d="M16 52H18V60H16V52ZM15 52C15 51.7348 15.1054 51.4804 15.2929 51.2929C15.4804 51.1054 15.7348 51 16 51H18C18.2652 51 18.5196 51.1054 18.7071 51.2929C18.8946 51.4804 19 51.7348 19 52V60C19 60.2652 18.8946 60.5196 18.7071 60.7071C18.5196 60.8946 18.2652 61 18 61H16C15.7348 61 15.4804 60.8946 15.2929 60.7071C15.1054 60.5196 15 60.2652 15 60V52ZM22 54H24V58H22V54ZM21 54C21 53.7348 21.1054 53.4804 21.2929 53.2929C21.4804 53.1054 21.7348 53 22 53H24C24.2652 53 24.5196 53.1054 24.7071 53.2929C24.8946 53.4804 25 53.7348 25 54V58C25 58.2652 24.8946 58.5196 24.7071 58.7071C24.5196 58.8946 24.2652 59 24 59H22C21.7348 59 21.4804 58.8946 21.2929 58.7071C21.1054 58.5196 21 58.2652 21 58V54Z" fill="#A1A1AA"/>
<path d="M32.9688 60V52H35.7656C36.3229 52 36.7826 52.0964 37.1445 52.2891C37.5065 52.4792 37.776 52.7357 37.9531 53.0586C38.1302 53.3789 38.2188 53.7344 38.2188 54.125C38.2188 54.4687 38.1576 54.7526 38.0352 54.9766C37.9154 55.2005 37.7565 55.3776 37.5586 55.5078C37.3633 55.638 37.151 55.7344 36.9219 55.7969V55.875C37.1667 55.8906 37.4128 55.9766 37.6602 56.1328C37.9076 56.2891 38.1146 56.513 38.2813 56.8047C38.4479 57.0964 38.5312 57.4531 38.5312 57.875C38.5312 58.276 38.4401 58.6367 38.2578 58.957C38.0755 59.2773 37.7878 59.5312 37.3945 59.7187C37.0013 59.9062 36.4896 60 35.8594 60H32.9688ZM33.9375 59.1406H35.8594C36.4922 59.1406 36.9414 59.0182 37.207 58.7734C37.4753 58.526 37.6094 58.2266 37.6094 57.875C37.6094 57.6042 37.5404 57.3542 37.4023 57.125C37.2643 56.8932 37.0677 56.7083 36.8125 56.5703C36.5573 56.4297 36.2552 56.3594 35.9063 56.3594H33.9375V59.1406ZM33.9375 55.5156H35.7344C36.026 55.5156 36.2891 55.4583 36.5234 55.3437C36.7604 55.2292 36.9479 55.0677 37.0859 54.8594C37.2266 54.651 37.2969 54.4062 37.2969 54.125C37.2969 53.7734 37.1745 53.4753 36.9297 53.2305C36.6849 52.9831 36.2969 52.8594 35.7656 52.8594H33.9375V55.5156ZM43.8343 57.5469V54H44.7562V60H43.8343V58.9844H43.7718C43.6312 59.2891 43.4124 59.5482 43.1155 59.7617C42.8187 59.9727 42.4437 60.0781 41.9905 60.0781C41.6155 60.0781 41.2822 59.9961 40.9905 59.832C40.6989 59.6654 40.4697 59.4154 40.303 59.082C40.1364 58.7461 40.053 58.3229 40.053 57.8125V54H40.9749V57.75C40.9749 58.1875 41.0973 58.5365 41.3421 58.7969C41.5895 59.0573 41.9046 59.1875 42.2874 59.1875C42.5166 59.1875 42.7497 59.1289 42.9866 59.0117C43.2262 58.8945 43.4267 58.7148 43.5882 58.4727C43.7523 58.2305 43.8343 57.9219 43.8343 57.5469ZM49.109 54V54.7812H45.9996V54H49.109ZM46.9059 52.5625H47.8278V58.2812C47.8278 58.5417 47.8655 58.737 47.9411 58.8672C48.0192 58.9948 48.1181 59.0807 48.2379 59.125C48.3603 59.1667 48.4892 59.1875 48.6246 59.1875C48.7262 59.1875 48.8095 59.1823 48.8746 59.1719C48.9398 59.1589 48.9918 59.1484 49.0309 59.1406L49.2184 59.9687C49.1559 59.9922 49.0687 60.0156 48.9567 60.0391C48.8447 60.0651 48.7028 60.0781 48.5309 60.0781C48.2705 60.0781 48.0153 60.0221 47.7653 59.9102C47.5179 59.7982 47.3121 59.6276 47.1481 59.3984C46.9866 59.1693 46.9059 58.8802 46.9059 58.5312V52.5625ZM53.1601 54V54.7812H50.0507V54H53.1601ZM50.957 52.5625H51.8789V58.2812C51.8789 58.5417 51.9166 58.737 51.9921 58.8672C52.0703 58.9948 52.1692 59.0807 52.289 59.125C52.4114 59.1667 52.5403 59.1875 52.6757 59.1875C52.7773 59.1875 52.8606 59.1823 52.9257 59.1719C52.9908 59.1589 53.0429 59.1484 53.082 59.1406L53.2695 59.9687C53.207 59.9922 53.1198 60.0156 53.0078 60.0391C52.8958 60.0651 52.7539 60.0781 52.582 60.0781C52.3216 60.0781 52.0664 60.0221 51.8164 59.9102C51.569 59.7982 51.3632 59.6276 51.1992 59.3984C51.0377 59.1693 50.957 58.8802 50.957 58.5312V52.5625ZM56.9749 60.125C56.4332 60.125 55.958 59.9961 55.5491 59.7383C55.1429 59.4805 54.8251 59.1198 54.596 58.6562C54.3694 58.1927 54.2561 57.651 54.2561 57.0312C54.2561 56.4062 54.3694 55.8607 54.596 55.3945C54.8251 54.9284 55.1429 54.5664 55.5491 54.3086C55.958 54.0508 56.4332 53.9219 56.9749 53.9219C57.5165 53.9219 57.9905 54.0508 58.3968 54.3086C58.8056 54.5664 59.1233 54.9284 59.3499 55.3945C59.579 55.8607 59.6936 56.4062 59.6936 57.0312C59.6936 57.651 59.579 58.1927 59.3499 58.6562C59.1233 59.1198 58.8056 59.4805 58.3968 59.7383C57.9905 59.9961 57.5165 60.125 56.9749 60.125ZM56.9749 59.2969C57.3863 59.2969 57.7249 59.1914 57.9905 58.9805C58.2561 58.7695 58.4527 58.4922 58.5804 58.1484C58.708 57.8047 58.7718 57.4323 58.7718 57.0312C58.7718 56.6302 58.708 56.2565 58.5804 55.9102C58.4527 55.5638 58.2561 55.2839 57.9905 55.0703C57.7249 54.8568 57.3863 54.75 56.9749 54.75C56.5634 54.75 56.2249 54.8568 55.9593 55.0703C55.6936 55.2839 55.497 55.5638 55.3694 55.9102C55.2418 56.2565 55.178 56.6302 55.178 57.0312C55.178 57.4323 55.2418 57.8047 55.3694 58.1484C55.497 58.4922 55.6936 58.7695 55.9593 58.9805C56.2249 59.1914 56.5634 59.2969 56.9749 59.2969ZM62.0777 56.3906V60H61.1559V54H62.0465V54.9375H62.1246C62.2652 54.6328 62.4788 54.388 62.7652 54.2031C63.0517 54.0156 63.4215 53.9219 63.8746 53.9219C64.2809 53.9219 64.6363 54.0052 64.941 54.1719C65.2457 54.3359 65.4827 54.5859 65.652 54.9219C65.8212 55.2552 65.9059 55.6771 65.9059 56.1875V60H64.984V56.25C64.984 55.7786 64.8616 55.4115 64.6168 55.1484C64.372 54.8828 64.0361 54.75 63.609 54.75C63.3147 54.75 63.0517 54.8138 62.8199 54.9414C62.5908 55.069 62.4098 55.2552 62.277 55.5C62.1441 55.7448 62.0777 56.0417 62.0777 56.3906Z" fill="#292524"/>
<path fill-rule="evenodd" clip-rule="evenodd" d="M34 84H36V92H34V84ZM33 84C33 83.7348 33.1054 83.4804 33.2929 83.2929C33.4804 83.1054 33.7348 83 34 83H36C36.2652 83 36.5196 83.1054 36.7071 83.2929C36.8946 83.4804 37 83.7348 37 84V92C37 92.2652 36.8946 92.5196 36.7071 92.7071C36.5196 92.8946 36.2652 93 36 93H34C33.7348 93 33.4804 92.8946 33.2929 92.7071C33.1054 92.5196 33 92.2652 33 92V84ZM40 86H42V90H40V86ZM39 86C39 85.7348 39.1054 85.4804 39.2929 85.2929C39.4804 85.1054 39.7348 85 40 85H42C42.2652 85 42.5196 85.1054 42.7071 85.2929C42.8946 85.4804 43 85.7348 43 86V90C43 90.2652 42.8946 90.5196 42.7071 90.7071C42.5196 90.8946 42.2652 91 42 91H40C39.7348 91 39.4804 90.8946 39.2929 90.7071C39.1054 90.5196 39 90.2652 39 90V86Z" fill="#A1A1AA"/>
<path d="M55.0938 87.3437L54.2656 87.5781C54.2135 87.4401 54.1367 87.306 54.0352 87.1758C53.9362 87.043 53.8008 86.9336 53.6289 86.8477C53.457 86.7617 53.237 86.7187 52.9688 86.7187C52.6016 86.7187 52.2956 86.8034 52.0508 86.9727C51.8086 87.1393 51.6875 87.3516 51.6875 87.6094C51.6875 87.8385 51.7708 88.0195 51.9375 88.1523C52.1042 88.2852 52.3646 88.3958 52.7188 88.4844L53.6094 88.7031C54.1458 88.8333 54.5456 89.0326 54.8086 89.3008C55.0716 89.5664 55.2031 89.9089 55.2031 90.3281C55.2031 90.6719 55.1042 90.9792 54.9063 91.25C54.7109 91.5208 54.4375 91.7344 54.0859 91.8906C53.7344 92.0469 53.3255 92.125 52.8594 92.125C52.2474 92.125 51.7409 91.9922 51.3398 91.7266C50.9388 91.4609 50.6849 91.0729 50.5781 90.5625L51.4531 90.3437C51.5365 90.6667 51.694 90.9089 51.9258 91.0703C52.1602 91.2318 52.4661 91.3125 52.8438 91.3125C53.2734 91.3125 53.6146 91.2214 53.8672 91.0391C54.1224 90.8542 54.25 90.6328 54.25 90.375C54.25 90.1667 54.1771 89.9922 54.0313 89.8516C53.8854 89.7083 53.6615 89.6016 53.3594 89.5312L52.3594 89.2969C51.8099 89.1667 51.4062 88.9648 51.1484 88.6914C50.8932 88.4154 50.7656 88.0703 50.7656 87.6562C50.7656 87.3177 50.8607 87.0182 51.0508 86.7578C51.2435 86.4974 51.5052 86.293 51.8359 86.1445C52.1693 85.9961 52.5469 85.9219 52.9688 85.9219C53.5625 85.9219 54.0286 86.0521 54.3672 86.3125C54.7083 86.5729 54.9505 86.9167 55.0938 87.3437ZM59.2552 86V86.7812H56.1458V86H59.2552ZM57.0521 84.5625H57.9739V90.2812C57.9739 90.5417 58.0117 90.737 58.0872 90.8672C58.1654 90.9948 58.2643 91.0807 58.3841 91.125C58.5065 91.1667 58.6354 91.1875 58.7708 91.1875C58.8724 91.1875 58.9557 91.1823 59.0208 91.1719C59.0859 91.1589 59.138 91.1484 59.1771 91.1406L59.3646 91.9687C59.3021 91.9922 59.2148 92.0156 59.1029 92.0391C58.9909 92.0651 58.8489 92.0781 58.6771 92.0781C58.4167 92.0781 58.1614 92.0221 57.9114 91.9102C57.664 91.7982 57.4583 91.6276 57.2943 91.3984C57.1328 91.1693 57.0521 90.8802 57.0521 90.5312V84.5625ZM62.4625 92.1406C62.0823 92.1406 61.7373 92.069 61.4274 91.9258C61.1175 91.7799 60.8714 91.5703 60.6891 91.2969C60.5068 91.0208 60.4157 90.6875 60.4157 90.2969C60.4157 89.9531 60.4834 89.6745 60.6188 89.4609C60.7542 89.2448 60.9352 89.0755 61.1618 88.9531C61.3883 88.8307 61.6383 88.7396 61.9118 88.6797C62.1878 88.6172 62.4651 88.5677 62.7438 88.5313C63.1084 88.4844 63.4039 88.4492 63.6305 88.4258C63.8597 88.3997 64.0263 88.3568 64.1305 88.2969C64.2373 88.237 64.2907 88.1328 64.2907 87.9844V87.9531C64.2907 87.5677 64.1852 87.2682 63.9743 87.0547C63.7659 86.8411 63.4495 86.7344 63.025 86.7344C62.5849 86.7344 62.2399 86.8307 61.9899 87.0234C61.7399 87.2161 61.5641 87.4219 61.4625 87.6406L60.5875 87.3281C60.7438 86.9635 60.9521 86.6797 61.2125 86.4766C61.4756 86.2708 61.762 86.1276 62.0719 86.0469C62.3844 85.9635 62.6917 85.9219 62.9938 85.9219C63.1865 85.9219 63.4079 85.9453 63.6579 85.9922C63.9105 86.0365 64.1539 86.1289 64.3883 86.2695C64.6253 86.4102 64.8219 86.6224 64.9782 86.9062C65.1344 87.1901 65.2125 87.5703 65.2125 88.0469V92H64.2907V91.1875H64.2438C64.1813 91.3177 64.0771 91.457 63.9313 91.6055C63.7855 91.7539 63.5914 91.8802 63.3493 91.9844C63.1071 92.0885 62.8115 92.1406 62.4625 92.1406ZM62.6032 91.3125C62.9677 91.3125 63.275 91.2409 63.525 91.0977C63.7776 90.9544 63.9677 90.7695 64.0954 90.543C64.2256 90.3164 64.2907 90.0781 64.2907 89.8281V88.9844C64.2516 89.0312 64.1657 89.0742 64.0329 89.1133C63.9026 89.1497 63.7516 89.1823 63.5797 89.2109C63.4105 89.237 63.2451 89.2604 63.0836 89.2812C62.9248 89.2995 62.7959 89.3151 62.6969 89.3281C62.4573 89.3594 62.2334 89.4102 62.025 89.4805C61.8193 89.5482 61.6526 89.651 61.525 89.7891C61.4 89.9245 61.3375 90.1094 61.3375 90.3437C61.3375 90.6641 61.456 90.9062 61.693 91.0703C61.9326 91.2318 62.236 91.3125 62.6032 91.3125ZM66.9502 92V86H67.8408V86.9062H67.9033C68.0127 86.6094 68.2106 86.3685 68.497 86.1836C68.7835 85.9987 69.1064 85.9062 69.4658 85.9062C69.5335 85.9062 69.6181 85.9076 69.7197 85.9102C69.8213 85.9128 69.8981 85.9167 69.9502 85.9219V86.8594C69.9189 86.8516 69.8473 86.8398 69.7353 86.8242C69.6259 86.806 69.5101 86.7969 69.3877 86.7969C69.096 86.7969 68.8356 86.8581 68.6064 86.9805C68.3798 87.1003 68.2002 87.2669 68.0673 87.4805C67.9371 87.6914 67.872 87.9323 67.872 88.2031V92H66.9502ZM74.0833 86V86.7812H70.9739V86H74.0833ZM71.8802 84.5625H72.802V90.2812C72.802 90.5417 72.8398 90.737 72.9153 90.8672C72.9934 90.9948 73.0924 91.0807 73.2122 91.125C73.3346 91.1667 73.4635 91.1875 73.5989 91.1875C73.7005 91.1875 73.7838 91.1823 73.8489 91.1719C73.914 91.1589 73.9661 91.1484 74.0052 91.1406L74.1927 91.9687C74.1302 91.9922 74.0429 92.0156 73.9309 92.0391C73.819 92.0651 73.677 92.0781 73.5052 92.0781C73.2447 92.0781 72.9895 92.0221 72.7395 91.9102C72.4921 91.7982 72.2864 91.6276 72.1223 91.3984C71.9609 91.1693 71.8802 90.8802 71.8802 90.5312V84.5625ZM76.7477 84V92H75.7789V84H76.7477ZM81.0575 92.125C80.495 92.125 80.0107 91.9922 79.6044 91.7266C79.1982 91.4609 78.8857 91.0951 78.6669 90.6289C78.4482 90.1628 78.3388 89.6302 78.3388 89.0312C78.3388 88.4219 78.4508 87.8841 78.6747 87.418C78.9013 86.9492 79.2164 86.5833 79.62 86.3203C80.0263 86.0547 80.5002 85.9219 81.0419 85.9219C81.4638 85.9219 81.844 86 82.1825 86.1562C82.5211 86.3125 82.7984 86.5312 83.0146 86.8125C83.2307 87.0937 83.3648 87.4219 83.4169 87.7969H82.495C82.4247 87.5234 82.2685 87.2812 82.0263 87.0703C81.7867 86.8568 81.4638 86.75 81.0575 86.75C80.6982 86.75 80.3831 86.8437 80.1122 87.0312C79.844 87.2161 79.6344 87.4779 79.4833 87.8164C79.3349 88.1523 79.2607 88.5469 79.2607 89C79.2607 89.4635 79.3336 89.8672 79.4794 90.2109C79.6279 90.5547 79.8362 90.8216 80.1044 91.0117C80.3752 91.2018 80.693 91.2969 81.0575 91.2969C81.2971 91.2969 81.5146 91.2552 81.7099 91.1719C81.9052 91.0885 82.0706 90.9688 82.206 90.8125C82.3414 90.6562 82.4377 90.4687 82.495 90.25H83.4169C83.3648 90.6042 83.2359 90.9232 83.0302 91.207C82.8271 91.4883 82.5575 91.7122 82.2216 91.8789C81.8883 92.043 81.5002 92.125 81.0575 92.125ZM87.2571 92.125C86.7154 92.125 86.2401 91.9961 85.8313 91.7383C85.425 91.4805 85.1073 91.1198 84.8782 90.6562C84.6516 90.1927 84.5383 89.651 84.5383 89.0312C84.5383 88.4062 84.6516 87.8607 84.8782 87.3945C85.1073 86.9284 85.425 86.5664 85.8313 86.3086C86.2401 86.0508 86.7154 85.9219 87.2571 85.9219C87.7987 85.9219 88.2727 86.0508 88.6789 86.3086C89.0878 86.5664 89.4055 86.9284 89.6321 87.3945C89.8612 87.8607 89.9758 88.4062 89.9758 89.0312C89.9758 89.651 89.8612 90.1927 89.6321 90.6562C89.4055 91.1198 89.0878 91.4805 88.6789 91.7383C88.2727 91.9961 87.7987 92.125 87.2571 92.125ZM87.2571 91.2969C87.6685 91.2969 88.0071 91.1914 88.2727 90.9805C88.5383 90.7695 88.7349 90.4922 88.8625 90.1484C88.9901 89.8047 89.0539 89.4323 89.0539 89.0312C89.0539 88.6302 88.9901 88.2565 88.8625 87.9102C88.7349 87.5638 88.5383 87.2839 88.2727 87.0703C88.0071 86.8568 87.6685 86.75 87.2571 86.75C86.8456 86.75 86.5071 86.8568 86.2414 87.0703C85.9758 87.2839 85.7792 87.5638 85.6516 87.9102C85.524 88.2565 85.4602 88.6302 85.4602 89.0312C85.4602 89.4323 85.524 89.8047 85.6516 90.1484C85.7792 90.4922 85.9758 90.7695 86.2414 90.9805C86.5071 91.1914 86.8456 91.2969 87.2571 91.2969ZM92.3599 88.3906V92H91.438V86H92.3287V86.9375H92.4068C92.5474 86.6328 92.761 86.388 93.0474 86.2031C93.3339 86.0156 93.7037 85.9219 94.1568 85.9219C94.563 85.9219 94.9185 86.0052 95.2232 86.1719C95.5279 86.3359 95.7649 86.5859 95.9341 86.9219C96.1034 87.2552 96.188 87.6771 96.188 88.1875V92H95.2662V88.25C95.2662 87.7786 95.1438 87.4115 94.899 87.1484C94.6542 86.8828 94.3183 86.75 93.8912 86.75C93.5969 86.75 93.3339 86.8138 93.1021 86.9414C92.8729 87.069 92.692 87.2552 92.5591 87.5C92.4263 87.7448 92.3599 88.0417 92.3599 88.3906Z" fill="#292524"/>
<path fill-rule="evenodd" clip-rule="evenodd" d="M34 116H36V124H34V116ZM33 116C33 115.735 33.1054 115.48 33.2929 115.293C33.4804 115.105 33.7348 115 34 115H36C36.2652 115 36.5196 115.105 36.7071 115.293C36.8946 115.48 37 115.735 37 116V124C37 124.265 36.8946 124.52 36.7071 124.707C36.5196 124.895 36.2652 125 36 125H34C33.7348 125 33.4804 124.895 33.2929 124.707C33.1054 124.52 33 124.265 33 124V116ZM40 118H42V122H40V118ZM39 118C39 117.735 39.1054 117.48 39.2929 117.293C39.4804 117.105 39.7348 117 40 117H42C42.2652 117 42.5196 117.105 42.7071 117.293C42.8946 117.48 43 117.735 43 118V122C43 122.265 42.8946 122.52 42.7071 122.707C42.5196 122.895 42.2652 123 42 123H40C39.7348 123 39.4804 122.895 39.2929 122.707C39.1054 122.52 39 122.265 39 122V118Z" fill="#A1A1AA"/>
<path d="M51.7656 116V124H50.8438V116H51.7656ZM55.2747 124.141C54.8945 124.141 54.5495 124.069 54.2396 123.926C53.9297 123.78 53.6836 123.57 53.5013 123.297C53.319 123.021 53.2279 122.687 53.2279 122.297C53.2279 121.953 53.2956 121.674 53.431 121.461C53.5664 121.245 53.7474 121.076 53.9739 120.953C54.2005 120.831 54.4505 120.74 54.7239 120.68C55 120.617 55.2773 120.568 55.556 120.531C55.9206 120.484 56.2161 120.449 56.4427 120.426C56.6719 120.4 56.8385 120.357 56.9427 120.297C57.0495 120.237 57.1029 120.133 57.1029 119.984V119.953C57.1029 119.568 56.9974 119.268 56.7864 119.055C56.5781 118.841 56.2617 118.734 55.8372 118.734C55.3971 118.734 55.0521 118.831 54.8021 119.023C54.5521 119.216 54.3763 119.422 54.2747 119.641L53.3997 119.328C53.556 118.964 53.7643 118.68 54.0247 118.477C54.2877 118.271 54.5742 118.128 54.8841 118.047C55.1966 117.964 55.5039 117.922 55.806 117.922C55.9987 117.922 56.22 117.945 56.47 117.992C56.7226 118.036 56.9661 118.129 57.2005 118.27C57.4375 118.41 57.6341 118.622 57.7904 118.906C57.9466 119.19 58.0247 119.57 58.0247 120.047V124H57.1029V123.187H57.056C56.9935 123.318 56.8893 123.457 56.7435 123.605C56.5976 123.754 56.4036 123.88 56.1614 123.984C55.9193 124.089 55.6237 124.141 55.2747 124.141ZM55.4154 123.312C55.7799 123.312 56.0872 123.241 56.3372 123.098C56.5898 122.954 56.7799 122.77 56.9075 122.543C57.0377 122.316 57.1029 122.078 57.1029 121.828V120.984C57.0638 121.031 56.9779 121.074 56.845 121.113C56.7148 121.15 56.5638 121.182 56.3919 121.211C56.2226 121.237 56.0573 121.26 55.8958 121.281C55.737 121.299 55.6081 121.315 55.5091 121.328C55.2695 121.359 55.0456 121.41 54.8372 121.48C54.6315 121.548 54.4648 121.651 54.3372 121.789C54.2122 121.924 54.1497 122.109 54.1497 122.344C54.1497 122.664 54.2682 122.906 54.5052 123.07C54.7448 123.232 55.0482 123.312 55.4154 123.312ZM59.8873 124V116H60.8092V118.953H60.8873C60.9551 118.849 61.0488 118.716 61.1686 118.555C61.291 118.391 61.4655 118.245 61.692 118.117C61.9212 117.987 62.2311 117.922 62.6217 117.922C63.1269 117.922 63.5722 118.048 63.9577 118.301C64.3431 118.553 64.6439 118.911 64.86 119.375C65.0761 119.839 65.1842 120.385 65.1842 121.016C65.1842 121.651 65.0761 122.202 64.86 122.668C64.6439 123.132 64.3444 123.491 63.9616 123.746C63.5787 123.999 63.1373 124.125 62.6373 124.125C62.2519 124.125 61.9433 124.061 61.7116 123.934C61.4798 123.803 61.3014 123.656 61.1764 123.492C61.0514 123.326 60.9551 123.187 60.8873 123.078H60.778V124H59.8873ZM60.7936 121C60.7936 121.453 60.86 121.853 60.9928 122.199C61.1256 122.543 61.3196 122.812 61.5748 123.008C61.8301 123.201 62.1426 123.297 62.5123 123.297C62.8978 123.297 63.2194 123.195 63.4772 122.992C63.7376 122.786 63.9329 122.51 64.0631 122.164C64.1959 121.815 64.2623 121.427 64.2623 121C64.2623 120.578 64.1972 120.198 64.067 119.859C63.9394 119.518 63.7454 119.249 63.485 119.051C63.2272 118.85 62.903 118.75 62.5123 118.75C62.1373 118.75 61.8222 118.845 61.567 119.035C61.3118 119.223 61.1191 119.486 60.9889 119.824C60.8587 120.16 60.7936 120.552 60.7936 121ZM69.165 124.125C68.5869 124.125 68.0882 123.997 67.6689 123.742C67.2522 123.484 66.9306 123.125 66.7041 122.664C66.4801 122.201 66.3681 121.661 66.3681 121.047C66.3681 120.432 66.4801 119.891 66.7041 119.422C66.9306 118.951 67.2457 118.583 67.6494 118.32C68.0556 118.055 68.5296 117.922 69.0712 117.922C69.3838 117.922 69.6923 117.974 69.997 118.078C70.3017 118.182 70.5791 118.352 70.8291 118.586C71.0791 118.818 71.2783 119.125 71.4267 119.508C71.5752 119.891 71.6494 120.362 71.6494 120.922V121.312H67.0244V120.516H70.7119C70.7119 120.177 70.6442 119.875 70.5088 119.609C70.3759 119.344 70.1858 119.134 69.9384 118.98C69.6936 118.827 69.4046 118.75 69.0712 118.75C68.7041 118.75 68.3864 118.841 68.1181 119.023C67.8525 119.203 67.6481 119.437 67.5048 119.727C67.3616 120.016 67.29 120.326 67.29 120.656V121.188C67.29 121.641 67.3681 122.025 67.5244 122.34C67.6832 122.652 67.9033 122.891 68.1845 123.055C68.4658 123.216 68.7926 123.297 69.165 123.297C69.4072 123.297 69.6259 123.263 69.8213 123.195C70.0192 123.125 70.1897 123.021 70.333 122.883C70.4762 122.742 70.5869 122.568 70.665 122.359L71.5556 122.609C71.4619 122.911 71.3043 123.177 71.083 123.406C70.8616 123.633 70.5882 123.81 70.2627 123.937C69.9371 124.063 69.5713 124.125 69.165 124.125ZM74.0286 116V124H73.1067V116H74.0286Z" fill="#292524"/>
<path fill-rule="evenodd" clip-rule="evenodd" d="M34 148H36V156H34V148ZM33 148C33 147.735 33.1054 147.48 33.2929 147.293C33.4804 147.105 33.7348 147 34 147H36C36.2652 147 36.5196 147.105 36.7071 147.293C36.8946 147.48 37 147.735 37 148V156C37 156.265 36.8946 156.52 36.7071 156.707C36.5196 156.895 36.2652 157 36 157H34C33.7348 157 33.4804 156.895 33.2929 156.707C33.1054 156.52 33 156.265 33 156V148ZM40 150H42V154H40V150ZM39 150C39 149.735 39.1054 149.48 39.2929 149.293C39.4804 149.105 39.7348 149 40 149H42C42.2652 149 42.5196 149.105 42.7071 149.293C42.8946 149.48 43 149.735 43 150V154C43 154.265 42.8946 154.52 42.7071 154.707C42.5196 154.895 42.2652 155 42 155H40C39.7348 155 39.4804 154.895 39.2929 154.707C39.1054 154.52 39 154.265 39 154V150Z" fill="#A1A1AA"/>
<path d="M53.3594 156.125C52.7813 156.125 52.2826 155.997 51.8633 155.742C51.4466 155.484 51.125 155.125 50.8984 154.664C50.6745 154.201 50.5625 153.661 50.5625 153.047C50.5625 152.432 50.6745 151.891 50.8984 151.422C51.125 150.951 51.4401 150.583 51.8438 150.32C52.25 150.055 52.724 149.922 53.2656 149.922C53.5781 149.922 53.8867 149.974 54.1914 150.078C54.4961 150.182 54.7734 150.352 55.0234 150.586C55.2734 150.818 55.4727 151.125 55.6211 151.508C55.7695 151.891 55.8438 152.362 55.8438 152.922V153.312H51.2188V152.516H54.9063C54.9063 152.177 54.8385 151.875 54.7031 151.609C54.5703 151.344 54.3802 151.134 54.1328 150.98C53.888 150.827 53.599 150.75 53.2656 150.75C52.8984 150.75 52.5807 150.841 52.3125 151.023C52.0469 151.203 51.8424 151.437 51.6992 151.727C51.556 152.016 51.4844 152.326 51.4844 152.656V153.188C51.4844 153.641 51.5625 154.025 51.7188 154.34C51.8776 154.652 52.0977 154.891 52.3789 155.055C52.6602 155.216 52.987 155.297 53.3594 155.297C53.6016 155.297 53.8203 155.263 54.0156 155.195C54.2135 155.125 54.3841 155.021 54.5273 154.883C54.6706 154.742 54.7813 154.568 54.8594 154.359L55.75 154.609C55.6563 154.911 55.4987 155.177 55.2773 155.406C55.056 155.633 54.7826 155.81 54.457 155.937C54.1315 156.063 53.7656 156.125 53.3594 156.125ZM58.223 152.391V156H57.3011V150H58.1917V150.937H58.2698C58.4105 150.633 58.624 150.388 58.9105 150.203C59.1969 150.016 59.5667 149.922 60.0198 149.922C60.4261 149.922 60.7816 150.005 61.0863 150.172C61.3909 150.336 61.6279 150.586 61.7972 150.922C61.9665 151.255 62.0511 151.677 62.0511 152.188V156H61.1292V152.25C61.1292 151.779 61.0068 151.411 60.762 151.148C60.5172 150.883 60.1813 150.75 59.7542 150.75C59.4599 150.75 59.1969 150.814 58.9652 150.941C58.736 151.069 58.555 151.255 58.4222 151.5C58.2894 151.745 58.223 152.042 58.223 152.391ZM66.0563 156.125C65.5563 156.125 65.1149 155.999 64.7321 155.746C64.3493 155.491 64.0498 155.132 63.8336 154.668C63.6175 154.202 63.5094 153.651 63.5094 153.016C63.5094 152.385 63.6175 151.839 63.8336 151.375C64.0498 150.911 64.3506 150.553 64.736 150.301C65.1214 150.048 65.5667 149.922 66.0719 149.922C66.4625 149.922 66.7711 149.987 66.9977 150.117C67.2269 150.245 67.4013 150.391 67.5211 150.555C67.6435 150.716 67.7386 150.849 67.8063 150.953H67.8844V148H68.8063V156H67.9157V155.078H67.8063C67.7386 155.187 67.6422 155.326 67.5172 155.492C67.3922 155.656 67.2138 155.803 66.9821 155.934C66.7503 156.061 66.4417 156.125 66.0563 156.125ZM66.1813 155.297C66.5511 155.297 66.8636 155.201 67.1188 155.008C67.374 154.812 67.568 154.543 67.7008 154.199C67.8336 153.853 67.9 153.453 67.9 153C67.9 152.552 67.8349 152.16 67.7047 151.824C67.5745 151.486 67.3818 151.223 67.1266 151.035C66.8714 150.845 66.5563 150.75 66.1813 150.75C65.7907 150.75 65.4651 150.85 65.2047 151.051C64.9469 151.249 64.7529 151.518 64.6227 151.859C64.4951 152.198 64.4313 152.578 64.4313 153C64.4313 153.427 64.4964 153.815 64.6266 154.164C64.7594 154.51 64.9547 154.786 65.2125 154.992C65.473 155.195 65.7959 155.297 66.1813 155.297ZM71.7714 148V156H70.8027V148H71.7714ZM76.0813 156.125C75.5188 156.125 75.0345 155.992 74.6282 155.727C74.222 155.461 73.9095 155.095 73.6907 154.629C73.472 154.163 73.3626 153.63 73.3626 153.031C73.3626 152.422 73.4746 151.884 73.6985 151.418C73.9251 150.949 74.2402 150.583 74.6438 150.32C75.0501 150.055 75.524 149.922 76.0657 149.922C76.4876 149.922 76.8678 150 77.2063 150.156C77.5449 150.312 77.8222 150.531 78.0384 150.812C78.2545 151.094 78.3886 151.422 78.4407 151.797H77.5188C77.4485 151.523 77.2923 151.281 77.0501 151.07C76.8105 150.857 76.4876 150.75 76.0813 150.75C75.722 150.75 75.4068 150.844 75.136 151.031C74.8678 151.216 74.6582 151.478 74.5071 151.816C74.3587 152.152 74.2845 152.547 74.2845 153C74.2845 153.464 74.3574 153.867 74.5032 154.211C74.6516 154.555 74.86 154.822 75.1282 155.012C75.399 155.202 75.7167 155.297 76.0813 155.297C76.3209 155.297 76.5384 155.255 76.7337 155.172C76.929 155.089 77.0943 154.969 77.2298 154.812C77.3652 154.656 77.4615 154.469 77.5188 154.25H78.4407C78.3886 154.604 78.2597 154.923 78.054 155.207C77.8509 155.488 77.5813 155.712 77.2454 155.879C76.9121 156.043 76.524 156.125 76.0813 156.125ZM82.2809 156.125C81.7392 156.125 81.2639 155.996 80.8551 155.738C80.4488 155.48 80.1311 155.12 79.902 154.656C79.6754 154.193 79.5621 153.651 79.5621 153.031C79.5621 152.406 79.6754 151.861 79.902 151.395C80.1311 150.928 80.4488 150.566 80.8551 150.309C81.2639 150.051 81.7392 149.922 82.2809 149.922C82.8225 149.922 83.2965 150.051 83.7027 150.309C84.1116 150.566 84.4293 150.928 84.6559 151.395C84.885 151.861 84.9996 152.406 84.9996 153.031C84.9996 153.651 84.885 154.193 84.6559 154.656C84.4293 155.12 84.1116 155.48 83.7027 155.738C83.2965 155.996 82.8225 156.125 82.2809 156.125ZM82.2809 155.297C82.6923 155.297 83.0309 155.191 83.2965 154.98C83.5621 154.77 83.7587 154.492 83.8863 154.148C84.0139 153.805 84.0777 153.432 84.0777 153.031C84.0777 152.63 84.0139 152.257 83.8863 151.91C83.7587 151.564 83.5621 151.284 83.2965 151.07C83.0309 150.857 82.6923 150.75 82.2809 150.75C81.8694 150.75 81.5309 150.857 81.2652 151.07C80.9996 151.284 80.803 151.564 80.6754 151.91C80.5478 152.257 80.484 152.63 80.484 153.031C80.484 153.432 80.5478 153.805 80.6754 154.148C80.803 154.492 80.9996 154.77 81.2652 154.98C81.5309 155.191 81.8694 155.297 82.2809 155.297ZM87.3837 152.391V156H86.4618V150H87.3525V150.937H87.4306C87.5712 150.633 87.7848 150.388 88.0712 150.203C88.3577 150.016 88.7275 149.922 89.1806 149.922C89.5868 149.922 89.9423 150.005 90.247 150.172C90.5517 150.336 90.7887 150.586 90.9579 150.922C91.1272 151.255 91.2118 151.677 91.2118 152.188V156H90.29V152.25C90.29 151.779 90.1676 151.411 89.9228 151.148C89.678 150.883 89.342 150.75 88.915 150.75C88.6207 150.75 88.3577 150.814 88.1259 150.941C87.8967 151.069 87.7157 151.255 87.5829 151.5C87.4501 151.745 87.3837 152.042 87.3837 152.391Z" fill="#292524"/>
</g>
<rect x="0.5" y="0.5" width="220" height="167" rx="7.5" stroke="#E7E5E4"/>
<defs>
<clipPath id="clip0_1099_23422">
<rect width="221" height="168" rx="8" fill="white"/>
</clipPath>
</defs>
</svg>
