<svg width="256" height="228" viewBox="0 0 256 228" fill="none" xmlns="http://www.w3.org/2000/svg">
<path d="M8 0.5H248C252.142 0.5 255.5 3.85786 255.5 8V220C255.5 224.142 252.142 227.5 248 227.5H8C3.85786 227.5 0.5 224.142 0.5 220V8C0.5 3.85786 3.85786 0.5 8 0.5Z" fill="white"/>
<path d="M8 0.5H248C252.142 0.5 255.5 3.85786 255.5 8V220C255.5 224.142 252.142 227.5 248 227.5H8C3.85786 227.5 0.5 224.142 0.5 220V8C0.5 3.85786 3.85786 0.5 8 0.5Z" stroke="#E7E5E4"/>
<path d="M24.7191 31.75V25.2045H27.0522C27.5593 25.2045 27.9801 25.2919 28.3146 25.4666C28.6513 25.6413 28.9027 25.8832 29.0689 26.1921C29.2351 26.4989 29.3182 26.8537 29.3182 27.2564C29.3182 27.657 29.234 28.0096 29.0657 28.3143C28.8995 28.6168 28.6481 28.8523 28.3114 29.0206C27.9769 29.1889 27.5561 29.2731 27.049 29.2731H25.2816V28.4229H26.9595C27.2791 28.4229 27.5391 28.3771 27.7393 28.2855C27.9418 28.1939 28.0898 28.0607 28.1836 27.886C28.2773 27.7113 28.3242 27.5014 28.3242 27.2564C28.3242 27.0092 28.2763 26.7951 28.1804 26.614C28.0866 26.4329 27.9386 26.2944 27.7362 26.1985C27.5359 26.1005 27.2727 26.0515 26.9467 26.0515H25.7067V31.75H24.7191ZM27.9503 28.7969L29.5675 31.75H28.4425L26.8572 28.7969H27.9503ZM32.7674 31.8491C32.2838 31.8491 31.8672 31.7457 31.5178 31.5391C31.1705 31.3303 30.902 31.0373 30.7124 30.6602C30.5249 30.2809 30.4311 29.8366 30.4311 29.3274C30.4311 28.8246 30.5249 28.3814 30.7124 27.9979C30.902 27.6143 31.1662 27.315 31.505 27.0998C31.8459 26.8846 32.2443 26.777 32.7003 26.777C32.9773 26.777 33.2458 26.8228 33.5057 26.9144C33.7656 27.006 33.999 27.1499 34.2056 27.3459C34.4123 27.5419 34.5753 27.7965 34.6946 28.1097C34.8139 28.4208 34.8736 28.799 34.8736 29.2443V29.5831H30.9713V28.8672H33.9372C33.9372 28.6158 33.886 28.3931 33.7838 28.1992C33.6815 28.0032 33.5377 27.8487 33.3523 27.7358C33.1691 27.6229 32.9539 27.5664 32.7067 27.5664C32.4382 27.5664 32.2039 27.6325 32.0036 27.7646C31.8054 27.8945 31.652 28.065 31.5433 28.2759C31.4368 28.4847 31.3835 28.7116 31.3835 28.9567V29.516C31.3835 29.8441 31.4411 30.1232 31.5561 30.3533C31.6733 30.5835 31.8363 30.7592 32.0451 30.8807C32.2539 31 32.4979 31.0597 32.777 31.0597C32.9581 31.0597 33.1232 31.0341 33.2724 30.983C33.4215 30.9297 33.5505 30.8509 33.6591 30.7464C33.7678 30.642 33.8509 30.5131 33.9084 30.3597L34.8129 30.5227C34.7404 30.7891 34.6105 31.0224 34.423 31.2227C34.2376 31.4208 34.0043 31.5753 33.723 31.6861C33.4439 31.7947 33.1254 31.8491 32.7674 31.8491ZM39.8825 28.0394L39.0164 28.1928C38.9802 28.082 38.9226 27.9766 38.8438 27.8764C38.7671 27.7763 38.6627 27.6942 38.5306 27.6303C38.3985 27.5664 38.2334 27.5344 38.0352 27.5344C37.7646 27.5344 37.5388 27.5952 37.3576 27.7166C37.1765 27.8359 37.086 27.9904 37.086 28.18C37.086 28.3441 37.1467 28.4762 37.2682 28.5763C37.3896 28.6765 37.5856 28.7585 37.8562 28.8224L38.6361 29.0014C39.0878 29.1058 39.4244 29.2667 39.646 29.484C39.8676 29.7013 39.9784 29.9837 39.9784 30.331C39.9784 30.625 39.8932 30.8871 39.7227 31.1172C39.5544 31.3452 39.3189 31.5241 39.0164 31.6541C38.716 31.7841 38.3676 31.8491 37.9713 31.8491C37.4216 31.8491 36.9731 31.7319 36.6258 31.4975C36.2785 31.261 36.0654 30.9254 35.9866 30.4908L36.9102 30.3501C36.9677 30.5909 37.086 30.7731 37.265 30.8967C37.4439 31.0181 37.6773 31.0788 37.9649 31.0788C38.2781 31.0788 38.5285 31.0138 38.716 30.8839C38.9035 30.7518 38.9972 30.5909 38.9972 30.4013C38.9972 30.2479 38.9397 30.119 38.8246 30.0146C38.7117 29.9102 38.538 29.8313 38.3037 29.7781L37.4727 29.5959C37.0146 29.4915 36.6758 29.3253 36.4564 29.0973C36.239 28.8693 36.1304 28.5806 36.1304 28.2312C36.1304 27.9414 36.2113 27.6879 36.3733 27.4705C36.5352 27.2532 36.7589 27.0838 37.0444 26.9624C37.33 26.8388 37.657 26.777 38.0256 26.777C38.5562 26.777 38.9738 26.892 39.2785 27.1222C39.5831 27.3501 39.7845 27.6559 39.8825 28.0394ZM41.2991 31.75V26.8409H42.2547V31.75H41.2991ZM41.7817 26.0835C41.6155 26.0835 41.4727 26.0281 41.3534 25.9173C41.2362 25.8043 41.1776 25.6701 41.1776 25.5146C41.1776 25.3569 41.2362 25.2227 41.3534 25.1119C41.4727 24.9989 41.6155 24.9425 41.7817 24.9425C41.9479 24.9425 42.0896 24.9989 42.2068 25.1119C42.3261 25.2227 42.3857 25.3569 42.3857 25.5146C42.3857 25.6701 42.3261 25.8043 42.2068 25.9173C42.0896 26.0281 41.9479 26.0835 41.7817 26.0835ZM43.708 31.75V31.0948L46.3671 27.7166V27.6719H43.7943V26.8409H47.5592V27.5376L45.0024 30.8743V30.919H47.6487V31.75H43.708ZM49.0461 31.75V26.8409H50.0017V31.75H49.0461ZM49.5287 26.0835C49.3625 26.0835 49.2198 26.0281 49.1004 25.9173C48.9833 25.8043 48.9247 25.6701 48.9247 25.5146C48.9247 25.3569 48.9833 25.2227 49.1004 25.1119C49.2198 24.9989 49.3625 24.9425 49.5287 24.9425C49.6949 24.9425 49.8366 24.9989 49.9538 25.1119C50.0731 25.2227 50.1328 25.3569 50.1328 25.5146C50.1328 25.6701 50.0731 25.8043 49.9538 25.9173C49.8366 26.0281 49.6949 26.0835 49.5287 26.0835ZM52.5129 28.8352V31.75H51.5573V26.8409H52.4746V27.6399H52.5353C52.6482 27.38 52.8251 27.1712 53.0658 27.0135C53.3087 26.8558 53.6145 26.777 53.9831 26.777C54.3176 26.777 54.6106 26.8473 54.862 26.9879C55.1134 27.1264 55.3084 27.3331 55.4469 27.608C55.5854 27.8828 55.6546 28.2227 55.6546 28.6275V31.75H54.699V28.7425C54.699 28.3867 54.6063 28.1087 54.421 27.9084C54.2356 27.706 53.981 27.6048 53.6571 27.6048C53.4355 27.6048 53.2384 27.6527 53.0658 27.7486C52.8954 27.8445 52.7601 27.9851 52.66 28.1705C52.5619 28.3537 52.5129 28.5753 52.5129 28.8352ZM59.2645 33.6932C58.8746 33.6932 58.539 33.642 58.2577 33.5398C57.9786 33.4375 57.7506 33.3022 57.5738 33.1339C57.3969 32.9656 57.2648 32.7813 57.1775 32.581L57.9988 32.2422C58.0564 32.3359 58.1331 32.435 58.229 32.5394C58.327 32.646 58.4591 32.7365 58.6253 32.8111C58.7936 32.8857 59.0099 32.9229 59.2741 32.9229C59.6363 32.9229 59.9356 32.8345 60.1721 32.6577C60.4086 32.483 60.5269 32.2038 60.5269 31.8203V30.8551H60.4662C60.4086 30.9595 60.3255 31.0756 60.2169 31.2035C60.1103 31.3313 59.9633 31.4421 59.7758 31.5359C59.5883 31.6296 59.3444 31.6765 59.0439 31.6765C58.6562 31.6765 58.3067 31.5859 57.9956 31.4048C57.6867 31.2216 57.4417 30.9521 57.2606 30.5962C57.0816 30.2383 56.9921 29.7983 56.9921 29.2763C56.9921 28.7543 57.0805 28.3068 57.2574 27.9339C57.4363 27.5611 57.6814 27.2756 57.9924 27.0774C58.3035 26.8771 58.6562 26.777 59.0503 26.777C59.355 26.777 59.6011 26.8281 59.7886 26.9304C59.9761 27.0305 60.1221 27.1477 60.2265 27.282C60.333 27.4162 60.415 27.5344 60.4726 27.6367H60.5429V26.8409H61.4793V31.8587C61.4793 32.2805 61.3813 32.6268 61.1853 32.8974C60.9893 33.168 60.724 33.3683 60.3895 33.4982C60.0571 33.6282 59.6821 33.6932 59.2645 33.6932ZM59.2549 30.8839C59.5297 30.8839 59.762 30.82 59.9516 30.6921C60.1434 30.5621 60.2883 30.3768 60.3863 30.136C60.4864 29.8931 60.5365 29.6023 60.5365 29.2635C60.5365 28.9332 60.4875 28.6424 60.3895 28.391C60.2915 28.1396 60.1476 27.9435 59.958 27.8029C59.7684 27.6602 59.534 27.5888 59.2549 27.5888C58.9672 27.5888 58.7275 27.6634 58.5358 27.8125C58.344 27.9595 58.1991 28.1598 58.1011 28.4134C58.0052 28.6669 57.9573 28.9503 57.9573 29.2635C57.9573 29.5852 58.0063 29.8675 58.1043 30.1104C58.2023 30.3533 58.3472 30.543 58.539 30.6793C58.7329 30.8157 58.9715 30.8839 59.2549 30.8839Z" fill="black" fill-opacity="0.5"/>
<path d="M107 40C108.326 40 109.598 40.5268 110.536 41.4645C111.473 42.4021 112 43.6739 112 45V59C112 59.6566 111.871 60.3068 111.619 60.9134C111.368 61.52 111 62.0712 110.536 62.5355C110.071 62.9998 109.52 63.3681 108.913 63.6194C108.307 63.8707 107.657 64 107 64V40ZM125 40C123.674 40 122.402 40.5268 121.464 41.4645C120.527 42.4021 120 43.6739 120 45V59C120 59.6566 120.129 60.3068 120.381 60.9134C120.632 61.52 121 62.0712 121.464 62.5355C122.402 63.4732 123.674 64 125 64V40Z" fill="#F5F5F5"/>
<rect x="24" y="40" width="88" height="24" rx="5" fill="#F5F5F5"/>
<path d="M33.0688 56L30.8501 48H32.1196L33.6782 54.1953H33.7524L35.3735 48H36.6313L38.2524 54.1992H38.3267L39.8813 48H41.1548L38.9321 56H37.7173L36.0337 50.0078H35.9712L34.2876 56H33.0688Z" fill="black" fill-opacity="0.5"/>
<g clip-path="url(#clip0_1092_23260)">
<rect x="48.5" y="42.5" width="22" height="19" rx="4.5" fill="white"/>
<rect x="48.5" y="42.5" width="22" height="19" rx="4.5" stroke="#E6E6E6"/>
<g clip-path="url(#clip1_1092_23260)">
<g clip-path="url(#clip2_1092_23260)">
<path d="M54.106 56L57.6841 48.9219V48.8594H53.5591V48H58.6841V48.9062L55.1216 56H54.106ZM60.1401 56V55.2969L62.7808 52.4062C63.0907 52.0677 63.3459 51.7734 63.5464 51.5234C63.7469 51.2708 63.8953 51.0339 63.9917 50.8125C64.0907 50.5885 64.1401 50.3542 64.1401 50.1094C64.1401 49.8281 64.0724 49.5846 63.937 49.3789C63.8042 49.1732 63.6219 49.0143 63.3901 48.9023C63.1584 48.7904 62.8979 48.7344 62.6089 48.7344C62.3016 48.7344 62.0334 48.7982 61.8042 48.9258C61.5776 49.0508 61.4019 49.2266 61.2769 49.4531C61.1545 49.6797 61.0933 49.9453 61.0933 50.25H60.1714C60.1714 49.7812 60.2795 49.3698 60.4956 49.0156C60.7118 48.6615 61.006 48.3854 61.3784 48.1875C61.7534 47.9896 62.174 47.8906 62.6401 47.8906C63.1089 47.8906 63.5243 47.9896 63.8862 48.1875C64.2482 48.3854 64.5321 48.6523 64.7378 48.9883C64.9435 49.3242 65.0464 49.6979 65.0464 50.1094C65.0464 50.4036 64.993 50.6914 64.8862 50.9727C64.7821 51.2513 64.5998 51.5625 64.3394 51.9062C64.0815 52.2474 63.7235 52.6641 63.2651 53.1562L61.4683 55.0781V55.1406H65.187V56H60.1401Z" fill="black"/>
</g>
</g>
</g>
<rect x="120" y="40" width="88" height="24" rx="5" fill="#F5F5F5"/>
<path d="M128.797 56V48H130.004V51.4766H133.992V48H135.203V56H133.992V52.5117H130.004V56H128.797Z" fill="black" fill-opacity="0.5"/>
<g clip-path="url(#clip3_1092_23260)">
<rect x="144.5" y="42.5" width="22" height="19" rx="4.5" fill="white"/>
<rect x="144.5" y="42.5" width="22" height="19" rx="4.5" stroke="#E6E6E6"/>
<g clip-path="url(#clip4_1092_23260)">
<g clip-path="url(#clip5_1092_23260)">
<path d="M150.106 56L153.684 48.9219V48.8594H149.559V48H154.684V48.9062L151.122 56H150.106ZM156.14 56V55.2969L158.781 52.4062C159.091 52.0677 159.346 51.7734 159.546 51.5234C159.747 51.2708 159.895 51.0339 159.992 50.8125C160.091 50.5885 160.14 50.3542 160.14 50.1094C160.14 49.8281 160.072 49.5846 159.937 49.3789C159.804 49.1732 159.622 49.0143 159.39 48.9023C159.158 48.7904 158.898 48.7344 158.609 48.7344C158.302 48.7344 158.033 48.7982 157.804 48.9258C157.578 49.0508 157.402 49.2266 157.277 49.4531C157.154 49.6797 157.093 49.9453 157.093 50.25H156.171C156.171 49.7812 156.279 49.3698 156.496 49.0156C156.712 48.6615 157.006 48.3854 157.378 48.1875C157.753 47.9896 158.174 47.8906 158.64 47.8906C159.109 47.8906 159.524 47.9896 159.886 48.1875C160.248 48.3854 160.532 48.6523 160.738 48.9883C160.944 49.3242 161.046 49.6979 161.046 50.1094C161.046 50.4036 160.993 50.6914 160.886 50.9727C160.782 51.2513 160.6 51.5625 160.339 51.9062C160.082 52.2474 159.723 52.6641 159.265 53.1562L157.468 55.0781V55.1406H161.187V56H156.14Z" fill="black"/>
</g>
</g>
</g>
<path fill-rule="evenodd" clip-rule="evenodd" d="M223.5 47H232.5C232.633 47 232.76 47.0527 232.854 47.1464C232.947 47.2402 233 47.3674 233 47.5V56.5C233 56.6326 232.947 56.7598 232.854 56.8536C232.76 56.9473 232.633 57 232.5 57H223.5C223.367 57 223.24 56.9473 223.146 56.8536C223.053 56.7598 223 56.6326 223 56.5V47.5C223 47.3674 223.053 47.2402 223.146 47.1464C223.24 47.0527 223.367 47 223.5 47ZM222 47.5C222 47.1022 222.158 46.7206 222.439 46.4393C222.721 46.158 223.102 46 223.5 46H232.5C232.898 46 233.279 46.158 233.561 46.4393C233.842 46.7206 234 47.1022 234 47.5V56.5C234 56.8978 233.842 57.2794 233.561 57.5607C233.279 57.842 232.898 58 232.5 58H223.5C223.102 58 222.721 57.842 222.439 57.5607C222.158 57.2794 222 56.8978 222 56.5V47.5ZM225.5 49C225.367 49 225.24 49.0527 225.146 49.1464C225.053 49.2402 225 49.3674 225 49.5V51.5C225 51.6326 225.053 51.7598 225.146 51.8536C225.24 51.9473 225.367 52 225.5 52C225.633 52 225.76 51.9473 225.854 51.8536C225.947 51.7598 226 51.6326 226 51.5V50H227.5C227.633 50 227.76 49.9473 227.854 49.8536C227.947 49.7598 228 49.6326 228 49.5C228 49.3674 227.947 49.2402 227.854 49.1464C227.76 49.0527 227.633 49 227.5 49H225.5ZM231 52.5C231 52.3674 230.947 52.2402 230.854 52.1464C230.76 52.0527 230.633 52 230.5 52C230.367 52 230.24 52.0527 230.146 52.1464C230.053 52.2402 230 52.3674 230 52.5V54H228.5C228.367 54 228.24 54.0527 228.146 54.1464C228.053 54.2402 228 54.3674 228 54.5C228 54.6326 228.053 54.7598 228.146 54.8536C228.24 54.9473 228.367 55 228.5 55H230.5C230.633 55 230.76 54.9473 230.854 54.8536C230.947 54.7598 231 54.6326 231 54.5V52.5Z" fill="black" fill-opacity="0.898"/>
<path d="M25.272 86H24.2237L26.5792 79.4545H27.7202L30.0756 86H29.0273L27.1768 80.6435H27.1257L25.272 86ZM25.4478 83.4368H28.8484V84.2678H25.4478V83.4368ZM32.1698 79.4545V86H31.2142V79.4545H32.1698ZM33.7254 86V81.0909H34.681V86H33.7254ZM34.208 80.3335C34.0418 80.3335 33.899 80.2781 33.7797 80.1673C33.6625 80.0543 33.6039 79.9201 33.6039 79.7646C33.6039 79.6069 33.6625 79.4727 33.7797 79.3619C33.899 79.2489 34.0418 79.1925 34.208 79.1925C34.3742 79.1925 34.5159 79.2489 34.633 79.3619C34.7524 79.4727 34.812 79.6069 34.812 79.7646C34.812 79.9201 34.7524 80.0543 34.633 80.1673C34.5159 80.2781 34.3742 80.3335 34.208 80.3335ZM38.2948 87.9432C37.9049 87.9432 37.5693 87.892 37.2881 87.7898C37.009 87.6875 36.781 87.5522 36.6041 87.3839C36.4273 87.2156 36.2952 87.0313 36.2078 86.831L37.0292 86.4922C37.0867 86.5859 37.1634 86.685 37.2593 86.7894C37.3573 86.896 37.4894 86.9865 37.6556 87.0611C37.8239 87.1357 38.0402 87.1729 38.3044 87.1729C38.6666 87.1729 38.966 87.0845 39.2025 86.9077C39.439 86.733 39.5572 86.4538 39.5572 86.0703V85.1051H39.4965C39.439 85.2095 39.3559 85.3256 39.2472 85.4535C39.1407 85.5813 38.9937 85.6921 38.8062 85.7859C38.6187 85.8796 38.3747 85.9265 38.0743 85.9265C37.6865 85.9265 37.3371 85.8359 37.026 85.6548C36.717 85.4716 36.472 85.2021 36.2909 84.8462C36.1119 84.4883 36.0224 84.0483 36.0224 83.5263C36.0224 83.0043 36.1109 82.5568 36.2877 82.1839C36.4667 81.8111 36.7117 81.5256 37.0228 81.3274C37.3339 81.1271 37.6865 81.027 38.0807 81.027C38.3854 81.027 38.6315 81.0781 38.819 81.1804C39.0065 81.2805 39.1524 81.3977 39.2568 81.532C39.3634 81.6662 39.4454 81.7844 39.5029 81.8867H39.5732V81.0909H40.5097V86.1087C40.5097 86.5305 40.4117 86.8768 40.2156 87.1474C40.0196 87.418 39.7543 87.6183 39.4198 87.7482C39.0874 87.8782 38.7124 87.9432 38.2948 87.9432ZM38.2852 85.1339C38.5601 85.1339 38.7923 85.07 38.982 84.9421C39.1737 84.8121 39.3186 84.6268 39.4166 84.386C39.5168 84.1431 39.5668 83.8523 39.5668 83.5135C39.5668 83.1832 39.5178 82.8924 39.4198 82.641C39.3218 82.3896 39.178 82.1935 38.9884 82.0529C38.7987 81.9102 38.5644 81.8388 38.2852 81.8388C37.9976 81.8388 37.7579 81.9134 37.5661 82.0625C37.3744 82.2095 37.2295 82.4098 37.1315 82.6634C37.0356 82.9169 36.9876 83.2003 36.9876 83.5135C36.9876 83.8352 37.0367 84.1175 37.1347 84.3604C37.2327 84.6033 37.3776 84.793 37.5693 84.9293C37.7632 85.0657 38.0019 85.1339 38.2852 85.1339ZM43.0169 83.0852V86H42.0613V81.0909H42.9785V81.8899H43.0393C43.1522 81.63 43.329 81.4212 43.5698 81.2635C43.8127 81.1058 44.1184 81.027 44.487 81.027C44.8216 81.027 45.1145 81.0973 45.366 81.2379C45.6174 81.3764 45.8123 81.5831 45.9508 81.858C46.0893 82.1328 46.1586 82.4727 46.1586 82.8775V86H45.203V82.9925C45.203 82.6367 45.1103 82.3587 44.9249 82.1584C44.7395 81.956 44.4849 81.8548 44.1611 81.8548C43.9395 81.8548 43.7424 81.9027 43.5698 81.9986C43.3993 82.0945 43.264 82.2351 43.1639 82.4205C43.0659 82.6037 43.0169 82.8253 43.0169 83.0852ZM47.7102 86V81.0909H48.6274V81.8899H48.6882C48.7904 81.6193 48.9577 81.4084 49.1899 81.2571C49.4222 81.1037 49.7002 81.027 50.0241 81.027C50.3522 81.027 50.6271 81.1037 50.8487 81.2571C51.0724 81.4105 51.2375 81.6214 51.3441 81.8899H51.3952C51.5124 81.6278 51.6988 81.419 51.9545 81.2635C52.2102 81.1058 52.5149 81.027 52.8686 81.027C53.3139 81.027 53.6771 81.1665 53.9584 81.4457C54.2418 81.7248 54.3835 82.1456 54.3835 82.7081V86H53.4279V82.7976C53.4279 82.4652 53.3373 82.2244 53.1562 82.0753C52.9751 81.9261 52.7588 81.8516 52.5074 81.8516C52.1963 81.8516 51.9545 81.9474 51.7819 82.1392C51.6093 82.3288 51.523 82.5728 51.523 82.8711V86H50.5706V82.7369C50.5706 82.4705 50.4875 82.2564 50.3213 82.0945C50.1551 81.9325 49.9389 81.8516 49.6725 81.8516C49.4914 81.8516 49.3242 81.8995 49.1708 81.9954C49.0195 82.0891 48.897 82.2202 48.8032 82.3885C48.7116 82.5568 48.6658 82.7518 48.6658 82.9734V86H47.7102ZM58.05 86.0991C57.5664 86.0991 57.1498 85.9957 56.8004 85.7891C56.4531 85.5803 56.1846 85.2873 55.995 84.9102C55.8075 84.5309 55.7138 84.0866 55.7138 83.5774C55.7138 83.0746 55.8075 82.6314 55.995 82.2479C56.1846 81.8643 56.4488 81.565 56.7876 81.3498C57.1285 81.1346 57.527 81.027 57.9829 81.027C58.2599 81.027 58.5284 81.0728 58.7883 81.1644C59.0483 81.256 59.2816 81.3999 59.4883 81.5959C59.6949 81.7919 59.8579 82.0465 59.9772 82.3597C60.0966 82.6708 60.1562 83.049 60.1562 83.4943V83.8331H56.2539V83.1172H59.2198C59.2198 82.8658 59.1687 82.6431 59.0664 82.4492C58.9641 82.2532 58.8203 82.0987 58.6349 81.9858C58.4517 81.8729 58.2365 81.8164 57.9893 81.8164C57.7209 81.8164 57.4865 81.8825 57.2862 82.0146C57.088 82.1445 56.9346 82.315 56.826 82.5259C56.7194 82.7347 56.6662 82.9616 56.6662 83.2067V83.766C56.6662 84.0941 56.7237 84.3732 56.8388 84.6033C56.9559 84.8335 57.1189 85.0092 57.3277 85.1307C57.5365 85.25 57.7805 85.3097 58.0596 85.3097C58.2407 85.3097 58.4059 85.2841 58.555 85.233C58.7042 85.1797 58.8331 85.1009 58.9417 84.9964C59.0504 84.892 59.1335 84.7631 59.191 84.6097L60.0955 84.7727C60.0231 85.0391 59.8931 85.2724 59.7056 85.4727C59.5202 85.6708 59.2869 85.8253 59.0057 85.9361C58.7265 86.0447 58.408 86.0991 58.05 86.0991ZM62.4421 83.0852V86H61.4865V81.0909H62.4038V81.8899H62.4645C62.5774 81.63 62.7543 81.4212 62.995 81.2635C63.2379 81.1058 63.5437 81.027 63.9123 81.027C64.2468 81.027 64.5398 81.0973 64.7912 81.2379C65.0426 81.3764 65.2376 81.5831 65.3761 81.858C65.5146 82.1328 65.5838 82.4727 65.5838 82.8775V86H64.6282V82.9925C64.6282 82.6367 64.5355 82.3587 64.3501 82.1584C64.1648 81.956 63.9102 81.8548 63.5863 81.8548C63.3647 81.8548 63.1676 81.9027 62.995 81.9986C62.8246 82.0945 62.6893 82.2351 62.5891 82.4205C62.4911 82.6037 62.4421 82.8253 62.4421 83.0852ZM69.427 81.0909V81.858H66.7455V81.0909H69.427ZM67.4646 79.9148H68.4202V84.5586C68.4202 84.744 68.4479 84.8835 68.5033 84.9773C68.5587 85.0689 68.6301 85.1317 68.7174 85.1658C68.8069 85.1978 68.9039 85.2138 69.0083 85.2138C69.085 85.2138 69.1521 85.2085 69.2096 85.1978C69.2672 85.1871 69.3119 85.1786 69.3439 85.1722L69.5164 85.9616C69.461 85.983 69.3822 86.0043 69.2799 86.0256C69.1777 86.049 69.0498 86.0618 68.8964 86.0639C68.645 86.0682 68.4106 86.0234 68.1933 85.9297C67.976 85.8359 67.8002 85.6911 67.6659 85.495C67.5317 85.299 67.4646 85.0529 67.4646 84.7567V79.9148Z" fill="black" fill-opacity="0.5"/>
<path d="M125.149 81.5224C125.087 81.3285 125.004 81.1548 124.9 81.0014C124.797 80.8459 124.675 80.7138 124.532 80.6051C124.389 80.4943 124.226 80.4102 124.043 80.3526C123.862 80.2951 123.663 80.2663 123.445 80.2663C123.077 80.2663 122.744 80.3612 122.448 80.5508C122.152 80.7404 121.918 81.0185 121.745 81.3849C121.575 81.7493 121.489 82.1957 121.489 82.7241C121.489 83.2546 121.576 83.7031 121.748 84.0696C121.921 84.4361 122.157 84.7141 122.458 84.9038C122.758 85.0934 123.1 85.1882 123.484 85.1882C123.839 85.1882 124.15 85.1158 124.414 84.9709C124.68 84.826 124.886 84.6214 125.031 84.3572C125.178 84.0909 125.251 83.7777 125.251 83.4176L125.507 83.4656H123.634V82.6506H126.207V83.3952C126.207 83.945 126.089 84.4222 125.855 84.8271C125.623 85.2298 125.301 85.5408 124.89 85.7603C124.481 85.9798 124.012 86.0895 123.484 86.0895C122.891 86.0895 122.371 85.9531 121.924 85.6804C121.479 85.4077 121.131 85.021 120.882 84.5202C120.633 84.0174 120.508 83.4208 120.508 82.7305C120.508 82.2085 120.581 81.7397 120.725 81.3242C120.87 80.9087 121.074 80.5561 121.336 80.2663C121.6 79.9744 121.91 79.7518 122.266 79.5984C122.624 79.4428 123.015 79.3651 123.439 79.3651C123.793 79.3651 124.122 79.4173 124.426 79.5217C124.733 79.6261 125.006 79.7741 125.245 79.9659C125.485 80.1577 125.685 80.3857 125.842 80.6499C126 80.9119 126.107 81.2028 126.162 81.5224H125.149ZM129.082 86.1087C128.771 86.1087 128.49 86.0511 128.238 85.9361C127.987 85.8189 127.788 85.6495 127.641 85.4279C127.496 85.2063 127.423 84.9347 127.423 84.6129C127.423 84.3359 127.477 84.108 127.583 83.929C127.69 83.75 127.834 83.6083 128.015 83.5039C128.196 83.3995 128.398 83.3207 128.622 83.2674C128.846 83.2141 129.074 83.1737 129.306 83.146C129.6 83.1119 129.839 83.0842 130.022 83.0629C130.205 83.0394 130.338 83.0021 130.421 82.951C130.504 82.8999 130.546 82.8168 130.546 82.7017V82.6793C130.546 82.4002 130.467 82.1839 130.31 82.0305C130.154 81.8771 129.922 81.8004 129.613 81.8004C129.291 81.8004 129.037 81.8718 128.852 82.0146C128.669 82.1552 128.542 82.3118 128.472 82.4844L127.574 82.2798C127.68 81.9815 127.836 81.7408 128.04 81.5575C128.247 81.3722 128.485 81.2379 128.753 81.1548C129.022 81.0696 129.304 81.027 129.6 81.027C129.796 81.027 130.004 81.0504 130.223 81.0973C130.445 81.142 130.651 81.2251 130.843 81.3466C131.037 81.468 131.196 81.6417 131.319 81.8675C131.443 82.0913 131.505 82.3821 131.505 82.7401V86H130.572V85.3288H130.533C130.471 85.4524 130.379 85.5739 130.255 85.6932C130.132 85.8125 129.973 85.9116 129.779 85.9904C129.585 86.0692 129.353 86.1087 129.082 86.1087ZM129.29 85.3416C129.554 85.3416 129.78 85.2894 129.968 85.185C130.157 85.0806 130.301 84.9442 130.399 84.7759C130.499 84.6055 130.549 84.4233 130.549 84.2294V83.5966C130.515 83.6307 130.449 83.6626 130.351 83.6925C130.255 83.7202 130.145 83.7447 130.022 83.766C129.898 83.7852 129.778 83.8033 129.661 83.8203C129.544 83.8352 129.446 83.848 129.367 83.8587C129.181 83.8821 129.012 83.9215 128.859 83.9769C128.707 84.0323 128.586 84.1122 128.494 84.2166C128.405 84.3189 128.36 84.4553 128.36 84.6257C128.36 84.8622 128.447 85.0412 128.622 85.1626C128.797 85.282 129.019 85.3416 129.29 85.3416ZM133.048 87.8409V81.0909H133.981V81.8867H134.061C134.116 81.7844 134.196 81.6662 134.3 81.532C134.405 81.3977 134.55 81.2805 134.735 81.1804C134.921 81.0781 135.166 81.027 135.47 81.027C135.867 81.027 136.22 81.1271 136.531 81.3274C136.842 81.5277 137.086 81.8164 137.263 82.1935C137.442 82.5707 137.532 83.0245 137.532 83.555C137.532 84.0856 137.443 84.5405 137.266 84.9197C137.09 85.2969 136.847 85.5877 136.538 85.7923C136.229 85.9947 135.876 86.0959 135.48 86.0959C135.182 86.0959 134.938 86.0458 134.748 85.9457C134.56 85.8455 134.413 85.7283 134.307 85.5941C134.2 85.4599 134.118 85.3406 134.061 85.2362H134.003V87.8409H133.048ZM133.984 83.5455C133.984 83.8906 134.034 84.1932 134.134 84.4531C134.234 84.7131 134.379 84.9165 134.569 85.0636C134.759 85.2085 134.991 85.2809 135.266 85.2809C135.551 85.2809 135.79 85.2053 135.982 85.054C136.173 84.9006 136.318 84.6928 136.416 84.4308C136.516 84.1687 136.566 83.8736 136.566 83.5455C136.566 83.2216 136.517 82.9308 136.419 82.6729C136.324 82.4151 136.179 82.2116 135.985 82.0625C135.793 81.9134 135.553 81.8388 135.266 81.8388C134.989 81.8388 134.754 81.9102 134.563 82.0529C134.373 82.1957 134.229 82.3949 134.131 82.6506C134.033 82.9062 133.984 83.2045 133.984 83.5455Z" fill="black" fill-opacity="0.5"/>
<rect x="24" y="94" width="88" height="56" rx="5" fill="#F5F5F5"/>
<rect x="38.3301" y="105.66" width="2" height="2" rx="1" fill="black" fill-opacity="0.3"/>
<rect x="66.99" y="105.66" width="2" height="2" rx="1" fill="black" fill-opacity="0.3"/>
<rect x="95.6602" y="105.66" width="2" height="2" rx="1" fill="black" fill-opacity="0.3"/>
<rect x="38.3301" y="120.99" width="2" height="2" rx="1" fill="black" fill-opacity="0.3"/>
<rect x="66.99" y="120.99" width="2" height="2" rx="1" fill="black" fill-opacity="0.3"/>
<rect x="95.6602" y="120.99" width="2" height="2" rx="1" fill="black" fill-opacity="0.3"/>
<rect x="38.3301" y="136.33" width="2" height="2" rx="1" fill="black" fill-opacity="0.3"/>
<rect x="66.99" y="136.33" width="2" height="2" rx="1" fill="black" fill-opacity="0.3"/>
<rect x="95.6602" y="136.33" width="2" height="2" rx="1" fill="black" fill-opacity="0.3"/>
<rect width="16" height="16" transform="translate(60 114)" fill="#F5F5F5"/>
<rect x="63.5" y="119" width="1" height="6" rx="0.5" fill="#007BE5" stroke="#007BE5"/>
<rect x="67.5" y="117.5" width="1" height="9" rx="0.5" fill="#007BE5" stroke="#007BE5"/>
<rect x="71.5" y="120" width="1" height="4" rx="0.5" fill="#007BE5" stroke="#007BE5"/>
<g clip-path="url(#clip6_1092_23260)">
<rect x="120" y="94" width="88" height="24" rx="5" fill="#F5F5F5"/>
<path fill-rule="evenodd" clip-rule="evenodd" d="M135 108.75C135 108.888 135.112 109 135.25 109H135.5C135.633 109 135.76 109.053 135.854 109.146C135.947 109.24 136 109.367 136 109.5C136 109.633 135.947 109.76 135.854 109.854C135.76 109.947 135.633 110 135.5 110H135.25C134.56 110 134 109.44 134 108.75V102.25C134 101.56 134.56 101 135.25 101H135.5C135.633 101 135.76 101.053 135.854 101.146C135.947 101.24 136 101.367 136 101.5C136 101.633 135.947 101.76 135.854 101.854C135.76 101.947 135.633 102 135.5 102H135.25C135.184 102 135.12 102.026 135.073 102.073C135.026 102.12 135 102.184 135 102.25V108.75ZM127 109.5C127 109.367 127.053 109.24 127.146 109.146C127.24 109.053 127.367 109 127.5 109H127.75C127.816 109 127.88 108.974 127.927 108.927C127.974 108.88 128 108.816 128 108.75V102.25C128 102.184 127.974 102.12 127.927 102.073C127.88 102.026 127.816 102 127.75 102H127.5C127.367 102 127.24 101.947 127.146 101.854C127.053 101.76 127 101.633 127 101.5C127 101.367 127.053 101.24 127.146 101.146C127.24 101.053 127.367 101 127.5 101H127.75C128.44 101 129 101.56 129 102.25V108.75C129 109.44 128.44 110 127.75 110H127.5C127.367 110 127.24 109.947 127.146 109.854C127.053 109.76 127 109.633 127 109.5ZM131 107.5C131 107.633 131.053 107.76 131.146 107.854C131.24 107.947 131.367 108 131.5 108C131.633 108 131.76 107.947 131.854 107.854C131.947 107.76 132 107.633 132 107.5V103.5C132 103.367 131.947 103.24 131.854 103.146C131.76 103.053 131.633 103 131.5 103C131.367 103 131.24 103.053 131.146 103.146C131.053 103.24 131 103.367 131 103.5V107.5Z" fill="black" fill-opacity="0.5"/>
<path fill-rule="evenodd" clip-rule="evenodd" d="M193.244 105.182C193.289 105.137 193.341 105.102 193.4 105.078C193.458 105.053 193.52 105.041 193.583 105.041C193.646 105.041 193.709 105.053 193.767 105.078C193.825 105.102 193.878 105.137 193.923 105.182L195.5 106.76L197.077 105.182C197.122 105.137 197.175 105.102 197.233 105.078C197.291 105.054 197.354 105.041 197.417 105.041C197.48 105.041 197.542 105.054 197.6 105.078C197.658 105.102 197.711 105.137 197.756 105.182C197.8 105.226 197.836 105.279 197.86 105.337C197.884 105.396 197.896 105.458 197.896 105.521C197.896 105.584 197.884 105.646 197.86 105.705C197.836 105.763 197.8 105.816 197.756 105.86L195.839 107.777C195.795 107.822 195.742 107.857 195.684 107.881C195.625 107.905 195.563 107.918 195.5 107.918C195.437 107.918 195.375 107.905 195.316 107.881C195.258 107.857 195.205 107.822 195.161 107.777L193.244 105.86C193.199 105.816 193.164 105.763 193.14 105.705C193.116 105.646 193.103 105.584 193.103 105.521C193.103 105.458 193.116 105.396 193.14 105.337C193.164 105.279 193.199 105.226 193.244 105.182Z" fill="black" fill-opacity="0.898"/>
</g>
<g clip-path="url(#clip7_1092_23260)">
<rect x="143.5" y="96.5" width="16" height="19" rx="4.5" fill="white"/>
<rect x="143.5" y="96.5" width="16" height="19" rx="4.5" stroke="#E6E6E6"/>
<g clip-path="url(#clip8_1092_23260)">
<g clip-path="url(#clip9_1092_23260)">
<path d="M151.501 110.109C150.965 110.109 150.491 110.014 150.08 109.824C149.671 109.632 149.352 109.367 149.123 109.031C148.893 108.693 148.78 108.307 148.783 107.875C148.78 107.536 148.847 107.224 148.982 106.937C149.117 106.648 149.302 106.408 149.537 106.215C149.774 106.02 150.038 105.896 150.33 105.844V105.797C149.947 105.698 149.642 105.483 149.416 105.152C149.189 104.819 149.077 104.44 149.08 104.016C149.077 103.609 149.18 103.246 149.388 102.926C149.597 102.605 149.883 102.353 150.248 102.168C150.615 101.983 151.033 101.891 151.501 101.891C151.965 101.891 152.379 101.983 152.744 102.168C153.108 102.353 153.395 102.605 153.603 102.926C153.814 103.246 153.921 103.609 153.923 104.016C153.921 104.44 153.805 104.819 153.576 105.152C153.349 105.483 153.048 105.698 152.673 105.797V105.844C152.962 105.896 153.223 106.02 153.455 106.215C153.686 106.408 153.871 106.648 154.009 106.937C154.147 107.224 154.218 107.536 154.22 107.875C154.218 108.307 154.1 108.693 153.869 109.031C153.639 109.367 153.32 109.632 152.912 109.824C152.505 110.014 152.035 110.109 151.501 110.109ZM151.501 109.25C151.863 109.25 152.176 109.191 152.439 109.074C152.702 108.957 152.905 108.792 153.048 108.578C153.192 108.365 153.264 108.115 153.267 107.828C153.264 107.526 153.186 107.259 153.033 107.027C152.879 106.796 152.669 106.613 152.404 106.48C152.141 106.348 151.84 106.281 151.501 106.281C151.16 106.281 150.856 106.348 150.587 106.48C150.322 106.613 150.112 106.796 149.958 107.027C149.807 107.259 149.733 107.526 149.736 107.828C149.733 108.115 149.802 108.365 149.943 108.578C150.086 108.792 150.291 108.957 150.556 109.074C150.822 109.191 151.137 109.25 151.501 109.25ZM151.501 105.453C151.788 105.453 152.042 105.396 152.263 105.281C152.487 105.167 152.663 105.007 152.791 104.801C152.918 104.595 152.983 104.354 152.986 104.078C152.983 103.807 152.919 103.572 152.794 103.371C152.669 103.168 152.496 103.012 152.275 102.902C152.054 102.79 151.796 102.734 151.501 102.734C151.202 102.734 150.94 102.79 150.716 102.902C150.492 103.012 150.319 103.168 150.197 103.371C150.074 103.572 150.014 103.807 150.017 104.078C150.014 104.354 150.076 104.595 150.201 104.801C150.328 105.007 150.504 105.167 150.728 105.281C150.952 105.396 151.21 105.453 151.501 105.453Z" fill="black"/>
</g>
</g>
</g>
<path d="M224.5 112C224.633 112 224.76 111.947 224.854 111.854C224.947 111.76 225 111.633 225 111.5V109.95C225.565 109.835 226.073 109.529 226.438 109.082C226.803 108.636 227.002 108.077 227.002 107.5C227.002 106.923 226.803 106.364 226.438 105.918C226.073 105.471 225.565 105.165 225 105.05V100.5C225 100.367 224.947 100.24 224.854 100.146C224.76 100.053 224.633 100 224.5 100C224.367 100 224.24 100.053 224.146 100.146C224.053 100.24 224 100.367 224 100.5V105.05C223.436 105.166 222.929 105.473 222.564 105.919C222.2 106.366 222.001 106.924 222.001 107.5C222.001 108.076 222.2 108.634 222.564 109.081C222.929 109.527 223.436 109.834 224 109.95V111.5C224 111.633 224.053 111.76 224.146 111.854C224.24 111.947 224.367 112 224.5 112ZM231.5 112C231.633 112 231.76 111.947 231.854 111.854C231.947 111.76 232 111.633 232 111.5V106.95C232.564 106.834 233.071 106.527 233.435 106.081C233.8 105.634 233.998 105.076 233.998 104.5C233.998 103.924 233.8 103.366 233.435 102.919C233.071 102.473 232.564 102.166 232 102.05V100.5C232 100.367 231.947 100.24 231.854 100.146C231.76 100.053 231.633 100 231.5 100C231.367 100 231.24 100.053 231.146 100.146C231.053 100.24 231 100.367 231 100.5V102.05C230.435 102.165 229.927 102.471 229.562 102.918C229.197 103.364 228.997 103.923 228.997 104.5C228.997 105.077 229.197 105.636 229.562 106.082C229.927 106.529 230.435 106.835 231 106.95V111.5C231 111.633 231.053 111.76 231.146 111.854C231.24 111.947 231.367 112 231.5 112ZM231.5 106C231.102 106 230.721 105.842 230.439 105.561C230.158 105.279 230 104.898 230 104.5C230 104.102 230.158 103.721 230.439 103.439C230.721 103.158 231.102 103 231.5 103C231.898 103 232.279 103.158 232.561 103.439C232.842 103.721 233 104.102 233 104.5C233 104.898 232.842 105.279 232.561 105.561C232.279 105.842 231.898 106 231.5 106ZM224.5 109C224.102 109 223.721 108.842 223.439 108.561C223.158 108.279 223 107.898 223 107.5C223 107.102 223.158 106.721 223.439 106.439C223.721 106.158 224.102 106 224.5 106C224.898 106 225.279 106.158 225.561 106.439C225.842 106.721 226 107.102 226 107.5C226 107.898 225.842 108.279 225.561 108.561C225.279 108.842 224.898 109 224.5 109Z" fill="black" fill-opacity="0.898"/>
<path d="M24.7191 172V165.455H27.0522C27.5614 165.455 27.9833 165.547 28.3178 165.733C28.6523 165.918 28.9027 166.172 29.0689 166.493C29.2351 166.813 29.3182 167.173 29.3182 167.574C29.3182 167.976 29.234 168.338 29.0657 168.66C28.8995 168.98 28.6481 169.233 28.3114 169.421C27.9769 169.606 27.5561 169.699 27.049 169.699H25.4446V168.862H26.9595C27.2813 168.862 27.5423 168.806 27.7425 168.695C27.9428 168.582 28.0898 168.429 28.1836 168.235C28.2773 168.041 28.3242 167.821 28.3242 167.574C28.3242 167.326 28.2773 167.107 28.1836 166.915C28.0898 166.723 27.9418 166.573 27.7393 166.464C27.5391 166.356 27.2749 166.301 26.9467 166.301H25.7067V172H24.7191ZM32.0539 172.109C31.7428 172.109 31.4616 172.051 31.2102 171.936C30.9587 171.819 30.7595 171.65 30.6125 171.428C30.4676 171.206 30.3952 170.935 30.3952 170.613C30.3952 170.336 30.4484 170.108 30.555 169.929C30.6615 169.75 30.8053 169.608 30.9864 169.504C31.1675 169.4 31.37 169.321 31.5937 169.267C31.8174 169.214 32.0454 169.174 32.2776 169.146C32.5717 169.112 32.8103 169.084 32.9935 169.063C33.1768 169.039 33.31 169.002 33.393 168.951C33.4761 168.9 33.5177 168.817 33.5177 168.702V168.679C33.5177 168.4 33.4389 168.184 33.2812 168.031C33.1256 167.877 32.8934 167.8 32.5845 167.8C32.2627 167.8 32.0092 167.872 31.8238 168.015C31.6406 168.155 31.5138 168.312 31.4435 168.484L30.5454 168.28C30.6519 167.982 30.8075 167.741 31.012 167.558C31.2187 167.372 31.4563 167.238 31.7247 167.155C31.9932 167.07 32.2755 167.027 32.5717 167.027C32.7677 167.027 32.9754 167.05 33.1949 167.097C33.4165 167.142 33.6232 167.225 33.8149 167.347C34.0088 167.468 34.1675 167.642 34.2911 167.868C34.4147 168.091 34.4765 168.382 34.4765 168.74V172H33.5433V171.329H33.5049C33.4431 171.452 33.3504 171.574 33.2269 171.693C33.1033 171.812 32.9445 171.912 32.7506 171.99C32.5568 172.069 32.3245 172.109 32.0539 172.109ZM32.2617 171.342C32.5259 171.342 32.7517 171.289 32.9392 171.185C33.1288 171.081 33.2727 170.944 33.3707 170.776C33.4708 170.605 33.5209 170.423 33.5209 170.229V169.597C33.4868 169.631 33.4207 169.663 33.3227 169.692C33.2269 169.72 33.1171 169.745 32.9935 169.766C32.87 169.785 32.7496 169.803 32.6324 169.82C32.5152 169.835 32.4172 169.848 32.3384 169.859C32.153 169.882 31.9836 169.922 31.8302 169.977C31.6789 170.032 31.5575 170.112 31.4658 170.217C31.3764 170.319 31.3316 170.455 31.3316 170.626C31.3316 170.862 31.419 171.041 31.5937 171.163C31.7684 171.282 31.9911 171.342 32.2617 171.342ZM37.857 172.096C37.4607 172.096 37.107 171.995 36.7959 171.792C36.487 171.588 36.2441 171.297 36.0673 170.92C35.8925 170.54 35.8052 170.086 35.8052 169.555C35.8052 169.025 35.8936 168.571 36.0705 168.194C36.2494 167.816 36.4945 167.528 36.8055 167.327C37.1166 167.127 37.4692 167.027 37.8634 167.027C38.1681 167.027 38.4131 167.078 38.5985 167.18C38.786 167.281 38.9309 167.398 39.0332 167.532C39.1376 167.666 39.2185 167.784 39.2761 167.887H39.3336V165.455H40.2892V172H39.356V171.236H39.2761C39.2185 171.341 39.1354 171.46 39.0268 171.594C38.9202 171.728 38.7732 171.846 38.5857 171.946C38.3982 172.046 38.1553 172.096 37.857 172.096ZM38.068 171.281C38.3428 171.281 38.5751 171.208 38.7647 171.064C38.9565 170.917 39.1013 170.713 39.1994 170.453C39.2995 170.193 39.3496 169.891 39.3496 169.545C39.3496 169.205 39.3006 168.906 39.2026 168.651C39.1045 168.395 38.9607 168.196 38.7711 168.053C38.5815 167.91 38.3471 167.839 38.068 167.839C37.7803 167.839 37.5406 167.913 37.3489 168.062C37.1571 168.212 37.0122 168.415 36.9142 168.673C36.8183 168.931 36.7704 169.222 36.7704 169.545C36.7704 169.874 36.8194 170.169 36.9174 170.431C37.0154 170.693 37.1603 170.901 37.3521 171.054C37.5459 171.205 37.7846 171.281 38.068 171.281ZM43.7608 172.096C43.3645 172.096 43.0108 171.995 42.6997 171.792C42.3908 171.588 42.1479 171.297 41.971 170.92C41.7963 170.54 41.709 170.086 41.709 169.555C41.709 169.025 41.7974 168.571 41.9742 168.194C42.1532 167.816 42.3982 167.528 42.7093 167.327C43.0204 167.127 43.373 167.027 43.7672 167.027C44.0719 167.027 44.3169 167.078 44.5023 167.18C44.6898 167.281 44.8347 167.398 44.937 167.532C45.0414 167.666 45.1223 167.784 45.1799 167.887H45.2374V165.455H46.193V172H45.2598V171.236H45.1799C45.1223 171.341 45.0392 171.46 44.9306 171.594C44.824 171.728 44.677 171.846 44.4895 171.946C44.302 172.046 44.0591 172.096 43.7608 172.096ZM43.9718 171.281C44.2466 171.281 44.4789 171.208 44.6685 171.064C44.8602 170.917 45.0051 170.713 45.1031 170.453C45.2033 170.193 45.2534 169.891 45.2534 169.545C45.2534 169.205 45.2044 168.906 45.1063 168.651C45.0083 168.395 44.8645 168.196 44.6749 168.053C44.4852 167.91 44.2509 167.839 43.9718 167.839C43.6841 167.839 43.4444 167.913 43.2526 168.062C43.0609 168.212 42.916 168.415 42.818 168.673C42.7221 168.931 42.6742 169.222 42.6742 169.545C42.6742 169.874 42.7232 170.169 42.8212 170.431C42.9192 170.693 43.0641 170.901 43.2558 171.054C43.4497 171.205 43.6884 171.281 43.9718 171.281ZM47.8269 172V167.091H48.7825V172H47.8269ZM48.3095 166.333C48.1433 166.333 48.0005 166.278 47.8812 166.167C47.764 166.054 47.7054 165.92 47.7054 165.765C47.7054 165.607 47.764 165.473 47.8812 165.362C48.0005 165.249 48.1433 165.192 48.3095 165.192C48.4757 165.192 48.6174 165.249 48.7346 165.362C48.8539 165.473 48.9135 165.607 48.9135 165.765C48.9135 165.92 48.8539 166.054 48.7346 166.167C48.6174 166.278 48.4757 166.333 48.3095 166.333ZM51.2937 169.085V172H50.3381V167.091H51.2554V167.89H51.3161C51.429 167.63 51.6059 167.421 51.8466 167.263C52.0895 167.106 52.3953 167.027 52.7639 167.027C53.0984 167.027 53.3914 167.097 53.6428 167.238C53.8942 167.376 54.0892 167.583 54.2277 167.858C54.3662 168.133 54.4354 168.473 54.4354 168.877V172H53.4798V168.993C53.4798 168.637 53.3871 168.359 53.2017 168.158C53.0164 167.956 52.7618 167.855 52.4379 167.855C52.2163 167.855 52.0192 167.903 51.8466 167.999C51.6762 168.094 51.5409 168.235 51.4407 168.42C51.3427 168.604 51.2937 168.825 51.2937 169.085ZM58.0452 173.943C57.6553 173.943 57.3198 173.892 57.0385 173.79C56.7594 173.688 56.5314 173.552 56.3546 173.384C56.1777 173.216 56.0456 173.031 55.9582 172.831L56.7796 172.492C56.8372 172.586 56.9139 172.685 57.0097 172.789C57.1077 172.896 57.2399 172.987 57.406 173.061C57.5744 173.136 57.7906 173.173 58.0548 173.173C58.4171 173.173 58.7164 173.085 58.9529 172.908C59.1894 172.733 59.3077 172.454 59.3077 172.07V171.105H59.247C59.1894 171.21 59.1063 171.326 58.9977 171.453C58.8911 171.581 58.7441 171.692 58.5566 171.786C58.3691 171.88 58.1252 171.926 57.8247 171.926C57.4369 171.926 57.0875 171.836 56.7764 171.655C56.4675 171.472 56.2225 171.202 56.0413 170.846C55.8624 170.488 55.7729 170.048 55.7729 169.526C55.7729 169.004 55.8613 168.557 56.0381 168.184C56.2171 167.811 56.4622 167.526 56.7732 167.327C57.0843 167.127 57.4369 167.027 57.8311 167.027C58.1358 167.027 58.3819 167.078 58.5694 167.18C58.7569 167.281 58.9028 167.398 59.0073 167.532C59.1138 167.666 59.1958 167.784 59.2533 167.887H59.3237V167.091H60.2601V172.109C60.2601 172.531 60.1621 172.877 59.9661 173.147C59.77 173.418 59.5048 173.618 59.1702 173.748C58.8379 173.878 58.4629 173.943 58.0452 173.943ZM58.0357 171.134C58.3105 171.134 58.5428 171.07 58.7324 170.942C58.9242 170.812 59.069 170.627 59.1671 170.386C59.2672 170.143 59.3173 169.852 59.3173 169.513C59.3173 169.183 59.2683 168.892 59.1702 168.641C59.0722 168.39 58.9284 168.194 58.7388 168.053C58.5492 167.91 58.3148 167.839 58.0357 167.839C57.748 167.839 57.5083 167.913 57.3166 168.062C57.1248 168.21 56.9799 168.41 56.8819 168.663C56.786 168.917 56.7381 169.2 56.7381 169.513C56.7381 169.835 56.7871 170.118 56.8851 170.36C56.9831 170.603 57.128 170.793 57.3198 170.929C57.5136 171.066 57.7523 171.134 58.0357 171.134Z" fill="black" fill-opacity="0.5"/>
<rect x="24.5" y="180.5" width="87" height="23" rx="4.5" fill="white"/>
<rect x="24.5" y="180.5" width="87" height="23" rx="4.5" stroke="#E6E6E6"/>
<rect x="24.5" y="180.5" width="87" height="23" rx="4.5" fill="#F5F5F5"/>
<rect x="24.5" y="180.5" width="87" height="23" rx="4.5" stroke="#F5F5F5"/>
<path fill-rule="evenodd" clip-rule="evenodd" d="M32 187.5C32 187.367 31.9473 187.24 31.8536 187.146C31.7598 187.053 31.6326 187 31.5 187C31.3674 187 31.2402 187.053 31.1464 187.146C31.0527 187.24 31 187.367 31 187.5V196.5C31 196.633 31.0527 196.76 31.1464 196.854C31.2402 196.947 31.3674 197 31.5 197C31.6326 197 31.7598 196.947 31.8536 196.854C31.9473 196.76 32 196.633 32 196.5V187.5ZM40.5 187C40.6326 187 40.7598 187.053 40.8536 187.146C40.9473 187.24 41 187.367 41 187.5V196.5C41 196.633 40.9473 196.76 40.8536 196.854C40.7598 196.947 40.6326 197 40.5 197C40.3674 197 40.2402 196.947 40.1464 196.854C40.0527 196.76 40 196.633 40 196.5V187.5C40 187.367 40.0527 187.24 40.1464 187.146C40.2402 187.053 40.3674 187 40.5 187ZM37 193V191H35V193H37ZM38 191C38 190.735 37.8946 190.48 37.7071 190.293C37.5196 190.105 37.2652 190 37 190H35C34.7348 190 34.4804 190.105 34.2929 190.293C34.1054 190.48 34 190.735 34 191V193C34 193.265 34.1054 193.52 34.2929 193.707C34.4804 193.895 34.7348 194 35 194H37C37.2652 194 37.5196 193.895 37.7071 193.707C37.8946 193.52 38 193.265 38 193V191Z" fill="black" fill-opacity="0.5"/>
<g clip-path="url(#clip10_1092_23260)">
<rect x="48.5" y="182.5" width="21" height="19" rx="4.5" fill="white"/>
<rect x="48.5" y="182.5" width="21" height="19" rx="4.5" stroke="#E6E6E6"/>
<g clip-path="url(#clip11_1092_23260)">
<g clip-path="url(#clip12_1092_23260)">
<path d="M56.6519 188V196H55.6831V189.016H55.6362L53.6831 190.312V189.328L55.6831 188H56.6519ZM61.6089 196.109C61.2808 196.104 60.9526 196.042 60.6245 195.922C60.2964 195.802 59.9969 195.6 59.7261 195.316C59.4552 195.03 59.2378 194.643 59.0737 194.156C58.9097 193.667 58.8276 193.052 58.8276 192.312C58.8276 191.604 58.894 190.977 59.0269 190.43C59.1597 189.88 59.3524 189.418 59.605 189.043C59.8576 188.665 60.1623 188.379 60.519 188.184C60.8784 187.988 61.2834 187.891 61.7339 187.891C62.1818 187.891 62.5802 187.98 62.9292 188.16C63.2808 188.337 63.5672 188.585 63.7886 188.902C64.0099 189.22 64.1532 189.586 64.2183 190H63.2651C63.1766 189.641 63.0047 189.342 62.7495 189.105C62.4943 188.868 62.1558 188.75 61.7339 188.75C61.1141 188.75 60.6258 189.02 60.269 189.559C59.9149 190.098 59.7365 190.854 59.7339 191.828H59.7964C59.9422 191.607 60.1154 191.418 60.3159 191.262C60.519 191.103 60.743 190.98 60.9878 190.895C61.2326 190.809 61.4917 190.766 61.7651 190.766C62.2235 190.766 62.6427 190.88 63.0229 191.109C63.4032 191.336 63.7078 191.65 63.937 192.051C64.1662 192.449 64.2808 192.906 64.2808 193.422C64.2808 193.917 64.1701 194.37 63.9487 194.781C63.7274 195.19 63.4162 195.516 63.0151 195.758C62.6167 195.997 62.1479 196.115 61.6089 196.109ZM61.6089 195.25C61.937 195.25 62.2313 195.168 62.4917 195.004C62.7547 194.84 62.9618 194.62 63.1128 194.344C63.2664 194.068 63.3433 193.76 63.3433 193.422C63.3433 193.091 63.269 192.79 63.1206 192.52C62.9748 192.246 62.7729 192.029 62.5151 191.867C62.2599 191.706 61.9683 191.625 61.6401 191.625C61.3927 191.625 61.1623 191.674 60.9487 191.773C60.7352 191.87 60.5477 192.003 60.3862 192.172C60.2274 192.341 60.1024 192.535 60.0112 192.754C59.9201 192.97 59.8745 193.198 59.8745 193.437C59.8745 193.755 59.9487 194.052 60.0972 194.328C60.2482 194.604 60.4539 194.827 60.7144 194.996C60.9774 195.165 61.2756 195.25 61.6089 195.25Z" fill="black"/>
</g>
</g>
</g>
<rect x="120.5" y="180.5" width="87" height="23" rx="4.5" fill="white"/>
<rect x="120.5" y="180.5" width="87" height="23" rx="4.5" stroke="#E6E6E6"/>
<rect x="120.5" y="180.5" width="87" height="23" rx="4.5" fill="#F5F5F5"/>
<rect x="120.5" y="180.5" width="87" height="23" rx="4.5" stroke="#F5F5F5"/>
<path fill-rule="evenodd" clip-rule="evenodd" d="M127.5 196C127.367 196 127.24 196.053 127.146 196.146C127.053 196.24 127 196.367 127 196.5C127 196.633 127.053 196.76 127.146 196.854C127.24 196.947 127.367 197 127.5 197H136.5C136.633 197 136.76 196.947 136.854 196.854C136.947 196.76 137 196.633 137 196.5C137 196.367 136.947 196.24 136.854 196.146C136.76 196.053 136.633 196 136.5 196H127.5ZM127 187.5C127 187.367 127.053 187.24 127.146 187.146C127.24 187.053 127.367 187 127.5 187H136.5C136.633 187 136.76 187.053 136.854 187.146C136.947 187.24 137 187.367 137 187.5C137 187.633 136.947 187.76 136.854 187.854C136.76 187.947 136.633 188 136.5 188H127.5C127.367 188 127.24 187.947 127.146 187.854C127.053 187.76 127 187.633 127 187.5ZM133 191H131V193H133V191ZM131 190C130.735 190 130.48 190.105 130.293 190.293C130.105 190.48 130 190.735 130 191V193C130 193.265 130.105 193.52 130.293 193.707C130.48 193.895 130.735 194 131 194H133C133.265 194 133.52 193.895 133.707 193.707C133.895 193.52 134 193.265 134 193V191C134 190.735 133.895 190.48 133.707 190.293C133.52 190.105 133.265 190 133 190H131Z" fill="black" fill-opacity="0.5"/>
<g clip-path="url(#clip13_1092_23260)">
<rect x="144.5" y="182.5" width="16" height="19" rx="4.5" fill="white"/>
<rect x="144.5" y="182.5" width="16" height="19" rx="4.5" stroke="#E6E6E6"/>
<g clip-path="url(#clip14_1092_23260)">
<g clip-path="url(#clip15_1092_23260)">
<path d="M152.501 196.109C151.965 196.109 151.491 196.014 151.08 195.824C150.671 195.632 150.352 195.367 150.123 195.031C149.893 194.693 149.78 194.307 149.783 193.875C149.78 193.536 149.847 193.224 149.982 192.937C150.117 192.648 150.302 192.408 150.537 192.215C150.774 192.02 151.038 191.896 151.33 191.844V191.797C150.947 191.698 150.642 191.483 150.416 191.152C150.189 190.819 150.077 190.44 150.08 190.016C150.077 189.609 150.18 189.246 150.388 188.926C150.597 188.605 150.883 188.353 151.248 188.168C151.615 187.983 152.033 187.891 152.501 187.891C152.965 187.891 153.379 187.983 153.744 188.168C154.108 188.353 154.395 188.605 154.603 188.926C154.814 189.246 154.921 189.609 154.923 190.016C154.921 190.44 154.805 190.819 154.576 191.152C154.349 191.483 154.048 191.698 153.673 191.797V191.844C153.962 191.896 154.223 192.02 154.455 192.215C154.686 192.408 154.871 192.648 155.009 192.937C155.147 193.224 155.218 193.536 155.22 193.875C155.218 194.307 155.1 194.693 154.869 195.031C154.639 195.367 154.32 195.632 153.912 195.824C153.505 196.014 153.035 196.109 152.501 196.109ZM152.501 195.25C152.863 195.25 153.176 195.191 153.439 195.074C153.702 194.957 153.905 194.792 154.048 194.578C154.192 194.365 154.264 194.115 154.267 193.828C154.264 193.526 154.186 193.259 154.033 193.027C153.879 192.796 153.669 192.613 153.404 192.48C153.141 192.348 152.84 192.281 152.501 192.281C152.16 192.281 151.856 192.348 151.587 192.48C151.322 192.613 151.112 192.796 150.958 193.027C150.807 193.259 150.733 193.526 150.736 193.828C150.733 194.115 150.802 194.365 150.943 194.578C151.086 194.792 151.291 194.957 151.556 195.074C151.822 195.191 152.137 195.25 152.501 195.25ZM152.501 191.453C152.788 191.453 153.042 191.396 153.263 191.281C153.487 191.167 153.663 191.007 153.791 190.801C153.918 190.595 153.983 190.354 153.986 190.078C153.983 189.807 153.919 189.572 153.794 189.371C153.669 189.168 153.496 189.012 153.275 188.902C153.054 188.79 152.796 188.734 152.501 188.734C152.202 188.734 151.94 188.79 151.716 188.902C151.492 189.012 151.319 189.168 151.197 189.371C151.074 189.572 151.014 189.807 151.017 190.078C151.014 190.354 151.076 190.595 151.201 190.801C151.328 191.007 151.504 191.167 151.728 191.281C151.952 191.396 152.21 191.453 152.501 191.453Z" fill="black"/>
</g>
</g>
</g>
<path fill-rule="evenodd" clip-rule="evenodd" d="M224 189.5C224 189.367 223.947 189.24 223.854 189.146C223.76 189.053 223.633 189 223.5 189C223.367 189 223.24 189.053 223.146 189.146C223.053 189.24 223 189.367 223 189.5V194.5C223 194.633 223.053 194.76 223.146 194.854C223.24 194.947 223.367 195 223.5 195C223.633 195 223.76 194.947 223.854 194.854C223.947 194.76 224 194.633 224 194.5V189.5ZM233 189.5C233 189.367 232.947 189.24 232.854 189.146C232.76 189.053 232.633 189 232.5 189C232.367 189 232.24 189.053 232.146 189.146C232.053 189.24 232 189.367 232 189.5V194.5C232 194.633 232.053 194.76 232.146 194.854C232.24 194.947 232.367 195 232.5 195C232.633 195 232.76 194.947 232.854 194.854C232.947 194.76 233 194.633 233 194.5V189.5ZM225 187.5C225 187.367 225.053 187.24 225.146 187.146C225.24 187.053 225.367 187 225.5 187H230.5C230.633 187 230.76 187.053 230.854 187.146C230.947 187.24 231 187.367 231 187.5C231 187.633 230.947 187.76 230.854 187.854C230.76 187.947 230.633 188 230.5 188H225.5C225.367 188 225.24 187.947 225.146 187.854C225.053 187.76 225 187.633 225 187.5ZM225.5 196C225.367 196 225.24 196.053 225.146 196.146C225.053 196.24 225 196.367 225 196.5C225 196.633 225.053 196.76 225.146 196.854C225.24 196.947 225.367 197 225.5 197H230.5C230.633 197 230.76 196.947 230.854 196.854C230.947 196.76 231 196.633 231 196.5C231 196.367 230.947 196.24 230.854 196.146C230.76 196.053 230.633 196 230.5 196H225.5Z" fill="black" fill-opacity="0.898"/>
<defs>
<clipPath id="clip0_1092_23260">
<rect width="23" height="20" fill="white" transform="translate(48 42)"/>
</clipPath>
<clipPath id="clip1_1092_23260">
<rect width="13" height="16" fill="white" transform="translate(53 44)"/>
</clipPath>
<clipPath id="clip2_1092_23260">
<rect width="13" height="16" fill="white" transform="translate(53 44)"/>
</clipPath>
<clipPath id="clip3_1092_23260">
<rect width="23" height="20" fill="white" transform="translate(144 42)"/>
</clipPath>
<clipPath id="clip4_1092_23260">
<rect width="13" height="16" fill="white" transform="translate(149 44)"/>
</clipPath>
<clipPath id="clip5_1092_23260">
<rect width="13" height="16" fill="white" transform="translate(149 44)"/>
</clipPath>
<clipPath id="clip6_1092_23260">
<rect x="120" y="94" width="88" height="24" rx="5" fill="white"/>
</clipPath>
<clipPath id="clip7_1092_23260">
<rect width="16.78" height="20" fill="white" transform="translate(143 96)"/>
</clipPath>
<clipPath id="clip8_1092_23260">
<rect width="7" height="16" fill="white" transform="translate(148 98)"/>
</clipPath>
<clipPath id="clip9_1092_23260">
<rect width="7" height="16" fill="white" transform="translate(148 98)"/>
</clipPath>
<clipPath id="clip10_1092_23260">
<rect width="21.97" height="20" fill="white" transform="translate(48 182)"/>
</clipPath>
<clipPath id="clip11_1092_23260">
<rect width="12" height="16" fill="white" transform="translate(53 184)"/>
</clipPath>
<clipPath id="clip12_1092_23260">
<rect width="12" height="16" fill="white" transform="translate(53 184)"/>
</clipPath>
<clipPath id="clip13_1092_23260">
<rect width="16.78" height="20" fill="white" transform="translate(144 182)"/>
</clipPath>
<clipPath id="clip14_1092_23260">
<rect width="7" height="16" fill="white" transform="translate(149 184)"/>
</clipPath>
<clipPath id="clip15_1092_23260">
<rect width="7" height="16" fill="white" transform="translate(149 184)"/>
</clipPath>
</defs>
</svg>
