<svg width="520" height="520" viewBox="0 0 520 520" fill="none" xmlns="http://www.w3.org/2000/svg">
<rect x="0.5" y="190.5" width="139" height="139" rx="69.5" fill="#FAF5FF"/>
<rect x="0.5" y="190.5" width="139" height="139" rx="69.5" stroke="#292524"/>
<path d="M80 243.5V235.5H73V238.5H67V235.5H60V243.5H67V240.5H69V250.5H73V253.5H80V245.5H73V248.5H71V240.5H73V243.5H80ZM65 241.5H62V237.5H65V241.5ZM75 247.5H78V251.5H75V247.5ZM75 237.5H78V241.5H75V237.5Z" fill="#44403C"/>
<path d="M25.814 282.5V269.9H30.818C31.586 269.9 32.27 270.056 32.87 270.368C33.482 270.668 33.956 271.1 34.292 271.664C34.64 272.216 34.814 272.882 34.814 273.662V273.896C34.814 274.676 34.634 275.348 34.274 275.912C33.926 276.476 33.452 276.908 32.852 277.208C32.252 277.508 31.574 277.658 30.818 277.658H27.758V282.5H25.814ZM27.758 275.894H30.62C31.304 275.894 31.85 275.714 32.258 275.354C32.666 274.994 32.87 274.502 32.87 273.878V273.698C32.87 273.062 32.666 272.564 32.258 272.204C31.85 271.844 31.304 271.664 30.62 271.664H27.758V275.894ZM36.7137 282.5V273.626H38.5317V274.67H38.8197C38.9637 274.298 39.1917 274.028 39.5037 273.86C39.8277 273.68 40.2237 273.59 40.6917 273.59H41.7537V275.264H40.6197C40.0197 275.264 39.5277 275.432 39.1437 275.768C38.7597 276.092 38.5677 276.596 38.5677 277.28V282.5H36.7137ZM47.5162 282.752C46.6282 282.752 45.8362 282.572 45.1402 282.212C44.4562 281.84 43.9162 281.312 43.5202 280.628C43.1242 279.944 42.9262 279.134 42.9262 278.198V277.928C42.9262 276.992 43.1242 276.188 43.5202 275.516C43.9162 274.832 44.4562 274.304 45.1402 273.932C45.8362 273.56 46.6282 273.374 47.5162 273.374C48.4042 273.374 49.1962 273.56 49.8922 273.932C50.5882 274.304 51.1342 274.832 51.5302 275.516C51.9262 276.188 52.1242 276.992 52.1242 277.928V278.198C52.1242 279.134 51.9262 279.944 51.5302 280.628C51.1342 281.312 50.5882 281.84 49.8922 282.212C49.1962 282.572 48.4042 282.752 47.5162 282.752ZM47.5162 281.096C48.3322 281.096 48.9922 280.838 49.4962 280.322C50.0122 279.794 50.2702 279.068 50.2702 278.144V277.982C50.2702 277.058 50.0182 276.338 49.5142 275.822C49.0102 275.294 48.3442 275.03 47.5162 275.03C46.7122 275.03 46.0522 275.294 45.5362 275.822C45.0322 276.338 44.7802 277.058 44.7802 277.982V278.144C44.7802 279.068 45.0322 279.794 45.5362 280.322C46.0522 280.838 46.7122 281.096 47.5162 281.096ZM54.4325 286.1V273.626H56.2505V274.904H56.5385C56.7665 274.508 57.1085 274.154 57.5645 273.842C58.0325 273.53 58.6985 273.374 59.5625 273.374C60.3065 273.374 60.9845 273.554 61.5965 273.914C62.2205 274.274 62.7185 274.796 63.0905 275.48C63.4745 276.152 63.6665 276.968 63.6665 277.928V278.198C63.6665 279.158 63.4805 279.98 63.1085 280.664C62.7365 281.336 62.2385 281.852 61.6145 282.212C60.9905 282.572 60.3065 282.752 59.5625 282.752C58.9865 282.752 58.5005 282.68 58.1045 282.536C57.7085 282.392 57.3905 282.212 57.1505 281.996C56.9105 281.768 56.7185 281.534 56.5745 281.294H56.2865V286.1H54.4325ZM59.0225 281.132C59.8385 281.132 60.5045 280.874 61.0205 280.358C61.5365 279.842 61.7945 279.104 61.7945 278.144V277.982C61.7945 277.034 61.5305 276.302 61.0025 275.786C60.4865 275.27 59.8265 275.012 59.0225 275.012C58.2305 275.012 57.5705 275.27 57.0425 275.786C56.5265 276.302 56.2685 277.034 56.2685 277.982V278.144C56.2685 279.104 56.5265 279.842 57.0425 280.358C57.5705 280.874 58.2305 281.132 59.0225 281.132ZM70.0317 282.752C69.1317 282.752 68.3457 282.566 67.6737 282.194C67.0017 281.81 66.4737 281.276 66.0897 280.592C65.7177 279.896 65.5317 279.092 65.5317 278.18V277.964C65.5317 277.04 65.7177 276.236 66.0897 275.552C66.4617 274.856 66.9777 274.322 67.6377 273.95C68.3097 273.566 69.0837 273.374 69.9597 273.374C70.8117 273.374 71.5557 273.566 72.1917 273.95C72.8397 274.322 73.3437 274.844 73.7037 275.516C74.0637 276.188 74.2437 276.974 74.2437 277.874V278.576H67.4217C67.4457 279.356 67.7037 279.98 68.1957 280.448C68.6997 280.904 69.3237 281.132 70.0677 281.132C70.7637 281.132 71.2857 280.976 71.6337 280.664C71.9937 280.352 72.2697 279.992 72.4617 279.584L73.9917 280.376C73.8237 280.712 73.5777 281.066 73.2537 281.438C72.9417 281.81 72.5277 282.122 72.0117 282.374C71.4957 282.626 70.8357 282.752 70.0317 282.752ZM67.4397 277.154H72.3537C72.3057 276.482 72.0657 275.96 71.6337 275.588C71.2017 275.204 70.6377 275.012 69.9417 275.012C69.2457 275.012 68.6757 275.204 68.2317 275.588C67.7997 275.96 67.5357 276.482 67.4397 277.154ZM76.4754 282.5V273.626H78.2934V274.67H78.5814C78.7254 274.298 78.9534 274.028 79.2654 273.86C79.5894 273.68 79.9854 273.59 80.4534 273.59H81.5154V275.264H80.3814C79.7814 275.264 79.2894 275.432 78.9054 275.768C78.5214 276.092 78.3294 276.596 78.3294 277.28V282.5H76.4754ZM86.7664 282.5C86.2264 282.5 85.7944 282.338 85.4704 282.014C85.1584 281.69 85.0024 281.258 85.0024 280.718V275.192H82.5544V273.626H85.0024V270.692H86.8564V273.626H89.5024V275.192H86.8564V280.394C86.8564 280.754 87.0244 280.934 87.3604 280.934H89.2144V282.5H86.7664ZM91.6805 282.5V273.626H93.5345V282.5H91.6805ZM92.6165 272.42C92.2565 272.42 91.9505 272.306 91.6985 272.078C91.4585 271.838 91.3385 271.532 91.3385 271.16C91.3385 270.788 91.4585 270.488 91.6985 270.26C91.9505 270.02 92.2565 269.9 92.6165 269.9C92.9885 269.9 93.2945 270.02 93.5345 270.26C93.7745 270.488 93.8945 270.788 93.8945 271.16C93.8945 271.532 93.7745 271.838 93.5345 272.078C93.2945 272.306 92.9885 272.42 92.6165 272.42ZM100.354 282.752C99.454 282.752 98.668 282.566 97.996 282.194C97.324 281.81 96.796 281.276 96.412 280.592C96.04 279.896 95.854 279.092 95.854 278.18V277.964C95.854 277.04 96.04 276.236 96.412 275.552C96.784 274.856 97.3 274.322 97.96 273.95C98.632 273.566 99.406 273.374 100.282 273.374C101.134 273.374 101.878 273.566 102.514 273.95C103.162 274.322 103.666 274.844 104.026 275.516C104.386 276.188 104.566 276.974 104.566 277.874V278.576H97.744C97.768 279.356 98.026 279.98 98.518 280.448C99.022 280.904 99.646 281.132 100.39 281.132C101.086 281.132 101.608 280.976 101.956 280.664C102.316 280.352 102.592 279.992 102.784 279.584L104.314 280.376C104.146 280.712 103.9 281.066 103.576 281.438C103.264 281.81 102.85 282.122 102.334 282.374C101.818 282.626 101.158 282.752 100.354 282.752ZM97.762 277.154H102.676C102.628 276.482 102.388 275.96 101.956 275.588C101.524 275.204 100.96 275.012 100.264 275.012C99.568 275.012 98.998 275.204 98.554 275.588C98.122 275.96 97.858 276.482 97.762 277.154ZM110.434 282.752C109.306 282.752 108.37 282.5 107.626 281.996C106.882 281.492 106.426 280.73 106.258 279.71L107.986 279.296C108.082 279.788 108.244 280.178 108.472 280.466C108.7 280.754 108.982 280.958 109.318 281.078C109.666 281.198 110.038 281.258 110.434 281.258C111.022 281.258 111.472 281.144 111.784 280.916C112.108 280.688 112.27 280.394 112.27 280.034C112.27 279.674 112.12 279.41 111.82 279.242C111.52 279.074 111.076 278.936 110.488 278.828L109.876 278.72C109.276 278.612 108.73 278.456 108.238 278.252C107.746 278.048 107.356 277.766 107.068 277.406C106.78 277.046 106.636 276.584 106.636 276.02C106.636 275.18 106.948 274.532 107.572 274.076C108.196 273.608 109.024 273.374 110.056 273.374C111.052 273.374 111.868 273.602 112.504 274.058C113.152 274.502 113.572 275.108 113.764 275.876L112.036 276.362C111.928 275.822 111.7 275.444 111.352 275.228C111.004 275 110.572 274.886 110.056 274.886C109.552 274.886 109.156 274.982 108.868 275.174C108.58 275.354 108.436 275.612 108.436 275.948C108.436 276.308 108.574 276.572 108.85 276.74C109.138 276.908 109.522 277.034 110.002 277.118L110.632 277.226C111.268 277.334 111.85 277.484 112.378 277.676C112.906 277.868 113.32 278.144 113.62 278.504C113.932 278.864 114.088 279.344 114.088 279.944C114.088 280.832 113.758 281.522 113.098 282.014C112.438 282.506 111.55 282.752 110.434 282.752Z" fill="#1C1917"/>
<rect x="190.5" y="0.5" width="139" height="139" rx="69.5" fill="#F0FDFA"/>
<rect x="190.5" y="0.5" width="139" height="139" rx="69.5" stroke="#292524"/>
<path d="M251 47.5H253V45.5C251.9 45.5 251 46.4 251 47.5ZM251 55.5H253V53.5H251V55.5ZM255 63.5H257V61.5H255V63.5ZM251 51.5H253V49.5H251V51.5ZM261 45.5H259V47.5H261V45.5ZM267 45.5V47.5H269C269 46.4 268.1 45.5 267 45.5ZM253 63.5V61.5H251C251 62.6 251.9 63.5 253 63.5ZM251 59.5H253V57.5H251V59.5ZM257 45.5H255V47.5H257V45.5ZM259 63.5H261V61.5H259V63.5ZM267 55.5H269V53.5H267V55.5ZM267 63.5C268.1 63.5 269 62.6 269 61.5H267V63.5ZM267 51.5H269V49.5H267V51.5ZM267 59.5H269V57.5H267V59.5ZM263 63.5H265V61.5H263V63.5ZM263 47.5H265V45.5H263V47.5ZM255 59.5H265V49.5H255V59.5ZM257 51.5H263V57.5H257V51.5Z" fill="#44403C"/>
<path d="M241.598 92.752C240.65 92.752 239.81 92.584 239.078 92.248C238.346 91.912 237.77 91.42 237.35 90.772C236.942 90.112 236.738 89.314 236.738 88.378V87.928H238.664V88.378C238.664 89.266 238.928 89.932 239.456 90.376C239.996 90.82 240.71 91.042 241.598 91.042C242.498 91.042 243.176 90.856 243.632 90.484C244.088 90.1 244.316 89.608 244.316 89.008C244.316 88.612 244.208 88.288 243.992 88.036C243.776 87.784 243.47 87.586 243.074 87.442C242.678 87.286 242.204 87.142 241.652 87.01L240.986 86.848C240.182 86.656 239.48 86.422 238.88 86.146C238.292 85.858 237.836 85.48 237.512 85.012C237.188 84.544 237.026 83.944 237.026 83.212C237.026 82.468 237.206 81.832 237.566 81.304C237.938 80.776 238.448 80.368 239.096 80.08C239.744 79.792 240.506 79.648 241.382 79.648C242.258 79.648 243.038 79.798 243.722 80.098C244.418 80.398 244.964 80.842 245.36 81.43C245.756 82.018 245.954 82.756 245.954 83.644V84.292H244.028V83.644C244.028 83.104 243.914 82.666 243.686 82.33C243.47 81.994 243.164 81.748 242.768 81.592C242.372 81.436 241.91 81.358 241.382 81.358C240.614 81.358 240.014 81.52 239.582 81.844C239.162 82.156 238.952 82.594 238.952 83.158C238.952 83.542 239.042 83.86 239.222 84.112C239.414 84.352 239.69 84.55 240.05 84.706C240.41 84.862 240.86 85 241.4 85.12L242.066 85.282C242.882 85.462 243.602 85.696 244.226 85.984C244.85 86.26 245.342 86.638 245.702 87.118C246.062 87.598 246.242 88.216 246.242 88.972C246.242 89.728 246.05 90.388 245.666 90.952C245.294 91.516 244.76 91.96 244.064 92.284C243.368 92.596 242.546 92.752 241.598 92.752ZM251.667 92.5C251.127 92.5 250.695 92.338 250.371 92.014C250.059 91.69 249.903 91.258 249.903 90.718V85.192H247.455V83.626H249.903V80.692H251.757V83.626H254.403V85.192H251.757V90.394C251.757 90.754 251.925 90.934 252.261 90.934H254.115V92.5H251.667ZM259.317 92.752C258.681 92.752 258.111 92.644 257.607 92.428C257.115 92.212 256.719 91.894 256.419 91.474C256.131 91.054 255.987 90.544 255.987 89.944C255.987 89.332 256.131 88.828 256.419 88.432C256.719 88.024 257.121 87.718 257.625 87.514C258.141 87.31 258.723 87.208 259.371 87.208H262.071V86.632C262.071 86.116 261.915 85.702 261.603 85.39C261.291 85.078 260.811 84.922 260.163 84.922C259.527 84.922 259.041 85.072 258.705 85.372C258.369 85.672 258.147 86.062 258.039 86.542L256.311 85.984C256.455 85.504 256.683 85.072 256.995 84.688C257.319 84.292 257.745 83.974 258.273 83.734C258.801 83.494 259.437 83.374 260.181 83.374C261.333 83.374 262.239 83.668 262.899 84.256C263.559 84.844 263.889 85.678 263.889 86.758V90.412C263.889 90.772 264.057 90.952 264.393 90.952H265.149V92.5H263.763C263.343 92.5 263.001 92.392 262.737 92.176C262.473 91.96 262.341 91.666 262.341 91.294V91.24H262.071C261.975 91.42 261.831 91.63 261.639 91.87C261.447 92.11 261.165 92.32 260.793 92.5C260.421 92.668 259.929 92.752 259.317 92.752ZM259.587 91.222C260.331 91.222 260.931 91.012 261.387 90.592C261.843 90.16 262.071 89.572 262.071 88.828V88.648H259.479C258.987 88.648 258.591 88.756 258.291 88.972C257.991 89.176 257.841 89.482 257.841 89.89C257.841 90.298 257.997 90.622 258.309 90.862C258.621 91.102 259.047 91.222 259.587 91.222ZM269.667 92.5C269.127 92.5 268.695 92.338 268.371 92.014C268.059 91.69 267.903 91.258 267.903 90.718V85.192H265.455V83.626H267.903V80.692H269.757V83.626H272.403V85.192H269.757V90.394C269.757 90.754 269.925 90.934 270.261 90.934H272.115V92.5H269.667ZM278.332 92.752C277.432 92.752 276.646 92.566 275.974 92.194C275.302 91.81 274.774 91.276 274.39 90.592C274.018 89.896 273.832 89.092 273.832 88.18V87.964C273.832 87.04 274.018 86.236 274.39 85.552C274.762 84.856 275.278 84.322 275.938 83.95C276.61 83.566 277.384 83.374 278.26 83.374C279.112 83.374 279.856 83.566 280.492 83.95C281.14 84.322 281.644 84.844 282.004 85.516C282.364 86.188 282.544 86.974 282.544 87.874V88.576H275.722C275.746 89.356 276.004 89.98 276.496 90.448C277 90.904 277.624 91.132 278.368 91.132C279.064 91.132 279.586 90.976 279.934 90.664C280.294 90.352 280.57 89.992 280.762 89.584L282.292 90.376C282.124 90.712 281.878 91.066 281.554 91.438C281.242 91.81 280.828 92.122 280.312 92.374C279.796 92.626 279.136 92.752 278.332 92.752ZM275.74 87.154H280.654C280.606 86.482 280.366 85.96 279.934 85.588C279.502 85.204 278.938 85.012 278.242 85.012C277.546 85.012 276.976 85.204 276.532 85.588C276.1 85.96 275.836 86.482 275.74 87.154Z" fill="#1C1917"/>
<rect x="190.5" y="380.5" width="139" height="139" rx="69.5" fill="#F7FEE7"/>
<rect x="190.5" y="380.5" width="139" height="139" rx="69.5" stroke="#292524"/>
<path d="M262.69 424.71L252.33 433.99C251.69 434.57 252.05 435.64 252.91 435.72L261 436.5L256.15 443.26C255.93 443.57 255.96 444 256.23 444.27C256.53 444.57 257 444.58 257.31 444.29L267.67 435.01C268.31 434.43 267.95 433.36 267.09 433.28L259 432.5L263.85 425.74C264.07 425.43 264.04 425 263.77 424.73C263.47 424.43 263 424.42 262.69 424.71Z" fill="#44403C"/>
<path d="M231.814 472.5V459.9H239.752V461.664H233.758V465.282H239.248V467.046H233.758V470.736H239.842V472.5H231.814ZM243.975 472.5L240.987 463.626H242.949L245.307 471.132H245.595L247.953 463.626H249.915L246.927 472.5H243.975ZM255.465 472.752C254.565 472.752 253.779 472.566 253.107 472.194C252.435 471.81 251.907 471.276 251.523 470.592C251.151 469.896 250.965 469.092 250.965 468.18V467.964C250.965 467.04 251.151 466.236 251.523 465.552C251.895 464.856 252.411 464.322 253.071 463.95C253.743 463.566 254.517 463.374 255.393 463.374C256.245 463.374 256.989 463.566 257.625 463.95C258.273 464.322 258.777 464.844 259.137 465.516C259.497 466.188 259.677 466.974 259.677 467.874V468.576H252.855C252.879 469.356 253.137 469.98 253.629 470.448C254.133 470.904 254.757 471.132 255.501 471.132C256.197 471.132 256.719 470.976 257.067 470.664C257.427 470.352 257.703 469.992 257.895 469.584L259.425 470.376C259.257 470.712 259.011 471.066 258.687 471.438C258.375 471.81 257.961 472.122 257.445 472.374C256.929 472.626 256.269 472.752 255.465 472.752ZM252.873 467.154H257.787C257.739 466.482 257.499 465.96 257.067 465.588C256.635 465.204 256.071 465.012 255.375 465.012C254.679 465.012 254.109 465.204 253.665 465.588C253.233 465.96 252.969 466.482 252.873 467.154ZM261.909 472.5V463.626H263.727V464.958H264.015C264.183 464.598 264.483 464.262 264.915 463.95C265.347 463.638 265.989 463.482 266.841 463.482C267.513 463.482 268.107 463.632 268.623 463.932C269.151 464.232 269.565 464.658 269.865 465.21C270.165 465.75 270.315 466.404 270.315 467.172V472.5H268.461V467.316C268.461 466.548 268.269 465.984 267.885 465.624C267.501 465.252 266.973 465.066 266.301 465.066C265.533 465.066 264.915 465.318 264.447 465.822C263.991 466.326 263.763 467.058 263.763 468.018V472.5H261.909ZM276.067 472.5C275.527 472.5 275.095 472.338 274.771 472.014C274.459 471.69 274.303 471.258 274.303 470.718V465.192H271.855V463.626H274.303V460.692H276.157V463.626H278.803V465.192H276.157V470.394C276.157 470.754 276.325 470.934 276.661 470.934H278.515V472.5H276.067ZM284.617 472.752C283.489 472.752 282.553 472.5 281.809 471.996C281.065 471.492 280.609 470.73 280.441 469.71L282.169 469.296C282.265 469.788 282.427 470.178 282.655 470.466C282.883 470.754 283.165 470.958 283.501 471.078C283.849 471.198 284.221 471.258 284.617 471.258C285.205 471.258 285.655 471.144 285.967 470.916C286.291 470.688 286.453 470.394 286.453 470.034C286.453 469.674 286.303 469.41 286.003 469.242C285.703 469.074 285.259 468.936 284.671 468.828L284.059 468.72C283.459 468.612 282.913 468.456 282.421 468.252C281.929 468.048 281.539 467.766 281.251 467.406C280.963 467.046 280.819 466.584 280.819 466.02C280.819 465.18 281.131 464.532 281.755 464.076C282.379 463.608 283.207 463.374 284.239 463.374C285.235 463.374 286.051 463.602 286.687 464.058C287.335 464.502 287.755 465.108 287.947 465.876L286.219 466.362C286.111 465.822 285.883 465.444 285.535 465.228C285.187 465 284.755 464.886 284.239 464.886C283.735 464.886 283.339 464.982 283.051 465.174C282.763 465.354 282.619 465.612 282.619 465.948C282.619 466.308 282.757 466.572 283.033 466.74C283.321 466.908 283.705 467.034 284.185 467.118L284.815 467.226C285.451 467.334 286.033 467.484 286.561 467.676C287.089 467.868 287.503 468.144 287.803 468.504C288.115 468.864 288.271 469.344 288.271 469.944C288.271 470.832 287.941 471.522 287.281 472.014C286.621 472.506 285.733 472.752 284.617 472.752Z" fill="#1C1917"/>
<rect x="190.5" y="190.5" width="139" height="139" fill="#FFFBEB"/>
<rect x="190.5" y="190.5" width="139" height="139" stroke="#292524"/>
<path fill-rule="evenodd" clip-rule="evenodd" d="M260.707 234.793C260.52 234.605 260.265 234.5 260 234.5C259.735 234.5 259.481 234.605 259.293 234.793L256.293 237.793C256.106 237.98 256 238.235 256 238.5C256 238.765 256.106 239.019 256.293 239.207L259.293 242.207C259.481 242.394 259.735 242.5 260 242.5C260.265 242.5 260.52 242.394 260.707 242.207L263.707 239.207C263.895 239.019 264 238.765 264 238.5C264 238.235 263.895 237.98 263.707 237.793L260.707 234.793ZM259.293 246.793C259.481 246.605 259.735 246.5 260 246.5C260.265 246.5 260.52 246.605 260.707 246.793L263.707 249.793C263.895 249.98 264 250.235 264 250.5C264 250.765 263.895 251.019 263.707 251.207L260.707 254.207C260.52 254.394 260.265 254.5 260 254.5C259.735 254.5 259.481 254.394 259.293 254.207L256.293 251.207C256.106 251.019 256 250.765 256 250.5C256 250.235 256.106 249.98 256.293 249.793L259.293 246.793ZM265.293 240.793C265.481 240.605 265.735 240.5 266 240.5C266.265 240.5 266.52 240.605 266.707 240.793L269.707 243.793C269.895 243.98 270 244.235 270 244.5C270 244.765 269.895 245.019 269.707 245.207L266.707 248.207C266.52 248.394 266.265 248.5 266 248.5C265.735 248.5 265.481 248.394 265.293 248.207L262.293 245.207C262.106 245.019 262 244.765 262 244.5C262 244.235 262.106 243.98 262.293 243.793L265.293 240.793ZM253.293 240.793C253.481 240.605 253.735 240.5 254 240.5C254.265 240.5 254.52 240.605 254.707 240.793L257.707 243.793C257.895 243.98 258 244.235 258 244.5C258 244.765 257.895 245.019 257.707 245.207L254.707 248.207C254.52 248.394 254.265 248.5 254 248.5C253.735 248.5 253.481 248.394 253.293 248.207L250.293 245.207C250.106 245.019 250 244.765 250 244.5C250 244.235 250.106 243.98 250.293 243.793L253.293 240.793Z" fill="#44403C"/>
<path d="M214.976 282.752C213.416 282.752 212.18 282.32 211.268 281.456C210.356 280.58 209.9 279.332 209.9 277.712V274.688C209.9 273.068 210.356 271.826 211.268 270.962C212.18 270.086 213.416 269.648 214.976 269.648C216.524 269.648 217.718 270.074 218.558 270.926C219.41 271.766 219.836 272.924 219.836 274.4V274.508H217.496V274.328C217.496 273.584 217.286 272.972 216.866 272.492C216.458 272.012 215.828 271.772 214.976 271.772C214.136 271.772 213.476 272.03 212.996 272.546C212.516 273.062 212.276 273.764 212.276 274.652V277.748C212.276 278.624 212.516 279.326 212.996 279.854C213.476 280.37 214.136 280.628 214.976 280.628C215.828 280.628 216.458 280.388 216.866 279.908C217.286 279.416 217.496 278.804 217.496 278.072V277.748H219.836V278C219.836 279.476 219.41 280.64 218.558 281.492C217.718 282.332 216.524 282.752 214.976 282.752ZM226.092 282.752C225.204 282.752 224.406 282.572 223.698 282.212C222.99 281.852 222.432 281.33 222.024 280.646C221.616 279.962 221.412 279.14 221.412 278.18V277.892C221.412 276.932 221.616 276.11 222.024 275.426C222.432 274.742 222.99 274.22 223.698 273.86C224.406 273.5 225.204 273.32 226.092 273.32C226.98 273.32 227.778 273.5 228.486 273.86C229.194 274.22 229.752 274.742 230.16 275.426C230.568 276.11 230.772 276.932 230.772 277.892V278.18C230.772 279.14 230.568 279.962 230.16 280.646C229.752 281.33 229.194 281.852 228.486 282.212C227.778 282.572 226.98 282.752 226.092 282.752ZM226.092 280.736C226.788 280.736 227.364 280.514 227.82 280.07C228.276 279.614 228.504 278.966 228.504 278.126V277.946C228.504 277.106 228.276 276.464 227.82 276.02C227.376 275.564 226.8 275.336 226.092 275.336C225.396 275.336 224.82 275.564 224.364 276.02C223.908 276.464 223.68 277.106 223.68 277.946V278.126C223.68 278.966 223.908 279.614 224.364 280.07C224.82 280.514 225.396 280.736 226.092 280.736ZM232.865 282.5V273.572H235.097V274.544H235.421C235.577 274.244 235.835 273.986 236.195 273.77C236.555 273.542 237.029 273.428 237.617 273.428C238.253 273.428 238.763 273.554 239.147 273.806C239.531 274.046 239.825 274.364 240.029 274.76H240.353C240.557 274.376 240.845 274.058 241.217 273.806C241.589 273.554 242.117 273.428 242.801 273.428C243.353 273.428 243.851 273.548 244.295 273.788C244.751 274.016 245.111 274.37 245.375 274.85C245.651 275.318 245.789 275.912 245.789 276.632V282.5H243.521V276.794C243.521 276.302 243.395 275.936 243.143 275.696C242.891 275.444 242.537 275.318 242.081 275.318C241.565 275.318 241.163 275.486 240.875 275.822C240.599 276.146 240.461 276.614 240.461 277.226V282.5H238.193V276.794C238.193 276.302 238.067 275.936 237.815 275.696C237.563 275.444 237.209 275.318 236.753 275.318C236.237 275.318 235.835 275.486 235.547 275.822C235.271 276.146 235.133 276.614 235.133 277.226V282.5H232.865ZM248.229 286.1V273.572H250.461V274.652H250.785C250.989 274.304 251.307 273.998 251.739 273.734C252.171 273.458 252.789 273.32 253.593 273.32C254.313 273.32 254.979 273.5 255.591 273.86C256.203 274.208 256.695 274.724 257.067 275.408C257.439 276.092 257.625 276.92 257.625 277.892V278.18C257.625 279.152 257.439 279.98 257.067 280.664C256.695 281.348 256.203 281.87 255.591 282.23C254.979 282.578 254.313 282.752 253.593 282.752C253.053 282.752 252.597 282.686 252.225 282.554C251.865 282.434 251.571 282.278 251.343 282.086C251.127 281.882 250.953 281.678 250.821 281.474H250.497V286.1H248.229ZM252.909 280.772C253.617 280.772 254.199 280.55 254.655 280.106C255.123 279.65 255.357 278.99 255.357 278.126V277.946C255.357 277.082 255.123 276.428 254.655 275.984C254.187 275.528 253.605 275.3 252.909 275.3C252.213 275.3 251.631 275.528 251.163 275.984C250.695 276.428 250.461 277.082 250.461 277.946V278.126C250.461 278.99 250.695 279.65 251.163 280.106C251.631 280.55 252.213 280.772 252.909 280.772ZM263.955 282.752C263.067 282.752 262.269 282.572 261.561 282.212C260.853 281.852 260.295 281.33 259.887 280.646C259.479 279.962 259.275 279.14 259.275 278.18V277.892C259.275 276.932 259.479 276.11 259.887 275.426C260.295 274.742 260.853 274.22 261.561 273.86C262.269 273.5 263.067 273.32 263.955 273.32C264.843 273.32 265.641 273.5 266.349 273.86C267.057 274.22 267.615 274.742 268.023 275.426C268.431 276.11 268.635 276.932 268.635 277.892V278.18C268.635 279.14 268.431 279.962 268.023 280.646C267.615 281.33 267.057 281.852 266.349 282.212C265.641 282.572 264.843 282.752 263.955 282.752ZM263.955 280.736C264.651 280.736 265.227 280.514 265.683 280.07C266.139 279.614 266.367 278.966 266.367 278.126V277.946C266.367 277.106 266.139 276.464 265.683 276.02C265.239 275.564 264.663 275.336 263.955 275.336C263.259 275.336 262.683 275.564 262.227 276.02C261.771 276.464 261.543 277.106 261.543 277.946V278.126C261.543 278.966 261.771 279.614 262.227 280.07C262.683 280.514 263.259 280.736 263.955 280.736ZM270.729 282.5V273.572H272.961V274.742H273.285C273.429 274.43 273.699 274.136 274.095 273.86C274.491 273.572 275.091 273.428 275.895 273.428C276.591 273.428 277.197 273.59 277.713 273.914C278.241 274.226 278.649 274.664 278.937 275.228C279.225 275.78 279.369 276.428 279.369 277.172V282.5H277.101V277.352C277.101 276.68 276.933 276.176 276.597 275.84C276.273 275.504 275.805 275.336 275.193 275.336C274.497 275.336 273.957 275.57 273.573 276.038C273.189 276.494 272.997 277.136 272.997 277.964V282.5H270.729ZM285.889 282.752C285.001 282.752 284.215 282.566 283.531 282.194C282.859 281.81 282.331 281.276 281.947 280.592C281.575 279.896 281.389 279.08 281.389 278.144V277.928C281.389 276.992 281.575 276.182 281.947 275.498C282.319 274.802 282.841 274.268 283.513 273.896C284.185 273.512 284.965 273.32 285.853 273.32C286.729 273.32 287.491 273.518 288.139 273.914C288.787 274.298 289.291 274.838 289.651 275.534C290.011 276.218 290.191 277.016 290.191 277.928V278.702H283.693C283.717 279.314 283.945 279.812 284.377 280.196C284.809 280.58 285.337 280.772 285.961 280.772C286.597 280.772 287.065 280.634 287.365 280.358C287.665 280.082 287.893 279.776 288.049 279.44L289.903 280.412C289.735 280.724 289.489 281.066 289.165 281.438C288.853 281.798 288.433 282.11 287.905 282.374C287.377 282.626 286.705 282.752 285.889 282.752ZM283.711 277.01H287.887C287.839 276.494 287.629 276.08 287.257 275.768C286.897 275.456 286.423 275.3 285.835 275.3C285.223 275.3 284.737 275.456 284.377 275.768C284.017 276.08 283.795 276.494 283.711 277.01ZM292.209 282.5V273.572H294.441V274.742H294.765C294.909 274.43 295.179 274.136 295.575 273.86C295.971 273.572 296.571 273.428 297.375 273.428C298.071 273.428 298.677 273.59 299.193 273.914C299.721 274.226 300.129 274.664 300.417 275.228C300.705 275.78 300.849 276.428 300.849 277.172V282.5H298.581V277.352C298.581 276.68 298.413 276.176 298.077 275.84C297.753 275.504 297.285 275.336 296.673 275.336C295.977 275.336 295.437 275.57 295.053 276.038C294.669 276.494 294.477 277.136 294.477 277.964V282.5H292.209ZM306.475 282.5C305.887 282.5 305.407 282.32 305.035 281.96C304.675 281.588 304.495 281.096 304.495 280.484V275.444H302.263V273.572H304.495V270.8H306.763V273.572H309.211V275.444H306.763V280.088C306.763 280.448 306.931 280.628 307.267 280.628H308.995V282.5H306.475Z" fill="#1C1917"/>
<rect x="380.5" y="190.5" width="139" height="139" rx="69.5" fill="#FDF2F8"/>
<rect x="380.5" y="190.5" width="139" height="139" rx="69.5" stroke="#292524"/>
<path d="M440 236.5V252.5H460V236.5H440ZM442 238.5H458V243.5H442V238.5ZM442 250.5V245.5H446V250.5H442ZM448 250.5V245.5H458V250.5H448Z" fill="#44403C"/>
<path d="M400.994 282.752C399.458 282.752 398.24 282.32 397.34 281.456C396.44 280.58 395.99 279.32 395.99 277.676V274.724C395.99 273.08 396.44 271.826 397.34 270.962C398.24 270.086 399.458 269.648 400.994 269.648C402.506 269.648 403.67 270.068 404.486 270.908C405.314 271.748 405.728 272.894 405.728 274.346V274.454H403.802V274.292C403.802 273.44 403.568 272.744 403.1 272.204C402.644 271.664 401.942 271.394 400.994 271.394C400.034 271.394 399.284 271.688 398.744 272.276C398.204 272.852 397.934 273.656 397.934 274.688V277.712C397.934 278.732 398.204 279.536 398.744 280.124C399.284 280.712 400.034 281.006 400.994 281.006C401.942 281.006 402.644 280.736 403.1 280.196C403.568 279.644 403.802 278.948 403.802 278.108V277.802H405.728V278.054C405.728 279.506 405.314 280.652 404.486 281.492C403.67 282.332 402.506 282.752 400.994 282.752ZM412.092 282.752C411.204 282.752 410.412 282.572 409.716 282.212C409.032 281.84 408.492 281.312 408.096 280.628C407.7 279.944 407.502 279.134 407.502 278.198V277.928C407.502 276.992 407.7 276.188 408.096 275.516C408.492 274.832 409.032 274.304 409.716 273.932C410.412 273.56 411.204 273.374 412.092 273.374C412.98 273.374 413.772 273.56 414.468 273.932C415.164 274.304 415.71 274.832 416.106 275.516C416.502 276.188 416.7 276.992 416.7 277.928V278.198C416.7 279.134 416.502 279.944 416.106 280.628C415.71 281.312 415.164 281.84 414.468 282.212C413.772 282.572 412.98 282.752 412.092 282.752ZM412.092 281.096C412.908 281.096 413.568 280.838 414.072 280.322C414.588 279.794 414.846 279.068 414.846 278.144V277.982C414.846 277.058 414.594 276.338 414.09 275.822C413.586 275.294 412.92 275.03 412.092 275.03C411.288 275.03 410.628 275.294 410.112 275.822C409.608 276.338 409.356 277.058 409.356 277.982V278.144C409.356 279.068 409.608 279.794 410.112 280.322C410.628 280.838 411.288 281.096 412.092 281.096ZM419.009 282.5V273.626H420.827V274.67H421.115C421.283 274.358 421.553 274.082 421.925 273.842C422.297 273.602 422.801 273.482 423.437 273.482C424.097 273.482 424.625 273.62 425.021 273.896C425.429 274.16 425.735 274.502 425.939 274.922H426.227C426.431 274.514 426.725 274.172 427.109 273.896C427.505 273.62 428.063 273.482 428.783 273.482C429.359 273.482 429.869 273.602 430.313 273.842C430.757 274.07 431.111 274.418 431.375 274.886C431.639 275.342 431.771 275.912 431.771 276.596V282.5H429.917V276.74C429.917 276.2 429.767 275.786 429.467 275.498C429.179 275.198 428.765 275.048 428.225 275.048C427.649 275.048 427.187 275.234 426.839 275.606C426.491 275.978 426.317 276.512 426.317 277.208V282.5H424.463V276.74C424.463 276.2 424.313 275.786 424.013 275.498C423.725 275.198 423.311 275.048 422.771 275.048C422.195 275.048 421.733 275.234 421.385 275.606C421.037 275.978 420.863 276.512 420.863 277.208V282.5H419.009ZM434.442 286.1V273.626H436.26V274.904H436.548C436.776 274.508 437.118 274.154 437.574 273.842C438.042 273.53 438.708 273.374 439.572 273.374C440.316 273.374 440.994 273.554 441.606 273.914C442.23 274.274 442.728 274.796 443.1 275.48C443.484 276.152 443.676 276.968 443.676 277.928V278.198C443.676 279.158 443.49 279.98 443.118 280.664C442.746 281.336 442.248 281.852 441.624 282.212C441 282.572 440.316 282.752 439.572 282.752C438.996 282.752 438.51 282.68 438.114 282.536C437.718 282.392 437.4 282.212 437.16 281.996C436.92 281.768 436.728 281.534 436.584 281.294H436.296V286.1H434.442ZM439.032 281.132C439.848 281.132 440.514 280.874 441.03 280.358C441.546 279.842 441.804 279.104 441.804 278.144V277.982C441.804 277.034 441.54 276.302 441.012 275.786C440.496 275.27 439.836 275.012 439.032 275.012C438.24 275.012 437.58 275.27 437.052 275.786C436.536 276.302 436.278 277.034 436.278 277.982V278.144C436.278 279.104 436.536 279.842 437.052 280.358C437.58 280.874 438.24 281.132 439.032 281.132ZM450.131 282.752C449.243 282.752 448.451 282.572 447.755 282.212C447.071 281.84 446.531 281.312 446.135 280.628C445.739 279.944 445.541 279.134 445.541 278.198V277.928C445.541 276.992 445.739 276.188 446.135 275.516C446.531 274.832 447.071 274.304 447.755 273.932C448.451 273.56 449.243 273.374 450.131 273.374C451.019 273.374 451.811 273.56 452.507 273.932C453.203 274.304 453.749 274.832 454.145 275.516C454.541 276.188 454.739 276.992 454.739 277.928V278.198C454.739 279.134 454.541 279.944 454.145 280.628C453.749 281.312 453.203 281.84 452.507 282.212C451.811 282.572 451.019 282.752 450.131 282.752ZM450.131 281.096C450.947 281.096 451.607 280.838 452.111 280.322C452.627 279.794 452.885 279.068 452.885 278.144V277.982C452.885 277.058 452.633 276.338 452.129 275.822C451.625 275.294 450.959 275.03 450.131 275.03C449.327 275.03 448.667 275.294 448.151 275.822C447.647 276.338 447.395 277.058 447.395 277.982V278.144C447.395 279.068 447.647 279.794 448.151 280.322C448.667 280.838 449.327 281.096 450.131 281.096ZM460.684 282.752C459.556 282.752 458.62 282.5 457.876 281.996C457.132 281.492 456.676 280.73 456.508 279.71L458.236 279.296C458.332 279.788 458.494 280.178 458.722 280.466C458.95 280.754 459.232 280.958 459.568 281.078C459.916 281.198 460.288 281.258 460.684 281.258C461.272 281.258 461.722 281.144 462.034 280.916C462.358 280.688 462.52 280.394 462.52 280.034C462.52 279.674 462.37 279.41 462.07 279.242C461.77 279.074 461.326 278.936 460.738 278.828L460.126 278.72C459.526 278.612 458.98 278.456 458.488 278.252C457.996 278.048 457.606 277.766 457.318 277.406C457.03 277.046 456.886 276.584 456.886 276.02C456.886 275.18 457.198 274.532 457.822 274.076C458.446 273.608 459.274 273.374 460.306 273.374C461.302 273.374 462.118 273.602 462.754 274.058C463.402 274.502 463.822 275.108 464.014 275.876L462.286 276.362C462.178 275.822 461.95 275.444 461.602 275.228C461.254 275 460.822 274.886 460.306 274.886C459.802 274.886 459.406 274.982 459.118 275.174C458.83 275.354 458.686 275.612 458.686 275.948C458.686 276.308 458.824 276.572 459.1 276.74C459.388 276.908 459.772 277.034 460.252 277.118L460.882 277.226C461.518 277.334 462.1 277.484 462.628 277.676C463.156 277.868 463.57 278.144 463.87 278.504C464.182 278.864 464.338 279.344 464.338 279.944C464.338 280.832 464.008 281.522 463.348 282.014C462.688 282.506 461.8 282.752 460.684 282.752ZM466.505 282.5V273.626H468.359V282.5H466.505ZM467.441 272.42C467.081 272.42 466.775 272.306 466.523 272.078C466.283 271.838 466.163 271.532 466.163 271.16C466.163 270.788 466.283 270.488 466.523 270.26C466.775 270.02 467.081 269.9 467.441 269.9C467.813 269.9 468.119 270.02 468.359 270.26C468.599 270.488 468.719 270.788 468.719 271.16C468.719 271.532 468.599 271.838 468.359 272.078C468.119 272.306 467.813 272.42 467.441 272.42ZM474.44 282.5C473.9 282.5 473.468 282.338 473.144 282.014C472.832 281.69 472.676 281.258 472.676 280.718V275.192H470.228V273.626H472.676V270.692H474.53V273.626H477.176V275.192H474.53V280.394C474.53 280.754 474.698 280.934 475.034 280.934H476.888V282.5H474.44ZM479.354 282.5V273.626H481.208V282.5H479.354ZM480.29 272.42C479.93 272.42 479.624 272.306 479.372 272.078C479.132 271.838 479.012 271.532 479.012 271.16C479.012 270.788 479.132 270.488 479.372 270.26C479.624 270.02 479.93 269.9 480.29 269.9C480.662 269.9 480.968 270.02 481.208 270.26C481.448 270.488 481.568 270.788 481.568 271.16C481.568 271.532 481.448 271.838 481.208 272.078C480.968 272.306 480.662 272.42 480.29 272.42ZM488.118 282.752C487.23 282.752 486.438 282.572 485.742 282.212C485.058 281.84 484.518 281.312 484.122 280.628C483.726 279.944 483.528 279.134 483.528 278.198V277.928C483.528 276.992 483.726 276.188 484.122 275.516C484.518 274.832 485.058 274.304 485.742 273.932C486.438 273.56 487.23 273.374 488.118 273.374C489.006 273.374 489.798 273.56 490.494 273.932C491.19 274.304 491.736 274.832 492.132 275.516C492.528 276.188 492.726 276.992 492.726 277.928V278.198C492.726 279.134 492.528 279.944 492.132 280.628C491.736 281.312 491.19 281.84 490.494 282.212C489.798 282.572 489.006 282.752 488.118 282.752ZM488.118 281.096C488.934 281.096 489.594 280.838 490.098 280.322C490.614 279.794 490.872 279.068 490.872 278.144V277.982C490.872 277.058 490.62 276.338 490.116 275.822C489.612 275.294 488.946 275.03 488.118 275.03C487.314 275.03 486.654 275.294 486.138 275.822C485.634 276.338 485.382 277.058 485.382 277.982V278.144C485.382 279.068 485.634 279.794 486.138 280.322C486.654 280.838 487.314 281.096 488.118 281.096ZM495.034 282.5V273.626H496.852V274.958H497.14C497.308 274.598 497.608 274.262 498.04 273.95C498.472 273.638 499.114 273.482 499.966 273.482C500.638 273.482 501.232 273.632 501.748 273.932C502.276 274.232 502.69 274.658 502.99 275.21C503.29 275.75 503.44 276.404 503.44 277.172V282.5H501.586V277.316C501.586 276.548 501.394 275.984 501.01 275.624C500.626 275.252 500.098 275.066 499.426 275.066C498.658 275.066 498.04 275.318 497.572 275.822C497.116 276.326 496.888 277.058 496.888 278.018V282.5H495.034Z" fill="#1C1917"/>
<path d="M260 193.167C261.473 193.167 262.667 191.973 262.667 190.5C262.667 189.027 261.473 187.833 260 187.833C258.527 187.833 257.333 189.027 257.333 190.5C257.333 191.973 258.527 193.167 260 193.167ZM260 143.167C261.473 143.167 262.667 141.973 262.667 140.5C262.667 139.027 261.473 137.833 260 137.833C258.527 137.833 257.333 139.027 257.333 140.5C257.333 141.973 258.527 143.167 260 143.167ZM260 190.5L260.5 190.5L260.5 140.5L260 140.5L259.5 140.5L259.5 190.5L260 190.5Z" fill="#292524"/>
<path d="M260 382.667C261.473 382.667 262.667 381.473 262.667 380C262.667 378.527 261.473 377.333 260 377.333C258.527 377.333 257.333 378.527 257.333 380C257.333 381.473 258.527 382.667 260 382.667ZM260 332.667C261.473 332.667 262.667 331.473 262.667 330C262.667 328.527 261.473 327.333 260 327.333C258.527 327.333 257.333 328.527 257.333 330C257.333 331.473 258.527 332.667 260 332.667ZM260 380L260.5 380L260.5 330L260 330L259.5 330L259.5 380L260 380Z" fill="#292524"/>
<path d="M327.333 260C327.333 261.473 328.527 262.667 330 262.667C331.473 262.667 332.667 261.473 332.667 260C332.667 258.527 331.473 257.333 330 257.333C328.527 257.333 327.333 258.527 327.333 260ZM377.333 260C377.333 261.473 378.527 262.667 380 262.667C381.473 262.667 382.667 261.473 382.667 260C382.667 258.527 381.473 257.333 380 257.333C378.527 257.333 377.333 258.527 377.333 260ZM330 260L330 260.5L380 260.5L380 260L380 259.5L330 259.5L330 260Z" fill="#292524"/>
<path d="M137.333 260C137.333 261.473 138.527 262.667 140 262.667C141.473 262.667 142.667 261.473 142.667 260C142.667 258.527 141.473 257.333 140 257.333C138.527 257.333 137.333 258.527 137.333 260ZM187.333 260C187.333 261.473 188.527 262.667 190 262.667C191.473 262.667 192.667 261.473 192.667 260C192.667 258.527 191.473 257.333 190 257.333C188.527 257.333 187.333 258.527 187.333 260ZM140 260L140 260.5L190 260.5L190 260L190 259.5L140 259.5L140 260Z" fill="#292524"/>
</svg>
