<svg width="300" height="208" viewBox="0 0 300 208" fill="none" xmlns="http://www.w3.org/2000/svg">
<g clip-path="url(#clip0_1067_22669)">
<path d="M0 10.25C0 4.72716 4.47715 0.25 10 0.25H290C295.523 0.25 300 4.72715 300 10.25V197.75C300 203.273 295.523 207.75 290 207.75H10C4.47716 207.75 0 203.273 0 197.75V10.25Z" fill="white"/>
<path d="M20.9863 30.25V20.25H24.7363C25.5046 20.25 26.1491 20.3932 26.6699 20.6797C27.194 20.9661 27.5895 21.36 27.8564 21.8613C28.1266 22.3594 28.2617 22.9258 28.2617 23.5605C28.2617 24.2018 28.1266 24.7715 27.8564 25.2695C27.5863 25.7676 27.1875 26.1598 26.6602 26.4463C26.1328 26.7295 25.4834 26.8711 24.7119 26.8711H22.2266V25.3818H24.4678C24.917 25.3818 25.2848 25.3037 25.5713 25.1475C25.8577 24.9912 26.0693 24.7764 26.2061 24.5029C26.346 24.2295 26.416 23.9154 26.416 23.5605C26.416 23.2057 26.346 22.8932 26.2061 22.623C26.0693 22.3529 25.8561 22.1429 25.5664 21.9932C25.2799 21.8402 24.9105 21.7637 24.458 21.7637H22.7979V30.25H20.9863ZM31.781 30.4014C31.3057 30.4014 30.8777 30.3167 30.4968 30.1475C30.1192 29.9749 29.8197 29.721 29.5984 29.3857C29.3803 29.0505 29.2712 28.637 29.2712 28.1455C29.2712 27.7223 29.3494 27.3724 29.5056 27.0957C29.6619 26.819 29.8751 26.5977 30.1453 26.4316C30.4154 26.2656 30.7198 26.1403 31.0583 26.0557C31.4001 25.9678 31.7533 25.9043 32.1179 25.8652C32.5574 25.8197 32.9138 25.779 33.1873 25.7432C33.4607 25.7041 33.6593 25.6455 33.783 25.5674C33.9099 25.486 33.9734 25.3607 33.9734 25.1914V25.1621C33.9734 24.7943 33.8643 24.5094 33.6462 24.3076C33.4281 24.1058 33.114 24.0049 32.7039 24.0049C32.2709 24.0049 31.9275 24.0993 31.6736 24.2881C31.4229 24.4769 31.2537 24.6999 31.1658 24.957L29.5154 24.7227C29.6456 24.2669 29.8604 23.8861 30.1599 23.5801C30.4594 23.2708 30.8256 23.0397 31.2585 22.8867C31.6915 22.7305 32.17 22.6523 32.6941 22.6523C33.0554 22.6523 33.4151 22.6947 33.7732 22.7793C34.1313 22.8639 34.4584 23.0039 34.7546 23.1992C35.0509 23.3913 35.2885 23.6533 35.4675 23.9854C35.6498 24.3174 35.741 24.7324 35.741 25.2305V30.25H34.0417V29.2197H33.9832C33.8757 29.4281 33.7244 29.6234 33.5291 29.8057C33.337 29.9847 33.0945 30.1296 32.8015 30.2402C32.5118 30.3477 32.1716 30.4014 31.781 30.4014ZM32.24 29.1025C32.5948 29.1025 32.9024 29.0326 33.1628 28.8926C33.4233 28.7493 33.6235 28.5605 33.7634 28.3262C33.9067 28.0918 33.9783 27.8363 33.9783 27.5596V26.6758C33.9229 26.7214 33.8285 26.7637 33.6951 26.8027C33.5649 26.8418 33.4184 26.876 33.2556 26.9053C33.0929 26.9346 32.9317 26.9606 32.7722 26.9834C32.6127 27.0062 32.4744 27.0257 32.3572 27.042C32.0935 27.0778 31.8575 27.1364 31.6492 27.2178C31.4408 27.2992 31.2764 27.4131 31.156 27.5596C31.0356 27.7028 30.9753 27.8883 30.9753 28.1162C30.9753 28.4417 31.0942 28.6875 31.3318 28.8535C31.5694 29.0195 31.8722 29.1025 32.24 29.1025ZM40.78 33.2188C40.1453 33.2188 39.6 33.1325 39.1443 32.96C38.6886 32.7907 38.3223 32.5628 38.0457 32.2764C37.769 31.9899 37.5769 31.6725 37.4695 31.3242L39.0613 30.9385C39.1329 31.085 39.2371 31.2298 39.3738 31.373C39.5105 31.5195 39.6944 31.64 39.9255 31.7344C40.1599 31.832 40.4545 31.8809 40.8093 31.8809C41.3106 31.8809 41.7257 31.7588 42.0544 31.5146C42.3832 31.2738 42.5476 30.8766 42.5476 30.3232V28.9023H42.4597C42.3686 29.0846 42.2351 29.2718 42.0593 29.4639C41.8868 29.6559 41.6573 29.8171 41.3708 29.9473C41.0876 30.0775 40.7312 30.1426 40.3015 30.1426C39.7253 30.1426 39.2029 30.0075 38.7341 29.7373C38.2686 29.4639 37.8975 29.057 37.6208 28.5166C37.3474 27.973 37.2107 27.2926 37.2107 26.4756C37.2107 25.652 37.3474 24.957 37.6208 24.3906C37.8975 23.821 38.2703 23.3896 38.739 23.0967C39.2078 22.8005 39.7302 22.6523 40.3064 22.6523C40.7458 22.6523 41.1072 22.7272 41.3904 22.877C41.6768 23.0234 41.9047 23.2008 42.074 23.4092C42.2432 23.6143 42.3718 23.8079 42.4597 23.9902H42.5574V22.75H44.3005V30.3721C44.3005 31.0133 44.1475 31.5439 43.8416 31.9639C43.5356 32.3838 43.1173 32.6979 42.5867 32.9063C42.0561 33.1146 41.4539 33.2188 40.78 33.2188ZM40.7947 28.7559C41.169 28.7559 41.488 28.6647 41.7517 28.4824C42.0154 28.3001 42.2156 28.0381 42.3523 27.6963C42.489 27.3545 42.5574 26.9443 42.5574 26.4658C42.5574 25.9938 42.489 25.5804 42.3523 25.2256C42.2188 24.8708 42.0203 24.5957 41.7566 24.4004C41.4962 24.2018 41.1755 24.1025 40.7947 24.1025C40.4008 24.1025 40.072 24.2051 39.8083 24.4102C39.5447 24.6152 39.3461 24.8968 39.2126 25.2549C39.0792 25.6097 39.0125 26.0133 39.0125 26.4658C39.0125 26.9248 39.0792 27.3268 39.2126 27.6719C39.3494 28.0137 39.5496 28.2806 39.8132 28.4727C40.0802 28.6615 40.4073 28.7559 40.7947 28.7559ZM49.4324 30.3965C48.6804 30.3965 48.031 30.2402 47.4841 29.9277C46.9405 29.612 46.5222 29.166 46.2292 28.5898C45.9363 28.0104 45.7898 27.3285 45.7898 26.5439C45.7898 25.7725 45.9363 25.0954 46.2292 24.5127C46.5255 23.9268 46.9389 23.471 47.4695 23.1455C48.0001 22.8167 48.6235 22.6523 49.3396 22.6523C49.8018 22.6523 50.238 22.7272 50.6482 22.877C51.0616 23.0234 51.4262 23.2513 51.7419 23.5605C52.061 23.8698 52.3116 24.2637 52.4939 24.7422C52.6762 25.2174 52.7673 25.7839 52.7673 26.4414V26.9834H46.6199V25.792H51.073C51.0697 25.4535 50.9965 25.1523 50.8533 24.8887C50.71 24.6217 50.5098 24.4118 50.2527 24.2588C49.9988 24.1058 49.7026 24.0293 49.364 24.0293C49.0027 24.0293 48.6853 24.1172 48.4119 24.293C48.1384 24.4655 47.9252 24.6934 47.7722 24.9766C47.6225 25.2565 47.546 25.5641 47.5427 25.8994V26.9395C47.5427 27.3757 47.6225 27.75 47.782 28.0625C47.9415 28.3717 48.1645 28.6094 48.4509 28.7754C48.7374 28.9382 49.0727 29.0195 49.4568 29.0195C49.7139 29.0195 49.9467 28.9837 50.155 28.9121C50.3634 28.8372 50.544 28.7282 50.697 28.585C50.85 28.4417 50.9656 28.2643 51.0437 28.0527L52.6941 28.2383C52.5899 28.6745 52.3914 29.0553 52.0984 29.3809C51.8087 29.7031 51.4376 29.9538 50.9851 30.1328C50.5326 30.3086 50.0151 30.3965 49.4324 30.3965Z" fill="black" fill-opacity="0.898"/>
<rect x="20.625" y="55.875" width="228.75" height="28.75" rx="5.625" fill="#F5F5F5"/>
<rect x="20.625" y="55.875" width="228.75" height="28.75" rx="5.625" stroke="#F5F5F5" stroke-width="1.25"/>
<rect x="26.25" y="61.5" width="17.5" height="17.5" rx="2.5" fill="#1B1B1B"/>
<g clip-path="url(#clip1_1067_22669)">
<path d="M56.0059 65.75V75.75H54.4922V67.2637H54.4336L52.041 68.8262V67.3809L54.5361 65.75H56.0059ZM58.9164 75.75V65.75H62.5785C63.2882 65.75 63.8757 65.8672 64.3412 66.1016C64.8067 66.3327 65.155 66.6468 65.3861 67.0439C65.6173 67.4378 65.7328 67.8822 65.7328 68.377C65.7328 68.7936 65.6563 69.1452 65.5033 69.4316C65.3503 69.7148 65.1452 69.9427 64.8881 70.1152C64.6342 70.2845 64.3542 70.4082 64.0482 70.4863V70.584C64.3803 70.6003 64.7042 70.7077 65.0199 70.9062C65.3389 71.1016 65.6026 71.3799 65.8109 71.7412C66.0193 72.1025 66.1234 72.542 66.1234 73.0596C66.1234 73.5706 66.003 74.0296 65.7621 74.4365C65.5245 74.8402 65.1566 75.1608 64.6586 75.3984C64.1605 75.6328 63.5242 75.75 62.7494 75.75H58.9164ZM60.4252 74.4561H62.6029C63.3256 74.4561 63.8432 74.3161 64.1557 74.0361C64.4682 73.7562 64.6244 73.4062 64.6244 72.9863C64.6244 72.6706 64.5447 72.3809 64.3852 72.1172C64.2257 71.8535 63.9978 71.6436 63.7016 71.4873C63.4086 71.3311 63.0603 71.2529 62.6566 71.2529H60.4252V74.4561ZM60.4252 70.0762H62.4467C62.7852 70.0762 63.0896 70.0111 63.3598 69.8809C63.6332 69.7507 63.8497 69.5684 64.0092 69.334C64.1719 69.0964 64.2533 68.8164 64.2533 68.4941C64.2533 68.0807 64.1085 67.734 63.8188 67.4541C63.529 67.1742 63.0847 67.0342 62.4857 67.0342H60.4252V70.0762ZM71.639 65.75V75.75H70.1253V67.2637H70.0667L67.6741 68.8262V67.3809L70.1692 65.75H71.639ZM74.5495 75.75V65.75H78.2116C78.9213 65.75 79.5088 65.8672 79.9743 66.1016C80.4398 66.3327 80.7881 66.6468 81.0192 67.0439C81.2504 67.4378 81.3659 67.8822 81.3659 68.377C81.3659 68.7936 81.2894 69.1452 81.1364 69.4316C80.9834 69.7148 80.7784 69.9427 80.5212 70.1152C80.2673 70.2845 79.9873 70.4082 79.6813 70.4863V70.584C80.0134 70.6003 80.3373 70.7077 80.653 70.9062C80.972 71.1016 81.2357 71.3799 81.444 71.7412C81.6524 72.1025 81.7565 72.542 81.7565 73.0596C81.7565 73.5706 81.6361 74.0296 81.3952 74.4365C81.1576 74.8402 80.7897 75.1608 80.2917 75.3984C79.7937 75.6328 79.1573 75.75 78.3825 75.75H74.5495ZM76.0583 74.4561H78.236C78.9587 74.4561 79.4763 74.3161 79.7888 74.0361C80.1013 73.7562 80.2575 73.4062 80.2575 72.9863C80.2575 72.6706 80.1778 72.3809 80.0183 72.1172C79.8588 71.8535 79.6309 71.6436 79.3347 71.4873C79.0417 71.3311 78.6934 71.2529 78.2897 71.2529H76.0583V74.4561ZM76.0583 70.0762H78.0798C78.4183 70.0762 78.7227 70.0111 78.9929 69.8809C79.2663 69.7507 79.4828 69.5684 79.6423 69.334C79.805 69.0964 79.8864 68.8164 79.8864 68.4941C79.8864 68.0807 79.7416 67.734 79.4519 67.4541C79.1621 67.1742 78.7178 67.0342 78.1188 67.0342H76.0583V70.0762ZM87.2721 65.75V75.75H85.7584V67.2637H85.6998L83.3072 68.8262V67.3809L85.8023 65.75H87.2721ZM90.1826 75.75V65.75H93.8447C94.5544 65.75 95.1419 65.8672 95.6074 66.1016C96.0729 66.3327 96.4212 66.6468 96.6523 67.0439C96.8835 67.4378 96.999 67.8822 96.999 68.377C96.999 68.7936 96.9225 69.1452 96.7695 69.4316C96.6165 69.7148 96.4115 69.9427 96.1543 70.1152C95.9004 70.2845 95.6204 70.4082 95.3145 70.4863V70.584C95.6465 70.6003 95.9704 70.7077 96.2861 70.9062C96.6051 71.1016 96.8688 71.3799 97.0771 71.7412C97.2855 72.1025 97.3896 72.542 97.3896 73.0596C97.3896 73.5706 97.2692 74.0296 97.0283 74.4365C96.7907 74.8402 96.4229 75.1608 95.9248 75.3984C95.4268 75.6328 94.7904 75.75 94.0156 75.75H90.1826ZM91.6914 74.4561H93.8691C94.5918 74.4561 95.1094 74.3161 95.4219 74.0361C95.7344 73.7562 95.8906 73.4062 95.8906 72.9863C95.8906 72.6706 95.8109 72.3809 95.6514 72.1172C95.4919 71.8535 95.264 71.6436 94.9678 71.4873C94.6748 71.3311 94.3265 71.2529 93.9229 71.2529H91.6914V74.4561ZM91.6914 70.0762H93.7129C94.0514 70.0762 94.3558 70.0111 94.626 69.8809C94.8994 69.7507 95.1159 69.5684 95.2754 69.334C95.4382 69.0964 95.5195 68.8164 95.5195 68.4941C95.5195 68.0807 95.3747 67.734 95.085 67.4541C94.7952 67.1742 94.3509 67.0342 93.752 67.0342H91.6914V70.0762Z" fill="black" fill-opacity="0.898"/>
</g>
<g clip-path="url(#clip2_1067_22669)">
<path d="M197.182 65.4062V75.25H195.692V66.8963H195.634L193.279 68.4344V67.0116L195.735 65.4062H197.182ZM203.34 75.4134C202.581 75.4102 201.932 75.2099 201.394 74.8126C200.855 74.4153 200.443 73.8369 200.158 73.0775C199.873 72.318 199.73 71.4032 199.73 70.3329C199.73 69.2659 199.873 68.3542 200.158 67.598C200.447 66.8418 200.86 66.265 201.398 65.8677C201.94 65.4703 202.587 65.2717 203.34 65.2717C204.093 65.2717 204.739 65.4719 205.277 65.8725C205.816 66.2698 206.227 66.8466 206.512 67.6028C206.801 68.3559 206.945 69.2659 206.945 70.3329C206.945 71.4064 206.802 72.3228 206.517 73.0823C206.232 73.8385 205.82 74.4169 205.282 74.8174C204.744 75.2148 204.096 75.4134 203.34 75.4134ZM203.34 74.1301C204.007 74.1301 204.527 73.8048 204.902 73.1544C205.28 72.5039 205.469 71.5634 205.469 70.3329C205.469 69.5158 205.383 68.8253 205.21 68.2613C205.04 67.6942 204.795 67.2648 204.474 66.9732C204.157 66.6784 203.779 66.531 203.34 66.531C202.677 66.531 202.156 66.8578 201.778 67.5115C201.4 68.1652 201.209 69.1057 201.206 70.3329C201.206 71.1532 201.291 71.847 201.461 72.4142C201.634 72.9781 201.879 73.4059 202.196 73.6975C202.513 73.9859 202.895 74.1301 203.34 74.1301ZM212.146 75.4134C211.387 75.4102 210.738 75.2099 210.199 74.8126C209.661 74.4153 209.249 73.8369 208.964 73.0775C208.679 72.318 208.536 71.4032 208.536 70.3329C208.536 69.2659 208.679 68.3542 208.964 67.598C209.252 66.8418 209.666 66.265 210.204 65.8677C210.746 65.4703 211.393 65.2717 212.146 65.2717C212.899 65.2717 213.545 65.4719 214.083 65.8725C214.621 66.2698 215.033 66.8466 215.318 67.6028C215.607 68.3559 215.751 69.2659 215.751 70.3329C215.751 71.4064 215.608 72.3228 215.323 73.0823C215.038 73.8385 214.626 74.4169 214.088 74.8174C213.549 75.2148 212.902 75.4134 212.146 75.4134ZM212.146 74.1301C212.812 74.1301 213.333 73.8048 213.708 73.1544C214.086 72.5039 214.275 71.5634 214.275 70.3329C214.275 69.5158 214.189 68.8253 214.016 68.2613C213.846 67.6942 213.601 67.2648 213.28 66.9732C212.963 66.6784 212.585 66.531 212.146 66.531C211.483 66.531 210.962 66.8578 210.584 67.5115C210.206 68.1652 210.015 69.1057 210.012 70.3329C210.012 71.1532 210.097 71.847 210.267 72.4142C210.44 72.9781 210.685 73.4059 211.002 73.6975C211.319 73.9859 211.701 74.1301 212.146 74.1301Z" fill="black" fill-opacity="0.898"/>
</g>
<path d="M236.17 73.375V72.8477C236.17 72.4701 236.248 72.125 236.404 71.8125C236.563 71.4967 236.795 71.2445 237.097 71.0557C237.403 70.8636 237.773 70.7676 238.206 70.7676C238.648 70.7676 239.019 70.862 239.319 71.0508C239.618 71.2396 239.845 71.4919 239.998 71.8076C240.154 72.1234 240.232 72.4701 240.232 72.8477V73.375C240.232 73.7526 240.154 74.0993 239.998 74.415C239.841 74.7275 239.612 74.9798 239.309 75.1719C239.01 75.3607 238.642 75.4551 238.206 75.4551C237.766 75.4551 237.395 75.3607 237.092 75.1719C236.79 74.9798 236.56 74.7275 236.404 74.415C236.248 74.0993 236.17 73.7526 236.17 73.375ZM237.307 72.8477V73.375C237.307 73.6549 237.374 73.9089 237.507 74.1367C237.641 74.3646 237.874 74.4785 238.206 74.4785C238.534 74.4785 238.764 74.3646 238.894 74.1367C239.024 73.9089 239.089 73.6549 239.089 73.375V72.8477C239.089 72.5677 239.026 72.3138 238.899 72.0859C238.775 71.8581 238.544 71.7441 238.206 71.7441C237.88 71.7441 237.649 71.8581 237.512 72.0859C237.376 72.3138 237.307 72.5677 237.307 72.8477ZM231.14 67.6523V67.125C231.14 66.7474 231.218 66.4007 231.375 66.085C231.534 65.7692 231.765 65.5169 232.068 65.3281C232.374 65.1393 232.743 65.0449 233.176 65.0449C233.619 65.0449 233.99 65.1393 234.29 65.3281C234.589 65.5169 234.815 65.7692 234.968 66.085C235.121 66.4007 235.198 66.7474 235.198 67.125V67.6523C235.198 68.0299 235.12 68.3766 234.964 68.6924C234.811 69.0049 234.583 69.2572 234.28 69.4492C233.98 69.638 233.613 69.7324 233.176 69.7324C232.734 69.7324 232.361 69.638 232.058 69.4492C231.759 69.2572 231.531 69.0049 231.375 68.6924C231.218 68.3766 231.14 68.0299 231.14 67.6523ZM232.283 67.125V67.6523C232.283 67.9323 232.348 68.1862 232.478 68.4141C232.612 68.6419 232.844 68.7559 233.176 68.7559C233.502 68.7559 233.73 68.6419 233.86 68.4141C233.993 68.1862 234.06 67.9323 234.06 67.6523V67.125C234.06 66.8451 233.997 66.5911 233.87 66.3633C233.743 66.1354 233.512 66.0215 233.176 66.0215C232.851 66.0215 232.62 66.1354 232.483 66.3633C232.35 66.5911 232.283 66.8451 232.283 67.125ZM231.604 75.25L238.479 65.25H239.646L232.771 75.25H231.604Z" fill="black" fill-opacity="0.5"/>
<rect x="181.25" y="56.5" width="1.25" height="27.5" fill="white"/>
<path fill-rule="evenodd" clip-rule="evenodd" d="M267.5 70.25C267.5 70.1675 267.568 69.8025 267.891 69.2188C268.265 68.5613 268.737 67.9652 269.291 67.4512C270.554 66.27 272.445 65.25 275 65.25C277.555 65.25 279.447 66.27 280.707 67.45C281.343 68.0463 281.808 68.675 282.109 69.2188C282.431 69.8025 282.5 70.1688 282.5 70.25C282.5 70.3325 282.431 70.6975 282.109 71.2812C281.809 71.825 281.342 72.4538 280.709 73.0488C279.446 74.23 277.555 75.25 275 75.25C272.445 75.25 270.553 74.23 269.293 73.05C268.737 72.5358 268.265 71.9392 267.891 71.2812C267.569 70.6975 267.5 70.3312 267.5 70.25ZM266.25 70.25C266.25 68.6875 269.166 64 275 64C280.834 64 283.75 68.6875 283.75 70.25C283.75 71.8125 280.834 76.5 275 76.5C269.166 76.5 266.25 71.8125 266.25 70.25ZM276.25 70.25C276.25 70.5815 276.118 70.8995 275.884 71.1339C275.649 71.3683 275.332 71.5 275 71.5C274.668 71.5 274.351 71.3683 274.116 71.1339C273.882 70.8995 273.75 70.5815 273.75 70.25C273.75 69.9185 273.882 69.6005 274.116 69.3661C274.351 69.1317 274.668 69 275 69C275.332 69 275.649 69.1317 275.884 69.3661C276.118 69.6005 276.25 69.9185 276.25 70.25ZM277.5 70.25C277.5 70.913 277.237 71.5489 276.768 72.0178C276.299 72.4866 275.663 72.75 275 72.75C274.337 72.75 273.701 72.4866 273.232 72.0178C272.763 71.5489 272.5 70.913 272.5 70.25C272.5 69.587 272.763 68.9511 273.232 68.4822C273.701 68.0134 274.337 67.75 275 67.75C275.663 67.75 276.299 68.0134 276.768 68.4822C277.237 68.9511 277.5 69.587 277.5 70.25Z" fill="black" fill-opacity="0.898"/>
<path d="M22.2879 126.656L24.8498 134.404H24.9507L27.5078 126.656H29.4688L25.9985 136.5H23.7971L20.3316 126.656H22.2879ZM32.0463 136.649C31.5785 136.649 31.1571 136.566 30.7822 136.399C30.4105 136.229 30.1157 135.979 29.8978 135.649C29.6831 135.319 29.5758 134.912 29.5758 134.428C29.5758 134.012 29.6527 133.667 29.8065 133.395C29.9603 133.123 30.1702 132.905 30.4362 132.741C30.7021 132.578 31.0017 132.455 31.335 132.371C31.6714 132.285 32.0191 132.222 32.378 132.184C32.8106 132.139 33.1614 132.099 33.4306 132.064C33.6998 132.025 33.8952 131.967 34.017 131.891C34.142 131.81 34.2045 131.687 34.2045 131.52V131.492C34.2045 131.13 34.0971 130.849 33.8824 130.65C33.6677 130.452 33.3585 130.352 32.9548 130.352C32.5286 130.352 32.1905 130.445 31.9406 130.631C31.6939 130.817 31.5272 131.037 31.4407 131.29L29.8161 131.059C29.9443 130.61 30.1558 130.236 30.4506 129.934C30.7454 129.63 31.1059 129.402 31.532 129.252C31.9582 129.098 32.4293 129.021 32.9452 129.021C33.3008 129.021 33.6549 129.063 34.0074 129.146C34.3599 129.229 34.6819 129.367 34.9735 129.559C35.2651 129.748 35.499 130.006 35.6753 130.333C35.8547 130.66 35.9444 131.069 35.9444 131.559V136.5H34.2718V135.486H34.2141C34.1083 135.691 33.9593 135.883 33.7671 136.063C33.578 136.239 33.3393 136.381 33.0509 136.49C32.7657 136.596 32.4309 136.649 32.0463 136.649ZM32.4982 135.37C32.8474 135.37 33.1502 135.302 33.4066 135.164C33.6629 135.023 33.86 134.837 33.9978 134.606C34.1388 134.376 34.2093 134.124 34.2093 133.852V132.982C34.1548 133.026 34.0619 133.068 33.9305 133.107C33.8023 133.145 33.6581 133.179 33.4979 133.208C33.3377 133.236 33.1791 133.262 33.0221 133.284C32.865 133.307 32.7289 133.326 32.6135 133.342C32.354 133.377 32.1216 133.435 31.9166 133.515C31.7115 133.595 31.5497 133.707 31.4311 133.852C31.3125 133.993 31.2533 134.175 31.2533 134.4C31.2533 134.72 31.3702 134.962 31.6041 135.125C31.8381 135.289 32.1361 135.37 32.4982 135.37ZM37.694 136.5V129.117H39.3811V130.348H39.458C39.5926 129.921 39.8233 129.593 40.1501 129.362C40.4802 129.128 40.8567 129.011 41.2797 129.011C41.3758 129.011 41.4831 129.016 41.6017 129.026C41.7235 129.032 41.8244 129.043 41.9045 129.06V130.66C41.8308 130.634 41.7138 130.612 41.5536 130.593C41.3966 130.57 41.2444 130.559 41.097 130.559C40.7798 130.559 40.4946 130.628 40.2415 130.766C39.9915 130.9 39.7944 131.088 39.6502 131.328C39.5061 131.569 39.434 131.846 39.434 132.16V136.5H37.694ZM43.0605 136.5V129.117H44.8004V136.5H43.0605ZM43.9353 128.069C43.6597 128.069 43.4226 127.978 43.2239 127.795C43.0252 127.61 42.9259 127.387 42.9259 127.127C42.9259 126.865 43.0252 126.642 43.2239 126.459C43.4226 126.273 43.6597 126.18 43.9353 126.18C44.214 126.18 44.4512 126.273 44.6466 126.459C44.8453 126.642 44.9446 126.865 44.9446 127.127C44.9446 127.387 44.8453 127.61 44.6466 127.795C44.4512 127.978 44.214 128.069 43.9353 128.069ZM48.7141 136.649C48.2463 136.649 47.8249 136.566 47.45 136.399C47.0783 136.229 46.7835 135.979 46.5656 135.649C46.3509 135.319 46.2436 134.912 46.2436 134.428C46.2436 134.012 46.3205 133.667 46.4743 133.395C46.6281 133.123 46.838 132.905 47.104 132.741C47.3699 132.578 47.6695 132.455 48.0028 132.371C48.3392 132.285 48.6869 132.222 49.0458 132.184C49.4784 132.139 49.8293 132.099 50.0984 132.064C50.3676 132.025 50.563 131.967 50.6848 131.891C50.8098 131.81 50.8723 131.687 50.8723 131.52V131.492C50.8723 131.13 50.7649 130.849 50.5502 130.65C50.3355 130.452 50.0263 130.352 49.6226 130.352C49.1964 130.352 48.8583 130.445 48.6084 130.631C48.3617 130.817 48.195 131.037 48.1085 131.29L46.4839 131.059C46.6121 130.61 46.8236 130.236 47.1184 129.934C47.4132 129.63 47.7737 129.402 48.1998 129.252C48.626 129.098 49.0971 129.021 49.613 129.021C49.9686 129.021 50.3227 129.063 50.6752 129.146C51.0277 129.229 51.3497 129.367 51.6413 129.559C51.9329 129.748 52.1668 130.006 52.3431 130.333C52.5225 130.66 52.6122 131.069 52.6122 131.559V136.5H50.9396V135.486H50.8819C50.7761 135.691 50.6271 135.883 50.4349 136.063C50.2458 136.239 50.0071 136.381 49.7187 136.49C49.4335 136.596 49.0987 136.649 48.7141 136.649ZM49.166 135.37C49.5152 135.37 49.818 135.302 50.0744 135.164C50.3307 135.023 50.5278 134.837 50.6656 134.606C50.8066 134.376 50.8771 134.124 50.8771 133.852V132.982C50.8226 133.026 50.7297 133.068 50.5983 133.107C50.4701 133.145 50.3259 133.179 50.1657 133.208C50.0055 133.236 49.8469 133.262 49.6899 133.284C49.5329 133.307 49.3967 133.326 49.2813 133.342C49.0218 133.377 48.7894 133.435 48.5844 133.515C48.3793 133.595 48.2175 133.707 48.0989 133.852C47.9803 133.993 47.9211 134.175 47.9211 134.4C47.9211 134.72 48.038 134.962 48.2719 135.125C48.5059 135.289 48.8039 135.37 49.166 135.37ZM54.4387 136.5V126.656H56.1787V130.338H56.2508C56.3405 130.159 56.4671 129.968 56.6305 129.766C56.7939 129.561 57.015 129.386 57.2938 129.242C57.5726 129.095 57.9282 129.021 58.3608 129.021C58.9312 129.021 59.4455 129.167 59.9037 129.458C60.3651 129.747 60.7304 130.175 60.9996 130.742C61.272 131.306 61.4082 131.998 61.4082 132.818C61.4082 133.629 61.2752 134.318 61.0092 134.885C60.7433 135.452 60.3812 135.885 59.9229 136.183C59.4647 136.481 58.9456 136.63 58.3656 136.63C57.9427 136.63 57.5918 136.559 57.313 136.418C57.0342 136.277 56.8099 136.107 56.6401 135.909C56.4735 135.707 56.3437 135.516 56.2508 135.337H56.1498V136.5H54.4387ZM56.145 132.809C56.145 133.286 56.2123 133.704 56.3469 134.063C56.4847 134.422 56.6817 134.702 56.9381 134.904C57.1976 135.103 57.5117 135.202 57.8802 135.202C58.2647 135.202 58.5867 135.1 58.8463 134.895C59.1058 134.686 59.3013 134.403 59.4327 134.044C59.5673 133.682 59.6346 133.27 59.6346 132.809C59.6346 132.35 59.5689 131.943 59.4375 131.588C59.3061 131.232 59.1106 130.953 58.8511 130.751C58.5915 130.55 58.2679 130.449 57.8802 130.449C57.5085 130.449 57.1928 130.546 56.9333 130.742C56.6737 130.937 56.4767 131.211 56.3421 131.564C56.2107 131.916 56.145 132.331 56.145 132.809ZM64.6273 126.656V136.5H62.8874V126.656H64.6273ZM69.685 136.644C68.9448 136.644 68.3055 136.49 67.7672 136.183C67.2321 135.872 66.8203 135.433 66.5319 134.866C66.2435 134.295 66.0993 133.624 66.0993 132.852C66.0993 132.092 66.2435 131.426 66.5319 130.852C66.8235 130.276 67.2305 129.827 67.7528 129.507C68.2751 129.183 68.8887 129.021 69.5937 129.021C70.0487 129.021 70.4781 129.095 70.8818 129.242C71.2888 129.386 71.6476 129.611 71.9585 129.915C72.2725 130.219 72.5192 130.607 72.6987 131.078C72.8781 131.546 72.9678 132.104 72.9678 132.751V133.284H66.9164V132.112H71.3C71.2968 131.778 71.2247 131.482 71.0837 131.222C70.9427 130.96 70.7456 130.753 70.4925 130.602C70.2425 130.452 69.9509 130.376 69.6177 130.376C69.262 130.376 68.9496 130.463 68.6804 130.636C68.4113 130.806 68.2014 131.03 68.0508 131.309C67.9034 131.585 67.8281 131.887 67.8249 132.217V133.241C67.8249 133.671 67.9034 134.039 68.0604 134.347C68.2174 134.651 68.4369 134.885 68.7189 135.048C69.0009 135.209 69.3309 135.289 69.709 135.289C69.9622 135.289 70.1913 135.254 70.3963 135.183C70.6014 135.109 70.7793 135.002 70.9299 134.861C71.0805 134.72 71.1942 134.545 71.2711 134.337L72.8957 134.52C72.7932 134.949 72.5977 135.324 72.3093 135.644C72.0242 135.962 71.6589 136.208 71.2135 136.385C70.7681 136.558 70.2586 136.644 69.685 136.644ZM80.2749 131.069L78.6888 131.242C78.6439 131.081 78.5654 130.931 78.4533 130.79C78.3443 130.649 78.1969 130.535 78.0111 130.449C77.8252 130.362 77.5977 130.319 77.3285 130.319C76.9665 130.319 76.662 130.397 76.4153 130.554C76.1718 130.711 76.0516 130.915 76.0548 131.165C76.0516 131.379 76.1301 131.554 76.2903 131.689C76.4538 131.823 76.7229 131.934 77.0978 132.02L78.3571 132.289C79.0557 132.44 79.5748 132.679 79.9145 133.006C80.2573 133.333 80.4304 133.76 80.4336 134.289C80.4304 134.754 80.2942 135.164 80.025 135.519C79.759 135.872 79.3889 136.148 78.9147 136.346C78.4405 136.545 77.8957 136.644 77.2805 136.644C76.3769 136.644 75.6495 136.455 75.0983 136.077C74.5472 135.696 74.2187 135.165 74.113 134.486L75.8097 134.323C75.8866 134.656 76.05 134.907 76.3 135.077C76.5499 135.247 76.8751 135.332 77.2757 135.332C77.689 135.332 78.0207 135.247 78.2706 135.077C78.5238 134.907 78.6503 134.698 78.6503 134.448C78.6503 134.236 78.5686 134.061 78.4052 133.924C78.245 133.786 77.9951 133.68 77.6554 133.606L76.3961 133.342C75.6879 133.195 75.164 132.946 74.8244 132.597C74.4847 132.245 74.3165 131.799 74.3197 131.261C74.3165 130.806 74.4398 130.412 74.6898 130.078C74.9429 129.742 75.2938 129.482 75.7424 129.3C76.1942 129.114 76.7149 129.021 77.3045 129.021C78.1697 129.021 78.8506 129.205 79.3473 129.574C79.8472 129.942 80.1564 130.441 80.2749 131.069Z" fill="black" fill-opacity="0.898"/>
<path d="M270.625 139C270.791 139 270.95 138.934 271.067 138.817C271.184 138.7 271.25 138.541 271.25 138.375V136.437C271.956 136.294 272.592 135.911 273.048 135.353C273.504 134.795 273.753 134.096 273.753 133.375C273.753 132.654 273.504 131.955 273.048 131.397C272.592 130.839 271.956 130.456 271.25 130.313V124.625C271.25 124.459 271.184 124.3 271.067 124.183C270.95 124.066 270.791 124 270.625 124C270.459 124 270.3 124.066 270.183 124.183C270.066 124.3 270 124.459 270 124.625V130.313C269.295 130.457 268.661 130.841 268.206 131.399C267.75 131.957 267.502 132.655 267.502 133.375C267.502 134.095 267.75 134.793 268.206 135.351C268.661 135.909 269.295 136.293 270 136.437V138.375C270 138.541 270.066 138.7 270.183 138.817C270.3 138.934 270.459 139 270.625 139ZM279.375 139C279.541 139 279.7 138.934 279.817 138.817C279.934 138.7 280 138.541 280 138.375V132.687C280.705 132.543 281.339 132.159 281.794 131.601C282.25 131.043 282.498 130.345 282.498 129.625C282.498 128.905 282.25 128.207 281.794 127.649C281.339 127.091 280.705 126.707 280 126.563V124.625C280 124.459 279.934 124.3 279.817 124.183C279.7 124.066 279.541 124 279.375 124C279.209 124 279.05 124.066 278.933 124.183C278.816 124.3 278.75 124.459 278.75 124.625V126.563C278.044 126.706 277.408 127.089 276.952 127.647C276.496 128.205 276.247 128.904 276.247 129.625C276.247 130.346 276.496 131.045 276.952 131.603C277.408 132.161 278.044 132.544 278.75 132.687V138.375C278.75 138.541 278.816 138.7 278.933 138.817C279.05 138.934 279.209 139 279.375 139ZM279.375 131.5C278.878 131.5 278.401 131.302 278.049 130.951C277.698 130.599 277.5 130.122 277.5 129.625C277.5 129.128 277.698 128.651 278.049 128.299C278.401 127.948 278.878 127.75 279.375 127.75C279.872 127.75 280.349 127.948 280.701 128.299C281.052 128.651 281.25 129.128 281.25 129.625C281.25 130.122 281.052 130.599 280.701 130.951C280.349 131.302 279.872 131.5 279.375 131.5ZM270.625 135.25C270.128 135.25 269.651 135.052 269.299 134.701C268.948 134.349 268.75 133.872 268.75 133.375C268.75 132.878 268.948 132.401 269.299 132.049C269.651 131.698 270.128 131.5 270.625 131.5C271.122 131.5 271.599 131.698 271.951 132.049C272.302 132.401 272.5 132.878 272.5 133.375C272.5 133.872 272.302 134.349 271.951 134.701C271.599 135.052 271.122 135.25 270.625 135.25Z" fill="#121212"/>
<path d="M26.3206 180.612C26.2757 180.193 26.0867 179.866 25.7534 179.632C25.4234 179.398 24.994 179.281 24.4653 179.281C24.0936 179.281 23.7747 179.337 23.5088 179.449C23.2428 179.561 23.0393 179.714 22.8983 179.906C22.7573 180.098 22.6852 180.318 22.682 180.564C22.682 180.769 22.7285 180.947 22.8214 181.098C22.9176 181.248 23.0473 181.377 23.2108 181.482C23.3742 181.585 23.5552 181.671 23.7539 181.742C23.9526 181.812 24.1528 181.872 24.3547 181.92L25.2776 182.15C25.6493 182.237 26.0065 182.354 26.3494 182.501C26.6955 182.649 27.0047 182.835 27.2771 183.059C27.5526 183.283 27.7705 183.554 27.9308 183.871C28.091 184.188 28.1711 184.56 28.1711 184.986C28.1711 185.563 28.0237 186.071 27.7289 186.51C27.4341 186.946 27.0079 187.287 26.4503 187.534C25.896 187.777 25.2247 187.899 24.4364 187.899C23.6706 187.899 23.0057 187.78 22.4417 187.543C21.881 187.306 21.442 186.96 21.1247 186.505C20.8107 186.05 20.6409 185.496 20.6152 184.842H22.3696C22.3952 185.185 22.501 185.47 22.6868 185.698C22.8727 185.925 23.1146 186.095 23.4126 186.207C23.7138 186.319 24.0503 186.375 24.422 186.375C24.8097 186.375 25.1494 186.318 25.441 186.202C25.7358 186.084 25.9665 185.92 26.1331 185.712C26.2997 185.501 26.3847 185.254 26.3879 184.972C26.3847 184.715 26.3094 184.504 26.162 184.337C26.0146 184.168 25.8079 184.027 25.5419 183.914C25.2792 183.799 24.9715 183.697 24.6191 183.607L23.4991 183.318C22.6884 183.11 22.0476 182.794 21.5765 182.372C21.1087 181.945 20.8748 181.38 20.8748 180.675C20.8748 180.095 21.0318 179.587 21.3458 179.151C21.6631 178.715 22.094 178.377 22.6388 178.137C23.1835 177.893 23.8004 177.772 24.4893 177.772C25.1878 177.772 25.7999 177.893 26.3254 178.137C26.8541 178.377 27.2691 178.712 27.5703 179.142C27.8715 179.568 28.0269 180.058 28.0365 180.612H26.3206ZM33.3705 180.367V181.713H29.1264V180.367H33.3705ZM30.1742 178.598H31.9142V185.529C31.9142 185.763 31.9494 185.943 32.0199 186.068C32.0936 186.189 32.1897 186.273 32.3083 186.318C32.4269 186.363 32.5582 186.385 32.7024 186.385C32.8114 186.385 32.9107 186.377 33.0004 186.361C33.0934 186.345 33.1639 186.33 33.2119 186.318L33.5051 187.678C33.4122 187.71 33.2792 187.745 33.1062 187.784C32.9363 187.822 32.7281 187.845 32.4813 187.851C32.0455 187.864 31.653 187.798 31.3037 187.654C30.9545 187.506 30.6773 187.279 30.4722 186.971C30.2703 186.664 30.171 186.279 30.1742 185.818V178.598ZM35.9072 190.519C35.6701 190.519 35.4506 190.499 35.2487 190.461C35.05 190.426 34.8914 190.384 34.7728 190.336L35.1766 188.98C35.4297 189.054 35.6556 189.089 35.8543 189.086C36.053 189.083 36.2276 189.021 36.3782 188.899C36.532 188.78 36.6618 188.582 36.7675 188.303L36.9165 187.904L34.2393 180.367H36.085L37.7865 185.943H37.8634L39.5697 180.367H41.4203L38.4642 188.644C38.3265 189.035 38.1438 189.37 37.9163 189.649C37.6888 189.931 37.41 190.145 37.08 190.293C36.7531 190.443 36.3622 190.519 35.9072 190.519ZM44.3642 177.906V187.75H42.6243V177.906H44.3642ZM49.4219 187.894C48.6817 187.894 48.0424 187.74 47.5041 187.433C46.969 187.122 46.5572 186.683 46.2688 186.116C45.9804 185.545 45.8362 184.874 45.8362 184.102C45.8362 183.342 45.9804 182.676 46.2688 182.102C46.5604 181.526 46.9674 181.077 47.4897 180.757C48.012 180.433 48.6256 180.271 49.3306 180.271C49.7856 180.271 50.215 180.345 50.6187 180.492C51.0257 180.636 51.3846 180.861 51.6954 181.165C52.0094 181.469 52.2561 181.857 52.4356 182.328C52.615 182.796 52.7048 183.354 52.7048 184.001V184.534H46.6533V183.362H51.0369C51.0337 183.028 50.9616 182.732 50.8206 182.472C50.6796 182.21 50.4825 182.003 50.2294 181.852C49.9795 181.702 49.6879 181.626 49.3546 181.626C48.9989 181.626 48.6865 181.713 48.4173 181.886C48.1482 182.056 47.9383 182.28 47.7877 182.559C47.6403 182.835 47.565 183.137 47.5618 183.467V184.491C47.5618 184.921 47.6403 185.289 47.7973 185.597C47.9543 185.901 48.1738 186.135 48.4558 186.298C48.7378 186.459 49.0678 186.539 49.4459 186.539C49.6991 186.539 49.9282 186.504 50.1333 186.433C50.3383 186.359 50.5162 186.252 50.6668 186.111C50.8174 185.97 50.9311 185.795 51.0081 185.587L52.6327 185.77C52.5301 186.199 52.3347 186.574 52.0463 186.894C51.7611 187.212 51.3958 187.458 50.9504 187.635C50.505 187.808 49.9955 187.894 49.4219 187.894ZM60.0119 182.319L58.4257 182.492C58.3809 182.331 58.3023 182.181 58.1902 182.04C58.0812 181.899 57.9338 181.785 57.748 181.699C57.5621 181.612 57.3346 181.569 57.0655 181.569C56.7034 181.569 56.399 181.647 56.1522 181.804C55.9087 181.961 55.7885 182.165 55.7917 182.415C55.7885 182.629 55.867 182.804 56.0273 182.939C56.1907 183.073 56.4598 183.184 56.8348 183.27L58.0941 183.539C58.7926 183.69 59.3117 183.929 59.6514 184.256C59.9942 184.583 60.1673 185.01 60.1705 185.539C60.1673 186.004 60.0311 186.414 59.7619 186.769C59.496 187.122 59.1259 187.398 58.6516 187.596C58.1774 187.795 57.6326 187.894 57.0174 187.894C56.1138 187.894 55.3864 187.705 54.8352 187.327C54.2841 186.946 53.9557 186.415 53.8499 185.736L55.5466 185.573C55.6235 185.906 55.7869 186.157 56.0369 186.327C56.2868 186.497 56.6121 186.582 57.0126 186.582C57.426 186.582 57.7576 186.497 58.0075 186.327C58.2607 186.157 58.3873 185.948 58.3873 185.698C58.3873 185.486 58.3055 185.311 58.1421 185.174C57.9819 185.036 57.732 184.93 57.3923 184.856L56.133 184.592C55.4248 184.445 54.9009 184.196 54.5613 183.847C54.2216 183.495 54.0534 183.049 54.0566 182.511C54.0534 182.056 54.1768 181.662 54.4267 181.328C54.6798 180.992 55.0307 180.732 55.4793 180.55C55.9311 180.364 56.4518 180.271 57.0414 180.271C57.9066 180.271 58.5875 180.455 59.0842 180.824C59.5841 181.192 59.8933 181.691 60.0119 182.319Z" fill="black" fill-opacity="0.898"/>
<path fill-rule="evenodd" clip-rule="evenodd" d="M275 175.25C275.166 175.25 275.325 175.316 275.442 175.433C275.559 175.55 275.625 175.709 275.625 175.875V182.125H281.875C282.041 182.125 282.2 182.191 282.317 182.308C282.434 182.425 282.5 182.584 282.5 182.75C282.5 182.916 282.434 183.075 282.317 183.192C282.2 183.309 282.041 183.375 281.875 183.375H275.625V189.625C275.625 189.791 275.559 189.95 275.442 190.067C275.325 190.184 275.166 190.25 275 190.25C274.834 190.25 274.675 190.184 274.558 190.067C274.441 189.95 274.375 189.791 274.375 189.625V183.375H268.125C267.959 183.375 267.8 183.309 267.683 183.192C267.566 183.075 267.5 182.916 267.5 182.75C267.5 182.584 267.566 182.425 267.683 182.308C267.8 182.191 267.959 182.125 268.125 182.125H274.375V175.875C274.375 175.709 274.441 175.55 274.558 175.433C274.675 175.316 274.834 175.25 275 175.25Z" fill="black" fill-opacity="0.898"/>
</g>
<path d="M10 0.75H290C295.247 0.750005 299.5 5.0033 299.5 10.25V197.75C299.5 202.997 295.247 207.25 290 207.25H10C4.7533 207.25 0.5 202.997 0.5 197.75V10.25C0.500003 5.0033 4.7533 0.75 10 0.75Z" stroke="#E7E5E4"/>
<defs>
<clipPath id="clip0_1067_22669">
<path d="M0 10.25C0 4.72716 4.47715 0.25 10 0.25H290C295.523 0.25 300 4.72715 300 10.25V197.75C300 203.273 295.523 207.75 290 207.75H10C4.47716 207.75 0 203.273 0 197.75V10.25Z" fill="white"/>
</clipPath>
<clipPath id="clip1_1067_22669">
<rect x="50" y="55.25" width="125" height="30" rx="2.5" fill="white"/>
</clipPath>
<clipPath id="clip2_1067_22669">
<path d="M182.5 55.25H227.5C228.881 55.25 230 56.3693 230 57.75V82.75C230 84.1307 228.881 85.25 227.5 85.25H182.5V55.25Z" fill="white"/>
</clipPath>
</defs>
</svg>
