<svg width="400" height="290" viewBox="0 0 400 290" fill="none" xmlns="http://www.w3.org/2000/svg">
<rect x="0.581395" y="33.9544" width="398.837" height="254.651" rx="8.72093" fill="white"/>
<rect x="0.581395" y="33.9544" width="398.837" height="254.651" rx="8.72093" stroke="#E3E5F5" stroke-width="1.16279"/>
<path d="M129.12 81.1038H131.778L126.169 95.9434H123.615L118.089 81.1038H120.81L124.955 92.6573L129.12 81.1038ZM138.606 89.7271C138.593 89.4341 138.53 89.155 138.418 88.8899C138.32 88.6108 138.167 88.3666 137.958 88.1573C137.748 87.948 137.49 87.7806 137.183 87.655C136.876 87.5294 136.513 87.4666 136.095 87.4666C135.718 87.4666 135.376 87.5364 135.069 87.6759C134.776 87.8015 134.525 87.9759 134.316 88.1992C134.106 88.4085 133.939 88.6527 133.813 88.9317C133.688 89.1968 133.618 89.462 133.604 89.7271H138.606ZM140.93 93.0341C140.79 93.4806 140.588 93.8992 140.323 94.2899C140.058 94.6806 139.73 95.0224 139.339 95.3155C138.948 95.6085 138.502 95.8387 137.999 96.0062C137.497 96.1736 136.939 96.2573 136.325 96.2573C135.627 96.2573 134.965 96.1387 134.337 95.9015C133.709 95.6503 133.158 95.2945 132.683 94.8341C132.209 94.3596 131.825 93.7875 131.532 93.1178C131.253 92.4341 131.113 91.6596 131.113 90.7945C131.113 89.9852 131.246 89.2527 131.511 88.5968C131.79 87.941 132.16 87.3829 132.62 86.9224C133.081 86.448 133.611 86.0852 134.211 85.8341C134.811 85.5689 135.432 85.4364 136.074 85.4364C136.855 85.4364 137.553 85.562 138.167 85.8131C138.795 86.0643 139.318 86.4201 139.737 86.8806C140.169 87.341 140.497 87.8992 140.72 88.555C140.944 89.1968 141.055 89.9224 141.055 90.7317C141.055 90.9271 141.048 91.1015 141.034 91.255C141.02 91.3945 141.006 91.4782 140.993 91.5061H133.541C133.555 91.8968 133.639 92.2527 133.793 92.5736C133.946 92.8945 134.148 93.1736 134.399 93.4108C134.651 93.648 134.937 93.8364 135.258 93.9759C135.593 94.1015 135.948 94.1643 136.325 94.1643C137.065 94.1643 137.63 93.9968 138.02 93.662C138.425 93.3131 138.711 92.8875 138.879 92.3852L140.93 93.0341ZM148.943 88.1573C148.664 88.1155 148.399 88.0945 148.148 88.0945C147.199 88.0945 146.501 88.3527 146.055 88.8689C145.622 89.3852 145.406 90.1248 145.406 91.0875V95.9434H142.978V85.7503H145.343V87.3829C145.58 86.8248 145.964 86.3922 146.494 86.0852C147.024 85.7782 147.624 85.6248 148.294 85.6248C148.448 85.6248 148.58 85.6317 148.692 85.6457C148.803 85.6596 148.887 85.6736 148.943 85.6875V88.1573ZM150.572 95.9434V85.7503H152.979V95.9434H150.572ZM150.195 82.1713C150.195 81.7248 150.349 81.348 150.656 81.041C150.963 80.7341 151.332 80.5806 151.765 80.5806C152.212 80.5806 152.588 80.7341 152.895 81.041C153.202 81.348 153.356 81.7248 153.356 82.1713C153.356 82.6178 153.202 82.9945 152.895 83.3015C152.588 83.5945 152.212 83.741 151.765 83.741C151.332 83.741 150.963 83.5945 150.656 83.3015C150.349 82.9945 150.195 82.6178 150.195 82.1713ZM160.234 82.862C160.067 82.862 159.893 82.8829 159.711 82.9248C159.544 82.9666 159.383 83.0503 159.23 83.1759C159.09 83.2875 158.972 83.448 158.874 83.6573C158.776 83.8527 158.727 84.1038 158.727 84.4108V85.7503H161.093V87.8643H158.727V95.9434H156.279V87.8643H154.5V85.7503H156.279V84.348C156.279 83.7759 156.362 83.2666 156.53 82.8201C156.711 82.3596 156.955 81.9759 157.262 81.6689C157.583 81.348 157.96 81.1038 158.393 80.9364C158.825 80.7689 159.307 80.6852 159.837 80.6852C160.144 80.6852 160.409 80.7131 160.632 80.7689C160.869 80.8108 161.03 80.8527 161.114 80.8945V82.9666C161.044 82.9387 160.939 82.9178 160.8 82.9038C160.66 82.8759 160.472 82.862 160.234 82.862ZM163.544 100.067L165.993 94.7294L161.64 85.7503H164.382L167.312 92.1968L170.054 85.7503H172.628L166.14 100.067H163.544ZM181.88 85.7503H183.994V87.9061H181.88V92.6364C181.88 93.0829 181.984 93.4108 182.194 93.6201C182.403 93.8155 182.731 93.9131 183.177 93.9131C183.345 93.9131 183.512 93.9061 183.68 93.8922C183.847 93.8643 183.959 93.8434 184.014 93.8294V95.8387C183.945 95.8666 183.791 95.9085 183.554 95.9643C183.317 96.0341 182.975 96.0689 182.528 96.0689C181.58 96.0689 180.833 95.8038 180.289 95.2736C179.745 94.7434 179.473 93.9968 179.473 93.0341V87.9061H177.589V85.7503H178.112C178.656 85.7503 179.054 85.5968 179.305 85.2899C179.556 84.9829 179.682 84.6061 179.682 84.1596V82.6317H181.88V85.7503ZM188.232 95.9434H185.804V80.7899H188.232V86.7341C188.581 86.2875 189.021 85.9666 189.551 85.7713C190.081 85.562 190.611 85.4573 191.142 85.4573C191.769 85.4573 192.314 85.562 192.774 85.7713C193.249 85.9806 193.639 86.2736 193.946 86.6503C194.253 87.0131 194.483 87.4387 194.637 87.9271C194.79 88.4155 194.867 88.9387 194.867 89.4968V95.9434H192.439V89.9155C192.439 89.2875 192.279 88.7573 191.958 88.3248C191.651 87.8782 191.114 87.655 190.346 87.655C189.676 87.655 189.16 87.8782 188.797 88.3248C188.449 88.7573 188.26 89.3015 188.232 89.9573V95.9434ZM196.797 93.1806C196.797 92.7201 196.874 92.3155 197.028 91.9666C197.195 91.6178 197.411 91.3178 197.676 91.0666C197.955 90.8015 198.283 90.5922 198.66 90.4387C199.037 90.2852 199.441 90.1736 199.874 90.1038L202.49 89.7061C202.783 89.6643 202.979 89.5806 203.076 89.455C203.188 89.3155 203.244 89.155 203.244 88.9736C203.244 88.541 203.09 88.1782 202.783 87.8852C202.476 87.5782 201.988 87.4248 201.318 87.4248C200.676 87.4248 200.181 87.6061 199.832 87.9689C199.483 88.3178 199.281 88.7503 199.225 89.2666L197.007 88.7643C197.048 88.3317 197.181 87.9131 197.404 87.5085C197.628 87.1038 197.921 86.748 198.283 86.441C198.646 86.1341 199.079 85.8899 199.581 85.7085C200.097 85.5271 200.669 85.4364 201.297 85.4364C202.079 85.4364 202.741 85.541 203.286 85.7503C203.844 85.9596 204.29 86.2387 204.625 86.5875C204.974 86.9364 205.225 87.341 205.379 87.8015C205.546 88.262 205.63 88.7434 205.63 89.2457V94.3108C205.63 94.7713 205.644 95.148 205.672 95.441C205.714 95.7201 205.741 95.8875 205.755 95.9434H203.495C203.481 95.9155 203.46 95.7968 203.432 95.5875C203.404 95.3643 203.39 95.0503 203.39 94.6457C203.153 95.0364 202.776 95.4062 202.26 95.755C201.744 96.0899 201.074 96.2573 200.251 96.2573C199.721 96.2573 199.239 96.1736 198.807 96.0062C198.388 95.8387 198.025 95.6155 197.718 95.3364C197.425 95.0434 197.195 94.7155 197.028 94.3527C196.874 93.9759 196.797 93.5852 196.797 93.1806ZM200.711 94.3527C201.046 94.3527 201.367 94.3108 201.674 94.2271C201.981 94.1294 202.246 93.9829 202.469 93.7875C202.707 93.5782 202.895 93.3061 203.034 92.9713C203.174 92.6364 203.244 92.2178 203.244 91.7155V91.255L200.586 91.6527C200.209 91.7224 199.888 91.8689 199.623 92.0922C199.358 92.3015 199.225 92.6155 199.225 93.0341C199.225 93.3829 199.351 93.6899 199.602 93.955C199.853 94.2201 200.223 94.3527 200.711 94.3527ZM211.203 85.7503H213.317V87.9061H211.203V92.6364C211.203 93.0829 211.308 93.4108 211.517 93.6201C211.726 93.8155 212.054 93.9131 212.501 93.9131C212.668 93.9131 212.836 93.9061 213.003 93.8922C213.17 93.8643 213.282 93.8434 213.338 93.8294V95.8387C213.268 95.8666 213.115 95.9085 212.877 95.9643C212.64 96.0341 212.298 96.0689 211.852 96.0689C210.903 96.0689 210.156 95.8038 209.612 95.2736C209.068 94.7434 208.796 93.9968 208.796 93.0341V87.9061H206.912V85.7503H207.436C207.98 85.7503 208.377 85.5968 208.629 85.2899C208.88 84.9829 209.005 84.6061 209.005 84.1596V82.6317H211.203V85.7503ZM220.167 95.9434V85.7503H222.574V95.9434H220.167ZM219.79 82.1713C219.79 81.7248 219.944 81.348 220.251 81.041C220.558 80.7341 220.927 80.5806 221.36 80.5806C221.807 80.5806 222.183 80.7341 222.49 81.041C222.797 81.348 222.951 81.7248 222.951 82.1713C222.951 82.6178 222.797 82.9945 222.49 83.3015C222.183 83.5945 221.807 83.741 221.36 83.741C220.927 83.741 220.558 83.5945 220.251 83.3015C219.944 82.9945 219.79 82.6178 219.79 82.1713ZM228.385 85.7503H230.499V87.9061H228.385V92.6364C228.385 93.0829 228.49 93.4108 228.699 93.6201C228.908 93.8155 229.236 93.9131 229.683 93.9131C229.85 93.9131 230.018 93.9061 230.185 93.8922C230.353 93.8643 230.464 93.8434 230.52 93.8294V95.8387C230.45 95.8666 230.297 95.9085 230.06 95.9643C229.822 96.0341 229.481 96.0689 229.034 96.0689C228.085 96.0689 227.339 95.8038 226.795 95.2736C226.25 94.7434 225.978 93.9968 225.978 93.0341V87.9061H224.095V85.7503H224.618C225.162 85.7503 225.56 85.5968 225.811 85.2899C226.062 84.9829 226.188 84.6061 226.188 84.1596V82.6317H228.385V85.7503ZM231.412 82.3596C231.412 81.9829 231.559 81.655 231.852 81.3759C232.145 81.0829 232.515 80.9364 232.961 80.9364C233.464 80.9364 233.875 81.1178 234.196 81.4806C234.531 81.8294 234.698 82.2968 234.698 82.8829C234.698 83.5666 234.594 84.1457 234.385 84.6201C234.189 85.0945 233.938 85.4922 233.631 85.8131C233.324 86.1201 232.989 86.3503 232.626 86.5038C232.264 86.6573 231.922 86.748 231.601 86.7759V85.6248C232.033 85.541 232.41 85.3178 232.731 84.955C233.066 84.5922 233.247 84.1736 233.275 83.6992C233.247 83.7131 233.192 83.7341 233.108 83.762C233.038 83.7899 232.947 83.8038 232.836 83.8038C232.417 83.8038 232.075 83.6713 231.81 83.4061C231.545 83.141 231.412 82.7922 231.412 82.3596ZM236.703 92.5945C236.745 93.055 236.933 93.4596 237.268 93.8085C237.617 94.1573 238.119 94.3317 238.775 94.3317C239.278 94.3317 239.654 94.2201 239.906 93.9968C240.171 93.7596 240.303 93.4806 240.303 93.1596C240.303 92.8806 240.206 92.6434 240.01 92.448C239.815 92.2527 239.515 92.1131 239.11 92.0294L237.603 91.6945C236.696 91.4992 236.013 91.1364 235.552 90.6061C235.092 90.062 234.861 89.4341 234.861 88.7224C234.861 88.2759 234.959 87.8573 235.154 87.4666C235.35 87.062 235.615 86.7131 235.95 86.4201C236.285 86.1131 236.675 85.8759 237.122 85.7085C237.582 85.5271 238.078 85.4364 238.608 85.4364C239.319 85.4364 239.913 85.541 240.387 85.7503C240.875 85.9457 241.273 86.1899 241.58 86.4829C241.887 86.7759 242.11 87.0899 242.25 87.4248C242.403 87.7457 242.501 88.0317 242.543 88.2829L240.492 88.8689C240.464 88.7294 240.415 88.5689 240.345 88.3875C240.275 88.2061 240.164 88.0387 240.01 87.8852C239.871 87.7317 239.682 87.6061 239.445 87.5085C239.222 87.3968 238.943 87.341 238.608 87.341C238.175 87.341 237.819 87.4596 237.54 87.6968C237.275 87.9201 237.143 88.1922 237.143 88.5131C237.143 88.7922 237.233 89.0224 237.415 89.2038C237.596 89.3852 237.847 89.5108 238.168 89.5806L239.717 89.8945C240.68 90.1038 241.406 90.4875 241.894 91.0457C242.396 91.5899 242.647 92.2387 242.647 92.9922C242.647 93.3829 242.564 93.7736 242.396 94.1643C242.243 94.541 242.006 94.8899 241.685 95.2108C241.378 95.5178 240.98 95.7689 240.492 95.9643C240.003 96.1596 239.438 96.2573 238.796 96.2573C238.057 96.2573 237.429 96.1527 236.913 95.9434C236.396 95.7341 235.971 95.4759 235.636 95.1689C235.301 94.848 235.05 94.5131 234.882 94.1643C234.715 93.8015 234.617 93.4736 234.589 93.1806L236.703 92.5945ZM249.954 100.067L252.403 94.7294L248.049 85.7503H250.791L253.721 92.1968L256.463 85.7503H259.037L252.549 100.067H249.954ZM264.427 94.0806C264.804 94.0806 265.16 94.0108 265.495 93.8713C265.843 93.7317 266.15 93.5294 266.415 93.2643C266.681 92.9852 266.89 92.6434 267.043 92.2387C267.197 91.8341 267.274 91.3666 267.274 90.8364C267.274 90.3061 267.197 89.8457 267.043 89.455C266.89 89.0503 266.681 88.7155 266.415 88.4503C266.15 88.1713 265.843 87.9689 265.495 87.8434C265.16 87.7038 264.804 87.6341 264.427 87.6341C264.05 87.6341 263.688 87.7038 263.339 87.8434C263.004 87.9689 262.704 88.1713 262.439 88.4503C262.188 88.7155 261.978 89.0503 261.811 89.455C261.657 89.8457 261.581 90.3061 261.581 90.8364C261.581 91.3666 261.657 91.8341 261.811 92.2387C261.978 92.6434 262.188 92.9852 262.439 93.2643C262.704 93.5294 263.004 93.7317 263.339 93.8713C263.688 94.0108 264.05 94.0806 264.427 94.0806ZM264.427 85.4364C265.195 85.4364 265.899 85.5759 266.541 85.855C267.183 86.1201 267.741 86.4968 268.215 86.9852C268.69 87.4596 269.06 88.0248 269.325 88.6806C269.59 89.3364 269.722 90.055 269.722 90.8364C269.722 91.6178 269.59 92.3434 269.325 93.0131C269.06 93.6689 268.69 94.241 268.215 94.7294C267.741 95.2038 267.183 95.5806 266.541 95.8596C265.899 96.1248 265.195 96.2573 264.427 96.2573C263.674 96.2573 262.969 96.1248 262.313 95.8596C261.671 95.5806 261.113 95.2038 260.639 94.7294C260.178 94.241 259.815 93.6689 259.55 93.0131C259.285 92.3434 259.153 91.6178 259.153 90.8364C259.153 90.055 259.285 89.3364 259.55 88.6806C259.815 88.0248 260.178 87.4596 260.639 86.9852C261.113 86.4968 261.671 86.1201 262.313 85.855C262.969 85.5759 263.674 85.4364 264.427 85.4364ZM278.245 94.8131C277.993 95.2736 277.596 95.6294 277.052 95.8806C276.521 96.1178 275.956 96.2364 275.356 96.2364C274.742 96.2364 274.198 96.1317 273.724 95.9224C273.249 95.7131 272.845 95.4271 272.51 95.0643C272.189 94.6875 271.938 94.255 271.756 93.7666C271.589 93.2782 271.505 92.748 271.505 92.1759V85.7503H273.933V91.7364C273.933 92.0573 273.968 92.3573 274.038 92.6364C274.121 92.9155 274.247 93.1596 274.414 93.3689C274.582 93.5782 274.791 93.7457 275.042 93.8713C275.307 93.9968 275.621 94.0596 275.984 94.0596C276.696 94.0596 277.226 93.8503 277.575 93.4317C277.938 92.9992 278.119 92.448 278.119 91.7782V85.7503H280.547V94.0806C280.547 94.4992 280.554 94.8689 280.568 95.1899C280.596 95.4968 280.624 95.748 280.652 95.9434H278.328C278.3 95.8317 278.28 95.6713 278.266 95.462C278.252 95.2387 278.245 95.0224 278.245 94.8131Z" fill="#343C6A"/>
<path d="M68.1359 119.99C68.1359 120.632 68.2336 121.199 68.4289 121.692C68.6336 122.176 68.8987 122.585 69.2243 122.92C69.5591 123.246 69.9405 123.492 70.3684 123.66C70.7963 123.818 71.2429 123.897 71.708 123.897C72.1638 123.897 72.6056 123.818 73.0336 123.66C73.4708 123.492 73.8522 123.246 74.1777 122.92C74.5126 122.585 74.7777 122.176 74.9731 121.692C75.1777 121.199 75.2801 120.632 75.2801 119.99C75.2801 119.348 75.1777 118.785 74.9731 118.301C74.7777 117.808 74.5126 117.399 74.1777 117.074C73.8522 116.748 73.4708 116.506 73.0336 116.348C72.6056 116.181 72.1638 116.097 71.708 116.097C71.2429 116.097 70.7963 116.181 70.3684 116.348C69.9405 116.506 69.5591 116.748 69.2243 117.074C68.8987 117.399 68.6336 117.808 68.4289 118.301C68.2336 118.785 68.1359 119.348 68.1359 119.99ZM66.7405 119.99C66.7405 119.162 66.8801 118.432 67.1591 117.799C67.4475 117.157 67.8243 116.618 68.2894 116.181C68.7545 115.743 69.2847 115.413 69.8801 115.19C70.4754 114.957 71.0847 114.841 71.708 114.841C72.3312 114.841 72.9405 114.957 73.5359 115.19C74.1312 115.413 74.6615 115.743 75.1266 116.181C75.5917 116.618 75.9638 117.157 76.2429 117.799C76.5312 118.432 76.6754 119.162 76.6754 119.99C76.6754 120.818 76.5312 121.553 76.2429 122.195C75.9638 122.836 75.5917 123.376 75.1266 123.813C74.6615 124.25 74.1312 124.585 73.5359 124.818C72.9405 125.041 72.3312 125.153 71.708 125.153C71.0847 125.153 70.4754 125.041 69.8801 124.818C69.2847 124.585 68.7545 124.25 68.2894 123.813C67.8243 123.376 67.4475 122.836 67.1591 122.195C66.8801 121.553 66.7405 120.818 66.7405 119.99ZM78.3325 127.595V118.232H79.6023V119.278C79.7883 118.943 80.072 118.66 80.4534 118.427C80.8348 118.195 81.2999 118.078 81.8488 118.078C82.3511 118.078 82.793 118.171 83.1744 118.357C83.5651 118.534 83.886 118.781 84.1372 119.097C84.3976 119.413 84.593 119.785 84.7232 120.213C84.8627 120.641 84.9325 121.097 84.9325 121.581C84.9325 122.083 84.8627 122.548 84.7232 122.976C84.5837 123.404 84.379 123.781 84.1092 124.106C83.8395 124.422 83.5092 124.674 83.1185 124.86C82.7372 125.036 82.2999 125.125 81.8069 125.125C81.286 125.125 80.8395 125.018 80.4674 124.804C80.0953 124.59 79.8162 124.334 79.6302 124.036V127.595H78.3325ZM83.593 121.581C83.593 121.246 83.5465 120.939 83.4534 120.66C83.3604 120.371 83.2302 120.125 83.0627 119.92C82.8953 119.706 82.686 119.539 82.4348 119.418C82.193 119.297 81.9185 119.236 81.6116 119.236C81.3139 119.236 81.0395 119.297 80.7883 119.418C80.5465 119.539 80.3372 119.706 80.1604 119.92C79.9837 120.125 79.8488 120.371 79.7558 120.66C79.6627 120.939 79.6162 121.246 79.6162 121.581C79.6162 121.925 79.6627 122.246 79.7558 122.543C79.8488 122.832 79.9837 123.083 80.1604 123.297C80.3372 123.501 80.5465 123.664 80.7883 123.785C81.0395 123.897 81.3139 123.953 81.6116 123.953C81.9185 123.953 82.193 123.897 82.4348 123.785C82.6767 123.664 82.8813 123.501 83.0488 123.297C83.2255 123.083 83.3604 122.832 83.4534 122.543C83.5465 122.246 83.593 121.925 83.593 121.581ZM91.041 120.897C91.0224 120.413 90.8596 120.008 90.5526 119.683C90.2456 119.348 89.7945 119.181 89.1991 119.181C88.92 119.181 88.6689 119.232 88.4456 119.334C88.2317 119.427 88.0456 119.557 87.8875 119.725C87.7386 119.883 87.6177 120.064 87.5247 120.269C87.4317 120.474 87.3805 120.683 87.3712 120.897H91.041ZM92.3666 123.032C92.2735 123.329 92.134 123.608 91.9479 123.869C91.7712 124.12 91.5526 124.343 91.2921 124.539C91.041 124.725 90.7526 124.874 90.427 124.985C90.1014 125.097 89.7433 125.153 89.3526 125.153C88.9061 125.153 88.4782 125.074 88.0689 124.915C87.6596 124.757 87.2968 124.525 86.9805 124.218C86.6735 123.911 86.427 123.534 86.241 123.088C86.0642 122.641 85.9759 122.134 85.9759 121.567C85.9759 121.036 86.0642 120.557 86.241 120.129C86.4177 119.692 86.6503 119.32 86.9386 119.013C87.2363 118.697 87.5805 118.455 87.9712 118.288C88.3619 118.111 88.7666 118.022 89.1852 118.022C89.6968 118.022 90.1526 118.111 90.5526 118.288C90.9619 118.455 91.3014 118.692 91.5712 118.999C91.841 119.306 92.0456 119.678 92.1852 120.115C92.334 120.543 92.4084 121.018 92.4084 121.539C92.4084 121.622 92.4038 121.701 92.3945 121.776C92.3945 121.85 92.3898 121.911 92.3805 121.957H87.3293C87.3386 122.255 87.3945 122.529 87.4968 122.781C87.5991 123.032 87.7386 123.25 87.9154 123.436C88.1014 123.613 88.3154 123.753 88.5572 123.855C88.8084 123.948 89.0735 123.995 89.3526 123.995C89.9014 123.995 90.32 123.864 90.6084 123.604C90.8968 123.343 91.1061 123.022 91.2363 122.641L92.3666 123.032ZM95.3106 124.943H93.999V118.232H95.2827V119.195C95.5246 118.776 95.8316 118.478 96.2037 118.301C96.5757 118.125 96.9571 118.036 97.3478 118.036C97.7478 118.036 98.0967 118.106 98.3943 118.246C98.7013 118.376 98.9525 118.562 99.1478 118.804C99.3525 119.036 99.5013 119.315 99.5943 119.641C99.6967 119.967 99.7478 120.315 99.7478 120.688V124.943H98.4362V120.911C98.4362 120.678 98.4083 120.46 98.3525 120.255C98.306 120.05 98.2176 119.874 98.0874 119.725C97.9664 119.567 97.8037 119.446 97.599 119.362C97.4037 119.269 97.1618 119.222 96.8734 119.222C96.613 119.222 96.385 119.274 96.1897 119.376C95.9943 119.469 95.8316 119.599 95.7013 119.767C95.5711 119.934 95.4734 120.129 95.4083 120.353C95.3432 120.576 95.3106 120.813 95.3106 121.064V124.943ZM105.392 127.748L107.067 124.204L104.178 118.232H105.685L107.778 122.864L109.788 118.232H111.197L106.83 127.748H105.392ZM114.977 123.981C115.256 123.981 115.521 123.929 115.772 123.827C116.024 123.725 116.247 123.571 116.442 123.367C116.638 123.162 116.791 122.911 116.903 122.613C117.014 122.315 117.07 121.971 117.07 121.581C117.07 121.19 117.014 120.85 116.903 120.562C116.791 120.264 116.638 120.013 116.442 119.808C116.247 119.604 116.024 119.45 115.772 119.348C115.521 119.246 115.256 119.195 114.977 119.195C114.698 119.195 114.433 119.246 114.182 119.348C113.931 119.45 113.707 119.604 113.512 119.808C113.317 120.013 113.163 120.264 113.052 120.562C112.94 120.85 112.884 121.19 112.884 121.581C112.884 121.971 112.94 122.315 113.052 122.613C113.163 122.911 113.317 123.162 113.512 123.367C113.707 123.571 113.931 123.725 114.182 123.827C114.433 123.929 114.698 123.981 114.977 123.981ZM114.977 118.022C115.479 118.022 115.94 118.115 116.358 118.301C116.777 118.478 117.14 118.725 117.447 119.041C117.754 119.357 117.991 119.734 118.158 120.171C118.326 120.599 118.41 121.069 118.41 121.581C118.41 122.092 118.326 122.567 118.158 123.004C117.991 123.441 117.754 123.818 117.447 124.134C117.14 124.45 116.777 124.701 116.358 124.888C115.94 125.064 115.479 125.153 114.977 125.153C114.475 125.153 114.014 125.064 113.596 124.888C113.177 124.701 112.814 124.45 112.507 124.134C112.2 123.818 111.963 123.441 111.796 123.004C111.628 122.567 111.545 122.092 111.545 121.581C111.545 121.069 111.628 120.599 111.796 120.171C111.963 119.734 112.2 119.357 112.507 119.041C112.814 118.725 113.177 118.478 113.596 118.301C114.014 118.115 114.475 118.022 114.977 118.022ZM124.359 124.134C124.173 124.488 123.894 124.748 123.522 124.915C123.15 125.074 122.768 125.153 122.378 125.153C121.987 125.153 121.634 125.083 121.317 124.943C121.01 124.804 120.75 124.613 120.536 124.371C120.322 124.129 120.155 123.846 120.034 123.52C119.922 123.195 119.866 122.841 119.866 122.46V118.232H121.178V122.264C121.178 122.497 121.206 122.72 121.262 122.934C121.317 123.139 121.406 123.32 121.527 123.478C121.648 123.636 121.801 123.762 121.987 123.855C122.182 123.948 122.42 123.995 122.699 123.995C123.229 123.995 123.624 123.836 123.885 123.52C124.155 123.204 124.289 122.79 124.289 122.278V118.232H125.601V123.701C125.601 123.971 125.606 124.218 125.615 124.441C125.634 124.655 125.652 124.822 125.671 124.943H124.415C124.396 124.869 124.382 124.753 124.373 124.595C124.364 124.427 124.359 124.274 124.359 124.134ZM131.481 119.557C131.286 119.529 131.095 119.515 130.909 119.515C130.36 119.515 129.914 119.678 129.569 120.004C129.235 120.32 129.067 120.846 129.067 121.581V124.943H127.756V118.232H129.039V119.404C129.16 119.143 129.3 118.934 129.458 118.776C129.625 118.608 129.797 118.478 129.974 118.385C130.151 118.283 130.332 118.213 130.518 118.176C130.704 118.139 130.881 118.12 131.049 118.12C131.142 118.12 131.225 118.125 131.3 118.134C131.383 118.143 131.444 118.153 131.481 118.162V119.557ZM137.958 118.232H139.409V119.418H137.958V122.906C137.958 123.213 138.028 123.446 138.167 123.604C138.307 123.753 138.549 123.827 138.893 123.827C138.977 123.827 139.07 123.822 139.172 123.813C139.274 123.804 139.354 123.79 139.409 123.771V124.888C139.354 124.906 139.247 124.929 139.088 124.957C138.93 124.995 138.74 125.013 138.516 125.013C137.94 125.013 137.484 124.85 137.149 124.525C136.814 124.19 136.647 123.715 136.647 123.101V119.418H135.363V118.232H135.726C136.088 118.232 136.349 118.134 136.507 117.939C136.674 117.743 136.758 117.497 136.758 117.199V116.111H137.958V118.232ZM146.347 118.232L148.092 123.283L149.571 118.232H150.952L148.775 124.943H147.422L145.636 119.836L143.892 124.943H142.51L140.306 118.232H141.743L143.25 123.283L144.994 118.232H146.347ZM154.932 123.981C155.211 123.981 155.476 123.929 155.727 123.827C155.978 123.725 156.201 123.571 156.397 123.367C156.592 123.162 156.746 122.911 156.857 122.613C156.969 122.315 157.025 121.971 157.025 121.581C157.025 121.19 156.969 120.85 156.857 120.562C156.746 120.264 156.592 120.013 156.397 119.808C156.201 119.604 155.978 119.45 155.727 119.348C155.476 119.246 155.211 119.195 154.932 119.195C154.653 119.195 154.388 119.246 154.136 119.348C153.885 119.45 153.662 119.604 153.467 119.808C153.271 120.013 153.118 120.264 153.006 120.562C152.894 120.85 152.839 121.19 152.839 121.581C152.839 121.971 152.894 122.315 153.006 122.613C153.118 122.911 153.271 123.162 153.467 123.367C153.662 123.571 153.885 123.725 154.136 123.827C154.388 123.929 154.653 123.981 154.932 123.981ZM154.932 118.022C155.434 118.022 155.894 118.115 156.313 118.301C156.732 118.478 157.094 118.725 157.401 119.041C157.708 119.357 157.946 119.734 158.113 120.171C158.281 120.599 158.364 121.069 158.364 121.581C158.364 122.092 158.281 122.567 158.113 123.004C157.946 123.441 157.708 123.818 157.401 124.134C157.094 124.45 156.732 124.701 156.313 124.888C155.894 125.064 155.434 125.153 154.932 125.153C154.429 125.153 153.969 125.064 153.55 124.888C153.132 124.701 152.769 124.45 152.462 124.134C152.155 123.818 151.918 123.441 151.75 123.004C151.583 122.567 151.499 122.092 151.499 121.581C151.499 121.069 151.583 120.599 151.75 120.171C151.918 119.734 152.155 119.357 152.462 119.041C152.769 118.725 153.132 118.478 153.55 118.301C153.969 118.115 154.429 118.022 154.932 118.022ZM159.47 121.511V120.367H163.252V121.511H159.47ZM166.675 119.418V124.943H165.321V119.418H164.08V118.232H165.321V117.101C165.321 116.729 165.377 116.399 165.489 116.111C165.61 115.822 165.768 115.581 165.963 115.385C166.168 115.19 166.4 115.046 166.661 114.953C166.931 114.85 167.219 114.799 167.526 114.799C167.749 114.799 167.926 114.818 168.056 114.855C168.196 114.892 168.28 114.92 168.307 114.939V116.111C168.27 116.092 168.205 116.074 168.112 116.055C168.028 116.036 167.903 116.027 167.735 116.027C167.624 116.027 167.503 116.046 167.373 116.083C167.252 116.111 167.135 116.167 167.024 116.25C166.921 116.334 166.838 116.45 166.773 116.599C166.707 116.748 166.675 116.939 166.675 117.171V118.232H168.293V119.418H166.675ZM168.993 123.143C168.993 122.846 169.044 122.581 169.146 122.348C169.249 122.106 169.388 121.901 169.565 121.734C169.751 121.567 169.97 121.432 170.221 121.329C170.472 121.227 170.742 121.153 171.03 121.106L172.844 120.841C173.049 120.813 173.184 120.753 173.249 120.66C173.323 120.567 173.36 120.46 173.36 120.339C173.36 120.013 173.244 119.734 173.012 119.501C172.788 119.26 172.421 119.139 171.909 119.139C171.444 119.139 171.086 119.269 170.835 119.529C170.584 119.781 170.435 120.101 170.388 120.492L169.132 120.199C169.17 119.883 169.263 119.59 169.412 119.32C169.57 119.05 169.77 118.822 170.012 118.636C170.253 118.441 170.532 118.292 170.849 118.19C171.174 118.078 171.518 118.022 171.881 118.022C172.384 118.022 172.812 118.092 173.165 118.232C173.518 118.362 173.807 118.539 174.03 118.762C174.253 118.985 174.416 119.246 174.518 119.543C174.621 119.841 174.672 120.153 174.672 120.478V123.841C174.672 124.139 174.681 124.376 174.7 124.553C174.718 124.729 174.737 124.86 174.756 124.943H173.472C173.453 124.86 173.435 124.748 173.416 124.608C173.407 124.469 173.402 124.278 173.402 124.036C173.328 124.157 173.23 124.283 173.109 124.413C172.988 124.543 172.839 124.664 172.663 124.776C172.486 124.888 172.277 124.976 172.035 125.041C171.802 125.115 171.537 125.153 171.239 125.153C170.895 125.153 170.584 125.097 170.305 124.985C170.035 124.874 169.802 124.729 169.607 124.553C169.412 124.367 169.258 124.153 169.146 123.911C169.044 123.669 168.993 123.413 168.993 123.143ZM171.421 124.05C171.691 124.05 171.942 124.018 172.174 123.953C172.416 123.878 172.621 123.767 172.788 123.618C172.965 123.46 173.105 123.255 173.207 123.004C173.309 122.743 173.36 122.432 173.36 122.069V121.762L171.309 122.069C171.03 122.115 170.798 122.222 170.612 122.39C170.425 122.548 170.332 122.776 170.332 123.074C170.332 123.325 170.43 123.553 170.625 123.757C170.821 123.953 171.086 124.05 171.421 124.05ZM179.45 119.236C179.18 119.236 178.925 119.288 178.683 119.39C178.441 119.483 178.222 119.627 178.027 119.822C177.841 120.018 177.692 120.264 177.58 120.562C177.469 120.85 177.413 121.19 177.413 121.581C177.413 121.962 177.469 122.301 177.58 122.599C177.692 122.888 177.841 123.134 178.027 123.339C178.213 123.534 178.432 123.683 178.683 123.785C178.934 123.888 179.194 123.939 179.464 123.939C179.78 123.939 180.046 123.892 180.259 123.799C180.483 123.706 180.664 123.59 180.804 123.45C180.952 123.311 181.069 123.162 181.152 123.004C181.236 122.836 181.297 122.688 181.334 122.557L182.492 123.06C182.408 123.301 182.287 123.548 182.129 123.799C181.971 124.041 181.766 124.264 181.515 124.469C181.264 124.674 180.966 124.836 180.622 124.957C180.287 125.088 179.901 125.153 179.464 125.153C178.971 125.153 178.515 125.064 178.097 124.888C177.687 124.701 177.334 124.45 177.036 124.134C176.739 123.808 176.501 123.432 176.325 123.004C176.157 122.567 176.073 122.092 176.073 121.581C176.073 121.06 176.157 120.581 176.325 120.143C176.501 119.706 176.739 119.334 177.036 119.027C177.343 118.711 177.701 118.464 178.111 118.288C178.529 118.111 178.976 118.022 179.45 118.022C179.897 118.022 180.287 118.088 180.622 118.218C180.966 118.339 181.259 118.501 181.501 118.706C181.752 118.911 181.952 119.143 182.101 119.404C182.25 119.655 182.362 119.906 182.436 120.157L181.25 120.66C181.204 120.492 181.139 120.325 181.055 120.157C180.971 119.99 180.855 119.841 180.706 119.711C180.566 119.571 180.394 119.46 180.19 119.376C179.985 119.283 179.739 119.236 179.45 119.236ZM185.705 118.232H187.156V119.418H185.705V122.906C185.705 123.213 185.775 123.446 185.914 123.604C186.054 123.753 186.296 123.827 186.64 123.827C186.724 123.827 186.817 123.822 186.919 123.813C187.021 123.804 187.1 123.79 187.156 123.771V124.888C187.1 124.906 186.994 124.929 186.835 124.957C186.677 124.995 186.487 125.013 186.263 125.013C185.687 125.013 185.231 124.85 184.896 124.525C184.561 124.19 184.394 123.715 184.394 123.101V119.418H183.11V118.232H183.473C183.835 118.232 184.096 118.134 184.254 117.939C184.421 117.743 184.505 117.497 184.505 117.199V116.111H185.705V118.232ZM191.63 123.981C191.909 123.981 192.174 123.929 192.425 123.827C192.676 123.725 192.899 123.571 193.095 123.367C193.29 123.162 193.444 122.911 193.555 122.613C193.667 122.315 193.723 121.971 193.723 121.581C193.723 121.19 193.667 120.85 193.555 120.562C193.444 120.264 193.29 120.013 193.095 119.808C192.899 119.604 192.676 119.45 192.425 119.348C192.174 119.246 191.909 119.195 191.63 119.195C191.351 119.195 191.085 119.246 190.834 119.348C190.583 119.45 190.36 119.604 190.164 119.808C189.969 120.013 189.816 120.264 189.704 120.562C189.592 120.85 189.537 121.19 189.537 121.581C189.537 121.971 189.592 122.315 189.704 122.613C189.816 122.911 189.969 123.162 190.164 123.367C190.36 123.571 190.583 123.725 190.834 123.827C191.085 123.929 191.351 123.981 191.63 123.981ZM191.63 118.022C192.132 118.022 192.592 118.115 193.011 118.301C193.43 118.478 193.792 118.725 194.099 119.041C194.406 119.357 194.644 119.734 194.811 120.171C194.978 120.599 195.062 121.069 195.062 121.581C195.062 122.092 194.978 122.567 194.811 123.004C194.644 123.441 194.406 123.818 194.099 124.134C193.792 124.45 193.43 124.701 193.011 124.888C192.592 125.064 192.132 125.153 191.63 125.153C191.127 125.153 190.667 125.064 190.248 124.888C189.83 124.701 189.467 124.45 189.16 124.134C188.853 123.818 188.616 123.441 188.448 123.004C188.281 122.567 188.197 122.092 188.197 121.581C188.197 121.069 188.281 120.599 188.448 120.171C188.616 119.734 188.853 119.357 189.16 119.041C189.467 118.725 189.83 118.478 190.248 118.301C190.667 118.115 191.127 118.022 191.63 118.022ZM200.382 119.557C200.187 119.529 199.996 119.515 199.81 119.515C199.261 119.515 198.815 119.678 198.471 120.004C198.136 120.32 197.968 120.846 197.968 121.581V124.943H196.657V118.232H197.94V119.404C198.061 119.143 198.201 118.934 198.359 118.776C198.526 118.608 198.698 118.478 198.875 118.385C199.052 118.283 199.233 118.213 199.419 118.176C199.605 118.139 199.782 118.12 199.95 118.12C200.043 118.12 200.126 118.125 200.201 118.134C200.284 118.143 200.345 118.153 200.382 118.162V119.557ZM204.682 123.143C204.682 122.846 204.734 122.581 204.836 122.348C204.938 122.106 205.078 121.901 205.255 121.734C205.441 121.567 205.659 121.432 205.91 121.329C206.162 121.227 206.431 121.153 206.72 121.106L208.534 120.841C208.738 120.813 208.873 120.753 208.938 120.66C209.013 120.567 209.05 120.46 209.05 120.339C209.05 120.013 208.934 119.734 208.701 119.501C208.478 119.26 208.11 119.139 207.599 119.139C207.134 119.139 206.775 119.269 206.524 119.529C206.273 119.781 206.124 120.101 206.078 120.492L204.822 120.199C204.859 119.883 204.952 119.59 205.101 119.32C205.259 119.05 205.459 118.822 205.701 118.636C205.943 118.441 206.222 118.292 206.538 118.19C206.864 118.078 207.208 118.022 207.571 118.022C208.073 118.022 208.501 118.092 208.855 118.232C209.208 118.362 209.496 118.539 209.72 118.762C209.943 118.985 210.106 119.246 210.208 119.543C210.31 119.841 210.362 120.153 210.362 120.478V123.841C210.362 124.139 210.371 124.376 210.389 124.553C210.408 124.729 210.427 124.86 210.445 124.943H209.162C209.143 124.86 209.124 124.748 209.106 124.608C209.096 124.469 209.092 124.278 209.092 124.036C209.017 124.157 208.92 124.283 208.799 124.413C208.678 124.543 208.529 124.664 208.352 124.776C208.175 124.888 207.966 124.976 207.724 125.041C207.492 125.115 207.227 125.153 206.929 125.153C206.585 125.153 206.273 125.097 205.994 124.985C205.724 124.874 205.492 124.729 205.296 124.553C205.101 124.367 204.948 124.153 204.836 123.911C204.734 123.669 204.682 123.413 204.682 123.143ZM207.11 124.05C207.38 124.05 207.631 124.018 207.864 123.953C208.106 123.878 208.31 123.767 208.478 123.618C208.655 123.46 208.794 123.255 208.896 123.004C208.999 122.743 209.05 122.432 209.05 122.069V121.762L206.999 122.069C206.72 122.115 206.487 122.222 206.301 122.39C206.115 122.548 206.022 122.776 206.022 123.074C206.022 123.325 206.12 123.553 206.315 123.757C206.51 123.953 206.775 124.05 207.11 124.05ZM216.608 124.134C216.422 124.488 216.143 124.748 215.771 124.915C215.399 125.074 215.017 125.153 214.627 125.153C214.236 125.153 213.883 125.083 213.566 124.943C213.259 124.804 212.999 124.613 212.785 124.371C212.571 124.129 212.403 123.846 212.283 123.52C212.171 123.195 212.115 122.841 212.115 122.46V118.232H213.427V122.264C213.427 122.497 213.455 122.72 213.51 122.934C213.566 123.139 213.655 123.32 213.776 123.478C213.896 123.636 214.05 123.762 214.236 123.855C214.431 123.948 214.669 123.995 214.948 123.995C215.478 123.995 215.873 123.836 216.134 123.52C216.403 123.204 216.538 122.79 216.538 122.278V118.232H217.85V123.701C217.85 123.971 217.855 124.218 217.864 124.441C217.883 124.655 217.901 124.822 217.92 124.943H216.664C216.645 124.869 216.631 124.753 216.622 124.595C216.613 124.427 216.608 124.274 216.608 124.134ZM221.763 118.232H223.214V119.418H221.763V122.906C221.763 123.213 221.832 123.446 221.972 123.604C222.111 123.753 222.353 123.827 222.697 123.827C222.781 123.827 222.874 123.822 222.977 123.813C223.079 123.804 223.158 123.79 223.214 123.771V124.888C223.158 124.906 223.051 124.929 222.893 124.957C222.735 124.995 222.544 125.013 222.321 125.013C221.744 125.013 221.288 124.85 220.953 124.525C220.618 124.19 220.451 123.715 220.451 123.101V119.418H219.167V118.232H219.53C219.893 118.232 220.153 118.134 220.311 117.939C220.479 117.743 220.563 117.497 220.563 117.199V116.111H221.763V118.232ZM226.192 124.943H224.881V114.841H226.192V119.013C226.434 118.66 226.737 118.408 227.099 118.26C227.462 118.111 227.839 118.036 228.23 118.036C228.63 118.036 228.978 118.106 229.276 118.246C229.583 118.376 229.834 118.562 230.03 118.804C230.234 119.036 230.383 119.315 230.476 119.641C230.578 119.967 230.63 120.315 230.63 120.688V124.943H229.318V120.911C229.318 120.678 229.29 120.46 229.234 120.255C229.188 120.05 229.099 119.874 228.969 119.725C228.848 119.567 228.685 119.446 228.481 119.362C228.285 119.269 228.044 119.222 227.755 119.222C227.504 119.222 227.281 119.269 227.085 119.362C226.899 119.455 226.741 119.581 226.611 119.739C226.481 119.897 226.378 120.083 226.304 120.297C226.239 120.511 226.202 120.743 226.192 120.995V124.943ZM237.153 120.897C237.135 120.413 236.972 120.008 236.665 119.683C236.358 119.348 235.907 119.181 235.311 119.181C235.032 119.181 234.781 119.232 234.558 119.334C234.344 119.427 234.158 119.557 234 119.725C233.851 119.883 233.73 120.064 233.637 120.269C233.544 120.474 233.493 120.683 233.483 120.897H237.153ZM238.479 123.032C238.386 123.329 238.246 123.608 238.06 123.869C237.883 124.12 237.665 124.343 237.404 124.539C237.153 124.725 236.865 124.874 236.539 124.985C236.214 125.097 235.856 125.153 235.465 125.153C235.018 125.153 234.59 125.074 234.181 124.915C233.772 124.757 233.409 124.525 233.093 124.218C232.786 123.911 232.539 123.534 232.353 123.088C232.176 122.641 232.088 122.134 232.088 121.567C232.088 121.036 232.176 120.557 232.353 120.129C232.53 119.692 232.762 119.32 233.051 119.013C233.349 118.697 233.693 118.455 234.083 118.288C234.474 118.111 234.879 118.022 235.297 118.022C235.809 118.022 236.265 118.111 236.665 118.288C237.074 118.455 237.414 118.692 237.683 118.999C237.953 119.306 238.158 119.678 238.297 120.115C238.446 120.543 238.521 121.018 238.521 121.539C238.521 121.622 238.516 121.701 238.507 121.776C238.507 121.85 238.502 121.911 238.493 121.957H233.442C233.451 122.255 233.507 122.529 233.609 122.781C233.711 123.032 233.851 123.25 234.028 123.436C234.214 123.613 234.428 123.753 234.669 123.855C234.921 123.948 235.186 123.995 235.465 123.995C236.014 123.995 236.432 123.864 236.721 123.604C237.009 123.343 237.218 123.022 237.349 122.641L238.479 123.032ZM241.423 124.943H240.111V118.232H241.395V119.195C241.637 118.776 241.944 118.478 242.316 118.301C242.688 118.125 243.069 118.036 243.46 118.036C243.86 118.036 244.209 118.106 244.507 118.246C244.814 118.376 245.065 118.562 245.26 118.804C245.465 119.036 245.614 119.315 245.707 119.641C245.809 119.967 245.86 120.315 245.86 120.688V124.943H244.548V120.911C244.548 120.678 244.521 120.46 244.465 120.255C244.418 120.05 244.33 119.874 244.2 119.725C244.079 119.567 243.916 119.446 243.711 119.362C243.516 119.269 243.274 119.222 242.986 119.222C242.725 119.222 242.497 119.274 242.302 119.376C242.107 119.469 241.944 119.599 241.814 119.767C241.683 119.934 241.586 120.129 241.521 120.353C241.455 120.576 241.423 120.813 241.423 121.064V124.943ZM249.621 118.232H251.072V119.418H249.621V122.906C249.621 123.213 249.691 123.446 249.83 123.604C249.97 123.753 250.212 123.827 250.556 123.827C250.639 123.827 250.732 123.822 250.835 123.813C250.937 123.804 251.016 123.79 251.072 123.771V124.888C251.016 124.906 250.909 124.929 250.751 124.957C250.593 124.995 250.402 125.013 250.179 125.013C249.602 125.013 249.146 124.85 248.812 124.525C248.477 124.19 248.309 123.715 248.309 123.101V119.418H247.025V118.232H247.388C247.751 118.232 248.012 118.134 248.17 117.939C248.337 117.743 248.421 117.497 248.421 117.199V116.111H249.621V118.232ZM252.739 124.943V118.232H254.037V124.943H252.739ZM252.446 115.692C252.446 115.422 252.534 115.199 252.711 115.022C252.897 114.836 253.12 114.743 253.381 114.743C253.651 114.743 253.874 114.836 254.051 115.022C254.237 115.199 254.33 115.422 254.33 115.692C254.33 115.953 254.237 116.176 254.051 116.362C253.874 116.539 253.651 116.627 253.381 116.627C253.12 116.627 252.897 116.539 252.711 116.362C252.534 116.176 252.446 115.953 252.446 115.692ZM259.003 119.236C258.733 119.236 258.478 119.288 258.236 119.39C257.994 119.483 257.775 119.627 257.58 119.822C257.394 120.018 257.245 120.264 257.133 120.562C257.022 120.85 256.966 121.19 256.966 121.581C256.966 121.962 257.022 122.301 257.133 122.599C257.245 122.888 257.394 123.134 257.58 123.339C257.766 123.534 257.985 123.683 258.236 123.785C258.487 123.888 258.747 123.939 259.017 123.939C259.333 123.939 259.599 123.892 259.812 123.799C260.036 123.706 260.217 123.59 260.357 123.45C260.505 123.311 260.622 123.162 260.705 123.004C260.789 122.836 260.85 122.688 260.887 122.557L262.045 123.06C261.961 123.301 261.84 123.548 261.682 123.799C261.524 124.041 261.319 124.264 261.068 124.469C260.817 124.674 260.519 124.836 260.175 124.957C259.84 125.088 259.454 125.153 259.017 125.153C258.524 125.153 258.068 125.064 257.65 124.888C257.24 124.701 256.887 124.45 256.589 124.134C256.292 123.808 256.054 123.432 255.878 123.004C255.71 122.567 255.626 122.092 255.626 121.581C255.626 121.06 255.71 120.581 255.878 120.143C256.054 119.706 256.292 119.334 256.589 119.027C256.896 118.711 257.254 118.464 257.664 118.288C258.082 118.111 258.529 118.022 259.003 118.022C259.45 118.022 259.84 118.088 260.175 118.218C260.519 118.339 260.812 118.501 261.054 118.706C261.305 118.911 261.505 119.143 261.654 119.404C261.803 119.655 261.915 119.906 261.989 120.157L260.803 120.66C260.757 120.492 260.692 120.325 260.608 120.157C260.524 119.99 260.408 119.841 260.259 119.711C260.119 119.571 259.947 119.46 259.743 119.376C259.538 119.283 259.292 119.236 259.003 119.236ZM263.013 123.143C263.013 122.846 263.064 122.581 263.167 122.348C263.269 122.106 263.409 121.901 263.585 121.734C263.771 121.567 263.99 121.432 264.241 121.329C264.492 121.227 264.762 121.153 265.05 121.106L266.864 120.841C267.069 120.813 267.204 120.753 267.269 120.66C267.343 120.567 267.381 120.46 267.381 120.339C267.381 120.013 267.264 119.734 267.032 119.501C266.809 119.26 266.441 119.139 265.93 119.139C265.464 119.139 265.106 119.269 264.855 119.529C264.604 119.781 264.455 120.101 264.409 120.492L263.153 120.199C263.19 119.883 263.283 119.59 263.432 119.32C263.59 119.05 263.79 118.822 264.032 118.636C264.274 118.441 264.553 118.292 264.869 118.19C265.195 118.078 265.539 118.022 265.902 118.022C266.404 118.022 266.832 118.092 267.185 118.232C267.539 118.362 267.827 118.539 268.05 118.762C268.274 118.985 268.437 119.246 268.539 119.543C268.641 119.841 268.692 120.153 268.692 120.478V123.841C268.692 124.139 268.702 124.376 268.72 124.553C268.739 124.729 268.757 124.86 268.776 124.943H267.492C267.474 124.86 267.455 124.748 267.437 124.608C267.427 124.469 267.423 124.278 267.423 124.036C267.348 124.157 267.25 124.283 267.13 124.413C267.009 124.543 266.86 124.664 266.683 124.776C266.506 124.888 266.297 124.976 266.055 125.041C265.823 125.115 265.557 125.153 265.26 125.153C264.916 125.153 264.604 125.097 264.325 124.985C264.055 124.874 263.823 124.729 263.627 124.553C263.432 124.367 263.278 124.153 263.167 123.911C263.064 123.669 263.013 123.413 263.013 123.143ZM265.441 124.05C265.711 124.05 265.962 124.018 266.195 123.953C266.437 123.878 266.641 123.767 266.809 123.618C266.985 123.46 267.125 123.255 267.227 123.004C267.33 122.743 267.381 122.432 267.381 122.069V121.762L265.33 122.069C265.05 122.115 264.818 122.222 264.632 122.39C264.446 122.548 264.353 122.776 264.353 123.074C264.353 123.325 264.45 123.553 264.646 123.757C264.841 123.953 265.106 124.05 265.441 124.05ZM272.41 118.232H273.861V119.418H272.41V122.906C272.41 123.213 272.48 123.446 272.619 123.604C272.759 123.753 273.001 123.827 273.345 123.827C273.429 123.827 273.522 123.822 273.624 123.813C273.726 123.804 273.805 123.79 273.861 123.771V124.888C273.805 124.906 273.698 124.929 273.54 124.957C273.382 124.995 273.191 125.013 272.968 125.013C272.391 125.013 271.936 124.85 271.601 124.525C271.266 124.19 271.098 123.715 271.098 123.101V119.418H269.815V118.232H270.178C270.54 118.232 270.801 118.134 270.959 117.939C271.126 117.743 271.21 117.497 271.21 117.199V116.111H272.41V118.232ZM278.335 123.981C278.614 123.981 278.879 123.929 279.13 123.827C279.381 123.725 279.604 123.571 279.8 123.367C279.995 123.162 280.148 122.911 280.26 122.613C280.372 122.315 280.428 121.971 280.428 121.581C280.428 121.19 280.372 120.85 280.26 120.562C280.148 120.264 279.995 120.013 279.8 119.808C279.604 119.604 279.381 119.45 279.13 119.348C278.879 119.246 278.614 119.195 278.335 119.195C278.055 119.195 277.79 119.246 277.539 119.348C277.288 119.45 277.065 119.604 276.869 119.808C276.674 120.013 276.521 120.264 276.409 120.562C276.297 120.85 276.241 121.19 276.241 121.581C276.241 121.971 276.297 122.315 276.409 122.613C276.521 122.911 276.674 123.162 276.869 123.367C277.065 123.571 277.288 123.725 277.539 123.827C277.79 123.929 278.055 123.981 278.335 123.981ZM278.335 118.022C278.837 118.022 279.297 118.115 279.716 118.301C280.135 118.478 280.497 118.725 280.804 119.041C281.111 119.357 281.348 119.734 281.516 120.171C281.683 120.599 281.767 121.069 281.767 121.581C281.767 122.092 281.683 122.567 281.516 123.004C281.348 123.441 281.111 123.818 280.804 124.134C280.497 124.45 280.135 124.701 279.716 124.888C279.297 125.064 278.837 125.153 278.335 125.153C277.832 125.153 277.372 125.064 276.953 124.888C276.535 124.701 276.172 124.45 275.865 124.134C275.558 123.818 275.321 123.441 275.153 123.004C274.986 122.567 274.902 122.092 274.902 121.581C274.902 121.069 274.986 120.599 275.153 120.171C275.321 119.734 275.558 119.357 275.865 119.041C276.172 118.725 276.535 118.478 276.953 118.301C277.372 118.115 277.832 118.022 278.335 118.022ZM287.087 119.557C286.892 119.529 286.701 119.515 286.515 119.515C285.966 119.515 285.52 119.678 285.175 120.004C284.841 120.32 284.673 120.846 284.673 121.581V124.943H283.361V118.232H284.645V119.404C284.766 119.143 284.906 118.934 285.064 118.776C285.231 118.608 285.403 118.478 285.58 118.385C285.757 118.283 285.938 118.213 286.124 118.176C286.31 118.139 286.487 118.12 286.654 118.12C286.748 118.12 286.831 118.125 286.906 118.134C286.989 118.143 287.05 118.153 287.087 118.162V119.557ZM291.387 123.143C291.387 122.846 291.439 122.581 291.541 122.348C291.643 122.106 291.783 121.901 291.959 121.734C292.145 121.567 292.364 121.432 292.615 121.329C292.866 121.227 293.136 121.153 293.425 121.106L295.239 120.841C295.443 120.813 295.578 120.753 295.643 120.66C295.718 120.567 295.755 120.46 295.755 120.339C295.755 120.013 295.639 119.734 295.406 119.501C295.183 119.26 294.815 119.139 294.304 119.139C293.839 119.139 293.48 119.269 293.229 119.529C292.978 119.781 292.829 120.101 292.783 120.492L291.527 120.199C291.564 119.883 291.657 119.59 291.806 119.32C291.964 119.05 292.164 118.822 292.406 118.636C292.648 118.441 292.927 118.292 293.243 118.19C293.569 118.078 293.913 118.022 294.276 118.022C294.778 118.022 295.206 118.092 295.559 118.232C295.913 118.362 296.201 118.539 296.425 118.762C296.648 118.985 296.811 119.246 296.913 119.543C297.015 119.841 297.066 120.153 297.066 120.478V123.841C297.066 124.139 297.076 124.376 297.094 124.553C297.113 124.729 297.132 124.86 297.15 124.943H295.866C295.848 124.86 295.829 124.748 295.811 124.608C295.801 124.469 295.797 124.278 295.797 124.036C295.722 124.157 295.625 124.283 295.504 124.413C295.383 124.543 295.234 124.664 295.057 124.776C294.88 124.888 294.671 124.976 294.429 125.041C294.197 125.115 293.932 125.153 293.634 125.153C293.29 125.153 292.978 125.097 292.699 124.985C292.429 124.874 292.197 124.729 292.001 124.553C291.806 124.367 291.652 124.153 291.541 123.911C291.439 123.669 291.387 123.413 291.387 123.143ZM293.815 124.05C294.085 124.05 294.336 124.018 294.569 123.953C294.811 123.878 295.015 123.767 295.183 123.618C295.359 123.46 295.499 123.255 295.601 123.004C295.704 122.743 295.755 122.432 295.755 122.069V121.762L293.704 122.069C293.425 122.115 293.192 122.222 293.006 122.39C292.82 122.548 292.727 122.776 292.727 123.074C292.727 123.325 292.825 123.553 293.02 123.757C293.215 123.953 293.48 124.05 293.815 124.05ZM299.026 127.595V118.232H300.296V119.278C300.482 118.943 300.766 118.66 301.147 118.427C301.528 118.195 301.993 118.078 302.542 118.078C303.045 118.078 303.486 118.171 303.868 118.357C304.259 118.534 304.579 118.781 304.831 119.097C305.091 119.413 305.286 119.785 305.417 120.213C305.556 120.641 305.626 121.097 305.626 121.581C305.626 122.083 305.556 122.548 305.417 122.976C305.277 123.404 305.073 123.781 304.803 124.106C304.533 124.422 304.203 124.674 303.812 124.86C303.431 125.036 302.993 125.125 302.5 125.125C301.979 125.125 301.533 125.018 301.161 124.804C300.789 124.59 300.51 124.334 300.324 124.036V127.595H299.026ZM304.286 121.581C304.286 121.246 304.24 120.939 304.147 120.66C304.054 120.371 303.924 120.125 303.756 119.92C303.589 119.706 303.379 119.539 303.128 119.418C302.886 119.297 302.612 119.236 302.305 119.236C302.007 119.236 301.733 119.297 301.482 119.418C301.24 119.539 301.031 119.706 300.854 119.92C300.677 120.125 300.542 120.371 300.449 120.66C300.356 120.939 300.31 121.246 300.31 121.581C300.31 121.925 300.356 122.246 300.449 122.543C300.542 122.832 300.677 123.083 300.854 123.297C301.031 123.501 301.24 123.664 301.482 123.785C301.733 123.897 302.007 123.953 302.305 123.953C302.612 123.953 302.886 123.897 303.128 123.785C303.37 123.664 303.575 123.501 303.742 123.297C303.919 123.083 304.054 122.832 304.147 122.543C304.24 122.246 304.286 121.925 304.286 121.581ZM307.214 127.595V118.232H308.483V119.278C308.669 118.943 308.953 118.66 309.334 118.427C309.716 118.195 310.181 118.078 310.73 118.078C311.232 118.078 311.674 118.171 312.055 118.357C312.446 118.534 312.767 118.781 313.018 119.097C313.279 119.413 313.474 119.785 313.604 120.213C313.744 120.641 313.814 121.097 313.814 121.581C313.814 122.083 313.744 122.548 313.604 122.976C313.465 123.404 313.26 123.781 312.99 124.106C312.721 124.422 312.39 124.674 312 124.86C311.618 125.036 311.181 125.125 310.688 125.125C310.167 125.125 309.721 125.018 309.348 124.804C308.976 124.59 308.697 124.334 308.511 124.036V127.595H307.214ZM312.474 121.581C312.474 121.246 312.428 120.939 312.334 120.66C312.241 120.371 312.111 120.125 311.944 119.92C311.776 119.706 311.567 119.539 311.316 119.418C311.074 119.297 310.8 119.236 310.493 119.236C310.195 119.236 309.921 119.297 309.669 119.418C309.428 119.539 309.218 119.706 309.041 119.92C308.865 120.125 308.73 120.371 308.637 120.66C308.544 120.939 308.497 121.246 308.497 121.581C308.497 121.925 308.544 122.246 308.637 122.543C308.73 122.832 308.865 123.083 309.041 123.297C309.218 123.501 309.428 123.664 309.669 123.785C309.921 123.897 310.195 123.953 310.493 123.953C310.8 123.953 311.074 123.897 311.316 123.785C311.558 123.664 311.762 123.501 311.93 123.297C312.107 123.083 312.241 122.832 312.334 122.543C312.428 122.246 312.474 121.925 312.474 121.581ZM320.564 118.232H322.015V119.418H320.564V122.906C320.564 123.213 320.634 123.446 320.773 123.604C320.913 123.753 321.155 123.827 321.499 123.827C321.582 123.827 321.676 123.822 321.778 123.813C321.88 123.804 321.959 123.79 322.015 123.771V124.888C321.959 124.906 321.852 124.929 321.694 124.957C321.536 124.995 321.345 125.013 321.122 125.013C320.545 125.013 320.089 124.85 319.755 124.525C319.42 124.19 319.252 123.715 319.252 123.101V119.418H317.969V118.232H318.331C318.694 118.232 318.955 118.134 319.113 117.939C319.28 117.743 319.364 117.497 319.364 117.199V116.111H320.564V118.232ZM326.488 123.981C326.767 123.981 327.033 123.929 327.284 123.827C327.535 123.725 327.758 123.571 327.953 123.367C328.149 123.162 328.302 122.911 328.414 122.613C328.526 122.315 328.581 121.971 328.581 121.581C328.581 121.19 328.526 120.85 328.414 120.562C328.302 120.264 328.149 120.013 327.953 119.808C327.758 119.604 327.535 119.45 327.284 119.348C327.033 119.246 326.767 119.195 326.488 119.195C326.209 119.195 325.944 119.246 325.693 119.348C325.442 119.45 325.219 119.604 325.023 119.808C324.828 120.013 324.674 120.264 324.563 120.562C324.451 120.85 324.395 121.19 324.395 121.581C324.395 121.971 324.451 122.315 324.563 122.613C324.674 122.911 324.828 123.162 325.023 123.367C325.219 123.571 325.442 123.725 325.693 123.827C325.944 123.929 326.209 123.981 326.488 123.981ZM326.488 118.022C326.991 118.022 327.451 118.115 327.87 118.301C328.288 118.478 328.651 118.725 328.958 119.041C329.265 119.357 329.502 119.734 329.67 120.171C329.837 120.599 329.921 121.069 329.921 121.581C329.921 122.092 329.837 122.567 329.67 123.004C329.502 123.441 329.265 123.818 328.958 124.134C328.651 124.45 328.288 124.701 327.87 124.888C327.451 125.064 326.991 125.153 326.488 125.153C325.986 125.153 325.526 125.064 325.107 124.888C324.688 124.701 324.326 124.45 324.019 124.134C323.712 123.818 323.474 123.441 323.307 123.004C323.139 122.567 323.056 122.092 323.056 121.581C323.056 121.069 323.139 120.599 323.307 120.171C323.474 119.734 323.712 119.357 324.019 119.041C324.326 118.725 324.688 118.478 325.107 118.301C325.526 118.115 325.986 118.022 326.488 118.022ZM134.453 147.943H133.127L130.406 141.232H131.885L133.797 146.408L135.723 141.232H137.132L134.453 147.943ZM138.303 147.943V141.232H139.601V147.943H138.303ZM138.01 138.692C138.01 138.422 138.099 138.199 138.275 138.022C138.461 137.836 138.685 137.743 138.945 137.743C139.215 137.743 139.438 137.836 139.615 138.022C139.801 138.199 139.894 138.422 139.894 138.692C139.894 138.953 139.801 139.176 139.615 139.362C139.438 139.539 139.215 139.627 138.945 139.627C138.685 139.627 138.461 139.539 138.275 139.362C138.099 139.176 138.01 138.953 138.01 138.692ZM146.27 143.897C146.251 143.413 146.088 143.008 145.781 142.683C145.474 142.348 145.023 142.181 144.428 142.181C144.149 142.181 143.898 142.232 143.674 142.334C143.46 142.427 143.274 142.557 143.116 142.725C142.967 142.883 142.847 143.064 142.754 143.269C142.66 143.474 142.609 143.683 142.6 143.897H146.27ZM147.595 146.032C147.502 146.329 147.363 146.608 147.177 146.869C147 147.12 146.781 147.343 146.521 147.539C146.27 147.725 145.981 147.874 145.656 147.985C145.33 148.097 144.972 148.153 144.581 148.153C144.135 148.153 143.707 148.074 143.298 147.915C142.888 147.757 142.526 147.525 142.209 147.218C141.902 146.911 141.656 146.534 141.47 146.088C141.293 145.641 141.205 145.134 141.205 144.567C141.205 144.036 141.293 143.557 141.47 143.129C141.647 142.692 141.879 142.32 142.167 142.013C142.465 141.697 142.809 141.455 143.2 141.288C143.591 141.111 143.995 141.022 144.414 141.022C144.926 141.022 145.381 141.111 145.781 141.288C146.191 141.455 146.53 141.692 146.8 141.999C147.07 142.306 147.274 142.678 147.414 143.115C147.563 143.543 147.637 144.018 147.637 144.539C147.637 144.622 147.633 144.701 147.623 144.776C147.623 144.85 147.619 144.911 147.609 144.957H142.558C142.567 145.255 142.623 145.529 142.726 145.781C142.828 146.032 142.967 146.25 143.144 146.436C143.33 146.613 143.544 146.753 143.786 146.855C144.037 146.948 144.302 146.995 144.581 146.995C145.13 146.995 145.549 146.864 145.837 146.604C146.126 146.343 146.335 146.022 146.465 145.641L147.595 146.032ZM154.295 141.232L156.039 146.283L157.518 141.232H158.899L156.722 147.943H155.369L153.583 142.836L151.839 147.943H150.457L148.253 141.232H149.69L151.197 146.283L152.941 141.232H154.295ZM166.615 147.943H165.289L162.569 141.232H164.048L165.959 146.408L167.885 141.232H169.294L166.615 147.943ZM174.782 143.897C174.764 143.413 174.601 143.008 174.294 142.683C173.987 142.348 173.536 142.181 172.94 142.181C172.661 142.181 172.41 142.232 172.187 142.334C171.973 142.427 171.787 142.557 171.629 142.725C171.48 142.883 171.359 143.064 171.266 143.269C171.173 143.474 171.122 143.683 171.112 143.897H174.782ZM176.108 146.032C176.015 146.329 175.875 146.608 175.689 146.869C175.512 147.12 175.294 147.343 175.033 147.539C174.782 147.725 174.494 147.874 174.168 147.985C173.843 148.097 173.484 148.153 173.094 148.153C172.647 148.153 172.219 148.074 171.81 147.915C171.401 147.757 171.038 147.525 170.722 147.218C170.415 146.911 170.168 146.534 169.982 146.088C169.805 145.641 169.717 145.134 169.717 144.567C169.717 144.036 169.805 143.557 169.982 143.129C170.159 142.692 170.391 142.32 170.68 142.013C170.977 141.697 171.322 141.455 171.712 141.288C172.103 141.111 172.508 141.022 172.926 141.022C173.438 141.022 173.894 141.111 174.294 141.288C174.703 141.455 175.043 141.692 175.312 141.999C175.582 142.306 175.787 142.678 175.926 143.115C176.075 143.543 176.15 144.018 176.15 144.539C176.15 144.622 176.145 144.701 176.136 144.776C176.136 144.85 176.131 144.911 176.122 144.957H171.07C171.08 145.255 171.136 145.529 171.238 145.781C171.34 146.032 171.48 146.25 171.657 146.436C171.843 146.613 172.057 146.753 172.298 146.855C172.55 146.948 172.815 146.995 173.094 146.995C173.643 146.995 174.061 146.864 174.35 146.604C174.638 146.343 174.847 146.022 174.977 145.641L176.108 146.032ZM181.466 142.557C181.27 142.529 181.08 142.515 180.894 142.515C180.345 142.515 179.898 142.678 179.554 143.004C179.219 143.32 179.052 143.846 179.052 144.581V147.943H177.74V141.232H179.024V142.404C179.145 142.143 179.284 141.934 179.442 141.776C179.61 141.608 179.782 141.478 179.959 141.385C180.135 141.283 180.317 141.213 180.503 141.176C180.689 141.139 180.866 141.12 181.033 141.12C181.126 141.12 181.21 141.125 181.284 141.134C181.368 141.143 181.429 141.153 181.466 141.162V142.557ZM182.78 147.943V141.232H184.078V147.943H182.78ZM182.487 138.692C182.487 138.422 182.575 138.199 182.752 138.022C182.938 137.836 183.161 137.743 183.422 137.743C183.692 137.743 183.915 137.836 184.092 138.022C184.278 138.199 184.371 138.422 184.371 138.692C184.371 138.953 184.278 139.176 184.092 139.362C183.915 139.539 183.692 139.627 183.422 139.627C183.161 139.627 182.938 139.539 182.752 139.362C182.575 139.176 182.487 138.953 182.487 138.692ZM188.835 137.799C189.058 137.799 189.235 137.818 189.365 137.855C189.505 137.892 189.588 137.92 189.616 137.939V139.111C189.579 139.092 189.514 139.074 189.421 139.055C189.337 139.036 189.212 139.027 189.044 139.027C188.932 139.027 188.812 139.046 188.681 139.083C188.56 139.111 188.444 139.167 188.332 139.25C188.23 139.334 188.146 139.45 188.081 139.599C188.016 139.739 187.984 139.925 187.984 140.157V141.232H192.421V147.943H191.123V142.418H187.984V147.943H186.63V142.418H185.388V141.232H186.63V140.101C186.63 139.729 186.686 139.399 186.798 139.111C186.919 138.822 187.077 138.581 187.272 138.385C187.477 138.19 187.709 138.046 187.97 137.953C188.239 137.85 188.528 137.799 188.835 137.799ZM190.83 138.664C190.83 138.395 190.919 138.171 191.095 137.995C191.281 137.808 191.505 137.715 191.765 137.715C192.035 137.715 192.258 137.808 192.435 137.995C192.621 138.171 192.714 138.395 192.714 138.664C192.714 138.925 192.621 139.148 192.435 139.334C192.258 139.511 192.035 139.599 191.765 139.599C191.505 139.599 191.281 139.511 191.095 139.334C190.919 139.148 190.83 138.925 190.83 138.664ZM197.382 142.236C197.112 142.236 196.856 142.288 196.614 142.39C196.372 142.483 196.154 142.627 195.958 142.822C195.772 143.018 195.623 143.264 195.512 143.562C195.4 143.85 195.344 144.19 195.344 144.581C195.344 144.962 195.4 145.301 195.512 145.599C195.623 145.888 195.772 146.134 195.958 146.339C196.144 146.534 196.363 146.683 196.614 146.785C196.865 146.888 197.126 146.939 197.395 146.939C197.712 146.939 197.977 146.892 198.191 146.799C198.414 146.706 198.595 146.59 198.735 146.45C198.884 146.311 199 146.162 199.084 146.004C199.168 145.836 199.228 145.688 199.265 145.557L200.423 146.06C200.34 146.301 200.219 146.548 200.061 146.799C199.902 147.041 199.698 147.264 199.447 147.469C199.195 147.674 198.898 147.836 198.554 147.957C198.219 148.088 197.833 148.153 197.395 148.153C196.902 148.153 196.447 148.064 196.028 147.888C195.619 147.701 195.265 147.45 194.968 147.134C194.67 146.808 194.433 146.432 194.256 146.004C194.089 145.567 194.005 145.092 194.005 144.581C194.005 144.06 194.089 143.581 194.256 143.143C194.433 142.706 194.67 142.334 194.968 142.027C195.275 141.711 195.633 141.464 196.042 141.288C196.461 141.111 196.907 141.022 197.382 141.022C197.828 141.022 198.219 141.088 198.554 141.218C198.898 141.339 199.191 141.501 199.433 141.706C199.684 141.911 199.884 142.143 200.033 142.404C200.182 142.655 200.293 142.906 200.368 143.157L199.182 143.66C199.135 143.492 199.07 143.325 198.986 143.157C198.902 142.99 198.786 142.841 198.637 142.711C198.498 142.571 198.326 142.46 198.121 142.376C197.916 142.283 197.67 142.236 197.382 142.236ZM201.392 146.143C201.392 145.846 201.443 145.581 201.545 145.348C201.647 145.106 201.787 144.901 201.964 144.734C202.15 144.567 202.368 144.432 202.62 144.329C202.871 144.227 203.14 144.153 203.429 144.106L205.243 143.841C205.447 143.813 205.582 143.753 205.647 143.66C205.722 143.567 205.759 143.46 205.759 143.339C205.759 143.013 205.643 142.734 205.41 142.501C205.187 142.26 204.82 142.139 204.308 142.139C203.843 142.139 203.485 142.269 203.234 142.529C202.982 142.781 202.834 143.101 202.787 143.492L201.531 143.199C201.568 142.883 201.661 142.59 201.81 142.32C201.968 142.05 202.168 141.822 202.41 141.636C202.652 141.441 202.931 141.292 203.247 141.19C203.573 141.078 203.917 141.022 204.28 141.022C204.782 141.022 205.21 141.092 205.564 141.232C205.917 141.362 206.206 141.539 206.429 141.762C206.652 141.985 206.815 142.246 206.917 142.543C207.02 142.841 207.071 143.153 207.071 143.478V146.841C207.071 147.139 207.08 147.376 207.099 147.553C207.117 147.729 207.136 147.86 207.154 147.943H205.871C205.852 147.86 205.834 147.748 205.815 147.608C205.806 147.469 205.801 147.278 205.801 147.036C205.727 147.157 205.629 147.283 205.508 147.413C205.387 147.543 205.238 147.664 205.061 147.776C204.885 147.888 204.675 147.976 204.434 148.041C204.201 148.115 203.936 148.153 203.638 148.153C203.294 148.153 202.982 148.097 202.703 147.985C202.434 147.874 202.201 147.729 202.006 147.553C201.81 147.367 201.657 147.153 201.545 146.911C201.443 146.669 201.392 146.413 201.392 146.143ZM203.82 147.05C204.089 147.05 204.34 147.018 204.573 146.953C204.815 146.878 205.02 146.767 205.187 146.618C205.364 146.46 205.503 146.255 205.606 146.004C205.708 145.743 205.759 145.432 205.759 145.069V144.762L203.708 145.069C203.429 145.115 203.196 145.222 203.01 145.39C202.824 145.548 202.731 145.776 202.731 146.074C202.731 146.325 202.829 146.553 203.024 146.757C203.22 146.953 203.485 147.05 203.82 147.05ZM210.788 141.232H212.24V142.418H210.788V145.906C210.788 146.213 210.858 146.446 210.998 146.604C211.137 146.753 211.379 146.827 211.723 146.827C211.807 146.827 211.9 146.822 212.002 146.813C212.105 146.804 212.184 146.79 212.24 146.771V147.888C212.184 147.906 212.077 147.929 211.919 147.957C211.761 147.995 211.57 148.013 211.347 148.013C210.77 148.013 210.314 147.85 209.979 147.525C209.644 147.19 209.477 146.715 209.477 146.101V142.418H208.193V141.232H208.556C208.919 141.232 209.179 141.134 209.337 140.939C209.505 140.743 209.588 140.497 209.588 140.199V139.111H210.788V141.232ZM213.907 147.943V141.232H215.204V147.943H213.907ZM213.614 138.692C213.614 138.422 213.702 138.199 213.879 138.022C214.065 137.836 214.288 137.743 214.548 137.743C214.818 137.743 215.042 137.836 215.218 138.022C215.404 138.199 215.497 138.422 215.497 138.692C215.497 138.953 215.404 139.176 215.218 139.362C215.042 139.539 214.818 139.627 214.548 139.627C214.288 139.627 214.065 139.539 213.879 139.362C213.702 139.176 213.614 138.953 213.614 138.692ZM220.227 146.981C220.506 146.981 220.771 146.929 221.022 146.827C221.273 146.725 221.496 146.571 221.692 146.367C221.887 146.162 222.041 145.911 222.152 145.613C222.264 145.315 222.32 144.971 222.32 144.581C222.32 144.19 222.264 143.85 222.152 143.562C222.041 143.264 221.887 143.013 221.692 142.808C221.496 142.604 221.273 142.45 221.022 142.348C220.771 142.246 220.506 142.195 220.227 142.195C219.947 142.195 219.682 142.246 219.431 142.348C219.18 142.45 218.957 142.604 218.761 142.808C218.566 143.013 218.413 143.264 218.301 143.562C218.189 143.85 218.134 144.19 218.134 144.581C218.134 144.971 218.189 145.315 218.301 145.613C218.413 145.911 218.566 146.162 218.761 146.367C218.957 146.571 219.18 146.725 219.431 146.827C219.682 146.929 219.947 146.981 220.227 146.981ZM220.227 141.022C220.729 141.022 221.189 141.115 221.608 141.301C222.027 141.478 222.389 141.725 222.696 142.041C223.003 142.357 223.241 142.734 223.408 143.171C223.575 143.599 223.659 144.069 223.659 144.581C223.659 145.092 223.575 145.567 223.408 146.004C223.241 146.441 223.003 146.818 222.696 147.134C222.389 147.45 222.027 147.701 221.608 147.888C221.189 148.064 220.729 148.153 220.227 148.153C219.724 148.153 219.264 148.064 218.845 147.888C218.427 147.701 218.064 147.45 217.757 147.134C217.45 146.818 217.213 146.441 217.045 146.004C216.878 145.567 216.794 145.092 216.794 144.581C216.794 144.069 216.878 143.599 217.045 143.171C217.213 142.734 217.45 142.357 217.757 142.041C218.064 141.725 218.427 141.478 218.845 141.301C219.264 141.115 219.724 141.022 220.227 141.022ZM226.565 147.943H225.254V141.232H226.537V142.195C226.779 141.776 227.086 141.478 227.458 141.301C227.83 141.125 228.212 141.036 228.602 141.036C229.002 141.036 229.351 141.106 229.649 141.246C229.956 141.376 230.207 141.562 230.402 141.804C230.607 142.036 230.756 142.315 230.849 142.641C230.951 142.967 231.002 143.315 231.002 143.688V147.943H229.691V143.911C229.691 143.678 229.663 143.46 229.607 143.255C229.56 143.05 229.472 142.874 229.342 142.725C229.221 142.567 229.058 142.446 228.854 142.362C228.658 142.269 228.416 142.222 228.128 142.222C227.867 142.222 227.64 142.274 227.444 142.376C227.249 142.469 227.086 142.599 226.956 142.767C226.826 142.934 226.728 143.129 226.663 143.353C226.598 143.576 226.565 143.813 226.565 144.064V147.943ZM239.228 142.236C238.959 142.236 238.703 142.288 238.461 142.39C238.219 142.483 238 142.627 237.805 142.822C237.619 143.018 237.47 143.264 237.359 143.562C237.247 143.85 237.191 144.19 237.191 144.581C237.191 144.962 237.247 145.301 237.359 145.599C237.47 145.888 237.619 146.134 237.805 146.339C237.991 146.534 238.21 146.683 238.461 146.785C238.712 146.888 238.972 146.939 239.242 146.939C239.559 146.939 239.824 146.892 240.038 146.799C240.261 146.706 240.442 146.59 240.582 146.45C240.731 146.311 240.847 146.162 240.931 146.004C241.014 145.836 241.075 145.688 241.112 145.557L242.27 146.06C242.186 146.301 242.065 146.548 241.907 146.799C241.749 147.041 241.545 147.264 241.293 147.469C241.042 147.674 240.745 147.836 240.4 147.957C240.065 148.088 239.679 148.153 239.242 148.153C238.749 148.153 238.293 148.064 237.875 147.888C237.465 147.701 237.112 147.45 236.814 147.134C236.517 146.808 236.279 146.432 236.103 146.004C235.935 145.567 235.852 145.092 235.852 144.581C235.852 144.06 235.935 143.581 236.103 143.143C236.279 142.706 236.517 142.334 236.814 142.027C237.121 141.711 237.479 141.464 237.889 141.288C238.307 141.111 238.754 141.022 239.228 141.022C239.675 141.022 240.065 141.088 240.4 141.218C240.745 141.339 241.038 141.501 241.279 141.706C241.531 141.911 241.731 142.143 241.879 142.404C242.028 142.655 242.14 142.906 242.214 143.157L241.028 143.66C240.982 143.492 240.917 143.325 240.833 143.157C240.749 142.99 240.633 142.841 240.484 142.711C240.345 142.571 240.172 142.46 239.968 142.376C239.763 142.283 239.517 142.236 239.228 142.236ZM246.531 146.981C246.81 146.981 247.076 146.929 247.327 146.827C247.578 146.725 247.801 146.571 247.997 146.367C248.192 146.162 248.345 145.911 248.457 145.613C248.569 145.315 248.624 144.971 248.624 144.581C248.624 144.19 248.569 143.85 248.457 143.562C248.345 143.264 248.192 143.013 247.997 142.808C247.801 142.604 247.578 142.45 247.327 142.348C247.076 142.246 246.81 142.195 246.531 142.195C246.252 142.195 245.987 142.246 245.736 142.348C245.485 142.45 245.262 142.604 245.066 142.808C244.871 143.013 244.717 143.264 244.606 143.562C244.494 143.85 244.438 144.19 244.438 144.581C244.438 144.971 244.494 145.315 244.606 145.613C244.717 145.911 244.871 146.162 245.066 146.367C245.262 146.571 245.485 146.725 245.736 146.827C245.987 146.929 246.252 146.981 246.531 146.981ZM246.531 141.022C247.034 141.022 247.494 141.115 247.913 141.301C248.331 141.478 248.694 141.725 249.001 142.041C249.308 142.357 249.545 142.734 249.713 143.171C249.88 143.599 249.964 144.069 249.964 144.581C249.964 145.092 249.88 145.567 249.713 146.004C249.545 146.441 249.308 146.818 249.001 147.134C248.694 147.45 248.331 147.701 247.913 147.888C247.494 148.064 247.034 148.153 246.531 148.153C246.029 148.153 245.569 148.064 245.15 147.888C244.731 147.701 244.369 147.45 244.062 147.134C243.755 146.818 243.517 146.441 243.35 146.004C243.183 145.567 243.099 145.092 243.099 144.581C243.099 144.069 243.183 143.599 243.35 143.171C243.517 142.734 243.755 142.357 244.062 142.041C244.369 141.725 244.731 141.478 245.15 141.301C245.569 141.115 246.029 141.022 246.531 141.022ZM252.34 144.567C252.34 144.911 252.382 145.232 252.465 145.529C252.558 145.818 252.689 146.069 252.856 146.283C253.023 146.497 253.228 146.664 253.47 146.785C253.712 146.906 253.991 146.967 254.307 146.967C254.605 146.967 254.875 146.906 255.116 146.785C255.358 146.655 255.563 146.483 255.73 146.269C255.898 146.055 256.023 145.799 256.107 145.501C256.2 145.204 256.247 144.883 256.247 144.539C256.247 143.841 256.075 143.278 255.73 142.85C255.396 142.422 254.926 142.208 254.321 142.208C254.023 142.208 253.749 142.269 253.498 142.39C253.256 142.501 253.047 142.664 252.87 142.878C252.703 143.083 252.572 143.329 252.479 143.618C252.386 143.906 252.34 144.222 252.34 144.567ZM256.261 146.925C256.103 147.25 255.847 147.534 255.493 147.776C255.149 148.008 254.712 148.125 254.182 148.125C253.689 148.125 253.247 148.036 252.856 147.86C252.465 147.674 252.13 147.422 251.851 147.106C251.582 146.781 251.372 146.404 251.223 145.976C251.075 145.539 251 145.069 251 144.567C251 144.092 251.075 143.646 251.223 143.227C251.382 142.799 251.6 142.427 251.879 142.111C252.158 141.785 252.493 141.529 252.884 141.343C253.275 141.148 253.707 141.05 254.182 141.05C254.479 141.05 254.74 141.083 254.963 141.148C255.196 141.213 255.396 141.301 255.563 141.413C255.73 141.515 255.87 141.636 255.982 141.776C256.093 141.906 256.177 142.041 256.233 142.181V137.841H257.53V146.701C257.53 147.027 257.54 147.301 257.558 147.525C257.577 147.748 257.591 147.888 257.6 147.943H256.33C256.312 147.869 256.293 147.753 256.275 147.595C256.265 147.427 256.261 147.241 256.261 147.036V146.925ZM264.199 143.897C264.18 143.413 264.017 143.008 263.71 142.683C263.403 142.348 262.952 142.181 262.357 142.181C262.078 142.181 261.827 142.232 261.603 142.334C261.389 142.427 261.203 142.557 261.045 142.725C260.896 142.883 260.775 143.064 260.682 143.269C260.589 143.474 260.538 143.683 260.529 143.897H264.199ZM265.524 146.032C265.431 146.329 265.292 146.608 265.106 146.869C264.929 147.12 264.71 147.343 264.45 147.539C264.199 147.725 263.91 147.874 263.585 147.985C263.259 148.097 262.901 148.153 262.51 148.153C262.064 148.153 261.636 148.074 261.227 147.915C260.817 147.757 260.455 147.525 260.138 147.218C259.831 146.911 259.585 146.534 259.399 146.088C259.222 145.641 259.134 145.134 259.134 144.567C259.134 144.036 259.222 143.557 259.399 143.129C259.575 142.692 259.808 142.32 260.096 142.013C260.394 141.697 260.738 141.455 261.129 141.288C261.52 141.111 261.924 141.022 262.343 141.022C262.855 141.022 263.31 141.111 263.71 141.288C264.12 141.455 264.459 141.692 264.729 141.999C264.999 142.306 265.203 142.678 265.343 143.115C265.492 143.543 265.566 144.018 265.566 144.539C265.566 144.622 265.561 144.701 265.552 144.776C265.552 144.85 265.548 144.911 265.538 144.957H260.487C260.496 145.255 260.552 145.529 260.655 145.781C260.757 146.032 260.896 146.25 261.073 146.436C261.259 146.613 261.473 146.753 261.715 146.855C261.966 146.948 262.231 146.995 262.51 146.995C263.059 146.995 263.478 146.864 263.766 146.604C264.055 146.343 264.264 146.022 264.394 145.641L265.524 146.032ZM266.813 147.05C266.813 146.781 266.906 146.553 267.092 146.367C267.278 146.171 267.506 146.074 267.776 146.074C268.045 146.074 268.273 146.171 268.459 146.367C268.655 146.553 268.752 146.781 268.752 147.05C268.752 147.32 268.655 147.548 268.459 147.734C268.273 147.92 268.045 148.013 267.776 148.013C267.506 148.013 267.278 147.92 267.092 147.734C266.906 147.548 266.813 147.32 266.813 147.05Z" fill="#343C6A"/>
<rect x="37.7904" y="164.827" width="45.3488" height="45.3488" rx="4.06977" stroke="#C8CEED" stroke-width="1.16279"/>
<path fill-rule="evenodd" clip-rule="evenodd" d="M60.4645 178.199C61.1067 178.199 61.6273 178.72 61.6273 179.362V185.487L66.9316 182.425C67.4878 182.104 68.1989 182.294 68.52 182.85C68.8411 183.407 68.6506 184.118 68.0944 184.439L62.7896 187.502L68.0944 190.564C68.6506 190.885 68.8411 191.597 68.52 192.153C68.1989 192.709 67.4878 192.899 66.9316 192.578L61.6273 189.516V195.641C61.6273 196.283 61.1067 196.804 60.4645 196.804C59.8223 196.804 59.3017 196.283 59.3017 195.641V189.515L53.9963 192.578C53.4402 192.899 52.729 192.709 52.4079 192.153C52.0868 191.597 52.2774 190.885 52.8335 190.564L58.1384 187.502L52.8335 184.439C52.2774 184.118 52.0868 183.407 52.4079 182.85C52.729 182.294 53.4402 182.104 53.9963 182.425L59.3017 185.488V179.362C59.3017 178.72 59.8223 178.199 60.4645 178.199Z" fill="#C8CEED"/>
<rect x="93.6048" y="164.827" width="45.3488" height="45.3488" rx="4.06977" stroke="#C8CEED" stroke-width="1.16279"/>
<path fill-rule="evenodd" clip-rule="evenodd" d="M116.279 178.199C116.921 178.199 117.442 178.72 117.442 179.362V185.487L122.746 182.425C123.302 182.104 124.013 182.294 124.334 182.85C124.656 183.407 124.465 184.118 123.909 184.439L118.604 187.502L123.909 190.564C124.465 190.885 124.656 191.597 124.334 192.153C124.013 192.709 123.302 192.899 122.746 192.578L117.442 189.516V195.641C117.442 196.283 116.921 196.804 116.279 196.804C115.637 196.804 115.116 196.283 115.116 195.641V189.515L109.811 192.578C109.255 192.899 108.543 192.709 108.222 192.153C107.901 191.597 108.092 190.885 108.648 190.564L113.953 187.502L108.648 184.439C108.092 184.118 107.901 183.407 108.222 182.85C108.543 182.294 109.255 182.104 109.811 182.425L115.116 185.488V179.362C115.116 178.72 115.637 178.199 116.279 178.199Z" fill="#C8CEED"/>
<rect x="149.417" y="164.827" width="45.3488" height="45.3488" rx="4.06977" stroke="#C8CEED" stroke-width="1.16279"/>
<path fill-rule="evenodd" clip-rule="evenodd" d="M172.093 178.199C172.736 178.199 173.256 178.72 173.256 179.362V185.487L178.561 182.425C179.117 182.104 179.828 182.294 180.149 182.85C180.47 183.407 180.279 184.118 179.723 184.439L174.418 187.502L179.723 190.564C180.279 190.885 180.47 191.597 180.149 192.153C179.828 192.709 179.117 192.899 178.561 192.578L173.256 189.516V195.641C173.256 196.283 172.736 196.804 172.093 196.804C171.451 196.804 170.931 196.283 170.931 195.641V189.515L165.625 192.578C165.069 192.899 164.358 192.709 164.037 192.153C163.716 191.597 163.906 190.885 164.462 190.564L169.767 187.502L164.462 184.439C163.906 184.118 163.716 183.407 164.037 182.85C164.358 182.294 165.069 182.104 165.625 182.425L170.931 185.488V179.362C170.931 178.72 171.451 178.199 172.093 178.199Z" fill="#C8CEED"/>
<rect x="205.232" y="164.827" width="45.3488" height="45.3488" rx="4.06977" stroke="#C8CEED" stroke-width="1.16279"/>
<path fill-rule="evenodd" clip-rule="evenodd" d="M227.908 178.199C228.55 178.199 229.071 178.72 229.071 179.362V185.487L234.375 182.425C234.931 182.104 235.642 182.294 235.963 182.85C236.284 183.407 236.094 184.118 235.538 184.439L230.233 187.502L235.538 190.564C236.094 190.885 236.284 191.597 235.963 192.153C235.642 192.709 234.931 192.899 234.375 192.578L229.071 189.516V195.641C229.071 196.283 228.55 196.804 227.908 196.804C227.266 196.804 226.745 196.283 226.745 195.641V189.515L221.44 192.578C220.884 192.899 220.172 192.709 219.851 192.153C219.53 191.597 219.721 190.885 220.277 190.564L225.582 187.502L220.277 184.439C219.721 184.118 219.53 183.407 219.851 182.85C220.172 182.294 220.884 182.104 221.44 182.425L226.745 185.488V179.362C226.745 178.72 227.266 178.199 227.908 178.199Z" fill="#C8CEED"/>
<rect x="261.046" y="164.827" width="45.3488" height="45.3488" rx="4.06977" stroke="#C8CEED" stroke-width="1.16279"/>
<path fill-rule="evenodd" clip-rule="evenodd" d="M283.72 178.199C284.363 178.199 284.883 178.72 284.883 179.362V185.487L290.187 182.425C290.744 182.104 291.455 182.294 291.776 182.85C292.097 183.407 291.906 184.118 291.35 184.439L286.045 187.502L291.35 190.564C291.906 190.885 292.097 191.597 291.776 192.153C291.455 192.709 290.744 192.899 290.187 192.578L284.883 189.516V195.641C284.883 196.283 284.363 196.804 283.72 196.804C283.078 196.804 282.558 196.283 282.558 195.641V189.515L277.252 192.578C276.696 192.899 275.985 192.709 275.664 192.153C275.343 191.597 275.533 190.885 276.089 190.564L281.394 187.502L276.089 184.439C275.533 184.118 275.343 183.407 275.664 182.85C275.985 182.294 276.696 182.104 277.252 182.425L282.558 185.488V179.362C282.558 178.72 283.078 178.199 283.72 178.199Z" fill="#C8CEED"/>
<rect x="316.861" y="164.827" width="45.3488" height="45.3488" rx="4.06977" stroke="#C8CEED" stroke-width="1.16279"/>
<path fill-rule="evenodd" clip-rule="evenodd" d="M339.535 178.199C340.177 178.199 340.698 178.72 340.698 179.362V185.487L346.002 182.425C346.558 182.104 347.269 182.294 347.59 182.85C347.911 183.407 347.721 184.118 347.165 184.439L341.86 187.502L347.165 190.564C347.721 190.885 347.911 191.597 347.59 192.153C347.269 192.709 346.558 192.899 346.002 192.578L340.698 189.516V195.641C340.698 196.283 340.177 196.804 339.535 196.804C338.893 196.804 338.372 196.283 338.372 195.641V189.515L333.067 192.578C332.51 192.899 331.799 192.709 331.478 192.153C331.157 191.597 331.348 190.885 331.904 190.564L337.209 187.502L331.904 184.439C331.348 184.118 331.157 183.407 331.478 182.85C331.799 182.294 332.51 182.104 333.067 182.425L338.372 185.488V179.362C338.372 178.72 338.893 178.199 339.535 178.199Z" fill="#C8CEED"/>
<g opacity="0.4">
<rect x="37.209" y="224.711" width="325.581" height="37.2093" rx="4.65116" fill="#0075E3"/>
<path d="M188.719 237.923H190.491L186.751 247.816H185.049L181.365 237.923H183.179L185.942 245.626L188.719 237.923ZM195.225 243.672C195.215 243.477 195.173 243.291 195.099 243.114C195.034 242.928 194.932 242.765 194.792 242.626C194.653 242.486 194.48 242.375 194.276 242.291C194.071 242.207 193.829 242.165 193.55 242.165C193.299 242.165 193.071 242.212 192.867 242.305C192.671 242.388 192.504 242.505 192.364 242.654C192.225 242.793 192.113 242.956 192.029 243.142C191.946 243.319 191.899 243.495 191.89 243.672H195.225ZM196.773 245.877C196.68 246.175 196.546 246.454 196.369 246.714C196.192 246.975 195.973 247.202 195.713 247.398C195.453 247.593 195.155 247.747 194.82 247.858C194.485 247.97 194.113 248.026 193.704 248.026C193.239 248.026 192.797 247.947 192.378 247.788C191.96 247.621 191.592 247.384 191.276 247.077C190.96 246.761 190.704 246.379 190.508 245.933C190.322 245.477 190.229 244.961 190.229 244.384C190.229 243.844 190.318 243.356 190.494 242.919C190.68 242.482 190.927 242.109 191.234 241.802C191.541 241.486 191.894 241.244 192.294 241.077C192.694 240.9 193.108 240.812 193.536 240.812C194.057 240.812 194.522 240.895 194.932 241.063C195.35 241.23 195.699 241.468 195.978 241.775C196.267 242.082 196.485 242.454 196.634 242.891C196.783 243.319 196.857 243.802 196.857 244.342C196.857 244.472 196.853 244.588 196.843 244.691C196.834 244.784 196.825 244.84 196.815 244.858H191.848C191.857 245.119 191.913 245.356 192.015 245.57C192.118 245.784 192.253 245.97 192.42 246.128C192.587 246.286 192.778 246.412 192.992 246.505C193.215 246.588 193.453 246.63 193.704 246.63C194.197 246.63 194.573 246.519 194.834 246.295C195.104 246.063 195.294 245.779 195.406 245.444L196.773 245.877ZM202.297 242.626C202.111 242.598 201.934 242.584 201.767 242.584C201.134 242.584 200.669 242.756 200.371 243.1C200.083 243.444 199.939 243.937 199.939 244.579V247.816H198.32V241.021H199.897V242.109C200.055 241.737 200.311 241.449 200.664 241.244C201.018 241.04 201.418 240.937 201.864 240.937C201.967 240.937 202.055 240.942 202.13 240.951C202.204 240.961 202.26 240.97 202.297 240.979V242.626ZM203.564 247.816V241.021H205.169V247.816H203.564ZM203.313 238.635C203.313 238.337 203.416 238.086 203.62 237.882C203.825 237.677 204.071 237.575 204.36 237.575C204.657 237.575 204.909 237.677 205.113 237.882C205.318 238.086 205.42 238.337 205.42 238.635C205.42 238.933 205.318 239.184 205.113 239.388C204.909 239.584 204.657 239.682 204.36 239.682C204.071 239.682 203.825 239.584 203.62 239.388C203.416 239.184 203.313 238.933 203.313 238.635ZM210.187 239.095C210.076 239.095 209.96 239.109 209.839 239.137C209.727 239.165 209.62 239.221 209.518 239.305C209.425 239.379 209.346 239.486 209.28 239.626C209.215 239.756 209.183 239.923 209.183 240.128V241.021H210.76V242.43H209.183V247.816H207.55V242.43H206.364V241.021H207.55V240.086C207.55 239.705 207.606 239.365 207.718 239.068C207.839 238.761 208.001 238.505 208.206 238.3C208.42 238.086 208.671 237.923 208.96 237.812C209.248 237.7 209.569 237.644 209.922 237.644C210.127 237.644 210.304 237.663 210.453 237.7C210.611 237.728 210.718 237.756 210.774 237.784V239.165C210.727 239.147 210.657 239.133 210.564 239.123C210.471 239.105 210.346 239.095 210.187 239.095ZM212.575 250.565L214.208 247.007L211.306 241.021H213.134L215.087 245.319L216.915 241.021H218.631L214.306 250.565H212.575Z" fill="white"/>
</g>
<rect x="168.023" y="1.39585" width="63.9535" height="63.9535" rx="31.9767" fill="white"/>
<rect x="168.023" y="1.39585" width="63.9535" height="63.9535" rx="31.9767" stroke="#E3E5F5" stroke-width="1.16279"/>
<path d="M189.535 25.2333C189.535 24.7746 189.805 24.3586 190.224 24.1715L190.314 24.1313C190.373 24.1053 190.458 24.0674 190.567 24.0193C190.786 23.923 191.099 23.7857 191.479 23.6211C192.239 23.292 193.27 22.8525 194.35 22.4123C195.427 21.9732 196.564 21.5283 197.535 21.1914C198.02 21.0232 198.477 20.877 198.871 20.7714C199.235 20.6742 199.648 20.582 200.001 20.582C200.353 20.582 200.767 20.6742 201.13 20.7714C201.525 20.877 201.982 21.0232 202.466 21.1914C203.437 21.5283 204.575 21.9732 205.651 22.4123C206.731 22.8525 207.762 23.292 208.521 23.6211C208.902 23.7857 209.215 23.923 209.433 24.0193C209.542 24.0674 209.628 24.1053 209.686 24.1313L209.776 24.1713C210.195 24.3585 210.465 24.7746 210.465 25.2333V32.2095C210.108 31.9407 209.718 31.7123 209.303 31.5309C209.277 31.5195 209.25 31.5083 209.224 31.4973C208.878 31.3523 208.516 31.2397 208.14 31.1634C207.764 31.0872 207.375 31.0471 206.977 31.0471C203.86 31.0471 201.316 33.4999 201.17 36.5806C200.452 37.2195 200 38.1503 200 39.1867V43.8378C200 44.2341 200.066 44.6148 200.188 44.9698C200.318 45.349 200.512 45.6987 200.756 46.0062C200.73 46.016 200.704 46.0254 200.678 46.0343C200.516 46.0906 200.269 46.1634 200.001 46.1634C199.732 46.1634 199.486 46.0906 199.324 46.0343C199.139 45.9702 198.944 45.8843 198.749 45.7873C198.358 45.5925 197.9 45.3204 197.408 44.9897C196.422 44.327 195.239 43.3879 194.095 42.2554C191.862 40.0441 189.535 36.8488 189.535 33.3727V25.2333Z" fill="#0075E3"/>
<path fill-rule="evenodd" clip-rule="evenodd" d="M203.489 38.0239V36.8611C203.489 34.9345 205.05 33.3727 206.977 33.3727C208.904 33.3727 210.465 34.9345 210.465 36.8611V38.0239C211.108 38.0239 211.628 38.5445 211.628 39.1867V43.8378C211.628 44.48 211.108 45.0006 210.465 45.0006H203.489C202.846 45.0006 202.326 44.48 202.326 43.8378V39.1867C202.326 38.5445 202.846 38.0239 203.489 38.0239ZM205.814 36.8611C205.814 36.2189 206.335 35.6983 206.977 35.6983C207.619 35.6983 208.14 36.2189 208.14 36.8611V38.0239H205.814V36.8611Z" fill="#0075E3"/>
</svg>
