<svg width="257" height="256" viewBox="0 0 257 256" fill="none" xmlns="http://www.w3.org/2000/svg">
<path d="M35.3096 13.6016C20.7948 13.6016 8.39909 22.6298 3.37695 35.3739C8.39909 48.1179 20.7948 57.1461 35.3096 57.1461C49.8245 57.1461 62.2202 48.1179 67.2423 35.3739C62.2202 22.6298 49.8245 13.6016 35.3096 13.6016ZM35.3096 49.8887C27.2974 49.8887 20.7948 43.3861 20.7948 35.3739C20.7948 27.3616 27.2974 20.859 35.3096 20.859C43.3218 20.859 49.8245 27.3616 49.8245 35.3739C49.8245 43.3861 43.3218 49.8887 35.3096 49.8887ZM35.3096 26.6649C30.4907 26.6649 26.6007 30.5549 26.6007 35.3739C26.6007 40.1928 30.4907 44.0828 35.3096 44.0828C40.1286 44.0828 44.0186 40.1928 44.0186 35.3739C44.0186 30.5549 40.1286 26.6649 35.3096 26.6649Z" fill="#CACDE0"/>
<path d="M128.204 13.6016C113.689 13.6016 101.294 22.6298 96.2715 35.3739C101.294 48.1179 113.689 57.1461 128.204 57.1461C142.719 57.1461 155.115 48.1179 160.137 35.3739C155.115 22.6298 142.719 13.6016 128.204 13.6016ZM128.204 49.8887C120.192 49.8887 113.689 43.3861 113.689 35.3739C113.689 27.3616 120.192 20.859 128.204 20.859C136.216 20.859 142.719 27.3616 142.719 35.3739C142.719 43.3861 136.216 49.8887 128.204 49.8887ZM128.204 26.6649C123.385 26.6649 119.495 30.5549 119.495 35.3739C119.495 40.1928 123.385 44.0828 128.204 44.0828C133.023 44.0828 136.913 40.1928 136.913 35.3739C136.913 30.5549 133.023 26.6649 128.204 26.6649Z" fill="#F9F0CE"/>
<path d="M221.101 13.6016C206.586 13.6016 194.19 22.6298 189.168 35.3739C194.19 48.1179 206.586 57.1461 221.101 57.1461C235.616 57.1461 248.011 48.1179 253.033 35.3739C248.011 22.6298 235.616 13.6016 221.101 13.6016ZM221.101 49.8887C213.088 49.8887 206.586 43.3861 206.586 35.3739C206.586 27.3616 213.088 20.859 221.101 20.859C229.113 20.859 235.616 27.3616 235.616 35.3739C235.616 43.3861 229.113 49.8887 221.101 49.8887ZM221.101 26.6649C216.282 26.6649 212.392 30.5549 212.392 35.3739C212.392 40.1928 216.282 44.0828 221.101 44.0828C225.92 44.0828 229.81 40.1928 229.81 35.3739C229.81 30.5549 225.92 26.6649 221.101 26.6649Z" fill="#CCC194"/>
<path d="M35.3096 106.496C20.7948 106.496 8.39909 115.524 3.37695 128.268C8.39909 141.012 20.7948 150.041 35.3096 150.041C49.8245 150.041 62.2202 141.012 67.2423 128.268C62.2202 115.524 49.8245 106.496 35.3096 106.496ZM35.3096 142.783C27.2974 142.783 20.7948 136.281 20.7948 128.268C20.7948 120.256 27.2974 113.754 35.3096 113.754C43.3218 113.754 49.8245 120.256 49.8245 128.268C49.8245 136.281 43.3218 142.783 35.3096 142.783ZM35.3096 119.559C30.4907 119.559 26.6007 123.449 26.6007 128.268C26.6007 133.087 30.4907 136.977 35.3096 136.977C40.1286 136.977 44.0186 133.087 44.0186 128.268C44.0186 123.449 40.1286 119.559 35.3096 119.559Z" fill="#FD95AC"/>
<path d="M128.204 106.496C113.689 106.496 101.294 115.524 96.2715 128.268C101.294 141.012 113.689 150.041 128.204 150.041C142.719 150.041 155.115 141.012 160.137 128.268C155.115 115.524 142.719 106.496 128.204 106.496ZM128.204 142.783C120.192 142.783 113.689 136.281 113.689 128.268C113.689 120.256 120.192 113.754 128.204 113.754C136.216 113.754 142.719 120.256 142.719 128.268C142.719 136.281 136.216 142.783 128.204 142.783ZM128.204 119.559C123.385 119.559 119.495 123.449 119.495 128.268C119.495 133.087 123.385 136.977 128.204 136.977C133.023 136.977 136.913 133.087 136.913 128.268C136.913 123.449 133.023 119.559 128.204 119.559Z" fill="#FEE6E9"/>
<path d="M221.101 106.496C206.586 106.496 194.19 115.524 189.168 128.268C194.19 141.012 206.586 150.041 221.101 150.041C235.616 150.041 248.011 141.012 253.033 128.268C248.011 115.524 235.616 106.496 221.101 106.496ZM221.101 142.783C213.088 142.783 206.586 136.281 206.586 128.268C206.586 120.256 213.088 113.754 221.101 113.754C229.113 113.754 235.616 120.256 235.616 128.268C235.616 136.281 229.113 142.783 221.101 142.783ZM221.101 119.559C216.282 119.559 212.392 123.449 212.392 128.268C212.392 133.087 216.282 136.977 221.101 136.977C225.92 136.977 229.81 133.087 229.81 128.268C229.81 123.449 225.92 119.559 221.101 119.559Z" fill="#AFD9F2"/>
<path d="M35.3096 199.393C20.7948 199.393 8.39909 208.421 3.37695 221.165C8.39909 233.909 20.7948 242.937 35.3096 242.937C49.8245 242.937 62.2202 233.909 67.2423 221.165C62.2202 208.421 49.8245 199.393 35.3096 199.393ZM35.3096 235.68C27.2974 235.68 20.7948 229.177 20.7948 221.165C20.7948 213.153 27.2974 206.65 35.3096 206.65C43.3218 206.65 49.8245 213.153 49.8245 221.165C49.8245 229.177 43.3218 235.68 35.3096 235.68ZM35.3096 212.456C30.4907 212.456 26.6007 216.346 26.6007 221.165C26.6007 225.984 30.4907 229.874 35.3096 229.874C40.1286 229.874 44.0186 225.984 44.0186 221.165C44.0186 216.346 40.1286 212.456 35.3096 212.456Z" fill="#CBCBCB"/>
<path d="M128.204 199.393C113.689 199.393 101.294 208.421 96.2715 221.165C101.294 233.909 113.689 242.937 128.204 242.937C142.719 242.937 155.115 233.909 160.137 221.165C155.115 208.421 142.719 199.393 128.204 199.393ZM128.204 235.68C120.192 235.68 113.689 229.177 113.689 221.165C113.689 213.153 120.192 206.65 128.204 206.65C136.216 206.65 142.719 213.153 142.719 221.165C142.719 229.177 136.216 235.68 128.204 235.68ZM128.204 212.456C123.385 212.456 119.495 216.346 119.495 221.165C119.495 225.984 123.385 229.874 128.204 229.874C133.023 229.874 136.913 225.984 136.913 221.165C136.913 216.346 133.023 212.456 128.204 212.456Z" fill="#E8E8E8"/>
<path d="M221.101 199.393C206.586 199.393 194.19 208.421 189.168 221.165C194.19 233.909 206.586 242.937 221.101 242.937C235.616 242.937 248.011 233.909 253.033 221.165C248.011 208.421 235.616 199.393 221.101 199.393ZM221.101 235.68C213.088 235.68 206.586 229.177 206.586 221.165C206.586 213.153 213.088 206.65 221.101 206.65C229.113 206.65 235.616 213.153 235.616 221.165C235.616 229.177 229.113 235.68 221.101 235.68ZM221.101 212.456C216.282 212.456 212.392 216.346 212.392 221.165C212.392 225.984 216.282 229.874 221.101 229.874C225.92 229.874 229.81 225.984 229.81 221.165C229.81 216.346 225.92 212.456 221.101 212.456Z" fill="#F9F9F9"/>
</svg>
