<svg width="308" height="250" viewBox="0 0 308 250" fill="none" xmlns="http://www.w3.org/2000/svg">
<rect x="1.5" y="0.5" width="305" height="44" rx="1.5" fill="#242424"/>
<rect x="1.5" y="0.5" width="305" height="44" rx="1.5" stroke="#585858" stroke-linejoin="round"/>
<path d="M63.1825 29.192C61.7638 29.192 60.7078 28.6907 60.0145 27.688C59.3318 26.6853 58.9905 25.2613 58.9905 23.416C58.9905 21.5707 59.3318 20.1467 60.0145 19.144C60.7078 18.1413 61.7638 17.64 63.1825 17.64C63.7265 17.64 64.1958 17.7147 64.5905 17.864C64.9958 18.0027 65.3425 18.2 65.6305 18.456C65.9185 18.7013 66.1585 18.9947 66.3505 19.336C66.5532 19.6667 66.7185 20.024 66.8465 20.408L65.2305 20.952C65.1452 20.696 65.0492 20.456 64.9425 20.232C64.8358 20.008 64.7025 19.816 64.5425 19.656C64.3825 19.496 64.1905 19.368 63.9665 19.272C63.7532 19.176 63.4865 19.128 63.1665 19.128C62.3772 19.128 61.8012 19.432 61.4385 20.04C61.0758 20.6373 60.8945 21.448 60.8945 22.472V24.36C60.8945 25.384 61.0758 26.2 61.4385 26.808C61.8012 27.4053 62.3772 27.704 63.1665 27.704C63.4865 27.704 63.7532 27.656 63.9665 27.56C64.1905 27.464 64.3825 27.336 64.5425 27.176C64.7025 27.016 64.8358 26.824 64.9425 26.6C65.0492 26.376 65.1452 26.136 65.2305 25.88L66.8465 26.424C66.7185 26.808 66.5532 27.1707 66.3505 27.512C66.1585 27.8427 65.9185 28.136 65.6305 28.392C65.3425 28.6373 64.9958 28.8347 64.5905 28.984C64.1958 29.1227 63.7265 29.192 63.1825 29.192ZM72.4563 29.192C71.8483 29.192 71.2989 29.0907 70.8083 28.888C70.3283 28.6853 69.9176 28.3973 69.5763 28.024C69.2456 27.6507 68.9896 27.1973 68.8083 26.664C68.6269 26.1307 68.5363 25.5333 68.5363 24.872C68.5363 24.2107 68.6269 23.6133 68.8083 23.08C68.9896 22.5467 69.2456 22.0933 69.5763 21.72C69.9176 21.3467 70.3283 21.0587 70.8083 20.856C71.2989 20.6533 71.8483 20.552 72.4563 20.552C73.0643 20.552 73.6083 20.6533 74.0883 20.856C74.5789 21.0587 74.9896 21.3467 75.3203 21.72C75.6616 22.0933 75.9229 22.5467 76.1042 23.08C76.2856 23.6133 76.3763 24.2107 76.3763 24.872C76.3763 25.5333 76.2856 26.1307 76.1042 26.664C75.9229 27.1973 75.6616 27.6507 75.3203 28.024C74.9896 28.3973 74.5789 28.6853 74.0883 28.888C73.6083 29.0907 73.0643 29.192 72.4563 29.192ZM72.4563 27.816C73.0963 27.816 73.6029 27.624 73.9763 27.24C74.3603 26.8453 74.5523 26.264 74.5523 25.496V24.248C74.5523 23.48 74.3603 22.904 73.9763 22.52C73.6029 22.1253 73.0963 21.928 72.4563 21.928C71.8163 21.928 71.3043 22.1253 70.9203 22.52C70.5469 22.904 70.3603 23.48 70.3603 24.248V25.496C70.3603 26.264 70.5469 26.8453 70.9203 27.24C71.3043 27.624 71.8163 27.816 72.4563 27.816ZM78.45 27.592H81.186V18.568H78.45V17.16H82.93V27.592H85.666V29H78.45V27.592ZM91.6438 29.192C91.0358 29.192 90.4864 29.0907 89.9958 28.888C89.5158 28.6853 89.1051 28.3973 88.7638 28.024C88.4331 27.6507 88.1771 27.1973 87.9958 26.664C87.8144 26.1307 87.7238 25.5333 87.7238 24.872C87.7238 24.2107 87.8144 23.6133 87.9958 23.08C88.1771 22.5467 88.4331 22.0933 88.7638 21.72C89.1051 21.3467 89.5158 21.0587 89.9958 20.856C90.4864 20.6533 91.0358 20.552 91.6438 20.552C92.2518 20.552 92.7958 20.6533 93.2758 20.856C93.7664 21.0587 94.1771 21.3467 94.5078 21.72C94.8491 22.0933 95.1104 22.5467 95.2917 23.08C95.4731 23.6133 95.5638 24.2107 95.5638 24.872C95.5638 25.5333 95.4731 26.1307 95.2917 26.664C95.1104 27.1973 94.8491 27.6507 94.5078 28.024C94.1771 28.3973 93.7664 28.6853 93.2758 28.888C92.7958 29.0907 92.2518 29.192 91.6438 29.192ZM91.6438 27.816C92.2838 27.816 92.7904 27.624 93.1638 27.24C93.5478 26.8453 93.7398 26.264 93.7398 25.496V24.248C93.7398 23.48 93.5478 22.904 93.1638 22.52C92.7904 22.1253 92.2838 21.928 91.6438 21.928C91.0038 21.928 90.4918 22.1253 90.1078 22.52C89.7344 22.904 89.5478 23.48 89.5478 24.248V25.496C89.5478 26.264 89.7344 26.8453 90.1078 27.24C90.4918 27.624 91.0038 27.816 91.6438 27.816ZM97.6535 27.592H99.8455V22.152H97.6535V20.744H101.59V22.936H101.686C101.76 22.648 101.867 22.3707 102.006 22.104C102.144 21.8373 102.32 21.608 102.534 21.416C102.747 21.2133 103.008 21.0533 103.318 20.936C103.627 20.808 103.99 20.744 104.406 20.744H105.398V22.408H103.766C103.126 22.408 102.603 22.6 102.198 22.984C101.792 23.3573 101.59 23.864 101.59 24.504V27.592H104.582V29H97.6535V27.592ZM116.953 17.832H120.809C121.822 17.832 122.606 18.0933 123.161 18.616C123.726 19.1387 124.009 19.8533 124.009 20.76C124.009 21.4107 123.849 21.928 123.529 22.312C123.209 22.696 122.777 22.968 122.233 23.128V23.208C122.884 23.3573 123.406 23.6453 123.801 24.072C124.196 24.488 124.393 25.08 124.393 25.848C124.393 26.3067 124.318 26.728 124.169 27.112C124.02 27.496 123.806 27.832 123.529 28.12C123.252 28.3973 122.916 28.616 122.521 28.776C122.137 28.9253 121.71 29 121.241 29H116.953V17.832ZM120.697 27.624C121.294 27.624 121.753 27.5013 122.073 27.256C122.393 27.0107 122.553 26.616 122.553 26.072V25.496C122.553 24.952 122.393 24.5573 122.073 24.312C121.753 24.0667 121.294 23.944 120.697 23.944H118.713V27.624H120.697ZM120.441 22.632C121.006 22.632 121.433 22.5253 121.721 22.312C122.02 22.088 122.169 21.72 122.169 21.208V20.632C122.169 20.12 122.02 19.7573 121.721 19.544C121.433 19.32 121.006 19.208 120.441 19.208H118.713V22.632H120.441ZM126.419 27.592H129.155V18.568H126.419V17.16H130.899V27.592H133.635V29H126.419V27.592ZM140.125 19.24C139.677 19.24 139.362 19.1493 139.181 18.968C139.01 18.7867 138.924 18.5627 138.924 18.296V17.96C138.924 17.6933 139.01 17.4693 139.181 17.288C139.362 17.1067 139.671 17.016 140.109 17.016C140.557 17.016 140.866 17.1067 141.037 17.288C141.218 17.4693 141.309 17.6933 141.309 17.96V18.296C141.309 18.5627 141.218 18.7867 141.037 18.968C140.866 19.1493 140.562 19.24 140.125 19.24ZM136.429 27.592H139.245V22.152H136.429V20.744H140.989V27.592H143.628V29H136.429V27.592ZM145.75 29V20.744H147.494V22.152H147.574C147.66 21.9387 147.766 21.736 147.894 21.544C148.033 21.3413 148.198 21.1707 148.39 21.032C148.582 20.8827 148.806 20.7653 149.062 20.68C149.318 20.5947 149.617 20.552 149.958 20.552C150.79 20.552 151.462 20.824 151.974 21.368C152.486 21.912 152.742 22.6853 152.742 23.688V29H150.998V23.944C150.998 22.632 150.428 21.976 149.286 21.976C149.062 21.976 148.844 22.008 148.63 22.072C148.417 22.1253 148.225 22.2107 148.054 22.328C147.884 22.4453 147.745 22.5947 147.638 22.776C147.542 22.9573 147.494 23.1653 147.494 23.4V29H145.75ZM160.592 27.592H160.496C160.251 28.0933 159.925 28.488 159.52 28.776C159.115 29.0533 158.608 29.192 158 29.192C157.029 29.192 156.256 28.8293 155.68 28.104C155.104 27.3787 154.816 26.3013 154.816 24.872C154.816 23.4427 155.104 22.3653 155.68 21.64C156.256 20.9147 157.029 20.552 158 20.552C158.608 20.552 159.115 20.696 159.52 20.984C159.925 21.2613 160.251 21.6507 160.496 22.152H160.592V17.16H162.336V29H160.592V27.592ZM158.72 27.768C158.976 27.768 159.216 27.736 159.44 27.672C159.664 27.608 159.861 27.512 160.032 27.384C160.203 27.256 160.336 27.1013 160.432 26.92C160.539 26.728 160.592 26.504 160.592 26.248V23.496C160.592 23.24 160.539 23.0213 160.432 22.84C160.336 22.648 160.203 22.488 160.032 22.36C159.861 22.232 159.664 22.136 159.44 22.072C159.216 22.008 158.976 21.976 158.72 21.976C158.059 21.976 157.547 22.1787 157.184 22.584C156.832 22.9893 156.656 23.528 156.656 24.2V25.544C156.656 26.216 156.832 26.7547 157.184 27.16C157.547 27.5653 158.059 27.768 158.72 27.768ZM164.938 29V20.744H166.682V22.152H166.762C166.847 21.9387 166.954 21.736 167.082 21.544C167.22 21.3413 167.386 21.1707 167.578 21.032C167.77 20.8827 167.994 20.7653 168.25 20.68C168.506 20.5947 168.804 20.552 169.146 20.552C169.978 20.552 170.65 20.824 171.162 21.368C171.674 21.912 171.93 22.6853 171.93 23.688V29H170.186V23.944C170.186 22.632 169.615 21.976 168.474 21.976C168.25 21.976 168.031 22.008 167.818 22.072C167.604 22.1253 167.412 22.2107 167.242 22.328C167.071 22.4453 166.932 22.5947 166.826 22.776C166.73 22.9573 166.682 23.1653 166.682 23.4V29H164.938ZM178.164 29.192C177.534 29.192 176.969 29.0907 176.468 28.888C175.966 28.6853 175.545 28.3973 175.204 28.024C174.862 27.6507 174.601 27.2027 174.42 26.68C174.238 26.1467 174.148 25.5493 174.148 24.888C174.148 24.2267 174.238 23.6293 174.42 23.096C174.612 22.5627 174.873 22.1093 175.204 21.736C175.545 21.352 175.956 21.0587 176.436 20.856C176.916 20.6533 177.449 20.552 178.036 20.552C178.612 20.552 179.134 20.6533 179.604 20.856C180.073 21.048 180.473 21.3253 180.804 21.688C181.134 22.0507 181.385 22.4827 181.556 22.984C181.737 23.4853 181.828 24.04 181.828 24.648V25.304H175.908V25.576C175.908 26.2267 176.11 26.76 176.516 27.176C176.921 27.5813 177.481 27.784 178.196 27.784C178.729 27.784 179.182 27.672 179.556 27.448C179.94 27.2133 180.249 26.904 180.484 26.52L181.572 27.48C181.294 27.96 180.868 28.3653 180.292 28.696C179.726 29.0267 179.017 29.192 178.164 29.192ZM178.036 21.88C177.726 21.88 177.438 21.9333 177.172 22.04C176.916 22.1467 176.692 22.3013 176.5 22.504C176.318 22.696 176.174 22.9253 176.068 23.192C175.961 23.4587 175.908 23.752 175.908 24.072V24.184H180.052V24.024C180.052 23.3733 179.865 22.856 179.492 22.472C179.129 22.0773 178.644 21.88 178.036 21.88ZM187.597 29.192C186.701 29.192 185.928 29.048 185.277 28.76C184.637 28.472 184.12 28.088 183.725 27.608L184.797 26.648C185.16 27.0427 185.565 27.3467 186.013 27.56C186.472 27.7627 187.011 27.864 187.629 27.864C188.195 27.864 188.648 27.768 188.989 27.576C189.341 27.384 189.517 27.0853 189.517 26.68C189.517 26.5093 189.485 26.3653 189.421 26.248C189.357 26.1307 189.267 26.0347 189.149 25.96C189.032 25.8853 188.893 25.8267 188.733 25.784C188.584 25.7413 188.424 25.7093 188.253 25.688L186.941 25.48C186.621 25.4373 186.296 25.368 185.965 25.272C185.635 25.176 185.336 25.0427 185.069 24.872C184.813 24.6907 184.6 24.4613 184.429 24.184C184.269 23.9067 184.189 23.5547 184.189 23.128C184.189 22.2853 184.509 21.6453 185.149 21.208C185.8 20.7707 186.653 20.552 187.709 20.552C188.477 20.552 189.139 20.6693 189.693 20.904C190.259 21.128 190.728 21.4427 191.101 21.848L190.125 22.872C189.912 22.6267 189.608 22.4027 189.213 22.2C188.819 21.9867 188.296 21.88 187.645 21.88C186.483 21.88 185.901 22.248 185.901 22.984C185.901 23.336 186.024 23.5813 186.269 23.72C186.525 23.848 186.824 23.9333 187.165 23.976L188.477 24.184C188.808 24.2373 189.133 24.3067 189.453 24.392C189.784 24.4773 190.077 24.6107 190.333 24.792C190.6 24.9627 190.813 25.1867 190.973 25.464C191.144 25.7413 191.229 26.0933 191.229 26.52C191.229 27.352 190.904 28.008 190.253 28.488C189.613 28.9573 188.728 29.192 187.597 29.192ZM197.191 29.192C196.295 29.192 195.522 29.048 194.871 28.76C194.231 28.472 193.714 28.088 193.319 27.608L194.391 26.648C194.754 27.0427 195.159 27.3467 195.607 27.56C196.066 27.7627 196.604 27.864 197.223 27.864C197.788 27.864 198.242 27.768 198.583 27.576C198.935 27.384 199.111 27.0853 199.111 26.68C199.111 26.5093 199.079 26.3653 199.015 26.248C198.951 26.1307 198.86 26.0347 198.743 25.96C198.626 25.8853 198.487 25.8267 198.327 25.784C198.178 25.7413 198.018 25.7093 197.847 25.688L196.535 25.48C196.215 25.4373 195.89 25.368 195.559 25.272C195.228 25.176 194.93 25.0427 194.663 24.872C194.407 24.6907 194.194 24.4613 194.023 24.184C193.863 23.9067 193.783 23.5547 193.783 23.128C193.783 22.2853 194.103 21.6453 194.743 21.208C195.394 20.7707 196.247 20.552 197.303 20.552C198.071 20.552 198.732 20.6693 199.287 20.904C199.852 21.128 200.322 21.4427 200.695 21.848L199.719 22.872C199.506 22.6267 199.202 22.4027 198.807 22.2C198.412 21.9867 197.89 21.88 197.239 21.88C196.076 21.88 195.495 22.248 195.495 22.984C195.495 23.336 195.618 23.5813 195.863 23.72C196.119 23.848 196.418 23.9333 196.759 23.976L198.071 24.184C198.402 24.2373 198.727 24.3067 199.047 24.392C199.378 24.4773 199.671 24.6107 199.927 24.792C200.194 24.9627 200.407 25.1867 200.567 25.464C200.738 25.7413 200.823 26.0933 200.823 26.52C200.823 27.352 200.498 28.008 199.847 28.488C199.207 28.9573 198.322 29.192 197.191 29.192ZM217.259 19.336V29H215.467V19.336H211.963V17.832H220.763V19.336H217.259ZM228.372 20.744H230.132L226.132 30.6C225.919 31.1333 225.636 31.5333 225.284 31.8C224.943 32.0667 224.447 32.2 223.796 32.2H222.404V30.792H224.356L225.108 28.888L221.78 20.744H223.604L224.916 24.2L225.94 27.032H226.036L227.06 24.2L228.372 20.744ZM232.014 20.744H233.758V22.152H233.854C234.099 21.6507 234.425 21.2613 234.83 20.984C235.235 20.696 235.742 20.552 236.35 20.552C237.321 20.552 238.094 20.9147 238.67 21.64C239.246 22.3653 239.534 23.4427 239.534 24.872C239.534 26.3013 239.246 27.3787 238.67 28.104C238.094 28.8293 237.321 29.192 236.35 29.192C235.742 29.192 235.235 29.0533 234.83 28.776C234.425 28.488 234.099 28.0933 233.854 27.592H233.758V32.2H232.014V20.744ZM235.63 27.768C236.291 27.768 236.798 27.5653 237.15 27.16C237.513 26.7547 237.694 26.216 237.694 25.544V24.2C237.694 23.528 237.513 22.9893 237.15 22.584C236.798 22.1787 236.291 21.976 235.63 21.976C235.374 21.976 235.134 22.008 234.91 22.072C234.686 22.136 234.489 22.232 234.318 22.36C234.147 22.488 234.009 22.648 233.902 22.84C233.806 23.0213 233.758 23.24 233.758 23.496V26.248C233.758 26.504 233.806 26.728 233.902 26.92C234.009 27.1013 234.147 27.256 234.318 27.384C234.489 27.512 234.686 27.608 234.91 27.672C235.134 27.736 235.374 27.768 235.63 27.768ZM245.32 29.192C244.69 29.192 244.125 29.0907 243.624 28.888C243.122 28.6853 242.701 28.3973 242.36 28.024C242.018 27.6507 241.757 27.2027 241.576 26.68C241.394 26.1467 241.304 25.5493 241.304 24.888C241.304 24.2267 241.394 23.6293 241.576 23.096C241.768 22.5627 242.029 22.1093 242.36 21.736C242.701 21.352 243.112 21.0587 243.592 20.856C244.072 20.6533 244.605 20.552 245.192 20.552C245.768 20.552 246.29 20.6533 246.76 20.856C247.229 21.048 247.629 21.3253 247.96 21.688C248.29 22.0507 248.541 22.4827 248.712 22.984C248.893 23.4853 248.984 24.04 248.984 24.648V25.304H243.064V25.576C243.064 26.2267 243.266 26.76 243.672 27.176C244.077 27.5813 244.637 27.784 245.352 27.784C245.885 27.784 246.338 27.672 246.712 27.448C247.096 27.2133 247.405 26.904 247.64 26.52L248.728 27.48C248.45 27.96 248.024 28.3653 247.448 28.696C246.882 29.0267 246.173 29.192 245.32 29.192ZM245.192 21.88C244.882 21.88 244.594 21.9333 244.328 22.04C244.072 22.1467 243.848 22.3013 243.656 22.504C243.474 22.696 243.33 22.9253 243.224 23.192C243.117 23.4587 243.064 23.752 243.064 24.072V24.184H247.208V24.024C247.208 23.3733 247.021 22.856 246.648 22.472C246.285 22.0773 245.8 21.88 245.192 21.88Z" fill="#FCFEFB"/>
<rect x="0.5" y="50.5" width="151" height="46" rx="2.5" fill="#FCFEFB"/>
<rect x="0.5" y="50.5" width="151" height="46" rx="2.5" stroke="#242424"/>
<path d="M24.5784 80V68.832H28.7544C29.821 68.832 30.6317 69.1307 31.1864 69.728C31.7517 70.3253 32.0344 71.1467 32.0344 72.192C32.0344 73.2373 31.7517 74.0587 31.1864 74.656C30.6317 75.2533 29.821 75.552 28.7544 75.552H26.3704V80H24.5784ZM26.3704 74.064H28.4824C29.5917 74.064 30.1464 73.552 30.1464 72.528V71.84C30.1464 70.8267 29.5917 70.32 28.4824 70.32H26.3704V74.064ZM34.0441 78.592H36.2361V73.152H34.0441V71.744H37.9801V73.936H38.0761C38.1508 73.648 38.2575 73.3707 38.3961 73.104C38.5348 72.8373 38.7108 72.608 38.9241 72.416C39.1375 72.2133 39.3988 72.0533 39.7081 71.936C40.0175 71.808 40.3801 71.744 40.7961 71.744H41.7881V73.408H40.1561C39.5161 73.408 38.9935 73.6 38.5881 73.984C38.1828 74.3573 37.9801 74.864 37.9801 75.504V78.592H40.9721V80H34.0441V78.592ZM47.2219 80.192C46.6139 80.192 46.0645 80.0907 45.5739 79.888C45.0939 79.6853 44.6832 79.3973 44.3419 79.024C44.0112 78.6507 43.7552 78.1973 43.5739 77.664C43.3925 77.1307 43.3019 76.5333 43.3019 75.872C43.3019 75.2107 43.3925 74.6133 43.5739 74.08C43.7552 73.5467 44.0112 73.0933 44.3419 72.72C44.6832 72.3467 45.0939 72.0587 45.5739 71.856C46.0645 71.6533 46.6139 71.552 47.2219 71.552C47.8299 71.552 48.3739 71.6533 48.8539 71.856C49.3445 72.0587 49.7552 72.3467 50.0859 72.72C50.4272 73.0933 50.6885 73.5467 50.8699 74.08C51.0512 74.6133 51.1419 75.2107 51.1419 75.872C51.1419 76.5333 51.0512 77.1307 50.8699 77.664C50.6885 78.1973 50.4272 78.6507 50.0859 79.024C49.7552 79.3973 49.3445 79.6853 48.8539 79.888C48.3739 80.0907 47.8299 80.192 47.2219 80.192ZM47.2219 78.816C47.8619 78.816 48.3685 78.624 48.7419 78.24C49.1259 77.8453 49.3179 77.264 49.3179 76.496V75.248C49.3179 74.48 49.1259 73.904 48.7419 73.52C48.3685 73.1253 47.8619 72.928 47.2219 72.928C46.5819 72.928 46.0699 73.1253 45.6859 73.52C45.3125 73.904 45.1259 74.48 45.1259 75.248V76.496C45.1259 77.264 45.3125 77.8453 45.6859 78.24C46.0699 78.624 46.5819 78.816 47.2219 78.816ZM57.3116 80C56.5863 80 56.053 79.808 55.7116 79.424C55.3703 79.0293 55.1996 78.5227 55.1996 77.904V73.152H52.6556V71.744H54.4636C54.773 71.744 54.9916 71.6853 55.1196 71.568C55.2476 71.44 55.3116 71.216 55.3116 70.896V68.832H56.9436V71.744H60.4636V73.152H56.9436V78.592H60.4636V80H57.3116ZM69.4814 80C68.98 80 68.6014 79.872 68.3454 79.616C68.1 79.36 67.9507 79.024 67.8974 78.608H67.8174C67.6574 79.1093 67.364 79.4987 66.9374 79.776C66.5214 80.0533 65.988 80.192 65.3374 80.192C64.4947 80.192 63.8227 79.9733 63.3214 79.536C62.82 79.088 62.5694 78.4747 62.5694 77.696C62.5694 76.896 62.8627 76.288 63.4494 75.872C64.0467 75.4453 64.9587 75.232 66.1854 75.232H67.7694V74.592C67.7694 73.472 67.1774 72.912 65.9934 72.912C65.46 72.912 65.028 73.0187 64.6974 73.232C64.3667 73.4347 64.0894 73.7067 63.8654 74.048L62.8254 73.2C63.06 72.752 63.4547 72.368 64.0094 72.048C64.564 71.7173 65.2787 71.552 66.1534 71.552C67.1987 71.552 68.02 71.8027 68.6174 72.304C69.2147 72.8053 69.5134 73.5307 69.5134 74.48V78.624H70.5534V80H69.4814ZM65.8334 78.912C66.3987 78.912 66.8627 78.784 67.2254 78.528C67.588 78.272 67.7694 77.9413 67.7694 77.536V76.336H66.2174C64.9587 76.336 64.3294 76.7147 64.3294 77.472V77.792C64.3294 78.1653 64.4627 78.448 64.7294 78.64C64.996 78.8213 65.364 78.912 65.8334 78.912ZM72.5471 80V71.744H74.2911V73.152H74.3711C74.4565 72.9387 74.5631 72.736 74.6911 72.544C74.8298 72.3413 74.9951 72.1707 75.1871 72.032C75.3791 71.8827 75.6031 71.7653 75.8591 71.68C76.1151 71.5947 76.4138 71.552 76.7551 71.552C77.5871 71.552 78.2591 71.824 78.7711 72.368C79.2831 72.912 79.5391 73.6853 79.5391 74.688V80H77.7951V74.944C77.7951 73.632 77.2245 72.976 76.0831 72.976C75.8591 72.976 75.6405 73.008 75.4271 73.072C75.2138 73.1253 75.0218 73.2107 74.8511 73.328C74.6805 73.4453 74.5418 73.5947 74.4351 73.776C74.3391 73.9573 74.2911 74.1653 74.2911 74.4V80H72.5471ZM85.5969 80.192C84.9889 80.192 84.4395 80.0907 83.9489 79.888C83.4689 79.6853 83.0582 79.3973 82.7169 79.024C82.3862 78.6507 82.1302 78.1973 81.9489 77.664C81.7675 77.1307 81.6769 76.5333 81.6769 75.872C81.6769 75.2107 81.7675 74.6133 81.9489 74.08C82.1302 73.5467 82.3862 73.0933 82.7169 72.72C83.0582 72.3467 83.4689 72.0587 83.9489 71.856C84.4395 71.6533 84.9889 71.552 85.5969 71.552C86.2049 71.552 86.7489 71.6533 87.2289 71.856C87.7195 72.0587 88.1302 72.3467 88.4609 72.72C88.8022 73.0933 89.0635 73.5467 89.2449 74.08C89.4262 74.6133 89.5169 75.2107 89.5169 75.872C89.5169 76.5333 89.4262 77.1307 89.2449 77.664C89.0635 78.1973 88.8022 78.6507 88.4609 79.024C88.1302 79.3973 87.7195 79.6853 87.2289 79.888C86.7489 80.0907 86.2049 80.192 85.5969 80.192ZM85.5969 78.816C86.2369 78.816 86.7435 78.624 87.1169 78.24C87.5009 77.8453 87.6929 77.264 87.6929 76.496V75.248C87.6929 74.48 87.5009 73.904 87.1169 73.52C86.7435 73.1253 86.2369 72.928 85.5969 72.928C84.9569 72.928 84.4449 73.1253 84.0609 73.52C83.6875 73.904 83.5009 74.48 83.5009 75.248V76.496C83.5009 77.264 83.6875 77.8453 84.0609 78.24C84.4449 78.624 84.9569 78.816 85.5969 78.816ZM91.0946 80V71.744H92.5826V72.816H92.6626C92.7906 72.464 92.972 72.1653 93.2066 71.92C93.452 71.6747 93.7986 71.552 94.2466 71.552C94.684 71.552 95.02 71.6747 95.2546 71.92C95.5 72.1547 95.6546 72.48 95.7186 72.896H95.7826C95.932 72.5227 96.14 72.208 96.4066 71.952C96.6733 71.6853 97.0573 71.552 97.5586 71.552C98.1986 71.552 98.6413 71.776 98.8866 72.224C99.1426 72.672 99.2706 73.328 99.2706 74.192V80H97.7826V74.416C97.7826 73.84 97.7133 73.4453 97.5746 73.232C97.436 73.008 97.212 72.896 96.9026 72.896C96.6253 72.896 96.3906 72.992 96.1986 73.184C96.0173 73.3653 95.9266 73.6427 95.9266 74.016V80H94.4386V74.416C94.4386 73.84 94.3693 73.4453 94.2306 73.232C94.1026 73.008 93.884 72.896 93.5746 72.896C93.2866 72.896 93.0466 72.992 92.8546 73.184C92.6733 73.3653 92.5826 73.6427 92.5826 74.016V80H91.0946ZM107.856 80C107.355 80 106.976 79.872 106.72 79.616C106.475 79.36 106.326 79.024 106.272 78.608H106.192C106.032 79.1093 105.739 79.4987 105.312 79.776C104.896 80.0533 104.363 80.192 103.712 80.192C102.87 80.192 102.198 79.9733 101.696 79.536C101.195 79.088 100.944 78.4747 100.944 77.696C100.944 76.896 101.238 76.288 101.824 75.872C102.422 75.4453 103.334 75.232 104.56 75.232H106.144V74.592C106.144 73.472 105.552 72.912 104.368 72.912C103.835 72.912 103.403 73.0187 103.072 73.232C102.742 73.4347 102.464 73.7067 102.24 74.048L101.2 73.2C101.435 72.752 101.83 72.368 102.384 72.048C102.939 71.7173 103.654 71.552 104.528 71.552C105.574 71.552 106.395 71.8027 106.992 72.304C107.59 72.8053 107.888 73.5307 107.888 74.48V78.624H108.928V80H107.856ZM104.208 78.912C104.774 78.912 105.238 78.784 105.6 78.528C105.963 78.272 106.144 77.9413 106.144 77.536V76.336H104.592C103.334 76.336 102.704 76.7147 102.704 77.472V77.792C102.704 78.1653 102.838 78.448 103.104 78.64C103.371 78.8213 103.739 78.912 104.208 78.912ZM110.778 78.592H113.514V69.568H110.778V68.16H115.258V78.592H117.994V80H110.778V78.592ZM126.388 71.744H128.148L124.148 81.6C123.935 82.1333 123.652 82.5333 123.3 82.8C122.959 83.0667 122.463 83.2 121.812 83.2H120.42V81.792H122.372L123.124 79.888L119.796 71.744H121.62L122.932 75.2L123.956 78.032H124.052L125.076 75.2L126.388 71.744Z" fill="#242424"/>
<rect x="156.5" y="50.5" width="151" height="46" rx="2.5" fill="#FCFEFB"/>
<rect x="156.5" y="50.5" width="151" height="46" rx="2.5" stroke="#242424"/>
<path d="M170.953 68.832H174.281C175.71 68.832 176.766 69.3067 177.449 70.256C178.142 71.2053 178.489 72.592 178.489 74.416C178.489 76.24 178.142 77.6267 177.449 78.576C176.766 79.5253 175.71 80 174.281 80H170.953V68.832ZM174.169 78.528C174.99 78.528 175.598 78.256 175.993 77.712C176.398 77.1573 176.601 76.368 176.601 75.344V73.488C176.601 72.464 176.398 71.68 175.993 71.136C175.598 70.5813 174.99 70.304 174.169 70.304H172.729V78.528H174.169ZM184.21 80.192C183.581 80.192 183.016 80.0907 182.514 79.888C182.013 79.6853 181.592 79.3973 181.25 79.024C180.909 78.6507 180.648 78.2027 180.466 77.68C180.285 77.1467 180.194 76.5493 180.194 75.888C180.194 75.2267 180.285 74.6293 180.466 74.096C180.658 73.5627 180.92 73.1093 181.25 72.736C181.592 72.352 182.002 72.0587 182.482 71.856C182.962 71.6533 183.496 71.552 184.082 71.552C184.658 71.552 185.181 71.6533 185.65 71.856C186.12 72.048 186.52 72.3253 186.85 72.688C187.181 73.0507 187.432 73.4827 187.602 73.984C187.784 74.4853 187.874 75.04 187.874 75.648V76.304H181.954V76.576C181.954 77.2267 182.157 77.76 182.562 78.176C182.968 78.5813 183.528 78.784 184.242 78.784C184.776 78.784 185.229 78.672 185.602 78.448C185.986 78.2133 186.296 77.904 186.53 77.52L187.618 78.48C187.341 78.96 186.914 79.3653 186.338 79.696C185.773 80.0267 185.064 80.192 184.21 80.192ZM184.082 72.88C183.773 72.88 183.485 72.9333 183.218 73.04C182.962 73.1467 182.738 73.3013 182.546 73.504C182.365 73.696 182.221 73.9253 182.114 74.192C182.008 74.4587 181.954 74.752 181.954 75.072V75.184H186.098V75.024C186.098 74.3733 185.912 73.856 185.538 73.472C185.176 73.0773 184.69 72.88 184.082 72.88ZM195.34 78.592H195.26C195.175 78.8053 195.063 79.0133 194.924 79.216C194.796 79.408 194.636 79.5787 194.444 79.728C194.252 79.8667 194.028 79.9787 193.772 80.064C193.516 80.1493 193.217 80.192 192.876 80.192C192.044 80.192 191.372 79.92 190.86 79.376C190.348 78.832 190.092 78.0587 190.092 77.056V71.744H191.836V76.8C191.836 78.112 192.407 78.768 193.548 78.768C193.772 78.768 193.991 78.7413 194.204 78.688C194.417 78.624 194.609 78.5333 194.78 78.416C194.951 78.2987 195.084 78.1547 195.18 77.984C195.287 77.8027 195.34 77.5893 195.34 77.344V71.744H197.084V80H195.34V78.592ZM203.718 80C202.993 80 202.459 79.808 202.118 79.424C201.777 79.0293 201.606 78.5227 201.606 77.904V73.152H199.062V71.744H200.87C201.179 71.744 201.398 71.6853 201.526 71.568C201.654 71.44 201.718 71.216 201.718 70.896V68.832H203.35V71.744H206.87V73.152H203.35V78.592H206.87V80H203.718ZM212.992 80.192C212.362 80.192 211.797 80.0907 211.296 79.888C210.794 79.6853 210.373 79.3973 210.032 79.024C209.69 78.6507 209.429 78.2027 209.248 77.68C209.066 77.1467 208.976 76.5493 208.976 75.888C208.976 75.2267 209.066 74.6293 209.248 74.096C209.44 73.5627 209.701 73.1093 210.032 72.736C210.373 72.352 210.784 72.0587 211.264 71.856C211.744 71.6533 212.277 71.552 212.864 71.552C213.44 71.552 213.962 71.6533 214.432 71.856C214.901 72.048 215.301 72.3253 215.632 72.688C215.962 73.0507 216.213 73.4827 216.384 73.984C216.565 74.4853 216.656 75.04 216.656 75.648V76.304H210.736V76.576C210.736 77.2267 210.938 77.76 211.344 78.176C211.749 78.5813 212.309 78.784 213.024 78.784C213.557 78.784 214.01 78.672 214.384 78.448C214.768 78.2133 215.077 77.904 215.312 77.52L216.4 78.48C216.122 78.96 215.696 79.3653 215.12 79.696C214.554 80.0267 213.845 80.192 212.992 80.192ZM212.864 72.88C212.554 72.88 212.266 72.9333 212 73.04C211.744 73.1467 211.52 73.3013 211.328 73.504C211.146 73.696 211.002 73.9253 210.896 74.192C210.789 74.4587 210.736 74.752 210.736 75.072V75.184H214.88V75.024C214.88 74.3733 214.693 73.856 214.32 73.472C213.957 73.0773 213.472 72.88 212.864 72.88ZM218.825 78.592H221.017V73.152H218.825V71.744H222.761V73.936H222.857C222.932 73.648 223.039 73.3707 223.177 73.104C223.316 72.8373 223.492 72.608 223.705 72.416C223.919 72.2133 224.18 72.0533 224.489 71.936C224.799 71.808 225.161 71.744 225.577 71.744H226.569V73.408H224.937C224.297 73.408 223.775 73.6 223.369 73.984C222.964 74.3573 222.761 74.864 222.761 75.504V78.592H225.753V80H218.825V78.592ZM235.075 80C234.574 80 234.195 79.872 233.939 79.616C233.694 79.36 233.544 79.024 233.491 78.608H233.411C233.251 79.1093 232.958 79.4987 232.531 79.776C232.115 80.0533 231.582 80.192 230.931 80.192C230.088 80.192 229.416 79.9733 228.915 79.536C228.414 79.088 228.163 78.4747 228.163 77.696C228.163 76.896 228.456 76.288 229.043 75.872C229.64 75.4453 230.552 75.232 231.779 75.232H233.363V74.592C233.363 73.472 232.771 72.912 231.587 72.912C231.054 72.912 230.622 73.0187 230.291 73.232C229.96 73.4347 229.683 73.7067 229.459 74.048L228.419 73.2C228.654 72.752 229.048 72.368 229.603 72.048C230.158 71.7173 230.872 71.552 231.747 71.552C232.792 71.552 233.614 71.8027 234.211 72.304C234.808 72.8053 235.107 73.5307 235.107 74.48V78.624H236.147V80H235.075ZM231.427 78.912C231.992 78.912 232.456 78.784 232.819 78.528C233.182 78.272 233.363 77.9413 233.363 77.536V76.336H231.811C230.552 76.336 229.923 76.7147 229.923 77.472V77.792C229.923 78.1653 230.056 78.448 230.323 78.64C230.59 78.8213 230.958 78.912 231.427 78.912ZM238.141 80V71.744H239.885V73.152H239.965C240.05 72.9387 240.157 72.736 240.285 72.544C240.424 72.3413 240.589 72.1707 240.781 72.032C240.973 71.8827 241.197 71.7653 241.453 71.68C241.709 71.5947 242.008 71.552 242.349 71.552C243.181 71.552 243.853 71.824 244.365 72.368C244.877 72.912 245.133 73.6853 245.133 74.688V80H243.389V74.944C243.389 73.632 242.818 72.976 241.677 72.976C241.453 72.976 241.234 73.008 241.021 73.072C240.808 73.1253 240.616 73.2107 240.445 73.328C240.274 73.4453 240.136 73.5947 240.029 73.776C239.933 73.9573 239.885 74.1653 239.885 74.4V80H238.141ZM251.191 80.192C250.583 80.192 250.033 80.0907 249.543 79.888C249.063 79.6853 248.652 79.3973 248.311 79.024C247.98 78.6507 247.724 78.1973 247.543 77.664C247.361 77.1307 247.271 76.5333 247.271 75.872C247.271 75.2107 247.361 74.6133 247.543 74.08C247.724 73.5467 247.98 73.0933 248.311 72.72C248.652 72.3467 249.063 72.0587 249.543 71.856C250.033 71.6533 250.583 71.552 251.191 71.552C251.799 71.552 252.343 71.6533 252.823 71.856C253.313 72.0587 253.724 72.3467 254.055 72.72C254.396 73.0933 254.657 73.5467 254.839 74.08C255.02 74.6133 255.111 75.2107 255.111 75.872C255.111 76.5333 255.02 77.1307 254.839 77.664C254.657 78.1973 254.396 78.6507 254.055 79.024C253.724 79.3973 253.313 79.6853 252.823 79.888C252.343 80.0907 251.799 80.192 251.191 80.192ZM251.191 78.816C251.831 78.816 252.337 78.624 252.711 78.24C253.095 77.8453 253.287 77.264 253.287 76.496V75.248C253.287 74.48 253.095 73.904 252.711 73.52C252.337 73.1253 251.831 72.928 251.191 72.928C250.551 72.928 250.039 73.1253 249.655 73.52C249.281 73.904 249.095 74.48 249.095 75.248V76.496C249.095 77.264 249.281 77.8453 249.655 78.24C250.039 78.624 250.551 78.816 251.191 78.816ZM256.688 80V71.744H258.176V72.816H258.256C258.384 72.464 258.566 72.1653 258.8 71.92C259.046 71.6747 259.392 71.552 259.84 71.552C260.278 71.552 260.614 71.6747 260.848 71.92C261.094 72.1547 261.248 72.48 261.312 72.896H261.376C261.526 72.5227 261.734 72.208 262 71.952C262.267 71.6853 262.651 71.552 263.152 71.552C263.792 71.552 264.235 71.776 264.48 72.224C264.736 72.672 264.864 73.328 264.864 74.192V80H263.376V74.416C263.376 73.84 263.307 73.4453 263.168 73.232C263.03 73.008 262.806 72.896 262.496 72.896C262.219 72.896 261.984 72.992 261.792 73.184C261.611 73.3653 261.52 73.6427 261.52 74.016V80H260.032V74.416C260.032 73.84 259.963 73.4453 259.824 73.232C259.696 73.008 259.478 72.896 259.168 72.896C258.88 72.896 258.64 72.992 258.448 73.184C258.267 73.3653 258.176 73.6427 258.176 74.016V80H256.688ZM273.45 80C272.949 80 272.57 79.872 272.314 79.616C272.069 79.36 271.919 79.024 271.866 78.608H271.786C271.626 79.1093 271.333 79.4987 270.906 79.776C270.49 80.0533 269.957 80.192 269.306 80.192C268.463 80.192 267.791 79.9733 267.29 79.536C266.789 79.088 266.538 78.4747 266.538 77.696C266.538 76.896 266.831 76.288 267.418 75.872C268.015 75.4453 268.927 75.232 270.154 75.232H271.738V74.592C271.738 73.472 271.146 72.912 269.962 72.912C269.429 72.912 268.997 73.0187 268.666 73.232C268.335 73.4347 268.058 73.7067 267.834 74.048L266.794 73.2C267.029 72.752 267.423 72.368 267.978 72.048C268.533 71.7173 269.247 71.552 270.122 71.552C271.167 71.552 271.989 71.8027 272.586 72.304C273.183 72.8053 273.482 73.5307 273.482 74.48V78.624H274.522V80H273.45ZM269.802 78.912C270.367 78.912 270.831 78.784 271.194 78.528C271.557 78.272 271.738 77.9413 271.738 77.536V76.336H270.186C268.927 76.336 268.298 76.7147 268.298 77.472V77.792C268.298 78.1653 268.431 78.448 268.698 78.64C268.965 78.8213 269.333 78.912 269.802 78.912ZM276.372 78.592H279.108V69.568H276.372V68.16H280.852V78.592H283.588V80H276.372V78.592ZM291.982 71.744H293.742L289.742 81.6C289.528 82.1333 289.246 82.5333 288.894 82.8C288.552 83.0667 288.056 83.2 287.406 83.2H286.014V81.792H287.966L288.718 79.888L285.39 71.744H287.214L288.526 75.2L289.55 78.032H289.646L290.67 75.2L291.982 71.744Z" fill="#242424"/>
<rect x="0.5" y="101.5" width="151" height="46" rx="2.5" fill="#FCFEFB"/>
<rect x="0.5" y="101.5" width="151" height="46" rx="2.5" stroke="#242424"/>
<path d="M28.9304 121.336V131H27.1384V121.336H23.6344V119.832H32.4344V121.336H28.9304ZM34.0441 129.592H36.2361V124.152H34.0441V122.744H37.9801V124.936H38.0761C38.1508 124.648 38.2575 124.371 38.3961 124.104C38.5348 123.837 38.7108 123.608 38.9241 123.416C39.1375 123.213 39.3988 123.053 39.7081 122.936C40.0175 122.808 40.3801 122.744 40.7961 122.744H41.7881V124.408H40.1561C39.5161 124.408 38.9935 124.6 38.5881 124.984C38.1828 125.357 37.9801 125.864 37.9801 126.504V129.592H40.9721V131H34.0441V129.592ZM47.7339 121.24C47.2859 121.24 46.9712 121.149 46.7899 120.968C46.6192 120.787 46.5339 120.563 46.5339 120.296V119.96C46.5339 119.693 46.6192 119.469 46.7899 119.288C46.9712 119.107 47.2805 119.016 47.7179 119.016C48.1659 119.016 48.4752 119.107 48.6459 119.288C48.8272 119.469 48.9179 119.693 48.9179 119.96V120.296C48.9179 120.563 48.8272 120.787 48.6459 120.968C48.4752 121.149 48.1712 121.24 47.7339 121.24ZM44.0379 129.592H46.8539V124.152H44.0379V122.744H48.5979V129.592H51.2379V131H44.0379V129.592ZM57.3116 131C56.5863 131 56.053 130.808 55.7116 130.424C55.3703 130.029 55.1996 129.523 55.1996 128.904V124.152H52.6556V122.744H54.4636C54.773 122.744 54.9916 122.685 55.1196 122.568C55.2476 122.44 55.3116 122.216 55.3116 121.896V119.832H56.9436V122.744H60.4636V124.152H56.9436V129.592H60.4636V131H57.3116ZM69.4814 131C68.98 131 68.6014 130.872 68.3454 130.616C68.1 130.36 67.9507 130.024 67.8974 129.608H67.8174C67.6574 130.109 67.364 130.499 66.9374 130.776C66.5214 131.053 65.988 131.192 65.3374 131.192C64.4947 131.192 63.8227 130.973 63.3214 130.536C62.82 130.088 62.5694 129.475 62.5694 128.696C62.5694 127.896 62.8627 127.288 63.4494 126.872C64.0467 126.445 64.9587 126.232 66.1854 126.232H67.7694V125.592C67.7694 124.472 67.1774 123.912 65.9934 123.912C65.46 123.912 65.028 124.019 64.6974 124.232C64.3667 124.435 64.0894 124.707 63.8654 125.048L62.8254 124.2C63.06 123.752 63.4547 123.368 64.0094 123.048C64.564 122.717 65.2787 122.552 66.1534 122.552C67.1987 122.552 68.02 122.803 68.6174 123.304C69.2147 123.805 69.5134 124.531 69.5134 125.48V129.624H70.5534V131H69.4814ZM65.8334 129.912C66.3987 129.912 66.8627 129.784 67.2254 129.528C67.588 129.272 67.7694 128.941 67.7694 128.536V127.336H66.2174C64.9587 127.336 64.3294 127.715 64.3294 128.472V128.792C64.3294 129.165 64.4627 129.448 64.7294 129.64C64.996 129.821 65.364 129.912 65.8334 129.912ZM72.5471 131V122.744H74.2911V124.152H74.3711C74.4565 123.939 74.5631 123.736 74.6911 123.544C74.8298 123.341 74.9951 123.171 75.1871 123.032C75.3791 122.883 75.6031 122.765 75.8591 122.68C76.1151 122.595 76.4138 122.552 76.7551 122.552C77.5871 122.552 78.2591 122.824 78.7711 123.368C79.2831 123.912 79.5391 124.685 79.5391 125.688V131H77.7951V125.944C77.7951 124.632 77.2245 123.976 76.0831 123.976C75.8591 123.976 75.6405 124.008 75.4271 124.072C75.2138 124.125 75.0218 124.211 74.8511 124.328C74.6805 124.445 74.5418 124.595 74.4351 124.776C74.3391 124.957 74.2911 125.165 74.2911 125.4V131H72.5471ZM85.5969 131.192C84.9889 131.192 84.4395 131.091 83.9489 130.888C83.4689 130.685 83.0582 130.397 82.7169 130.024C82.3862 129.651 82.1302 129.197 81.9489 128.664C81.7675 128.131 81.6769 127.533 81.6769 126.872C81.6769 126.211 81.7675 125.613 81.9489 125.08C82.1302 124.547 82.3862 124.093 82.7169 123.72C83.0582 123.347 83.4689 123.059 83.9489 122.856C84.4395 122.653 84.9889 122.552 85.5969 122.552C86.2049 122.552 86.7489 122.653 87.2289 122.856C87.7195 123.059 88.1302 123.347 88.4609 123.72C88.8022 124.093 89.0635 124.547 89.2449 125.08C89.4262 125.613 89.5169 126.211 89.5169 126.872C89.5169 127.533 89.4262 128.131 89.2449 128.664C89.0635 129.197 88.8022 129.651 88.4609 130.024C88.1302 130.397 87.7195 130.685 87.2289 130.888C86.7489 131.091 86.2049 131.192 85.5969 131.192ZM85.5969 129.816C86.2369 129.816 86.7435 129.624 87.1169 129.24C87.5009 128.845 87.6929 128.264 87.6929 127.496V126.248C87.6929 125.48 87.5009 124.904 87.1169 124.52C86.7435 124.125 86.2369 123.928 85.5969 123.928C84.9569 123.928 84.4449 124.125 84.0609 124.52C83.6875 124.904 83.5009 125.48 83.5009 126.248V127.496C83.5009 128.264 83.6875 128.845 84.0609 129.24C84.4449 129.624 84.9569 129.816 85.5969 129.816ZM91.0946 131V122.744H92.5826V123.816H92.6626C92.7906 123.464 92.972 123.165 93.2066 122.92C93.452 122.675 93.7986 122.552 94.2466 122.552C94.684 122.552 95.02 122.675 95.2546 122.92C95.5 123.155 95.6546 123.48 95.7186 123.896H95.7826C95.932 123.523 96.14 123.208 96.4066 122.952C96.6733 122.685 97.0573 122.552 97.5586 122.552C98.1986 122.552 98.6413 122.776 98.8866 123.224C99.1426 123.672 99.2706 124.328 99.2706 125.192V131H97.7826V125.416C97.7826 124.84 97.7133 124.445 97.5746 124.232C97.436 124.008 97.212 123.896 96.9026 123.896C96.6253 123.896 96.3906 123.992 96.1986 124.184C96.0173 124.365 95.9266 124.643 95.9266 125.016V131H94.4386V125.416C94.4386 124.84 94.3693 124.445 94.2306 124.232C94.1026 124.008 93.884 123.896 93.5746 123.896C93.2866 123.896 93.0466 123.992 92.8546 124.184C92.6733 124.365 92.5826 124.643 92.5826 125.016V131H91.0946ZM107.856 131C107.355 131 106.976 130.872 106.72 130.616C106.475 130.36 106.326 130.024 106.272 129.608H106.192C106.032 130.109 105.739 130.499 105.312 130.776C104.896 131.053 104.363 131.192 103.712 131.192C102.87 131.192 102.198 130.973 101.696 130.536C101.195 130.088 100.944 129.475 100.944 128.696C100.944 127.896 101.238 127.288 101.824 126.872C102.422 126.445 103.334 126.232 104.56 126.232H106.144V125.592C106.144 124.472 105.552 123.912 104.368 123.912C103.835 123.912 103.403 124.019 103.072 124.232C102.742 124.435 102.464 124.707 102.24 125.048L101.2 124.2C101.435 123.752 101.83 123.368 102.384 123.048C102.939 122.717 103.654 122.552 104.528 122.552C105.574 122.552 106.395 122.803 106.992 123.304C107.59 123.805 107.888 124.531 107.888 125.48V129.624H108.928V131H107.856ZM104.208 129.912C104.774 129.912 105.238 129.784 105.6 129.528C105.963 129.272 106.144 128.941 106.144 128.536V127.336H104.592C103.334 127.336 102.704 127.715 102.704 128.472V128.792C102.704 129.165 102.838 129.448 103.104 129.64C103.371 129.821 103.739 129.912 104.208 129.912ZM110.778 129.592H113.514V120.568H110.778V119.16H115.258V129.592H117.994V131H110.778V129.592ZM126.388 122.744H128.148L124.148 132.6C123.935 133.133 123.652 133.533 123.3 133.8C122.959 134.067 122.463 134.2 121.812 134.2H120.42V132.792H122.372L123.124 130.888L119.796 122.744H121.62L122.932 126.2L123.956 129.032H124.052L125.076 126.2L126.388 122.744Z" fill="#242424"/>
<rect x="156.5" y="101.5" width="151" height="46" rx="2.5" fill="#FCFEFB"/>
<rect x="156.5" y="101.5" width="151" height="46" rx="2.5" stroke="#242424"/>
<path d="M185.375 131V119.832H189.551C190.618 119.832 191.429 120.131 191.983 120.728C192.549 121.325 192.831 122.147 192.831 123.192C192.831 124.237 192.549 125.059 191.983 125.656C191.429 126.253 190.618 126.552 189.551 126.552H187.167V131H185.375ZM187.167 125.064H189.279C190.389 125.064 190.943 124.552 190.943 123.528V122.84C190.943 121.827 190.389 121.32 189.279 121.32H187.167V125.064ZM194.841 129.592H197.033V124.152H194.841V122.744H198.777V124.936H198.873C198.948 124.648 199.054 124.371 199.193 124.104C199.332 123.837 199.508 123.608 199.721 123.416C199.934 123.213 200.196 123.053 200.505 122.936C200.814 122.808 201.177 122.744 201.593 122.744H202.585V124.408H200.953C200.313 124.408 199.79 124.6 199.385 124.984C198.98 125.357 198.777 125.864 198.777 126.504V129.592H201.769V131H194.841V129.592ZM208.019 131.192C207.411 131.192 206.861 131.091 206.371 130.888C205.891 130.685 205.48 130.397 205.139 130.024C204.808 129.651 204.552 129.197 204.371 128.664C204.189 128.131 204.099 127.533 204.099 126.872C204.099 126.211 204.189 125.613 204.371 125.08C204.552 124.547 204.808 124.093 205.139 123.72C205.48 123.347 205.891 123.059 206.371 122.856C206.861 122.653 207.411 122.552 208.019 122.552C208.627 122.552 209.171 122.653 209.651 122.856C210.141 123.059 210.552 123.347 210.883 123.72C211.224 124.093 211.485 124.547 211.667 125.08C211.848 125.613 211.939 126.211 211.939 126.872C211.939 127.533 211.848 128.131 211.667 128.664C211.485 129.197 211.224 129.651 210.883 130.024C210.552 130.397 210.141 130.685 209.651 130.888C209.171 131.091 208.627 131.192 208.019 131.192ZM208.019 129.816C208.659 129.816 209.165 129.624 209.539 129.24C209.923 128.845 210.115 128.264 210.115 127.496V126.248C210.115 125.48 209.923 124.904 209.539 124.52C209.165 124.125 208.659 123.928 208.019 123.928C207.379 123.928 206.867 124.125 206.483 124.52C206.109 124.904 205.923 125.48 205.923 126.248V127.496C205.923 128.264 206.109 128.845 206.483 129.24C206.867 129.624 207.379 129.816 208.019 129.816ZM218.109 131C217.383 131 216.85 130.808 216.509 130.424C216.167 130.029 215.997 129.523 215.997 128.904V124.152H213.453V122.744H215.261C215.57 122.744 215.789 122.685 215.917 122.568C216.045 122.44 216.109 122.216 216.109 121.896V119.832H217.741V122.744H221.26V124.152H217.741V129.592H221.26V131H218.109ZM230.278 131C229.777 131 229.398 130.872 229.142 130.616C228.897 130.36 228.748 130.024 228.694 129.608H228.614C228.454 130.109 228.161 130.499 227.734 130.776C227.318 131.053 226.785 131.192 226.134 131.192C225.292 131.192 224.62 130.973 224.118 130.536C223.617 130.088 223.366 129.475 223.366 128.696C223.366 127.896 223.66 127.288 224.246 126.872C224.844 126.445 225.756 126.232 226.982 126.232H228.566V125.592C228.566 124.472 227.974 123.912 226.79 123.912C226.257 123.912 225.825 124.019 225.494 124.232C225.164 124.435 224.886 124.707 224.662 125.048L223.622 124.2C223.857 123.752 224.252 123.368 224.806 123.048C225.361 122.717 226.076 122.552 226.95 122.552C227.996 122.552 228.817 122.803 229.414 123.304C230.012 123.805 230.31 124.531 230.31 125.48V129.624H231.35V131H230.278ZM226.63 129.912C227.196 129.912 227.66 129.784 228.022 129.528C228.385 129.272 228.566 128.941 228.566 128.536V127.336H227.014C225.756 127.336 225.126 127.715 225.126 128.472V128.792C225.126 129.165 225.26 129.448 225.526 129.64C225.793 129.821 226.161 129.912 226.63 129.912ZM233.344 131V122.744H235.088V124.152H235.168C235.253 123.939 235.36 123.736 235.488 123.544C235.627 123.341 235.792 123.171 235.984 123.032C236.176 122.883 236.4 122.765 236.656 122.68C236.912 122.595 237.211 122.552 237.552 122.552C238.384 122.552 239.056 122.824 239.568 123.368C240.08 123.912 240.336 124.685 240.336 125.688V131H238.592V125.944C238.592 124.632 238.021 123.976 236.88 123.976C236.656 123.976 236.437 124.008 236.224 124.072C236.011 124.125 235.819 124.211 235.648 124.328C235.477 124.445 235.339 124.595 235.232 124.776C235.136 124.957 235.088 125.165 235.088 125.4V131H233.344ZM246.394 131.192C245.786 131.192 245.236 131.091 244.746 130.888C244.266 130.685 243.855 130.397 243.514 130.024C243.183 129.651 242.927 129.197 242.746 128.664C242.564 128.131 242.474 127.533 242.474 126.872C242.474 126.211 242.564 125.613 242.746 125.08C242.927 124.547 243.183 124.093 243.514 123.72C243.855 123.347 244.266 123.059 244.746 122.856C245.236 122.653 245.786 122.552 246.394 122.552C247.002 122.552 247.546 122.653 248.026 122.856C248.516 123.059 248.927 123.347 249.258 123.72C249.599 124.093 249.86 124.547 250.042 125.08C250.223 125.613 250.314 126.211 250.314 126.872C250.314 127.533 250.223 128.131 250.042 128.664C249.86 129.197 249.599 129.651 249.258 130.024C248.927 130.397 248.516 130.685 248.026 130.888C247.546 131.091 247.002 131.192 246.394 131.192ZM246.394 129.816C247.034 129.816 247.54 129.624 247.914 129.24C248.298 128.845 248.49 128.264 248.49 127.496V126.248C248.49 125.48 248.298 124.904 247.914 124.52C247.54 124.125 247.034 123.928 246.394 123.928C245.754 123.928 245.242 124.125 244.858 124.52C244.484 124.904 244.298 125.48 244.298 126.248V127.496C244.298 128.264 244.484 128.845 244.858 129.24C245.242 129.624 245.754 129.816 246.394 129.816ZM252.452 122.744H254.196V124.152H254.292C254.537 123.651 254.862 123.261 255.268 122.984C255.673 122.696 256.18 122.552 256.788 122.552C257.758 122.552 258.532 122.915 259.108 123.64C259.684 124.365 259.972 125.443 259.972 126.872C259.972 128.301 259.684 129.379 259.108 130.104C258.532 130.829 257.758 131.192 256.788 131.192C256.18 131.192 255.673 131.053 255.268 130.776C254.862 130.488 254.537 130.093 254.292 129.592H254.196V134.2H252.452V122.744ZM256.068 129.768C256.729 129.768 257.236 129.565 257.588 129.16C257.95 128.755 258.132 128.216 258.132 127.544V126.2C258.132 125.528 257.95 124.989 257.588 124.584C257.236 124.179 256.729 123.976 256.068 123.976C255.812 123.976 255.572 124.008 255.348 124.072C255.124 124.136 254.926 124.232 254.756 124.36C254.585 124.488 254.446 124.648 254.34 124.84C254.244 125.021 254.196 125.24 254.196 125.496V128.248C254.196 128.504 254.244 128.728 254.34 128.92C254.446 129.101 254.585 129.256 254.756 129.384C254.926 129.512 255.124 129.608 255.348 129.672C255.572 129.736 255.812 129.768 256.068 129.768ZM266.093 121.24C265.645 121.24 265.331 121.149 265.149 120.968C264.979 120.787 264.893 120.563 264.893 120.296V119.96C264.893 119.693 264.979 119.469 265.149 119.288C265.331 119.107 265.64 119.016 266.077 119.016C266.525 119.016 266.835 119.107 267.005 119.288C267.187 119.469 267.277 119.693 267.277 119.96V120.296C267.277 120.563 267.187 120.787 267.005 120.968C266.835 121.149 266.531 121.24 266.093 121.24ZM262.397 129.592H265.213V124.152H262.397V122.744H266.957V129.592H269.597V131H262.397V129.592ZM278.247 131C277.746 131 277.367 130.872 277.111 130.616C276.866 130.36 276.716 130.024 276.663 129.608H276.583C276.423 130.109 276.13 130.499 275.703 130.776C275.287 131.053 274.754 131.192 274.103 131.192C273.26 131.192 272.588 130.973 272.087 130.536C271.586 130.088 271.335 129.475 271.335 128.696C271.335 127.896 271.628 127.288 272.215 126.872C272.812 126.445 273.724 126.232 274.951 126.232H276.535V125.592C276.535 124.472 275.943 123.912 274.759 123.912C274.226 123.912 273.794 124.019 273.463 124.232C273.132 124.435 272.855 124.707 272.631 125.048L271.591 124.2C271.826 123.752 272.22 123.368 272.775 123.048C273.33 122.717 274.044 122.552 274.919 122.552C275.964 122.552 276.786 122.803 277.383 123.304C277.98 123.805 278.279 124.531 278.279 125.48V129.624H279.319V131H278.247ZM274.599 129.912C275.164 129.912 275.628 129.784 275.991 129.528C276.354 129.272 276.535 128.941 276.535 128.536V127.336H274.983C273.724 127.336 273.095 127.715 273.095 128.472V128.792C273.095 129.165 273.228 129.448 273.495 129.64C273.762 129.821 274.13 129.912 274.599 129.912Z" fill="#242424"/>
<rect x="0.5" y="152.5" width="151" height="46" rx="2.5" fill="#FCFEFB"/>
<rect x="0.5" y="152.5" width="151" height="46" rx="2.5" stroke="#242424"/>
<path d="M19.7495 170.832H23.0775C24.5068 170.832 25.5628 171.307 26.2455 172.256C26.9388 173.205 27.2855 174.592 27.2855 176.416C27.2855 178.24 26.9388 179.627 26.2455 180.576C25.5628 181.525 24.5068 182 23.0775 182H19.7495V170.832ZM22.9655 180.528C23.7868 180.528 24.3948 180.256 24.7895 179.712C25.1948 179.157 25.3975 178.368 25.3975 177.344V175.488C25.3975 174.464 25.1948 173.68 24.7895 173.136C24.3948 172.581 23.7868 172.304 22.9655 172.304H21.5255V180.528H22.9655ZM33.0073 182.192C32.3779 182.192 31.8126 182.091 31.3113 181.888C30.8099 181.685 30.3886 181.397 30.0473 181.024C29.7059 180.651 29.4446 180.203 29.2633 179.68C29.0819 179.147 28.9913 178.549 28.9913 177.888C28.9913 177.227 29.0819 176.629 29.2633 176.096C29.4553 175.563 29.7166 175.109 30.0473 174.736C30.3886 174.352 30.7993 174.059 31.2793 173.856C31.7593 173.653 32.2926 173.552 32.8793 173.552C33.4553 173.552 33.9779 173.653 34.4473 173.856C34.9166 174.048 35.3166 174.325 35.6473 174.688C35.9779 175.051 36.2286 175.483 36.3993 175.984C36.5806 176.485 36.6713 177.04 36.6713 177.648V178.304H30.7513V178.576C30.7513 179.227 30.9539 179.76 31.3593 180.176C31.7646 180.581 32.3246 180.784 33.0393 180.784C33.5726 180.784 34.0259 180.672 34.3993 180.448C34.7833 180.213 35.0926 179.904 35.3273 179.52L36.4153 180.48C36.1379 180.96 35.7113 181.365 35.1353 181.696C34.5699 182.027 33.8606 182.192 33.0073 182.192ZM32.8793 174.88C32.5699 174.88 32.2819 174.933 32.0153 175.04C31.7593 175.147 31.5353 175.301 31.3433 175.504C31.1619 175.696 31.0179 175.925 30.9113 176.192C30.8046 176.459 30.7513 176.752 30.7513 177.072V177.184H34.8953V177.024C34.8953 176.373 34.7086 175.856 34.3353 175.472C33.9726 175.077 33.4873 174.88 32.8793 174.88ZM44.137 180.592H44.057C43.9717 180.805 43.8597 181.013 43.721 181.216C43.593 181.408 43.433 181.579 43.241 181.728C43.049 181.867 42.825 181.979 42.569 182.064C42.313 182.149 42.0143 182.192 41.673 182.192C40.841 182.192 40.169 181.92 39.657 181.376C39.145 180.832 38.889 180.059 38.889 179.056V173.744H40.633V178.8C40.633 180.112 41.2037 180.768 42.345 180.768C42.569 180.768 42.7877 180.741 43.001 180.688C43.2143 180.624 43.4063 180.533 43.577 180.416C43.7477 180.299 43.881 180.155 43.977 179.984C44.0837 179.803 44.137 179.589 44.137 179.344V173.744H45.881V182H44.137V180.592ZM52.5148 182C51.7894 182 51.2561 181.808 50.9148 181.424C50.5734 181.029 50.4028 180.523 50.4028 179.904V175.152H47.8588V173.744H49.6668C49.9761 173.744 50.1948 173.685 50.3228 173.568C50.4508 173.44 50.5148 173.216 50.5148 172.896V170.832H52.1468V173.744H55.6667V175.152H52.1468V180.592H55.6667V182H52.5148ZM61.7885 182.192C61.1592 182.192 60.5938 182.091 60.0925 181.888C59.5912 181.685 59.1698 181.397 58.8285 181.024C58.4872 180.651 58.2258 180.203 58.0445 179.68C57.8632 179.147 57.7725 178.549 57.7725 177.888C57.7725 177.227 57.8632 176.629 58.0445 176.096C58.2365 175.563 58.4978 175.109 58.8285 174.736C59.1698 174.352 59.5805 174.059 60.0605 173.856C60.5405 173.653 61.0738 173.552 61.6605 173.552C62.2365 173.552 62.7592 173.653 63.2285 173.856C63.6978 174.048 64.0978 174.325 64.4285 174.688C64.7592 175.051 65.0098 175.483 65.1805 175.984C65.3618 176.485 65.4525 177.04 65.4525 177.648V178.304H59.5325V178.576C59.5325 179.227 59.7352 179.76 60.1405 180.176C60.5458 180.581 61.1058 180.784 61.8205 180.784C62.3538 180.784 62.8072 180.672 63.1805 180.448C63.5645 180.213 63.8738 179.904 64.1085 179.52L65.1965 180.48C64.9192 180.96 64.4925 181.365 63.9165 181.696C63.3512 182.027 62.6418 182.192 61.7885 182.192ZM61.6605 174.88C61.3512 174.88 61.0632 174.933 60.7965 175.04C60.5405 175.147 60.3165 175.301 60.1245 175.504C59.9432 175.696 59.7992 175.925 59.6925 176.192C59.5858 176.459 59.5325 176.752 59.5325 177.072V177.184H63.6765V177.024C63.6765 176.373 63.4898 175.856 63.1165 175.472C62.7538 175.077 62.2685 174.88 61.6605 174.88ZM67.6223 180.592H69.8143V175.152H67.6223V173.744H71.5583V175.936H71.6543C71.7289 175.648 71.8356 175.371 71.9743 175.104C72.1129 174.837 72.2889 174.608 72.5023 174.416C72.7156 174.213 72.9769 174.053 73.2863 173.936C73.5956 173.808 73.9583 173.744 74.3743 173.744H75.3663V175.408H73.7343C73.0943 175.408 72.5716 175.6 72.1663 175.984C71.7609 176.357 71.5583 176.864 71.5583 177.504V180.592H74.5503V182H67.6223V180.592ZM83.872 182C83.3707 182 82.992 181.872 82.736 181.616C82.4907 181.36 82.3413 181.024 82.288 180.608H82.208C82.048 181.109 81.7547 181.499 81.328 181.776C80.912 182.053 80.3787 182.192 79.728 182.192C78.8853 182.192 78.2133 181.973 77.712 181.536C77.2107 181.088 76.96 180.475 76.96 179.696C76.96 178.896 77.2533 178.288 77.84 177.872C78.4373 177.445 79.3493 177.232 80.576 177.232H82.16V176.592C82.16 175.472 81.568 174.912 80.384 174.912C79.8507 174.912 79.4187 175.019 79.088 175.232C78.7573 175.435 78.48 175.707 78.256 176.048L77.216 175.2C77.4507 174.752 77.8453 174.368 78.4 174.048C78.9547 173.717 79.6693 173.552 80.544 173.552C81.5893 173.552 82.4107 173.803 83.008 174.304C83.6053 174.805 83.904 175.531 83.904 176.48V180.624H84.944V182H83.872ZM80.224 180.912C80.7893 180.912 81.2533 180.784 81.616 180.528C81.9787 180.272 82.16 179.941 82.16 179.536V178.336H80.608C79.3493 178.336 78.72 178.715 78.72 179.472V179.792C78.72 180.165 78.8533 180.448 79.12 180.64C79.3867 180.821 79.7547 180.912 80.224 180.912ZM86.9378 182V173.744H88.6818V175.152H88.7618C88.8471 174.939 88.9538 174.736 89.0818 174.544C89.2204 174.341 89.3858 174.171 89.5778 174.032C89.7698 173.883 89.9938 173.765 90.2498 173.68C90.5058 173.595 90.8044 173.552 91.1458 173.552C91.9778 173.552 92.6498 173.824 93.1618 174.368C93.6738 174.912 93.9298 175.685 93.9298 176.688V182H92.1858V176.944C92.1858 175.632 91.6151 174.976 90.4738 174.976C90.2498 174.976 90.0311 175.008 89.8177 175.072C89.6044 175.125 89.4124 175.211 89.2418 175.328C89.0711 175.445 88.9324 175.595 88.8258 175.776C88.7298 175.957 88.6818 176.165 88.6818 176.4V182H86.9378ZM99.9875 182.192C99.3795 182.192 98.8302 182.091 98.3395 181.888C97.8595 181.685 97.4488 181.397 97.1075 181.024C96.7768 180.651 96.5208 180.197 96.3395 179.664C96.1582 179.131 96.0675 178.533 96.0675 177.872C96.0675 177.211 96.1582 176.613 96.3395 176.08C96.5208 175.547 96.7768 175.093 97.1075 174.72C97.4488 174.347 97.8595 174.059 98.3395 173.856C98.8302 173.653 99.3795 173.552 99.9875 173.552C100.596 173.552 101.14 173.653 101.62 173.856C102.11 174.059 102.521 174.347 102.852 174.72C103.193 175.093 103.454 175.547 103.635 176.08C103.817 176.613 103.908 177.211 103.908 177.872C103.908 178.533 103.817 179.131 103.635 179.664C103.454 180.197 103.193 180.651 102.852 181.024C102.521 181.397 102.11 181.685 101.62 181.888C101.14 182.091 100.596 182.192 99.9875 182.192ZM99.9875 180.816C100.628 180.816 101.134 180.624 101.508 180.24C101.892 179.845 102.084 179.264 102.084 178.496V177.248C102.084 176.48 101.892 175.904 101.508 175.52C101.134 175.125 100.628 174.928 99.9875 174.928C99.3475 174.928 98.8355 175.125 98.4515 175.52C98.0782 175.904 97.8915 176.48 97.8915 177.248V178.496C97.8915 179.264 98.0782 179.845 98.4515 180.24C98.8355 180.624 99.3475 180.816 99.9875 180.816ZM106.045 173.744H107.789V175.152H107.885C108.131 174.651 108.456 174.261 108.861 173.984C109.267 173.696 109.773 173.552 110.381 173.552C111.352 173.552 112.125 173.915 112.701 174.64C113.277 175.365 113.565 176.443 113.565 177.872C113.565 179.301 113.277 180.379 112.701 181.104C112.125 181.829 111.352 182.192 110.381 182.192C109.773 182.192 109.267 182.053 108.861 181.776C108.456 181.488 108.131 181.093 107.885 180.592H107.789V185.2H106.045V173.744ZM109.661 180.768C110.323 180.768 110.829 180.565 111.181 180.16C111.544 179.755 111.725 179.216 111.725 178.544V177.2C111.725 176.528 111.544 175.989 111.181 175.584C110.829 175.179 110.323 174.976 109.661 174.976C109.405 174.976 109.165 175.008 108.941 175.072C108.717 175.136 108.52 175.232 108.349 175.36C108.179 175.488 108.04 175.648 107.933 175.84C107.837 176.021 107.789 176.24 107.789 176.496V179.248C107.789 179.504 107.837 179.728 107.933 179.92C108.04 180.101 108.179 180.256 108.349 180.384C108.52 180.512 108.717 180.608 108.941 180.672C109.165 180.736 109.405 180.768 109.661 180.768ZM119.687 172.24C119.239 172.24 118.924 172.149 118.743 171.968C118.572 171.787 118.487 171.563 118.487 171.296V170.96C118.487 170.693 118.572 170.469 118.743 170.288C118.924 170.107 119.234 170.016 119.671 170.016C120.119 170.016 120.428 170.107 120.599 170.288C120.78 170.469 120.871 170.693 120.871 170.96V171.296C120.871 171.563 120.78 171.787 120.599 171.968C120.428 172.149 120.124 172.24 119.687 172.24ZM115.991 180.592H118.807V175.152H115.991V173.744H120.551V180.592H123.191V182H115.991V180.592ZM131.841 182C131.339 182 130.961 181.872 130.705 181.616C130.459 181.36 130.31 181.024 130.257 180.608H130.177C130.017 181.109 129.723 181.499 129.297 181.776C128.881 182.053 128.347 182.192 127.697 182.192C126.854 182.192 126.182 181.973 125.681 181.536C125.179 181.088 124.929 180.475 124.929 179.696C124.929 178.896 125.222 178.288 125.809 177.872C126.406 177.445 127.318 177.232 128.545 177.232H130.129V176.592C130.129 175.472 129.537 174.912 128.353 174.912C127.819 174.912 127.387 175.019 127.057 175.232C126.726 175.435 126.449 175.707 126.225 176.048L125.185 175.2C125.419 174.752 125.814 174.368 126.369 174.048C126.923 173.717 127.638 173.552 128.513 173.552C129.558 173.552 130.379 173.803 130.977 174.304C131.574 174.805 131.873 175.531 131.873 176.48V180.624H132.913V182H131.841ZM128.193 180.912C128.758 180.912 129.222 180.784 129.585 180.528C129.947 180.272 130.129 179.941 130.129 179.536V178.336H128.577C127.318 178.336 126.689 178.715 126.689 179.472V179.792C126.689 180.165 126.822 180.448 127.089 180.64C127.355 180.821 127.723 180.912 128.193 180.912Z" fill="#242424"/>
<rect x="156.5" y="152.5" width="151" height="46" rx="2.5" fill="#FCFEFB"/>
<rect x="156.5" y="152.5" width="151" height="46" rx="2.5" stroke="#242424"/>
<path d="M189.727 172.336V182H187.935V172.336H184.431V170.832H193.231V172.336H189.727ZM194.841 180.592H197.033V175.152H194.841V173.744H198.777V175.936H198.873C198.948 175.648 199.054 175.371 199.193 175.104C199.332 174.837 199.508 174.608 199.721 174.416C199.934 174.213 200.196 174.053 200.505 173.936C200.814 173.808 201.177 173.744 201.593 173.744H202.585V175.408H200.953C200.313 175.408 199.79 175.6 199.385 175.984C198.98 176.357 198.777 176.864 198.777 177.504V180.592H201.769V182H194.841V180.592ZM208.531 172.24C208.083 172.24 207.768 172.149 207.587 171.968C207.416 171.787 207.331 171.563 207.331 171.296V170.96C207.331 170.693 207.416 170.469 207.587 170.288C207.768 170.107 208.077 170.016 208.515 170.016C208.963 170.016 209.272 170.107 209.443 170.288C209.624 170.469 209.715 170.693 209.715 170.96V171.296C209.715 171.563 209.624 171.787 209.443 171.968C209.272 172.149 208.968 172.24 208.531 172.24ZM204.835 180.592H207.651V175.152H204.835V173.744H209.395V180.592H212.035V182H204.835V180.592ZM218.109 182C217.383 182 216.85 181.808 216.509 181.424C216.167 181.029 215.997 180.523 215.997 179.904V175.152H213.453V173.744H215.261C215.57 173.744 215.789 173.685 215.917 173.568C216.045 173.44 216.109 173.216 216.109 172.896V170.832H217.741V173.744H221.26V175.152H217.741V180.592H221.26V182H218.109ZM230.278 182C229.777 182 229.398 181.872 229.142 181.616C228.897 181.36 228.748 181.024 228.694 180.608H228.614C228.454 181.109 228.161 181.499 227.734 181.776C227.318 182.053 226.785 182.192 226.134 182.192C225.292 182.192 224.62 181.973 224.118 181.536C223.617 181.088 223.366 180.475 223.366 179.696C223.366 178.896 223.66 178.288 224.246 177.872C224.844 177.445 225.756 177.232 226.982 177.232H228.566V176.592C228.566 175.472 227.974 174.912 226.79 174.912C226.257 174.912 225.825 175.019 225.494 175.232C225.164 175.435 224.886 175.707 224.662 176.048L223.622 175.2C223.857 174.752 224.252 174.368 224.806 174.048C225.361 173.717 226.076 173.552 226.95 173.552C227.996 173.552 228.817 173.803 229.414 174.304C230.012 174.805 230.31 175.531 230.31 176.48V180.624H231.35V182H230.278ZM226.63 180.912C227.196 180.912 227.66 180.784 228.022 180.528C228.385 180.272 228.566 179.941 228.566 179.536V178.336H227.014C225.756 178.336 225.126 178.715 225.126 179.472V179.792C225.126 180.165 225.26 180.448 225.526 180.64C225.793 180.821 226.161 180.912 226.63 180.912ZM233.344 182V173.744H235.088V175.152H235.168C235.253 174.939 235.36 174.736 235.488 174.544C235.627 174.341 235.792 174.171 235.984 174.032C236.176 173.883 236.4 173.765 236.656 173.68C236.912 173.595 237.211 173.552 237.552 173.552C238.384 173.552 239.056 173.824 239.568 174.368C240.08 174.912 240.336 175.685 240.336 176.688V182H238.592V176.944C238.592 175.632 238.021 174.976 236.88 174.976C236.656 174.976 236.437 175.008 236.224 175.072C236.011 175.125 235.819 175.211 235.648 175.328C235.477 175.445 235.339 175.595 235.232 175.776C235.136 175.957 235.088 176.165 235.088 176.4V182H233.344ZM246.394 182.192C245.786 182.192 245.236 182.091 244.746 181.888C244.266 181.685 243.855 181.397 243.514 181.024C243.183 180.651 242.927 180.197 242.746 179.664C242.564 179.131 242.474 178.533 242.474 177.872C242.474 177.211 242.564 176.613 242.746 176.08C242.927 175.547 243.183 175.093 243.514 174.72C243.855 174.347 244.266 174.059 244.746 173.856C245.236 173.653 245.786 173.552 246.394 173.552C247.002 173.552 247.546 173.653 248.026 173.856C248.516 174.059 248.927 174.347 249.258 174.72C249.599 175.093 249.86 175.547 250.042 176.08C250.223 176.613 250.314 177.211 250.314 177.872C250.314 178.533 250.223 179.131 250.042 179.664C249.86 180.197 249.599 180.651 249.258 181.024C248.927 181.397 248.516 181.685 248.026 181.888C247.546 182.091 247.002 182.192 246.394 182.192ZM246.394 180.816C247.034 180.816 247.54 180.624 247.914 180.24C248.298 179.845 248.49 179.264 248.49 178.496V177.248C248.49 176.48 248.298 175.904 247.914 175.52C247.54 175.125 247.034 174.928 246.394 174.928C245.754 174.928 245.242 175.125 244.858 175.52C244.484 175.904 244.298 176.48 244.298 177.248V178.496C244.298 179.264 244.484 179.845 244.858 180.24C245.242 180.624 245.754 180.816 246.394 180.816ZM252.452 173.744H254.196V175.152H254.292C254.537 174.651 254.862 174.261 255.268 173.984C255.673 173.696 256.18 173.552 256.788 173.552C257.758 173.552 258.532 173.915 259.108 174.64C259.684 175.365 259.972 176.443 259.972 177.872C259.972 179.301 259.684 180.379 259.108 181.104C258.532 181.829 257.758 182.192 256.788 182.192C256.18 182.192 255.673 182.053 255.268 181.776C254.862 181.488 254.537 181.093 254.292 180.592H254.196V185.2H252.452V173.744ZM256.068 180.768C256.729 180.768 257.236 180.565 257.588 180.16C257.95 179.755 258.132 179.216 258.132 178.544V177.2C258.132 176.528 257.95 175.989 257.588 175.584C257.236 175.179 256.729 174.976 256.068 174.976C255.812 174.976 255.572 175.008 255.348 175.072C255.124 175.136 254.926 175.232 254.756 175.36C254.585 175.488 254.446 175.648 254.34 175.84C254.244 176.021 254.196 176.24 254.196 176.496V179.248C254.196 179.504 254.244 179.728 254.34 179.92C254.446 180.101 254.585 180.256 254.756 180.384C254.926 180.512 255.124 180.608 255.348 180.672C255.572 180.736 255.812 180.768 256.068 180.768ZM266.093 172.24C265.645 172.24 265.331 172.149 265.149 171.968C264.979 171.787 264.893 171.563 264.893 171.296V170.96C264.893 170.693 264.979 170.469 265.149 170.288C265.331 170.107 265.64 170.016 266.077 170.016C266.525 170.016 266.835 170.107 267.005 170.288C267.187 170.469 267.277 170.693 267.277 170.96V171.296C267.277 171.563 267.187 171.787 267.005 171.968C266.835 172.149 266.531 172.24 266.093 172.24ZM262.397 180.592H265.213V175.152H262.397V173.744H266.957V180.592H269.597V182H262.397V180.592ZM278.247 182C277.746 182 277.367 181.872 277.111 181.616C276.866 181.36 276.716 181.024 276.663 180.608H276.583C276.423 181.109 276.13 181.499 275.703 181.776C275.287 182.053 274.754 182.192 274.103 182.192C273.26 182.192 272.588 181.973 272.087 181.536C271.586 181.088 271.335 180.475 271.335 179.696C271.335 178.896 271.628 178.288 272.215 177.872C272.812 177.445 273.724 177.232 274.951 177.232H276.535V176.592C276.535 175.472 275.943 174.912 274.759 174.912C274.226 174.912 273.794 175.019 273.463 175.232C273.132 175.435 272.855 175.707 272.631 176.048L271.591 175.2C271.826 174.752 272.22 174.368 272.775 174.048C273.33 173.717 274.044 173.552 274.919 173.552C275.964 173.552 276.786 173.803 277.383 174.304C277.98 174.805 278.279 175.531 278.279 176.48V180.624H279.319V182H278.247ZM274.599 180.912C275.164 180.912 275.628 180.784 275.991 180.528C276.354 180.272 276.535 179.941 276.535 179.536V178.336H274.983C273.724 178.336 273.095 178.715 273.095 179.472V179.792C273.095 180.165 273.228 180.448 273.495 180.64C273.762 180.821 274.13 180.912 274.599 180.912Z" fill="#242424"/>
<rect x="0.5" y="203.5" width="151" height="46" rx="2.5" fill="#FCFEFB"/>
<rect x="0.5" y="203.5" width="151" height="46" rx="2.5" stroke="#242424"/>
<path d="M25.5575 227.656L25.6055 224.296H25.4775L23.2375 230.04L20.9975 224.296H20.8695L20.9175 227.656V233H19.3335V221.832H21.5255L23.2375 226.264H23.3495L25.0775 221.832H27.1415V233H25.5575V227.656ZM32.8313 233.192C32.2233 233.192 31.6739 233.091 31.1833 232.888C30.7033 232.685 30.2926 232.397 29.9513 232.024C29.6206 231.651 29.3646 231.197 29.1833 230.664C29.0019 230.131 28.9113 229.533 28.9113 228.872C28.9113 228.211 29.0019 227.613 29.1833 227.08C29.3646 226.547 29.6206 226.093 29.9513 225.72C30.2926 225.347 30.7033 225.059 31.1833 224.856C31.6739 224.653 32.2233 224.552 32.8313 224.552C33.4393 224.552 33.9833 224.653 34.4633 224.856C34.9539 225.059 35.3646 225.347 35.6953 225.72C36.0366 226.093 36.2979 226.547 36.4792 227.08C36.6606 227.613 36.7513 228.211 36.7513 228.872C36.7513 229.533 36.6606 230.131 36.4792 230.664C36.2979 231.197 36.0366 231.651 35.6953 232.024C35.3646 232.397 34.9539 232.685 34.4633 232.888C33.9833 233.091 33.4393 233.192 32.8313 233.192ZM32.8313 231.816C33.4713 231.816 33.9779 231.624 34.3513 231.24C34.7353 230.845 34.9273 230.264 34.9273 229.496V228.248C34.9273 227.48 34.7353 226.904 34.3513 226.52C33.9779 226.125 33.4713 225.928 32.8313 225.928C32.1913 225.928 31.6793 226.125 31.2953 226.52C30.9219 226.904 30.7353 227.48 30.7353 228.248V229.496C30.7353 230.264 30.9219 230.845 31.2953 231.24C31.6793 231.624 32.1913 231.816 32.8313 231.816ZM38.969 233V224.744H40.713V226.152H40.793C40.8783 225.939 40.985 225.736 41.113 225.544C41.2517 225.341 41.417 225.171 41.609 225.032C41.801 224.883 42.025 224.765 42.281 224.68C42.537 224.595 42.8357 224.552 43.177 224.552C44.009 224.552 44.681 224.824 45.193 225.368C45.705 225.912 45.961 226.685 45.961 227.688V233H44.217V227.944C44.217 226.632 43.6463 225.976 42.505 225.976C42.281 225.976 42.0623 226.008 41.849 226.072C41.6357 226.125 41.4437 226.211 41.273 226.328C41.1023 226.445 40.9637 226.595 40.857 226.776C40.761 226.957 40.713 227.165 40.713 227.4V233H38.969ZM52.0188 233.192C51.4108 233.192 50.8614 233.091 50.3708 232.888C49.8908 232.685 49.4801 232.397 49.1388 232.024C48.8081 231.651 48.5521 231.197 48.3708 230.664C48.1894 230.131 48.0988 229.533 48.0988 228.872C48.0988 228.211 48.1894 227.613 48.3708 227.08C48.5521 226.547 48.8081 226.093 49.1388 225.72C49.4801 225.347 49.8908 225.059 50.3708 224.856C50.8614 224.653 51.4108 224.552 52.0188 224.552C52.6268 224.552 53.1708 224.653 53.6508 224.856C54.1414 225.059 54.5521 225.347 54.8828 225.72C55.2241 226.093 55.4854 226.547 55.6667 227.08C55.8481 227.613 55.9388 228.211 55.9388 228.872C55.9388 229.533 55.8481 230.131 55.6667 230.664C55.4854 231.197 55.2241 231.651 54.8828 232.024C54.5521 232.397 54.1414 232.685 53.6508 232.888C53.1708 233.091 52.6268 233.192 52.0188 233.192ZM52.0188 231.816C52.6588 231.816 53.1654 231.624 53.5388 231.24C53.9228 230.845 54.1148 230.264 54.1148 229.496V228.248C54.1148 227.48 53.9228 226.904 53.5388 226.52C53.1654 226.125 52.6588 225.928 52.0188 225.928C51.3788 225.928 50.8668 226.125 50.4828 226.52C50.1094 226.904 49.9228 227.48 49.9228 228.248V229.496C49.9228 230.264 50.1094 230.845 50.4828 231.24C50.8668 231.624 51.3788 231.816 52.0188 231.816ZM61.9165 233.192C61.2978 233.192 60.7432 233.091 60.2525 232.888C59.7725 232.685 59.3618 232.397 59.0205 232.024C58.6898 231.651 58.4338 231.197 58.2525 230.664C58.0818 230.131 57.9965 229.533 57.9965 228.872C57.9965 228.211 58.0818 227.613 58.2525 227.08C58.4338 226.547 58.6898 226.093 59.0205 225.72C59.3618 225.347 59.7725 225.059 60.2525 224.856C60.7432 224.653 61.2925 224.552 61.9005 224.552C62.7538 224.552 63.4365 224.733 63.9485 225.096C64.4712 225.459 64.8605 225.928 65.1165 226.504L63.7565 227.24C63.6072 226.856 63.3778 226.552 63.0685 226.328C62.7698 226.104 62.3805 225.992 61.9005 225.992C61.2392 225.992 60.7272 226.195 60.3645 226.6C60.0018 226.995 59.8205 227.523 59.8205 228.184V229.56C59.8205 230.211 60.0018 230.739 60.3645 231.144C60.7272 231.549 61.2498 231.752 61.9325 231.752C62.4445 231.752 62.8605 231.635 63.1805 231.4C63.5112 231.165 63.7725 230.845 63.9645 230.44L65.2445 231.224C64.9778 231.8 64.5725 232.275 64.0285 232.648C63.4845 233.011 62.7805 233.192 61.9165 233.192ZM67.7503 221.16H69.4943V226.152H69.5743C69.6596 225.939 69.7663 225.736 69.8943 225.544C70.0329 225.341 70.1983 225.171 70.3903 225.032C70.5823 224.883 70.8063 224.765 71.0623 224.68C71.3183 224.595 71.6169 224.552 71.9583 224.552C72.7903 224.552 73.4623 224.824 73.9743 225.368C74.4863 225.912 74.7423 226.685 74.7423 227.688V233H72.9983V227.944C72.9983 226.632 72.4276 225.976 71.2863 225.976C71.0623 225.976 70.8436 226.008 70.6302 226.072C70.4169 226.125 70.2249 226.211 70.0543 226.328C69.8836 226.445 69.7449 226.595 69.6383 226.776C69.5423 226.957 69.4943 227.165 69.4943 227.4V233H67.7503V221.16ZM77.216 231.592H79.408V226.152H77.216V224.744H81.152V226.936H81.248C81.3227 226.648 81.4293 226.371 81.568 226.104C81.7067 225.837 81.8827 225.608 82.096 225.416C82.3093 225.213 82.5707 225.053 82.88 224.936C83.1893 224.808 83.552 224.744 83.968 224.744H84.96V226.408H83.328C82.688 226.408 82.1653 226.6 81.76 226.984C81.3547 227.357 81.152 227.864 81.152 228.504V231.592H84.144V233H77.216V231.592ZM90.3938 233.192C89.7858 233.192 89.2364 233.091 88.7458 232.888C88.2658 232.685 87.8551 232.397 87.5138 232.024C87.1831 231.651 86.9271 231.197 86.7458 230.664C86.5644 230.131 86.4738 229.533 86.4738 228.872C86.4738 228.211 86.5644 227.613 86.7458 227.08C86.9271 226.547 87.1831 226.093 87.5138 225.72C87.8551 225.347 88.2658 225.059 88.7458 224.856C89.2364 224.653 89.7858 224.552 90.3938 224.552C91.0018 224.552 91.5458 224.653 92.0258 224.856C92.5164 225.059 92.9271 225.347 93.2578 225.72C93.5991 226.093 93.8604 226.547 94.0417 227.08C94.2231 227.613 94.3138 228.211 94.3138 228.872C94.3138 229.533 94.2231 230.131 94.0417 230.664C93.8604 231.197 93.5991 231.651 93.2578 232.024C92.9271 232.397 92.5164 232.685 92.0258 232.888C91.5458 233.091 91.0018 233.192 90.3938 233.192ZM90.3938 231.816C91.0338 231.816 91.5404 231.624 91.9138 231.24C92.2978 230.845 92.4898 230.264 92.4898 229.496V228.248C92.4898 227.48 92.2978 226.904 91.9138 226.52C91.5404 226.125 91.0338 225.928 90.3938 225.928C89.7538 225.928 89.2418 226.125 88.8578 226.52C88.4844 226.904 88.2978 227.48 88.2978 228.248V229.496C88.2978 230.264 88.4844 230.845 88.8578 231.24C89.2418 231.624 89.7538 231.816 90.3938 231.816ZM95.8915 233V224.744H97.3795V225.816H97.4595C97.5875 225.464 97.7688 225.165 98.0035 224.92C98.2488 224.675 98.5955 224.552 99.0435 224.552C99.4808 224.552 99.8168 224.675 100.052 224.92C100.297 225.155 100.452 225.48 100.516 225.896H100.58C100.729 225.523 100.937 225.208 101.204 224.952C101.47 224.685 101.854 224.552 102.356 224.552C102.996 224.552 103.438 224.776 103.684 225.224C103.94 225.672 104.068 226.328 104.068 227.192V233H102.58V227.416C102.58 226.84 102.51 226.445 102.372 226.232C102.233 226.008 102.009 225.896 101.7 225.896C101.422 225.896 101.188 225.992 100.996 226.184C100.814 226.365 100.724 226.643 100.724 227.016V233H99.2355V227.416C99.2355 226.84 99.1662 226.445 99.0275 226.232C98.8995 226.008 98.6808 225.896 98.3715 225.896C98.0835 225.896 97.8435 225.992 97.6515 226.184C97.4702 226.365 97.3795 226.643 97.3795 227.016V233H95.8915ZM112.653 233C112.152 233 111.773 232.872 111.517 232.616C111.272 232.36 111.123 232.024 111.069 231.608H110.989C110.829 232.109 110.536 232.499 110.109 232.776C109.693 233.053 109.16 233.192 108.509 233.192C107.667 233.192 106.995 232.973 106.493 232.536C105.992 232.088 105.741 231.475 105.741 230.696C105.741 229.896 106.035 229.288 106.621 228.872C107.219 228.445 108.131 228.232 109.357 228.232H110.941V227.592C110.941 226.472 110.349 225.912 109.165 225.912C108.632 225.912 108.2 226.019 107.869 226.232C107.539 226.435 107.261 226.707 107.037 227.048L105.997 226.2C106.232 225.752 106.627 225.368 107.181 225.048C107.736 224.717 108.451 224.552 109.325 224.552C110.371 224.552 111.192 224.803 111.789 225.304C112.387 225.805 112.685 226.531 112.685 227.48V231.624H113.725V233H112.653ZM109.005 231.912C109.571 231.912 110.035 231.784 110.397 231.528C110.76 231.272 110.941 230.941 110.941 230.536V229.336H109.389C108.131 229.336 107.501 229.715 107.501 230.472V230.792C107.501 231.165 107.635 231.448 107.901 231.64C108.168 231.821 108.536 231.912 109.005 231.912ZM119.479 233.192C118.86 233.192 118.306 233.091 117.815 232.888C117.335 232.685 116.924 232.397 116.583 232.024C116.252 231.651 115.996 231.197 115.815 230.664C115.644 230.131 115.559 229.533 115.559 228.872C115.559 228.211 115.644 227.613 115.815 227.08C115.996 226.547 116.252 226.093 116.583 225.72C116.924 225.347 117.335 225.059 117.815 224.856C118.306 224.653 118.855 224.552 119.463 224.552C120.316 224.552 120.999 224.733 121.511 225.096C122.034 225.459 122.423 225.928 122.679 226.504L121.319 227.24C121.17 226.856 120.94 226.552 120.631 226.328C120.332 226.104 119.943 225.992 119.463 225.992C118.802 225.992 118.29 226.195 117.927 226.6C117.564 226.995 117.383 227.523 117.383 228.184V229.56C117.383 230.211 117.564 230.739 117.927 231.144C118.29 231.549 118.812 231.752 119.495 231.752C120.007 231.752 120.423 231.635 120.743 231.4C121.074 231.165 121.335 230.845 121.527 230.44L122.807 231.224C122.54 231.8 122.135 232.275 121.591 232.648C121.047 233.011 120.343 233.192 119.479 233.192ZM131.185 224.744H132.945L128.945 234.6C128.731 235.133 128.449 235.533 128.097 235.8C127.755 236.067 127.259 236.2 126.609 236.2H125.217V234.792H127.169L127.921 232.888L124.593 224.744H126.417L127.729 228.2L128.753 231.032H128.849L129.873 228.2L131.185 224.744Z" fill="#242424"/>
<rect x="156.5" y="203.5" width="151" height="46" rx="2.5" fill="#FCFEFB"/>
<rect x="156.5" y="203.5" width="151" height="46" rx="2.5" stroke="#242424"/>
<path d="M177.033 233L176.185 230.024H172.633L171.785 233H169.961L173.225 221.832H175.673L178.937 233H177.033ZM174.473 223.64H174.345L172.969 228.536H175.849L174.473 223.64ZM184.338 233.192C183.72 233.192 183.165 233.091 182.674 232.888C182.194 232.685 181.784 232.397 181.442 232.024C181.112 231.651 180.856 231.197 180.674 230.664C180.504 230.131 180.418 229.533 180.418 228.872C180.418 228.211 180.504 227.613 180.674 227.08C180.856 226.547 181.112 226.093 181.442 225.72C181.784 225.347 182.194 225.059 182.674 224.856C183.165 224.653 183.714 224.552 184.322 224.552C185.176 224.552 185.858 224.733 186.37 225.096C186.893 225.459 187.282 225.928 187.538 226.504L186.178 227.24C186.029 226.856 185.8 226.552 185.49 226.328C185.192 226.104 184.802 225.992 184.322 225.992C183.661 225.992 183.149 226.195 182.786 226.6C182.424 226.995 182.242 227.523 182.242 228.184V229.56C182.242 230.211 182.424 230.739 182.786 231.144C183.149 231.549 183.672 231.752 184.354 231.752C184.866 231.752 185.282 231.635 185.602 231.4C185.933 231.165 186.194 230.845 186.386 230.44L187.666 231.224C187.4 231.8 186.994 232.275 186.45 232.648C185.906 233.011 185.202 233.192 184.338 233.192ZM190.172 221.16H191.916V226.152H191.996C192.081 225.939 192.188 225.736 192.316 225.544C192.455 225.341 192.62 225.171 192.812 225.032C193.004 224.883 193.228 224.765 193.484 224.68C193.74 224.595 194.039 224.552 194.38 224.552C195.212 224.552 195.884 224.824 196.396 225.368C196.908 225.912 197.164 226.685 197.164 227.688V233H195.42V227.944C195.42 226.632 194.849 225.976 193.708 225.976C193.484 225.976 193.265 226.008 193.052 226.072C192.839 226.125 192.647 226.211 192.476 226.328C192.305 226.445 192.167 226.595 192.06 226.776C191.964 226.957 191.916 227.165 191.916 227.4V233H190.172V221.16ZM199.638 231.592H201.83V226.152H199.638V224.744H203.574V226.936H203.67C203.745 226.648 203.851 226.371 203.99 226.104C204.129 225.837 204.305 225.608 204.518 225.416C204.731 225.213 204.993 225.053 205.302 224.936C205.611 224.808 205.974 224.744 206.39 224.744H207.382V226.408H205.75C205.11 226.408 204.587 226.6 204.182 226.984C203.777 227.357 203.574 227.864 203.574 228.504V231.592H206.566V233H199.638V231.592ZM212.816 233.192C212.208 233.192 211.658 233.091 211.168 232.888C210.688 232.685 210.277 232.397 209.936 232.024C209.605 231.651 209.349 231.197 209.168 230.664C208.986 230.131 208.896 229.533 208.896 228.872C208.896 228.211 208.986 227.613 209.168 227.08C209.349 226.547 209.605 226.093 209.936 225.72C210.277 225.347 210.688 225.059 211.168 224.856C211.658 224.653 212.208 224.552 212.816 224.552C213.424 224.552 213.968 224.653 214.448 224.856C214.938 225.059 215.349 225.347 215.68 225.72C216.021 226.093 216.282 226.547 216.464 227.08C216.645 227.613 216.736 228.211 216.736 228.872C216.736 229.533 216.645 230.131 216.464 230.664C216.282 231.197 216.021 231.651 215.68 232.024C215.349 232.397 214.938 232.685 214.448 232.888C213.968 233.091 213.424 233.192 212.816 233.192ZM212.816 231.816C213.456 231.816 213.962 231.624 214.336 231.24C214.72 230.845 214.912 230.264 214.912 229.496V228.248C214.912 227.48 214.72 226.904 214.336 226.52C213.962 226.125 213.456 225.928 212.816 225.928C212.176 225.928 211.664 226.125 211.28 226.52C210.906 226.904 210.72 227.48 210.72 228.248V229.496C210.72 230.264 210.906 230.845 211.28 231.24C211.664 231.624 212.176 231.816 212.816 231.816ZM218.313 233V224.744H219.801V225.816H219.881C220.009 225.464 220.191 225.165 220.425 224.92C220.671 224.675 221.017 224.552 221.465 224.552C221.903 224.552 222.239 224.675 222.473 224.92C222.719 225.155 222.873 225.48 222.937 225.896H223.001C223.151 225.523 223.359 225.208 223.625 224.952C223.892 224.685 224.276 224.552 224.777 224.552C225.417 224.552 225.86 224.776 226.105 225.224C226.361 225.672 226.489 226.328 226.489 227.192V233H225.001V227.416C225.001 226.84 224.932 226.445 224.793 226.232C224.655 226.008 224.431 225.896 224.121 225.896C223.844 225.896 223.609 225.992 223.417 226.184C223.236 226.365 223.145 226.643 223.145 227.016V233H221.657V227.416C221.657 226.84 221.588 226.445 221.449 226.232C221.321 226.008 221.103 225.896 220.793 225.896C220.505 225.896 220.265 225.992 220.073 226.184C219.892 226.365 219.801 226.643 219.801 227.016V233H218.313ZM235.075 233C234.574 233 234.195 232.872 233.939 232.616C233.694 232.36 233.544 232.024 233.491 231.608H233.411C233.251 232.109 232.958 232.499 232.531 232.776C232.115 233.053 231.582 233.192 230.931 233.192C230.088 233.192 229.416 232.973 228.915 232.536C228.414 232.088 228.163 231.475 228.163 230.696C228.163 229.896 228.456 229.288 229.043 228.872C229.64 228.445 230.552 228.232 231.779 228.232H233.363V227.592C233.363 226.472 232.771 225.912 231.587 225.912C231.054 225.912 230.622 226.019 230.291 226.232C229.96 226.435 229.683 226.707 229.459 227.048L228.419 226.2C228.654 225.752 229.048 225.368 229.603 225.048C230.158 224.717 230.872 224.552 231.747 224.552C232.792 224.552 233.614 224.803 234.211 225.304C234.808 225.805 235.107 226.531 235.107 227.48V231.624H236.147V233H235.075ZM231.427 231.912C231.992 231.912 232.456 231.784 232.819 231.528C233.182 231.272 233.363 230.941 233.363 230.536V229.336H231.811C230.552 229.336 229.923 229.715 229.923 230.472V230.792C229.923 231.165 230.056 231.448 230.323 231.64C230.59 231.821 230.958 231.912 231.427 231.912ZM242.093 233C241.368 233 240.834 232.808 240.493 232.424C240.152 232.029 239.981 231.523 239.981 230.904V226.152H237.437V224.744H239.245C239.554 224.744 239.773 224.685 239.901 224.568C240.029 224.44 240.093 224.216 240.093 223.896V221.832H241.725V224.744H245.245V226.152H241.725V231.592H245.245V233H242.093ZM251.191 233.192C250.583 233.192 250.033 233.091 249.543 232.888C249.063 232.685 248.652 232.397 248.311 232.024C247.98 231.651 247.724 231.197 247.543 230.664C247.361 230.131 247.271 229.533 247.271 228.872C247.271 228.211 247.361 227.613 247.543 227.08C247.724 226.547 247.98 226.093 248.311 225.72C248.652 225.347 249.063 225.059 249.543 224.856C250.033 224.653 250.583 224.552 251.191 224.552C251.799 224.552 252.343 224.653 252.823 224.856C253.313 225.059 253.724 225.347 254.055 225.72C254.396 226.093 254.657 226.547 254.839 227.08C255.02 227.613 255.111 228.211 255.111 228.872C255.111 229.533 255.02 230.131 254.839 230.664C254.657 231.197 254.396 231.651 254.055 232.024C253.724 232.397 253.313 232.685 252.823 232.888C252.343 233.091 251.799 233.192 251.191 233.192ZM251.191 231.816C251.831 231.816 252.337 231.624 252.711 231.24C253.095 230.845 253.287 230.264 253.287 229.496V228.248C253.287 227.48 253.095 226.904 252.711 226.52C252.337 226.125 251.831 225.928 251.191 225.928C250.551 225.928 250.039 226.125 249.655 226.52C249.281 226.904 249.095 227.48 249.095 228.248V229.496C249.095 230.264 249.281 230.845 249.655 231.24C250.039 231.624 250.551 231.816 251.191 231.816ZM257.248 224.744H258.992V226.152H259.088C259.334 225.651 259.659 225.261 260.064 224.984C260.47 224.696 260.976 224.552 261.584 224.552C262.555 224.552 263.328 224.915 263.904 225.64C264.48 226.365 264.768 227.443 264.768 228.872C264.768 230.301 264.48 231.379 263.904 232.104C263.328 232.829 262.555 233.192 261.584 233.192C260.976 233.192 260.47 233.053 260.064 232.776C259.659 232.488 259.334 232.093 259.088 231.592H258.992V236.2H257.248V224.744ZM260.864 231.768C261.526 231.768 262.032 231.565 262.384 231.16C262.747 230.755 262.928 230.216 262.928 229.544V228.2C262.928 227.528 262.747 226.989 262.384 226.584C262.032 226.179 261.526 225.976 260.864 225.976C260.608 225.976 260.368 226.008 260.144 226.072C259.92 226.136 259.723 226.232 259.552 226.36C259.382 226.488 259.243 226.648 259.136 226.84C259.04 227.021 258.992 227.24 258.992 227.496V230.248C258.992 230.504 259.04 230.728 259.136 230.92C259.243 231.101 259.382 231.256 259.552 231.384C259.723 231.512 259.92 231.608 260.144 231.672C260.368 231.736 260.608 231.768 260.864 231.768ZM270.394 233.192C269.498 233.192 268.725 233.048 268.074 232.76C267.434 232.472 266.917 232.088 266.522 231.608L267.594 230.648C267.957 231.043 268.362 231.347 268.81 231.56C269.269 231.763 269.807 231.864 270.426 231.864C270.991 231.864 271.445 231.768 271.786 231.576C272.138 231.384 272.314 231.085 272.314 230.68C272.314 230.509 272.282 230.365 272.218 230.248C272.154 230.131 272.063 230.035 271.946 229.96C271.829 229.885 271.69 229.827 271.53 229.784C271.381 229.741 271.221 229.709 271.05 229.688L269.738 229.48C269.418 229.437 269.093 229.368 268.762 229.272C268.431 229.176 268.133 229.043 267.866 228.872C267.61 228.691 267.397 228.461 267.226 228.184C267.066 227.907 266.986 227.555 266.986 227.128C266.986 226.285 267.306 225.645 267.946 225.208C268.597 224.771 269.45 224.552 270.506 224.552C271.274 224.552 271.935 224.669 272.49 224.904C273.055 225.128 273.525 225.443 273.898 225.848L272.922 226.872C272.709 226.627 272.405 226.403 272.01 226.2C271.615 225.987 271.093 225.88 270.442 225.88C269.279 225.88 268.698 226.248 268.698 226.984C268.698 227.336 268.821 227.581 269.066 227.72C269.322 227.848 269.621 227.933 269.962 227.976L271.274 228.184C271.605 228.237 271.93 228.307 272.25 228.392C272.581 228.477 272.874 228.611 273.13 228.792C273.397 228.963 273.61 229.187 273.77 229.464C273.941 229.741 274.026 230.093 274.026 230.52C274.026 231.352 273.701 232.008 273.05 232.488C272.41 232.957 271.525 233.192 270.394 233.192ZM280.484 223.24C280.036 223.24 279.721 223.149 279.54 222.968C279.369 222.787 279.284 222.563 279.284 222.296V221.96C279.284 221.693 279.369 221.469 279.54 221.288C279.721 221.107 280.031 221.016 280.468 221.016C280.916 221.016 281.225 221.107 281.396 221.288C281.577 221.469 281.668 221.693 281.668 221.96V222.296C281.668 222.563 281.577 222.787 281.396 222.968C281.225 223.149 280.921 223.24 280.484 223.24ZM276.788 231.592H279.604V226.152H276.788V224.744H281.348V231.592H283.988V233H276.788V231.592ZM292.638 233C292.136 233 291.758 232.872 291.502 232.616C291.256 232.36 291.107 232.024 291.054 231.608H290.974C290.814 232.109 290.52 232.499 290.094 232.776C289.678 233.053 289.144 233.192 288.494 233.192C287.651 233.192 286.979 232.973 286.478 232.536C285.976 232.088 285.726 231.475 285.726 230.696C285.726 229.896 286.019 229.288 286.606 228.872C287.203 228.445 288.115 228.232 289.342 228.232H290.926V227.592C290.926 226.472 290.334 225.912 289.15 225.912C288.616 225.912 288.184 226.019 287.854 226.232C287.523 226.435 287.246 226.707 287.022 227.048L285.982 226.2C286.216 225.752 286.611 225.368 287.166 225.048C287.72 224.717 288.435 224.552 289.31 224.552C290.355 224.552 291.176 224.803 291.774 225.304C292.371 225.805 292.67 226.531 292.67 227.48V231.624H293.71V233H292.638ZM288.99 231.912C289.555 231.912 290.019 231.784 290.382 231.528C290.744 231.272 290.926 230.941 290.926 230.536V229.336H289.374C288.115 229.336 287.486 229.715 287.486 230.472V230.792C287.486 231.165 287.619 231.448 287.886 231.64C288.152 231.821 288.52 231.912 288.99 231.912Z" fill="#242424"/>
</svg>
