<svg width="541" height="250" viewBox="0 0 541 250" fill="none" xmlns="http://www.w3.org/2000/svg">
<path d="M88.9666 243.333L90.236 243.048V243.916C90.236 244.529 90.3828 244.978 90.6764 245.263C90.9701 245.539 91.35 245.678 91.8163 245.678C92.2827 245.678 92.6497 245.535 92.9174 245.25C93.1851 244.957 93.3189 244.542 93.3189 244.007V237.478H94.5884V243.916C94.5884 244.322 94.5236 244.702 94.3941 245.056C94.2732 245.41 94.0918 245.721 93.85 245.989C93.6082 246.256 93.3146 246.468 92.9692 246.623C92.6324 246.779 92.2524 246.856 91.8293 246.856C91.3802 246.856 90.9787 246.787 90.6246 246.649C90.2706 246.511 89.9683 246.312 89.7179 246.053C89.4761 245.794 89.2904 245.488 89.1609 245.134C89.0314 244.771 88.9666 244.369 88.9666 243.929V243.333ZM100.692 245.911C100.519 246.239 100.26 246.481 99.9145 246.636C99.5691 246.783 99.2151 246.856 98.8524 246.856C98.4897 246.856 98.1615 246.792 97.8679 246.662C97.5829 246.533 97.3411 246.356 97.1425 246.131C96.9439 245.906 96.7885 245.643 96.6762 245.341C96.5726 245.039 96.5208 244.71 96.5208 244.356V240.432H97.7384V244.175C97.7384 244.391 97.7643 244.598 97.8161 244.797C97.8679 244.987 97.9499 245.155 98.0622 245.302C98.1745 245.449 98.317 245.565 98.4897 245.652C98.671 245.738 98.8912 245.781 99.1503 245.781C99.6425 245.781 100.01 245.634 100.251 245.341C100.502 245.047 100.627 244.663 100.627 244.188V240.432H101.845V245.509C101.845 245.76 101.849 245.989 101.858 246.196C101.875 246.394 101.892 246.55 101.909 246.662H100.744C100.726 246.593 100.713 246.485 100.705 246.338C100.696 246.183 100.692 246.04 100.692 245.911ZM105.062 246.662H103.845V240.432H105.036V241.325C105.261 240.937 105.546 240.66 105.891 240.496C106.237 240.332 106.591 240.25 106.953 240.25C107.325 240.25 107.649 240.315 107.925 240.444C108.21 240.565 108.443 240.738 108.624 240.963C108.814 241.179 108.953 241.438 109.039 241.74C109.134 242.042 109.181 242.366 109.181 242.711V246.662H107.964V242.919C107.964 242.703 107.938 242.5 107.886 242.31C107.843 242.12 107.761 241.956 107.64 241.818C107.528 241.671 107.377 241.558 107.187 241.481C107.005 241.394 106.781 241.351 106.513 241.351C106.271 241.351 106.06 241.399 105.878 241.494C105.697 241.58 105.546 241.701 105.425 241.856C105.304 242.012 105.213 242.193 105.153 242.4C105.093 242.608 105.062 242.828 105.062 243.061V246.662Z" fill="#3F3F3F"/>
<path d="M11.4997 18.6826V11.5323L8.36495 18.6826H7.19915L4.09034 11.5323V18.6826H2.83386V9.49867H4.55666L7.795 16.9728L11.0593 9.49867H12.7561V18.6826H11.4997Z" fill="#3F3F3F"/>
<path d="M8.52275 44.3561V52.3613H7.25332V44.3561H4.18337V43.1774H11.5927V44.3561H8.52275Z" fill="#3F3F3F"/>
<path d="M12.0006 75.5612H13.3089L10.6923 84.7451H9.38403L6.98765 77.2969L4.61719 84.7451H3.34775L0.69231 75.5612H2.0006L4.02133 82.7503L6.32703 75.5612H7.66123L10.0187 82.828L12.0006 75.5612Z" fill="#3F3F3F"/>
<path d="M8.52275 110.419V118.424H7.25332V110.419H4.18337V109.24H11.5927V110.419H8.52275Z" fill="#3F3F3F"/>
<path d="M5.48528 150.808V141.624H11.0682V142.802H6.75471V145.756H10.6666V146.948H6.75471V150.808H5.48528Z" fill="#3F3F3F"/>
<path d="M9.92834 176.494C9.90244 176.329 9.84631 176.157 9.75995 175.975C9.67359 175.785 9.5527 175.613 9.39726 175.457C9.24181 175.302 9.04751 175.177 8.81435 175.082C8.58119 174.978 8.30485 174.926 7.98534 174.926C7.72627 174.926 7.48879 174.965 7.2729 175.043C7.05701 175.12 6.86703 175.228 6.70295 175.367C6.54751 175.505 6.42661 175.669 6.34026 175.859C6.2539 176.04 6.21072 176.239 6.21072 176.455C6.21072 176.783 6.31003 177.068 6.50865 177.31C6.70727 177.543 7.00088 177.703 7.38948 177.789L8.76254 178.087C9.53111 178.26 10.1183 178.57 10.5242 179.019C10.9387 179.468 11.146 180.017 11.146 180.665C11.146 181.019 11.0726 181.36 10.9258 181.688C10.7789 182.016 10.5674 182.305 10.291 182.556C10.0147 182.806 9.68223 183.009 9.29363 183.165C8.90503 183.311 8.46461 183.385 7.97238 183.385C7.41971 183.385 6.93611 183.303 6.5216 183.139C6.11573 182.975 5.77031 182.763 5.48533 182.504C5.20899 182.245 4.99311 181.956 4.83766 181.636C4.68222 181.308 4.58291 180.98 4.53974 180.652L5.75735 180.263C5.78326 180.522 5.84371 180.772 5.9387 181.014C6.04233 181.247 6.18482 181.455 6.36616 181.636C6.55615 181.817 6.78067 181.964 7.03974 182.076C7.30744 182.18 7.61401 182.232 7.95943 182.232C8.58983 182.232 9.06047 182.089 9.37135 181.804C9.69087 181.519 9.85062 181.174 9.85062 180.768C9.85062 180.44 9.73836 180.146 9.51384 179.887C9.28931 179.62 8.94389 179.438 8.47757 179.343L7.16927 179.058C6.51297 178.911 5.97324 178.631 5.5501 178.216C5.13559 177.793 4.92834 177.236 4.92834 176.545C4.92834 176.183 5.00606 175.837 5.1615 175.509C5.31694 175.181 5.52851 174.892 5.79621 174.641C6.07255 174.391 6.39639 174.192 6.76772 174.045C7.13905 173.89 7.53629 173.812 7.95943 173.812C8.47757 173.812 8.91798 173.886 9.28067 174.032C9.65201 174.171 9.95857 174.352 10.2004 174.576C10.4508 174.801 10.6451 175.047 10.7833 175.315C10.9214 175.582 11.0164 175.842 11.0682 176.092L9.92834 176.494Z" fill="#3F3F3F"/>
<path d="M9.92834 210.172C9.90244 210.008 9.84631 209.835 9.75995 209.654C9.67359 209.464 9.5527 209.291 9.39726 209.136C9.24181 208.981 9.04751 208.855 8.81435 208.76C8.58119 208.657 8.30485 208.605 7.98534 208.605C7.72627 208.605 7.48879 208.644 7.2729 208.721C7.05701 208.799 6.86703 208.907 6.70295 209.045C6.54751 209.183 6.42661 209.348 6.34026 209.538C6.2539 209.719 6.21072 209.917 6.21072 210.133C6.21072 210.462 6.31003 210.747 6.50865 210.988C6.70727 211.221 7.00088 211.381 7.38948 211.468L8.76254 211.766C9.53111 211.938 10.1183 212.249 10.5242 212.698C10.9387 213.147 11.146 213.696 11.146 214.343C11.146 214.697 11.0726 215.038 10.9258 215.367C10.7789 215.695 10.5674 215.984 10.291 216.234C10.0147 216.485 9.68223 216.688 9.29363 216.843C8.90503 216.99 8.46461 217.063 7.97238 217.063C7.41971 217.063 6.93611 216.981 6.5216 216.817C6.11573 216.653 5.77031 216.442 5.48533 216.183C5.20899 215.924 4.99311 215.634 4.83766 215.315C4.68222 214.987 4.58291 214.658 4.53974 214.33L5.75735 213.942C5.78326 214.201 5.84371 214.451 5.9387 214.693C6.04233 214.926 6.18482 215.133 6.36616 215.315C6.55615 215.496 6.78067 215.643 7.03974 215.755C7.30744 215.859 7.61401 215.911 7.95943 215.911C8.58983 215.911 9.06047 215.768 9.37135 215.483C9.69087 215.198 9.85062 214.853 9.85062 214.447C9.85062 214.119 9.73836 213.825 9.51384 213.566C9.28931 213.298 8.94389 213.117 8.47757 213.022L7.16927 212.737C6.51297 212.59 5.97324 212.31 5.5501 211.895C5.13559 211.472 4.92834 210.915 4.92834 210.224C4.92834 209.861 5.00606 209.516 5.1615 209.188C5.31694 208.86 5.52851 208.57 5.79621 208.32C6.07255 208.069 6.39639 207.871 6.76772 207.724C7.13905 207.569 7.53629 207.491 7.95943 207.491C8.47757 207.491 8.91798 207.564 9.28067 207.711C9.65201 207.849 9.95857 208.031 10.2004 208.255C10.4508 208.48 10.6451 208.726 10.7833 208.993C10.9214 209.261 11.0164 209.52 11.0682 209.771L9.92834 210.172Z" fill="#3F3F3F"/>
<path d="M223.666 243.333L224.936 243.048V243.916C224.936 244.529 225.082 244.978 225.376 245.263C225.67 245.539 226.05 245.678 226.516 245.678C226.982 245.678 227.349 245.535 227.617 245.25C227.885 244.957 228.018 244.542 228.018 244.007V237.478H229.288V243.916C229.288 244.322 229.223 244.702 229.094 245.056C228.973 245.41 228.791 245.721 228.55 245.989C228.308 246.256 228.014 246.468 227.669 246.623C227.332 246.779 226.952 246.856 226.529 246.856C226.08 246.856 225.678 246.787 225.324 246.649C224.97 246.511 224.668 246.312 224.417 246.053C224.176 245.794 223.99 245.488 223.86 245.134C223.731 244.771 223.666 244.369 223.666 243.929V243.333ZM235.391 245.911C235.219 246.239 234.959 246.481 234.614 246.636C234.269 246.783 233.915 246.856 233.552 246.856C233.189 246.856 232.861 246.792 232.567 246.662C232.282 246.533 232.041 246.356 231.842 246.131C231.643 245.906 231.488 245.643 231.376 245.341C231.272 245.039 231.22 244.71 231.22 244.356V240.432H232.438V244.175C232.438 244.391 232.464 244.598 232.516 244.797C232.567 244.987 232.649 245.155 232.762 245.302C232.874 245.449 233.016 245.565 233.189 245.652C233.371 245.738 233.591 245.781 233.85 245.781C234.342 245.781 234.709 245.634 234.951 245.341C235.201 245.047 235.327 244.663 235.327 244.188V240.432H236.544V245.509C236.544 245.76 236.548 245.989 236.557 246.196C236.574 246.394 236.592 246.55 236.609 246.662H235.443C235.426 246.593 235.413 246.485 235.404 246.338C235.396 246.183 235.391 246.04 235.391 245.911ZM238.544 246.662V237.284H239.762V246.662H238.544Z" fill="#3F3F3F"/>
<path d="M359.551 244.097H355.483L354.512 246.662H353.152L356.805 237.478H358.268L361.921 246.662H360.548L359.551 244.097ZM355.937 242.919H359.097L357.504 238.799L355.937 242.919ZM366.79 245.911C366.617 246.239 366.358 246.481 366.013 246.636C365.667 246.783 365.313 246.856 364.951 246.856C364.588 246.856 364.26 246.792 363.966 246.662C363.681 246.533 363.439 246.356 363.241 246.131C363.042 245.906 362.887 245.643 362.774 245.341C362.671 245.039 362.619 244.71 362.619 244.356V240.432H363.837V244.175C363.837 244.391 363.862 244.598 363.914 244.797C363.966 244.987 364.048 245.155 364.16 245.302C364.273 245.449 364.415 245.565 364.588 245.652C364.769 245.738 364.989 245.781 365.248 245.781C365.741 245.781 366.108 245.634 366.35 245.341C366.6 245.047 366.725 244.663 366.725 244.188V240.432H367.943V245.509C367.943 245.76 367.947 245.989 367.956 246.196C367.973 246.394 367.99 246.55 368.008 246.662H366.842C366.824 246.593 366.812 246.485 366.803 246.338C366.794 246.183 366.79 246.04 366.79 245.911ZM370.605 246.727C370.648 247.167 370.821 247.53 371.123 247.815C371.434 248.109 371.827 248.255 372.302 248.255C372.958 248.255 373.437 248.087 373.74 247.75C374.051 247.413 374.206 246.908 374.206 246.235V245.341C374.059 245.626 373.822 245.868 373.494 246.066C373.165 246.265 372.768 246.364 372.302 246.364C371.887 246.364 371.503 246.291 371.149 246.144C370.804 245.989 370.501 245.781 370.242 245.522C369.992 245.255 369.793 244.935 369.646 244.564C369.508 244.192 369.439 243.786 369.439 243.346C369.439 242.923 369.508 242.53 369.646 242.167C369.785 241.796 369.979 241.476 370.229 241.209C370.48 240.932 370.778 240.717 371.123 240.561C371.477 240.397 371.87 240.315 372.302 240.315C372.786 240.315 373.187 240.401 373.507 240.574C373.826 240.747 374.064 240.989 374.219 241.299V240.432H375.424V246.196C375.424 246.593 375.372 246.977 375.268 247.349C375.165 247.729 374.988 248.061 374.737 248.346C374.495 248.64 374.176 248.873 373.779 249.046C373.381 249.227 372.889 249.318 372.302 249.318C371.913 249.318 371.551 249.257 371.214 249.136C370.886 249.024 370.592 248.864 370.333 248.657C370.083 248.45 369.875 248.204 369.711 247.919C369.556 247.642 369.461 247.336 369.426 246.999L370.605 246.727ZM372.483 245.341C373.01 245.341 373.437 245.16 373.766 244.797C374.094 244.434 374.258 243.951 374.258 243.346C374.258 242.742 374.094 242.258 373.766 241.895C373.437 241.533 373.01 241.351 372.483 241.351C371.939 241.351 371.503 241.533 371.175 241.895C370.847 242.258 370.683 242.742 370.683 243.346C370.683 243.959 370.842 244.447 371.162 244.81C371.49 245.164 371.931 245.341 372.483 245.341Z" fill="#3F3F3F"/>
<path d="M488.652 239.965C488.627 239.801 488.57 239.628 488.484 239.447C488.398 239.257 488.277 239.084 488.121 238.929C487.966 238.773 487.772 238.648 487.538 238.553C487.305 238.45 487.029 238.398 486.709 238.398C486.45 238.398 486.213 238.437 485.997 238.514C485.781 238.592 485.591 238.7 485.427 238.838C485.272 238.976 485.151 239.141 485.064 239.33C484.978 239.512 484.935 239.71 484.935 239.926C484.935 240.255 485.034 240.539 485.233 240.781C485.431 241.014 485.725 241.174 486.114 241.261L487.487 241.558C488.255 241.731 488.842 242.042 489.248 242.491C489.663 242.94 489.87 243.489 489.87 244.136C489.87 244.49 489.797 244.831 489.65 245.16C489.503 245.488 489.292 245.777 489.015 246.027C488.739 246.278 488.406 246.481 488.018 246.636C487.629 246.783 487.189 246.856 486.697 246.856C486.144 246.856 485.66 246.774 485.246 246.61C484.84 246.446 484.494 246.235 484.209 245.976C483.933 245.717 483.717 245.427 483.562 245.108C483.406 244.78 483.307 244.451 483.264 244.123L484.481 243.735C484.507 243.994 484.568 244.244 484.663 244.486C484.766 244.719 484.909 244.926 485.09 245.108C485.28 245.289 485.505 245.436 485.764 245.548C486.032 245.652 486.338 245.704 486.684 245.704C487.314 245.704 487.785 245.561 488.095 245.276C488.415 244.991 488.575 244.646 488.575 244.24C488.575 243.912 488.463 243.618 488.238 243.359C488.013 243.091 487.668 242.91 487.202 242.815L485.893 242.53C485.237 242.383 484.697 242.103 484.274 241.688C483.86 241.265 483.652 240.708 483.652 240.017C483.652 239.654 483.73 239.309 483.886 238.981C484.041 238.653 484.253 238.363 484.52 238.113C484.797 237.862 485.121 237.664 485.492 237.517C485.863 237.362 486.26 237.284 486.684 237.284C487.202 237.284 487.642 237.357 488.005 237.504C488.376 237.642 488.683 237.824 488.925 238.048C489.175 238.273 489.369 238.519 489.507 238.786C489.646 239.054 489.741 239.313 489.792 239.564L488.652 239.965ZM495.479 242.906C495.462 242.457 495.311 242.081 495.026 241.779C494.741 241.468 494.322 241.312 493.769 241.312C493.51 241.312 493.277 241.36 493.07 241.455C492.871 241.541 492.698 241.662 492.552 241.818C492.413 241.964 492.301 242.133 492.215 242.323C492.128 242.513 492.081 242.707 492.072 242.906H495.479ZM496.71 244.887C496.623 245.164 496.494 245.423 496.321 245.665C496.157 245.898 495.954 246.105 495.712 246.286C495.479 246.459 495.211 246.597 494.909 246.701C494.607 246.805 494.274 246.856 493.912 246.856C493.497 246.856 493.1 246.783 492.72 246.636C492.34 246.489 492.003 246.274 491.71 245.989C491.425 245.704 491.196 245.354 491.023 244.939C490.859 244.525 490.777 244.054 490.777 243.527C490.777 243.035 490.859 242.59 491.023 242.193C491.187 241.787 491.403 241.442 491.671 241.157C491.947 240.863 492.267 240.639 492.629 240.483C492.992 240.319 493.368 240.237 493.756 240.237C494.231 240.237 494.654 240.319 495.026 240.483C495.406 240.639 495.721 240.859 495.971 241.144C496.222 241.429 496.412 241.774 496.541 242.18C496.679 242.577 496.748 243.018 496.748 243.501C496.748 243.579 496.744 243.653 496.736 243.722C496.736 243.791 496.731 243.847 496.723 243.89H492.033C492.042 244.166 492.094 244.421 492.189 244.654C492.284 244.887 492.413 245.09 492.577 245.263C492.75 245.427 492.949 245.557 493.173 245.652C493.406 245.738 493.653 245.781 493.912 245.781C494.421 245.781 494.81 245.66 495.077 245.419C495.345 245.177 495.539 244.879 495.66 244.525L496.71 244.887ZM498.225 249.123V240.432H499.404V241.403C499.577 241.092 499.84 240.829 500.194 240.613C500.548 240.397 500.98 240.289 501.489 240.289C501.956 240.289 502.366 240.375 502.72 240.548C503.083 240.712 503.38 240.941 503.614 241.235C503.855 241.528 504.037 241.874 504.158 242.271C504.287 242.668 504.352 243.091 504.352 243.54C504.352 244.007 504.287 244.438 504.158 244.836C504.028 245.233 503.838 245.583 503.588 245.885C503.337 246.179 503.031 246.412 502.668 246.584C502.314 246.748 501.908 246.831 501.45 246.831C500.967 246.831 500.552 246.731 500.207 246.533C499.861 246.334 499.602 246.096 499.43 245.82V249.123H498.225ZM503.108 243.54C503.108 243.229 503.065 242.944 502.979 242.685C502.893 242.418 502.772 242.189 502.616 241.999C502.461 241.8 502.266 241.645 502.033 241.533C501.809 241.42 501.554 241.364 501.269 241.364C500.993 241.364 500.738 241.42 500.505 241.533C500.28 241.645 500.086 241.8 499.922 241.999C499.758 242.189 499.633 242.418 499.546 242.685C499.46 242.944 499.417 243.229 499.417 243.54C499.417 243.86 499.46 244.158 499.546 244.434C499.633 244.702 499.758 244.935 499.922 245.134C500.086 245.324 500.28 245.475 500.505 245.587C500.738 245.691 500.993 245.742 501.269 245.742C501.554 245.742 501.809 245.691 502.033 245.587C502.258 245.475 502.448 245.324 502.603 245.134C502.767 244.935 502.893 244.702 502.979 244.434C503.065 244.158 503.108 243.86 503.108 243.54Z" fill="#3F3F3F"/>
<path d="M19.5752 26.9648L19.5752 3.0918C19.5753 1.74134 20.67 0.646484 22.0205 0.646484L45.8936 0.646483C47.2439 0.646606 48.3387 1.74142 48.3389 3.0918L48.3389 26.9648C48.3389 28.3153 47.244 29.41 45.8936 29.4102L22.0205 29.4102C20.6699 29.4102 19.5752 28.3154 19.5752 26.9648Z" stroke="#121212" stroke-width="0.290543"/>
<path d="M54.9618 29.5557C53.531 29.5557 52.3711 28.3958 52.3711 26.965L52.3711 3.09202C52.3711 1.66123 53.531 0.501347 54.9618 0.501346L78.8347 0.501345C80.2655 0.501345 81.4254 1.66123 81.4254 3.09202L81.4254 26.965C81.4254 28.3958 80.2655 29.5557 78.8347 29.5557L54.9618 29.5557Z" fill="#6D6D6D"/>
<path d="M85.4541 26.9648L85.4541 3.0918C85.4542 1.74134 86.5489 0.646484 87.8994 0.646484L111.772 0.646483C113.123 0.646606 114.218 1.74142 114.218 3.0918L114.218 26.9648C114.218 28.3153 113.123 29.41 111.772 29.4102L87.8994 29.4102C86.5489 29.4102 85.4541 28.3154 85.4541 26.9648Z" stroke="#121212" stroke-width="0.290543"/>
<path d="M118.396 26.9648L118.396 3.0918C118.396 1.74134 119.49 0.646484 120.841 0.646484L144.714 0.646483C146.064 0.646606 147.159 1.74142 147.159 3.0918L147.159 26.9648C147.159 28.3153 146.064 29.41 144.714 29.4102L120.841 29.4102C119.49 29.4102 118.396 28.3154 118.396 26.9648Z" stroke="#121212" stroke-width="0.290543"/>
<path d="M151.337 26.9648L151.337 3.0918C151.337 1.74134 152.432 0.646484 153.782 0.646484L177.655 0.646483C179.006 0.646606 180.1 1.74142 180.101 3.0918L180.101 26.9648C180.101 28.3153 179.006 29.41 177.655 29.4102L153.782 29.4102C152.432 29.4102 151.337 28.3154 151.337 26.9648Z" stroke="#121212" stroke-width="0.290543"/>
<path d="M186.72 29.5557C185.289 29.5557 184.129 28.3958 184.129 26.965L184.129 3.09202C184.129 1.66123 185.289 0.501347 186.72 0.501346L210.593 0.501345C212.023 0.501345 213.183 1.66123 213.183 3.09202L213.183 26.965C213.183 28.3958 212.023 29.5557 210.593 29.5557L186.72 29.5557Z" fill="#7E7C7C"/>
<path d="M217.216 26.9648L217.216 3.0918C217.216 1.74134 218.311 0.646484 219.661 0.646484L243.534 0.646483C244.885 0.646606 245.979 1.74142 245.979 3.0918L245.979 26.9648C245.979 28.3153 244.885 29.41 243.534 29.4102L219.661 29.4102C218.311 29.4102 217.216 28.3154 217.216 26.9648Z" stroke="#121212" stroke-width="0.290543"/>
<path d="M250.157 26.9648L250.157 3.0918C250.157 1.74134 251.252 0.646484 252.603 0.646484L276.476 0.646483C277.826 0.646606 278.921 1.74142 278.921 3.0918L278.921 26.9648C278.921 28.3153 277.826 29.41 276.476 29.4102L252.603 29.4102C251.252 29.4102 250.157 28.3154 250.157 26.9648Z" stroke="#121212" stroke-width="0.290543"/>
<path d="M283.095 26.9648L283.095 3.0918C283.095 1.74134 284.19 0.646484 285.54 0.646484L309.413 0.646483C310.763 0.646606 311.858 1.74142 311.858 3.0918L311.858 26.9648C311.858 28.3153 310.764 29.41 309.413 29.4102L285.54 29.4102C284.189 29.4102 283.095 28.3154 283.095 26.9648Z" stroke="#121212" stroke-width="0.290543"/>
<path d="M316.04 26.9648L316.04 3.0918C316.04 1.74134 317.135 0.646484 318.485 0.646484L342.358 0.646483C343.709 0.646606 344.804 1.74142 344.804 3.0918L344.804 26.9648C344.804 28.3153 343.709 29.41 342.358 29.4102L318.485 29.4102C317.135 29.4102 316.04 28.3154 316.04 26.9648Z" stroke="#121212" stroke-width="0.290543"/>
<path d="M348.981 26.9648L348.981 3.0918C348.982 1.74134 350.076 0.646484 351.427 0.646484L375.3 0.646483C376.65 0.646606 377.745 1.74142 377.745 3.0918L377.745 26.9648C377.745 28.3153 376.65 29.41 375.3 29.4102L351.427 29.4102C350.076 29.4102 348.981 28.3154 348.981 26.9648Z" stroke="#121212" stroke-width="0.290543"/>
<path d="M381.923 26.9648L381.923 3.0918C381.923 1.74134 383.018 0.646484 384.368 0.646484L408.241 0.646483C409.592 0.646606 410.686 1.74142 410.687 3.0918L410.687 26.9648C410.687 28.3153 409.592 29.41 408.241 29.4102L384.368 29.4102C383.018 29.4102 381.923 28.3154 381.923 26.9648Z" stroke="#121212" stroke-width="0.290543"/>
<path d="M414.653 26.9648L414.653 3.0918C414.653 1.74134 415.748 0.646484 417.099 0.646484L440.972 0.646483C442.322 0.646606 443.417 1.74142 443.417 3.0918L443.417 26.9648C443.417 28.3153 442.322 29.41 440.972 29.4102L417.099 29.4102C415.748 29.4102 414.653 28.3154 414.653 26.9648Z" stroke="#121212" stroke-width="0.290543"/>
<path d="M447.036 26.9648L447.036 3.0918C447.036 1.74134 448.131 0.646484 449.481 0.646484L473.354 0.646483C474.705 0.646606 475.8 1.74142 475.8 3.0918L475.8 26.9648C475.8 28.3153 474.705 29.41 473.354 29.4102L449.481 29.4102C448.131 29.4102 447.036 28.3154 447.036 26.9648Z" stroke="#121212" stroke-width="0.290543"/>
<path d="M479.419 26.9648L479.419 3.0918C479.419 1.74134 480.514 0.646484 481.864 0.646484L505.737 0.646483C507.088 0.646606 508.182 1.74142 508.183 3.0918L508.183 26.9648C508.183 28.3153 507.088 29.41 505.737 29.4102L481.864 29.4102C480.514 29.4102 479.419 28.3154 479.419 26.9648Z" stroke="#121212" stroke-width="0.290543"/>
<path d="M511.806 26.9648L511.806 3.0918C511.806 1.74134 512.9 0.646484 514.251 0.646484L538.124 0.646483C539.474 0.646606 540.569 1.74142 540.569 3.0918L540.569 26.9648C540.569 28.3153 539.474 29.41 538.124 29.4102L514.251 29.4102C512.9 29.4102 511.806 28.3154 511.806 26.9648Z" stroke="#121212" stroke-width="0.290543"/>
<path d="M414.653 59.3486L414.653 35.4756C414.653 34.1251 415.748 33.0303 417.099 33.0303L440.972 33.0303C442.322 33.0304 443.417 34.1252 443.417 35.4756L443.417 59.3486C443.417 60.6991 442.322 61.7938 440.972 61.7939L417.099 61.7939C415.748 61.7939 414.653 60.6992 414.653 59.3486Z" stroke="#121212" stroke-width="0.290543"/>
<path d="M447.036 59.3486L447.036 35.4756C447.036 34.1251 448.131 33.0303 449.481 33.0303L473.354 33.0303C474.705 33.0304 475.8 34.1252 475.8 35.4756L475.8 59.3486C475.8 60.6991 474.705 61.7938 473.354 61.7939L449.481 61.7939C448.131 61.7939 447.036 60.6992 447.036 59.3486Z" stroke="#121212" stroke-width="0.290543"/>
<path d="M479.419 59.3486L479.419 35.4756C479.419 34.1251 480.514 33.0303 481.864 33.0303L505.737 33.0303C507.088 33.0304 508.182 34.1252 508.183 35.4756L508.183 59.3486C508.183 60.6991 507.088 61.7938 505.737 61.7939L481.864 61.7939C480.514 61.7939 479.419 60.6992 479.419 59.3486Z" stroke="#121212" stroke-width="0.290543"/>
<path d="M511.806 59.3486L511.806 35.4756C511.806 34.1251 512.9 33.0303 514.251 33.0303L538.124 33.0303C539.474 33.0304 540.569 34.1252 540.569 35.4756L540.569 59.3486C540.569 60.6991 539.474 61.7938 538.124 61.7939L514.251 61.7939C512.9 61.7939 511.806 60.6992 511.806 59.3486Z" stroke="#121212" stroke-width="0.290543"/>
<path d="M414.653 93.0273L414.653 69.1543C414.653 67.8038 415.748 66.709 417.099 66.709L440.972 66.709C442.322 66.7091 443.417 67.8039 443.417 69.1543L443.417 93.0273C443.417 94.3778 442.322 95.4725 440.972 95.4727L417.099 95.4727C415.748 95.4727 414.653 94.3779 414.653 93.0273Z" stroke="#121212" stroke-width="0.290543"/>
<path d="M447.036 93.0273L447.036 69.1543C447.036 67.8038 448.131 66.709 449.481 66.709L473.354 66.709C474.705 66.7091 475.8 67.8039 475.8 69.1543L475.8 93.0273C475.8 94.3778 474.705 95.4725 473.354 95.4727L449.481 95.4727C448.131 95.4727 447.036 94.3779 447.036 93.0273Z" stroke="#121212" stroke-width="0.290543"/>
<path d="M479.419 93.0273L479.419 69.1543C479.419 67.8038 480.514 66.709 481.864 66.709L505.737 66.709C507.088 66.7091 508.182 67.8039 508.183 69.1543L508.183 93.0273C508.183 94.3778 507.088 95.4725 505.737 95.4727L481.864 95.4727C480.514 95.4727 479.419 94.3779 479.419 93.0273Z" stroke="#121212" stroke-width="0.290543"/>
<path d="M511.806 93.0273L511.806 69.1543C511.806 67.8038 512.9 66.709 514.251 66.709L538.124 66.709C539.474 66.7091 540.569 67.8039 540.569 69.1543L540.569 93.0273C540.569 94.3778 539.474 95.4725 538.124 95.4727L514.251 95.4727C512.9 95.4727 511.806 94.3779 511.806 93.0273Z" stroke="#121212" stroke-width="0.290543"/>
<path d="M414.653 125.41L414.653 101.537C414.653 100.187 415.748 99.0918 417.099 99.0918L440.972 99.0918C442.322 99.0919 443.417 100.187 443.417 101.537L443.417 125.41C443.417 126.761 442.322 127.855 440.972 127.855L417.099 127.855C415.748 127.855 414.653 126.761 414.653 125.41Z" stroke="#121212" stroke-width="0.290543"/>
<path d="M447.036 125.41L447.036 101.537C447.036 100.187 448.131 99.0918 449.481 99.0918L473.354 99.0918C474.705 99.0919 475.8 100.187 475.8 101.537L475.8 125.41C475.8 126.761 474.705 127.855 473.354 127.855L449.481 127.855C448.131 127.855 447.036 126.761 447.036 125.41Z" stroke="#121212" stroke-width="0.290543"/>
<path d="M479.419 125.41L479.419 101.537C479.419 100.187 480.514 99.0918 481.864 99.0918L505.737 99.0918C507.088 99.0919 508.182 100.187 508.183 101.537L508.183 125.41C508.183 126.761 507.088 127.855 505.737 127.855L481.864 127.855C480.514 127.855 479.419 126.761 479.419 125.41Z" stroke="#121212" stroke-width="0.290543"/>
<path d="M511.806 125.41L511.806 101.537C511.806 100.187 512.9 99.0918 514.251 99.0918L538.124 99.0918C539.474 99.0919 540.569 100.187 540.569 101.537L540.569 125.41C540.569 126.761 539.474 127.855 538.124 127.855L514.251 127.855C512.9 127.855 511.806 126.761 511.806 125.41Z" stroke="#121212" stroke-width="0.290543"/>
<path d="M414.653 159.089L414.653 135.216C414.653 133.865 415.748 132.771 417.099 132.771L440.972 132.771C442.322 132.771 443.417 133.865 443.417 135.216L443.417 159.089C443.417 160.439 442.322 161.534 440.972 161.534L417.099 161.534C415.748 161.534 414.653 160.439 414.653 159.089Z" stroke="#121212" stroke-width="0.290543"/>
<path d="M447.036 159.089L447.036 135.216C447.036 133.865 448.131 132.771 449.481 132.771L473.354 132.771C474.705 132.771 475.8 133.865 475.8 135.216L475.8 159.089C475.8 160.439 474.705 161.534 473.354 161.534L449.481 161.534C448.131 161.534 447.036 160.439 447.036 159.089Z" stroke="#121212" stroke-width="0.290543"/>
<path d="M479.419 159.089L479.419 135.216C479.419 133.865 480.514 132.771 481.864 132.771L505.737 132.771C507.088 132.771 508.182 133.865 508.183 135.216L508.183 159.089C508.183 160.439 507.088 161.534 505.737 161.534L481.864 161.534C480.514 161.534 479.419 160.439 479.419 159.089Z" stroke="#121212" stroke-width="0.290543"/>
<path d="M511.806 159.089L511.806 135.216C511.806 133.865 512.9 132.771 514.251 132.771L538.124 132.771C539.474 132.771 540.569 133.865 540.569 135.216L540.569 159.089C540.569 160.439 539.474 161.534 538.124 161.534L514.251 161.534C512.9 161.534 511.806 160.439 511.806 159.089Z" stroke="#121212" stroke-width="0.290543"/>
<path d="M414.653 191.473L414.653 167.6C414.653 166.249 415.748 165.154 417.099 165.154L440.972 165.154C442.322 165.154 443.417 166.249 443.417 167.6L443.417 191.473C443.417 192.823 442.322 193.918 440.972 193.918L417.099 193.918C415.748 193.918 414.653 192.823 414.653 191.473Z" stroke="#121212" stroke-width="0.290543"/>
<path d="M447.036 191.473L447.036 167.6C447.036 166.249 448.131 165.154 449.481 165.154L473.354 165.154C474.705 165.154 475.8 166.249 475.8 167.6L475.8 191.473C475.8 192.823 474.705 193.918 473.354 193.918L449.481 193.918C448.131 193.918 447.036 192.823 447.036 191.473Z" stroke="#121212" stroke-width="0.290543"/>
<path d="M479.419 191.473L479.419 167.6C479.419 166.249 480.514 165.154 481.864 165.154L505.737 165.154C507.088 165.154 508.182 166.249 508.183 167.6L508.183 191.473C508.183 192.823 507.088 193.918 505.737 193.918L481.864 193.918C480.514 193.918 479.419 192.823 479.419 191.473Z" stroke="#121212" stroke-width="0.290543"/>
<path d="M511.806 191.473L511.806 167.6C511.806 166.249 512.9 165.154 514.251 165.154L538.124 165.154C539.474 165.154 540.569 166.249 540.569 167.6L540.569 191.473C540.569 192.823 539.474 193.918 538.124 193.918L514.251 193.918C512.9 193.918 511.806 192.823 511.806 191.473Z" stroke="#121212" stroke-width="0.290543"/>
<path d="M414.653 225.151L414.653 201.278C414.653 199.928 415.748 198.833 417.099 198.833L440.972 198.833C442.322 198.833 443.417 199.928 443.417 201.278L443.417 225.151C443.417 226.502 442.322 227.597 440.972 227.597L417.099 227.597C415.748 227.597 414.653 226.502 414.653 225.151Z" stroke="#121212" stroke-width="0.290543"/>
<path d="M447.036 225.151L447.036 201.278C447.036 199.928 448.131 198.833 449.481 198.833L473.354 198.833C474.705 198.833 475.8 199.928 475.8 201.278L475.8 225.151C475.8 226.502 474.705 227.597 473.354 227.597L449.481 227.597C448.131 227.597 447.036 226.502 447.036 225.151Z" stroke="#121212" stroke-width="0.290543"/>
<path d="M479.419 225.151L479.419 201.278C479.419 199.928 480.514 198.833 481.864 198.833L505.737 198.833C507.088 198.833 508.182 199.928 508.183 201.278L508.183 225.151C508.183 226.502 507.088 227.597 505.737 227.597L481.864 227.597C480.514 227.597 479.419 226.502 479.419 225.151Z" stroke="#121212" stroke-width="0.290543"/>
<path d="M511.806 225.151L511.806 201.278C511.806 199.928 512.9 198.833 514.251 198.833L538.124 198.833C539.474 198.833 540.569 199.928 540.569 201.278L540.569 225.151C540.569 226.502 539.474 227.597 538.124 227.597L514.251 227.597C512.9 227.597 511.806 226.502 511.806 225.151Z" stroke="#121212" stroke-width="0.290543"/>
<path d="M22.0204 62.4951C20.5896 62.4951 19.4297 61.3352 19.4297 59.9044L19.4297 36.0315C19.4297 34.6007 20.5896 33.4408 22.0204 33.4408L45.8933 33.4408C47.3241 33.4408 48.484 34.6007 48.484 36.0315L48.484 59.9044C48.484 61.3352 47.3241 62.4951 45.8933 62.4951L22.0204 62.4951Z" fill="#7E7C7C"/>
<path d="M52.5166 59.9043L52.5166 36.0312C52.5167 34.6808 53.6114 33.5859 54.9619 33.5859L78.835 33.5859C80.1853 33.5861 81.2801 34.6809 81.2803 36.0312L81.2803 59.9043C81.2803 61.2548 80.1854 62.3495 78.835 62.3496L54.9619 62.3496C53.6114 62.3496 52.5166 61.2549 52.5166 59.9043Z" stroke="#121212" stroke-width="0.290543"/>
<path d="M85.4541 59.9043L85.4541 36.0312C85.4542 34.6808 86.5489 33.5859 87.8994 33.5859L111.772 33.5859C113.123 33.5861 114.218 34.6809 114.218 36.0312L114.218 59.9043C114.218 61.2548 113.123 62.3495 111.772 62.3496L87.8994 62.3496C86.5489 62.3496 85.4541 61.2549 85.4541 59.9043Z" stroke="#121212" stroke-width="0.290543"/>
<path d="M118.396 59.9043L118.396 36.0312C118.396 34.6808 119.49 33.5859 120.841 33.5859L144.714 33.5859C146.064 33.5861 147.159 34.6809 147.159 36.0312L147.159 59.9043C147.159 61.2548 146.064 62.3495 144.714 62.3496L120.841 62.3496C119.49 62.3496 118.396 61.2549 118.396 59.9043Z" stroke="#121212" stroke-width="0.290543"/>
<path d="M153.782 62.4951C152.351 62.4951 151.191 61.3352 151.191 59.9044L151.191 36.0315C151.191 34.6007 152.351 33.4408 153.782 33.4408L177.655 33.4408C179.086 33.4408 180.246 34.6007 180.246 36.0315L180.246 59.9044C180.246 61.3352 179.086 62.4951 177.655 62.4951L153.782 62.4951Z" fill="#B0B0B0"/>
<path d="M184.274 59.9043L184.274 36.0312C184.275 34.6808 185.369 33.5859 186.72 33.5859L210.593 33.5859C211.943 33.5861 213.038 34.6809 213.038 36.0312L213.038 59.9043C213.038 61.2548 211.943 62.3495 210.593 62.3496L186.72 62.3496C185.369 62.3496 184.274 61.2549 184.274 59.9043Z" stroke="#121212" stroke-width="0.290543"/>
<path d="M217.216 59.9043L217.216 36.0312C217.216 34.6808 218.311 33.5859 219.661 33.5859L243.534 33.5859C244.885 33.5861 245.979 34.6809 245.979 36.0312L245.979 59.9043C245.979 61.2548 244.885 62.3495 243.534 62.3496L219.661 62.3496C218.311 62.3496 217.216 61.2549 217.216 59.9043Z" stroke="#121212" stroke-width="0.290543"/>
<path d="M252.602 62.4951C251.172 62.4951 250.012 61.3352 250.012 59.9044L250.012 36.0315C250.012 34.6007 251.172 33.4408 252.602 33.4408L276.475 33.4408C277.906 33.4408 279.066 34.6007 279.066 36.0315L279.066 59.9044C279.066 61.3352 277.906 62.4951 276.475 62.4951L252.602 62.4951Z" fill="#6D6D6D"/>
<path d="M283.095 59.9043L283.095 36.0312C283.095 34.6808 284.19 33.5859 285.54 33.5859L309.413 33.5859C310.763 33.5861 311.858 34.6809 311.858 36.0312L311.858 59.9043C311.858 61.2548 310.764 62.3495 309.413 62.3496L285.54 62.3496C284.189 62.3496 283.095 61.2549 283.095 59.9043Z" stroke="#121212" stroke-width="0.290543"/>
<path d="M316.04 59.9043L316.04 36.0312C316.04 34.6808 317.135 33.5859 318.485 33.5859L342.358 33.5859C343.709 33.5861 344.804 34.6809 344.804 36.0312L344.804 59.9043C344.804 61.2548 343.709 62.3495 342.358 62.3496L318.485 62.3496C317.135 62.3496 316.04 61.2549 316.04 59.9043Z" stroke="#121212" stroke-width="0.290543"/>
<path d="M351.427 62.4951C349.996 62.4951 348.836 61.3352 348.836 59.9044L348.836 36.0315C348.836 34.6007 349.996 33.4408 351.427 33.4408L375.3 33.4408C376.73 33.4408 377.89 34.6007 377.89 36.0315L377.89 59.9044C377.89 61.3352 376.73 62.4951 375.3 62.4951L351.427 62.4951Z" fill="#B0B0B0"/>
<path d="M384.368 62.4951C382.937 62.4951 381.777 61.3352 381.777 59.9044L381.777 36.0315C381.777 34.6007 382.937 33.4408 384.368 33.4408L408.241 33.4408C409.672 33.4408 410.832 34.6007 410.832 36.0315L410.832 59.9044C410.832 61.3352 409.672 62.4951 408.241 62.4951L384.368 62.4951Z" fill="#6D6D6D"/>
<path d="M19.5752 92.8457L19.5752 68.9727C19.5753 67.6222 20.67 66.5273 22.0205 66.5273L45.8936 66.5273C47.2439 66.5275 48.3387 67.6223 48.3389 68.9727L48.3389 92.8457C48.3389 94.1962 47.244 95.2909 45.8936 95.291L22.0205 95.291C20.6699 95.291 19.5752 94.1963 19.5752 92.8457Z" stroke="#121212" stroke-width="0.290543"/>
<path d="M54.9618 95.4365C53.531 95.4365 52.3711 94.2766 52.3711 92.8458L52.3711 68.9729C52.3711 67.5421 53.531 66.3822 54.9618 66.3822L78.8347 66.3822C80.2655 66.3822 81.4254 67.5421 81.4254 68.9729L81.4254 92.8458C81.4254 94.2766 80.2655 95.4365 78.8347 95.4365L54.9618 95.4365Z" fill="#121212"/>
<path d="M87.8993 95.4365C86.4685 95.4365 85.3086 94.2766 85.3086 92.8458L85.3086 68.9729C85.3086 67.5421 86.4685 66.3822 87.8993 66.3822L111.772 66.3822C113.203 66.3822 114.363 67.5421 114.363 68.9729L114.363 92.8458C114.363 94.2766 113.203 95.4365 111.772 95.4365L87.8993 95.4365Z" fill="#121212"/>
<path d="M118.396 92.8457L118.396 68.9727C118.396 67.6222 119.49 66.5273 120.841 66.5273L144.714 66.5273C146.064 66.5275 147.159 67.6223 147.159 68.9727L147.159 92.8457C147.159 94.1962 146.064 95.2909 144.714 95.291L120.841 95.291C119.49 95.291 118.396 94.1963 118.396 92.8457Z" stroke="#121212" stroke-width="0.290543"/>
<path d="M151.337 92.8457L151.337 68.9727C151.337 67.6222 152.432 66.5273 153.782 66.5273L177.655 66.5273C179.006 66.5275 180.1 67.6223 180.101 68.9727L180.101 92.8457C180.101 94.1962 179.006 95.2909 177.655 95.291L153.782 95.291C152.432 95.291 151.337 94.1963 151.337 92.8457Z" stroke="#121212" stroke-width="0.290543"/>
<path d="M184.274 92.8457L184.274 68.9727C184.275 67.6222 185.369 66.5273 186.72 66.5273L210.593 66.5273C211.943 66.5275 213.038 67.6223 213.038 68.9727L213.038 92.8457C213.038 94.1962 211.943 95.2909 210.593 95.291L186.72 95.291C185.369 95.291 184.274 94.1963 184.274 92.8457Z" stroke="#121212" stroke-width="0.290543"/>
<path d="M217.216 92.8457L217.216 68.9727C217.216 67.6222 218.311 66.5273 219.661 66.5273L243.534 66.5273C244.885 66.5275 245.979 67.6223 245.979 68.9727L245.979 92.8457C245.979 94.1962 244.885 95.2909 243.534 95.291L219.661 95.291C218.311 95.291 217.216 94.1963 217.216 92.8457Z" stroke="#121212" stroke-width="0.290543"/>
<path d="M250.157 92.8457L250.157 68.9727C250.157 67.6222 251.252 66.5273 252.603 66.5273L276.476 66.5273C277.826 66.5275 278.921 67.6223 278.921 68.9727L278.921 92.8457C278.921 94.1962 277.826 95.2909 276.476 95.291L252.603 95.291C251.252 95.291 250.157 94.1963 250.157 92.8457Z" stroke="#121212" stroke-width="0.290543"/>
<path d="M283.095 92.8457L283.095 68.9727C283.095 67.6222 284.19 66.5273 285.54 66.5273L309.413 66.5273C310.763 66.5275 311.858 67.6223 311.858 68.9727L311.858 92.8457C311.858 94.1962 310.764 95.2909 309.413 95.291L285.54 95.291C284.189 95.291 283.095 94.1963 283.095 92.8457Z" stroke="#121212" stroke-width="0.290543"/>
<path d="M318.485 95.4365C317.054 95.4365 315.895 94.2766 315.895 92.8458L315.895 68.9729C315.895 67.5421 317.054 66.3822 318.485 66.3822L342.358 66.3822C343.789 66.3822 344.949 67.5421 344.949 68.9729L344.949 92.8458C344.949 94.2766 343.789 95.4365 342.358 95.4365L318.485 95.4365Z" fill="#D1D1D1"/>
<path d="M348.981 92.8457L348.981 68.9727C348.982 67.6222 350.076 66.5273 351.427 66.5273L375.3 66.5273C376.65 66.5275 377.745 67.6223 377.745 68.9727L377.745 92.8457C377.745 94.1962 376.65 95.2909 375.3 95.291L351.427 95.291C350.076 95.291 348.981 94.1963 348.981 92.8457Z" stroke="#121212" stroke-width="0.290543"/>
<path d="M381.923 92.8457L381.923 68.9727C381.923 67.6222 383.018 66.5273 384.368 66.5273L408.241 66.5273C409.592 66.5275 410.686 67.6223 410.687 68.9727L410.687 92.8457C410.687 94.1962 409.592 95.2909 408.241 95.291L384.368 95.291C383.018 95.291 381.923 94.1963 381.923 92.8457Z" stroke="#121212" stroke-width="0.290543"/>
<path d="M19.5752 125.786L19.5752 101.913C19.5753 100.563 20.67 99.4678 22.0205 99.4678L45.8936 99.4678C47.2439 99.4679 48.3387 100.563 48.3389 101.913L48.3389 125.786C48.3389 127.137 47.244 128.231 45.8936 128.231L22.0205 128.231C20.6699 128.231 19.5752 127.137 19.5752 125.786Z" stroke="#121212" stroke-width="0.290543"/>
<path d="M52.5166 125.786L52.5166 101.913C52.5167 100.563 53.6114 99.4678 54.9619 99.4678L78.835 99.4678C80.1853 99.4679 81.2801 100.563 81.2803 101.913L81.2803 125.786C81.2803 127.137 80.1854 128.231 78.835 128.231L54.9619 128.231C53.6114 128.231 52.5166 127.137 52.5166 125.786Z" stroke="#121212" stroke-width="0.290543"/>
<path d="M85.4541 125.786L85.4541 101.913C85.4542 100.563 86.5489 99.4678 87.8994 99.4678L111.772 99.4678C113.123 99.4679 114.218 100.563 114.218 101.913L114.218 125.786C114.218 127.137 113.123 128.231 111.772 128.231L87.8994 128.231C86.5489 128.231 85.4541 127.137 85.4541 125.786Z" stroke="#121212" stroke-width="0.290543"/>
<path d="M120.841 128.377C119.41 128.377 118.25 127.217 118.25 125.786L118.25 101.913C118.25 100.483 119.41 99.3226 120.841 99.3226L144.714 99.3226C146.144 99.3226 147.304 100.483 147.304 101.913L147.304 125.786C147.304 127.217 146.144 128.377 144.714 128.377L120.841 128.377Z" fill="#717171"/>
<path d="M151.337 125.786L151.337 101.913C151.337 100.563 152.432 99.4678 153.782 99.4678L177.655 99.4678C179.006 99.4679 180.1 100.563 180.101 101.913L180.101 125.786C180.101 127.137 179.006 128.231 177.655 128.231L153.782 128.231C152.432 128.231 151.337 127.137 151.337 125.786Z" stroke="#121212" stroke-width="0.290543"/>
<path d="M186.72 128.377C185.289 128.377 184.129 127.217 184.129 125.786L184.129 101.913C184.129 100.483 185.289 99.3226 186.72 99.3226L210.593 99.3226C212.023 99.3226 213.183 100.483 213.183 101.913L213.183 125.786C213.183 127.217 212.023 128.377 210.593 128.377L186.72 128.377Z" fill="#6D6D6D"/>
<path d="M217.216 125.786L217.216 101.913C217.216 100.563 218.311 99.4678 219.661 99.4678L243.534 99.4678C244.885 99.4679 245.979 100.563 245.979 101.913L245.979 125.786C245.979 127.137 244.885 128.231 243.534 128.231L219.661 128.231C218.311 128.231 217.216 127.137 217.216 125.786Z" stroke="#121212" stroke-width="0.290543"/>
<path d="M250.157 125.786L250.157 101.913C250.157 100.563 251.252 99.4678 252.603 99.4678L276.476 99.4678C277.826 99.4679 278.921 100.563 278.921 101.913L278.921 125.786C278.921 127.137 277.826 128.231 276.476 128.231L252.603 128.231C251.252 128.231 250.157 127.137 250.157 125.786Z" stroke="#121212" stroke-width="0.290543"/>
<path d="M283.095 125.786L283.095 101.913C283.095 100.563 284.19 99.4678 285.54 99.4678L309.413 99.4678C310.763 99.4679 311.858 100.563 311.858 101.913L311.858 125.786C311.858 127.137 310.764 128.231 309.413 128.231L285.54 128.231C284.189 128.231 283.095 127.137 283.095 125.786Z" stroke="#121212" stroke-width="0.290543"/>
<path d="M316.04 125.786L316.04 101.913C316.04 100.563 317.135 99.4678 318.485 99.4678L342.358 99.4678C343.709 99.4679 344.804 100.563 344.804 101.913L344.804 125.786C344.804 127.137 343.709 128.231 342.358 128.231L318.485 128.231C317.135 128.231 316.04 127.137 316.04 125.786Z" stroke="#121212" stroke-width="0.290543"/>
<path d="M348.981 125.786L348.981 101.913C348.982 100.563 350.076 99.4678 351.427 99.4678L375.3 99.4678C376.65 99.4679 377.745 100.563 377.745 101.913L377.745 125.786C377.745 127.137 376.65 128.231 375.3 128.231L351.427 128.231C350.076 128.231 348.981 127.137 348.981 125.786Z" stroke="#121212" stroke-width="0.290543"/>
<path d="M384.368 128.377C382.937 128.377 381.777 127.217 381.777 125.786L381.777 101.913C381.777 100.483 382.937 99.3226 384.368 99.3226L408.241 99.3226C409.672 99.3226 410.832 100.483 410.832 101.913L410.832 125.786C410.832 127.217 409.672 128.377 408.241 128.377L384.368 128.377Z" fill="#7E7C7C"/>
<path d="M22.0204 161.317C20.5896 161.317 19.4297 160.157 19.4297 158.727L19.4297 134.854C19.4297 133.423 20.5896 132.263 22.0204 132.263L45.8933 132.263C47.3241 132.263 48.484 133.423 48.484 134.854L48.484 158.727C48.484 160.157 47.3241 161.317 45.8933 161.317L22.0204 161.317Z" fill="#717171"/>
<path d="M52.5166 158.727L52.5166 134.854C52.5167 133.503 53.6114 132.408 54.9619 132.408L78.835 132.408C80.1853 132.408 81.2801 133.503 81.2803 134.854L81.2803 158.727C81.2803 160.077 80.1854 161.172 78.835 161.172L54.9619 161.172C53.6114 161.172 52.5166 160.077 52.5166 158.727Z" fill="#B0B0B0"/>
<path d="M52.5166 158.727L52.5166 134.854C52.5167 133.503 53.6114 132.408 54.9619 132.408L78.835 132.408C80.1853 132.408 81.2801 133.503 81.2803 134.854L81.2803 158.727C81.2803 160.077 80.1854 161.172 78.835 161.172L54.9619 161.172C53.6114 161.172 52.5166 160.077 52.5166 158.727Z" stroke="#121212" stroke-width="0.290543"/>
<path d="M85.4541 158.727L85.4541 134.854C85.4542 133.503 86.5489 132.408 87.8994 132.408L111.772 132.408C113.123 132.408 114.218 133.503 114.218 134.854L114.218 158.727C114.218 160.077 113.123 161.172 111.772 161.172L87.8994 161.172C86.5489 161.172 85.4541 160.077 85.4541 158.727Z" stroke="#121212" stroke-width="0.290543"/>
<path d="M118.396 158.727L118.396 134.854C118.396 133.503 119.49 132.408 120.841 132.408L144.714 132.408C146.064 132.408 147.159 133.503 147.159 134.854L147.159 158.727C147.159 160.077 146.064 161.172 144.714 161.172L120.841 161.172C119.49 161.172 118.396 160.077 118.396 158.727Z" stroke="#121212" stroke-width="0.290543"/>
<path d="M151.337 158.727L151.337 134.854C151.337 133.503 152.432 132.408 153.782 132.408L177.655 132.408C179.006 132.408 180.1 133.503 180.101 134.854L180.101 158.727C180.101 160.077 179.006 161.172 177.655 161.172L153.782 161.172C152.432 161.172 151.337 160.077 151.337 158.727Z" stroke="#121212" stroke-width="0.290543"/>
<path d="M186.72 161.317C185.289 161.317 184.129 160.157 184.129 158.727L184.129 134.854C184.129 133.423 185.289 132.263 186.72 132.263L210.593 132.263C212.023 132.263 213.183 133.423 213.183 134.854L213.183 158.727C213.183 160.157 212.023 161.317 210.593 161.317L186.72 161.317Z" fill="#B0B0B0"/>
<path d="M219.661 161.317C218.23 161.317 217.07 160.157 217.07 158.727L217.07 134.854C217.07 133.423 218.23 132.263 219.661 132.263L243.534 132.263C244.965 132.263 246.125 133.423 246.125 134.854L246.125 158.727C246.125 160.157 244.965 161.317 243.534 161.317L219.661 161.317Z" fill="#121212"/>
<path d="M250.157 158.727L250.157 134.854C250.157 133.503 251.252 132.408 252.603 132.408L276.476 132.408C277.826 132.408 278.921 133.503 278.921 134.854L278.921 158.727C278.921 160.077 277.826 161.172 276.476 161.172L252.603 161.172C251.252 161.172 250.157 160.077 250.157 158.727Z" stroke="#121212" stroke-width="0.290543"/>
<path d="M285.54 161.317C284.109 161.317 282.949 160.157 282.949 158.727L282.949 134.854C282.949 133.423 284.109 132.263 285.54 132.263L309.413 132.263C310.844 132.263 312.004 133.423 312.004 134.854L312.004 158.727C312.004 160.157 310.844 161.317 309.413 161.317L285.54 161.317Z" fill="#7E7C7C"/>
<path d="M318.485 161.317C317.054 161.317 315.895 160.157 315.895 158.727L315.895 134.854C315.895 133.423 317.054 132.263 318.485 132.263L342.358 132.263C343.789 132.263 344.949 133.423 344.949 134.854L344.949 158.727C344.949 160.157 343.789 161.317 342.358 161.317L318.485 161.317Z" fill="#B0B0B0"/>
<path d="M348.981 158.727L348.981 134.854C348.982 133.503 350.076 132.408 351.427 132.408L375.3 132.408C376.65 132.408 377.745 133.503 377.745 134.854L377.745 158.727C377.745 160.077 376.65 161.172 375.3 161.172L351.427 161.172C350.076 161.172 348.981 160.077 348.981 158.727Z" stroke="#121212" stroke-width="0.290543"/>
<path d="M384.368 161.317C382.937 161.317 381.777 160.157 381.777 158.727L381.777 134.854C381.777 133.423 382.937 132.263 384.368 132.263L408.241 132.263C409.672 132.263 410.832 133.423 410.832 134.854L410.832 158.727C410.832 160.157 409.672 161.317 408.241 161.317L384.368 161.317Z" fill="#7E7C7C"/>
<path d="M19.5752 191.666L19.5752 167.793C19.5753 166.443 20.67 165.348 22.0205 165.348L45.8936 165.348C47.2439 165.348 48.3387 166.443 48.3389 167.793L48.3389 191.666C48.3389 193.016 47.244 194.111 45.8936 194.111L22.0205 194.111C20.6699 194.111 19.5752 193.017 19.5752 191.666Z" stroke="#121212" stroke-width="0.290543"/>
<path d="M52.5166 191.666L52.5166 167.793C52.5167 166.443 53.6114 165.348 54.9619 165.348L78.835 165.348C80.1853 165.348 81.2801 166.443 81.2803 167.793L81.2803 191.666C81.2803 193.016 80.1854 194.111 78.835 194.111L54.9619 194.111C53.6114 194.111 52.5166 193.017 52.5166 191.666Z" stroke="#121212" stroke-width="0.290543"/>
<path d="M87.8993 194.257C86.4685 194.257 85.3086 193.097 85.3086 191.666L85.3086 167.793C85.3086 166.362 86.4685 165.203 87.8993 165.203L111.772 165.203C113.203 165.203 114.363 166.362 114.363 167.793L114.363 191.666C114.363 193.097 113.203 194.257 111.772 194.257L87.8993 194.257Z" fill="#7E7C7C"/>
<path d="M118.396 191.666L118.396 167.793C118.396 166.443 119.49 165.348 120.841 165.348L144.714 165.348C146.064 165.348 147.159 166.443 147.159 167.793L147.159 191.666C147.159 193.016 146.064 194.111 144.714 194.111L120.841 194.111C119.49 194.111 118.396 193.017 118.396 191.666Z" stroke="#121212" stroke-width="0.290543"/>
<path d="M153.782 194.257C152.351 194.257 151.191 193.097 151.191 191.666L151.191 167.793C151.191 166.362 152.351 165.203 153.782 165.203L177.655 165.203C179.086 165.203 180.246 166.362 180.246 167.793L180.246 191.666C180.246 193.097 179.086 194.257 177.655 194.257L153.782 194.257Z" fill="#7E7C7C"/>
<path d="M184.274 191.666L184.274 167.793C184.275 166.443 185.369 165.348 186.72 165.348L210.593 165.348C211.943 165.348 213.038 166.443 213.038 167.793L213.038 191.666C213.038 193.016 211.943 194.111 210.593 194.111L186.72 194.111C185.369 194.111 184.274 193.017 184.274 191.666Z" stroke="#121212" stroke-width="0.290543"/>
<path d="M217.216 191.666L217.216 167.793C217.216 166.443 218.311 165.348 219.661 165.348L243.534 165.348C244.885 165.348 245.979 166.443 245.979 167.793L245.979 191.666C245.979 193.016 244.885 194.111 243.534 194.111L219.661 194.111C218.311 194.111 217.216 193.017 217.216 191.666Z" stroke="#121212" stroke-width="0.290543"/>
<path d="M252.602 194.257C251.172 194.257 250.012 193.097 250.012 191.666L250.012 167.793C250.012 166.362 251.172 165.203 252.602 165.203L276.475 165.203C277.906 165.203 279.066 166.362 279.066 167.793L279.066 191.666C279.066 193.097 277.906 194.257 276.475 194.257L252.602 194.257Z" fill="#121212"/>
<path d="M283.095 191.666L283.095 167.793C283.095 166.443 284.19 165.348 285.54 165.348L309.413 165.348C310.763 165.348 311.858 166.443 311.858 167.793L311.858 191.666C311.858 193.016 310.764 194.111 309.413 194.111L285.54 194.111C284.189 194.111 283.095 193.017 283.095 191.666Z" stroke="#121212" stroke-width="0.290543"/>
<path d="M318.485 194.257C317.054 194.257 315.895 193.097 315.895 191.666L315.895 167.793C315.895 166.362 317.054 165.203 318.485 165.203L342.358 165.203C343.789 165.203 344.949 166.362 344.949 167.793L344.949 191.666C344.949 193.097 343.789 194.257 342.358 194.257L318.485 194.257Z" fill="#7E7C7C"/>
<path d="M348.981 191.666L348.981 167.793C348.982 166.443 350.076 165.348 351.427 165.348L375.3 165.348C376.65 165.348 377.745 166.443 377.745 167.793L377.745 191.666C377.745 193.016 376.65 194.111 375.3 194.111L351.427 194.111C350.076 194.111 348.981 193.017 348.981 191.666Z" stroke="#121212" stroke-width="0.290543"/>
<path d="M381.923 191.666L381.923 167.793C381.923 166.443 383.018 165.348 384.368 165.348L408.241 165.348C409.592 165.348 410.686 166.443 410.687 167.793L410.687 191.666C410.687 193.016 409.592 194.111 408.241 194.111L384.368 194.111C383.018 194.111 381.923 193.017 381.923 191.666Z" stroke="#121212" stroke-width="0.290543"/>
<path d="M22.0204 227.198C20.5896 227.198 19.4297 226.038 19.4297 224.608L19.4297 200.735C19.4297 199.304 20.5896 198.144 22.0204 198.144L45.8933 198.144C47.3241 198.144 48.484 199.304 48.484 200.735L48.484 224.608C48.484 226.038 47.3241 227.198 45.8933 227.198L22.0204 227.198Z" fill="#121212"/>
<path d="M52.5166 224.607L52.5166 200.734C52.5167 199.384 53.6114 198.289 54.9619 198.289L78.835 198.289C80.1853 198.289 81.2801 199.384 81.2803 200.734L81.2803 224.607C81.2803 225.958 80.1854 227.053 78.835 227.053L54.9619 227.053C53.6114 227.053 52.5166 225.958 52.5166 224.607Z" stroke="#121212" stroke-width="0.290543"/>
<path d="M85.4541 224.607L85.4541 200.734C85.4542 199.384 86.5489 198.289 87.8994 198.289L111.772 198.289C113.123 198.289 114.218 199.384 114.218 200.734L114.218 224.607C114.218 225.958 113.123 227.053 111.772 227.053L87.8994 227.053C86.5489 227.053 85.4541 225.958 85.4541 224.607Z" stroke="#121212" stroke-width="0.290543"/>
<path d="M118.396 224.607L118.396 200.734C118.396 199.384 119.49 198.289 120.841 198.289L144.714 198.289C146.064 198.289 147.159 199.384 147.159 200.734L147.159 224.607C147.159 225.958 146.064 227.053 144.714 227.053L120.841 227.053C119.49 227.053 118.396 225.958 118.396 224.607Z" stroke="#121212" stroke-width="0.290543"/>
<path d="M151.337 224.607L151.337 200.734C151.337 199.384 152.432 198.289 153.782 198.289L177.655 198.289C179.006 198.289 180.1 199.384 180.101 200.734L180.101 224.607C180.101 225.958 179.006 227.053 177.655 227.053L153.782 227.053C152.432 227.053 151.337 225.958 151.337 224.607Z" stroke="#121212" stroke-width="0.290543"/>
<path d="M184.274 224.607L184.274 200.734C184.275 199.384 185.369 198.289 186.72 198.289L210.593 198.289C211.943 198.289 213.038 199.384 213.038 200.734L213.038 224.607C213.038 225.958 211.943 227.053 210.593 227.053L186.72 227.053C185.369 227.053 184.274 225.958 184.274 224.607Z" stroke="#121212" stroke-width="0.290543"/>
<path d="M217.216 224.607L217.216 200.734C217.216 199.384 218.311 198.289 219.661 198.289L243.534 198.289C244.885 198.289 245.979 199.384 245.979 200.734L245.979 224.607C245.979 225.958 244.885 227.053 243.534 227.053L219.661 227.053C218.311 227.053 217.216 225.958 217.216 224.607Z" stroke="#121212" stroke-width="0.290543"/>
<path d="M250.157 224.607L250.157 200.734C250.157 199.384 251.252 198.289 252.603 198.289L276.476 198.289C277.826 198.289 278.921 199.384 278.921 200.734L278.921 224.607C278.921 225.958 277.826 227.053 276.476 227.053L252.603 227.053C251.252 227.053 250.157 225.958 250.157 224.607Z" stroke="#121212" stroke-width="0.290543"/>
<path d="M283.095 224.607L283.095 200.734C283.095 199.384 284.19 198.289 285.54 198.289L309.413 198.289C310.763 198.289 311.858 199.384 311.858 200.734L311.858 224.607C311.858 225.958 310.764 227.053 309.413 227.053L285.54 227.053C284.189 227.053 283.095 225.958 283.095 224.607Z" stroke="#121212" stroke-width="0.290543"/>
<path d="M316.04 224.607L316.04 200.734C316.04 199.384 317.135 198.289 318.485 198.289L342.358 198.289C343.709 198.289 344.804 199.384 344.804 200.734L344.804 224.607C344.804 225.958 343.709 227.053 342.358 227.053L318.485 227.053C317.135 227.053 316.04 225.958 316.04 224.607Z" stroke="#121212" stroke-width="0.290543"/>
<path d="M348.981 224.607L348.981 200.734C348.982 199.384 350.076 198.289 351.427 198.289L375.3 198.289C376.65 198.289 377.745 199.384 377.745 200.734L377.745 224.607C377.745 225.958 376.65 227.053 375.3 227.053L351.427 227.053C350.076 227.053 348.981 225.958 348.981 224.607Z" stroke="#121212" stroke-width="0.290543"/>
<path d="M381.923 224.607L381.923 200.734C381.923 199.384 383.018 198.289 384.368 198.289L408.241 198.289C409.592 198.289 410.686 199.384 410.687 200.734L410.687 224.607C410.687 225.958 409.592 227.053 408.241 227.053L384.368 227.053C383.018 227.053 381.923 225.958 381.923 224.607Z" stroke="#121212" stroke-width="0.290543"/>
</svg>
