<svg width="251" height="63" viewBox="0 0 251 63" fill="none" xmlns="http://www.w3.org/2000/svg">
<path d="M225.381 38.5207V34.2007L236.109 30.9247V30.2767L225.381 27.0007V22.6807L240.501 27.7927V33.4087L225.381 38.5207Z" fill="#1C1917"/>
<path d="M212.838 43.7038C210.51 43.7038 208.602 43.1998 207.114 42.1918C205.626 41.1838 204.726 39.7438 204.414 37.8718L208.59 36.7918C208.758 37.6318 209.034 38.2918 209.418 38.7718C209.826 39.2518 210.318 39.5998 210.894 39.8158C211.494 40.0078 212.142 40.1038 212.838 40.1038C213.894 40.1038 214.674 39.9238 215.178 39.5638C215.682 39.1798 215.934 38.7118 215.934 38.1598C215.934 37.6078 215.694 37.1878 215.214 36.8998C214.734 36.5878 213.966 36.3358 212.91 36.1438L211.902 35.9638C210.654 35.7238 209.514 35.3998 208.482 34.9918C207.45 34.5598 206.622 33.9718 205.998 33.2278C205.374 32.4838 205.062 31.5238 205.062 30.3478C205.062 28.5718 205.71 27.2158 207.006 26.2798C208.302 25.3198 210.006 24.8398 212.118 24.8398C214.11 24.8398 215.766 25.2838 217.086 26.1718C218.406 27.0598 219.27 28.2238 219.678 29.6638L215.466 30.9598C215.274 30.0478 214.878 29.3998 214.278 29.0158C213.702 28.6318 212.982 28.4398 212.118 28.4398C211.254 28.4398 210.594 28.5958 210.138 28.9078C209.682 29.1958 209.454 29.6038 209.454 30.1318C209.454 30.7078 209.694 31.1398 210.174 31.4278C210.654 31.6918 211.302 31.8958 212.118 32.0398L213.126 32.2198C214.47 32.4598 215.682 32.7838 216.762 33.1918C217.866 33.5758 218.73 34.1398 219.354 34.8838C220.002 35.6038 220.326 36.5878 220.326 37.8358C220.326 39.7078 219.642 41.1598 218.274 42.1918C216.93 43.1998 215.118 43.7038 212.838 43.7038Z" fill="#1C1917"/>
<path d="M192.717 43.7038C190.989 43.7038 189.417 43.3438 188.001 42.6238C186.609 41.9038 185.505 40.8598 184.689 39.4918C183.873 38.1238 183.465 36.4678 183.465 34.5238V34.0198C183.465 32.0758 183.873 30.4198 184.689 29.0518C185.505 27.6838 186.609 26.6398 188.001 25.9198C189.417 25.1998 190.989 24.8398 192.717 24.8398C194.421 24.8398 195.885 25.1398 197.109 25.7398C198.333 26.3398 199.317 27.1678 200.061 28.2238C200.829 29.2558 201.333 30.4318 201.573 31.7518L197.181 32.6878C197.085 31.9678 196.869 31.3198 196.533 30.7438C196.197 30.1678 195.717 29.7118 195.093 29.3758C194.493 29.0398 193.737 28.8718 192.825 28.8718C191.913 28.8718 191.085 29.0758 190.341 29.4838C189.621 29.8678 189.045 30.4558 188.613 31.2478C188.205 32.0158 188.001 32.9638 188.001 34.0918V34.4518C188.001 35.5798 188.205 36.5398 188.613 37.3318C189.045 38.0998 189.621 38.6878 190.341 39.0958C191.085 39.4798 191.913 39.6718 192.825 39.6718C194.193 39.6718 195.225 39.3238 195.921 38.6278C196.641 37.9078 197.097 36.9718 197.289 35.8198L201.681 36.8638C201.369 38.1358 200.829 39.2998 200.061 40.3558C199.317 41.3878 198.333 42.2038 197.109 42.8038C195.885 43.4038 194.421 43.7038 192.717 43.7038Z" fill="#1C1917"/>
<path d="M170.782 43.7038C169.006 43.7038 167.41 43.3438 165.994 42.6238C164.578 41.9038 163.462 40.8598 162.646 39.4918C161.83 38.1238 161.422 36.4798 161.422 34.5598V33.9838C161.422 32.0638 161.83 30.4198 162.646 29.0518C163.462 27.6838 164.578 26.6398 165.994 25.9198C167.41 25.1998 169.006 24.8398 170.782 24.8398C172.558 24.8398 174.154 25.1998 175.57 25.9198C176.986 26.6398 178.102 27.6838 178.918 29.0518C179.734 30.4198 180.142 32.0638 180.142 33.9838V34.5598C180.142 36.4798 179.734 38.1238 178.918 39.4918C178.102 40.8598 176.986 41.9038 175.57 42.6238C174.154 43.3438 172.558 43.7038 170.782 43.7038ZM170.782 39.6718C172.174 39.6718 173.326 39.2278 174.238 38.3398C175.15 37.4278 175.606 36.1318 175.606 34.4518V34.0918C175.606 32.4118 175.15 31.1278 174.238 30.2398C173.35 29.3278 172.198 28.8718 170.782 28.8718C169.39 28.8718 168.238 29.3278 167.326 30.2398C166.414 31.1278 165.958 32.4118 165.958 34.0918V34.4518C165.958 36.1318 166.414 37.4278 167.326 38.3398C168.238 39.2278 169.39 39.6718 170.782 39.6718Z" fill="#1C1917"/>
<path d="M146.529 43.704C145.113 43.704 143.781 43.356 142.533 42.66C141.309 41.94 140.325 40.896 139.581 39.528C138.837 38.16 138.465 36.504 138.465 34.56V33.984C138.465 32.04 138.837 30.384 139.581 29.016C140.325 27.648 141.309 26.616 142.533 25.92C143.757 25.2 145.089 24.84 146.529 24.84C147.609 24.84 148.509 24.972 149.229 25.236C149.973 25.476 150.573 25.788 151.029 26.172C151.485 26.556 151.833 26.964 152.073 27.396H152.721V18H157.257V43.2H152.793V41.04H152.145C151.737 41.712 151.101 42.324 150.237 42.876C149.397 43.428 148.161 43.704 146.529 43.704ZM147.897 39.744C149.289 39.744 150.453 39.3 151.389 38.412C152.325 37.5 152.793 36.18 152.793 34.452V34.092C152.793 32.364 152.325 31.056 151.389 30.168C150.477 29.256 149.313 28.8 147.897 28.8C146.505 28.8 145.341 29.256 144.405 30.168C143.469 31.056 143.001 32.364 143.001 34.092V34.452C143.001 36.18 143.469 37.5 144.405 38.412C145.341 39.3 146.505 39.744 147.897 39.744Z" fill="#1C1917"/>
<path d="M123.768 47.4L134.352 15H138.888L128.304 47.4H123.768Z" fill="#1C1917"/>
<path d="M119.739 38.5207L104.619 33.4087V27.7927L119.739 22.6807V27.0007L109.011 30.2767V30.9247L119.739 34.2007V38.5207Z" fill="#1C1917"/>
<path d="M72.3613 43.2001V25.4521H75.9973V28.1161H76.5733C76.9093 27.3961 77.5093 26.7241 78.3733 26.1001C79.2373 25.4761 80.5213 25.1641 82.2253 25.1641C83.5693 25.1641 84.7573 25.4641 85.7893 26.0641C86.8453 26.6641 87.6733 27.5161 88.2733 28.6201C88.8733 29.7001 89.1733 31.0081 89.1733 32.5441V43.2001H85.4653V32.8321C85.4653 31.2961 85.0813 30.1681 84.3133 29.4481C83.5453 28.7041 82.4893 28.3321 81.1453 28.3321C79.6093 28.3321 78.3733 28.8361 77.4373 29.8441C76.5253 30.8521 76.0693 32.3161 76.0693 34.2361V43.2001H72.3613Z" fill="#1C1917"/>
<path d="M58.0143 43.7041C55.0863 43.7041 52.7463 42.8761 50.9943 41.2201C49.2663 39.5401 48.4023 37.0201 48.4023 33.6601V27.5401C48.4023 24.2521 49.2663 21.7561 50.9943 20.0521C52.7463 18.3481 55.0863 17.4961 58.0143 17.4961C60.9663 17.4961 63.3063 18.3481 65.0343 20.0521C66.7863 21.7561 67.6623 24.2521 67.6623 27.5401V33.6601C67.6623 37.0201 66.7863 39.5401 65.0343 41.2201C63.3063 42.8761 60.9663 43.7041 58.0143 43.7041ZM58.0143 40.3201C60.0063 40.3201 61.4823 39.7561 62.4423 38.6281C63.4023 37.4761 63.8823 35.8681 63.8823 33.8041V27.3241C63.8823 25.2601 63.3663 23.6761 62.3343 22.5721C61.3023 21.4441 59.8623 20.8801 58.0143 20.8801C56.1423 20.8801 54.7023 21.4561 53.6943 22.6081C52.6863 23.7361 52.1823 25.3081 52.1823 27.3241V33.8041C52.1823 35.9161 52.6623 37.5361 53.6223 38.6641C54.6063 39.7681 56.0703 40.3201 58.0143 40.3201Z" fill="#1C1917"/>
<path d="M40.0284 43.2V20.664H39.4524L35.3124 29.16H31.3164L36.8964 18H43.8084V43.2H40.0284Z" fill="#1C1917"/>
<path d="M19.68 43.7042C17.904 43.7042 16.32 43.3442 14.928 42.6242C13.56 41.8802 12.48 40.8242 11.688 39.4562C10.896 38.0882 10.5 36.4682 10.5 34.5962V34.0562C10.5 32.1842 10.896 30.5762 11.688 29.2322C12.48 27.8642 13.56 26.8082 14.928 26.0642C16.32 25.3202 17.904 24.9482 19.68 24.9482C21.456 24.9482 23.04 25.3202 24.432 26.0642C25.824 26.8082 26.916 27.8642 27.708 29.2322C28.5 30.5762 28.896 32.1842 28.896 34.0562V34.5962C28.896 36.4682 28.5 38.0882 27.708 39.4562C26.916 40.8242 25.824 41.8802 24.432 42.6242C23.04 43.3442 21.456 43.7042 19.68 43.7042ZM19.68 40.3922C21.312 40.3922 22.632 39.8762 23.64 38.8442C24.672 37.7882 25.188 36.3362 25.188 34.4882V34.1642C25.188 32.3162 24.684 30.8762 23.676 29.8442C22.668 28.7882 21.336 28.2602 19.68 28.2602C18.072 28.2602 16.752 28.7882 15.72 29.8442C14.712 30.8762 14.208 32.3162 14.208 34.1642V34.4882C14.208 36.3362 14.712 37.7882 15.72 38.8442C16.752 39.8762 18.072 40.3922 19.68 40.3922Z" fill="#1C1917"/>
</svg>
