<svg width="24" height="24" viewBox="0 0 24 24" fill="none" xmlns="http://www.w3.org/2000/svg">
<path d="M12 0C8.8174 0 5.76516 1.26428 3.51472 3.51472C1.26428 5.76516 0 8.8174 0 12C0 15.1826 1.26428 18.2348 3.51472 20.4853C5.76516 22.7357 8.8174 24 12 24C15.1826 24 18.2348 22.7357 20.4853 20.4853C22.7357 18.2348 24 15.1826 24 12C24 8.8174 22.7357 5.76516 20.4853 3.51472C18.2348 1.26428 15.1826 0 12 0ZM11.994 3.43C12.8876 3.43 13.7446 3.78492 14.3766 4.4167C15.0086 5.04848 15.3637 5.90539 15.364 6.799V8.998L9.628 5.689C9.40854 5.56227 9.17831 5.45518 8.94 5.369C9.20987 4.78737 9.64098 4.2954 10.1822 3.95152C10.7233 3.60764 11.3518 3.42629 11.993 3.429L11.994 3.43ZM7.496 6.03C8.084 6.03 8.666 6.186 9.18 6.482L14.914 9.793L12.004 11.471L8.404 9.395C8.33419 9.35481 8.25505 9.33366 8.1745 9.33366C8.09395 9.33366 8.01481 9.35481 7.945 9.395L5.35 10.893C5.12978 11.0174 4.92185 11.1624 4.729 11.326C4.36082 10.802 4.15053 10.1835 4.12306 9.54369C4.09559 8.90388 4.25208 8.26961 4.574 7.716C4.87149 7.20435 5.29775 6.77951 5.81038 6.48372C6.32302 6.18793 6.90415 6.0315 7.496 6.03ZM16.219 6.045C16.8567 5.99171 17.4964 6.12055 18.0638 6.41654C18.6312 6.71252 19.1028 7.16349 19.424 7.717C19.8697 8.4909 19.9899 9.41005 19.7583 10.2725C19.5268 11.1351 18.9623 11.8704 18.189 12.317L12.453 15.625V12.268L16.055 10.191C16.1245 10.1504 16.1821 10.0923 16.2221 10.0224C16.2622 9.9526 16.2831 9.87349 16.283 9.793V6.799C16.2834 6.54629 16.2619 6.29403 16.219 6.045ZM7.715 10.588V17.205C7.715 17.4583 7.737 17.7097 7.781 17.959C7.68624 17.9675 7.59114 17.9715 7.496 17.971C6.90449 17.9704 6.3235 17.8145 5.8111 17.519C5.29869 17.2235 4.87281 16.7987 4.576 16.287C4.35325 15.9047 4.20866 15.482 4.15063 15.0434C4.09261 14.6048 4.12231 14.159 4.238 13.732C4.35126 13.3043 4.54838 12.9033 4.8179 12.5525C5.08742 12.2016 5.42397 11.9077 5.808 11.688L7.715 10.588ZM8.623 10.588L11.535 12.268V16.42C11.5354 16.5003 11.5569 16.5792 11.5972 16.6487C11.6376 16.7181 11.6954 16.7758 11.765 16.816L14.359 18.314H14.361C14.581 18.4413 14.8103 18.548 15.049 18.634C14.7787 19.2156 14.3471 19.7073 13.8056 20.0509C13.2641 20.3944 12.6353 20.5753 11.994 20.572C11.1008 20.5715 10.2443 20.2167 9.61234 19.5855C8.98038 18.9543 8.62459 18.0982 8.623 17.205V10.588ZM19.27 12.676C19.6382 13.2002 19.8485 13.8189 19.8757 14.459C19.903 15.099 19.7463 15.7334 19.424 16.287C19.2027 16.6703 18.908 17.0062 18.5569 17.2756C18.2057 17.545 17.8049 17.7426 17.3774 17.8571C16.9499 17.9716 16.504 18.0008 16.0652 17.9429C15.6264 17.8851 15.2033 17.7414 14.82 17.52L12.912 16.42L18.65 13.111C18.8691 12.9845 19.0765 12.839 19.27 12.676Z" fill="#292524"/>
</svg>
