<svg width="24" height="24" viewBox="0 0 24 24" fill="none" xmlns="http://www.w3.org/2000/svg">
<path d="M11.782 5.7201C10.6089 5.70417 9.47103 6.12085 8.58564 6.89059C7.70025 7.66032 7.12937 8.72919 6.982 9.8931C7.26603 9.40914 7.66445 9.00226 8.14234 8.70814C8.62023 8.41401 9.16298 8.24163 9.723 8.2061C11.412 8.2061 12.697 10.1781 13.481 10.7931C14.2294 11.3846 15.1136 11.7799 16.0534 11.9432C16.9932 12.1065 17.959 12.0326 18.863 11.7281C20.863 11.0901 21.797 8.8631 22 7.8071C21.031 9.1861 19.56 10.0141 17.741 9.0381C16.488 8.3651 15.551 5.6001 11.782 5.7201ZM6.8 11.9791C5.62688 11.9625 4.48878 12.3788 3.60327 13.1484C2.71776 13.9181 2.14697 14.9871 2 16.1511C2.2844 15.6666 2.68346 15.2594 3.16209 14.9652C3.64072 14.6711 4.18429 14.499 4.745 14.4641C6.434 14.4641 7.719 16.4361 8.503 17.0511C9.25137 17.6426 10.1356 18.038 11.0754 18.2012C12.0152 18.3645 12.981 18.2906 13.885 17.9861C15.885 17.3481 16.818 15.1211 17.022 14.0651C16.052 15.4441 14.582 16.2731 12.763 15.2961C11.51 14.6231 10.573 11.8531 6.8 11.9791Z" fill="#292524"/>
</svg>
