<svg width="24" height="24" viewBox="0 0 24 24" fill="none" xmlns="http://www.w3.org/2000/svg">
<path d="M16.7098 0.243092L16.5898 2.95309C16.5883 2.98737 16.5967 3.02135 16.6139 3.05103C16.6311 3.08071 16.6564 3.10486 16.6869 3.12062C16.7174 3.13638 16.7517 3.14311 16.7859 3.14C16.8201 3.1369 16.8526 3.12409 16.8798 3.10309L17.9398 2.30309L18.8398 3.00309C18.8662 3.02081 18.8968 3.03121 18.9286 3.03323C18.9603 3.03525 18.9921 3.02882 19.0205 3.01459C19.049 3.00036 19.0731 2.97885 19.0906 2.95223C19.108 2.92562 19.1181 2.89486 19.1198 2.86309L19.0198 0.103092L20.3498 0.0030918C20.5139 -0.00773557 20.6784 0.0152847 20.8333 0.0707234C20.9881 0.126162 21.1299 0.212836 21.2498 0.325364C21.3698 0.437892 21.4653 0.573872 21.5305 0.724863C21.5957 0.875854 21.6291 1.03863 21.6288 1.20309V22.7991C21.629 22.9619 21.5961 23.123 21.532 23.2726C21.468 23.4223 21.3742 23.5573 21.2564 23.6696C21.1385 23.7818 20.999 23.8689 20.8464 23.9256C20.6938 23.9822 20.5313 24.0072 20.3688 23.9991L4.27276 23.2791C3.97004 23.2666 3.68324 23.1401 3.46994 22.925C3.25663 22.7098 3.13261 22.4219 3.12276 22.1191L2.37276 2.32209C2.3633 2.16445 2.38504 2.00648 2.43675 1.85726C2.48847 1.70803 2.56912 1.57048 2.6741 1.4525C2.77908 1.33451 2.90632 1.23841 3.04852 1.1697C3.19072 1.10099 3.34509 1.06102 3.50276 1.05209L16.6998 0.222092L16.7098 0.243092ZM13.6398 9.30009C13.6398 9.77009 16.7998 9.54009 17.2298 9.22009C17.2298 6.02009 15.5098 4.33009 12.3708 4.33009C9.22076 4.33009 7.47176 6.05009 7.47176 8.62009C7.47176 13.0701 13.4708 13.1501 13.4708 15.5791C13.4708 16.2791 13.1508 16.6791 12.4208 16.6791C11.4608 16.6791 11.0708 16.1891 11.1208 14.5191C11.1208 14.1591 7.47176 14.0391 7.35176 14.5191C7.08176 18.5491 9.58176 19.7191 12.4508 19.7191C15.2408 19.7191 17.4198 18.2291 17.4198 15.5391C17.4198 10.7691 11.3208 10.8991 11.3208 8.54009C11.3208 7.57009 12.0408 7.44009 12.4508 7.44009C12.9008 7.44009 13.7008 7.51009 13.6408 9.31009L13.6398 9.30009Z" fill="#292524"/>
</svg>
