<svg width="24" height="24" viewBox="0 0 24 24" fill="none" xmlns="http://www.w3.org/2000/svg">
<path d="M19.8001 3.77006C19.359 3.07775 18.786 2.47909 18.1136 2.00827C17.4412 1.53745 16.6827 1.20369 15.8813 1.02605C15.0799 0.848404 14.2514 0.830361 13.443 0.972948C12.6347 1.11553 11.8623 1.41596 11.1701 1.85706L6.11005 5.08106C4.72894 5.96115 3.74844 7.34816 3.37946 8.94375C3.01049 10.5393 3.28253 12.216 4.13705 13.6131C3.3999 14.8185 3.09298 16.2382 3.26636 17.6405C3.43974 19.0429 4.08319 20.3451 5.09174 21.3347C6.10029 22.3243 7.41442 22.943 8.81977 23.0898C10.2251 23.2366 11.6387 22.9029 12.8301 22.1431L17.8901 18.9191C19.2713 18.0391 20.252 16.6522 20.6212 15.0566C20.9904 13.461 20.7185 11.7843 19.8641 10.3871C20.4737 9.38865 20.7909 8.23918 20.7796 7.0694C20.7683 5.89962 20.4289 4.75649 19.8001 3.77006ZM18.4481 8.77406C17.6358 8.12341 16.6741 7.68554 15.6501 7.50006C15.6809 7.3096 15.656 7.11428 15.5784 6.93765C15.5007 6.76102 15.3736 6.61062 15.2124 6.50459C15.0512 6.39857 14.8628 6.34145 14.6699 6.34011C14.4769 6.33877 14.2877 6.39328 14.1251 6.49706L9.06605 9.72006C8.95234 9.78924 8.85359 9.88041 8.77557 9.98825C8.69756 10.0961 8.64185 10.2184 8.61173 10.348C8.5816 10.4777 8.57766 10.612 8.60013 10.7432C8.6226 10.8744 8.67103 10.9998 8.74258 11.112C8.81414 11.2242 8.90738 11.3211 9.01683 11.3968C9.12629 11.4725 9.24976 11.5256 9.38001 11.553C9.51026 11.5804 9.64467 11.5815 9.77535 11.5563C9.90603 11.531 10.0304 11.48 10.1411 11.4061L12.2501 10.0631C12.7208 9.76319 13.2461 9.55898 13.7958 9.4621C14.3455 9.36521 14.9089 9.37755 15.4539 9.49841C15.9988 9.61926 16.5146 9.84627 16.9718 10.1665C17.429 10.4867 17.8187 10.8938 18.1186 11.3646C18.4184 11.8354 18.6226 12.3606 18.7195 12.9103C18.8164 13.46 18.8041 14.0234 18.6832 14.5684C18.5624 15.1133 18.3353 15.6291 18.0152 16.0863C17.695 16.5435 17.2878 16.9332 16.8171 17.2331L11.7571 20.4561C10.9933 20.9431 10.0938 21.1733 9.19 21.1131C8.28615 21.053 7.42517 20.7056 6.73264 20.1217C6.0401 19.5378 5.55224 18.7479 5.34023 17.8672C5.12821 16.9866 5.20313 16.0612 5.55405 15.2261C6.36552 15.8768 7.32656 16.3147 8.35005 16.5001C8.31919 16.6905 8.34408 16.8858 8.42173 17.0625C8.49938 17.2391 8.62646 17.3895 8.78767 17.4955C8.94887 17.6016 9.13731 17.6587 9.33025 17.66C9.52319 17.6614 9.7124 17.6068 9.87505 17.5031L14.9351 14.2791C15.1554 14.1351 15.3101 13.9101 15.3656 13.6529C15.4211 13.3956 15.373 13.1269 15.2317 12.9049C15.0903 12.6828 14.8672 12.5255 14.6106 12.467C14.354 12.4084 14.0847 12.4534 13.8611 12.5921L11.7521 13.9361C10.8013 14.5417 9.64881 14.7448 8.54825 14.5007C7.4477 14.2566 6.48918 13.5854 5.88355 12.6346C5.27793 11.6838 5.07482 10.5313 5.3189 9.43076C5.56298 8.33021 6.23425 7.37168 7.18505 6.76606L12.2451 3.54306C13.0088 3.05607 13.9083 2.82585 14.8121 2.88599C15.716 2.94614 16.5769 3.2935 17.2695 3.8774C17.962 4.46131 18.4499 5.25121 18.6619 6.13189C18.8739 7.01257 18.799 7.93796 18.4481 8.77306" fill="#292524"/>
</svg>
