<svg width="24" height="24" viewBox="0 0 24 24" fill="none" xmlns="http://www.w3.org/2000/svg">
<path fill-rule="evenodd" clip-rule="evenodd" d="M1.01812 12.5733C1.01812 13.3012 0.945562 13.5386 0.758062 13.713C0.550688 13.863 0.2805 13.9458 0 13.9458L0.0725625 14.3619C0.506812 14.3662 0.927937 14.2432 1.25756 14.0169C1.434 13.8433 1.566 13.6442 1.64437 13.4295C1.72215 13.2185 1.746 12.9914 1.71375 12.7689V10.0157H1.01812V12.5733ZM5.92312 12.1667C5.92312 12.4685 5.92312 12.7374 5.95162 12.971H5.36662L5.32687 12.492C5.20387 12.6618 5.02875 12.8017 4.81875 12.897C4.60276 12.9946 4.36781 13.0432 4.13081 13.0391C3.5595 13.0391 2.87981 12.7856 2.87981 11.7528V10.0361H3.53981V11.6439C3.53981 12.2027 3.75225 12.5762 4.347 12.5762C4.46858 12.5776 4.58958 12.5591 4.70512 12.5212C4.81518 12.4847 4.91785 12.4289 5.00831 12.3564C5.09214 12.2892 5.16056 12.2048 5.20894 12.1089C5.25581 12.0167 5.27925 11.9177 5.27775 11.8166V10.0157H5.937V12.1507L5.92312 12.1667ZM7.32562 10.931C7.32562 10.529 7.32562 10.1994 7.29562 9.90222H7.88887L7.91812 10.4426C8.05012 10.2463 8.24062 10.0867 8.46825 9.97834C8.7003 9.86893 8.95534 9.81715 9.21169 9.8274C10.0905 9.8274 10.752 10.4726 10.752 11.433C10.752 12.5666 9.95719 13.1291 9.09825 13.1291C8.88016 13.1383 8.66289 13.0972 8.46319 13.0091C8.27236 12.9259 8.1054 12.7962 7.97756 12.6318V14.3619H7.32562V10.931ZM7.97756 11.7742C7.97931 11.8535 7.98906 11.9316 8.00681 12.0086C8.06306 12.2004 8.19056 12.3705 8.36944 12.492C8.54812 12.6142 8.76862 12.6795 8.99494 12.6795C9.69056 12.6795 10.1001 12.1815 10.1001 11.4592C10.1001 10.8279 9.71569 10.2866 9.01912 10.2866C8.7435 10.3065 8.48587 10.4133 8.29387 10.5877C8.10262 10.7627 7.98919 10.992 7.97756 11.2337V11.7742ZM11.877 10.0235L12.684 11.783C12.7684 11.9793 12.8591 12.215 12.9184 12.3909C12.9887 12.2115 13.0642 11.9829 13.1542 11.7705L13.8861 10.0237H14.592L13.59 12.146C13.0892 13.1657 12.7837 13.6929 12.3231 14.0109C12.0907 14.1843 11.8074 14.3045 11.5012 14.3615L11.3362 13.9053C11.5451 13.8501 11.7432 13.7603 11.9224 13.6395C12.1661 13.4769 12.3604 13.2703 12.4886 13.0352C12.5154 12.9958 12.534 12.9515 12.5434 12.9048C12.5367 12.8549 12.5213 12.8066 12.498 12.762L11.1358 10.0155H11.8674L11.877 10.0235ZM16.3543 9.07084V9.94309H17.28V10.3584H16.3543V11.9953C16.3543 12.3697 16.4803 12.585 16.8362 12.585C16.9627 12.5864 17.089 12.5737 17.2127 12.5469L17.2412 12.9637C17.0552 13.0184 16.8616 13.0434 16.6678 13.0376C16.5395 13.0449 16.411 13.0277 16.2891 12.987C16.171 12.9492 16.062 12.8874 15.969 12.8055C15.7727 12.5784 15.6827 12.2964 15.7177 12.0159V10.3541H15.1678V9.93878H15.7273V9.1989L16.3543 9.07084ZM18.5231 11.52C18.5092 11.6637 18.5329 11.8086 18.5917 11.9405C18.6545 12.0793 18.7485 12.2016 18.8664 12.2979C18.9881 12.3997 19.1338 12.4779 19.2949 12.527C19.4579 12.5772 19.6287 12.5969 19.7989 12.5852C20.1446 12.5915 20.4889 12.5373 20.8074 12.4247L20.9237 12.8458C20.5262 12.9816 20.1079 13.046 19.6881 13.0361C19.4427 13.05 19.1969 13.0195 18.9624 12.9461C18.7318 12.873 18.5222 12.7586 18.3486 12.6114C18.1751 12.4642 18.0418 12.287 17.9574 12.0928C17.8745 11.9021 17.8418 11.6933 17.8624 11.4864C17.8624 10.559 18.5229 9.82665 19.6024 9.82665C20.8125 9.82665 21.1157 10.7107 21.1157 11.2755C21.1217 11.3622 21.1217 11.4493 21.1157 11.5361H18.5076L18.5231 11.52ZM20.4997 11.0988C20.5193 10.9858 20.5098 10.8697 20.472 10.7613C20.4311 10.6491 20.3649 10.5478 20.2785 10.4653C20.1858 10.3767 20.0763 10.3078 19.9564 10.2624C19.8305 10.2144 19.697 10.1894 19.5622 10.1885C19.2853 10.2054 19.0254 10.308 18.8342 10.4763C18.6424 10.6447 18.5332 10.866 18.528 11.0988H20.4997ZM22.1089 10.8851C22.1089 10.5157 22.1089 10.1973 22.0804 9.90447H22.6502V10.5195H22.6779C22.7379 10.3299 22.8617 10.1613 23.031 10.0383C23.206 9.91348 23.4133 9.84174 23.628 9.83172C23.6872 9.8244 23.748 9.8244 23.808 9.83172V10.3695C23.7355 10.3615 23.6624 10.3615 23.5899 10.3695C23.3745 10.3768 23.1686 10.4544 23.0126 10.5892C22.8559 10.7238 22.7593 10.9055 22.7402 11.0996C22.7225 11.1874 22.7127 11.2766 22.7109 11.3662V13.0391H22.0847V10.8894L22.1089 10.8851ZM20.5811 1.36497C20.5929 1.64681 20.5218 1.92593 20.3767 2.16784C20.2318 2.4084 20.019 2.60076 19.7651 2.72078C19.5115 2.83971 19.2281 2.88019 18.9514 2.83703C18.6742 2.79377 18.4161 2.66889 18.2102 2.47834C18.0034 2.28661 17.8578 2.0381 17.7916 1.76396C17.7254 1.48982 17.7416 1.20224 17.8382 0.93728C17.9336 0.672795 18.1051 0.442442 18.3311 0.275218C18.5565 0.108663 18.8266 0.0132698 19.1066 0.00128011C19.2924 -0.00665218 19.4779 0.0223406 19.6524 0.0865804C19.8269 0.15082 19.987 0.249031 20.1232 0.37553C20.4 0.631922 20.5643 0.987271 20.5804 1.36422L20.5811 1.36497ZM12.3296 18.1479C8.56125 18.1479 5.27044 16.7672 3.561 14.7228C4.19487 16.5532 5.38069 18.1421 6.95512 19.2705C8.52296 20.3938 10.4032 20.998 12.3319 20.9983C14.2605 20.9976 16.1405 20.3934 17.7084 19.2705C19.2827 18.1423 20.4681 16.5533 21.1011 14.7228C19.3886 16.7672 16.0978 18.1479 12.3296 18.1479ZM12.3281 4.85284C16.0965 4.85284 19.3879 6.23415 21.0967 8.27753C20.4628 6.4472 19.277 4.85845 17.7026 3.73009C16.135 2.60683 14.2551 2.00233 12.3266 2.00134C10.3981 2.00233 8.51825 2.60683 6.95062 3.73009C5.37592 4.85806 4.19013 6.44696 3.55687 8.27753C5.26912 6.2379 8.55975 4.85284 12.3281 4.85284ZM7.15575 22.1218C7.17121 22.4771 7.08181 22.8292 6.89869 23.1341C6.71673 23.4375 6.44853 23.6799 6.12828 23.8303C5.80804 23.9807 5.45026 24.0323 5.10056 23.9786C4.75086 23.9246 4.4255 23.7666 4.16681 23.5252C3.907 23.2834 3.72387 22.9707 3.64012 22.6258C3.55744 22.2796 3.57784 21.9167 3.69881 21.582C3.81991 21.2482 4.03702 20.9577 4.32281 20.747C4.65546 20.5026 5.06292 20.3817 5.47505 20.4053C5.88719 20.4288 6.27823 20.5953 6.58087 20.876C6.92912 21.1996 7.13569 21.6476 7.15575 22.1225V22.1218ZM3.99094 4.39065C3.7838 4.39966 3.57873 4.34637 3.40219 4.23765C3.22451 4.12866 3.08307 3.96949 2.99571 3.78023C2.90836 3.59097 2.87899 3.38008 2.91131 3.17415C2.94229 2.96765 3.03414 2.77507 3.17512 2.62103C3.31479 2.46766 3.49676 2.35909 3.69806 2.30903C3.89926 2.25877 4.11098 2.2708 4.30519 2.34353C4.50009 2.41535 4.66898 2.54394 4.79006 2.71272C4.93304 2.91021 5.00365 3.15091 4.99002 3.39435C4.9764 3.63778 4.87937 3.8691 4.71525 4.0494C4.62288 4.1513 4.51126 4.23391 4.38682 4.29248C4.26238 4.35105 4.12758 4.38441 3.99019 4.39065H3.99094Z" fill="#292524"/>
</svg>
