<svg width="116" height="24" viewBox="0 0 116 24" fill="none" xmlns="http://www.w3.org/2000/svg">
<path d="M30.8571 0.832656H34.0604V13.969H34.2073L36.5878 11.5298L40.849 7.41551H44.64L38.498 13.3812L45.3159 22.5796H41.4661L36.1763 15.2033L34.0604 17.1722V22.5796H30.8571V0.832656Z" fill="#242424"/>
<path d="M48.1257 19.9935H52.1518V10.0016H48.1257V7.41551H55.3551V11.4416H55.5314C55.6685 10.9127 55.8644 10.4033 56.1191 9.91347C56.3738 9.42368 56.6971 9.00245 57.0889 8.6498C57.4808 8.27755 57.9608 7.98368 58.5289 7.76817C59.0971 7.53306 59.7632 7.41551 60.5273 7.41551H62.3493V10.4718H59.3518C58.1763 10.4718 57.2163 10.8245 56.4718 11.5298C55.7273 12.2155 55.3551 13.1461 55.3551 14.3216V19.9935H60.8506V22.5796H48.1257V19.9935Z" fill="#242424"/>
<path d="M72.3297 22.9323C71.213 22.9323 70.204 22.7461 69.3028 22.3739C68.4211 22.0016 67.6668 21.4727 67.0399 20.7869C66.4326 20.1012 65.9623 19.2686 65.6293 18.289C65.2962 17.3094 65.1297 16.2122 65.1297 14.9976C65.1297 13.7829 65.2962 12.6857 65.6293 11.7061C65.9623 10.7265 66.4326 9.89388 67.0399 9.20817C67.6668 8.52245 68.4211 7.99347 69.3028 7.62123C70.204 7.24898 71.213 7.06286 72.3297 7.06286C73.4464 7.06286 74.4456 7.24898 75.3272 7.62123C76.2285 7.99347 76.9828 8.52245 77.5901 9.20817C78.217 9.89388 78.697 10.7265 79.0301 11.7061C79.3632 12.6857 79.5297 13.7829 79.5297 14.9976C79.5297 16.2122 79.3632 17.3094 79.0301 18.289C78.697 19.2686 78.217 20.1012 77.5901 20.7869C76.9828 21.4727 76.2285 22.0016 75.3272 22.3739C74.4456 22.7461 73.4464 22.9323 72.3297 22.9323ZM72.3297 20.4049C73.5052 20.4049 74.4358 20.0522 75.1215 19.3469C75.8268 18.622 76.1795 17.5543 76.1795 16.1437V13.8514C76.1795 12.4408 75.8268 11.3829 75.1215 10.6776C74.4358 9.95266 73.5052 9.59021 72.3297 9.59021C71.1542 9.59021 70.2138 9.95266 69.5085 10.6776C68.8228 11.3829 68.4799 12.4408 68.4799 13.8514V16.1437C68.4799 17.5543 68.8228 18.622 69.5085 19.3469C70.2138 20.0522 71.1542 20.4049 72.3297 20.4049Z" fill="#242424"/>
<path d="M82.4276 22.5796V7.41551H85.1607V9.38449H85.3076C85.5427 8.73796 85.8758 8.18939 86.3068 7.73878C86.7574 7.28817 87.3941 7.06286 88.217 7.06286C89.0203 7.06286 89.6374 7.28817 90.0684 7.73878C90.519 8.1698 90.8031 8.76735 90.9207 9.53143H91.0382C91.3125 8.84572 91.6945 8.26776 92.1843 7.79755C92.6741 7.30776 93.3794 7.06286 94.3003 7.06286C95.4758 7.06286 96.2888 7.47429 96.7394 8.29715C97.2096 9.12 97.4448 10.3249 97.4448 11.9118V22.5796H94.7117V12.3233C94.7117 11.2653 94.5843 10.5404 94.3297 10.1486C94.075 9.73715 93.6635 9.53143 93.0954 9.53143C92.586 9.53143 92.155 9.70776 91.8023 10.0604C91.4692 10.3935 91.3027 10.9029 91.3027 11.5886V22.5796H88.5696V12.3233C88.5696 11.2653 88.4423 10.5404 88.1876 10.1486C87.9525 9.73715 87.5509 9.53143 86.9827 9.53143C86.4537 9.53143 86.0129 9.70776 85.6603 10.0604C85.3272 10.3935 85.1607 10.9029 85.1607 11.5886V22.5796H82.4276Z" fill="#242424"/>
<path d="M113.214 22.5796C112.294 22.5796 111.598 22.3445 111.128 21.8743C110.677 21.4041 110.403 20.7869 110.305 20.0229H110.158C109.864 20.9437 109.326 21.6588 108.542 22.1682C107.778 22.6776 106.798 22.9323 105.603 22.9323C104.055 22.9323 102.821 22.5306 101.9 21.7274C100.979 20.9045 100.519 19.778 100.519 18.3478C100.519 16.8784 101.058 15.7616 102.135 14.9976C103.232 14.2139 104.908 13.822 107.161 13.822H110.07V12.6465C110.07 10.5894 108.983 9.56082 106.808 9.56082C105.828 9.56082 105.035 9.75674 104.428 10.1486C103.82 10.5208 103.311 11.0204 102.899 11.6474L100.989 10.0898C101.42 9.26694 102.145 8.56164 103.164 7.97388C104.183 7.36653 105.495 7.06286 107.102 7.06286C109.022 7.06286 110.53 7.52327 111.628 8.44408C112.725 9.3649 113.273 10.6971 113.273 12.4408V20.0522H115.183V22.5796H113.214ZM106.514 20.5812C107.552 20.5812 108.405 20.3461 109.071 19.8759C109.737 19.4057 110.07 18.7984 110.07 18.0539V15.8498H107.219C104.908 15.8498 103.752 16.5453 103.752 17.9363V18.5241C103.752 19.2098 103.997 19.729 104.486 20.0816C104.976 20.4147 105.652 20.5812 106.514 20.5812Z" fill="#242424"/>
<path d="M19.5918 16.6531C19.5918 20.7107 16.3025 24 12.2449 24C8.1873 24 4.89796 20.7107 4.89796 16.6531C4.89796 12.5955 8.1873 9.30612 12.2449 9.30612C16.3025 9.30612 19.5918 12.5955 19.5918 16.6531Z" fill="#242424"/>
<path d="M9.79592 4.89796C9.79592 7.60303 7.60303 9.79592 4.89796 9.79592C2.19289 9.79592 0 7.60303 0 4.89796C0 2.19289 2.19289 0 4.89796 0C7.60303 0 9.79592 2.19289 9.79592 4.89796Z" fill="#242424"/>
<path d="M20.5714 6.85714C20.5714 8.20968 19.475 9.30612 18.1224 9.30612C16.7699 9.30612 15.6735 8.20968 15.6735 6.85714C15.6735 5.50461 16.7699 4.40816 18.1224 4.40816C19.475 4.40816 20.5714 5.50461 20.5714 6.85714Z" fill="#242424"/>
</svg>
