<svg width="32" height="32" viewBox="0 0 32 32" fill="none" xmlns="http://www.w3.org/2000/svg">
<g clip-path="url(#clip0_815_14084)">
<path d="M26.7416 8.47965H19.9926V10.3566H26.7683L26.7416 8.47965ZM25.3173 21.3919C24.8053 21.7312 24.2007 21.9033 23.5868 21.8845C23.1804 21.9268 22.7697 21.8849 22.3803 21.7612C21.9909 21.6375 21.6312 21.4347 21.3238 21.1657C20.7554 20.5212 20.4595 19.6812 20.4985 18.8228H29.3108C29.3743 17.929 29.298 17.0307 29.0845 16.1605C28.878 15.3325 28.5167 14.5511 28.0196 13.8576C27.5192 13.1848 26.873 12.6341 26.1293 12.2468C25.3019 11.8389 24.3894 11.6336 23.467 11.6478C22.5995 11.6415 21.7395 11.8089 20.9378 12.1404C20.2036 12.4498 19.5384 12.9024 18.981 13.4715C18.4251 14.0521 17.9946 14.7408 17.7164 15.4949C17.4178 16.309 17.2689 17.1703 17.2771 18.0374C17.2634 18.9168 17.4076 19.7915 17.703 20.6199C17.9539 21.37 18.3522 22.0625 18.8745 22.6566C19.4148 23.2398 20.0789 23.6947 20.818 23.9877C21.6421 24.3017 22.5186 24.4553 23.4004 24.4403C24.6376 24.4789 25.8591 24.155 26.9147 23.5085C27.9808 22.7509 28.7484 21.6443 29.0845 20.3803H26.1426C25.9851 20.7984 25.6953 21.1537 25.3173 21.3919ZM20.7514 15.9076C20.855 15.5757 21.027 15.2692 21.2563 15.0078C21.4855 14.7464 21.767 14.536 22.0826 14.39C22.5005 14.2019 22.9556 14.1109 23.4137 14.1238C23.7447 14.0955 24.0778 14.1392 24.3903 14.2518C24.7028 14.3644 24.9873 14.5432 25.2241 14.7761C25.6764 15.3297 25.9667 15.9978 26.0628 16.7062H20.5384C20.56 16.4357 20.609 16.1681 20.6848 15.9076H20.7514ZM13.7095 15.2686C14.3871 14.9865 14.9758 14.5265 15.4134 13.9374C15.8157 13.3118 16.0156 12.5774 15.9858 11.8342C16.0119 11.1564 15.8798 10.4819 15.5998 9.86406C15.3646 9.32882 14.987 8.86838 14.5082 8.5329C14.0006 8.1841 13.4242 7.94807 12.8177 7.84069C12.0999 7.69015 11.3679 7.61873 10.6346 7.6277H2.6875V24.3738H10.8076C11.5487 24.3743 12.2867 24.2804 13.004 24.0942C13.6839 23.9183 14.328 23.6256 14.9076 23.229C15.469 22.8399 15.9261 22.3187 16.2388 21.7114C16.5847 21.0323 16.7541 20.2769 16.7313 19.515C16.7565 18.5709 16.4917 17.6417 15.9725 16.8527C15.4142 16.0592 14.5861 15.4961 13.643 15.2686H13.7095ZM6.37483 10.4897H9.82254C10.1393 10.4893 10.4555 10.516 10.7677 10.5696C11.0551 10.6122 11.3312 10.7117 11.5797 10.8624C11.8198 10.9982 12.0143 11.202 12.1388 11.4481C12.2929 11.7433 12.3664 12.0739 12.3518 12.4066C12.3766 12.6931 12.3327 12.9814 12.2239 13.2476C12.1151 13.5138 11.9445 13.7503 11.7261 13.9374C11.2497 14.2649 10.6797 14.4285 10.1021 14.4033H6.37483V10.4897ZM12.8177 20.3936C12.6809 20.6649 12.4741 20.8947 12.2186 21.0592C11.9528 21.2245 11.6599 21.3417 11.3534 21.4053C11.0127 21.4815 10.6642 21.5173 10.3151 21.5118H6.32158V16.9192H10.3151C11.0004 16.8892 11.6771 17.0806 12.2453 17.465C12.5019 17.6953 12.7008 17.9829 12.8256 18.3043C12.9505 18.6258 12.9979 18.9721 12.9641 19.3153C13.0001 19.6812 12.9499 20.0505 12.8177 20.3936Z" fill="#292524"/>
</g>
<defs>
<clipPath id="clip0_815_14084">
<rect width="32" height="32" fill="white"/>
</clipPath>
</defs>
</svg>
