<svg width="32" height="32" viewBox="0 0 32 32" fill="none" xmlns="http://www.w3.org/2000/svg">
<g clip-path="url(#clip0_815_14087)">
<path d="M18.4671 19.2514C19.4885 22.2784 20.1752 25.4081 20.5151 28.5847C19.0967 29.0813 17.6045 29.3342 16.1018 29.3327C13.4581 29.3367 10.8734 28.5512 8.6791 27.0767C9.70157 25.182 11.095 23.5126 12.7764 22.168C14.4578 20.8233 16.3927 19.831 18.4658 19.25L18.4671 19.2514ZM28.8658 19.8687C27.9137 22.997 25.8478 25.6677 23.0591 27.3754C22.6863 24.4453 22.0344 21.5575 21.1124 18.7514C23.7495 18.4789 26.413 18.8627 28.8658 19.8687ZM16.2951 13.9794C16.7378 14.8834 17.1524 15.806 17.5351 16.7434C12.9172 18.0968 8.99831 21.1772 6.59243 25.3447C5.24051 23.9594 4.2038 22.2984 3.55324 20.4753C2.90268 18.6523 2.65362 16.7102 2.8231 14.782C7.28043 15.726 11.9831 15.4514 16.2951 13.9794ZM26.3951 7.52469C28.6165 10.2375 29.6885 13.7118 29.3818 17.2047C26.4487 16.1007 23.2861 15.7477 20.1818 16.178C19.7532 15.095 19.284 14.0284 18.7751 12.9807C21.6315 11.6504 24.2155 9.80026 26.3951 7.52469ZM9.78976 4.25269C11.7823 6.51273 13.5381 8.97089 15.0298 11.5887C11.2455 12.794 7.21238 12.9916 3.32843 12.162C4.35065 8.77439 6.67416 5.93018 9.78976 4.25269ZM16.1018 2.66602C19.2858 2.66602 22.2098 3.78202 24.5018 5.64469C22.5171 7.72621 20.1552 9.41206 17.5418 10.6127C16.0698 7.97775 14.3462 5.49149 12.3951 3.18869C13.5999 2.84111 14.8478 2.66516 16.1018 2.66602Z" fill="#292524"/>
</g>
<defs>
<clipPath id="clip0_815_14087">
<rect width="32" height="32" fill="white"/>
</clipPath>
</defs>
</svg>
