<svg width="32" height="32" viewBox="0 0 32 32" fill="none" xmlns="http://www.w3.org/2000/svg">
<g clip-path="url(#clip0_815_14101)">
<path d="M9.86499 3.08041C10.8663 3.4196 11.8188 3.88847 12.6983 4.47507C13.9404 4.15762 15.2176 3.99814 16.4997 4.00041C17.8237 4.00041 19.101 4.16574 20.2983 4.47374C21.1775 3.88771 22.1296 3.41929 23.1303 3.08041C24.0597 2.76441 25.3837 2.25241 26.1703 3.12307C26.7037 3.71507 26.837 4.70707 26.9317 5.46441C27.0383 6.30974 27.0637 7.41107 26.7837 8.50441C27.8543 9.88707 28.4997 11.5364 28.4997 13.3337C28.4997 16.0564 27.025 18.4204 24.8423 20.0577C23.7919 20.8358 22.6269 21.4457 21.389 21.8657C21.6743 22.5191 21.833 23.2417 21.833 24.0004V28.0004C21.833 28.354 21.6925 28.6932 21.4425 28.9432C21.1924 29.1933 20.8533 29.3337 20.4997 29.3337H12.4997C12.146 29.3337 11.8069 29.1933 11.5568 28.9432C11.3068 28.6932 11.1663 28.354 11.1663 28.0004V26.6791C9.89299 26.8351 8.82499 26.6964 7.91699 26.3111C6.96766 25.9084 6.30632 25.2844 5.80899 24.6871C5.33699 24.1217 4.82232 22.8471 4.07832 22.5991C3.91216 22.5437 3.75851 22.4562 3.62617 22.3415C3.49383 22.2268 3.38537 22.0872 3.307 21.9305C3.14872 21.6142 3.12258 21.248 3.23432 20.9124C3.34607 20.5768 3.58655 20.2994 3.90286 20.1411C4.21917 19.9828 4.5854 19.9567 4.92099 20.0684C5.80899 20.3644 6.38765 21.0044 6.78365 21.5191C7.42365 22.3457 7.94365 23.4257 8.95699 23.8564C9.37432 24.0337 9.98632 24.1497 10.9437 24.0191L11.1663 23.9737C11.1689 23.2481 11.32 22.5307 11.6103 21.8657C10.3724 21.4458 9.2074 20.8358 8.15699 20.0577C5.97432 18.4204 4.49965 16.0577 4.49965 13.3337C4.49965 11.5391 5.14365 9.89108 6.21165 8.50974C5.93165 7.41641 5.95565 6.31241 6.06232 5.46574L6.06899 5.41507C6.16632 4.63907 6.27965 3.72574 6.82365 3.12307C7.61032 2.25241 8.93565 2.76574 9.86365 3.08174L9.86499 3.08041Z" fill="#292524"/>
</g>
<defs>
<clipPath id="clip0_815_14101">
<rect width="32" height="32" fill="white"/>
</clipPath>
</defs>
</svg>
