<svg width="32" height="32" viewBox="0 0 32 32" fill="none" xmlns="http://www.w3.org/2000/svg">
<g clip-path="url(#clip0_815_14054)">
<path d="M11.1025 8.62554C11.1022 9.18433 10.88 9.72012 10.4846 10.115C10.0893 10.51 9.55332 10.7317 8.99453 10.7314C8.43574 10.7311 7.89995 10.5089 7.50503 10.1136C7.1101 9.71823 6.88839 9.18222 6.88867 8.62344C6.88895 8.06465 7.1112 7.52886 7.50652 7.13393C7.90184 6.73901 8.43785 6.5173 8.99664 6.51758C9.55542 6.51786 10.0912 6.7401 10.4861 7.13542C10.8811 7.53074 11.1028 8.06675 11.1025 8.62554ZM11.1657 12.2916H6.95188V25.4808H11.1657V12.2916ZM17.8235 12.2916H13.6308V25.4808H17.7814V18.5596C17.7814 14.704 22.8064 14.3458 22.8064 18.5596V25.4808H26.9675V17.1269C26.9675 10.6271 19.5301 10.8694 17.7814 14.0614L17.8235 12.2916Z" fill="#292524"/>
</g>
<defs>
<clipPath id="clip0_815_14054">
<rect width="32" height="32" fill="white"/>
</clipPath>
</defs>
</svg>
