<svg width="1442" height="602" fill="none" xmlns="http://www.w3.org/2000/svg"><g clip-path="url(#a)"><rect x="1" y="1" width="1440" height="600" rx="32" fill="#fff"/><path fill="#FFF7ED" d="M1 54h1440v547H1z"/><rect x="521.581" y="190.14" width="398.837" height="254.651" rx="8.721" fill="#fff"/><rect x="521.581" y="190.14" width="398.837" height="254.651" rx="8.721" stroke="#E3E5F5" stroke-width="1.163"/><path d="M650.12 237.289h2.658l-5.609 14.84h-2.554l-5.526-14.84h2.721l4.145 11.554 4.165-11.554zm9.486 8.624a2.418 2.418 0 0 0-.188-.838 1.923 1.923 0 0 0-.46-.732 2.327 2.327 0 0 0-.775-.502c-.307-.126-.67-.189-1.088-.189-.377 0-.719.07-1.026.209-.293.126-.544.3-.753.524-.21.209-.377.453-.503.732a2.122 2.122 0 0 0-.209.796h5.002zm2.324 3.307c-.14.446-.342.865-.607 1.255a4.272 4.272 0 0 1-.984 1.026 4.693 4.693 0 0 1-1.34.691 5.281 5.281 0 0 1-1.674.251 5.58 5.58 0 0 1-1.988-.356 5.043 5.043 0 0 1-1.654-1.067 5.547 5.547 0 0 1-1.151-1.717c-.279-.683-.419-1.458-.419-2.323 0-.809.133-1.542.398-2.198a5.243 5.243 0 0 1 1.109-1.674 4.766 4.766 0 0 1 1.591-1.088 4.549 4.549 0 0 1 1.863-.398c.781 0 1.479.126 2.093.377a4.19 4.19 0 0 1 1.57 1.067c.432.461.76 1.019.983 1.675.224.641.335 1.367.335 2.176 0 .196-.007.37-.021.524a1.146 1.146 0 0 1-.041.251h-7.452c.014.39.098.746.252 1.067.153.321.355.6.606.837.252.238.538.426.859.565.335.126.69.189 1.067.189.74 0 1.305-.168 1.695-.502.405-.349.691-.775.859-1.277l2.051.649zm8.013-4.877a5.349 5.349 0 0 0-.795-.063c-.949 0-1.647.258-2.093.774-.433.517-.649 1.256-.649 2.219v4.856h-2.428v-10.193h2.365v1.632a2.67 2.67 0 0 1 1.151-1.297c.53-.307 1.13-.461 1.8-.461.154 0 .286.007.398.021.111.014.195.028.251.042v2.47zm1.629 7.786v-10.193h2.407v10.193h-2.407zm-.377-13.772c0-.447.154-.823.461-1.13a1.511 1.511 0 0 1 1.109-.461c.447 0 .823.154 1.13.461.307.307.461.683.461 1.13 0 .446-.154.823-.461 1.13-.307.293-.683.44-1.13.44a1.537 1.537 0 0 1-1.57-1.57zm10.039.691c-.167 0-.341.02-.523.062a1.239 1.239 0 0 0-.481.251 1.32 1.32 0 0 0-.356.482c-.098.195-.147.446-.147.753v1.34h2.366v2.114h-2.366v8.079h-2.448v-8.079H675.5v-2.114h1.779v-1.402c0-.573.083-1.082.251-1.528.181-.461.425-.845.732-1.152.321-.32.698-.565 1.131-.732a3.957 3.957 0 0 1 1.444-.251c.307 0 .572.028.795.083.237.042.398.084.482.126v2.072a1.229 1.229 0 0 0-.314-.063 3.024 3.024 0 0 0-.566-.041zm3.31 17.204 2.449-5.337-4.353-8.979h2.742l2.93 6.446 2.742-6.446h2.574l-6.488 14.316h-2.596zm18.336-14.316h2.114v2.156h-2.114v4.73c0 .446.104.774.314.984.209.195.537.293.983.293.168 0 .335-.007.503-.021.167-.028.279-.049.334-.063v2.009c-.069.028-.223.07-.46.126-.237.07-.579.104-1.026.104-.948 0-1.695-.265-2.239-.795-.544-.53-.816-1.277-.816-2.239v-5.128h-1.884v-2.156h.523c.544 0 .942-.154 1.193-.461.251-.307.377-.683.377-1.13v-1.528h2.198v3.119zm6.352 10.193h-2.428v-15.154h2.428v5.945a2.924 2.924 0 0 1 1.319-.963 4.308 4.308 0 0 1 1.591-.314c.627 0 1.172.105 1.632.314.475.209.865.502 1.172.879.307.363.537.788.691 1.277.153.488.23 1.011.23 1.569v6.447h-2.428v-6.028c0-.628-.16-1.158-.481-1.591-.307-.446-.844-.669-1.612-.669-.67 0-1.186.223-1.549.669-.348.433-.537.977-.565 1.633v5.986zm8.565-2.763c0-.46.077-.865.231-1.214a3.022 3.022 0 0 1 1.632-1.528 5.586 5.586 0 0 1 1.214-.335l2.616-.397c.293-.042.489-.126.586-.251.112-.14.168-.3.168-.482 0-.432-.154-.795-.461-1.088-.307-.307-.795-.461-1.465-.461-.642 0-1.137.182-1.486.544a2.099 2.099 0 0 0-.607 1.298l-2.218-.502c.041-.433.174-.851.397-1.256.224-.405.517-.76.879-1.067a4.19 4.19 0 0 1 1.298-.733 5.156 5.156 0 0 1 1.716-.272c.782 0 1.444.105 1.989.314.558.209 1.004.488 1.339.837.349.349.6.754.754 1.214.167.461.251.942.251 1.444v5.065c0 .461.014.838.042 1.131.042.279.069.446.083.502h-2.26a2.114 2.114 0 0 1-.063-.356 8.052 8.052 0 0 1-.042-.942c-.237.391-.614.761-1.13 1.11-.516.334-1.186.502-2.009.502-.53 0-1.012-.084-1.444-.251a3.583 3.583 0 0 1-1.089-.67 3.385 3.385 0 0 1-.69-.984 3.068 3.068 0 0 1-.231-1.172zm3.914 1.172c.335 0 .656-.042.963-.125.307-.098.572-.245.795-.44a2.17 2.17 0 0 0 .565-.816c.14-.335.21-.754.21-1.256v-.46l-2.658.397c-.377.07-.698.216-.963.44-.265.209-.398.523-.398.942 0 .348.126.655.377.921.251.265.621.397 1.109.397zm10.492-8.602h2.114v2.156h-2.114v4.73c0 .446.105.774.314.984.209.195.537.293.984.293.167 0 .335-.007.502-.021.167-.028.279-.049.335-.063v2.009c-.07.028-.223.07-.461.126-.237.07-.579.104-1.025.104-.949 0-1.696-.265-2.24-.795-.544-.53-.816-1.277-.816-2.239v-5.128h-1.884v-2.156h.524c.544 0 .941-.154 1.193-.461.251-.307.376-.683.376-1.13v-1.528h2.198v3.119zm8.964 10.193v-10.193h2.407v10.193h-2.407zm-.377-13.772c0-.447.154-.823.461-1.13a1.511 1.511 0 0 1 1.109-.461c.447 0 .823.154 1.13.461.307.307.461.683.461 1.13 0 .446-.154.823-.461 1.13-.307.293-.683.44-1.13.44a1.537 1.537 0 0 1-1.57-1.57zm8.595 3.579h2.114v2.156h-2.114v4.73c0 .446.105.774.314.984.209.195.537.293.984.293.167 0 .335-.007.502-.021.168-.028.279-.049.335-.063v2.009c-.07.028-.223.07-.46.126-.238.07-.579.104-1.026.104-.949 0-1.695-.265-2.239-.795-.545-.53-.817-1.277-.817-2.239v-5.128h-1.883v-2.156h.523c.544 0 .942-.154 1.193-.461.251-.307.377-.683.377-1.13v-1.528h2.197v3.119zm3.027-3.391c0-.377.147-.704.44-.984.293-.293.663-.439 1.109-.439.503 0 .914.181 1.235.544.335.349.502.816.502 1.402 0 .684-.104 1.263-.313 1.738a3.81 3.81 0 0 1-.754 1.193 3.15 3.15 0 0 1-1.005.69 3.352 3.352 0 0 1-1.025.272v-1.151c.432-.083.809-.307 1.13-.669.335-.363.516-.782.544-1.256a1.502 1.502 0 0 1-.167.063.767.767 0 0 1-.272.041c-.419 0-.761-.132-1.026-.397s-.398-.614-.398-1.047zm5.291 10.235c.042.461.23.865.565 1.214.349.349.851.523 1.507.523.503 0 .879-.111 1.131-.335.265-.237.397-.516.397-.837a.964.964 0 0 0-.293-.711c-.195-.196-.495-.335-.9-.419l-1.507-.335c-.907-.195-1.59-.558-2.051-1.088a2.833 2.833 0 0 1-.691-1.884c0-.447.098-.865.293-1.256.196-.404.461-.753.796-1.046a3.558 3.558 0 0 1 1.172-.712c.46-.181.956-.272 1.486-.272.711 0 1.305.105 1.779.314.488.195.886.439 1.193.732.307.293.53.607.67.942.153.321.251.607.293.858l-2.051.586a3.01 3.01 0 0 0-.147-.481 1.436 1.436 0 0 0-.335-.502 1.537 1.537 0 0 0-.565-.377c-.223-.112-.502-.167-.837-.167-.433 0-.789.118-1.068.355-.265.224-.397.496-.397.817 0 .279.09.509.272.69.181.182.432.307.753.377l1.549.314c.963.209 1.689.593 2.177 1.151.502.544.753 1.193.753 1.947 0 .39-.083.781-.251 1.172-.153.377-.39.725-.711 1.046-.307.307-.705.558-1.193.754-.489.195-1.054.293-1.696.293-.739 0-1.367-.105-1.883-.314-.517-.209-.942-.468-1.277-.775a3.502 3.502 0 0 1-.754-1.004c-.167-.363-.265-.691-.293-.984l2.114-.586zm13.251 7.472 2.449-5.337-4.354-8.979h2.742l2.93 6.446 2.742-6.446h2.574l-6.488 14.316h-2.595zm14.473-5.986c.377 0 .733-.07 1.068-.209.348-.14.655-.342.92-.607.266-.279.475-.621.628-1.026.154-.404.231-.872.231-1.402 0-.53-.077-.991-.231-1.381a2.782 2.782 0 0 0-.628-1.005 2.356 2.356 0 0 0-.92-.607 2.893 2.893 0 0 0-2.156 0 2.385 2.385 0 0 0-.9.607 3.24 3.24 0 0 0-.628 1.005c-.154.39-.23.851-.23 1.381s.076.998.23 1.402c.167.405.377.747.628 1.026.265.265.565.467.9.607.349.139.711.209 1.088.209zm0-8.644c.768 0 1.472.139 2.114.419.642.265 1.2.641 1.674 1.13a5.02 5.02 0 0 1 1.11 1.695c.265.656.397 1.375.397 2.156 0 .781-.132 1.507-.397 2.177a5.263 5.263 0 0 1-1.11 1.716 5.367 5.367 0 0 1-1.674 1.13 5.486 5.486 0 0 1-2.114.398 5.592 5.592 0 0 1-2.114-.398 5.367 5.367 0 0 1-1.674-1.13 5.447 5.447 0 0 1-1.089-1.716 5.867 5.867 0 0 1-.397-2.177c0-.781.132-1.5.397-2.156a5.187 5.187 0 0 1 1.089-1.695 4.914 4.914 0 0 1 1.674-1.13 5.329 5.329 0 0 1 2.114-.419zm13.818 9.377c-.252.46-.649.816-1.193 1.067a4.113 4.113 0 0 1-1.696.356c-.614 0-1.158-.105-1.632-.314a3.604 3.604 0 0 1-1.214-.858 4.29 4.29 0 0 1-.754-1.298 4.883 4.883 0 0 1-.251-1.591v-6.425h2.428v5.986c0 .321.035.621.105.9.083.279.209.523.376.732.168.21.377.377.628.503.265.125.579.188.942.188.712 0 1.242-.209 1.591-.628.363-.432.544-.983.544-1.653v-6.028h2.428v8.33c0 .419.007.788.021 1.109.028.307.056.559.084.754h-2.324a2.924 2.924 0 0 1-.062-.481c-.014-.224-.021-.44-.021-.649zM589.136 276.175c0 .642.098 1.21.293 1.703.205.483.47.893.795 1.228a3.42 3.42 0 0 0 1.144.739 3.84 3.84 0 0 0 1.34.237 3.8 3.8 0 0 0 1.326-.237 3.24 3.24 0 0 0 1.144-.739c.335-.335.6-.745.795-1.228.205-.493.307-1.061.307-1.703 0-.641-.102-1.204-.307-1.688a3.46 3.46 0 0 0-.795-1.228 3.088 3.088 0 0 0-1.144-.725 3.636 3.636 0 0 0-2.666 0c-.427.158-.809.4-1.144.725-.325.326-.59.735-.795 1.228-.195.484-.293 1.047-.293 1.688zm-1.395 0c0-.827.139-1.558.418-2.19a5.012 5.012 0 0 1 1.13-1.619 4.74 4.74 0 0 1 1.591-.991 4.994 4.994 0 0 1 1.828-.348c.623 0 1.233.116 1.828.348a4.75 4.75 0 0 1 1.591.991 4.83 4.83 0 0 1 1.116 1.619c.288.632.432 1.363.432 2.19 0 .828-.144 1.563-.432 2.205a4.84 4.84 0 0 1-1.116 1.619 4.916 4.916 0 0 1-1.591 1.004 5.15 5.15 0 0 1-3.656 0 4.906 4.906 0 0 1-1.591-1.004 5.023 5.023 0 0 1-1.13-1.619c-.279-.642-.418-1.377-.418-2.205zm11.592 7.605v-9.363h1.269v1.047c.186-.335.47-.619.851-.851.382-.233.847-.349 1.396-.349.502 0 .944.093 1.325.279.391.177.712.423.963.739.261.317.456.689.586 1.117.14.428.21.883.21 1.367 0 .502-.07.968-.21 1.395a3.4 3.4 0 0 1-.614 1.131c-.27.316-.6.567-.99.753a3.087 3.087 0 0 1-1.312.265c-.521 0-.968-.107-1.34-.321-.372-.214-.651-.469-.837-.767v3.558h-1.297zm5.26-6.014c0-.335-.047-.642-.14-.921a2.24 2.24 0 0 0-.39-.739 1.814 1.814 0 0 0-1.451-.684c-.298 0-.573.06-.824.181a1.927 1.927 0 0 0-.628.503 2.11 2.11 0 0 0-.404.739c-.093.279-.14.586-.14.921 0 .344.047.665.14.963.093.288.228.539.404.753.177.205.386.368.628.489.251.111.526.167.824.167.307 0 .581-.056.823-.167.242-.121.446-.284.614-.489.177-.214.311-.465.404-.753.093-.298.14-.619.14-.963zm7.448-.684c-.019-.483-.181-.888-.488-1.214-.307-.334-.759-.502-1.354-.502-.279 0-.53.051-.753.154-.214.093-.4.223-.559.39a2.01 2.01 0 0 0-.362.544 1.7 1.7 0 0 0-.154.628h3.67zm1.326 2.135a2.934 2.934 0 0 1-.419.837 2.952 2.952 0 0 1-.656.67 3.171 3.171 0 0 1-.865.447 3.314 3.314 0 0 1-1.074.167c-.447 0-.875-.079-1.284-.237a3.204 3.204 0 0 1-1.088-.698 3.449 3.449 0 0 1-.74-1.13c-.177-.446-.265-.953-.265-1.521a3.728 3.728 0 0 1 .963-2.553 3.059 3.059 0 0 1 1.032-.726 2.914 2.914 0 0 1 1.214-.265c.512 0 .968.088 1.368.265.409.168.748.405 1.018.712.27.307.475.679.614 1.116.149.428.223.902.223 1.423 0 .084-.004.163-.014.237a1 1 0 0 1-.013.182h-5.052c.01.298.065.572.168.823.102.251.242.47.418.656.186.177.4.316.642.419.251.093.517.139.796.139.548 0 .967-.13 1.255-.391.289-.26.498-.581.628-.962l1.131.39zm2.944 1.912h-1.312v-6.712h1.284v.963c.242-.419.549-.716.921-.893a2.634 2.634 0 0 1 1.144-.265c.4 0 .749.07 1.046.209.307.13.558.317.754.558.204.233.353.512.446.838.103.325.154.674.154 1.046v4.256h-1.312v-4.033c0-.232-.028-.451-.084-.655a1.18 1.18 0 0 0-.265-.531 1.136 1.136 0 0 0-.488-.362c-.195-.094-.437-.14-.726-.14-.26 0-.488.051-.683.153a1.346 1.346 0 0 0-.489.391c-.13.168-.228.363-.293.586a2.536 2.536 0 0 0-.097.712v3.879zm10.081 2.805 1.675-3.545-2.889-5.972h1.507l2.093 4.633 2.01-4.633h1.409l-4.367 9.517h-1.438zm9.585-3.768c.279 0 .544-.051.795-.153.252-.103.475-.256.67-.461.196-.204.349-.456.461-.753.111-.298.167-.642.167-1.033 0-.391-.056-.73-.167-1.018a2.187 2.187 0 0 0-.461-.754 1.9 1.9 0 0 0-.67-.46 2.073 2.073 0 0 0-.795-.154c-.279 0-.544.051-.795.154a1.91 1.91 0 0 0-.67.46 2.185 2.185 0 0 0-.46.754 2.802 2.802 0 0 0-.168 1.018c0 .391.056.735.168 1.033.111.297.265.549.46.753.195.205.419.358.67.461.251.102.516.153.795.153zm0-5.958c.502 0 .963.093 1.381.279.419.177.782.423 1.089.74.307.316.544.693.711 1.13.168.428.252.897.252 1.409s-.084.986-.252 1.423a3.286 3.286 0 0 1-.711 1.131c-.307.316-.67.567-1.089.753a3.509 3.509 0 0 1-1.381.265c-.502 0-.963-.088-1.381-.265a3.456 3.456 0 0 1-1.089-.753 3.286 3.286 0 0 1-.711-1.131 3.931 3.931 0 0 1-.251-1.423c0-.512.083-.981.251-1.409.167-.437.404-.814.711-1.13.307-.317.67-.563 1.089-.74a3.361 3.361 0 0 1 1.381-.279zm9.382 6.112a1.711 1.711 0 0 1-.837.781 2.902 2.902 0 0 1-1.144.237c-.391 0-.744-.07-1.061-.209a2.302 2.302 0 0 1-.781-.572 2.683 2.683 0 0 1-.502-.851 3.242 3.242 0 0 1-.168-1.061v-4.228h1.312v4.033c0 .232.028.456.084.67.055.204.144.386.265.544.121.158.274.284.46.377.195.093.433.139.712.139.53 0 .925-.158 1.186-.474.27-.317.404-.731.404-1.242v-4.047h1.312v5.47c0 .27.005.516.014.74.019.214.037.381.056.502h-1.256a2.017 2.017 0 0 1-.042-.349 8.652 8.652 0 0 1-.014-.46zm7.122-4.577a4.026 4.026 0 0 0-.572-.042c-.549 0-.995.163-1.34.488-.334.317-.502.842-.502 1.577v3.363h-1.311v-6.712h1.283v1.172c.121-.26.261-.469.419-.628.167-.167.339-.297.516-.39.177-.103.358-.172.544-.21.186-.037.363-.055.531-.055.093 0 .176.004.251.014.083.009.144.018.181.028v1.395zm6.477-1.326h1.451v1.186h-1.451v3.489c0 .307.07.539.209.697.14.149.382.224.726.224.084 0 .177-.005.279-.014a1.18 1.18 0 0 0 .237-.042v1.116a2.545 2.545 0 0 1-.321.07 2.537 2.537 0 0 1-.572.056c-.576 0-1.032-.163-1.367-.489-.335-.335-.502-.809-.502-1.423v-3.684h-1.284v-1.186h.363c.362 0 .623-.097.781-.293.167-.195.251-.442.251-.739v-1.089h1.2v2.121zm8.389 0 1.745 5.051 1.479-5.051h1.381l-2.177 6.712h-1.353l-1.786-5.107-1.744 5.107h-1.382l-2.204-6.712h1.437l1.507 5.051 1.744-5.051h1.353zm8.585 5.749c.279 0 .544-.051.795-.153.251-.103.474-.256.67-.461a2.18 2.18 0 0 0 .46-.753c.112-.298.168-.642.168-1.033 0-.391-.056-.73-.168-1.018a2.185 2.185 0 0 0-.46-.754 1.919 1.919 0 0 0-.67-.46 2.073 2.073 0 0 0-.795-.154c-.279 0-.544.051-.796.154a1.906 1.906 0 0 0-.669.46 2.187 2.187 0 0 0-.461.754 2.803 2.803 0 0 0-.167 1.018c0 .391.055.735.167 1.033.112.297.265.549.461.753.195.205.418.358.669.461a2.1 2.1 0 0 0 .796.153zm0-5.958c.502 0 .962.093 1.381.279.419.177.781.423 1.088.74.307.316.545.693.712 1.13.168.428.251.897.251 1.409s-.083.986-.251 1.423a3.288 3.288 0 0 1-.712 1.131 3.452 3.452 0 0 1-1.088.753 3.512 3.512 0 0 1-1.381.265c-.503 0-.963-.088-1.382-.265a3.303 3.303 0 0 1-1.8-1.884 3.952 3.952 0 0 1-.251-1.423c0-.512.084-.981.251-1.409.168-.437.405-.814.712-1.13.307-.317.67-.563 1.088-.74a3.366 3.366 0 0 1 1.382-.279zm4.538 3.488v-1.144h3.782v1.144h-3.782zm7.205-2.093v5.526h-1.354v-5.526h-1.241v-1.186h1.241v-1.13c0-.372.056-.702.168-.991.121-.288.279-.53.474-.725.205-.196.437-.34.698-.433.27-.102.558-.153.865-.153.223 0 .4.018.53.056.14.037.224.065.251.083v1.172a.867.867 0 0 0-.195-.055 1.847 1.847 0 0 0-.377-.028c-.111 0-.232.018-.362.055a.922.922 0 0 0-.349.168.906.906 0 0 0-.251.349 1.42 1.42 0 0 0-.098.572v1.06h1.618v1.186h-1.618zm2.318 3.726c0-.298.051-.563.153-.795a1.8 1.8 0 0 1 .419-.614 2.21 2.21 0 0 1 .656-.405c.251-.102.521-.177.809-.223l1.814-.265c.205-.028.34-.089.405-.182a.501.501 0 0 0 .111-.321c0-.325-.116-.604-.348-.837-.224-.242-.591-.363-1.103-.363-.465 0-.823.13-1.074.391-.251.251-.4.572-.447.963l-1.256-.293a2.38 2.38 0 0 1 .28-.879 2.35 2.35 0 0 1 .6-.684c.241-.195.52-.344.837-.447a3.171 3.171 0 0 1 1.032-.167c.503 0 .931.07 1.284.209.353.131.642.307.865.531.223.223.386.483.488.781.103.298.154.609.154.935v3.363c0 .297.009.534.028.711.018.177.037.307.056.391h-1.284a4.105 4.105 0 0 1-.056-.335 9.328 9.328 0 0 1-.014-.572 2.451 2.451 0 0 1-.293.377 2.232 2.232 0 0 1-1.074.628 2.626 2.626 0 0 1-.796.111c-.344 0-.655-.056-.934-.167a2.39 2.39 0 0 1-.698-.433 2.1 2.1 0 0 1-.461-.642 1.952 1.952 0 0 1-.153-.767zm2.428.907c.27 0 .521-.033.753-.098a1.62 1.62 0 0 0 .614-.335c.177-.158.317-.362.419-.614.102-.26.153-.572.153-.935v-.306l-2.051.306a1.353 1.353 0 0 0-.697.321c-.187.159-.28.386-.28.684 0 .251.098.479.293.684.196.195.461.293.796.293zm8.029-4.814c-.27 0-.525.051-.767.153a1.875 1.875 0 0 0-.656.433 2.155 2.155 0 0 0-.447.74 2.824 2.824 0 0 0-.167 1.018c0 .382.056.721.167 1.019.112.288.261.535.447.739.186.196.405.344.656.447.251.102.511.153.781.153.316 0 .582-.046.795-.139.224-.093.405-.21.545-.349.148-.14.265-.288.348-.447.084-.167.145-.316.182-.446l1.158.502a3.632 3.632 0 0 1-.363.74 2.94 2.94 0 0 1-1.507 1.158c-.335.13-.721.195-1.158.195a3.47 3.47 0 0 1-1.367-.265 3.335 3.335 0 0 1-1.061-.753 3.825 3.825 0 0 1-.711-1.131 3.931 3.931 0 0 1-.252-1.423c0-.521.084-1 .252-1.437.176-.437.414-.809.711-1.116a3.3 3.3 0 0 1 1.075-.74 3.4 3.4 0 0 1 1.339-.265c.447 0 .837.065 1.172.195.344.121.637.284.879.489.251.204.451.437.6.697.149.252.261.503.335.754l-1.186.502a2.735 2.735 0 0 0-.195-.502 1.462 1.462 0 0 0-.349-.447 1.572 1.572 0 0 0-.516-.335 1.78 1.78 0 0 0-.74-.139zm6.255-1.005h1.451v1.186h-1.451v3.489c0 .307.07.539.209.697.14.149.382.224.726.224.084 0 .177-.005.279-.014.102-.01.181-.024.237-.042v1.116a2.589 2.589 0 0 1-.321.07 2.537 2.537 0 0 1-.572.056c-.576 0-1.032-.163-1.367-.489-.335-.335-.502-.809-.502-1.423v-3.684h-1.284v-1.186h.363c.362 0 .623-.097.781-.293.167-.195.251-.442.251-.739v-1.089h1.2v2.121zm5.925 5.749c.279 0 .544-.051.795-.153.251-.103.474-.256.67-.461a2.18 2.18 0 0 0 .46-.753c.112-.298.168-.642.168-1.033 0-.391-.056-.73-.168-1.018a2.185 2.185 0 0 0-.46-.754 1.919 1.919 0 0 0-.67-.46 2.073 2.073 0 0 0-.795-.154c-.279 0-.545.051-.796.154a1.919 1.919 0 0 0-.67.46 2.2 2.2 0 0 0-.46.754 2.803 2.803 0 0 0-.167 1.018c0 .391.055.735.167 1.033.112.297.265.549.46.753.196.205.419.358.67.461.251.102.517.153.796.153zm0-5.958c.502 0 .962.093 1.381.279.419.177.781.423 1.088.74.307.316.545.693.712 1.13.167.428.251.897.251 1.409s-.084.986-.251 1.423a3.288 3.288 0 0 1-.712 1.131 3.452 3.452 0 0 1-1.088.753 3.512 3.512 0 0 1-1.381.265c-.503 0-.963-.088-1.382-.265a3.303 3.303 0 0 1-1.8-1.884 3.952 3.952 0 0 1-.251-1.423c0-.512.084-.981.251-1.409.168-.437.405-.814.712-1.13.307-.317.67-.563 1.088-.74a3.366 3.366 0 0 1 1.382-.279zm8.752 1.535a4.026 4.026 0 0 0-.572-.042c-.549 0-.995.163-1.339.488-.335.317-.503.842-.503 1.577v3.363h-1.311v-6.712h1.283v1.172c.121-.26.261-.469.419-.628.167-.167.339-.297.516-.39.177-.103.358-.172.544-.21.186-.037.363-.055.531-.055.093 0 .176.004.251.014.083.009.144.018.181.028v1.395zm4.3 3.586c0-.298.052-.563.154-.795.102-.242.242-.447.419-.614.186-.168.404-.303.655-.405.252-.102.521-.177.81-.223l1.814-.265c.204-.028.339-.089.404-.182a.496.496 0 0 0 .112-.321c0-.325-.116-.604-.349-.837-.223-.242-.591-.363-1.102-.363-.465 0-.824.13-1.075.391-.251.251-.4.572-.446.963l-1.256-.293c.037-.317.13-.61.279-.879a2.35 2.35 0 0 1 .6-.684c.242-.195.521-.344.837-.447.326-.111.67-.167 1.033-.167.502 0 .93.07 1.284.209.353.131.641.307.865.531.223.223.386.483.488.781.102.298.154.609.154.935v3.363c0 .297.009.534.027.711.019.177.038.307.056.391h-1.283a3.71 3.71 0 0 1-.056-.335c-.01-.14-.014-.33-.014-.572a2.515 2.515 0 0 1-.293.377c-.121.13-.27.251-.447.362-.177.112-.386.2-.628.266a2.615 2.615 0 0 1-.795.111c-.344 0-.656-.056-.935-.167a2.402 2.402 0 0 1-.698-.433 2.096 2.096 0 0 1-.46-.642 1.953 1.953 0 0 1-.154-.767zm2.428.907c.27 0 .521-.033.754-.098.242-.074.446-.186.614-.335a1.62 1.62 0 0 0 .418-.614 2.54 2.54 0 0 0 .154-.935v-.306l-2.051.306a1.357 1.357 0 0 0-.698.321c-.186.159-.279.386-.279.684 0 .251.098.479.293.684.195.195.46.293.795.293zm9.498.084a1.711 1.711 0 0 1-.837.781 2.902 2.902 0 0 1-1.144.237c-.391 0-.744-.07-1.061-.209a2.302 2.302 0 0 1-.781-.572 2.665 2.665 0 0 1-.502-.851 3.242 3.242 0 0 1-.168-1.061v-4.228h1.312v4.033c0 .232.028.456.083.67.056.204.145.386.266.544.12.158.274.284.46.377.195.093.433.139.712.139.53 0 .925-.158 1.186-.474.269-.317.404-.731.404-1.242v-4.047h1.312v5.47c0 .27.005.516.014.74.019.214.037.381.056.502h-1.256a2.017 2.017 0 0 1-.042-.349 8.652 8.652 0 0 1-.014-.46zm5.155-5.903h1.451v1.186h-1.451v3.489c0 .307.069.539.209.697.139.149.381.224.725.224.084 0 .177-.005.28-.014.102-.01.181-.024.237-.042v1.116a2.634 2.634 0 0 1-.321.07 2.543 2.543 0 0 1-.572.056c-.577 0-1.033-.163-1.368-.489-.335-.335-.502-.809-.502-1.423v-3.684h-1.284v-1.186h.363c.363 0 .623-.097.781-.293.168-.195.252-.442.252-.739v-1.089h1.2v2.121zm4.429 6.712h-1.311v-10.102h1.311v4.172c.242-.354.545-.605.907-.754a2.95 2.95 0 0 1 1.131-.223c.4 0 .748.07 1.046.209.307.13.558.317.754.558.204.233.353.512.446.838.102.325.154.674.154 1.046v4.256h-1.312v-4.033c0-.232-.028-.451-.084-.655a1.19 1.19 0 0 0-.265-.531 1.142 1.142 0 0 0-.488-.362c-.196-.094-.437-.14-.726-.14a1.53 1.53 0 0 0-.67.14 1.44 1.44 0 0 0-.474.376 1.79 1.79 0 0 0-.307.558 2.778 2.778 0 0 0-.112.698v3.949zm10.961-4.047c-.018-.483-.181-.888-.488-1.214-.307-.334-.758-.502-1.354-.502-.279 0-.53.051-.753.154-.214.093-.4.223-.558.39a1.99 1.99 0 0 0-.363.544 1.7 1.7 0 0 0-.154.628h3.67zm1.326 2.135a2.934 2.934 0 0 1-.419.837 2.952 2.952 0 0 1-.656.67 3.171 3.171 0 0 1-.865.447 3.305 3.305 0 0 1-1.074.167c-.447 0-.875-.079-1.284-.237a3.204 3.204 0 0 1-1.088-.698 3.449 3.449 0 0 1-.74-1.13c-.177-.446-.265-.953-.265-1.521a3.728 3.728 0 0 1 .963-2.553 3.069 3.069 0 0 1 1.032-.726 2.914 2.914 0 0 1 1.214-.265c.512 0 .968.088 1.368.265.409.168.749.405 1.018.712.27.307.475.679.614 1.116.149.428.224.902.224 1.423 0 .084-.005.163-.014.237a.988.988 0 0 1-.014.182h-5.051c.009.298.065.572.167.823.102.251.242.47.419.656.186.177.4.316.641.419.252.093.517.139.796.139.549 0 .967-.13 1.256-.391.288-.26.497-.581.628-.962l1.13.39zm2.944 1.912h-1.312v-6.712h1.284v.963c.242-.419.549-.716.921-.893a2.634 2.634 0 0 1 1.144-.265c.4 0 .749.07 1.047.209.307.13.558.317.753.558.205.233.354.512.447.838.102.325.153.674.153 1.046v4.256h-1.312v-4.033a2.47 2.47 0 0 0-.083-.655 1.2 1.2 0 0 0-.265-.531 1.139 1.139 0 0 0-.489-.362c-.195-.094-.437-.14-.725-.14-.261 0-.489.051-.684.153a1.343 1.343 0 0 0-.488.391 1.726 1.726 0 0 0-.293.586 2.5 2.5 0 0 0-.098.712v3.879zm8.198-6.712h1.451v1.186h-1.451v3.489c0 .307.07.539.209.697.14.149.382.224.726.224.083 0 .176-.005.279-.014.102-.01.181-.024.237-.042v1.116a2.634 2.634 0 0 1-.321.07 2.543 2.543 0 0 1-.572.056c-.577 0-1.033-.163-1.367-.489-.335-.335-.503-.809-.503-1.423v-3.684h-1.284v-1.186h.363c.363 0 .624-.097.782-.293.167-.195.251-.442.251-.739v-1.089h1.2v2.121zm3.118 6.712v-6.712h1.298v6.712h-1.298zm-.293-9.251c0-.27.088-.493.265-.67a.913.913 0 0 1 .67-.279c.27 0 .493.093.67.279.186.177.279.4.279.67 0 .26-.093.483-.279.67a.911.911 0 0 1-.67.265.94.94 0 0 1-.67-.265.94.94 0 0 1-.265-.67zm6.557 3.544c-.27 0-.525.051-.767.153a1.875 1.875 0 0 0-.656.433 2.155 2.155 0 0 0-.447.74 2.824 2.824 0 0 0-.167 1.018c0 .382.056.721.167 1.019.112.288.261.535.447.739.186.196.405.344.656.447.251.102.511.153.781.153.316 0 .582-.046.795-.139.224-.093.405-.21.545-.349.148-.14.265-.288.348-.447.084-.167.145-.316.182-.446l1.158.502a3.632 3.632 0 0 1-.363.74 2.94 2.94 0 0 1-1.507 1.158c-.335.13-.721.195-1.158.195a3.47 3.47 0 0 1-1.367-.265 3.335 3.335 0 0 1-1.061-.753 3.825 3.825 0 0 1-.711-1.131 3.931 3.931 0 0 1-.252-1.423c0-.521.084-1 .252-1.437.176-.437.414-.809.711-1.116a3.3 3.3 0 0 1 1.075-.74 3.4 3.4 0 0 1 1.339-.265c.447 0 .837.065 1.172.195.344.121.637.284.879.489.251.204.451.437.6.697.149.252.261.503.335.754l-1.186.502a2.735 2.735 0 0 0-.195-.502 1.462 1.462 0 0 0-.349-.447 1.572 1.572 0 0 0-.516-.335 1.78 1.78 0 0 0-.74-.139zm4.01 3.907c0-.298.051-.563.154-.795.102-.242.242-.447.418-.614a2.21 2.21 0 0 1 .656-.405c.251-.102.521-.177.809-.223l1.814-.265c.205-.028.34-.089.405-.182a.502.502 0 0 0 .112-.321c0-.325-.117-.604-.349-.837-.223-.242-.591-.363-1.102-.363-.466 0-.824.13-1.075.391-.251.251-.4.572-.446.963l-1.256-.293c.037-.317.13-.61.279-.879a2.35 2.35 0 0 1 .6-.684c.242-.195.521-.344.837-.447.326-.111.67-.167 1.033-.167.502 0 .93.07 1.283.209.354.131.642.307.865.531.224.223.387.483.489.781.102.298.153.609.153.935v3.363c0 .297.01.534.028.711.019.177.037.307.056.391h-1.284a4.173 4.173 0 0 1-.055-.335c-.01-.14-.014-.33-.014-.572a2.583 2.583 0 0 1-.293.377c-.121.13-.27.251-.447.362-.177.112-.386.2-.628.266a2.62 2.62 0 0 1-.795.111c-.344 0-.656-.056-.935-.167a2.402 2.402 0 0 1-.698-.433 2.08 2.08 0 0 1-.46-.642 1.935 1.935 0 0 1-.154-.767zm2.428.907c.27 0 .521-.033.754-.098.242-.074.446-.186.614-.335.176-.158.316-.362.418-.614a2.54 2.54 0 0 0 .154-.935v-.306l-2.051.306c-.28.047-.512.154-.698.321-.186.159-.279.386-.279.684 0 .251.097.479.293.684.195.195.46.293.795.293zm6.969-5.819h1.451v1.186h-1.451v3.489c0 .307.07.539.209.697.14.149.382.224.726.224.084 0 .177-.005.279-.014.102-.01.181-.024.237-.042v1.116a2.634 2.634 0 0 1-.321.07 2.543 2.543 0 0 1-.572.056c-.577 0-1.032-.163-1.367-.489-.335-.335-.503-.809-.503-1.423v-3.684h-1.283v-1.186h.363c.362 0 .623-.097.781-.293.167-.195.251-.442.251-.739v-1.089h1.2v2.121zm5.925 5.749c.279 0 .544-.051.795-.153.251-.103.474-.256.67-.461.195-.204.348-.456.46-.753.112-.298.168-.642.168-1.033 0-.391-.056-.73-.168-1.018a2.2 2.2 0 0 0-.46-.754 1.919 1.919 0 0 0-.67-.46 2.073 2.073 0 0 0-.795-.154c-.28 0-.545.051-.796.154a1.919 1.919 0 0 0-.67.46 2.2 2.2 0 0 0-.46.754 2.802 2.802 0 0 0-.168 1.018c0 .391.056.735.168 1.033.112.297.265.549.46.753.196.205.419.358.67.461.251.102.516.153.796.153zm0-5.958c.502 0 .962.093 1.381.279.419.177.781.423 1.088.74.307.316.544.693.712 1.13.167.428.251.897.251 1.409s-.084.986-.251 1.423a3.303 3.303 0 0 1-1.8 1.884 3.512 3.512 0 0 1-1.381.265c-.503 0-.963-.088-1.382-.265a3.303 3.303 0 0 1-1.8-1.884 3.952 3.952 0 0 1-.251-1.423c0-.512.084-.981.251-1.409.168-.437.405-.814.712-1.13.307-.317.67-.563 1.088-.74a3.366 3.366 0 0 1 1.382-.279zm8.752 1.535a4.026 4.026 0 0 0-.572-.042c-.549 0-.995.163-1.34.488-.334.317-.502.842-.502 1.577v3.363h-1.312v-6.712h1.284v1.172c.121-.26.261-.469.419-.628.167-.167.339-.297.516-.39.177-.103.358-.172.544-.21a2.72 2.72 0 0 1 .53-.055c.094 0 .177.004.252.014.083.009.144.018.181.028v1.395zm4.3 3.586c0-.298.052-.563.154-.795.102-.242.242-.447.418-.614a2.21 2.21 0 0 1 .656-.405c.251-.102.521-.177.81-.223l1.814-.265c.204-.028.339-.089.404-.182a.496.496 0 0 0 .112-.321c0-.325-.116-.604-.349-.837-.223-.242-.591-.363-1.102-.363-.465 0-.824.13-1.075.391-.251.251-.4.572-.446.963l-1.256-.293c.037-.317.13-.61.279-.879a2.35 2.35 0 0 1 .6-.684c.242-.195.521-.344.837-.447.326-.111.67-.167 1.033-.167.502 0 .93.07 1.283.209.354.131.642.307.866.531.223.223.386.483.488.781.102.298.153.609.153.935v3.363c0 .297.01.534.028.711.019.177.038.307.056.391h-1.284a4.173 4.173 0 0 1-.055-.335c-.01-.14-.014-.33-.014-.572a2.515 2.515 0 0 1-.293.377c-.121.13-.27.251-.447.362-.177.112-.386.2-.628.266a2.615 2.615 0 0 1-.795.111c-.344 0-.656-.056-.935-.167a2.402 2.402 0 0 1-.698-.433 2.08 2.08 0 0 1-.46-.642 1.953 1.953 0 0 1-.154-.767zm2.428.907c.27 0 .521-.033.754-.098.242-.074.446-.186.614-.335.176-.158.316-.362.418-.614a2.54 2.54 0 0 0 .154-.935v-.306l-2.051.306a1.357 1.357 0 0 0-.698.321c-.186.159-.279.386-.279.684 0 .251.098.479.293.684.195.195.46.293.795.293zm5.211 3.544v-9.363h1.27v1.047c.186-.335.47-.619.851-.851.381-.233.846-.349 1.395-.349.503 0 .944.093 1.326.279.391.177.711.423.963.739.26.317.455.689.586 1.117.139.428.209.883.209 1.367 0 .502-.07.968-.209 1.395-.14.428-.344.805-.614 1.131-.27.316-.6.567-.991.753-.381.177-.819.265-1.312.265-.521 0-.967-.107-1.339-.321-.372-.214-.651-.469-.837-.767v3.558h-1.298zm5.26-6.014c0-.335-.046-.642-.139-.921a2.224 2.224 0 0 0-.391-.739 1.814 1.814 0 0 0-1.451-.684c-.298 0-.572.06-.823.181a1.927 1.927 0 0 0-.628.503 2.095 2.095 0 0 0-.405.739 2.898 2.898 0 0 0-.139.921c0 .344.046.665.139.963.093.288.228.539.405.753.177.205.386.368.628.489.251.111.525.167.823.167.307 0 .581-.056.823-.167.242-.121.447-.284.614-.489.177-.214.312-.465.405-.753.093-.298.139-.619.139-.963zm2.928 6.014v-9.363h1.269v1.047c.186-.335.47-.619.851-.851.382-.233.847-.349 1.396-.349.502 0 .944.093 1.325.279.391.177.712.423.963.739.261.317.456.689.586 1.117.14.428.21.883.21 1.367 0 .502-.07.968-.21 1.395a3.4 3.4 0 0 1-.614 1.131c-.269.316-.6.567-.99.753a3.087 3.087 0 0 1-1.312.265c-.521 0-.967-.107-1.34-.321-.372-.214-.651-.469-.837-.767v3.558h-1.297zm5.26-6.014a2.87 2.87 0 0 0-.14-.921 2.24 2.24 0 0 0-.39-.739 1.814 1.814 0 0 0-1.451-.684c-.298 0-.572.06-.824.181a1.938 1.938 0 0 0-.628.503 2.11 2.11 0 0 0-.404.739c-.093.279-.14.586-.14.921 0 .344.047.665.14.963.093.288.228.539.404.753.177.205.387.368.628.489.252.111.526.167.824.167.307 0 .581-.056.823-.167.242-.121.446-.284.614-.489.177-.214.311-.465.404-.753.094-.298.14-.619.14-.963zm8.09-3.349h1.451v1.186h-1.451v3.489c0 .307.07.539.209.697.14.149.382.224.726.224.083 0 .177-.005.279-.014.102-.01.181-.024.237-.042v1.116a2.634 2.634 0 0 1-.321.07 2.543 2.543 0 0 1-.572.056c-.577 0-1.033-.163-1.367-.489-.335-.335-.503-.809-.503-1.423v-3.684h-1.283v-1.186h.362c.363 0 .624-.097.782-.293.167-.195.251-.442.251-.739v-1.089h1.2v2.121zm5.924 5.749c.279 0 .545-.051.796-.153.251-.103.474-.256.669-.461.196-.204.349-.456.461-.753.112-.298.167-.642.167-1.033 0-.391-.055-.73-.167-1.018a2.187 2.187 0 0 0-.461-.754 1.906 1.906 0 0 0-.669-.46 2.078 2.078 0 0 0-.796-.154c-.279 0-.544.051-.795.154a1.919 1.919 0 0 0-.67.46 2.185 2.185 0 0 0-.46.754 2.802 2.802 0 0 0-.168 1.018c0 .391.056.735.168 1.033.111.297.265.549.46.753.196.205.419.358.67.461.251.102.516.153.795.153zm0-5.958c.503 0 .963.093 1.382.279.418.177.781.423 1.088.74.307.316.544.693.712 1.13.167.428.251.897.251 1.409s-.084.986-.251 1.423a3.303 3.303 0 0 1-1.8 1.884 3.514 3.514 0 0 1-1.382.265c-.502 0-.962-.088-1.381-.265a3.452 3.452 0 0 1-1.088-.753 3.288 3.288 0 0 1-.712-1.131 3.931 3.931 0 0 1-.251-1.423c0-.512.083-.981.251-1.409.167-.437.405-.814.712-1.13a3.262 3.262 0 0 1 1.088-.74 3.365 3.365 0 0 1 1.381-.279zm-192.035 29.921h-1.326l-2.721-6.712h1.479l1.912 5.177 1.926-5.177h1.409l-2.679 6.712zm3.85 0v-6.712h1.298v6.712h-1.298zm-.293-9.251c0-.27.089-.493.265-.67a.915.915 0 0 1 .67-.279c.27 0 .493.093.67.279.186.177.279.4.279.67 0 .26-.093.483-.279.67a.911.911 0 0 1-.67.265.942.942 0 0 1-.67-.265.944.944 0 0 1-.265-.67zm8.26 5.204c-.019-.483-.182-.888-.489-1.214-.307-.334-.758-.502-1.353-.502a1.783 1.783 0 0 0-1.312.544c-.149.158-.269.34-.362.544a1.661 1.661 0 0 0-.154.628h3.67zm1.325 2.135a2.931 2.931 0 0 1-.418.837 2.973 2.973 0 0 1-.656.67 3.186 3.186 0 0 1-1.94.614 3.53 3.53 0 0 1-1.283-.237 3.208 3.208 0 0 1-1.089-.698 3.447 3.447 0 0 1-.739-1.13c-.177-.446-.265-.953-.265-1.521a3.728 3.728 0 0 1 .962-2.553 3.063 3.063 0 0 1 1.033-.726 2.91 2.91 0 0 1 1.214-.265c.512 0 .967.088 1.367.265.41.168.749.405 1.019.712.27.307.474.679.614 1.116.149.428.223.902.223 1.423 0 .084-.004.163-.014.237a.907.907 0 0 1-.014.182h-5.051c.009.298.065.572.168.823.102.251.241.47.418.656.186.177.4.316.642.419.251.093.516.139.795.139.549 0 .968-.13 1.256-.391.289-.26.498-.581.628-.962l1.13.39zm6.7-4.8 1.744 5.051 1.479-5.051h1.381l-2.177 6.712h-1.353l-1.786-5.107-1.744 5.107h-1.382l-2.204-6.712h1.437l1.507 5.051 1.744-5.051h1.354zm12.32 6.712h-1.326l-2.72-6.712h1.479l1.911 5.177 1.926-5.177h1.409l-2.679 6.712zm8.167-4.047c-.018-.483-.181-.888-.488-1.214-.307-.334-.758-.502-1.354-.502-.279 0-.53.051-.753.154-.214.093-.4.223-.558.39a1.99 1.99 0 0 0-.363.544 1.7 1.7 0 0 0-.154.628h3.67zm1.326 2.135a2.934 2.934 0 0 1-.419.837 2.952 2.952 0 0 1-.656.67 3.171 3.171 0 0 1-.865.447 3.31 3.31 0 0 1-1.074.167c-.447 0-.875-.079-1.284-.237a3.204 3.204 0 0 1-1.088-.698 3.449 3.449 0 0 1-.74-1.13c-.177-.446-.265-.953-.265-1.521a3.728 3.728 0 0 1 .963-2.553 3.059 3.059 0 0 1 1.032-.726 2.914 2.914 0 0 1 1.214-.265c.512 0 .968.088 1.368.265.409.168.749.405 1.018.712.27.307.475.679.614 1.116.149.428.224.902.224 1.423 0 .084-.005.163-.014.237a.988.988 0 0 1-.014.182h-5.052c.01.298.066.572.168.823.102.251.242.47.419.656.186.177.4.316.641.419.252.093.517.139.796.139.549 0 .967-.13 1.256-.391.288-.26.497-.581.627-.962l1.131.39zm5.358-3.474a4.036 4.036 0 0 0-.572-.042c-.549 0-.996.163-1.34.488-.335.317-.502.842-.502 1.577v3.363h-1.312v-6.712h1.284v1.172c.121-.26.26-.469.418-.628.168-.167.34-.297.517-.39.176-.103.358-.172.544-.21a2.72 2.72 0 0 1 .53-.055c.093 0 .177.004.251.014.084.009.145.018.182.028v1.395zm1.314 5.386v-6.712h1.298v6.712h-1.298zm-.293-9.251c0-.27.088-.493.265-.67a.913.913 0 0 1 .67-.279c.27 0 .493.093.67.279.186.177.279.4.279.67 0 .26-.093.483-.279.67a.911.911 0 0 1-.67.265.94.94 0 0 1-.67-.265.94.94 0 0 1-.265-.67zm6.348-.893c.223 0 .4.018.53.056.14.037.223.065.251.083v1.172a.867.867 0 0 0-.195-.055 1.847 1.847 0 0 0-.377-.028c-.112 0-.232.018-.363.055a.93.93 0 0 0-.349.168.916.916 0 0 0-.251.349c-.065.139-.097.325-.097.558v1.074h4.437v6.712h-1.298v-5.526h-3.139v5.526h-1.354v-5.526h-1.242v-1.186h1.242v-1.13c0-.372.056-.702.168-.991.121-.288.279-.53.474-.725.205-.196.437-.34.698-.433.269-.102.558-.153.865-.153zm1.995.865c0-.27.089-.493.265-.67a.915.915 0 0 1 .67-.279c.27 0 .493.093.67.279.186.177.279.4.279.67 0 .26-.093.484-.279.67a.911.911 0 0 1-.67.265.942.942 0 0 1-.67-.265.942.942 0 0 1-.265-.67zm6.552 3.572c-.27 0-.526.051-.768.153-.242.093-.46.238-.656.433a2.138 2.138 0 0 0-.446.74 2.802 2.802 0 0 0-.168 1.018c0 .382.056.721.168 1.019.111.288.26.535.446.739.186.196.405.344.656.447.251.102.512.153.781.153.317 0 .582-.046.796-.139.223-.093.404-.21.544-.349.149-.14.265-.288.349-.447.084-.167.144-.316.181-.446l1.158.502a3.574 3.574 0 0 1-.362.74 2.956 2.956 0 0 1-1.507 1.158c-.335.13-.721.195-1.159.195-.493 0-.948-.088-1.367-.265a3.33 3.33 0 0 1-1.06-.753 3.827 3.827 0 0 1-.712-1.131 3.952 3.952 0 0 1-.251-1.423c0-.521.084-1 .251-1.437.177-.437.414-.809.712-1.116a3.307 3.307 0 0 1 1.074-.74 3.405 3.405 0 0 1 1.34-.265c.446 0 .837.065 1.172.195.344.121.637.284.879.489.251.204.451.437.6.697.149.252.26.503.335.754l-1.186.502a2.814 2.814 0 0 0-.196-.502 1.462 1.462 0 0 0-.349-.447 1.551 1.551 0 0 0-.516-.335 1.779 1.779 0 0 0-.739-.139zm4.01 3.907c0-.298.051-.563.153-.795.102-.242.242-.447.419-.614.186-.168.404-.303.656-.405.251-.102.52-.177.809-.223l1.814-.265c.204-.028.339-.089.404-.182a.496.496 0 0 0 .112-.321c0-.325-.116-.604-.349-.837-.223-.242-.59-.363-1.102-.363-.465 0-.823.13-1.074.391-.252.251-.4.572-.447.963l-1.256-.293c.037-.317.13-.61.279-.879a2.35 2.35 0 0 1 .6-.684c.242-.195.521-.344.837-.447.326-.111.67-.167 1.033-.167.502 0 .93.07 1.284.209.353.131.642.307.865.531.223.223.386.483.488.781.103.298.154.609.154.935v3.363c0 .297.009.534.028.711.018.177.037.307.055.391h-1.283a4.105 4.105 0 0 1-.056-.335 9.328 9.328 0 0 1-.014-.572 2.451 2.451 0 0 1-.293.377c-.121.13-.27.251-.447.362a2.29 2.29 0 0 1-.627.266 2.626 2.626 0 0 1-.796.111c-.344 0-.656-.056-.935-.167a2.397 2.397 0 0 1-.697-.433 2.083 2.083 0 0 1-.461-.642 1.952 1.952 0 0 1-.153-.767zm2.428.907c.269 0 .52-.033.753-.098a1.62 1.62 0 0 0 .614-.335c.177-.158.316-.362.419-.614.102-.26.153-.572.153-.935v-.306l-2.051.306a1.357 1.357 0 0 0-.698.321c-.186.159-.279.386-.279.684 0 .251.098.479.293.684.196.195.461.293.796.293zm6.968-5.819h1.452v1.186h-1.452v3.489c0 .307.07.539.21.697.139.149.381.224.725.224.084 0 .177-.005.279-.014.103-.01.182-.024.238-.042v1.116a2.634 2.634 0 0 1-.321.07 2.543 2.543 0 0 1-.572.056c-.577 0-1.033-.163-1.368-.489-.335-.335-.502-.809-.502-1.423v-3.684h-1.284v-1.186h.363c.363 0 .623-.097.781-.293.168-.195.251-.442.251-.739v-1.089h1.2v2.121zm3.119 6.712v-6.712h1.297v6.712h-1.297zm-.293-9.251c0-.27.088-.493.265-.67a.913.913 0 0 1 .669-.279c.27 0 .494.093.67.279.186.177.279.4.279.67 0 .26-.093.483-.279.67a.91.91 0 0 1-.67.265.94.94 0 0 1-.669-.265.94.94 0 0 1-.265-.67zm6.613 8.288c.279 0 .544-.051.795-.153.251-.103.474-.256.67-.461a2.18 2.18 0 0 0 .46-.753c.112-.298.168-.642.168-1.033 0-.391-.056-.73-.168-1.018a2.185 2.185 0 0 0-.46-.754 1.919 1.919 0 0 0-.67-.46 2.073 2.073 0 0 0-.795-.154c-.28 0-.545.051-.796.154a1.919 1.919 0 0 0-.67.46 2.2 2.2 0 0 0-.46.754 2.803 2.803 0 0 0-.167 1.018c0 .391.055.735.167 1.033.112.297.265.549.46.753.196.205.419.358.67.461.251.102.516.153.796.153zm0-5.958c.502 0 .962.093 1.381.279.419.177.781.423 1.088.74.307.316.545.693.712 1.13.167.428.251.897.251 1.409s-.084.986-.251 1.423a3.288 3.288 0 0 1-.712 1.131 3.452 3.452 0 0 1-1.088.753 3.512 3.512 0 0 1-1.381.265c-.503 0-.963-.088-1.382-.265a3.303 3.303 0 0 1-1.8-1.884 3.952 3.952 0 0 1-.251-1.423c0-.512.084-.981.251-1.409.168-.437.405-.814.712-1.13.307-.317.67-.563 1.088-.74a3.366 3.366 0 0 1 1.382-.279zm6.338 6.921h-1.311v-6.712h1.283v.963c.242-.419.549-.716.921-.893a2.637 2.637 0 0 1 1.144-.265c.4 0 .749.07 1.047.209.307.13.558.317.753.558.205.233.354.512.447.838.102.325.153.674.153 1.046v4.256h-1.311v-4.033c0-.232-.028-.451-.084-.655a1.2 1.2 0 0 0-.265-.531 1.142 1.142 0 0 0-.488-.362 1.673 1.673 0 0 0-.726-.14c-.261 0-.488.051-.684.153a1.343 1.343 0 0 0-.488.391c-.13.168-.228.363-.293.586a2.536 2.536 0 0 0-.098.712v3.879zm12.663-5.707c-.269 0-.525.051-.767.153a1.875 1.875 0 0 0-.656.433 2.138 2.138 0 0 0-.446.74 2.802 2.802 0 0 0-.168 1.018c0 .382.056.721.168 1.019.111.288.26.535.446.739.186.196.405.344.656.447.251.102.511.153.781.153.317 0 .582-.046.796-.139.223-.093.404-.21.544-.349.149-.14.265-.288.349-.447.083-.167.144-.316.181-.446l1.158.502a3.632 3.632 0 0 1-.363.74 2.91 2.91 0 0 1-.614.669 2.927 2.927 0 0 1-.893.489c-.335.13-.721.195-1.158.195a3.47 3.47 0 0 1-1.367-.265 3.335 3.335 0 0 1-1.061-.753 3.825 3.825 0 0 1-.711-1.131 3.931 3.931 0 0 1-.251-1.423c0-.521.083-1 .251-1.437.176-.437.414-.809.711-1.116a3.3 3.3 0 0 1 1.075-.74 3.4 3.4 0 0 1 1.339-.265c.447 0 .837.065 1.172.195.345.121.638.284.879.489.252.204.452.437.6.697.149.252.261.503.335.754l-1.186.502a2.735 2.735 0 0 0-.195-.502 1.462 1.462 0 0 0-.349-.447 1.561 1.561 0 0 0-.516-.335 1.78 1.78 0 0 0-.74-.139zm7.303 4.744c.279 0 .545-.051.796-.153.251-.103.474-.256.67-.461.195-.204.348-.456.46-.753.112-.298.167-.642.167-1.033 0-.391-.055-.73-.167-1.018a2.2 2.2 0 0 0-.46-.754 1.919 1.919 0 0 0-.67-.46 2.078 2.078 0 0 0-.796-.154c-.279 0-.544.051-.795.154a1.919 1.919 0 0 0-.67.46 2.185 2.185 0 0 0-.46.754 2.802 2.802 0 0 0-.168 1.018c0 .391.056.735.168 1.033.111.297.265.549.46.753.196.205.419.358.67.461.251.102.516.153.795.153zm0-5.958c.503 0 .963.093 1.382.279.418.177.781.423 1.088.74.307.316.544.693.712 1.13.167.428.251.897.251 1.409s-.084.986-.251 1.423a3.303 3.303 0 0 1-1.8 1.884 3.514 3.514 0 0 1-1.382.265c-.502 0-.962-.088-1.381-.265a3.452 3.452 0 0 1-1.088-.753 3.288 3.288 0 0 1-.712-1.131 3.952 3.952 0 0 1-.251-1.423c0-.512.084-.981.251-1.409.167-.437.405-.814.712-1.13a3.262 3.262 0 0 1 1.088-.74 3.365 3.365 0 0 1 1.381-.279zm5.809 3.544c0 .344.042.665.125.963.093.288.224.539.391.753.167.214.372.382.614.503s.521.181.837.181c.298 0 .568-.06.809-.181.242-.13.447-.303.614-.517.168-.213.293-.469.377-.767.093-.298.14-.619.14-.963 0-.697-.172-1.26-.517-1.688-.334-.428-.804-.642-1.409-.642a1.869 1.869 0 0 0-1.451.67 2.242 2.242 0 0 0-.391.739 3.082 3.082 0 0 0-.139.949zm3.921 2.358c-.158.326-.414.61-.768.851-.344.233-.781.349-1.311.349-.493 0-.935-.088-1.326-.265a3.103 3.103 0 0 1-1.005-.753 3.64 3.64 0 0 1-.628-1.131 4.366 4.366 0 0 1-.223-1.409c0-.474.075-.921.223-1.339.159-.428.377-.8.656-1.117a3.02 3.02 0 0 1 1.005-.767 2.866 2.866 0 0 1 1.298-.293c.297 0 .558.032.781.098.233.065.433.153.6.265.167.102.307.223.419.362.111.131.195.266.251.405v-4.339h1.297v8.86c0 .326.01.6.028.823.019.224.033.363.042.419h-1.27a3.125 3.125 0 0 1-.055-.349 9.462 9.462 0 0 1-.014-.558v-.112zm7.938-3.028c-.019-.483-.182-.888-.489-1.214-.307-.334-.758-.502-1.353-.502a1.783 1.783 0 0 0-1.312.544 1.99 1.99 0 0 0-.363.544 1.678 1.678 0 0 0-.153.628h3.67zm1.325 2.135a2.931 2.931 0 0 1-.418.837 2.973 2.973 0 0 1-.656.67 3.186 3.186 0 0 1-1.94.614 3.53 3.53 0 0 1-1.283-.237 3.208 3.208 0 0 1-1.089-.698 3.447 3.447 0 0 1-.739-1.13c-.177-.446-.265-.953-.265-1.521a3.728 3.728 0 0 1 .962-2.553 3.063 3.063 0 0 1 1.033-.726 2.91 2.91 0 0 1 1.214-.265c.512 0 .967.088 1.367.265.41.168.749.405 1.019.712.27.307.474.679.614 1.116.149.428.223.902.223 1.423 0 .084-.005.163-.014.237a.907.907 0 0 1-.014.182h-5.051c.009.298.065.572.168.823.102.251.241.47.418.656.186.177.4.316.642.419.251.093.516.139.795.139.549 0 .968-.13 1.256-.391.289-.26.498-.581.628-.962l1.13.39zm1.289 1.019a.93.93 0 0 1 .279-.684.91.91 0 0 1 .684-.293c.269 0 .497.098.683.293a.906.906 0 0 1 .293.684c0 .27-.097.498-.293.684a.93.93 0 0 1-.683.279.93.93 0 0 1-.684-.279.93.93 0 0 1-.279-.684z" fill="#343C6A"/><rect x="558.79" y="321.013" width="45.349" height="45.349" rx="4.07" stroke="#343C6A" stroke-width="1.163"/><path d="M574.249 340.576a3.11 3.11 0 0 1-.032-.423v-.423c0-.912.163-1.78.488-2.605a6.588 6.588 0 0 1 1.4-2.181c.63-.63 1.4-1.129 2.312-1.498.911-.369 1.942-.554 3.093-.554 1.128 0 2.138.174 3.028.521.89.348 1.638.814 2.246 1.4a5.62 5.62 0 0 1 1.368 2.084c.325.782.488 1.606.488 2.475 0 1.389-.358 2.637-1.074 3.744-.717 1.085-1.683 2.007-2.898 2.767l-4.168 2.67a9.78 9.78 0 0 0-1.627 1.302 3.276 3.276 0 0 0-.945 1.661h10.842v2.963h-14.781c.022-.869.119-1.683.293-2.442.195-.76.488-1.487.879-2.182a9.352 9.352 0 0 1 1.563-1.953c.629-.63 1.389-1.237 2.279-1.823l3.516-2.28c.999-.629 1.726-1.313 2.181-2.051.478-.738.717-1.519.717-2.344a3.64 3.64 0 0 0-.261-1.367 3.229 3.229 0 0 0-.716-1.205 3.33 3.33 0 0 0-1.237-.814c-.499-.217-1.085-.326-1.758-.326-.695 0-1.303.12-1.824.359a3.592 3.592 0 0 0-1.269.911 4.159 4.159 0 0 0-.749 1.368 6.02 6.02 0 0 0-.228 1.693v.456c.022.151.043.314.065.488l-3.191-.391z" fill="#343C6A"/><rect x="614.605" y="321.013" width="45.349" height="45.349" rx="4.07" stroke="#343C6A" stroke-width="1.163"/><path d="M643.953 336.669c-.39-.239-.922-.445-1.595-.618-.651-.196-1.378-.293-2.181-.293-1.107 0-2.106.195-2.996.586a6.899 6.899 0 0 0-2.279 1.562 7.546 7.546 0 0 0-1.497 2.41 9.431 9.431 0 0 0-.652 2.995c.434-.695 1.118-1.324 2.052-1.888.933-.565 2.105-.847 3.516-.847 1.042 0 1.997.163 2.865.489.89.303 1.66.77 2.312 1.4.651.607 1.15 1.356 1.497 2.246.369.89.554 1.91.554 3.061 0 1.128-.217 2.138-.651 3.027a6.824 6.824 0 0 1-1.693 2.28 7.67 7.67 0 0 1-2.507 1.4 8.949 8.949 0 0 1-2.963.488 8.417 8.417 0 0 1-2.996-.554 7.422 7.422 0 0 1-2.637-1.725c-.781-.782-1.411-1.791-1.888-3.028-.478-1.237-.716-2.724-.716-4.461 0-1.953.271-3.689.813-5.209.565-1.541 1.335-2.832 2.312-3.874a9.554 9.554 0 0 1 3.451-2.41c1.324-.542 2.757-.814 4.298-.814.977 0 1.856.109 2.637.326.782.217 1.422.499 1.921.847l-.977 2.604zm-10.744 11.103c0 .694.13 1.313.391 1.855.26.543.597 1.01 1.009 1.4.434.369.923.662 1.465.879a4.946 4.946 0 0 0 1.693.293c.608 0 1.183-.097 1.726-.293a4.25 4.25 0 0 0 1.465-.846 4.051 4.051 0 0 0 1.009-1.4c.239-.564.358-1.194.358-1.888 0-.717-.13-1.346-.39-1.889a3.878 3.878 0 0 0-.977-1.4 3.996 3.996 0 0 0-1.465-.879 5.067 5.067 0 0 0-1.726-.293c-.607 0-1.193.098-1.758.293a4.048 4.048 0 0 0-1.432.879 4.226 4.226 0 0 0-1.01 1.4c-.238.543-.358 1.172-.358 1.889z" fill="#343C6A"/><rect x="670.417" y="321.013" width="45.349" height="45.349" rx="4.07" stroke="#343C6A" stroke-width="1.163"/><path d="m689.857 342.041 6.219-5.73h-10.093v-2.93h14.326v2.865l-6.024 5.567c.782 0 1.552.131 2.312.391a5.903 5.903 0 0 1 2.084 1.205c.629.521 1.139 1.183 1.53 1.986.391.803.586 1.747.586 2.832 0 .89-.174 1.748-.521 2.572a6.196 6.196 0 0 1-1.465 2.149c-.651.63-1.454 1.129-2.409 1.498-.934.369-2.019.553-3.256.553-1.216 0-2.301-.184-3.256-.553-.955-.369-1.769-.857-2.442-1.465a7.228 7.228 0 0 1-1.53-2.116 6.78 6.78 0 0 1-.619-2.507l3.126-.717c.022.695.163 1.324.423 1.889a4.613 4.613 0 0 0 1.009 1.432 4.89 4.89 0 0 0 1.466.912 4.942 4.942 0 0 0 1.79.325c.717 0 1.357-.097 1.921-.293.565-.217 1.031-.499 1.4-.846.369-.369.651-.792.847-1.27.195-.477.293-.977.293-1.498 0-.694-.13-1.291-.391-1.79a3.157 3.157 0 0 0-.977-1.205 4.085 4.085 0 0 0-1.4-.716 5.222 5.222 0 0 0-1.53-.228c-.629 0-1.248.108-1.856.326l-1.563-2.638z" fill="#343C6A"/><rect x="726.232" y="321.013" width="45.349" height="45.349" rx="4.07" stroke="#343C6A" stroke-width="1.163"/><path d="M756.601 336.441c-.5.391-1.194 1.031-2.084 1.921-.89.868-1.802 2.041-2.735 3.517-.933 1.454-1.791 3.223-2.572 5.306-.76 2.063-1.27 4.494-1.53 7.294h-3.289a28.03 28.03 0 0 1 .619-4.266 34.592 34.592 0 0 1 1.107-3.711 26.41 26.41 0 0 1 1.4-3.126 29.783 29.783 0 0 1 1.563-2.572c1.194-1.758 2.528-3.256 4.004-4.493h-11.883v-2.93h15.4v3.06z" fill="#343C6A"/><rect x="782.046" y="321.013" width="45.349" height="45.349" rx="4.07" stroke="#343C6A" stroke-width="1.163"/><path d="m796.511 346.046 9.052-12.665h4.395v13.381h3.614v2.963h-3.614v4.754h-3.093v-4.754h-10.354v-3.679zm10.354-9.605-7.423 10.321h7.423v-10.321z" fill="#343C6A"/><rect x="837.861" y="321.013" width="45.349" height="45.349" rx="4.07" stroke="#343C6A" stroke-width="1.163"/><path d="M860.543 342.367c1.129-.022 2.062-.337 2.8-.944.738-.63 1.107-1.465 1.107-2.507 0-.955-.358-1.758-1.074-2.41-.695-.651-1.639-.976-2.833-.976-1.194 0-2.149.325-2.865.976-.695.652-1.042 1.455-1.042 2.41 0 1.042.369 1.877 1.107 2.507.738.607 1.671.922 2.8.944zm0 9.832c1.433 0 2.529-.336 3.288-1.009.76-.694 1.14-1.541 1.14-2.539 0-1.021-.391-1.878-1.172-2.572-.76-.695-1.845-1.042-3.256-1.042-1.411 0-2.507.347-3.288 1.042-.76.694-1.14 1.551-1.14 2.572 0 .998.38 1.845 1.14 2.539.759.673 1.856 1.009 3.288 1.009zm0 2.768c-1.215 0-2.301-.163-3.256-.488-.933-.304-1.725-.728-2.376-1.27a5.555 5.555 0 0 1-1.498-1.921 5.516 5.516 0 0 1-.521-2.377c0-1.302.38-2.398 1.139-3.288a6.28 6.28 0 0 1 2.866-1.921 5.277 5.277 0 0 1-1.368-.749 5.797 5.797 0 0 1-1.074-1.107 6.39 6.39 0 0 1-.749-1.433 5.205 5.205 0 0 1-.261-1.66c0-.868.174-1.661.521-2.377a5.9 5.9 0 0 1 1.498-1.856 7.198 7.198 0 0 1 2.247-1.204 9.118 9.118 0 0 1 2.832-.424c.999 0 1.932.142 2.8.424.868.282 1.617.683 2.247 1.204a5.345 5.345 0 0 1 1.497 1.856c.369.716.554 1.509.554 2.377 0 1.15-.337 2.17-1.01 3.06-.651.89-1.465 1.52-2.441 1.889a6.074 6.074 0 0 1 2.832 1.921c.782.89 1.172 1.986 1.172 3.288 0 .847-.173 1.639-.521 2.377a5.564 5.564 0 0 1-1.497 1.921c-.652.542-1.455.966-2.41 1.27-.933.325-2.007.488-3.223.488z" fill="#343C6A"/><rect x="558.209" y="380.896" width="325.581" height="37.209" rx="4.651" fill="#0075E3"/><path opacity=".25" d="M691.103 399.5a7.748 7.748 0 0 1-4.786 7.163 7.75 7.75 0 0 1-10.721-7.163 7.744 7.744 0 0 1 2.271-5.483 7.755 7.755 0 0 1 10.965 0 7.759 7.759 0 0 1 2.271 5.483z" stroke="#fff" stroke-width="1.547"/><path d="M683.349 391.746a7.75 7.75 0 0 1 7.164 4.787c.39.94.59 1.949.59 2.967" stroke="#fff" stroke-width="1.547" stroke-linecap="round"/><path d="M705.161 394.109h1.773l-3.74 9.893h-1.702l-3.684-9.893h1.814l2.763 7.702 2.776-7.702zm6.506 5.749a1.62 1.62 0 0 0-.125-.558 1.292 1.292 0 0 0-.307-.489 1.572 1.572 0 0 0-.516-.335 1.928 1.928 0 0 0-.726-.125c-.251 0-.479.046-.684.139-.195.084-.363.2-.502.349-.14.14-.251.302-.335.489-.084.176-.13.353-.14.53h3.335zm1.549 2.204a3.193 3.193 0 0 1-.404.838 2.87 2.87 0 0 1-.656.683 3.12 3.12 0 0 1-.893.461 3.535 3.535 0 0 1-1.117.167c-.465 0-.907-.079-1.325-.237a3.34 3.34 0 0 1-1.102-.712 3.662 3.662 0 0 1-.768-1.144 4.07 4.07 0 0 1-.279-1.549c0-.539.088-1.028.265-1.465.186-.437.433-.809.74-1.116.307-.316.66-.558 1.06-.726.4-.176.814-.265 1.242-.265.521 0 .986.084 1.395.251.419.168.768.405 1.047.712.288.307.507.679.656 1.116.149.428.223.912.223 1.452 0 .13-.005.246-.014.348a.716.716 0 0 1-.028.168h-4.967c.009.26.065.497.167.711.102.214.237.4.405.559.167.158.358.283.572.376a2 2 0 0 0 .711.126c.493 0 .87-.112 1.131-.335.269-.233.46-.516.572-.851l1.367.432zm5.524-3.251a3.572 3.572 0 0 0-.531-.042c-.632 0-1.097.172-1.395.517-.288.344-.432.837-.432 1.479v3.237h-1.619v-6.795h1.577v1.088c.158-.372.414-.66.767-.865a2.35 2.35 0 0 1 1.2-.307c.102 0 .191.005.265.014.075.009.131.018.168.028v1.646zm1.267 5.191v-6.795h1.605v6.795h-1.605zm-.251-9.181c0-.298.102-.549.307-.754.205-.205.451-.307.74-.307.297 0 .548.102.753.307.205.205.307.456.307.754a1.024 1.024 0 0 1-1.06 1.046 1.024 1.024 0 0 1-1.047-1.046zm6.874.46c-.111 0-.228.014-.349.042a.84.84 0 0 0-.558.488c-.065.13-.097.298-.097.503v.893h1.576v1.409h-1.576v5.386h-1.633v-5.386h-1.186v-1.409h1.186v-.935c0-.382.056-.721.167-1.019.121-.307.284-.563.489-.767.214-.214.465-.377.753-.489.289-.111.61-.167.963-.167.205 0 .381.018.53.056.158.028.265.055.321.083v1.382a.78.78 0 0 0-.209-.042 1.978 1.978 0 0 0-.377-.028zm2.388 11.47 1.633-3.558-2.903-5.986h1.828l1.954 4.297 1.828-4.297h1.716l-4.326 9.544h-1.73zm7.158-2.749v-6.795h1.605v6.795h-1.605zm-.251-9.181c0-.298.102-.549.307-.754.204-.205.451-.307.739-.307.298 0 .549.102.754.307.204.205.307.456.307.754 0 .297-.103.548-.307.753a1.053 1.053 0 0 1-.754.293 1.024 1.024 0 0 1-1.046-1.046zm5.479 9.181h-1.619v-6.795h1.577v.907c.223-.391.516-.67.879-.838a2.621 2.621 0 0 1 1.13-.265c.419 0 .781.07 1.088.21.307.139.559.334.754.586.205.241.358.525.46.851.103.325.154.674.154 1.046v4.298h-1.619v-4.019c0-.418-.107-.772-.321-1.06-.204-.298-.563-.447-1.074-.447-.465 0-.819.159-1.061.475-.232.307-.348.684-.348 1.13v3.921zm7.314-.014c.056.419.233.767.53 1.047.307.279.698.418 1.173.418 1.283 0 1.925-.679 1.925-2.037v-.712c-.149.27-.391.503-.725.698-.326.195-.74.293-1.242.293-.456 0-.875-.084-1.256-.251a3.102 3.102 0 0 1-.991-.684 3.289 3.289 0 0 1-.656-1.046 3.656 3.656 0 0 1-.237-1.326c0-.456.075-.884.223-1.284.159-.4.373-.749.642-1.046.279-.298.61-.535.991-.712a3.077 3.077 0 0 1 1.284-.265c.53 0 .958.098 1.283.293.335.186.577.419.726.698v-.865h1.563v6.153c0 .456-.065.893-.196 1.312-.12.418-.32.79-.6 1.116a2.826 2.826 0 0 1-1.074.781c-.437.196-.977.293-1.619.293-.446 0-.86-.065-1.241-.195a3.47 3.47 0 0 1-.991-.53 2.804 2.804 0 0 1-.684-.796 2.688 2.688 0 0 1-.321-.962l1.493-.391zm1.926-1.674c.521 0 .939-.173 1.256-.517.325-.353.488-.823.488-1.409 0-.288-.047-.549-.14-.781a1.667 1.667 0 0 0-.362-.614 1.4 1.4 0 0 0-.545-.377 1.725 1.725 0 0 0-.697-.14c-.521 0-.949.172-1.284.517-.325.344-.488.809-.488 1.395 0 .595.163 1.065.488 1.409.326.344.754.517 1.284.517zm5.05.641c0-.316.107-.586.321-.809.223-.223.493-.335.809-.335.317 0 .586.112.81.335.223.223.335.493.335.809 0 .317-.112.586-.335.81a1.129 1.129 0 0 1-.81.321c-.316 0-.586-.107-.809-.321a1.129 1.129 0 0 1-.321-.81zm4.045 0c0-.316.107-.586.321-.809.223-.223.493-.335.809-.335.317 0 .586.112.81.335.223.223.335.493.335.809 0 .317-.112.586-.335.81a1.129 1.129 0 0 1-.81.321c-.316 0-.586-.107-.809-.321a1.129 1.129 0 0 1-.321-.81z" fill="#fff"/><rect x="689.023" y="157.581" width="63.953" height="63.953" rx="31.977" fill="#fff"/><rect x="689.023" y="157.581" width="63.953" height="63.953" rx="31.977" stroke="#E3E5F5" stroke-width="1.163"/><path d="M714.52 204.115c.566.549.166 1.49-.639 1.49h-5.033c-.993 0-1.801-.783-1.801-1.746v-4.88c0-.779.97-1.167 1.537-.618l5.936 5.754z" fill="#0A1551"/><path d="M722.387 204.496a3.772 3.772 0 0 1 0-5.36l5.377-5.342a3.833 3.833 0 0 1 5.395 0 3.772 3.772 0 0 1 0 5.36l-5.377 5.342a3.833 3.833 0 0 1-5.395 0z" fill="#FFB629"/><path d="M708.182 191.072a3.772 3.772 0 0 1 0-5.36l9.049-8.996a3.83 3.83 0 0 1 5.395 0 3.772 3.772 0 0 1 0 5.36l-9.049 8.996a3.833 3.833 0 0 1-5.395 0z" fill="#09F"/><path d="M715.58 197.485a3.772 3.772 0 0 1 0-5.36l12.227-12.148a3.834 3.834 0 0 1 5.396 0 3.774 3.774 0 0 1 0 5.361l-12.227 12.147a3.834 3.834 0 0 1-5.396 0z" fill="#FF6100"/><g filter="url(#b)"><path d="M1 11C1 5.477 5.477 1 11 1h1420c5.52 0 10 4.477 10 10v43H1V11z" fill="#fff"/><g clip-path="url(#c)" fill="#737373"><path d="M1289.5 35.473c4.63 0 8.47-3.844 8.47-8.467 0-4.632-3.85-8.467-8.48-8.467-4.62 0-8.46 3.835-8.46 8.467 0 4.623 3.85 8.467 8.47 8.467zm0-1.411a7.023 7.023 0 0 1-7.05-7.056 7.014 7.014 0 0 1 7.04-7.056c3.92 0 7.06 3.138 7.07 7.056a7.031 7.031 0 0 1-7.06 7.056zm0-11.281c-.36 0-.62.257-.62.622v4.15l.06 1.752-.83-.996-.98-.996a.659.659 0 0 0-.44-.183c-.34 0-.6.266-.6.598 0 .174.05.324.16.432l2.77 2.764c.16.166.31.232.48.232.18 0 .33-.075.49-.232l2.76-2.764a.6.6 0 0 0-.43-1.03c-.18 0-.33.067-.44.183l-.98.996-.84 1.005.06-1.76v-4.15c0-.366-.25-.623-.62-.623zM1330.5 29.265c.36 0 .66-.3.66-.648v-8.525l-.05-1.245.56.59 1.25 1.344c.12.133.29.2.45.2.35 0 .61-.25.61-.59a.595.595 0 0 0-.19-.431l-2.81-2.707c-.16-.166-.31-.224-.48-.224-.17 0-.32.058-.48.224l-2.81 2.706c-.12.125-.2.258-.2.432 0 .34.26.59.6.59.17 0 .34-.067.46-.2l1.26-1.345.56-.589-.05 1.245v8.525c0 .349.3.648.66.648zm-4.76 6.5h9.52c1.73 0 2.6-.864 2.6-2.574v-8.284c0-1.71-.87-2.573-2.6-2.573h-2.32v1.336h2.29c.82 0 1.3.448 1.3 1.311v8.135c0 .864-.48 1.312-1.3 1.312h-9.48c-.83 0-1.28-.448-1.28-1.312v-8.135c0-.863.45-1.311 1.28-1.311h2.3v-1.337h-2.31c-1.74 0-2.61.864-2.61 2.574v8.284c0 1.71.87 2.573 2.61 2.573zM1371.5 34.004c.41 0 .75-.324.75-.722v-5.52h5.36c.4 0 .74-.34.74-.747a.746.746 0 0 0-.74-.74h-5.36v-5.527c0-.399-.34-.723-.75-.723a.73.73 0 0 0-.74.723v5.528h-5.37c-.4 0-.74.332-.74.739 0 .406.34.747.74.747h5.37v5.52c0 .398.33.722.74.722zM1406.33 31.871h1.41v1.27c0 1.71.87 2.573 2.61 2.573h8.34c1.72 0 2.59-.863 2.59-2.573v-8.4c0-1.71-.87-2.573-2.59-2.573h-1.43v-1.27c0-1.71-.87-2.574-2.6-2.574h-8.33c-1.75 0-2.61.863-2.61 2.573v8.4c0 1.71.86 2.574 2.61 2.574zm.01-1.336c-.83 0-1.28-.449-1.28-1.312v-8.25c0-.864.45-1.312 1.28-1.312h8.29c.83 0 1.29.448 1.29 1.311v1.195h-5.57c-1.74 0-2.61.855-2.61 2.574v5.794h-1.4zm4.03 3.843c-.82 0-1.29-.448-1.29-1.312v-8.25c0-.864.47-1.312 1.29-1.312h8.29c.82 0 1.29.448 1.29 1.311v8.251c0 .864-.47 1.312-1.29 1.312h-8.29z"/></g><g clip-path="url(#d)"><path d="m154.265 33.987-6.583-6.425a.774.774 0 0 1-.241-.556c0-.215.092-.423.249-.556l6.575-6.433a.744.744 0 0 1 .539-.224c.432 0 .756.332.756.764 0 .199-.083.398-.216.54l-6.043 5.91 6.043 5.91a.788.788 0 0 1 .216.54.738.738 0 0 1-.756.754.744.744 0 0 1-.539-.224z" fill="#737373"/><path d="M181.197 34.22a.744.744 0 0 0 .539-.224l6.583-6.434a.774.774 0 0 0 .241-.556.734.734 0 0 0-.241-.556l-6.574-6.425a.754.754 0 0 0-.548-.232.745.745 0 0 0-.756.764c0 .199.083.398.216.54l6.043 5.91-6.043 5.91a.788.788 0 0 0-.216.54c0 .43.324.763.756.763z" fill="#BFBFBF"/></g><path d="M102.319 34.66h14.361c1.743 0 2.606-.863 2.606-2.573V21.952c0-1.71-.863-2.573-2.606-2.573h-14.361c-1.735 0-2.606.855-2.606 2.573v10.135c0 1.719.871 2.574 2.606 2.574zm.017-1.336c-.83 0-1.287-.44-1.287-1.303V22.019c0-.864.457-1.304 1.287-1.304h3.702v12.61h-3.702zm14.327-12.609c.822 0 1.287.44 1.287 1.304V32.02c0 .863-.465 1.303-1.287 1.303h-9.322V20.715h9.322zm-12.227 3.08a.483.483 0 0 0 .473-.465.477.477 0 0 0-.473-.465h-1.776a.482.482 0 0 0-.473.465c0 .24.224.465.473.465h1.776zm0 2.15a.484.484 0 0 0 .473-.473.47.47 0 0 0-.473-.457h-1.776a.475.475 0 0 0-.473.457.49.49 0 0 0 .473.473h1.776zm0 2.141a.47.47 0 0 0 .473-.456.477.477 0 0 0-.473-.465h-1.776a.482.482 0 0 0-.473.465c0 .249.224.456.473.456h1.776z" fill="#737373"/><g filter="url(#e)"><path fill-rule="evenodd" clip-rule="evenodd" d="M28 33a6 6 0 1 0 0-12 6 6 0 0 0 0 12z" fill="#EE6A5F"/></g><path d="M28 21.25a5.75 5.75 0 1 1 0 11.5 5.75 5.75 0 0 1 0-11.5z" stroke="#CE5347" stroke-width=".5"/><g filter="url(#f)"><path fill-rule="evenodd" clip-rule="evenodd" d="M48 33a6 6 0 1 0 0-12 6 6 0 0 0 0 12z" fill="#F5BD4F"/></g><path d="M48 21.25a5.75 5.75 0 1 1 0 11.5 5.75 5.75 0 0 1 0-11.5z" stroke="#D6A243" stroke-width=".5"/><g filter="url(#g)"><path fill-rule="evenodd" clip-rule="evenodd" d="M68 33a6 6 0 1 0 0-12 6 6 0 0 0 0 12z" fill="#61C454"/></g><path d="M68 21.25a5.75 5.75 0 1 1 0 11.5 5.75 5.75 0 0 1 0-11.5z" stroke="#58A942" stroke-width=".5"/><g clip-path="url(#h)"><path d="M400 35.615c.132 0 .348-.05.556-.166 4.723-2.648 6.341-3.768 6.341-6.798V22.3c0-.872-.373-1.146-1.079-1.445-.979-.406-4.142-1.544-5.121-1.884a2.244 2.244 0 0 0-.697-.124c-.233 0-.474.066-.689.124-.98.282-4.151 1.486-5.13 1.884-.698.291-1.079.573-1.079 1.445v6.35c0 3.03 1.627 4.142 6.341 6.798.216.116.424.166.557.166zm.332-15.356c1.253.498 3.685 1.378 4.972 1.818.224.083.274.199.274.481v5.786c0 2.565-1.229 3.237-5.064 5.57-.241.149-.373.19-.506.199V20.184c.083 0 .191.025.324.075z" fill="#737373"/><rect x="425.5" y="13" width="591" height="28" rx="6" fill="#000" fill-opacity=".05"/><g clip-path="url(#i)"><path d="M662.211 32.717h5.578c.756 0 1.125-.375 1.125-1.195V27.22c0-.739-.305-1.12-.932-1.184v-1.476c0-2.21-1.447-3.276-2.982-3.276-1.535 0-2.982 1.067-2.982 3.276v1.505c-.575.088-.932.463-.932 1.155v4.3c0 .82.369 1.196 1.125 1.196zm.75-8.28c0-1.47.943-2.25 2.039-2.25s2.039.78 2.039 2.25v1.594l-4.078.006v-1.6z" fill="#9E9E9E"/><path d="M676.514 23.837a.764.764 0 0 1-.762-.762c0-.419.343-.761.762-.761s.761.342.761.761a.763.763 0 0 1-.761.762zm-1.549 10.512h-.191v-.978h.165c.743 0 1.022-.26 1.022-1.016v-7.198h1.105v7.18c0 1.409-.667 2.012-2.101 2.012zm6.949-2.228c-1.948 0-3.154-1.346-3.154-3.536v-.013c0-2.196 1.206-3.535 3.154-3.535 1.949 0 3.155 1.339 3.155 3.535v.013c0 2.19-1.206 3.536-3.155 3.536zm0-.978c1.295 0 2.025-.946 2.025-2.558v-.013c0-1.618-.73-2.558-2.025-2.558s-2.025.94-2.025 2.558v.013c0 1.612.73 2.558 2.025 2.558zm7.248.908c-1.409 0-1.999-.52-1.999-1.828V26.07h-1.08v-.914h1.08v-1.77h1.142v1.77h1.498v.914h-1.498v3.872c0 .806.279 1.13.99 1.13.197 0 .305-.006.508-.025v.94a3.655 3.655 0 0 1-.641.063zm2.697-.051v-5.929h-1.137v-.914h1.137v-.762c0-1.364.685-2.018 1.986-2.018.267 0 .508.019.737.063v.883a3.012 3.012 0 0 0-.514-.032c-.787 0-1.105.387-1.105 1.136v.73h1.555v.914h-1.555V32h-1.104zm6.721.12c-1.949 0-3.155-1.345-3.155-3.535v-.013c0-2.196 1.206-3.535 3.155-3.535 1.948 0 3.154 1.339 3.154 3.535v.013c0 2.19-1.206 3.536-3.154 3.536zm0-.977c1.295 0 2.024-.946 2.024-2.558v-.013c0-1.618-.729-2.558-2.024-2.558s-2.025.94-2.025 2.558v.013c0 1.612.73 2.558 2.025 2.558zm4.816.857v-6.843h1.105v1.016h.101c.261-.717.902-1.136 1.828-1.136.21 0 .445.025.553.044v1.073a3.979 3.979 0 0 0-.68-.064c-1.053 0-1.802.667-1.802 1.67V32h-1.105zm5.026 0v-6.843h1.105v1.041h.101c.305-.736.953-1.161 1.848-1.161.926 0 1.574.488 1.891 1.2h.102c.368-.724 1.149-1.2 2.094-1.2 1.397 0 2.178.8 2.178 2.234V32h-1.105v-4.475c0-1.01-.463-1.51-1.428-1.51-.952 0-1.581.716-1.581 1.586V32h-1.104v-4.646c0-.813-.559-1.34-1.422-1.34-.895 0-1.574.78-1.574 1.746V32h-1.105zm12.161.063a.832.832 0 0 1-.825-.825c0-.457.375-.825.825-.825.457 0 .825.368.825.825 0 .451-.368.825-.825.825zm5.452.058c-1.917 0-3.142-1.39-3.142-3.561v-.013c0-2.127 1.218-3.51 3.135-3.51 1.663 0 2.66.958 2.863 2.177l.006.038h-1.098l-.006-.02c-.171-.672-.781-1.218-1.765-1.218-1.231 0-2.006.99-2.006 2.533v.013c0 1.574.788 2.583 2.006 2.583.921 0 1.505-.406 1.759-1.168l.012-.038 1.092-.006-.013.07c-.279 1.237-1.199 2.12-2.843 2.12zm7.235 0c-1.949 0-3.155-1.346-3.155-3.536v-.013c0-2.196 1.206-3.535 3.155-3.535 1.949 0 3.155 1.339 3.155 3.535v.013c0 2.19-1.206 3.536-3.155 3.536zm0-.978c1.295 0 2.025-.946 2.025-2.558v-.013c0-1.618-.73-2.558-2.025-2.558s-2.025.94-2.025 2.558v.013c0 1.612.73 2.558 2.025 2.558zm4.816.857v-6.843h1.105v1.041h.101c.305-.736.953-1.161 1.848-1.161.926 0 1.574.488 1.891 1.2h.102c.368-.724 1.149-1.2 2.095-1.2 1.396 0 2.177.8 2.177 2.234V32H746.3v-4.475c0-1.01-.463-1.51-1.428-1.51-.952 0-1.58.716-1.58 1.586V32h-1.105v-4.646c0-.813-.559-1.34-1.422-1.34-.895 0-1.574.78-1.574 1.746V32h-1.105zm14.186-9.56-2.894 11.845h-1.06l2.894-11.845h1.06zm1.046 9.56v-9.56h1.105V32h-1.105zm5.985.12c-1.949 0-3.155-1.345-3.155-3.535v-.013c0-2.196 1.206-3.535 3.155-3.535 1.949 0 3.155 1.339 3.155 3.535v.013c0 2.19-1.206 3.536-3.155 3.536zm0-.977c1.295 0 2.025-.946 2.025-2.558v-.013c0-1.618-.73-2.558-2.025-2.558s-2.025.94-2.025 2.558v.013c0 1.612.73 2.558 2.025 2.558zm7.635 3.27c-1.65 0-2.704-.744-2.875-1.867l.012-.006h1.143l.006.006c.121.52.73.889 1.714.889 1.225 0 1.955-.578 1.955-1.587v-1.384h-.101c-.432.755-1.207 1.18-2.146 1.18-1.771 0-2.869-1.37-2.869-3.288v-.012c0-1.917 1.104-3.307 2.894-3.307.965 0 1.714.476 2.133 1.25h.076v-1.13h1.105v6.748c0 1.53-1.181 2.507-3.047 2.507zm-.051-3.746c1.27 0 2.031-.952 2.031-2.31v-.013c0-1.359-.768-2.33-2.031-2.33-1.269 0-1.98.971-1.98 2.33v.012c0 1.359.711 2.311 1.98 2.311zm5.687-6.83a.764.764 0 0 1-.762-.762c0-.419.343-.761.762-.761.418 0 .761.342.761.761a.764.764 0 0 1-.761.762zM772.015 32v-6.843h1.104V32h-1.104zm3.134 0v-6.843h1.105v1.029h.101c.343-.724.984-1.15 1.994-1.15 1.536 0 2.393.908 2.393 2.533V32h-1.105v-4.164c0-1.231-.508-1.822-1.599-1.822-1.092 0-1.784.736-1.784 1.936V32h-1.105z" fill="#4C4C4C"/></g><path d="M1004.78 26.615c.15 0 .26-.047.34-.134l2.42-2.426c.1-.1.14-.217.14-.352a.512.512 0 0 0-.14-.351l-2.42-2.45a.432.432 0 0 0-.34-.14c-.26 0-.46.21-.46.48 0 .123.05.24.13.334l1.56 1.535a5.797 5.797 0 0 0-1.01-.093 5.162 5.162 0 0 0-5.18 5.173 5.169 5.169 0 0 0 5.18 5.186 5.16 5.16 0 0 0 5.17-5.186c0-.28-.2-.486-.48-.486-.28 0-.46.205-.46.486a4.22 4.22 0 0 1-4.23 4.243 4.228 4.228 0 0 1-4.24-4.243c0-2.35 1.89-4.23 4.24-4.23.45 0 .86.035 1.21.111l-1.75 1.74a.48.48 0 0 0-.14.334c0 .27.2.47.46.47z" fill="#797979"/></g></g></g><rect x=".5" y=".5" width="1441" height="601" rx="32.5" stroke="#A8A29E"/><defs><clipPath id="a"><rect x="1" y="1" width="1440" height="600" rx="32" fill="#fff"/></clipPath><clipPath id="c"><path fill="#fff" transform="translate(1273 13)" d="M0 0h156v28H0z"/></clipPath><clipPath id="d"><path fill="#fff" transform="translate(135 13)" d="M0 0h66v28H0z"/></clipPath><clipPath id="h"><path fill="#fff" transform="translate(383.5 13)" d="M0 0h675v28H0z"/></clipPath><clipPath id="i"><path fill="#fff" d="M661.086 19h120.828v16H661.086z"/></clipPath><filter id="b" x="1" y="1" width="1440" height="53.5" filterUnits="userSpaceOnUse" color-interpolation-filters="sRGB"><feFlood flood-opacity="0" result="BackgroundImageFix"/><feColorMatrix in="SourceAlpha" values="0 0 0 0 0 0 0 0 0 0 0 0 0 0 0 0 0 0 127 0" result="hardAlpha"/><feOffset dy=".5"/><feColorMatrix values="0 0 0 0 0 0 0 0 0 0 0 0 0 0 0 0 0 0 0.15 0"/><feBlend in2="BackgroundImageFix" result="effect1_dropShadow_774_13168"/><feBlend in="SourceGraphic" in2="effect1_dropShadow_774_13168" result="shape"/><feColorMatrix in="SourceAlpha" values="0 0 0 0 0 0 0 0 0 0 0 0 0 0 0 0 0 0 127 0" result="hardAlpha"/><feOffset dy="-.5"/><feComposite in2="hardAlpha" operator="arithmetic" k2="-1" k3="1"/><feColorMatrix values="0 0 0 0 0 0 0 0 0 0 0 0 0 0 0 0 0 0 0.05 0"/><feBlend in2="shape" result="effect2_innerShadow_774_13168"/></filter><filter id="e" x="22" y="21" width="12" height="12" filterUnits="userSpaceOnUse" color-interpolation-filters="sRGB"><feFlood flood-opacity="0" result="BackgroundImageFix"/><feBlend in="SourceGraphic" in2="BackgroundImageFix" result="shape"/><feColorMatrix in="SourceAlpha" values="0 0 0 0 0 0 0 0 0 0 0 0 0 0 0 0 0 0 127 0" result="hardAlpha"/><feOffset/><feGaussianBlur stdDeviation="3"/><feComposite in2="hardAlpha" operator="arithmetic" k2="-1" k3="1"/><feColorMatrix values="0 0 0 0 0.92549 0 0 0 0 0.427451 0 0 0 0 0.384314 0 0 0 1 0"/><feBlend in2="shape" result="effect1_innerShadow_774_13168"/></filter><filter id="f" x="42" y="21" width="12" height="12" filterUnits="userSpaceOnUse" color-interpolation-filters="sRGB"><feFlood flood-opacity="0" result="BackgroundImageFix"/><feBlend in="SourceGraphic" in2="BackgroundImageFix" result="shape"/><feColorMatrix in="SourceAlpha" values="0 0 0 0 0 0 0 0 0 0 0 0 0 0 0 0 0 0 127 0" result="hardAlpha"/><feOffset/><feGaussianBlur stdDeviation="3"/><feComposite in2="hardAlpha" operator="arithmetic" k2="-1" k3="1"/><feColorMatrix values="0 0 0 0 0.960784 0 0 0 0 0.768627 0 0 0 0 0.317647 0 0 0 1 0"/><feBlend in2="shape" result="effect1_innerShadow_774_13168"/></filter><filter id="g" x="62" y="21" width="12" height="12" filterUnits="userSpaceOnUse" color-interpolation-filters="sRGB"><feFlood flood-opacity="0" result="BackgroundImageFix"/><feBlend in="SourceGraphic" in2="BackgroundImageFix" result="shape"/><feColorMatrix in="SourceAlpha" values="0 0 0 0 0 0 0 0 0 0 0 0 0 0 0 0 0 0 127 0" result="hardAlpha"/><feOffset/><feGaussianBlur stdDeviation="3"/><feComposite in2="hardAlpha" operator="arithmetic" k2="-1" k3="1"/><feColorMatrix values="0 0 0 0 0.407843 0 0 0 0 0.8 0 0 0 0 0.345098 0 0 0 1 0"/><feBlend in2="shape" result="effect1_innerShadow_774_13168"/></filter></defs></svg>