<svg width="33" height="33" viewBox="0 0 33 33" fill="none" xmlns="http://www.w3.org/2000/svg">
<g id="behance">
<path id="Vector" d="M27.642 8.78043H20.893V10.6574H27.6687L27.642 8.78043ZM26.2177 21.6927C25.7057 22.032 25.1011 22.2041 24.4872 22.1853C24.0808 22.2276 23.6701 22.1856 23.2807 22.062C22.8913 21.9383 22.5316 21.7355 22.2242 21.4664C21.6558 20.822 21.3599 19.982 21.3989 19.1236H30.2112C30.2747 18.2298 30.1984 17.3315 29.9849 16.4613C29.7784 15.6333 29.4171 14.8519 28.92 14.1583C28.4196 13.4856 27.7733 12.9349 27.0297 12.5476C26.2023 12.1397 25.2898 11.9344 24.3674 11.9486C23.4999 11.9422 22.6399 12.1097 21.8382 12.4411C21.104 12.7506 20.4388 13.2031 19.8813 13.7723C19.3254 14.3528 18.895 15.0416 18.6167 15.7957C18.3182 16.6097 18.1693 17.4711 18.1775 18.3382C18.1638 19.2176 18.308 20.0923 18.6034 20.9207C18.8543 21.6708 19.2526 22.3633 19.7749 22.9573C20.3152 23.5406 20.9793 23.9954 21.7184 24.2885C22.5425 24.6025 23.419 24.7561 24.3008 24.7411C25.538 24.7797 26.7595 24.4558 27.8151 23.8093C28.8812 23.0517 29.6488 21.945 29.9849 20.681H27.043C26.8855 21.0992 26.5957 21.4545 26.2177 21.6927ZM21.6518 16.2083C21.7554 15.8764 21.9274 15.5699 22.1567 15.3086C22.3859 15.0472 22.6674 14.8368 22.983 14.6908C23.4009 14.5027 23.856 14.4117 24.3141 14.4246C24.6451 14.3963 24.9782 14.44 25.2907 14.5526C25.6032 14.6651 25.8876 14.844 26.1245 15.0768C26.5768 15.6305 26.8671 16.2986 26.9631 17.007H21.4388C21.4604 16.7365 21.5094 16.4689 21.5852 16.2083H21.6518ZM14.6099 15.5694C15.2874 15.2872 15.8762 14.8273 16.3138 14.2382C16.7161 13.6126 16.916 12.8782 16.8862 12.135C16.9123 11.4572 16.7801 10.7827 16.5002 10.1648C16.265 9.6296 15.8874 9.16917 15.4086 8.83368C14.901 8.48488 14.3245 8.24885 13.7181 8.14147C13.0003 7.99093 12.2682 7.91951 11.5349 7.92849H3.58789V24.6745H11.708C12.449 24.6751 13.1871 24.5811 13.9044 24.395C14.5843 24.2191 15.2284 23.9263 15.808 23.5297C16.3694 23.1407 16.8265 22.6195 17.1391 22.0122C17.4851 21.333 17.6545 20.5777 17.6317 19.8158C17.6569 18.8716 17.3921 17.9425 16.8729 17.1535C16.3146 16.36 15.4865 15.7969 14.5434 15.5694H14.6099ZM7.27522 10.7905H10.7229C11.0397 10.7901 11.3559 10.8168 11.6681 10.8704C11.9555 10.913 12.2316 11.0125 12.4801 11.1632C12.7201 11.299 12.9147 11.5028 13.0392 11.7489C13.1933 12.0441 13.2668 12.3747 13.2521 12.7074C13.2769 12.9939 13.2331 13.2822 13.1243 13.5484C13.0155 13.8146 12.8449 14.0511 12.6265 14.2382C12.1501 14.5657 11.58 14.7293 11.0025 14.7041H7.27522V10.7905ZM13.7181 20.6944C13.5813 20.9657 13.3745 21.1955 13.119 21.3599C12.8532 21.5253 12.5603 21.6424 12.2538 21.706C11.9131 21.7823 11.5646 21.818 11.2155 21.8125H7.22197V17.22H11.2155C11.9008 17.19 12.5775 17.3814 13.1457 17.7658C13.4023 17.9961 13.6011 18.2837 13.726 18.6051C13.8509 18.9266 13.8983 19.2729 13.8645 19.6161C13.9005 19.982 13.8503 20.3513 13.7181 20.6944Z" fill="#44403C"/>
</g>
</svg>
