<svg width="108" height="81" viewBox="0 0 108 81" fill="none" xmlns="http://www.w3.org/2000/svg">
<ellipse cx="8.69565" cy="8.69565" rx="8.69565" ry="8.69565" fill="#D6D3D1"/>
<ellipse cx="8.69565" cy="8.69565" rx="8.69565" ry="8.69565" fill="#1C1917"/>
<ellipse cx="39.6956" cy="8.69565" rx="8.69565" ry="8.69565" fill="#D6D3D1"/>
<ellipse cx="39.6956" cy="8.69565" rx="8.69565" ry="8.69565" fill="#1C1917"/>
<path d="M16.8913 40.0004C16.8913 44.5267 13.222 48.196 8.69565 48.196C4.16932 48.196 0.5 44.5267 0.5 40.0004C0.5 35.4741 4.16932 31.8047 8.69565 31.8047C13.222 31.8047 16.8913 35.4741 16.8913 40.0004Z" stroke="#1C1917"/>
<path d="M47.8913 40.0004C47.8913 44.5267 44.222 48.196 39.6957 48.196C35.1693 48.196 31.5 44.5267 31.5 40.0004C31.5 35.4741 35.1693 31.8047 39.6957 31.8047C44.222 31.8047 47.8913 35.4741 47.8913 40.0004Z" stroke="#1C1917"/>
<path d="M16.8913 71.0004C16.8913 75.5267 13.222 79.196 8.69565 79.196C4.16932 79.196 0.5 75.5267 0.5 71.0004C0.5 66.4741 4.16932 62.8047 8.69565 62.8047C13.222 62.8047 16.8913 66.4741 16.8913 71.0004Z" stroke="#1C1917"/>
<path d="M47.8913 72.0004C47.8913 76.5267 44.222 80.196 39.6957 80.196C35.1693 80.196 31.5 76.5267 31.5 72.0004C31.5 67.4741 35.1693 63.8047 39.6957 63.8047C44.222 63.8047 47.8913 67.4741 47.8913 72.0004Z" stroke="#1C1917"/>
<path d="M75.5856 9.0004C75.5856 13.5267 71.9163 17.196 67.39 17.196C62.8637 17.196 59.1943 13.5267 59.1943 9.0004C59.1943 4.47407 62.8637 0.804749 67.39 0.804749C71.9163 0.804749 75.5856 4.47407 75.5856 9.0004Z" stroke="#1C1917"/>
<ellipse cx="98.39" cy="8.69565" rx="8.69565" ry="8.69565" fill="#D6D3D1"/>
<ellipse cx="98.39" cy="8.69565" rx="8.69565" ry="8.69565" fill="#1C1917"/>
<ellipse cx="67.39" cy="39.6956" rx="8.69565" ry="8.69565" fill="#D6D3D1"/>
<ellipse cx="67.39" cy="39.6956" rx="8.69565" ry="8.69565" fill="#1C1917"/>
<path d="M106.586 40.0004C106.586 44.5267 102.916 48.196 98.39 48.196C93.8637 48.196 90.1943 44.5267 90.1943 40.0004C90.1943 35.4741 93.8637 31.8047 98.39 31.8047C102.916 31.8047 106.586 35.4741 106.586 40.0004Z" stroke="#1C1917"/>
<ellipse cx="67.39" cy="70.6956" rx="8.69565" ry="8.69565" fill="#D6D3D1"/>
<ellipse cx="67.39" cy="70.6956" rx="8.69565" ry="8.69565" fill="#1C1917"/>
<path d="M106.586 72.0004C106.586 76.5267 102.916 80.196 98.39 80.196C93.8637 80.196 90.1943 76.5267 90.1943 72.0004C90.1943 67.4741 93.8637 63.8047 98.39 63.8047C102.916 63.8047 106.586 67.4741 106.586 72.0004Z" stroke="#1C1917"/>
</svg>
