<svg width="33" height="33" viewBox="0 0 33 33" fill="none" xmlns="http://www.w3.org/2000/svg">
<g id="Group">
<path id="Vector" d="M18.4671 19.5521C19.4885 22.5791 20.1752 25.7089 20.5151 28.8855C19.0967 29.382 17.6045 29.635 16.1018 29.6335C13.4581 29.6375 10.8734 28.852 8.6791 27.3775C9.70157 25.4828 11.095 23.8134 12.7764 22.4688C14.4578 21.1241 16.3927 20.1317 18.4658 19.5508L18.4671 19.5521ZM28.8658 20.1695C27.9137 23.2978 25.8478 25.9685 23.0591 27.6761C22.6863 24.746 22.0344 21.8583 21.1124 19.0521C23.7495 18.7796 26.413 19.1635 28.8658 20.1695ZM16.2951 14.2801C16.7378 15.1841 17.1524 16.1068 17.5351 17.0441C12.9172 18.3975 8.99831 21.478 6.59243 25.6455C5.24051 24.2602 4.2038 22.5992 3.55324 20.7761C2.90268 18.9531 2.65362 17.011 2.8231 15.0828C7.28043 16.0268 11.9831 15.7521 16.2951 14.2801ZM26.3951 7.82547C28.6165 10.5383 29.6885 14.0126 29.3818 17.5055C26.4487 16.4014 23.2861 16.0485 20.1818 16.4788C19.7532 15.3957 19.284 14.3292 18.7751 13.2815C21.6315 11.9512 24.2155 10.101 26.3951 7.82547ZM9.78976 4.55347C11.7823 6.81351 13.5381 9.27167 15.0298 11.8895C11.2455 13.0947 7.21238 13.2923 3.32843 12.4628C4.35065 9.07517 6.67416 6.23096 9.78976 4.55347ZM16.1018 2.9668C19.2858 2.9668 22.2098 4.0828 24.5018 5.94547C22.5171 8.02699 20.1552 9.71284 17.5418 10.9135C16.0698 8.27853 14.3462 5.79227 12.3951 3.48947C13.5999 3.14189 14.8478 2.96594 16.1018 2.9668Z" fill="#44403C"/>
</g>
</svg>
