<svg width="49" height="81" viewBox="0 0 49 81" fill="none" xmlns="http://www.w3.org/2000/svg">
<path d="M31.803 9.0004C31.803 13.5267 35.4724 17.196 39.9987 17.196C44.525 17.196 48.1943 13.5267 48.1943 9.0004C48.1943 4.47407 44.525 0.804749 39.9987 0.804749C35.4724 0.804749 31.803 4.47407 31.803 9.0004Z" stroke="#1C1917"/>
<ellipse cx="8.69565" cy="8.69565" rx="8.69565" ry="8.69565" transform="matrix(-1 0 0 1 17.6943 0)" fill="#D6D3D1"/>
<ellipse cx="8.69565" cy="8.69565" rx="8.69565" ry="8.69565" transform="matrix(-1 0 0 1 17.6943 0)" fill="#1C1917"/>
<ellipse cx="8.69565" cy="8.69565" rx="8.69565" ry="8.69565" transform="matrix(-1 0 0 1 48.6943 31)" fill="#D6D3D1"/>
<ellipse cx="8.69565" cy="8.69565" rx="8.69565" ry="8.69565" transform="matrix(-1 0 0 1 48.6943 31)" fill="#1C1917"/>
<path d="M0.803036 40.0004C0.803036 44.5267 4.47235 48.196 8.99869 48.196C13.525 48.196 17.1943 44.5267 17.1943 40.0004C17.1943 35.4741 13.525 31.8047 8.99869 31.8047C4.47235 31.8047 0.803036 35.4741 0.803036 40.0004Z" stroke="#1C1917"/>
<path d="M31.803 71.0004C31.803 75.5267 35.4724 79.196 39.9987 79.196C44.525 79.196 48.1943 75.5267 48.1943 71.0004C48.1943 66.4741 44.525 62.8047 39.9987 62.8047C35.4724 62.8047 31.803 66.4741 31.803 71.0004Z" stroke="#1C1917"/>
<path d="M0.803036 72.0004C0.803036 76.5267 4.47235 80.196 8.99869 80.196C13.525 80.196 17.1943 76.5267 17.1943 72.0004C17.1943 67.4741 13.525 63.8047 8.99869 63.8047C4.47235 63.8047 0.803036 67.4741 0.803036 72.0004Z" stroke="#1C1917"/>
</svg>
