<svg width="33" height="33" viewBox="0 0 33 33" fill="none" xmlns="http://www.w3.org/2000/svg">
<g id="Group">
<path id="Vector" d="M9.86499 3.38119C10.8663 3.72038 11.8188 4.18925 12.6983 4.77586C13.9404 4.4584 15.2176 4.29892 16.4997 4.30119C17.8237 4.30119 19.101 4.46652 20.2983 4.77452C21.1775 4.18849 22.1296 3.72007 23.1303 3.38119C24.0597 3.06519 25.3837 2.55319 26.1703 3.42386C26.7037 4.01586 26.837 5.00786 26.9317 5.76519C27.0383 6.61052 27.0637 7.71186 26.7837 8.80519C27.8543 10.1879 28.4997 11.8372 28.4997 13.6345C28.4997 16.3572 27.025 18.7212 24.8423 20.3585C23.7919 21.1366 22.6269 21.7465 21.389 22.1665C21.6743 22.8199 21.833 23.5425 21.833 24.3012V28.3012C21.833 28.6548 21.6925 28.9939 21.4425 29.244C21.1924 29.494 20.8533 29.6345 20.4997 29.6345H12.4997C12.146 29.6345 11.8069 29.494 11.5568 29.244C11.3068 28.9939 11.1663 28.6548 11.1663 28.3012V26.9799C9.89299 27.1359 8.82499 26.9972 7.91699 26.6119C6.96766 26.2092 6.30632 25.5852 5.80899 24.9879C5.33699 24.4225 4.82232 23.1479 4.07832 22.8999C3.91216 22.8445 3.75851 22.757 3.62617 22.6423C3.49383 22.5276 3.38537 22.3879 3.307 22.2313C3.14872 21.915 3.12258 21.5488 3.23432 21.2132C3.34607 20.8776 3.58654 20.6002 3.90286 20.4419C4.21917 20.2836 4.5854 20.2574 4.92099 20.3692C5.80899 20.6652 6.38765 21.3052 6.78365 21.8199C7.42365 22.6465 7.94366 23.7265 8.95699 24.1572C9.37432 24.3345 9.98632 24.4505 10.9437 24.3199L11.1663 24.2745C11.1689 23.5489 11.32 22.8315 11.6103 22.1665C10.3724 21.7465 9.2074 21.1366 8.15699 20.3585C5.97432 18.7212 4.49965 16.3585 4.49965 13.6345C4.49965 11.8399 5.14365 10.1919 6.21165 8.81052C5.93165 7.71719 5.95565 6.61319 6.06232 5.76652L6.06899 5.71586C6.16632 4.93986 6.27965 4.02652 6.82365 3.42386C7.61032 2.55319 8.93565 3.06652 9.86365 3.38252L9.86499 3.38119Z" fill="#d9f99d"/>
</g>
</svg>
