<svg width="33" height="33" viewBox="0 0 33 33" fill="none" xmlns="http://www.w3.org/2000/svg">
<g id="linkedin">
<path id="Vector" d="M11.1025 8.92632C11.1022 9.48511 10.88 10.0209 10.4846 10.4158C10.0893 10.8108 9.55332 11.0325 8.99453 11.0322C8.43574 11.0319 7.89995 10.8097 7.50503 10.4143C7.1101 10.019 6.88839 9.483 6.88867 8.92422C6.88895 8.36543 7.1112 7.82964 7.50652 7.43471C7.90184 7.03979 8.43785 6.81808 8.99664 6.81836C9.55542 6.81864 10.0912 7.04088 10.4861 7.4362C10.8811 7.83152 11.1028 8.36754 11.1025 8.92632ZM11.1657 12.5923H6.95188V25.7816H11.1657V12.5923ZM17.8235 12.5923H13.6308V25.7816H17.7814V18.8604C17.7814 15.0048 22.8064 14.6466 22.8064 18.8604V25.7816H26.9675V17.4277C26.9675 10.9279 19.5301 11.1702 17.7814 14.3622L17.8235 12.5923Z" fill="#44403C"/>
</g>
</svg>
