<svg width="49" height="81" viewBox="0 0 49 81" fill="none" xmlns="http://www.w3.org/2000/svg">
<ellipse cx="8.69565" cy="8.69565" rx="8.69565" ry="8.69565" transform="matrix(-1 0 0 1 48.6943 0)" fill="#D6D3D1"/>
<ellipse cx="8.69565" cy="8.69565" rx="8.69565" ry="8.69565" transform="matrix(-1 0 0 1 48.6943 0)" fill="#1C1917"/>
<ellipse cx="8.69565" cy="8.69565" rx="8.69565" ry="8.69565" transform="matrix(-1 0 0 1 17.6943 0)" fill="#D6D3D1"/>
<ellipse cx="8.69565" cy="8.69565" rx="8.69565" ry="8.69565" transform="matrix(-1 0 0 1 17.6943 0)" fill="#1C1917"/>
<path d="M31.803 40.0004C31.803 44.5267 35.4724 48.196 39.9987 48.196C44.525 48.196 48.1943 44.5267 48.1943 40.0004C48.1943 35.4741 44.525 31.8047 39.9987 31.8047C35.4724 31.8047 31.803 35.4741 31.803 40.0004Z" stroke="#1C1917"/>
<ellipse cx="8.69565" cy="8.69565" rx="8.69565" ry="8.69565" transform="matrix(-1 0 0 1 17.3916 31.3047)" fill="#D6D3D1"/>
<ellipse cx="8.69565" cy="8.69565" rx="8.69565" ry="8.69565" transform="matrix(-1 0 0 1 17.3916 31.3047)" fill="#1C1917"/>
<path d="M31.803 71.0004C31.803 75.5267 35.4724 79.196 39.9987 79.196C44.525 79.196 48.1943 75.5267 48.1943 71.0004C48.1943 66.4741 44.525 62.8047 39.9987 62.8047C35.4724 62.8047 31.803 66.4741 31.803 71.0004Z" stroke="#1C1917"/>
<ellipse cx="8.69565" cy="8.69565" rx="8.69565" ry="8.69565" transform="matrix(-1 0 0 1 17.6943 63)" fill="#D6D3D1"/>
<ellipse cx="8.69565" cy="8.69565" rx="8.69565" ry="8.69565" transform="matrix(-1 0 0 1 17.6943 63)" fill="#1C1917"/>
</svg>
