<svg width="49" height="81" viewBox="0 0 49 81" fill="none" xmlns="http://www.w3.org/2000/svg">
<path d="M16.8913 9.0004C16.8913 13.5267 13.222 17.196 8.69565 17.196C4.16932 17.196 0.5 13.5267 0.5 9.0004C0.5 4.47407 4.16932 0.804749 8.69565 0.804749C13.222 0.804749 16.8913 4.47407 16.8913 9.0004Z" stroke="#1C1917"/>
<ellipse cx="39.6956" cy="8.69565" rx="8.69565" ry="8.69565" fill="#D6D3D1"/>
<ellipse cx="39.6956" cy="8.69565" rx="8.69565" ry="8.69565" fill="#1C1917"/>
<ellipse cx="8.69565" cy="39.6956" rx="8.69565" ry="8.69565" fill="#D6D3D1"/>
<ellipse cx="8.69565" cy="39.6956" rx="8.69565" ry="8.69565" fill="#1C1917"/>
<ellipse cx="39.9984" cy="40.0004" rx="8.69565" ry="8.69565" fill="#D6D3D1"/>
<ellipse cx="39.9984" cy="40.0004" rx="8.69565" ry="8.69565" fill="#1C1917"/>
<path d="M16.8913 71.0004C16.8913 75.5267 13.222 79.196 8.69565 79.196C4.16932 79.196 0.5 75.5267 0.5 71.0004C0.5 66.4741 4.16932 62.8047 8.69565 62.8047C13.222 62.8047 16.8913 66.4741 16.8913 71.0004Z" stroke="#1C1917"/>
<ellipse cx="39.6956" cy="71.6956" rx="8.69565" ry="8.69565" fill="#D6D3D1"/>
<ellipse cx="39.6956" cy="71.6956" rx="8.69565" ry="8.69565" fill="#1C1917"/>
</svg>
