<svg width="49" height="81" viewBox="0 0 49 81" fill="none" xmlns="http://www.w3.org/2000/svg">
<path d="M39.999 0.804749C35.4728 0.804749 31.8029 4.47388 31.8027 9.00006C31.8027 13.5264 35.4727 17.1964 39.999 17.1964C44.5252 17.1962 48.1943 13.5263 48.1943 9.00006C48.1942 4.474 44.5251 0.804931 39.999 0.804749Z" stroke="#1C1917"/>
<ellipse cx="8.69565" cy="8.69565" rx="8.69565" ry="8.69565" transform="matrix(-1 0 0 1 17.6943 0)" fill="#D6D3D1"/>
<ellipse cx="8.69565" cy="8.69565" rx="8.69565" ry="8.69565" transform="matrix(-1 0 0 1 17.6943 0)" fill="#1C1917"/>
<path d="M39.999 31.5C35.4728 31.5 31.8029 35.1691 31.8027 39.6953C31.8027 44.2216 35.4727 47.8916 39.999 47.8916C44.5252 47.8914 48.1943 44.2215 48.1943 39.6953C48.1942 35.1692 44.5251 31.5002 39.999 31.5Z" stroke="#1C1917"/>
<path d="M8.99902 31.8047C4.4728 31.8047 0.802916 35.4739 0.802734 40.0001C0.802734 44.5264 4.47269 48.1964 8.99902 48.1964C13.5252 48.1962 17.1943 44.5263 17.1943 40.0001C17.1942 35.474 13.5251 31.8049 8.99902 31.8047Z" stroke="#1C1917"/>
<path d="M39.999 62.8047C35.4728 62.8047 31.8029 66.4739 31.8027 71.0001C31.8027 75.5264 35.4727 79.1964 39.999 79.1964C44.5252 79.1962 48.1943 75.5263 48.1943 71.0001C48.1942 66.474 44.5251 62.8049 39.999 62.8047Z" stroke="#1C1917"/>
<path d="M8.99902 63.8047C4.4728 63.8047 0.802916 67.4739 0.802734 72.0001C0.802734 76.5264 4.47269 80.1964 8.99902 80.1964C13.5252 80.1962 17.1943 76.5263 17.1943 72.0001C17.1942 67.474 13.5251 63.8049 8.99902 63.8047Z" stroke="#1C1917"/>
</svg>
