<svg width="177" height="128" viewBox="0 0 177 128" fill="none" xmlns="http://www.w3.org/2000/svg">
<ellipse cx="14.6462" cy="14.6447" rx="13.7097" ry="13.7097" fill="#D6D3D1"/>
<ellipse cx="14.6462" cy="14.6447" rx="13.7097" ry="13.7097" fill="#1C1917"/>
<path d="M76.3375 14.645C76.3375 21.4595 70.8132 26.9837 63.9987 26.9837C57.1843 26.9837 51.66 21.4595 51.66 14.645C51.66 7.8305 57.1843 2.30627 63.9987 2.30627C70.8132 2.30627 76.3375 7.8305 76.3375 14.645Z" stroke="#1C1917" stroke-width="2.74194"/>
<path d="M26.9849 64.0002C26.9849 70.8147 21.4607 76.3389 14.6462 76.3389C7.83172 76.3389 2.30749 70.8147 2.30749 64.0002C2.30749 57.1857 7.83172 51.6615 14.6462 51.6615C21.4607 51.6615 26.9849 57.1857 26.9849 64.0002Z" stroke="#1C1917" stroke-width="2.74194"/>
<ellipse cx="63.9987" cy="64.0002" rx="13.7097" ry="13.7097" fill="#D6D3D1"/>
<ellipse cx="63.9987" cy="64.0002" rx="13.7097" ry="13.7097" fill="#1C1917"/>
<ellipse cx="14.6462" cy="113.354" rx="13.7097" ry="13.7097" fill="#D6D3D1"/>
<ellipse cx="14.6462" cy="113.354" rx="13.7097" ry="13.7097" fill="#1C1917"/>
<path d="M76.3375 113.354C76.3375 120.169 70.8132 125.693 63.9987 125.693C57.1843 125.693 51.66 120.169 51.66 113.354C51.66 106.54 57.1843 101.016 63.9987 101.016C70.8132 101.016 76.3375 106.54 76.3375 113.354Z" stroke="#1C1917" stroke-width="2.74194"/>
<path d="M125.695 14.645C125.695 21.4595 120.171 26.9837 113.356 26.9837C106.542 26.9837 101.017 21.4595 101.017 14.645C101.017 7.8305 106.542 2.30627 113.356 2.30627C120.171 2.30627 125.695 7.8305 125.695 14.645Z" stroke="#1C1917" stroke-width="2.74194"/>
<ellipse cx="162.709" cy="14.6447" rx="13.7097" ry="13.7097" fill="#D6D3D1"/>
<ellipse cx="162.709" cy="14.6447" rx="13.7097" ry="13.7097" fill="#1C1917"/>
<ellipse cx="113.356" cy="64.0002" rx="13.7097" ry="13.7097" fill="#D6D3D1"/>
<ellipse cx="113.356" cy="64.0002" rx="13.7097" ry="13.7097" fill="#1C1917"/>
<path d="M175.047 64.0002C175.047 70.8147 169.523 76.3389 162.709 76.3389C155.894 76.3389 150.37 70.8147 150.37 64.0002C150.37 57.1857 155.894 51.6615 162.709 51.6615C169.523 51.6615 175.047 57.1857 175.047 64.0002Z" stroke="#1C1917" stroke-width="2.74194"/>
<path d="M125.695 113.354C125.695 120.169 120.171 125.693 113.356 125.693C106.542 125.693 101.017 120.169 101.017 113.354C101.017 106.54 106.542 101.016 113.356 101.016C120.171 101.016 125.695 106.54 125.695 113.354Z" stroke="#1C1917" stroke-width="2.74194"/>
<ellipse cx="162.709" cy="113.354" rx="13.7097" ry="13.7097" fill="#D6D3D1"/>
<ellipse cx="162.709" cy="113.354" rx="13.7097" ry="13.7097" fill="#1C1917"/>
</svg>
