<svg width="365" height="266" viewBox="0 0 365 266" fill="none" xmlns="http://www.w3.org/2000/svg">
<path d="M53.568 24V12.8H55.264L59.344 19.44L58.528 19.424L62.656 12.8H64.256V24H62.528V19.408C62.528 18.448 62.5493 17.584 62.592 16.816C62.6453 16.048 62.7307 15.2853 62.848 14.528L63.072 15.12L59.408 20.784H58.352L54.8 15.184L54.976 14.528C55.0933 15.2427 55.1733 15.9787 55.216 16.736C55.2693 17.4827 55.296 18.3733 55.296 19.408V24H53.568ZM70.7561 24.16C69.9348 24.16 69.1988 23.9733 68.5481 23.6C67.9081 23.216 67.4015 22.6987 67.0281 22.048C66.6548 21.3867 66.4681 20.6347 66.4681 19.792C66.4681 18.9493 66.6548 18.2027 67.0281 17.552C67.4015 16.8907 67.9081 16.3733 68.5481 16C69.1988 15.616 69.9348 15.424 70.7561 15.424C71.5668 15.424 72.2921 15.616 72.9321 16C73.5828 16.3733 74.0948 16.8907 74.4681 17.552C74.8415 18.2027 75.0281 18.9493 75.0281 19.792C75.0281 20.6347 74.8415 21.3867 74.4681 22.048C74.0948 22.6987 73.5828 23.216 72.9321 23.6C72.2921 23.9733 71.5668 24.16 70.7561 24.16ZM70.7561 22.656C71.2575 22.656 71.7055 22.5333 72.1001 22.288C72.4948 22.032 72.8041 21.6907 73.0281 21.264C73.2521 20.8267 73.3588 20.336 73.3481 19.792C73.3588 19.2373 73.2521 18.7467 73.0281 18.32C72.8041 17.8827 72.4948 17.5413 72.1001 17.296C71.7055 17.0507 71.2575 16.928 70.7561 16.928C70.2548 16.928 69.8015 17.056 69.3961 17.312C69.0015 17.5573 68.6921 17.8987 68.4681 18.336C68.2441 18.7627 68.1375 19.248 68.1481 19.792C68.1375 20.336 68.2441 20.8267 68.4681 21.264C68.6921 21.6907 69.0015 22.032 69.3961 22.288C69.8015 22.5333 70.2548 22.656 70.7561 22.656ZM80.5999 24.16C79.7785 24.16 79.0425 23.9733 78.3919 23.6C77.7519 23.216 77.2452 22.6987 76.8719 22.048C76.4985 21.3867 76.3119 20.6347 76.3119 19.792C76.3119 18.9493 76.4985 18.2027 76.8719 17.552C77.2452 16.8907 77.7519 16.3733 78.3919 16C79.0425 15.616 79.7785 15.424 80.5999 15.424C81.4105 15.424 82.1359 15.616 82.7759 16C83.4265 16.3733 83.9385 16.8907 84.3119 17.552C84.6852 18.2027 84.8719 18.9493 84.8719 19.792C84.8719 20.6347 84.6852 21.3867 84.3119 22.048C83.9385 22.6987 83.4265 23.216 82.7759 23.6C82.1359 23.9733 81.4105 24.16 80.5999 24.16ZM80.5999 22.656C81.1012 22.656 81.5492 22.5333 81.9439 22.288C82.3385 22.032 82.6479 21.6907 82.8719 21.264C83.0959 20.8267 83.2025 20.336 83.1919 19.792C83.2025 19.2373 83.0959 18.7467 82.8719 18.32C82.6479 17.8827 82.3385 17.5413 81.9439 17.296C81.5492 17.0507 81.1012 16.928 80.5999 16.928C80.0985 16.928 79.6452 17.056 79.2399 17.312C78.8452 17.5573 78.5359 17.8987 78.3119 18.336C78.0879 18.7627 77.9812 19.248 77.9919 19.792C77.9812 20.336 78.0879 20.8267 78.3119 21.264C78.5359 21.6907 78.8452 22.032 79.2399 22.288C79.6452 22.5333 80.0985 22.656 80.5999 22.656ZM90.1716 24.16C89.4036 24.16 88.7156 23.9733 88.1076 23.6C87.5103 23.216 87.0356 22.6987 86.6836 22.048C86.3316 21.3867 86.1556 20.6347 86.1556 19.792C86.1556 18.9493 86.3263 18.2027 86.6676 17.552C87.0196 16.8907 87.4943 16.3733 88.0916 16C88.689 15.616 89.3663 15.424 90.1236 15.424C90.5396 15.424 90.9396 15.4933 91.3236 15.632C91.7183 15.76 92.0703 15.9413 92.3796 16.176C92.689 16.4 92.929 16.6507 93.0996 16.928C93.281 17.1947 93.3716 17.4667 93.3716 17.744L92.8916 17.776V12.16H94.5396V24H92.8916V22H93.2116C93.2116 22.256 93.1263 22.512 92.9556 22.768C92.785 23.0133 92.5556 23.2427 92.2676 23.456C91.9903 23.6693 91.665 23.84 91.2916 23.968C90.929 24.096 90.5556 24.16 90.1716 24.16ZM90.3956 22.736C90.897 22.736 91.3396 22.608 91.7236 22.352C92.1076 22.096 92.4063 21.7493 92.6196 21.312C92.8436 20.864 92.9556 20.3573 92.9556 19.792C92.9556 19.2267 92.8436 18.7253 92.6196 18.288C92.4063 17.84 92.1076 17.488 91.7236 17.232C91.3396 16.976 90.897 16.848 90.3956 16.848C89.8943 16.848 89.4516 16.976 89.0676 17.232C88.6836 17.488 88.3796 17.84 88.1556 18.288C87.9423 18.7253 87.8356 19.2267 87.8356 19.792C87.8356 20.3573 87.9423 20.864 88.1556 21.312C88.3796 21.7493 88.6836 22.096 89.0676 22.352C89.4516 22.608 89.8943 22.736 90.3956 22.736ZM101.224 24.16C100.862 24.16 100.499 24.1013 100.136 23.984C99.7843 23.8667 99.4589 23.712 99.1603 23.52C98.8723 23.3173 98.6269 23.0987 98.4243 22.864C98.2323 22.6187 98.1043 22.3733 98.0403 22.128L98.4563 21.904V23.952H96.8083V12.16H98.4563V17.52L98.2003 17.376C98.2536 17.1307 98.3709 16.896 98.5523 16.672C98.7336 16.4373 98.9629 16.2293 99.2403 16.048C99.5283 15.856 99.8376 15.7067 100.168 15.6C100.499 15.4827 100.835 15.424 101.176 15.424C101.934 15.424 102.606 15.6107 103.192 15.984C103.779 16.3573 104.243 16.8747 104.584 17.536C104.926 18.1867 105.096 18.9333 105.096 19.776C105.096 20.6187 104.926 21.3707 104.584 22.032C104.254 22.6933 103.795 23.216 103.208 23.6C102.622 23.9733 101.96 24.16 101.224 24.16ZM100.952 22.656C101.443 22.656 101.88 22.5333 102.264 22.288C102.648 22.032 102.952 21.6907 103.176 21.264C103.4 20.8267 103.512 20.3307 103.512 19.776C103.512 19.232 103.4 18.7467 103.176 18.32C102.963 17.8827 102.664 17.5413 102.28 17.296C101.896 17.0507 101.454 16.928 100.952 16.928C100.451 16.928 100.008 17.0507 99.6243 17.296C99.2403 17.5413 98.9363 17.8827 98.7123 18.32C98.4883 18.7467 98.3763 19.232 98.3763 19.776C98.3763 20.3307 98.4883 20.8267 98.7123 21.264C98.9363 21.6907 99.2403 22.032 99.6243 22.288C100.008 22.5333 100.451 22.656 100.952 22.656ZM110.662 24.16C109.841 24.16 109.105 23.9733 108.454 23.6C107.814 23.216 107.308 22.6987 106.934 22.048C106.561 21.3867 106.374 20.6347 106.374 19.792C106.374 18.9493 106.561 18.2027 106.934 17.552C107.308 16.8907 107.814 16.3733 108.454 16C109.105 15.616 109.841 15.424 110.662 15.424C111.473 15.424 112.198 15.616 112.838 16C113.489 16.3733 114.001 16.8907 114.374 17.552C114.748 18.2027 114.934 18.9493 114.934 19.792C114.934 20.6347 114.748 21.3867 114.374 22.048C114.001 22.6987 113.489 23.216 112.838 23.6C112.198 23.9733 111.473 24.16 110.662 24.16ZM110.662 22.656C111.164 22.656 111.612 22.5333 112.006 22.288C112.401 22.032 112.71 21.6907 112.934 21.264C113.158 20.8267 113.265 20.336 113.254 19.792C113.265 19.2373 113.158 18.7467 112.934 18.32C112.71 17.8827 112.401 17.5413 112.006 17.296C111.612 17.0507 111.164 16.928 110.662 16.928C110.161 16.928 109.708 17.056 109.302 17.312C108.908 17.5573 108.598 17.8987 108.374 18.336C108.15 18.7627 108.044 19.248 108.054 19.792C108.044 20.336 108.15 20.8267 108.374 21.264C108.598 21.6907 108.908 22.032 109.302 22.288C109.708 22.5333 110.161 22.656 110.662 22.656ZM121.706 24V18.528C121.706 18.0587 121.535 17.68 121.194 17.392C120.863 17.0933 120.442 16.944 119.93 16.944C119.461 16.944 119.034 17.04 118.65 17.232C118.277 17.424 117.935 17.7173 117.626 18.112L116.554 17.04C117.055 16.496 117.594 16.0907 118.17 15.824C118.757 15.5573 119.386 15.424 120.058 15.424C120.698 15.424 121.253 15.5307 121.722 15.744C122.191 15.9573 122.554 16.272 122.81 16.688C123.066 17.0933 123.194 17.5893 123.194 18.176V24H121.706ZM119.194 24.16C118.65 24.16 118.165 24.0533 117.738 23.84C117.311 23.6267 116.97 23.3333 116.714 22.96C116.469 22.576 116.346 22.128 116.346 21.616C116.346 21.168 116.426 20.7733 116.586 20.432C116.746 20.0907 116.981 19.808 117.29 19.584C117.61 19.36 118.005 19.1893 118.474 19.072C118.954 18.9547 119.503 18.896 120.122 18.896H122.458L122.314 20.208H119.914C119.594 20.208 119.306 20.24 119.05 20.304C118.805 20.3573 118.591 20.448 118.41 20.576C118.239 20.6933 118.111 20.8373 118.026 21.008C117.941 21.168 117.898 21.36 117.898 21.584C117.898 21.8187 117.957 22.0267 118.074 22.208C118.191 22.3787 118.351 22.512 118.554 22.608C118.757 22.704 118.991 22.752 119.258 22.752C119.642 22.752 120.005 22.688 120.346 22.56C120.698 22.4213 121.007 22.2347 121.274 22C121.551 21.7653 121.765 21.504 121.914 21.216L122.298 22.288C122.074 22.6613 121.797 22.9867 121.466 23.264C121.135 23.5413 120.778 23.76 120.394 23.92C120.01 24.08 119.61 24.16 119.194 24.16ZM125.277 24V15.6H126.941V18.24L126.781 17.6C126.898 17.1947 127.096 16.8267 127.373 16.496C127.661 16.1653 127.986 15.904 128.349 15.712C128.722 15.52 129.106 15.424 129.501 15.424C129.682 15.424 129.853 15.44 130.013 15.472C130.184 15.504 130.317 15.5413 130.413 15.584L129.981 17.376C129.853 17.3227 129.709 17.28 129.549 17.248C129.4 17.2053 129.25 17.184 129.101 17.184C128.813 17.184 128.536 17.2427 128.269 17.36C128.013 17.4667 127.784 17.6213 127.581 17.824C127.389 18.016 127.234 18.2453 127.117 18.512C127 18.768 126.941 19.0507 126.941 19.36V24H125.277ZM134.875 24.16C134.107 24.16 133.419 23.9733 132.811 23.6C132.213 23.216 131.739 22.6987 131.387 22.048C131.035 21.3867 130.859 20.6347 130.859 19.792C130.859 18.9493 131.029 18.2027 131.371 17.552C131.723 16.8907 132.197 16.3733 132.795 16C133.392 15.616 134.069 15.424 134.827 15.424C135.243 15.424 135.643 15.4933 136.027 15.632C136.421 15.76 136.773 15.9413 137.083 16.176C137.392 16.4 137.632 16.6507 137.803 16.928C137.984 17.1947 138.075 17.4667 138.075 17.744L137.595 17.776V12.16H139.243V24H137.595V22H137.915C137.915 22.256 137.829 22.512 137.659 22.768C137.488 23.0133 137.259 23.2427 136.971 23.456C136.693 23.6693 136.368 23.84 135.995 23.968C135.632 24.096 135.259 24.16 134.875 24.16ZM135.099 22.736C135.6 22.736 136.043 22.608 136.427 22.352C136.811 22.096 137.109 21.7493 137.323 21.312C137.547 20.864 137.659 20.3573 137.659 19.792C137.659 19.2267 137.547 18.7253 137.323 18.288C137.109 17.84 136.811 17.488 136.427 17.232C136.043 16.976 135.6 16.848 135.099 16.848C134.597 16.848 134.155 16.976 133.771 17.232C133.387 17.488 133.083 17.84 132.859 18.288C132.645 18.7253 132.539 19.2267 132.539 19.792C132.539 20.3573 132.645 20.864 132.859 21.312C133.083 21.7493 133.387 22.096 133.771 22.352C134.155 22.608 134.597 22.736 135.099 22.736Z" fill="#313131"/>
<rect width="36" height="36" rx="6" fill="#EF5777"/>
<path d="M12 12H16.6667V15.6667H12V12Z" stroke="white" stroke-width="1.33333" stroke-linejoin="round"/>
<path d="M19.332 20.334H23.9987V24.0007H19.332V20.334Z" stroke="white" stroke-width="1.33333" stroke-linejoin="round"/>
<path d="M19.332 12H23.9987V17.6667H19.332V12Z" stroke="white" stroke-width="1.33333" stroke-linejoin="round"/>
<path d="M12 18.334H16.6667V24.0007H12V18.334Z" stroke="white" stroke-width="1.33333" stroke-linejoin="round"/>
<path d="M254.568 24V12.8H256.264L260.344 19.44L259.528 19.424L263.656 12.8H265.256V24H263.528V19.408C263.528 18.448 263.549 17.584 263.592 16.816C263.645 16.048 263.731 15.2853 263.848 14.528L264.072 15.12L260.408 20.784H259.352L255.8 15.184L255.976 14.528C256.093 15.2427 256.173 15.9787 256.216 16.736C256.269 17.4827 256.296 18.3733 256.296 19.408V24H254.568ZM271.9 24.16C271.036 24.16 270.268 23.9787 269.596 23.616C268.935 23.2427 268.412 22.736 268.028 22.096C267.655 21.456 267.468 20.72 267.468 19.888C267.468 19.2267 267.575 18.624 267.788 18.08C268.001 17.536 268.295 17.0667 268.668 16.672C269.052 16.2667 269.505 15.9573 270.028 15.744C270.561 15.52 271.137 15.408 271.756 15.408C272.3 15.408 272.807 15.5147 273.276 15.728C273.745 15.9307 274.151 16.2133 274.492 16.576C274.844 16.9387 275.111 17.3707 275.292 17.872C275.484 18.3627 275.575 18.9013 275.564 19.488L275.548 20.192H268.684L268.316 18.88H274.124L273.884 19.152V18.768C273.852 18.416 273.735 18.1013 273.532 17.824C273.329 17.5467 273.073 17.328 272.764 17.168C272.455 17.008 272.119 16.928 271.756 16.928C271.18 16.928 270.695 17.04 270.3 17.264C269.905 17.4773 269.607 17.7973 269.404 18.224C269.201 18.64 269.1 19.1573 269.1 19.776C269.1 20.3627 269.223 20.8747 269.468 21.312C269.713 21.7387 270.06 22.0693 270.508 22.304C270.956 22.5387 271.473 22.656 272.06 22.656C272.476 22.656 272.86 22.5867 273.212 22.448C273.575 22.3093 273.964 22.0587 274.38 21.696L275.212 22.864C274.956 23.12 274.641 23.344 274.268 23.536C273.905 23.728 273.516 23.8827 273.1 24C272.695 24.1067 272.295 24.16 271.9 24.16ZM280.859 24.16C280.091 24.16 279.403 23.9733 278.795 23.6C278.198 23.216 277.723 22.6987 277.371 22.048C277.019 21.3867 276.843 20.6347 276.843 19.792C276.843 18.9493 277.014 18.2027 277.355 17.552C277.707 16.8907 278.182 16.3733 278.779 16C279.376 15.616 280.054 15.424 280.811 15.424C281.227 15.424 281.627 15.4933 282.011 15.632C282.406 15.76 282.758 15.9413 283.067 16.176C283.376 16.4 283.616 16.6507 283.787 16.928C283.968 17.1947 284.059 17.4667 284.059 17.744L283.579 17.776V12.16H285.227V24H283.579V22H283.899C283.899 22.256 283.814 22.512 283.643 22.768C283.472 23.0133 283.243 23.2427 282.955 23.456C282.678 23.6693 282.352 23.84 281.979 23.968C281.616 24.096 281.243 24.16 280.859 24.16ZM281.083 22.736C281.584 22.736 282.027 22.608 282.411 22.352C282.795 22.096 283.094 21.7493 283.307 21.312C283.531 20.864 283.643 20.3573 283.643 19.792C283.643 19.2267 283.531 18.7253 283.307 18.288C283.094 17.84 282.795 17.488 282.411 17.232C282.027 16.976 281.584 16.848 281.083 16.848C280.582 16.848 280.139 16.976 279.755 17.232C279.371 17.488 279.067 17.84 278.843 18.288C278.63 18.7253 278.523 19.2267 278.523 19.792C278.523 20.3573 278.63 20.864 278.843 21.312C279.067 21.7493 279.371 22.096 279.755 22.352C280.139 22.608 280.582 22.736 281.083 22.736ZM287.768 24V15.6H289.416V24H287.768ZM288.568 13.744C288.216 13.744 287.944 13.6533 287.752 13.472C287.56 13.2907 287.464 13.0347 287.464 12.704C287.464 12.3947 287.56 12.144 287.752 11.952C287.954 11.76 288.226 11.664 288.568 11.664C288.92 11.664 289.192 11.7547 289.384 11.936C289.576 12.1173 289.672 12.3733 289.672 12.704C289.672 13.0133 289.57 13.264 289.368 13.456C289.176 13.648 288.909 13.744 288.568 13.744ZM296.925 24V18.528C296.925 18.0587 296.754 17.68 296.413 17.392C296.082 17.0933 295.661 16.944 295.149 16.944C294.68 16.944 294.253 17.04 293.869 17.232C293.496 17.424 293.154 17.7173 292.845 18.112L291.773 17.04C292.274 16.496 292.813 16.0907 293.389 15.824C293.976 15.5573 294.605 15.424 295.277 15.424C295.917 15.424 296.472 15.5307 296.941 15.744C297.41 15.9573 297.773 16.272 298.029 16.688C298.285 17.0933 298.413 17.5893 298.413 18.176V24H296.925ZM294.413 24.16C293.869 24.16 293.384 24.0533 292.957 23.84C292.53 23.6267 292.189 23.3333 291.933 22.96C291.688 22.576 291.565 22.128 291.565 21.616C291.565 21.168 291.645 20.7733 291.805 20.432C291.965 20.0907 292.2 19.808 292.509 19.584C292.829 19.36 293.224 19.1893 293.693 19.072C294.173 18.9547 294.722 18.896 295.341 18.896H297.677L297.533 20.208H295.133C294.813 20.208 294.525 20.24 294.269 20.304C294.024 20.3573 293.81 20.448 293.629 20.576C293.458 20.6933 293.33 20.8373 293.245 21.008C293.16 21.168 293.117 21.36 293.117 21.584C293.117 21.8187 293.176 22.0267 293.293 22.208C293.41 22.3787 293.57 22.512 293.773 22.608C293.976 22.704 294.21 22.752 294.477 22.752C294.861 22.752 295.224 22.688 295.565 22.56C295.917 22.4213 296.226 22.2347 296.493 22C296.77 21.7653 296.984 21.504 297.133 21.216L297.517 22.288C297.293 22.6613 297.016 22.9867 296.685 23.264C296.354 23.5413 295.997 23.76 295.613 23.92C295.229 24.08 294.829 24.16 294.413 24.16ZM305.396 24V12.8H307.124V24H305.396ZM306.164 19.232V17.568H311.94V19.232H306.164ZM306.164 14.464V12.8H312.66V14.464H306.164ZM314.877 24V15.6H316.525V24H314.877ZM315.677 13.744C315.325 13.744 315.053 13.6533 314.861 13.472C314.669 13.2907 314.573 13.0347 314.573 12.704C314.573 12.3947 314.669 12.144 314.861 11.952C315.064 11.76 315.336 11.664 315.677 11.664C316.029 11.664 316.301 11.7547 316.493 11.936C316.685 12.1173 316.781 12.3733 316.781 12.704C316.781 13.0133 316.68 13.264 316.477 13.456C316.285 13.648 316.018 13.744 315.677 13.744ZM319.09 24V12.16H320.738V24H319.09ZM326.838 24.16C325.974 24.16 325.206 23.9787 324.534 23.616C323.872 23.2427 323.35 22.736 322.966 22.096C322.592 21.456 322.406 20.72 322.406 19.888C322.406 19.2267 322.512 18.624 322.726 18.08C322.939 17.536 323.232 17.0667 323.606 16.672C323.99 16.2667 324.443 15.9573 324.966 15.744C325.499 15.52 326.075 15.408 326.694 15.408C327.238 15.408 327.744 15.5147 328.214 15.728C328.683 15.9307 329.088 16.2133 329.43 16.576C329.782 16.9387 330.048 17.3707 330.23 17.872C330.422 18.3627 330.512 18.9013 330.502 19.488L330.486 20.192H323.622L323.254 18.88H329.062L328.822 19.152V18.768C328.79 18.416 328.672 18.1013 328.47 17.824C328.267 17.5467 328.011 17.328 327.702 17.168C327.392 17.008 327.056 16.928 326.694 16.928C326.118 16.928 325.632 17.04 325.238 17.264C324.843 17.4773 324.544 17.7973 324.342 18.224C324.139 18.64 324.038 19.1573 324.038 19.776C324.038 20.3627 324.16 20.8747 324.406 21.312C324.651 21.7387 324.998 22.0693 325.446 22.304C325.894 22.5387 326.411 22.656 326.998 22.656C327.414 22.656 327.798 22.5867 328.15 22.448C328.512 22.3093 328.902 22.0587 329.318 21.696L330.15 22.864C329.894 23.12 329.579 23.344 329.206 23.536C328.843 23.728 328.454 23.8827 328.038 24C327.632 24.1067 327.232 24.16 326.838 24.16Z" fill="#313131"/>
<rect x="201" width="36" height="36" rx="6" fill="#5F27CD"/>
<path d="M224 12H214C213.735 12 213.48 12.1054 213.293 12.2929C213.105 12.4804 213 12.7348 213 13V23C213 23.2652 213.105 23.5196 213.293 23.7071C213.48 23.8946 213.735 24 214 24H224C224.265 24 224.52 23.8946 224.707 23.7071C224.895 23.5196 225 23.2652 225 23V13C225 12.7348 224.895 12.4804 224.707 12.2929C224.52 12.1054 224.265 12 224 12Z" stroke="white" stroke-width="1.33333" stroke-linecap="round" stroke-linejoin="round"/>
<path d="M217.832 19.3332V17.3125L219.582 18.3225L221.332 19.3332L219.582 20.3435L217.832 21.3538V19.3332Z" stroke="white" stroke-width="1.33333" stroke-linecap="round" stroke-linejoin="round"/>
<path d="M213 15H225" stroke="white" stroke-width="1.33333" stroke-linecap="round" stroke-linejoin="round"/>
<path d="M222 12L220 15" stroke="white" stroke-width="1.33333" stroke-linecap="round" stroke-linejoin="round"/>
<path d="M218 12L216 15" stroke="white" stroke-width="1.33333" stroke-linecap="round" stroke-linejoin="round"/>
<path d="M55.696 70V60.464H52.56V58.8H60.656V60.464H57.424V70H55.696ZM62.9819 73.68L64.6779 69.76L64.6939 71.072L60.5019 61.6H62.4219L65.0459 67.776C65.0992 67.8827 65.1632 68.048 65.2379 68.272C65.3125 68.4853 65.3765 68.6987 65.4299 68.912L65.0139 69.008C65.0992 68.784 65.1792 68.56 65.2539 68.336C65.3392 68.112 65.4192 67.888 65.4939 67.664L67.6859 61.6H69.6379L66.1819 70L64.7579 73.68H62.9819ZM70.8708 73.52V61.6H72.5348V63.52L72.2788 63.376C72.3428 63.056 72.5241 62.752 72.8228 62.464C73.1214 62.1653 73.4841 61.9253 73.9108 61.744C74.3481 61.552 74.7961 61.456 75.2548 61.456C76.0121 61.456 76.6841 61.6427 77.2708 62.016C77.8574 62.3893 78.3214 62.9013 78.6628 63.552C79.0041 64.2027 79.1748 64.9493 79.1748 65.792C79.1748 66.624 79.0041 67.3707 78.6628 68.032C78.3321 68.6827 77.8734 69.2 77.2868 69.584C76.7001 69.9573 76.0388 70.144 75.3028 70.144C74.8121 70.144 74.3374 70.048 73.8788 69.856C73.4201 69.6533 73.0308 69.3973 72.7108 69.088C72.3908 68.7787 72.1934 68.4587 72.1188 68.128L72.5348 67.904V73.52H70.8708ZM75.0308 68.624C75.5214 68.624 75.9588 68.5013 76.3428 68.256C76.7268 68.0107 77.0308 67.6747 77.2548 67.248C77.4788 66.8213 77.5908 66.336 77.5908 65.792C77.5908 65.248 77.4788 64.768 77.2548 64.352C77.0414 63.9253 76.7428 63.5893 76.3588 63.344C75.9748 63.0987 75.5321 62.976 75.0308 62.976C74.5294 62.976 74.0868 63.0987 73.7028 63.344C73.3188 63.5787 73.0148 63.9093 72.7908 64.336C72.5668 64.7627 72.4548 65.248 72.4548 65.792C72.4548 66.336 72.5668 66.8213 72.7908 67.248C73.0148 67.6747 73.3188 68.0107 73.7028 68.256C74.0868 68.5013 74.5294 68.624 75.0308 68.624ZM84.7405 70.16C83.9192 70.16 83.1832 69.9733 82.5325 69.6C81.8925 69.216 81.3858 68.6987 81.0125 68.048C80.6392 67.3867 80.4525 66.6347 80.4525 65.792C80.4525 64.9493 80.6392 64.2027 81.0125 63.552C81.3858 62.8907 81.8925 62.3733 82.5325 62C83.1832 61.616 83.9192 61.424 84.7405 61.424C85.5512 61.424 86.2765 61.616 86.9165 62C87.5672 62.3733 88.0792 62.8907 88.4525 63.552C88.8258 64.2027 89.0125 64.9493 89.0125 65.792C89.0125 66.6347 88.8258 67.3867 88.4525 68.048C88.0792 68.6987 87.5672 69.216 86.9165 69.6C86.2765 69.9733 85.5512 70.16 84.7405 70.16ZM84.7405 68.656C85.2418 68.656 85.6898 68.5333 86.0845 68.288C86.4792 68.032 86.7885 67.6907 87.0125 67.264C87.2365 66.8267 87.3432 66.336 87.3325 65.792C87.3432 65.2373 87.2365 64.7467 87.0125 64.32C86.7885 63.8827 86.4792 63.5413 86.0845 63.296C85.6898 63.0507 85.2418 62.928 84.7405 62.928C84.2392 62.928 83.7858 63.056 83.3805 63.312C82.9858 63.5573 82.6765 63.8987 82.4525 64.336C82.2285 64.7627 82.1218 65.248 82.1325 65.792C82.1218 66.336 82.2285 66.8267 82.4525 67.264C82.6765 67.6907 82.9858 68.032 83.3805 68.288C83.7858 68.5333 84.2392 68.656 84.7405 68.656ZM94.5683 73.68C93.9709 73.68 93.3736 73.584 92.7763 73.392C92.1896 73.2107 91.7149 72.9707 91.3523 72.672L91.9603 71.392C92.2803 71.6373 92.6749 71.8347 93.1443 71.984C93.6243 72.1333 94.0989 72.208 94.5683 72.208C95.1549 72.208 95.6456 72.112 96.0403 71.92C96.4349 71.728 96.7336 71.4453 96.9363 71.072C97.1389 70.6987 97.2403 70.2347 97.2403 69.68V68.064L97.4163 68.176C97.3629 68.5067 97.1869 68.8267 96.8883 69.136C96.6003 69.4347 96.2376 69.68 95.8003 69.872C95.3629 70.064 94.9149 70.16 94.4563 70.16C93.6563 70.16 92.9416 69.9733 92.3123 69.6C91.6936 69.216 91.2029 68.6987 90.8403 68.048C90.4776 67.3867 90.2963 66.6347 90.2963 65.792C90.2963 64.9493 90.4723 64.2027 90.8243 63.552C91.1869 62.8907 91.6776 62.3733 92.2963 62C92.9256 61.616 93.6296 61.424 94.4083 61.424C94.7283 61.424 95.0376 61.4667 95.3363 61.552C95.6349 61.6267 95.9123 61.7387 96.1683 61.888C96.4243 62.0267 96.6536 62.1813 96.8563 62.352C97.0589 62.5227 97.2243 62.704 97.3523 62.896C97.4803 63.088 97.5603 63.2693 97.5923 63.44L97.2403 63.568V61.6H98.8883V69.488C98.8883 70.16 98.7869 70.752 98.5843 71.264C98.3923 71.7867 98.1096 72.224 97.7362 72.576C97.3629 72.9387 96.9096 73.2107 96.3763 73.392C95.8429 73.584 95.2403 73.68 94.5683 73.68ZM94.6323 68.64C95.1549 68.64 95.6189 68.5173 96.0243 68.272C96.4296 68.0267 96.7443 67.6907 96.9683 67.264C97.1923 66.8373 97.3043 66.3467 97.3043 65.792C97.3043 65.2373 97.1869 64.7467 96.9523 64.32C96.7283 63.8827 96.4136 63.5413 96.0083 63.296C95.6136 63.0507 95.1549 62.928 94.6323 62.928C94.1203 62.928 93.6616 63.056 93.2563 63.312C92.8616 63.5573 92.5469 63.8987 92.3123 64.336C92.0883 64.7627 91.9763 65.248 91.9763 65.792C91.9763 66.336 92.0883 66.8267 92.3123 67.264C92.5469 67.6907 92.8616 68.0267 93.2563 68.272C93.6616 68.5173 94.1203 68.64 94.6323 68.64ZM101.199 70V61.6H102.863V64.24L102.703 63.6C102.82 63.1947 103.018 62.8267 103.295 62.496C103.583 62.1653 103.908 61.904 104.271 61.712C104.644 61.52 105.028 61.424 105.423 61.424C105.604 61.424 105.775 61.44 105.935 61.472C106.106 61.504 106.239 61.5413 106.335 61.584L105.903 63.376C105.775 63.3227 105.631 63.28 105.471 63.248C105.322 63.2053 105.172 63.184 105.023 63.184C104.735 63.184 104.458 63.2427 104.191 63.36C103.935 63.4667 103.706 63.6213 103.503 63.824C103.311 64.016 103.156 64.2453 103.039 64.512C102.922 64.768 102.863 65.0507 102.863 65.36V70H101.199ZM112.269 70V64.528C112.269 64.0587 112.098 63.68 111.757 63.392C111.426 63.0933 111.005 62.944 110.493 62.944C110.023 62.944 109.597 63.04 109.213 63.232C108.839 63.424 108.498 63.7173 108.189 64.112L107.117 63.04C107.618 62.496 108.157 62.0907 108.733 61.824C109.319 61.5573 109.949 61.424 110.621 61.424C111.261 61.424 111.815 61.5307 112.285 61.744C112.754 61.9573 113.117 62.272 113.373 62.688C113.629 63.0933 113.757 63.5893 113.757 64.176V70H112.269ZM109.757 70.16C109.213 70.16 108.727 70.0533 108.301 69.84C107.874 69.6267 107.533 69.3333 107.277 68.96C107.031 68.576 106.909 68.128 106.909 67.616C106.909 67.168 106.989 66.7733 107.149 66.432C107.309 66.0907 107.543 65.808 107.853 65.584C108.173 65.36 108.567 65.1893 109.037 65.072C109.517 64.9547 110.066 64.896 110.685 64.896H113.021L112.877 66.208H110.477C110.157 66.208 109.869 66.24 109.613 66.304C109.367 66.3573 109.154 66.448 108.973 66.576C108.802 66.6933 108.674 66.8373 108.589 67.008C108.503 67.168 108.461 67.36 108.461 67.584C108.461 67.8187 108.519 68.0267 108.637 68.208C108.754 68.3787 108.914 68.512 109.117 68.608C109.319 68.704 109.554 68.752 109.821 68.752C110.205 68.752 110.567 68.688 110.909 68.56C111.261 68.4213 111.57 68.2347 111.837 68C112.114 67.7653 112.327 67.504 112.477 67.216L112.861 68.288C112.637 68.6613 112.359 68.9867 112.029 69.264C111.698 69.5413 111.341 69.76 110.957 69.92C110.573 70.08 110.173 70.16 109.757 70.16ZM115.84 73.52V61.6H117.504V63.52L117.248 63.376C117.312 63.056 117.493 62.752 117.792 62.464C118.09 62.1653 118.453 61.9253 118.88 61.744C119.317 61.552 119.765 61.456 120.224 61.456C120.981 61.456 121.653 61.6427 122.24 62.016C122.826 62.3893 123.29 62.9013 123.632 63.552C123.973 64.2027 124.144 64.9493 124.144 65.792C124.144 66.624 123.973 67.3707 123.632 68.032C123.301 68.6827 122.842 69.2 122.256 69.584C121.669 69.9573 121.008 70.144 120.272 70.144C119.781 70.144 119.306 70.048 118.848 69.856C118.389 69.6533 118 69.3973 117.68 69.088C117.36 68.7787 117.162 68.4587 117.088 68.128L117.504 67.904V73.52H115.84ZM120 68.624C120.49 68.624 120.928 68.5013 121.312 68.256C121.696 68.0107 122 67.6747 122.224 67.248C122.448 66.8213 122.56 66.336 122.56 65.792C122.56 65.248 122.448 64.768 122.224 64.352C122.01 63.9253 121.712 63.5893 121.328 63.344C120.944 63.0987 120.501 62.976 120 62.976C119.498 62.976 119.056 63.0987 118.672 63.344C118.288 63.5787 117.984 63.9093 117.76 64.336C117.536 64.7627 117.424 65.248 117.424 65.792C117.424 66.336 117.536 66.8213 117.76 67.248C117.984 67.6747 118.288 68.0107 118.672 68.256C119.056 68.5013 119.498 68.624 120 68.624ZM125.933 70V58.16H127.581V63.328L127.293 63.52C127.4 63.1467 127.608 62.8053 127.917 62.496C128.227 62.176 128.595 61.92 129.021 61.728C129.448 61.5253 129.885 61.424 130.333 61.424C130.973 61.424 131.507 61.552 131.933 61.808C132.36 62.0533 132.68 62.432 132.893 62.944C133.107 63.456 133.213 64.1013 133.213 64.88V70H131.565V64.992C131.565 64.512 131.501 64.1173 131.373 63.808C131.245 63.488 131.048 63.2587 130.781 63.12C130.515 62.9707 130.184 62.9067 129.789 62.928C129.469 62.928 129.176 62.9813 128.909 63.088C128.643 63.184 128.408 63.3227 128.205 63.504C128.013 63.6853 127.859 63.8987 127.741 64.144C127.635 64.3787 127.581 64.6347 127.581 64.912V70H126.765C126.627 70 126.488 70 126.349 70C126.211 70 126.072 70 125.933 70ZM136.779 73.68L138.475 69.76L138.491 71.072L134.299 61.6H136.219L138.843 67.776C138.896 67.8827 138.96 68.048 139.035 68.272C139.109 68.4853 139.173 68.6987 139.227 68.912L138.811 69.008C138.896 68.784 138.976 68.56 139.051 68.336C139.136 68.112 139.216 67.888 139.291 67.664L141.483 61.6H143.435L139.979 70L138.555 73.68H136.779Z" fill="#313131"/>
<rect y="46" width="36" height="36" rx="6" fill="#FFD32A"/>
<path d="M11.332 58.666H20.6654" stroke="#313131" stroke-width="1.33333" stroke-linecap="round"/>
<path d="M19.332 63H24.6654" stroke="#313131" stroke-width="1.33333" stroke-linecap="round"/>
<path d="M16 69.9993V58.666" stroke="#313131" stroke-width="1.33333" stroke-linecap="round"/>
<path d="M22 70V63" stroke="#313131" stroke-width="1.33333" stroke-linecap="round"/>
<path d="M256.696 70V60.464H253.56V58.8H261.656V60.464H258.424V70H256.696ZM262.418 70V61.6H264.082V64.24L263.922 63.6C264.039 63.1947 264.236 62.8267 264.514 62.496C264.802 62.1653 265.127 61.904 265.49 61.712C265.863 61.52 266.247 61.424 266.642 61.424C266.823 61.424 266.994 61.44 267.154 61.472C267.324 61.504 267.458 61.5413 267.554 61.584L267.122 63.376C266.994 63.3227 266.85 63.28 266.69 63.248C266.54 63.2053 266.391 63.184 266.242 63.184C265.954 63.184 265.676 63.2427 265.41 63.36C265.154 63.4667 264.924 63.6213 264.722 63.824C264.53 64.016 264.375 64.2453 264.258 64.512C264.14 64.768 264.082 65.0507 264.082 65.36V70H262.418ZM272.431 70.16C271.567 70.16 270.799 69.9787 270.127 69.616C269.466 69.2427 268.943 68.736 268.559 68.096C268.186 67.456 267.999 66.72 267.999 65.888C267.999 65.2267 268.106 64.624 268.319 64.08C268.533 63.536 268.826 63.0667 269.199 62.672C269.583 62.2667 270.037 61.9573 270.559 61.744C271.093 61.52 271.669 61.408 272.287 61.408C272.831 61.408 273.338 61.5147 273.807 61.728C274.277 61.9307 274.682 62.2133 275.023 62.576C275.375 62.9387 275.642 63.3707 275.823 63.872C276.015 64.3627 276.106 64.9013 276.095 65.488L276.079 66.192H269.215L268.847 64.88H274.655L274.415 65.152V64.768C274.383 64.416 274.266 64.1013 274.063 63.824C273.861 63.5467 273.605 63.328 273.295 63.168C272.986 63.008 272.65 62.928 272.287 62.928C271.711 62.928 271.226 63.04 270.831 63.264C270.437 63.4773 270.138 63.7973 269.935 64.224C269.733 64.64 269.631 65.1573 269.631 65.776C269.631 66.3627 269.754 66.8747 269.999 67.312C270.245 67.7387 270.591 68.0693 271.039 68.304C271.487 68.5387 272.005 68.656 272.591 68.656C273.007 68.656 273.391 68.5867 273.743 68.448C274.106 68.3093 274.495 68.0587 274.911 67.696L275.743 68.864C275.487 69.12 275.173 69.344 274.799 69.536C274.437 69.728 274.047 69.8827 273.631 70C273.226 70.1067 272.826 70.16 272.431 70.16ZM281.806 70.16C280.942 70.16 280.174 69.9787 279.502 69.616C278.841 69.2427 278.318 68.736 277.934 68.096C277.561 67.456 277.374 66.72 277.374 65.888C277.374 65.2267 277.481 64.624 277.694 64.08C277.908 63.536 278.201 63.0667 278.574 62.672C278.958 62.2667 279.412 61.9573 279.934 61.744C280.468 61.52 281.044 61.408 281.662 61.408C282.206 61.408 282.713 61.5147 283.182 61.728C283.652 61.9307 284.057 62.2133 284.398 62.576C284.75 62.9387 285.017 63.3707 285.198 63.872C285.39 64.3627 285.481 64.9013 285.47 65.488L285.454 66.192H278.59L278.222 64.88H284.03L283.79 65.152V64.768C283.758 64.416 283.641 64.1013 283.438 63.824C283.236 63.5467 282.98 63.328 282.67 63.168C282.361 63.008 282.025 62.928 281.662 62.928C281.086 62.928 280.601 63.04 280.206 63.264C279.812 63.4773 279.513 63.7973 279.31 64.224C279.108 64.64 279.006 65.1573 279.006 65.776C279.006 66.3627 279.129 66.8747 279.374 67.312C279.62 67.7387 279.966 68.0693 280.414 68.304C280.862 68.5387 281.38 68.656 281.966 68.656C282.382 68.656 282.766 68.5867 283.118 68.448C283.481 68.3093 283.87 68.0587 284.286 67.696L285.118 68.864C284.862 69.12 284.548 69.344 284.174 69.536C283.812 69.728 283.422 69.8827 283.006 70C282.601 70.1067 282.201 70.16 281.806 70.16ZM295.618 70.16C294.7 70.16 293.89 69.9787 293.186 69.616C292.492 69.2533 291.895 68.7093 291.394 67.984L292.578 66.624C293.1 67.3707 293.602 67.888 294.082 68.176C294.562 68.464 295.132 68.608 295.794 68.608C296.199 68.608 296.567 68.544 296.898 68.416C297.228 68.288 297.49 68.112 297.682 67.888C297.874 67.664 297.97 67.408 297.97 67.12C297.97 66.928 297.938 66.7467 297.874 66.576C297.81 66.4053 297.708 66.2507 297.57 66.112C297.442 65.9733 297.271 65.8453 297.058 65.728C296.855 65.6107 296.615 65.5093 296.338 65.424C296.06 65.328 295.74 65.248 295.378 65.184C294.802 65.0667 294.3 64.912 293.874 64.72C293.447 64.528 293.09 64.288 292.802 64C292.514 63.712 292.3 63.3867 292.162 63.024C292.023 62.6507 291.954 62.2347 291.954 61.776C291.954 61.168 292.124 60.6293 292.466 60.16C292.807 59.6907 293.266 59.3227 293.842 59.056C294.428 58.7787 295.084 58.64 295.81 58.64C296.674 58.64 297.426 58.8107 298.066 59.152C298.716 59.4827 299.228 59.968 299.602 60.608L298.386 61.808C298.066 61.2853 297.682 60.8853 297.234 60.608C296.796 60.3307 296.306 60.192 295.762 60.192C295.346 60.192 294.983 60.256 294.674 60.384C294.364 60.512 294.119 60.6933 293.938 60.928C293.767 61.152 293.682 61.4187 293.682 61.728C293.682 61.952 293.724 62.16 293.81 62.352C293.895 62.5333 294.023 62.6987 294.194 62.848C294.375 62.9867 294.615 63.1147 294.914 63.232C295.212 63.3387 295.57 63.4347 295.986 63.52C296.572 63.648 297.095 63.8133 297.554 64.016C298.012 64.208 298.402 64.4373 298.722 64.704C299.042 64.9707 299.282 65.2693 299.442 65.6C299.612 65.9307 299.698 66.288 299.698 66.672C299.698 67.3867 299.532 68.0053 299.202 68.528C298.871 69.0507 298.402 69.456 297.794 69.744C297.186 70.0213 296.46 70.16 295.618 70.16ZM305.65 70.16C304.786 70.16 304.018 69.9787 303.346 69.616C302.685 69.2427 302.162 68.736 301.778 68.096C301.405 67.456 301.218 66.72 301.218 65.888C301.218 65.2267 301.325 64.624 301.538 64.08C301.751 63.536 302.045 63.0667 302.418 62.672C302.802 62.2667 303.255 61.9573 303.778 61.744C304.311 61.52 304.887 61.408 305.506 61.408C306.05 61.408 306.557 61.5147 307.026 61.728C307.495 61.9307 307.901 62.2133 308.242 62.576C308.594 62.9387 308.861 63.3707 309.042 63.872C309.234 64.3627 309.325 64.9013 309.314 65.488L309.298 66.192H302.434L302.066 64.88H307.874L307.634 65.152V64.768C307.602 64.416 307.485 64.1013 307.282 63.824C307.079 63.5467 306.823 63.328 306.514 63.168C306.205 63.008 305.869 62.928 305.506 62.928C304.93 62.928 304.445 63.04 304.05 63.264C303.655 63.4773 303.357 63.7973 303.154 64.224C302.951 64.64 302.85 65.1573 302.85 65.776C302.85 66.3627 302.973 66.8747 303.218 67.312C303.463 67.7387 303.81 68.0693 304.258 68.304C304.706 68.5387 305.223 68.656 305.81 68.656C306.226 68.656 306.61 68.5867 306.962 68.448C307.325 68.3093 307.714 68.0587 308.13 67.696L308.962 68.864C308.706 69.12 308.391 69.344 308.018 69.536C307.655 69.728 307.266 69.8827 306.85 70C306.445 70.1067 306.045 70.16 305.65 70.16ZM311.137 70V58.16H312.785V70H311.137ZM318.885 70.16C318.021 70.16 317.253 69.9787 316.581 69.616C315.919 69.2427 315.397 68.736 315.013 68.096C314.639 67.456 314.453 66.72 314.453 65.888C314.453 65.2267 314.559 64.624 314.773 64.08C314.986 63.536 315.279 63.0667 315.653 62.672C316.037 62.2667 316.49 61.9573 317.013 61.744C317.546 61.52 318.122 61.408 318.741 61.408C319.285 61.408 319.791 61.5147 320.261 61.728C320.73 61.9307 321.135 62.2133 321.477 62.576C321.829 62.9387 322.095 63.3707 322.277 63.872C322.469 64.3627 322.559 64.9013 322.549 65.488L322.533 66.192H315.669L315.301 64.88H321.109L320.869 65.152V64.768C320.837 64.416 320.719 64.1013 320.517 63.824C320.314 63.5467 320.058 63.328 319.749 63.168C319.439 63.008 319.103 62.928 318.741 62.928C318.165 62.928 317.679 63.04 317.285 63.264C316.89 63.4773 316.591 63.7973 316.389 64.224C316.186 64.64 316.085 65.1573 316.085 65.776C316.085 66.3627 316.207 66.8747 316.453 67.312C316.698 67.7387 317.045 68.0693 317.493 68.304C317.941 68.5387 318.458 68.656 319.045 68.656C319.461 68.656 319.845 68.5867 320.197 68.448C320.559 68.3093 320.949 68.0587 321.365 67.696L322.197 68.864C321.941 69.12 321.626 69.344 321.253 69.536C320.89 69.728 320.501 69.8827 320.085 70C319.679 70.1067 319.279 70.16 318.885 70.16ZM327.908 70.16C327.129 70.16 326.43 69.968 325.812 69.584C325.204 69.2 324.718 68.6773 324.356 68.016C324.004 67.3547 323.828 66.6133 323.828 65.792C323.828 64.9707 324.004 64.2293 324.356 63.568C324.718 62.9067 325.204 62.384 325.812 62C326.43 61.616 327.129 61.424 327.908 61.424C328.654 61.424 329.332 61.5787 329.94 61.888C330.558 62.1867 331.028 62.5973 331.348 63.12L330.436 64.24C330.265 63.9947 330.046 63.7707 329.78 63.568C329.513 63.3653 329.23 63.2053 328.932 63.088C328.633 62.9707 328.345 62.912 328.068 62.912C327.556 62.912 327.097 63.04 326.692 63.296C326.297 63.5413 325.982 63.8827 325.748 64.32C325.513 64.7573 325.396 65.248 325.396 65.792C325.396 66.336 325.518 66.8267 325.764 67.264C326.009 67.6907 326.334 68.032 326.74 68.288C327.145 68.544 327.593 68.672 328.084 68.672C328.372 68.672 328.649 68.624 328.916 68.528C329.193 68.432 329.46 68.288 329.716 68.096C329.972 67.904 330.212 67.6693 330.436 67.392L331.348 68.512C331.006 68.992 330.516 69.3867 329.876 69.696C329.246 70.0053 328.59 70.16 327.908 70.16ZM333.942 70V59.456H335.59V70H333.942ZM332.198 63.2V61.6H337.542V63.2H332.198Z" fill="#313131"/>
<rect x="201" y="46" width="36" height="36" rx="6" fill="#60A3BC"/>
<path d="M214.333 65.3327C215.07 65.3327 215.667 64.7357 215.667 63.9993C215.667 63.263 215.07 62.666 214.333 62.666C213.597 62.666 213 63.263 213 63.9993C213 64.7357 213.597 65.3327 214.333 65.3327Z" stroke="white" stroke-width="1.33333"/>
<path d="M223.665 60.6667C224.402 60.6667 224.999 60.0697 224.999 59.3333C224.999 58.597 224.402 58 223.665 58C222.929 58 222.332 58.597 222.332 59.3333C222.332 60.0697 222.929 60.6667 223.665 60.6667Z" stroke="white" stroke-width="1.33333"/>
<path d="M223.665 65.3327C224.402 65.3327 224.999 64.7357 224.999 63.9993C224.999 63.263 224.402 62.666 223.665 62.666C222.929 62.666 222.332 63.263 222.332 63.9993C222.332 64.7357 222.929 65.3327 223.665 65.3327Z" stroke="white" stroke-width="1.33333"/>
<path d="M223.665 70.0007C224.402 70.0007 224.999 69.4037 224.999 68.6673C224.999 67.9309 224.402 67.334 223.665 67.334C222.929 67.334 222.332 67.9309 222.332 68.6673C222.332 69.4037 222.929 70.0007 223.665 70.0007Z" stroke="white" stroke-width="1.33333"/>
<path d="M222.332 68.6673H218.332V59.334H222.332" stroke="white" stroke-width="1.33333" stroke-linecap="round" stroke-linejoin="round"/>
<path d="M215.668 64H222.335" stroke="white" stroke-width="1.33333" stroke-linecap="round" stroke-linejoin="round"/>
<path d="M56.912 119.68C56.3147 119.68 55.7173 119.584 55.12 119.392C54.5333 119.211 54.0587 118.971 53.696 118.672L54.304 117.392C54.624 117.637 55.0187 117.835 55.488 117.984C55.968 118.133 56.4427 118.208 56.912 118.208C57.4987 118.208 57.9893 118.112 58.384 117.92C58.7787 117.728 59.0773 117.445 59.28 117.072C59.4827 116.699 59.584 116.235 59.584 115.68V114.064L59.76 114.176C59.7067 114.507 59.5307 114.827 59.232 115.136C58.944 115.435 58.5813 115.68 58.144 115.872C57.7067 116.064 57.2587 116.16 56.8 116.16C56 116.16 55.2853 115.973 54.656 115.6C54.0373 115.216 53.5467 114.699 53.184 114.048C52.8213 113.387 52.64 112.635 52.64 111.792C52.64 110.949 52.816 110.203 53.168 109.552C53.5307 108.891 54.0213 108.373 54.64 108C55.2693 107.616 55.9733 107.424 56.752 107.424C57.072 107.424 57.3813 107.467 57.68 107.552C57.9787 107.627 58.256 107.739 58.512 107.888C58.768 108.027 58.9973 108.181 59.2 108.352C59.4027 108.523 59.568 108.704 59.696 108.896C59.824 109.088 59.904 109.269 59.936 109.44L59.584 109.568V107.6H61.232V115.488C61.232 116.16 61.1307 116.752 60.928 117.264C60.736 117.787 60.4533 118.224 60.08 118.576C59.7067 118.939 59.2533 119.211 58.72 119.392C58.1867 119.584 57.584 119.68 56.912 119.68ZM56.976 114.64C57.4987 114.64 57.9627 114.517 58.368 114.272C58.7733 114.027 59.088 113.691 59.312 113.264C59.536 112.837 59.648 112.347 59.648 111.792C59.648 111.237 59.5307 110.747 59.296 110.32C59.072 109.883 58.7573 109.541 58.352 109.296C57.9573 109.051 57.4987 108.928 56.976 108.928C56.464 108.928 56.0053 109.056 55.6 109.312C55.2053 109.557 54.8907 109.899 54.656 110.336C54.432 110.763 54.32 111.248 54.32 111.792C54.32 112.336 54.432 112.827 54.656 113.264C54.8907 113.691 55.2053 114.027 55.6 114.272C56.0053 114.517 56.464 114.64 56.976 114.64ZM63.8146 116V107.6H65.4626V116H63.8146ZM64.6146 105.744C64.2626 105.744 63.9906 105.653 63.7986 105.472C63.6066 105.291 63.5106 105.035 63.5106 104.704C63.5106 104.395 63.6066 104.144 63.7986 103.952C64.0013 103.76 64.2733 103.664 64.6146 103.664C64.9666 103.664 65.2386 103.755 65.4306 103.936C65.6226 104.117 65.7186 104.373 65.7186 104.704C65.7186 105.013 65.6173 105.264 65.4146 105.456C65.2226 105.648 64.956 105.744 64.6146 105.744ZM69.0358 116V105.456H70.6838V116H69.0358ZM67.2918 109.2V107.6H72.6358V109.2H67.2918ZM74.1364 116V104.16H75.7844V109.328L75.4964 109.52C75.603 109.147 75.811 108.805 76.1204 108.496C76.4297 108.176 76.7977 107.92 77.2244 107.728C77.651 107.525 78.0884 107.424 78.5364 107.424C79.1764 107.424 79.7097 107.552 80.1364 107.808C80.563 108.053 80.883 108.432 81.0964 108.944C81.3097 109.456 81.4164 110.101 81.4164 110.88V116H79.7684V110.992C79.7684 110.512 79.7044 110.117 79.5764 109.808C79.4484 109.488 79.251 109.259 78.9844 109.12C78.7177 108.971 78.387 108.907 77.9924 108.928C77.6724 108.928 77.379 108.981 77.1124 109.088C76.8457 109.184 76.611 109.323 76.4084 109.504C76.2164 109.685 76.0617 109.899 75.9444 110.144C75.8377 110.379 75.7844 110.635 75.7844 110.912V116H74.9684C74.8297 116 74.691 116 74.5524 116C74.4137 116 74.275 116 74.1364 116ZM86.596 116.16C85.9987 116.16 85.476 116.021 85.028 115.744C84.5907 115.467 84.2493 115.077 84.004 114.576C83.7693 114.075 83.652 113.477 83.652 112.784V107.6H85.3V112.336C85.3 113.072 85.4707 113.653 85.812 114.08C86.164 114.507 86.6493 114.72 87.268 114.72C87.5773 114.72 87.86 114.672 88.116 114.576C88.372 114.469 88.5907 114.325 88.772 114.144C88.964 113.963 89.1133 113.744 89.22 113.488C89.3267 113.232 89.38 112.955 89.38 112.656V107.6H91.028V116H89.38V114.24L89.668 114.048C89.54 114.443 89.3213 114.8 89.012 115.12C88.7133 115.44 88.356 115.696 87.94 115.888C87.524 116.069 87.076 116.16 86.596 116.16ZM97.7555 116.16C97.3928 116.16 97.0302 116.101 96.6675 115.984C96.3155 115.867 95.9902 115.712 95.6915 115.52C95.4035 115.317 95.1582 115.099 94.9555 114.864C94.7635 114.619 94.6355 114.373 94.5715 114.128L94.9875 113.904V115.952H93.3395V104.16H94.9875V109.52L94.7315 109.376C94.7848 109.131 94.9022 108.896 95.0835 108.672C95.2648 108.437 95.4942 108.229 95.7715 108.048C96.0595 107.856 96.3688 107.707 96.6995 107.6C97.0302 107.483 97.3662 107.424 97.7075 107.424C98.4648 107.424 99.1368 107.611 99.7235 107.984C100.31 108.357 100.774 108.875 101.116 109.536C101.457 110.187 101.628 110.933 101.628 111.776C101.628 112.619 101.457 113.371 101.116 114.032C100.785 114.693 100.326 115.216 99.7395 115.6C99.1528 115.973 98.4915 116.16 97.7555 116.16ZM97.4835 114.656C97.9742 114.656 98.4115 114.533 98.7955 114.288C99.1795 114.032 99.4835 113.691 99.7075 113.264C99.9315 112.827 100.044 112.331 100.044 111.776C100.044 111.232 99.9315 110.747 99.7075 110.32C99.4942 109.883 99.1955 109.541 98.8115 109.296C98.4275 109.051 97.9848 108.928 97.4835 108.928C96.9822 108.928 96.5395 109.051 96.1555 109.296C95.7715 109.541 95.4675 109.883 95.2435 110.32C95.0195 110.747 94.9075 111.232 94.9075 111.776C94.9075 112.331 95.0195 112.827 95.2435 113.264C95.4675 113.691 95.7715 114.032 96.1555 114.288C96.5395 114.533 96.9822 114.656 97.4835 114.656Z" fill="#313131"/>
<rect y="92" width="36" height="36" rx="6" fill="#0C2461"/>
<path d="M19.7826 112.159C20.584 111.992 21.311 111.704 21.876 111.28C22.8413 110.556 23.3346 109.438 23.3346 108.333C23.3346 107.558 23.041 106.835 22.5323 106.222C22.249 105.881 23.0776 103.333 22.3413 103.676C21.6046 104.02 20.5246 104.779 19.959 104.611C19.3231 104.425 18.6638 104.331 18.0013 104.333C17.4013 104.333 16.824 104.408 16.2856 104.545C15.503 104.744 14.7543 104 14.0013 103.676C13.248 103.353 13.6593 105.988 13.4356 106.265C12.948 106.868 12.668 107.576 12.668 108.333C12.668 109.438 13.2646 110.556 14.23 111.28C14.8733 111.762 15.6793 112.069 16.5813 112.221" stroke="white" stroke-width="1.33333" stroke-linecap="round"/>
<path d="M16.5793 112.221C16.1933 112.646 16 113.049 16 113.432V116.337" stroke="white" stroke-width="1.33333" stroke-linecap="round"/>
<path d="M19.7812 112.158C20.1473 112.638 20.3302 113.07 20.3302 113.452V116.336" stroke="white" stroke-width="1.33333" stroke-linecap="round"/>
<path d="M12 112.404C12.2997 112.441 12.522 112.579 12.6667 112.818C12.884 113.176 13.6913 114.505 14.6083 114.505H16.0007" stroke="white" stroke-width="1.33333" stroke-linecap="round"/>
<path d="M254.568 116V104.8H259.128C259.736 104.8 260.285 104.955 260.776 105.264C261.277 105.563 261.677 105.973 261.976 106.496C262.275 107.019 262.424 107.6 262.424 108.24C262.424 108.88 262.275 109.461 261.976 109.984C261.677 110.507 261.277 110.928 260.776 111.248C260.285 111.557 259.736 111.712 259.128 111.712H256.296V116H254.568ZM256.296 110.048H259.096C259.384 110.048 259.645 109.968 259.88 109.808C260.115 109.637 260.301 109.419 260.44 109.152C260.589 108.875 260.664 108.571 260.664 108.24C260.664 107.909 260.589 107.611 260.44 107.344C260.301 107.077 260.115 106.864 259.88 106.704C259.645 106.544 259.384 106.464 259.096 106.464H256.296V110.048ZM264.565 116V107.6H266.213V116H264.565ZM265.365 105.744C265.013 105.744 264.741 105.653 264.549 105.472C264.357 105.291 264.261 105.035 264.261 104.704C264.261 104.395 264.357 104.144 264.549 103.952C264.751 103.76 265.023 103.664 265.365 103.664C265.717 103.664 265.989 103.755 266.181 103.936C266.373 104.117 266.469 104.373 266.469 104.704C266.469 105.013 266.367 105.264 266.165 105.456C265.973 105.648 265.706 105.744 265.365 105.744ZM272.314 116.16C271.535 116.16 270.836 115.968 270.218 115.584C269.61 115.2 269.124 114.677 268.762 114.016C268.41 113.355 268.234 112.613 268.234 111.792C268.234 110.971 268.41 110.229 268.762 109.568C269.124 108.907 269.61 108.384 270.218 108C270.836 107.616 271.535 107.424 272.314 107.424C273.06 107.424 273.738 107.579 274.346 107.888C274.964 108.187 275.434 108.597 275.754 109.12L274.842 110.24C274.671 109.995 274.452 109.771 274.186 109.568C273.919 109.365 273.636 109.205 273.338 109.088C273.039 108.971 272.751 108.912 272.474 108.912C271.962 108.912 271.503 109.04 271.098 109.296C270.703 109.541 270.388 109.883 270.154 110.32C269.919 110.757 269.802 111.248 269.802 111.792C269.802 112.336 269.924 112.827 270.17 113.264C270.415 113.691 270.74 114.032 271.146 114.288C271.551 114.544 271.999 114.672 272.49 114.672C272.778 114.672 273.055 114.624 273.322 114.528C273.599 114.432 273.866 114.288 274.122 114.096C274.378 113.904 274.618 113.669 274.842 113.392L275.754 114.512C275.412 114.992 274.922 115.387 274.282 115.696C273.652 116.005 272.996 116.16 272.314 116.16ZM278.348 116V105.456H279.996V116H278.348ZM276.604 109.2V107.6H281.948V109.2H276.604ZM286.393 116.16C285.796 116.16 285.273 116.021 284.825 115.744C284.388 115.467 284.046 115.077 283.801 114.576C283.566 114.075 283.449 113.477 283.449 112.784V107.6H285.097V112.336C285.097 113.072 285.268 113.653 285.609 114.08C285.961 114.507 286.446 114.72 287.065 114.72C287.374 114.72 287.657 114.672 287.913 114.576C288.169 114.469 288.388 114.325 288.569 114.144C288.761 113.963 288.91 113.744 289.017 113.488C289.124 113.232 289.177 112.955 289.177 112.656V107.6H290.825V116H289.177V114.24L289.465 114.048C289.337 114.443 289.118 114.8 288.809 115.12C288.51 115.44 288.153 115.696 287.737 115.888C287.321 116.069 286.873 116.16 286.393 116.16ZM293.136 116V107.6H294.8V110.24L294.64 109.6C294.758 109.195 294.955 108.827 295.232 108.496C295.52 108.165 295.846 107.904 296.208 107.712C296.582 107.52 296.966 107.424 297.36 107.424C297.542 107.424 297.712 107.44 297.872 107.472C298.043 107.504 298.176 107.541 298.272 107.584L297.84 109.376C297.712 109.323 297.568 109.28 297.408 109.248C297.259 109.205 297.11 109.184 296.96 109.184C296.672 109.184 296.395 109.243 296.128 109.36C295.872 109.467 295.643 109.621 295.44 109.824C295.248 110.016 295.094 110.245 294.976 110.512C294.859 110.768 294.8 111.051 294.8 111.36V116H293.136ZM303.15 116.16C302.286 116.16 301.518 115.979 300.846 115.616C300.185 115.243 299.662 114.736 299.278 114.096C298.905 113.456 298.718 112.72 298.718 111.888C298.718 111.227 298.825 110.624 299.038 110.08C299.251 109.536 299.545 109.067 299.918 108.672C300.302 108.267 300.755 107.957 301.278 107.744C301.811 107.52 302.387 107.408 303.006 107.408C303.55 107.408 304.057 107.515 304.526 107.728C304.995 107.931 305.401 108.213 305.742 108.576C306.094 108.939 306.361 109.371 306.542 109.872C306.734 110.363 306.825 110.901 306.814 111.488L306.798 112.192H299.934L299.566 110.88H305.374L305.134 111.152V110.768C305.102 110.416 304.985 110.101 304.782 109.824C304.579 109.547 304.323 109.328 304.014 109.168C303.705 109.008 303.369 108.928 303.006 108.928C302.43 108.928 301.945 109.04 301.55 109.264C301.155 109.477 300.857 109.797 300.654 110.224C300.451 110.64 300.35 111.157 300.35 111.776C300.35 112.363 300.473 112.875 300.718 113.312C300.963 113.739 301.31 114.069 301.758 114.304C302.206 114.539 302.723 114.656 303.31 114.656C303.726 114.656 304.11 114.587 304.462 114.448C304.825 114.309 305.214 114.059 305.63 113.696L306.462 114.864C306.206 115.12 305.891 115.344 305.518 115.536C305.155 115.728 304.766 115.883 304.35 116C303.945 116.107 303.545 116.16 303.15 116.16ZM318.05 116.16C317.271 116.16 316.556 116.021 315.906 115.744C315.255 115.467 314.69 115.072 314.21 114.56C313.73 114.037 313.356 113.424 313.09 112.72C312.834 112.016 312.706 111.243 312.706 110.4C312.706 109.6 312.844 108.859 313.122 108.176C313.41 107.483 313.804 106.875 314.306 106.352C314.807 105.829 315.388 105.424 316.049 105.136C316.711 104.848 317.426 104.704 318.194 104.704C318.738 104.704 319.266 104.789 319.778 104.96C320.3 105.12 320.77 105.349 321.186 105.648C321.612 105.936 321.959 106.267 322.226 106.64L321.074 107.84C320.615 107.371 320.146 107.019 319.666 106.784C319.186 106.549 318.695 106.432 318.194 106.432C317.671 106.432 317.18 106.533 316.722 106.736C316.274 106.928 315.879 107.2 315.538 107.552C315.207 107.904 314.946 108.325 314.754 108.816C314.562 109.296 314.466 109.824 314.466 110.4C314.466 111.008 314.556 111.563 314.738 112.064C314.93 112.555 315.196 112.976 315.538 113.328C315.879 113.68 316.284 113.952 316.754 114.144C317.234 114.325 317.762 114.416 318.338 114.416C318.69 114.416 319.036 114.368 319.378 114.272C319.719 114.176 320.039 114.037 320.338 113.856C320.636 113.675 320.908 113.461 321.154 113.216L322.018 114.624C321.772 114.912 321.436 115.173 321.01 115.408C320.594 115.643 320.124 115.829 319.602 115.968C319.09 116.096 318.572 116.16 318.05 116.16ZM323.949 116V104.16H325.597V109.328L325.309 109.52C325.416 109.147 325.624 108.805 325.933 108.496C326.242 108.176 326.61 107.92 327.037 107.728C327.464 107.525 327.901 107.424 328.349 107.424C328.989 107.424 329.522 107.552 329.949 107.808C330.376 108.053 330.696 108.432 330.909 108.944C331.122 109.456 331.229 110.101 331.229 110.88V116H329.581V110.992C329.581 110.512 329.517 110.117 329.389 109.808C329.261 109.488 329.064 109.259 328.797 109.12C328.53 108.971 328.2 108.907 327.805 108.928C327.485 108.928 327.192 108.981 326.925 109.088C326.658 109.184 326.424 109.323 326.221 109.504C326.029 109.685 325.874 109.899 325.757 110.144C325.65 110.379 325.597 110.635 325.597 110.912V116H324.781C324.642 116 324.504 116 324.365 116C324.226 116 324.088 116 323.949 116ZM337.241 116.16C336.419 116.16 335.683 115.973 335.033 115.6C334.393 115.216 333.886 114.699 333.513 114.048C333.139 113.387 332.953 112.635 332.953 111.792C332.953 110.949 333.139 110.203 333.513 109.552C333.886 108.891 334.393 108.373 335.033 108C335.683 107.616 336.419 107.424 337.241 107.424C338.051 107.424 338.777 107.616 339.417 108C340.067 108.373 340.579 108.891 340.953 109.552C341.326 110.203 341.513 110.949 341.513 111.792C341.513 112.635 341.326 113.387 340.953 114.048C340.579 114.699 340.067 115.216 339.417 115.6C338.777 115.973 338.051 116.16 337.241 116.16ZM337.241 114.656C337.742 114.656 338.19 114.533 338.585 114.288C338.979 114.032 339.289 113.691 339.513 113.264C339.737 112.827 339.843 112.336 339.833 111.792C339.843 111.237 339.737 110.747 339.513 110.32C339.289 109.883 338.979 109.541 338.585 109.296C338.19 109.051 337.742 108.928 337.241 108.928C336.739 108.928 336.286 109.056 335.881 109.312C335.486 109.557 335.177 109.899 334.953 110.336C334.729 110.763 334.622 111.248 334.633 111.792C334.622 112.336 334.729 112.827 334.953 113.264C335.177 113.691 335.486 114.032 335.881 114.288C336.286 114.533 336.739 114.656 337.241 114.656ZM343.58 116V107.6H345.228V116H343.58ZM344.38 105.744C344.028 105.744 343.756 105.653 343.564 105.472C343.372 105.291 343.276 105.035 343.276 104.704C343.276 104.395 343.372 104.144 343.564 103.952C343.767 103.76 344.039 103.664 344.38 103.664C344.732 103.664 345.004 103.755 345.196 103.936C345.388 104.117 345.484 104.373 345.484 104.704C345.484 105.013 345.383 105.264 345.18 105.456C344.988 105.648 344.722 105.744 344.38 105.744ZM351.329 116.16C350.551 116.16 349.852 115.968 349.233 115.584C348.625 115.2 348.14 114.677 347.777 114.016C347.425 113.355 347.249 112.613 347.249 111.792C347.249 110.971 347.425 110.229 347.777 109.568C348.14 108.907 348.625 108.384 349.233 108C349.852 107.616 350.551 107.424 351.329 107.424C352.076 107.424 352.753 107.579 353.361 107.888C353.98 108.187 354.449 108.597 354.769 109.12L353.857 110.24C353.687 109.995 353.468 109.771 353.201 109.568C352.935 109.365 352.652 109.205 352.353 109.088C352.055 108.971 351.767 108.912 351.489 108.912C350.977 108.912 350.519 109.04 350.113 109.296C349.719 109.541 349.404 109.883 349.169 110.32C348.935 110.757 348.817 111.248 348.817 111.792C348.817 112.336 348.94 112.827 349.185 113.264C349.431 113.691 349.756 114.032 350.161 114.288C350.567 114.544 351.015 114.672 351.505 114.672C351.793 114.672 352.071 114.624 352.337 114.528C352.615 114.432 352.881 114.288 353.137 114.096C353.393 113.904 353.633 113.669 353.857 113.392L354.769 114.512C354.428 114.992 353.937 115.387 353.297 115.696C352.668 116.005 352.012 116.16 351.329 116.16ZM360.244 116.16C359.38 116.16 358.612 115.979 357.94 115.616C357.279 115.243 356.756 114.736 356.372 114.096C355.999 113.456 355.812 112.72 355.812 111.888C355.812 111.227 355.919 110.624 356.132 110.08C356.345 109.536 356.639 109.067 357.012 108.672C357.396 108.267 357.849 107.957 358.372 107.744C358.905 107.52 359.481 107.408 360.1 107.408C360.644 107.408 361.151 107.515 361.62 107.728C362.089 107.931 362.495 108.213 362.836 108.576C363.188 108.939 363.455 109.371 363.636 109.872C363.828 110.363 363.919 110.901 363.908 111.488L363.892 112.192H357.028L356.66 110.88H362.468L362.228 111.152V110.768C362.196 110.416 362.079 110.101 361.876 109.824C361.673 109.547 361.417 109.328 361.108 109.168C360.799 109.008 360.463 108.928 360.1 108.928C359.524 108.928 359.039 109.04 358.644 109.264C358.249 109.477 357.951 109.797 357.748 110.224C357.545 110.64 357.444 111.157 357.444 111.776C357.444 112.363 357.567 112.875 357.812 113.312C358.057 113.739 358.404 114.069 358.852 114.304C359.3 114.539 359.817 114.656 360.404 114.656C360.82 114.656 361.204 114.587 361.556 114.448C361.919 114.309 362.308 114.059 362.724 113.696L363.556 114.864C363.3 115.12 362.985 115.344 362.612 115.536C362.249 115.728 361.86 115.883 361.444 116C361.039 116.107 360.639 116.16 360.244 116.16Z" fill="#313131"/>
<rect x="201" y="92" width="36" height="36" rx="6" fill="#C44569"/>
<path d="M224 104H214C213.735 104 213.48 104.105 213.293 104.293C213.105 104.48 213 104.735 213 105V115C213 115.265 213.105 115.52 213.293 115.707C213.48 115.895 213.735 116 214 116H224C224.265 116 224.52 115.895 224.707 115.707C224.895 115.52 225 115.265 225 115V105C225 104.735 224.895 104.48 224.707 104.293C224.52 104.105 224.265 104 224 104Z" stroke="white" stroke-width="1.33333" stroke-linecap="round" stroke-linejoin="round"/>
<path d="M216.999 109.667C217.441 109.667 217.865 109.492 218.177 109.179C218.49 108.867 218.665 108.443 218.665 108.001C218.665 107.559 218.49 107.135 218.177 106.822C217.865 106.51 217.441 106.334 216.999 106.334C216.557 106.334 216.133 106.51 215.82 106.822C215.508 107.135 215.332 107.559 215.332 108.001C215.332 108.443 215.508 108.867 215.82 109.179C216.133 109.492 216.557 109.667 216.999 109.667V109.667Z" stroke="white" stroke-width="1.33333" stroke-linecap="round" stroke-linejoin="round"/>
<path d="M220.262 110.741C220.325 110.656 220.408 110.588 220.502 110.541C220.597 110.494 220.701 110.471 220.807 110.473C220.913 110.474 221.016 110.501 221.109 110.551C221.203 110.6 221.283 110.671 221.343 110.758L224.268 114.953C224.576 115.395 224.26 116.001 223.721 116.001H216.332L220.262 110.741V110.741Z" stroke="white" stroke-width="1.33333" stroke-linecap="round" stroke-linejoin="round"/>
<path d="M53.568 162V150.8H55.296V160.336H60.544V162H53.568ZM66.3376 162.16C65.4736 162.16 64.7056 161.979 64.0336 161.616C63.3723 161.243 62.8496 160.736 62.4656 160.096C62.0923 159.456 61.9056 158.72 61.9056 157.888C61.9056 157.227 62.0123 156.624 62.2256 156.08C62.439 155.536 62.7323 155.067 63.1056 154.672C63.4896 154.267 63.943 153.957 64.4656 153.744C64.999 153.52 65.575 153.408 66.1936 153.408C66.7376 153.408 67.2443 153.515 67.7136 153.728C68.183 153.931 68.5883 154.213 68.9296 154.576C69.2816 154.939 69.5483 155.371 69.7296 155.872C69.9216 156.363 70.0123 156.901 70.0016 157.488L69.9856 158.192H63.1216L62.7536 156.88H68.5616L68.3216 157.152V156.768C68.2896 156.416 68.1723 156.101 67.9696 155.824C67.767 155.547 67.511 155.328 67.2016 155.168C66.8923 155.008 66.5563 154.928 66.1936 154.928C65.6176 154.928 65.1323 155.04 64.7376 155.264C64.343 155.477 64.0443 155.797 63.8416 156.224C63.639 156.64 63.5376 157.157 63.5376 157.776C63.5376 158.363 63.6603 158.875 63.9056 159.312C64.151 159.739 64.4976 160.069 64.9456 160.304C65.3936 160.539 65.911 160.656 66.4976 160.656C66.9136 160.656 67.2976 160.587 67.6496 160.448C68.0123 160.309 68.4016 160.059 68.8176 159.696L69.6496 160.864C69.3936 161.12 69.079 161.344 68.7056 161.536C68.343 161.728 67.9536 161.883 67.5376 162C67.1323 162.107 66.7323 162.16 66.3376 162.16ZM75.4745 165.68C74.8772 165.68 74.2798 165.584 73.6825 165.392C73.0958 165.211 72.6212 164.971 72.2585 164.672L72.8665 163.392C73.1865 163.637 73.5812 163.835 74.0505 163.984C74.5305 164.133 75.0052 164.208 75.4745 164.208C76.0612 164.208 76.5518 164.112 76.9465 163.92C77.3412 163.728 77.6398 163.445 77.8425 163.072C78.0452 162.699 78.1465 162.235 78.1465 161.68V160.064L78.3225 160.176C78.2692 160.507 78.0932 160.827 77.7945 161.136C77.5065 161.435 77.1438 161.68 76.7065 161.872C76.2692 162.064 75.8212 162.16 75.3625 162.16C74.5625 162.16 73.8478 161.973 73.2185 161.6C72.5998 161.216 72.1092 160.699 71.7465 160.048C71.3838 159.387 71.2025 158.635 71.2025 157.792C71.2025 156.949 71.3785 156.203 71.7305 155.552C72.0932 154.891 72.5838 154.373 73.2025 154C73.8318 153.616 74.5358 153.424 75.3145 153.424C75.6345 153.424 75.9438 153.467 76.2425 153.552C76.5412 153.627 76.8185 153.739 77.0745 153.888C77.3305 154.027 77.5598 154.181 77.7625 154.352C77.9652 154.523 78.1305 154.704 78.2585 154.896C78.3865 155.088 78.4665 155.269 78.4985 155.44L78.1465 155.568V153.6H79.7945V161.488C79.7945 162.16 79.6932 162.752 79.4905 163.264C79.2985 163.787 79.0158 164.224 78.6425 164.576C78.2692 164.939 77.8158 165.211 77.2825 165.392C76.7492 165.584 76.1465 165.68 75.4745 165.68ZM75.5385 160.64C76.0612 160.64 76.5252 160.517 76.9305 160.272C77.3358 160.027 77.6505 159.691 77.8745 159.264C78.0985 158.837 78.2105 158.347 78.2105 157.792C78.2105 157.237 78.0932 156.747 77.8585 156.32C77.6345 155.883 77.3198 155.541 76.9145 155.296C76.5198 155.051 76.0612 154.928 75.5385 154.928C75.0265 154.928 74.5678 155.056 74.1625 155.312C73.7678 155.557 73.4532 155.899 73.2185 156.336C72.9945 156.763 72.8825 157.248 72.8825 157.792C72.8825 158.336 72.9945 158.827 73.2185 159.264C73.4532 159.691 73.7678 160.027 74.1625 160.272C74.5678 160.517 75.0265 160.64 75.5385 160.64ZM87.0811 162V156.528C87.0811 156.059 86.9105 155.68 86.5691 155.392C86.2385 155.093 85.8171 154.944 85.3051 154.944C84.8358 154.944 84.4091 155.04 84.0251 155.232C83.6518 155.424 83.3105 155.717 83.0011 156.112L81.9291 155.04C82.4305 154.496 82.9691 154.091 83.5451 153.824C84.1318 153.557 84.7611 153.424 85.4331 153.424C86.0731 153.424 86.6278 153.531 87.0971 153.744C87.5665 153.957 87.9291 154.272 88.1851 154.688C88.4411 155.093 88.5691 155.589 88.5691 156.176V162H87.0811ZM84.5691 162.16C84.0251 162.16 83.5398 162.053 83.1131 161.84C82.6865 161.627 82.3451 161.333 82.0891 160.96C81.8438 160.576 81.7211 160.128 81.7211 159.616C81.7211 159.168 81.8011 158.773 81.9611 158.432C82.1211 158.091 82.3558 157.808 82.6651 157.584C82.9851 157.36 83.3798 157.189 83.8491 157.072C84.3291 156.955 84.8785 156.896 85.4971 156.896H87.8331L87.6891 158.208H85.2891C84.9691 158.208 84.6811 158.24 84.4251 158.304C84.1798 158.357 83.9665 158.448 83.7851 158.576C83.6145 158.693 83.4865 158.837 83.4011 159.008C83.3158 159.168 83.2731 159.36 83.2731 159.584C83.2731 159.819 83.3318 160.027 83.4491 160.208C83.5665 160.379 83.7265 160.512 83.9291 160.608C84.1318 160.704 84.3665 160.752 84.6331 160.752C85.0171 160.752 85.3798 160.688 85.7211 160.56C86.0731 160.421 86.3825 160.235 86.6491 160C86.9265 159.765 87.1398 159.504 87.2891 159.216L87.6731 160.288C87.4491 160.661 87.1718 160.987 86.8411 161.264C86.5105 161.541 86.1531 161.76 85.7691 161.92C85.3851 162.08 84.9851 162.16 84.5691 162.16ZM90.684 162V150.16H92.332V162H90.684Z" fill="#313131"/>
<rect y="138" width="36" height="36" rx="6" fill="#FA983A"/>
<path d="M14.0013 162.667H15.3346M14.0013 150.001V149.334V150.001ZM14.0013 155.334V162.667V155.334ZM14.0013 162.667H12.668H14.0013Z" stroke="white" stroke-width="1.33333" stroke-linecap="round" stroke-linejoin="round"/>
<path d="M12.668 162.668H15.3346" stroke="white" stroke-width="1.33333" stroke-linecap="round" stroke-linejoin="round"/>
<path d="M14 150V155.333L23.3333 152.667L14 150Z" stroke="white" stroke-width="1.33333" stroke-linecap="round" stroke-linejoin="round"/>
<path d="M259.112 162.16C258.333 162.16 257.619 162.021 256.968 161.744C256.317 161.467 255.752 161.072 255.272 160.56C254.792 160.037 254.419 159.424 254.152 158.72C253.896 158.016 253.768 157.243 253.768 156.4C253.768 155.6 253.907 154.859 254.184 154.176C254.472 153.483 254.867 152.875 255.368 152.352C255.869 151.829 256.451 151.424 257.112 151.136C257.773 150.848 258.488 150.704 259.256 150.704C259.8 150.704 260.328 150.789 260.84 150.96C261.363 151.12 261.832 151.349 262.248 151.648C262.675 151.936 263.021 152.267 263.288 152.64L262.136 153.84C261.677 153.371 261.208 153.019 260.728 152.784C260.248 152.549 259.757 152.432 259.256 152.432C258.733 152.432 258.243 152.533 257.784 152.736C257.336 152.928 256.941 153.2 256.6 153.552C256.269 153.904 256.008 154.325 255.816 154.816C255.624 155.296 255.528 155.824 255.528 156.4C255.528 157.008 255.619 157.563 255.8 158.064C255.992 158.555 256.259 158.976 256.6 159.328C256.941 159.68 257.347 159.952 257.816 160.144C258.296 160.325 258.824 160.416 259.4 160.416C259.752 160.416 260.099 160.368 260.44 160.272C260.781 160.176 261.101 160.037 261.4 159.856C261.699 159.675 261.971 159.461 262.216 159.216L263.08 160.624C262.835 160.912 262.499 161.173 262.072 161.408C261.656 161.643 261.187 161.829 260.664 161.968C260.152 162.096 259.635 162.16 259.112 162.16ZM268.787 162.16C267.966 162.16 267.23 161.973 266.579 161.6C265.939 161.216 265.433 160.699 265.059 160.048C264.686 159.387 264.499 158.635 264.499 157.792C264.499 156.949 264.686 156.203 265.059 155.552C265.433 154.891 265.939 154.373 266.579 154C267.23 153.616 267.966 153.424 268.787 153.424C269.598 153.424 270.323 153.616 270.963 154C271.614 154.373 272.126 154.891 272.499 155.552C272.873 156.203 273.059 156.949 273.059 157.792C273.059 158.635 272.873 159.387 272.499 160.048C272.126 160.699 271.614 161.216 270.963 161.6C270.323 161.973 269.598 162.16 268.787 162.16ZM268.787 160.656C269.289 160.656 269.737 160.533 270.131 160.288C270.526 160.032 270.835 159.691 271.059 159.264C271.283 158.827 271.39 158.336 271.379 157.792C271.39 157.237 271.283 156.747 271.059 156.32C270.835 155.883 270.526 155.541 270.131 155.296C269.737 155.051 269.289 154.928 268.787 154.928C268.286 154.928 267.833 155.056 267.427 155.312C267.033 155.557 266.723 155.899 266.499 156.336C266.275 156.763 266.169 157.248 266.179 157.792C266.169 158.336 266.275 158.827 266.499 159.264C266.723 159.691 267.033 160.032 267.427 160.288C267.833 160.533 268.286 160.656 268.787 160.656ZM274.887 162V150.16H276.535V162H274.887ZM282.491 162.16C281.669 162.16 280.933 161.973 280.283 161.6C279.643 161.216 279.136 160.699 278.763 160.048C278.389 159.387 278.203 158.635 278.203 157.792C278.203 156.949 278.389 156.203 278.763 155.552C279.136 154.891 279.643 154.373 280.283 154C280.933 153.616 281.669 153.424 282.491 153.424C283.301 153.424 284.027 153.616 284.667 154C285.317 154.373 285.829 154.891 286.203 155.552C286.576 156.203 286.763 156.949 286.763 157.792C286.763 158.635 286.576 159.387 286.203 160.048C285.829 160.699 285.317 161.216 284.667 161.6C284.027 161.973 283.301 162.16 282.491 162.16ZM282.491 160.656C282.992 160.656 283.44 160.533 283.835 160.288C284.229 160.032 284.539 159.691 284.763 159.264C284.987 158.827 285.093 158.336 285.083 157.792C285.093 157.237 284.987 156.747 284.763 156.32C284.539 155.883 284.229 155.541 283.835 155.296C283.44 155.051 282.992 154.928 282.491 154.928C281.989 154.928 281.536 155.056 281.131 155.312C280.736 155.557 280.427 155.899 280.203 156.336C279.979 156.763 279.872 157.248 279.883 157.792C279.872 158.336 279.979 158.827 280.203 159.264C280.427 159.691 280.736 160.032 281.131 160.288C281.536 160.533 281.989 160.656 282.491 160.656ZM288.558 162V153.6H290.222V156.24L290.062 155.6C290.18 155.195 290.377 154.827 290.654 154.496C290.942 154.165 291.268 153.904 291.63 153.712C292.004 153.52 292.388 153.424 292.782 153.424C292.964 153.424 293.134 153.44 293.294 153.472C293.465 153.504 293.598 153.541 293.694 153.584L293.262 155.376C293.134 155.323 292.99 155.28 292.83 155.248C292.681 155.205 292.532 155.184 292.382 155.184C292.094 155.184 291.817 155.243 291.55 155.36C291.294 155.467 291.065 155.621 290.862 155.824C290.67 156.016 290.516 156.245 290.398 156.512C290.281 156.768 290.222 157.051 290.222 157.36V162H288.558ZM299.912 162V150.8H304.472C305.08 150.8 305.629 150.955 306.12 151.264C306.621 151.563 307.021 151.973 307.32 152.496C307.618 153.019 307.768 153.6 307.768 154.24C307.768 154.88 307.618 155.461 307.32 155.984C307.021 156.507 306.621 156.928 306.12 157.248C305.629 157.557 305.08 157.712 304.472 157.712H301.64V162H299.912ZM301.64 156.048H304.44C304.728 156.048 304.989 155.968 305.224 155.808C305.458 155.637 305.645 155.419 305.784 155.152C305.933 154.875 306.008 154.571 306.008 154.24C306.008 153.909 305.933 153.611 305.784 153.344C305.645 153.077 305.458 152.864 305.224 152.704C304.989 152.544 304.728 152.464 304.44 152.464H301.64V156.048ZM314.456 162V156.528C314.456 156.059 314.285 155.68 313.944 155.392C313.613 155.093 313.192 154.944 312.68 154.944C312.211 154.944 311.784 155.04 311.4 155.232C311.027 155.424 310.685 155.717 310.376 156.112L309.304 155.04C309.805 154.496 310.344 154.091 310.92 153.824C311.507 153.557 312.136 153.424 312.808 153.424C313.448 153.424 314.003 153.531 314.472 153.744C314.941 153.957 315.304 154.272 315.56 154.688C315.816 155.093 315.944 155.589 315.944 156.176V162H314.456ZM311.944 162.16C311.4 162.16 310.915 162.053 310.488 161.84C310.061 161.627 309.72 161.333 309.464 160.96C309.219 160.576 309.096 160.128 309.096 159.616C309.096 159.168 309.176 158.773 309.336 158.432C309.496 158.091 309.731 157.808 310.04 157.584C310.36 157.36 310.755 157.189 311.224 157.072C311.704 156.955 312.253 156.896 312.872 156.896H315.208L315.064 158.208H312.664C312.344 158.208 312.056 158.24 311.8 158.304C311.555 158.357 311.341 158.448 311.16 158.576C310.989 158.693 310.861 158.837 310.776 159.008C310.691 159.168 310.648 159.36 310.648 159.584C310.648 159.819 310.707 160.027 310.824 160.208C310.941 160.379 311.101 160.512 311.304 160.608C311.507 160.704 311.741 160.752 312.008 160.752C312.392 160.752 312.755 160.688 313.096 160.56C313.448 160.421 313.757 160.235 314.024 160C314.301 159.765 314.515 159.504 314.664 159.216L315.048 160.288C314.824 160.661 314.547 160.987 314.216 161.264C313.885 161.541 313.528 161.76 313.144 161.92C312.76 162.08 312.36 162.16 311.944 162.16ZM318.059 162V150.16H319.707V162H318.059ZM325.806 162.16C324.942 162.16 324.174 161.979 323.502 161.616C322.841 161.243 322.318 160.736 321.934 160.096C321.561 159.456 321.374 158.72 321.374 157.888C321.374 157.227 321.481 156.624 321.694 156.08C321.908 155.536 322.201 155.067 322.574 154.672C322.958 154.267 323.412 153.957 323.934 153.744C324.468 153.52 325.044 153.408 325.662 153.408C326.206 153.408 326.713 153.515 327.182 153.728C327.652 153.931 328.057 154.213 328.398 154.576C328.75 154.939 329.017 155.371 329.198 155.872C329.39 156.363 329.481 156.901 329.47 157.488L329.454 158.192H322.59L322.222 156.88H328.03L327.79 157.152V156.768C327.758 156.416 327.641 156.101 327.438 155.824C327.236 155.547 326.98 155.328 326.67 155.168C326.361 155.008 326.025 154.928 325.662 154.928C325.086 154.928 324.601 155.04 324.206 155.264C323.812 155.477 323.513 155.797 323.31 156.224C323.108 156.64 323.006 157.157 323.006 157.776C323.006 158.363 323.129 158.875 323.374 159.312C323.62 159.739 323.966 160.069 324.414 160.304C324.862 160.539 325.38 160.656 325.966 160.656C326.382 160.656 326.766 160.587 327.118 160.448C327.481 160.309 327.87 160.059 328.286 159.696L329.118 160.864C328.862 161.12 328.548 161.344 328.174 161.536C327.812 161.728 327.422 161.883 327.006 162C326.601 162.107 326.201 162.16 325.806 162.16ZM332.301 162V151.456H333.949V162H332.301ZM330.557 155.2V153.6H335.901V155.2H330.557ZM338.442 162V151.456H340.09V162H338.442ZM336.698 155.2V153.6H342.042V155.2H336.698ZM347.385 162.16C346.521 162.16 345.753 161.979 345.081 161.616C344.419 161.243 343.897 160.736 343.513 160.096C343.139 159.456 342.953 158.72 342.953 157.888C342.953 157.227 343.059 156.624 343.273 156.08C343.486 155.536 343.779 155.067 344.153 154.672C344.537 154.267 344.99 153.957 345.513 153.744C346.046 153.52 346.622 153.408 347.241 153.408C347.785 153.408 348.291 153.515 348.761 153.728C349.23 153.931 349.635 154.213 349.977 154.576C350.329 154.939 350.595 155.371 350.777 155.872C350.969 156.363 351.059 156.901 351.049 157.488L351.033 158.192H344.169L343.801 156.88H349.609L349.369 157.152V156.768C349.337 156.416 349.219 156.101 349.017 155.824C348.814 155.547 348.558 155.328 348.249 155.168C347.939 155.008 347.603 154.928 347.241 154.928C346.665 154.928 346.179 155.04 345.785 155.264C345.39 155.477 345.091 155.797 344.889 156.224C344.686 156.64 344.585 157.157 344.585 157.776C344.585 158.363 344.707 158.875 344.953 159.312C345.198 159.739 345.545 160.069 345.993 160.304C346.441 160.539 346.958 160.656 347.545 160.656C347.961 160.656 348.345 160.587 348.697 160.448C349.059 160.309 349.449 160.059 349.865 159.696L350.697 160.864C350.441 161.12 350.126 161.344 349.753 161.536C349.39 161.728 349.001 161.883 348.585 162C348.179 162.107 347.779 162.16 347.385 162.16Z" fill="#313131"/>
<rect x="201" y="138" width="36" height="36" rx="6" fill="#706FD3"/>
<path d="M218.999 162.667C220.985 162.667 219.777 159.713 220.999 158.334C222.041 157.157 225.665 157.696 225.665 156.001C225.665 152.319 222.681 149.334 218.999 149.334C215.317 149.334 212.332 152.319 212.332 156.001C212.332 159.683 215.317 162.667 218.999 162.667Z" stroke="white" stroke-width="1.33333" stroke-linejoin="round"/>
<path d="M220.332 153.668C220.463 153.668 220.593 153.642 220.715 153.592C220.836 153.542 220.946 153.468 221.039 153.375C221.132 153.282 221.206 153.172 221.256 153.051C221.306 152.929 221.332 152.799 221.332 152.668C221.332 152.537 221.306 152.407 221.256 152.285C221.206 152.164 221.132 152.054 221.039 151.961C220.946 151.868 220.836 151.794 220.715 151.744C220.593 151.694 220.463 151.668 220.332 151.668C220.067 151.668 219.812 151.773 219.625 151.961C219.437 152.148 219.332 152.403 219.332 152.668C219.332 152.933 219.437 153.188 219.625 153.375C219.812 153.563 220.067 153.668 220.332 153.668V153.668Z" stroke="white" stroke-width="1.33333" stroke-linejoin="round"/>
<path d="M216.332 155C216.597 155 216.852 154.895 217.039 154.707C217.227 154.52 217.332 154.265 217.332 154C217.332 153.735 217.227 153.48 217.039 153.293C216.852 153.105 216.597 153 216.332 153C216.067 153 215.812 153.105 215.625 153.293C215.437 153.48 215.332 153.735 215.332 154C215.332 154.265 215.437 154.52 215.625 154.707C215.812 154.895 216.067 155 216.332 155V155Z" stroke="white" stroke-width="1.33333" stroke-linejoin="round"/>
<path d="M216.664 159.334C216.929 159.334 217.184 159.229 217.371 159.041C217.559 158.854 217.664 158.599 217.664 158.334C217.664 158.069 217.559 157.814 217.371 157.627C217.184 157.439 216.929 157.334 216.664 157.334C216.399 157.334 216.144 157.439 215.957 157.627C215.769 157.814 215.664 158.069 215.664 158.334C215.664 158.599 215.769 158.854 215.957 159.041C216.144 159.229 216.399 159.334 216.664 159.334V159.334Z" stroke="white" stroke-width="1.33333" stroke-linejoin="round"/>
<path d="M57.024 208.16C56.1067 208.16 55.296 207.979 54.592 207.616C53.8987 207.253 53.3013 206.709 52.8 205.984L53.984 204.624C54.5067 205.371 55.008 205.888 55.488 206.176C55.968 206.464 56.5387 206.608 57.2 206.608C57.6053 206.608 57.9733 206.544 58.304 206.416C58.6347 206.288 58.896 206.112 59.088 205.888C59.28 205.664 59.376 205.408 59.376 205.12C59.376 204.928 59.344 204.747 59.28 204.576C59.216 204.405 59.1147 204.251 58.976 204.112C58.848 203.973 58.6773 203.845 58.464 203.728C58.2613 203.611 58.0213 203.509 57.744 203.424C57.4667 203.328 57.1467 203.248 56.784 203.184C56.208 203.067 55.7067 202.912 55.28 202.72C54.8533 202.528 54.496 202.288 54.208 202C53.92 201.712 53.7067 201.387 53.568 201.024C53.4293 200.651 53.36 200.235 53.36 199.776C53.36 199.168 53.5307 198.629 53.872 198.16C54.2133 197.691 54.672 197.323 55.248 197.056C55.8347 196.779 56.4907 196.64 57.216 196.64C58.08 196.64 58.832 196.811 59.472 197.152C60.1227 197.483 60.6347 197.968 61.008 198.608L59.792 199.808C59.472 199.285 59.088 198.885 58.64 198.608C58.2027 198.331 57.712 198.192 57.168 198.192C56.752 198.192 56.3893 198.256 56.08 198.384C55.7707 198.512 55.5253 198.693 55.344 198.928C55.1733 199.152 55.088 199.419 55.088 199.728C55.088 199.952 55.1307 200.16 55.216 200.352C55.3013 200.533 55.4293 200.699 55.6 200.848C55.7813 200.987 56.0213 201.115 56.32 201.232C56.6187 201.339 56.976 201.435 57.392 201.52C57.9787 201.648 58.5013 201.813 58.96 202.016C59.4187 202.208 59.808 202.437 60.128 202.704C60.448 202.971 60.688 203.269 60.848 203.6C61.0187 203.931 61.104 204.288 61.104 204.672C61.104 205.387 60.9387 206.005 60.608 206.528C60.2773 207.051 59.808 207.456 59.2 207.744C58.592 208.021 57.8667 208.16 57.024 208.16ZM63.4084 208V199.6H65.0564V208H63.4084ZM64.2084 197.744C63.8564 197.744 63.5844 197.653 63.3924 197.472C63.2004 197.291 63.1044 197.035 63.1044 196.704C63.1044 196.395 63.2004 196.144 63.3924 195.952C63.595 195.76 63.867 195.664 64.2084 195.664C64.5604 195.664 64.8324 195.755 65.0244 195.936C65.2164 196.117 65.3124 196.373 65.3124 196.704C65.3124 197.013 65.211 197.264 65.0084 197.456C64.8164 197.648 64.5497 197.744 64.2084 197.744ZM71.3495 211.68C70.7522 211.68 70.1548 211.584 69.5575 211.392C68.9708 211.211 68.4962 210.971 68.1335 210.672L68.7415 209.392C69.0615 209.637 69.4562 209.835 69.9255 209.984C70.4055 210.133 70.8802 210.208 71.3495 210.208C71.9362 210.208 72.4268 210.112 72.8215 209.92C73.2162 209.728 73.5148 209.445 73.7175 209.072C73.9202 208.699 74.0215 208.235 74.0215 207.68V206.064L74.1975 206.176C74.1442 206.507 73.9682 206.827 73.6695 207.136C73.3815 207.435 73.0188 207.68 72.5815 207.872C72.1442 208.064 71.6962 208.16 71.2375 208.16C70.4375 208.16 69.7228 207.973 69.0935 207.6C68.4748 207.216 67.9842 206.699 67.6215 206.048C67.2588 205.387 67.0775 204.635 67.0775 203.792C67.0775 202.949 67.2535 202.203 67.6055 201.552C67.9682 200.891 68.4588 200.373 69.0775 200C69.7068 199.616 70.4108 199.424 71.1895 199.424C71.5095 199.424 71.8188 199.467 72.1175 199.552C72.4162 199.627 72.6935 199.739 72.9495 199.888C73.2055 200.027 73.4348 200.181 73.6375 200.352C73.8402 200.523 74.0055 200.704 74.1335 200.896C74.2615 201.088 74.3415 201.269 74.3735 201.44L74.0215 201.568V199.6H75.6695V207.488C75.6695 208.16 75.5682 208.752 75.3655 209.264C75.1735 209.787 74.8908 210.224 74.5175 210.576C74.1442 210.939 73.6908 211.211 73.1575 211.392C72.6242 211.584 72.0215 211.68 71.3495 211.68ZM71.4135 206.64C71.9362 206.64 72.4002 206.517 72.8055 206.272C73.2108 206.027 73.5255 205.691 73.7495 205.264C73.9735 204.837 74.0855 204.347 74.0855 203.792C74.0855 203.237 73.9682 202.747 73.7335 202.32C73.5095 201.883 73.1948 201.541 72.7895 201.296C72.3948 201.051 71.9362 200.928 71.4135 200.928C70.9015 200.928 70.4428 201.056 70.0375 201.312C69.6428 201.557 69.3282 201.899 69.0935 202.336C68.8695 202.763 68.7575 203.248 68.7575 203.792C68.7575 204.336 68.8695 204.827 69.0935 205.264C69.3282 205.691 69.6428 206.027 70.0375 206.272C70.4428 206.517 70.9015 206.64 71.4135 206.64ZM77.9801 208V199.6H79.6281V201.328L79.3401 201.52C79.4468 201.147 79.6548 200.805 79.9641 200.496C80.2735 200.176 80.6415 199.92 81.0681 199.728C81.4948 199.525 81.9321 199.424 82.3801 199.424C83.0201 199.424 83.5535 199.552 83.9801 199.808C84.4068 200.053 84.7268 200.432 84.9401 200.944C85.1535 201.456 85.2601 202.101 85.2601 202.88V208H83.6121V202.992C83.6121 202.512 83.5481 202.117 83.4201 201.808C83.2921 201.488 83.0948 201.259 82.8281 201.12C82.5615 200.971 82.2308 200.907 81.8361 200.928C81.5161 200.928 81.2228 200.981 80.9561 201.088C80.6895 201.184 80.4548 201.323 80.2521 201.504C80.0601 201.685 79.9055 201.899 79.7881 202.144C79.6815 202.379 79.6281 202.635 79.6281 202.912V208H78.8121C78.6735 208 78.5348 208 78.3961 208C78.2575 208 78.1188 208 77.9801 208Z" fill="#313131"/>
<rect y="184" width="36" height="36" rx="6" fill="#F19066"/>
<path d="M24.145 198.013C22.5694 196.461 20.3867 195.5 17.975 195.5C15.5774 195.5 13.406 196.45 11.832 197.986" stroke="white" stroke-width="1.33333" stroke-linecap="round" stroke-linejoin="round"/>
<path d="M12.2227 203.824V203.805C12.2227 200.614 14.8093 198.027 18.0003 198.027" stroke="white" stroke-width="1.33333" stroke-linecap="round" stroke-linejoin="round"/>
<path d="M20.3906 198.543C22.389 199.452 23.7783 201.466 23.7783 203.805V203.81" stroke="white" stroke-width="1.33333" stroke-linecap="round" stroke-linejoin="round"/>
<path d="M14.75 206.334V203.807C14.75 202.012 16.205 200.557 18 200.557C19.795 200.557 21.25 202.012 21.25 203.807V206.334" stroke="white" stroke-width="1.33333" stroke-linecap="round" stroke-linejoin="round"/>
<path d="M15.8438 208.501C16.4981 208.339 16.9184 207.649 16.9184 207.066V204.167C16.9184 203.88 17.0326 203.604 17.2357 203.401C17.4389 203.198 17.7144 203.084 18.0018 203.084C18.2891 203.084 18.5646 203.198 18.7678 203.401C18.9709 203.604 19.0851 203.88 19.0851 204.167V207.066" stroke="white" stroke-width="1.33333" stroke-linecap="round" stroke-linejoin="round"/>
<path d="M258.024 208.16C257.107 208.16 256.296 207.979 255.592 207.616C254.899 207.253 254.301 206.709 253.8 205.984L254.984 204.624C255.507 205.371 256.008 205.888 256.488 206.176C256.968 206.464 257.539 206.608 258.2 206.608C258.605 206.608 258.973 206.544 259.304 206.416C259.635 206.288 259.896 206.112 260.088 205.888C260.28 205.664 260.376 205.408 260.376 205.12C260.376 204.928 260.344 204.747 260.28 204.576C260.216 204.405 260.115 204.251 259.976 204.112C259.848 203.973 259.677 203.845 259.464 203.728C259.261 203.611 259.021 203.509 258.744 203.424C258.467 203.328 258.147 203.248 257.784 203.184C257.208 203.067 256.707 202.912 256.28 202.72C255.853 202.528 255.496 202.288 255.208 202C254.92 201.712 254.707 201.387 254.568 201.024C254.429 200.651 254.36 200.235 254.36 199.776C254.36 199.168 254.531 198.629 254.872 198.16C255.213 197.691 255.672 197.323 256.248 197.056C256.835 196.779 257.491 196.64 258.216 196.64C259.08 196.64 259.832 196.811 260.472 197.152C261.123 197.483 261.635 197.968 262.008 198.608L260.792 199.808C260.472 199.285 260.088 198.885 259.64 198.608C259.203 198.331 258.712 198.192 258.168 198.192C257.752 198.192 257.389 198.256 257.08 198.384C256.771 198.512 256.525 198.693 256.344 198.928C256.173 199.152 256.088 199.419 256.088 199.728C256.088 199.952 256.131 200.16 256.216 200.352C256.301 200.533 256.429 200.699 256.6 200.848C256.781 200.987 257.021 201.115 257.32 201.232C257.619 201.339 257.976 201.435 258.392 201.52C258.979 201.648 259.501 201.813 259.96 202.016C260.419 202.208 260.808 202.437 261.128 202.704C261.448 202.971 261.688 203.269 261.848 203.6C262.019 203.931 262.104 204.288 262.104 204.672C262.104 205.387 261.939 206.005 261.608 206.528C261.277 207.051 260.808 207.456 260.2 207.744C259.592 208.021 258.867 208.16 258.024 208.16ZM267.704 208.16C266.926 208.16 266.227 207.968 265.608 207.584C265 207.2 264.515 206.677 264.152 206.016C263.8 205.355 263.624 204.613 263.624 203.792C263.624 202.971 263.8 202.229 264.152 201.568C264.515 200.907 265 200.384 265.608 200C266.227 199.616 266.926 199.424 267.704 199.424C268.451 199.424 269.128 199.579 269.736 199.888C270.355 200.187 270.824 200.597 271.144 201.12L270.232 202.24C270.062 201.995 269.843 201.771 269.576 201.568C269.31 201.365 269.027 201.205 268.728 201.088C268.43 200.971 268.142 200.912 267.864 200.912C267.352 200.912 266.894 201.04 266.488 201.296C266.094 201.541 265.779 201.883 265.544 202.32C265.31 202.757 265.192 203.248 265.192 203.792C265.192 204.336 265.315 204.827 265.56 205.264C265.806 205.691 266.131 206.032 266.536 206.288C266.942 206.544 267.39 206.672 267.88 206.672C268.168 206.672 268.446 206.624 268.712 206.528C268.99 206.432 269.256 206.288 269.512 206.096C269.768 205.904 270.008 205.669 270.232 205.392L271.144 206.512C270.803 206.992 270.312 207.387 269.672 207.696C269.043 208.005 268.387 208.16 267.704 208.16ZM277.675 208V202.528C277.675 202.059 277.504 201.68 277.163 201.392C276.832 201.093 276.411 200.944 275.899 200.944C275.43 200.944 275.003 201.04 274.619 201.232C274.246 201.424 273.904 201.717 273.595 202.112L272.523 201.04C273.024 200.496 273.563 200.091 274.139 199.824C274.726 199.557 275.355 199.424 276.027 199.424C276.667 199.424 277.222 199.531 277.691 199.744C278.16 199.957 278.523 200.272 278.779 200.688C279.035 201.093 279.163 201.589 279.163 202.176V208H277.675ZM275.163 208.16C274.619 208.16 274.134 208.053 273.707 207.84C273.28 207.627 272.939 207.333 272.683 206.96C272.438 206.576 272.315 206.128 272.315 205.616C272.315 205.168 272.395 204.773 272.555 204.432C272.715 204.091 272.95 203.808 273.259 203.584C273.579 203.36 273.974 203.189 274.443 203.072C274.923 202.955 275.472 202.896 276.091 202.896H278.427L278.283 204.208H275.883C275.563 204.208 275.275 204.24 275.019 204.304C274.774 204.357 274.56 204.448 274.379 204.576C274.208 204.693 274.08 204.837 273.995 205.008C273.91 205.168 273.867 205.36 273.867 205.584C273.867 205.819 273.926 206.027 274.043 206.208C274.16 206.379 274.32 206.512 274.523 206.608C274.726 206.704 274.96 206.752 275.227 206.752C275.611 206.752 275.974 206.688 276.315 206.56C276.667 206.421 276.976 206.235 277.243 206C277.52 205.765 277.734 205.504 277.883 205.216L278.267 206.288C278.043 206.661 277.766 206.987 277.435 207.264C277.104 207.541 276.747 207.76 276.363 207.92C275.979 208.08 275.579 208.16 275.163 208.16ZM281.278 208V196.16H282.926V208H281.278ZM289.025 208.16C288.161 208.16 287.393 207.979 286.721 207.616C286.06 207.243 285.537 206.736 285.153 206.096C284.78 205.456 284.593 204.72 284.593 203.888C284.593 203.227 284.7 202.624 284.913 202.08C285.126 201.536 285.42 201.067 285.793 200.672C286.177 200.267 286.63 199.957 287.153 199.744C287.686 199.52 288.262 199.408 288.881 199.408C289.425 199.408 289.932 199.515 290.401 199.728C290.87 199.931 291.276 200.213 291.617 200.576C291.969 200.939 292.236 201.371 292.417 201.872C292.609 202.363 292.7 202.901 292.689 203.488L292.673 204.192H285.809L285.441 202.88H291.249L291.009 203.152V202.768C290.977 202.416 290.86 202.101 290.657 201.824C290.454 201.547 290.198 201.328 289.889 201.168C289.58 201.008 289.244 200.928 288.881 200.928C288.305 200.928 287.82 201.04 287.425 201.264C287.03 201.477 286.732 201.797 286.529 202.224C286.326 202.64 286.225 203.157 286.225 203.776C286.225 204.363 286.348 204.875 286.593 205.312C286.838 205.739 287.185 206.069 287.633 206.304C288.081 206.539 288.598 206.656 289.185 206.656C289.601 206.656 289.985 206.587 290.337 206.448C290.7 206.309 291.089 206.059 291.505 205.696L292.337 206.864C292.081 207.12 291.766 207.344 291.393 207.536C291.03 207.728 290.641 207.883 290.225 208C289.82 208.107 289.42 208.16 289.025 208.16Z" fill="#313131"/>
<rect x="201" y="184" width="36" height="36" rx="6" fill="#63CDDA"/>
<path d="M213.332 199.666H224.665V204.333H213.332V199.666Z" stroke="white" stroke-width="1.33333" stroke-linejoin="round"/>
<path d="M219 196V208" stroke="white" stroke-width="1.33333" stroke-linecap="round" stroke-linejoin="round"/>
<path d="M55.696 254V244.464H52.56V242.8H60.656V244.464H57.424V254H55.696ZM64.553 254.16C63.7317 254.16 62.9957 253.973 62.345 253.6C61.705 253.216 61.1983 252.699 60.825 252.048C60.4517 251.387 60.265 250.635 60.265 249.792C60.265 248.949 60.4517 248.203 60.825 247.552C61.1983 246.891 61.705 246.373 62.345 246C62.9957 245.616 63.7317 245.424 64.553 245.424C65.3637 245.424 66.089 245.616 66.729 246C67.3797 246.373 67.8917 246.891 68.265 247.552C68.6383 248.203 68.825 248.949 68.825 249.792C68.825 250.635 68.6383 251.387 68.265 252.048C67.8917 252.699 67.3797 253.216 66.729 253.6C66.089 253.973 65.3637 254.16 64.553 254.16ZM64.553 252.656C65.0543 252.656 65.5023 252.533 65.897 252.288C66.2917 252.032 66.601 251.691 66.825 251.264C67.049 250.827 67.1557 250.336 67.145 249.792C67.1557 249.237 67.049 248.747 66.825 248.32C66.601 247.883 66.2917 247.541 65.897 247.296C65.5023 247.051 65.0543 246.928 64.553 246.928C64.0517 246.928 63.5983 247.056 63.193 247.312C62.7983 247.557 62.489 247.899 62.265 248.336C62.041 248.763 61.9343 249.248 61.945 249.792C61.9343 250.336 62.041 250.827 62.265 251.264C62.489 251.691 62.7983 252.032 63.193 252.288C63.5983 252.533 64.0517 252.656 64.553 252.656ZM74.3968 254.16C73.5754 254.16 72.8394 253.973 72.1888 253.6C71.5488 253.216 71.0421 252.699 70.6688 252.048C70.2954 251.387 70.1088 250.635 70.1088 249.792C70.1088 248.949 70.2954 248.203 70.6688 247.552C71.0421 246.891 71.5488 246.373 72.1888 246C72.8394 245.616 73.5754 245.424 74.3968 245.424C75.2074 245.424 75.9328 245.616 76.5728 246C77.2234 246.373 77.7354 246.891 78.1088 247.552C78.4821 248.203 78.6688 248.949 78.6688 249.792C78.6688 250.635 78.4821 251.387 78.1088 252.048C77.7354 252.699 77.2234 253.216 76.5728 253.6C75.9328 253.973 75.2074 254.16 74.3968 254.16ZM74.3968 252.656C74.8981 252.656 75.3461 252.533 75.7408 252.288C76.1354 252.032 76.4448 251.691 76.6688 251.264C76.8928 250.827 76.9994 250.336 76.9888 249.792C76.9994 249.237 76.8928 248.747 76.6688 248.32C76.4448 247.883 76.1354 247.541 75.7408 247.296C75.3461 247.051 74.8981 246.928 74.3968 246.928C73.8954 246.928 73.4421 247.056 73.0368 247.312C72.6421 247.557 72.3328 247.899 72.1088 248.336C71.8848 248.763 71.7781 249.248 71.7888 249.792C71.7781 250.336 71.8848 250.827 72.1088 251.264C72.3328 251.691 72.6421 252.032 73.0368 252.288C73.4421 252.533 73.8954 252.656 74.3968 252.656ZM80.4965 254V242.16H82.1445V254H80.4965ZM87.2801 254.16C86.5761 254.16 85.9415 254.037 85.3761 253.792C84.8108 253.547 84.3415 253.184 83.9681 252.704L85.0881 251.744C85.4081 252.117 85.7548 252.389 86.1281 252.56C86.5121 252.72 86.9441 252.8 87.4241 252.8C87.6161 252.8 87.7921 252.779 87.9521 252.736C88.1228 252.683 88.2668 252.608 88.3841 252.512C88.5121 252.416 88.6081 252.304 88.6721 252.176C88.7361 252.037 88.7681 251.888 88.7681 251.728C88.7681 251.451 88.6668 251.227 88.4641 251.056C88.3575 250.981 88.1868 250.901 87.9521 250.816C87.7281 250.72 87.4348 250.624 87.0721 250.528C86.4535 250.368 85.9468 250.187 85.5521 249.984C85.1575 249.781 84.8535 249.552 84.6401 249.296C84.4801 249.093 84.3628 248.875 84.2881 248.64C84.2135 248.395 84.1761 248.128 84.1761 247.84C84.1761 247.371 84.3095 246.955 84.5761 246.592C84.8428 246.229 85.2001 245.947 85.6481 245.744C86.1068 245.531 86.6188 245.424 87.1841 245.424C87.5788 245.424 87.9681 245.477 88.3521 245.584C88.7468 245.691 89.1095 245.845 89.4401 246.048C89.7708 246.251 90.0481 246.491 90.2721 246.768L89.3281 247.808C89.1255 247.605 88.9015 247.429 88.6561 247.28C88.4215 247.12 88.1815 246.997 87.9361 246.912C87.6908 246.827 87.4668 246.784 87.2641 246.784C87.0401 246.784 86.8375 246.805 86.6561 246.848C86.4748 246.891 86.3201 246.955 86.1921 247.04C86.0748 247.125 85.9841 247.232 85.9201 247.36C85.8561 247.488 85.8241 247.632 85.8241 247.792C85.8348 247.931 85.8668 248.064 85.9201 248.192C85.9841 248.309 86.0695 248.411 86.1761 248.496C86.2935 248.581 86.4695 248.672 86.7041 248.768C86.9388 248.864 87.2375 248.955 87.6001 249.04C88.1335 249.179 88.5708 249.333 88.9121 249.504C89.2641 249.664 89.5415 249.851 89.7441 250.064C89.9575 250.267 90.1068 250.501 90.1921 250.768C90.2775 251.035 90.3201 251.333 90.3201 251.664C90.3201 252.144 90.1815 252.576 89.9041 252.96C89.6375 253.333 89.2748 253.627 88.8161 253.84C88.3575 254.053 87.8455 254.16 87.2801 254.16ZM93.1764 254V243.456H94.8244V254H93.1764ZM91.4324 247.2V245.6H96.7764V247.2H91.4324ZM103.175 254V248.528C103.175 248.059 103.004 247.68 102.663 247.392C102.332 247.093 101.911 246.944 101.399 246.944C100.93 246.944 100.503 247.04 100.119 247.232C99.7455 247.424 99.4042 247.717 99.0949 248.112L98.0229 247.04C98.5242 246.496 99.0629 246.091 99.6389 245.824C100.226 245.557 100.855 245.424 101.527 245.424C102.167 245.424 102.722 245.531 103.191 245.744C103.66 245.957 104.023 246.272 104.279 246.688C104.535 247.093 104.663 247.589 104.663 248.176V254H103.175ZM100.663 254.16C100.119 254.16 99.6335 254.053 99.2069 253.84C98.7802 253.627 98.4389 253.333 98.1829 252.96C97.9375 252.576 97.8149 252.128 97.8149 251.616C97.8149 251.168 97.8949 250.773 98.0549 250.432C98.2149 250.091 98.4495 249.808 98.7589 249.584C99.0789 249.36 99.4735 249.189 99.9429 249.072C100.423 248.955 100.972 248.896 101.591 248.896H103.927L103.783 250.208H101.383C101.063 250.208 100.775 250.24 100.519 250.304C100.274 250.357 100.06 250.448 99.8789 250.576C99.7082 250.693 99.5802 250.837 99.4949 251.008C99.4095 251.168 99.3669 251.36 99.3669 251.584C99.3669 251.819 99.4255 252.027 99.5429 252.208C99.6602 252.379 99.8202 252.512 100.023 252.608C100.226 252.704 100.46 252.752 100.727 252.752C101.111 252.752 101.474 252.688 101.815 252.56C102.167 252.421 102.476 252.235 102.743 252C103.02 251.765 103.234 251.504 103.383 251.216L103.767 252.288C103.543 252.661 103.266 252.987 102.935 253.264C102.604 253.541 102.247 253.76 101.863 253.92C101.479 254.08 101.079 254.16 100.663 254.16ZM110.314 254.16C109.535 254.16 108.836 253.968 108.218 253.584C107.61 253.2 107.124 252.677 106.762 252.016C106.41 251.355 106.234 250.613 106.234 249.792C106.234 248.971 106.41 248.229 106.762 247.568C107.124 246.907 107.61 246.384 108.218 246C108.836 245.616 109.535 245.424 110.314 245.424C111.06 245.424 111.738 245.579 112.346 245.888C112.964 246.187 113.434 246.597 113.754 247.12L112.842 248.24C112.671 247.995 112.452 247.771 112.186 247.568C111.919 247.365 111.636 247.205 111.338 247.088C111.039 246.971 110.751 246.912 110.474 246.912C109.962 246.912 109.503 247.04 109.098 247.296C108.703 247.541 108.388 247.883 108.154 248.32C107.919 248.757 107.802 249.248 107.802 249.792C107.802 250.336 107.924 250.827 108.17 251.264C108.415 251.691 108.74 252.032 109.146 252.288C109.551 252.544 109.999 252.672 110.49 252.672C110.778 252.672 111.055 252.624 111.322 252.528C111.599 252.432 111.866 252.288 112.122 252.096C112.378 251.904 112.618 251.669 112.842 251.392L113.754 252.512C113.412 252.992 112.922 253.387 112.282 253.696C111.652 254.005 110.996 254.16 110.314 254.16ZM116.812 251.376L116.732 249.584L120.748 245.6H122.972L116.812 251.376ZM115.308 254V242.16H116.956V254H115.308ZM120.972 254L117.804 250.304L118.972 249.232L123.084 254H120.972Z" fill="#313131"/>
<rect y="230" width="36" height="36" rx="6" fill="#78E08F"/>
<path d="M24.6654 244.667L17.9987 241.334L11.332 244.667V251.334L17.9987 254.667L24.6654 251.334V244.667Z" stroke="white" stroke-width="1.33333" stroke-linejoin="round"/>
<path d="M11.332 244.668L17.9987 248.001" stroke="white" stroke-width="1.33333" stroke-linecap="round" stroke-linejoin="round"/>
<path d="M18 254.667V248" stroke="white" stroke-width="1.33333" stroke-linecap="round" stroke-linejoin="round"/>
<path d="M24.6667 244.668L18 248.001" stroke="white" stroke-width="1.33333" stroke-linecap="round" stroke-linejoin="round"/>
<path d="M21.3307 243L14.6641 246.333" stroke="white" stroke-width="1.33333" stroke-linecap="round" stroke-linejoin="round"/>
<path d="M259.112 254.16C258.333 254.16 257.619 254.021 256.968 253.744C256.317 253.467 255.752 253.072 255.272 252.56C254.792 252.037 254.419 251.424 254.152 250.72C253.896 250.016 253.768 249.243 253.768 248.4C253.768 247.6 253.907 246.859 254.184 246.176C254.472 245.483 254.867 244.875 255.368 244.352C255.869 243.829 256.451 243.424 257.112 243.136C257.773 242.848 258.488 242.704 259.256 242.704C259.8 242.704 260.328 242.789 260.84 242.96C261.363 243.12 261.832 243.349 262.248 243.648C262.675 243.936 263.021 244.267 263.288 244.64L262.136 245.84C261.677 245.371 261.208 245.019 260.728 244.784C260.248 244.549 259.757 244.432 259.256 244.432C258.733 244.432 258.243 244.533 257.784 244.736C257.336 244.928 256.941 245.2 256.6 245.552C256.269 245.904 256.008 246.325 255.816 246.816C255.624 247.296 255.528 247.824 255.528 248.4C255.528 249.008 255.619 249.563 255.8 250.064C255.992 250.555 256.259 250.976 256.6 251.328C256.941 251.68 257.347 251.952 257.816 252.144C258.296 252.325 258.824 252.416 259.4 252.416C259.752 252.416 260.099 252.368 260.44 252.272C260.781 252.176 261.101 252.037 261.4 251.856C261.699 251.675 261.971 251.461 262.216 251.216L263.08 252.624C262.835 252.912 262.499 253.173 262.072 253.408C261.656 253.643 261.187 253.829 260.664 253.968C260.152 254.096 259.635 254.16 259.112 254.16ZM268.787 254.16C267.966 254.16 267.23 253.973 266.579 253.6C265.939 253.216 265.433 252.699 265.059 252.048C264.686 251.387 264.499 250.635 264.499 249.792C264.499 248.949 264.686 248.203 265.059 247.552C265.433 246.891 265.939 246.373 266.579 246C267.23 245.616 267.966 245.424 268.787 245.424C269.598 245.424 270.323 245.616 270.963 246C271.614 246.373 272.126 246.891 272.499 247.552C272.873 248.203 273.059 248.949 273.059 249.792C273.059 250.635 272.873 251.387 272.499 252.048C272.126 252.699 271.614 253.216 270.963 253.6C270.323 253.973 269.598 254.16 268.787 254.16ZM268.787 252.656C269.289 252.656 269.737 252.533 270.131 252.288C270.526 252.032 270.835 251.691 271.059 251.264C271.283 250.827 271.39 250.336 271.379 249.792C271.39 249.237 271.283 248.747 271.059 248.32C270.835 247.883 270.526 247.541 270.131 247.296C269.737 247.051 269.289 246.928 268.787 246.928C268.286 246.928 267.833 247.056 267.427 247.312C267.033 247.557 266.723 247.899 266.499 248.336C266.275 248.763 266.169 249.248 266.179 249.792C266.169 250.336 266.275 250.827 266.499 251.264C266.723 251.691 267.033 252.032 267.427 252.288C267.833 252.533 268.286 252.656 268.787 252.656ZM278.359 254.16C277.591 254.16 276.903 253.973 276.295 253.6C275.698 253.216 275.223 252.699 274.871 252.048C274.519 251.387 274.343 250.635 274.343 249.792C274.343 248.949 274.514 248.203 274.855 247.552C275.207 246.891 275.682 246.373 276.279 246C276.876 245.616 277.554 245.424 278.311 245.424C278.727 245.424 279.127 245.493 279.511 245.632C279.906 245.76 280.258 245.941 280.567 246.176C280.876 246.4 281.116 246.651 281.287 246.928C281.468 247.195 281.559 247.467 281.559 247.744L281.079 247.776V242.16H282.727V254H281.079V252H281.399C281.399 252.256 281.314 252.512 281.143 252.768C280.972 253.013 280.743 253.243 280.455 253.456C280.178 253.669 279.852 253.84 279.479 253.968C279.116 254.096 278.743 254.16 278.359 254.16ZM278.583 252.736C279.084 252.736 279.527 252.608 279.911 252.352C280.295 252.096 280.594 251.749 280.807 251.312C281.031 250.864 281.143 250.357 281.143 249.792C281.143 249.227 281.031 248.725 280.807 248.288C280.594 247.84 280.295 247.488 279.911 247.232C279.527 246.976 279.084 246.848 278.583 246.848C278.082 246.848 277.639 246.976 277.255 247.232C276.871 247.488 276.567 247.84 276.343 248.288C276.13 248.725 276.023 249.227 276.023 249.792C276.023 250.357 276.13 250.864 276.343 251.312C276.567 251.749 276.871 252.096 277.255 252.352C277.639 252.608 278.082 252.736 278.583 252.736ZM288.916 254.16C288.052 254.16 287.284 253.979 286.612 253.616C285.95 253.243 285.428 252.736 285.044 252.096C284.67 251.456 284.484 250.72 284.484 249.888C284.484 249.227 284.59 248.624 284.804 248.08C285.017 247.536 285.31 247.067 285.684 246.672C286.068 246.267 286.521 245.957 287.044 245.744C287.577 245.52 288.153 245.408 288.772 245.408C289.316 245.408 289.822 245.515 290.292 245.728C290.761 245.931 291.166 246.213 291.508 246.576C291.86 246.939 292.126 247.371 292.308 247.872C292.5 248.363 292.59 248.901 292.58 249.488L292.564 250.192H285.7L285.332 248.88H291.14L290.9 249.152V248.768C290.868 248.416 290.75 248.101 290.548 247.824C290.345 247.547 290.089 247.328 289.78 247.168C289.47 247.008 289.134 246.928 288.772 246.928C288.196 246.928 287.71 247.04 287.316 247.264C286.921 247.477 286.622 247.797 286.42 248.224C286.217 248.64 286.116 249.157 286.116 249.776C286.116 250.363 286.238 250.875 286.484 251.312C286.729 251.739 287.076 252.069 287.524 252.304C287.972 252.539 288.489 252.656 289.076 252.656C289.492 252.656 289.876 252.587 290.228 252.448C290.59 252.309 290.98 252.059 291.396 251.696L292.228 252.864C291.972 253.12 291.657 253.344 291.284 253.536C290.921 253.728 290.532 253.883 290.116 254C289.71 254.107 289.31 254.16 288.916 254.16Z" fill="#313131"/>
<rect x="201" y="230" width="36" height="36" rx="6" fill="#596275"/>
<path d="M216.332 244.334L212.332 248.478L216.332 252.334" stroke="white" stroke-width="1.33333" stroke-linecap="round" stroke-linejoin="round"/>
<path d="M221.664 244.334L225.664 248.478L221.664 252.334" stroke="white" stroke-width="1.33333" stroke-linecap="round" stroke-linejoin="round"/>
<path d="M220.333 241.334L218 254.667" stroke="white" stroke-width="1.33333" stroke-linecap="round"/>
</svg>
