<svg width="103" height="38" viewBox="0 0 103 38" fill="none" xmlns="http://www.w3.org/2000/svg">
<path d="M47.2867 12.2079C48.9894 12.1823 50.6687 12.6094 52.1553 13.4462C53.5766 14.2493 54.7468 15.4367 55.5337 16.8744C56.3533 18.3785 56.7712 20.0712 56.7464 21.7869C56.7712 23.5025 56.3533 25.1953 55.5337 26.6994C54.7469 28.1372 53.5767 29.3246 52.1553 30.1277C50.6687 30.9644 48.9894 31.3915 47.2867 31.3659C45.2285 31.4024 43.227 30.6855 41.6535 29.3484L41.407 31.4087H37.4854V6.17188H42.354V13.7011C43.8063 12.7032 45.529 12.1817 47.2867 12.2079V12.2079ZM43.3791 25.3141C43.8387 25.7787 44.3878 26.1435 44.9926 26.3861C45.5974 26.6288 46.2451 26.744 46.8959 26.7249C47.5454 26.7446 48.192 26.6295 48.7956 26.3868C49.3992 26.1441 49.9468 25.779 50.4044 25.3141C50.862 24.8527 51.2215 24.3021 51.4609 23.6961C51.7002 23.09 51.8144 22.4412 51.7966 21.7891C51.8167 21.1317 51.7037 20.477 51.4643 19.865C51.225 19.253 50.8643 18.6966 50.4044 18.2296C49.9468 17.7649 49.3992 17.3998 48.7956 17.1572C48.1921 16.9145 47.5454 16.7994 46.8959 16.8189C46.2445 16.8001 45.5962 16.9163 44.9912 17.1604C44.3863 17.4045 43.8375 17.7713 43.3791 18.2379C42.9183 18.7028 42.5565 19.2576 42.3157 19.8682C42.0749 20.4788 41.9603 21.1324 41.9788 21.7891C41.961 22.442 42.0761 23.0916 42.3169 23.698C42.5577 24.3044 42.9192 24.8546 43.3791 25.3149V25.3141Z" fill="#1C1917"/>
<path d="M68.6132 13.128H70.2085V17.7539H68.1084C67.5782 17.7016 67.0429 17.7613 66.5368 17.9292C66.0307 18.0971 65.565 18.3695 65.1693 18.729C64.4936 19.6524 64.1779 20.7935 64.282 21.9359V31.368H59.4141V13.2262H62.5236L63.3864 15.4567C64.0149 14.6823 64.8156 14.0679 65.7237 13.6633C66.6317 13.2587 67.6216 13.0753 68.6132 13.128V13.128Z" fill="#1C1917"/>
<path d="M72.8096 10.8119V6.25195H77.6619V10.8119H72.8096ZM72.8096 31.3619V13.2194H77.6782V31.3619H72.8096Z" fill="#1C1917"/>
<path d="M93.6909 13.4713V17.5063H89.1647V31.3671H84.2975V17.5071H81.1709V13.4721H84.3132V11.8311C84.2704 11.0722 84.378 10.3122 84.6295 9.59557C84.881 8.8789 85.2715 8.21977 85.7782 7.65657C86.3459 7.12361 87.0162 6.71388 87.7475 6.45275C88.4789 6.19162 89.2557 6.08467 90.0298 6.13858H93.6604V9.99359H91.0065C90.7415 9.95318 90.4709 9.97541 90.216 10.0586C89.9611 10.1417 89.7288 10.2835 89.5377 10.4726C89.3465 10.6618 89.2017 10.8932 89.1146 11.1485C89.0275 11.4038 89.0006 11.676 89.0359 11.9436V13.4691L93.6909 13.4713Z" fill="#1C1917"/>
<path d="M97.3252 31.3701V6.68164H102.193V31.3701H97.3252Z" fill="#1C1917"/>
<path d="M2.53156 19.356C3.20167 19.356 3.84432 19.0879 4.31816 18.6105C4.79199 18.1331 5.05815 17.4856 5.05815 16.8105V2.54553C5.05815 1.87042 4.79199 1.22293 4.31816 0.74556C3.84432 0.268186 3.20167 0 2.53156 0C1.86145 0 1.2188 0.268186 0.744966 0.74556C0.271128 1.22293 0.00488281 1.87042 0.00488281 2.54553V16.8105C0.00488281 17.4856 0.271128 18.1331 0.744966 18.6105C1.2188 19.0879 1.86145 19.356 2.53156 19.356V19.356Z" fill="#1C1917"/>
<path d="M12.4024 21.3379C12.9767 21.6168 13.6344 21.6667 14.2437 21.4776C14.853 21.2884 15.3688 20.8741 15.6876 20.3179L18.6847 14.9629C18.7916 14.7758 18.9679 14.6391 19.1747 14.5829C19.3816 14.5266 19.6021 14.5554 19.788 14.6629L21.2768 15.4549C21.8571 15.7924 22.5467 15.8839 23.1939 15.7092C23.8411 15.5345 24.3931 15.108 24.7282 14.5234C25.0632 13.9388 25.1539 13.2441 24.9805 12.592C24.8071 11.94 24.3838 11.384 23.8035 11.0464L19.4679 8.60291C19.0674 8.36921 18.6106 8.2514 18.1479 8.26243C17.7043 8.26267 17.2687 8.38064 16.8847 8.60447C16.5007 8.8283 16.182 9.15005 15.9608 9.53739L11.3453 17.7124C11.1645 18.017 11.0483 18.356 11.0038 18.708C10.9594 19.06 10.9876 19.4175 11.0869 19.758C11.1862 20.0985 11.3543 20.4147 11.5807 20.6865C11.8071 20.9584 12.0869 21.1802 12.4024 21.3379V21.3379Z" fill="#1C1917"/>
<path d="M22.5377 22.5117C21.8642 22.5214 21.2216 22.798 20.7491 23.2816C20.2766 23.7652 20.0122 24.4169 20.0133 25.0955C20.0009 27.0864 19.2078 28.9917 17.8068 30.3959C16.4059 31.8001 14.5108 32.5894 12.5346 32.5918C10.5518 32.5896 8.65081 31.795 7.24875 30.3825C5.8467 28.97 5.05803 27.0549 5.05586 25.0573C5.05596 24.4214 4.81987 23.8085 4.39402 23.3393C3.96817 22.87 3.38343 22.5783 2.75482 22.5215C2.39917 22.4959 2.04209 22.545 1.70631 22.6659C1.37053 22.7867 1.06332 22.9766 0.804291 23.2234C0.54526 23.4703 0.34002 23.7687 0.201611 24.0998C0.0632023 24.4308 -0.00533358 24.7873 0.000323776 25.1465C0.0279874 28.4778 1.36 31.6634 3.70664 34.0106C6.05329 36.3577 9.22481 37.6766 12.5316 37.6804C15.8541 37.6767 19.0395 36.3453 21.3889 33.9784C23.7383 31.6115 25.0598 28.4023 25.0635 25.055C25.0629 24.3804 24.7966 23.7336 24.323 23.2568C23.8494 22.7799 23.2073 22.5119 22.5377 22.5117Z" fill="#1C1917"/>
</svg>
