<svg width="98" height="36" viewBox="0 0 98 36" fill="none" xmlns="http://www.w3.org/2000/svg">
<path d="M45.1776 11.6632C46.8044 11.6388 48.4087 12.0469 49.829 12.8463C51.1869 13.6136 52.3049 14.748 53.0567 16.1216C53.8397 17.5586 54.239 19.1758 54.2153 20.8149C54.239 22.454 53.8397 24.0713 53.0567 25.5083C52.305 26.8819 51.187 28.0164 49.829 28.7836C48.4087 29.583 46.8044 29.991 45.1776 29.9666C43.2112 30.0014 41.299 29.3166 39.7957 28.0391L39.5602 30.0075H35.8135V5.89648H40.465V13.0899C41.8524 12.1364 43.4983 11.6382 45.1776 11.6632V11.6632ZM41.4443 24.1848C41.8834 24.6286 42.408 24.9772 42.9858 25.209C43.5637 25.4408 44.1825 25.5509 44.8042 25.5327C45.4248 25.5514 46.0425 25.4415 46.6192 25.2096C47.1958 24.9777 47.719 24.6289 48.1563 24.1848C48.5934 23.744 48.9369 23.218 49.1655 22.6389C49.3942 22.0599 49.5033 21.44 49.4863 20.8171C49.5055 20.1889 49.3975 19.5634 49.1688 18.9787C48.9402 18.394 48.5956 17.8624 48.1563 17.4164C47.719 16.9723 47.1958 16.6236 46.6192 16.3917C46.0426 16.1599 45.4248 16.0499 44.8042 16.0686C44.1818 16.0506 43.5625 16.1617 42.9845 16.3949C42.4065 16.6281 41.8823 16.9784 41.4443 17.4242C41.0041 17.8684 40.6584 18.3984 40.4283 18.9818C40.1983 19.5651 40.0888 20.1896 40.1065 20.8171C40.0895 21.4408 40.1994 22.0615 40.4295 22.6408C40.6596 23.2201 41.0049 23.7458 41.4443 24.1856V24.1848Z" fill="#1F4FDE"/>
<path d="M65.5524 12.5436H67.0766V16.9632H65.0702C64.5636 16.9132 64.0522 16.9703 63.5687 17.1307C63.0852 17.291 62.6402 17.5513 62.2622 17.8947C61.6166 18.777 61.315 19.8672 61.4144 20.9586V29.9699H56.7637V12.6374H59.7345L60.5588 14.7684C61.1593 14.0286 61.9242 13.4416 62.7918 13.0551C63.6594 12.6685 64.6051 12.4933 65.5524 12.5436V12.5436Z" fill="#1F4FDE"/>
<path d="M69.5625 10.3292V5.97266H74.1983V10.3292H69.5625ZM69.5625 29.9625V12.6293H74.214V29.9625H69.5625Z" fill="#1F4FDE"/>
<path d="M89.5113 12.8721V16.7271H85.187V29.9696H80.537V16.7279H77.5498V12.8729H80.5519V11.3051C80.5111 10.58 80.6138 9.85396 80.8541 9.16926C81.0944 8.48456 81.4675 7.85484 81.9516 7.31677C82.4939 6.80757 83.1343 6.41612 83.8331 6.16664C84.5318 5.91716 85.2739 5.81499 86.0135 5.86649H89.4822V9.54953H86.9466C86.6935 9.51093 86.435 9.53216 86.1914 9.61159C85.9479 9.69103 85.726 9.82648 85.5433 10.0072C85.3607 10.1879 85.2223 10.409 85.1391 10.6529C85.0559 10.8968 85.0302 11.1569 85.064 11.4125V12.87L89.5113 12.8721Z" fill="#1F4FDE"/>
<path d="M92.9834 29.9719V6.38477H97.6342V29.9719H92.9834Z" fill="#1F4FDE"/>
<path d="M2.41885 18.4926C3.05906 18.4926 3.67304 18.2363 4.12574 17.7803C4.57844 17.3242 4.83272 16.7056 4.83272 16.0606V2.43198C4.83272 1.78698 4.57844 1.16838 4.12574 0.712301C3.67304 0.256222 3.05906 0 2.41885 0C1.77863 0 1.16465 0.256222 0.711951 0.712301C0.259251 1.16838 0.00488281 1.78698 0.00488281 2.43198V16.0606C0.00488281 16.7056 0.259251 17.3242 0.711951 17.7803C1.16465 18.2363 1.77863 18.4926 2.41885 18.4926V18.4926Z" fill="#1F4FDE"/>
<path d="M11.8498 20.3874C12.3985 20.6539 13.0269 20.7016 13.609 20.5208C14.1911 20.3401 14.6839 19.9443 14.9885 19.4129L17.8519 14.2968C17.954 14.118 18.1224 13.9874 18.3201 13.9337C18.5177 13.8799 18.7284 13.9075 18.9059 14.0102L20.3284 14.7668C20.8828 15.0893 21.5416 15.1767 22.16 15.0098C22.7783 14.8429 23.3056 14.4354 23.6258 13.8769C23.9458 13.3183 24.0325 12.6546 23.8669 12.0316C23.7012 11.4087 23.2967 10.8775 22.7424 10.555L18.6001 8.2205C18.2175 7.99723 17.7811 7.88467 17.3391 7.89521C16.9153 7.89544 16.499 8.00815 16.1322 8.22199C15.7653 8.43583 15.4609 8.74323 15.2495 9.1133L10.8399 16.9236C10.6672 17.2146 10.5561 17.5385 10.5137 17.8748C10.4712 18.2111 10.4982 18.5527 10.593 18.878C10.6879 19.2033 10.8485 19.5053 11.0648 19.7651C11.2811 20.0249 11.5484 20.2367 11.8498 20.3874V20.3874Z" fill="#1F4FDE"/>
<path d="M21.5323 21.5078C20.8888 21.517 20.2749 21.7813 19.8235 22.2433C19.372 22.7054 19.1195 23.328 19.1205 23.9764C19.1087 25.8784 18.3509 27.6987 17.0125 29.0403C15.674 30.3818 13.8634 31.136 11.9754 31.1382C10.081 31.1361 8.2649 30.377 6.92539 29.0275C5.58588 27.678 4.83239 25.8483 4.83032 23.9398C4.83042 23.3323 4.60486 22.7468 4.198 22.2984C3.79115 21.8501 3.2325 21.5714 2.63193 21.5172C2.29214 21.4927 1.95099 21.5397 1.63019 21.6551C1.30939 21.7706 1.01589 21.9519 0.768412 22.1878C0.520936 22.4236 0.324851 22.7088 0.192617 23.025C0.0603829 23.3413 -0.00509565 23.6819 0.000309333 24.0251C0.0267389 27.2078 1.29933 30.2512 3.54129 32.4937C5.78326 34.7361 8.8133 35.9962 11.9725 35.9999C15.1469 35.9963 18.1902 34.7243 20.4348 32.463C22.6794 30.2017 23.9419 27.1356 23.9455 23.9376C23.9449 23.2931 23.6904 22.6752 23.238 22.2196C22.7855 21.764 22.172 21.508 21.5323 21.5078Z" fill="#1F4FDE"/>
</svg>
