<svg width="145" height="28" viewBox="0 0 145 28" fill="none" xmlns="http://www.w3.org/2000/svg">
<g clip-path="url(#clip0_1295_18318)">
<path d="M1.64706 28.0009H6.24712C6.9808 28.0009 7.34823 27.1139 6.82944 26.5951L1.40585 21.1715C0.887058 20.6527 0 21.0201 0 21.7538V26.3539C0 27.2635 0.737414 28.0009 1.64706 28.0009Z" fill="#0A1551"/>
<path d="M18.4344 17.6809C19.7208 16.3944 21.8065 16.3944 23.093 17.6809C24.3794 18.9673 24.3794 21.053 23.093 22.3394L18.4344 26.998C17.1479 28.2845 15.0622 28.2845 13.7758 26.998C12.4894 25.7116 12.4894 23.6259 13.7758 22.3394L18.4344 17.6809Z" fill="#FFB629"/>
<path d="M19.0174 4.28828C20.3038 3.00184 22.3895 3.00184 23.676 4.28828C24.9624 5.57471 24.9624 7.66043 23.676 8.94686L12.0295 20.5933C10.7431 21.8798 8.65736 21.8798 7.37092 20.5933C6.08449 19.3069 6.08449 17.2212 7.37092 15.9347L19.0174 4.28828Z" fill="#FF6100"/>
<path d="M9.11895 1.37617C10.4054 0.0897348 12.4911 0.089735 13.7775 1.37617C15.064 2.6626 15.064 4.74832 13.7775 6.03475L5.62501 14.1873C4.33858 15.4737 2.25286 15.4737 0.966427 14.1873C-0.320006 12.9008 -0.320006 10.8151 0.966426 9.52869L9.11895 1.37617Z" fill="#0099FF"/>
<path fill-rule="evenodd" clip-rule="evenodd" d="M99.0947 21.2398C98.1719 21.2398 97.2931 20.9034 96.6452 20.2525C95.9993 19.6035 95.5631 18.6215 95.5631 17.2939C95.5631 15.9503 95.9998 14.969 96.6446 14.3245C97.2916 13.6779 98.1701 13.348 99.0947 13.348C100.019 13.348 100.898 13.6779 101.545 14.3245C102.19 14.969 102.626 15.9503 102.626 17.2939C102.626 18.6375 102.19 19.6188 101.545 20.2633C100.898 20.9098 100.019 21.2398 99.0947 21.2398ZM99.0947 9.05859C94.4086 9.05859 90.8594 12.5064 90.8594 17.2939C90.8594 22.0502 94.4078 25.5292 99.0947 25.5292C103.782 25.5292 107.33 22.0502 107.33 17.2939C107.33 12.5064 103.781 9.05859 99.0947 9.05859Z" fill="#0A1551"/>
<path fill-rule="evenodd" clip-rule="evenodd" d="M59.4687 21.2398C58.5459 21.2398 57.6671 20.9034 57.0192 20.2525C56.3733 19.6035 55.9372 18.6215 55.9372 17.2939C55.9372 15.9503 56.3738 14.969 57.0186 14.3245C57.6656 13.6779 58.5442 13.348 59.4687 13.348C60.3932 13.348 61.2718 13.6779 61.9187 14.3245C62.5636 14.969 63.0002 15.9503 63.0002 17.2939C63.0002 18.6375 62.5636 19.6188 61.9187 20.2633C61.2718 20.9098 60.3932 21.2398 59.4687 21.2398ZM59.4687 9.0586C54.7826 9.0586 51.2334 12.5064 51.2334 17.2939C51.2334 22.0502 54.7818 25.5292 59.4687 25.5292C64.1556 25.5292 67.704 22.0502 67.704 17.2939C67.704 12.5064 64.1548 9.0586 59.4687 9.0586Z" fill="#0A1551"/>
<path d="M139.104 9.05859C140.573 9.05859 142.032 9.50419 143.127 10.5068C144.227 11.5142 144.927 13.0543 144.927 15.1758V25.5293H140.313V16.0146C140.313 15.237 140.122 14.5951 139.747 14.1523C139.379 13.718 138.799 13.4346 137.927 13.4346C137.13 13.4346 136.511 13.7397 136.087 14.2188C135.66 14.7022 135.417 15.3805 135.417 16.1396V25.5293H130.71V16.0146C130.71 15.2394 130.512 14.5972 130.133 14.1533C129.76 13.7172 129.179 13.4346 128.323 13.4346C127.507 13.4346 126.881 13.735 126.455 14.209C126.026 14.6872 125.782 15.364 125.782 16.1396V25.5293H121.045V9.44141H125.597V10.7354C126.646 9.6285 128.31 9.05871 129.748 9.05859C131.721 9.05859 133.391 9.84411 134.305 11.3281C134.869 10.5772 135.516 10.0326 136.247 9.66602C137.106 9.23551 138.062 9.05864 139.104 9.05859Z" fill="#0A1551"/>
<path d="M117.952 9.05859C118.307 9.05859 118.629 9.09173 118.935 9.12305L119.219 9.15234V14.0615L118.849 13.9863C118.408 13.8959 118.027 13.8653 117.675 13.8652C116.67 13.8652 115.777 14.1155 115.137 14.7227C114.5 15.326 114.062 16.3313 114.062 17.9521V25.5293H109.336V9.13867H113.938V10.7207C115.076 9.32962 116.843 9.05861 117.952 9.05859Z" fill="#0A1551"/>
<path fill-rule="evenodd" clip-rule="evenodd" d="M32.9424 17.6865L37.6621 17.6865L37.7157 17.7373C37.7517 17.7713 37.7766 17.8197 37.7816 17.8737C37.8731 18.8737 38.2792 19.6278 38.8869 20.1302C39.4916 20.6301 40.274 20.8628 41.0894 20.8628C42.0844 20.8628 42.8981 20.5083 43.4602 19.8919C44.0191 19.2791 44.3102 18.4292 44.3102 17.4657V4.11914H49.413V17.6038C49.413 21.9207 45.9992 25.5309 41.1251 25.5309C38.6901 25.5309 36.6483 24.7482 35.2165 23.3898C33.8178 22.0629 32.9824 20.169 32.9453 17.8678L32.9424 17.6865Z" fill="#0A1551"/>
<path fill-rule="evenodd" clip-rule="evenodd" d="M89.6657 6.38369L89.9156 6.45806V2.83132L89.8007 2.77691C89.6247 2.6936 89.3417 2.61818 89.0149 2.56328C88.6839 2.50766 88.2935 2.4707 87.8955 2.4707C86.345 2.4707 84.6017 3.00522 83.6991 3.96817C82.7969 4.93061 82.2994 6.30237 82.2994 7.94359V8.70982H80.0332V12.8731H82.2994V25.5295H84.5736H86.8479V12.8731H89.9156V8.70982H86.8479V8.00117C86.8479 7.26368 87.0955 6.83913 87.412 6.59183C87.7385 6.33675 88.1674 6.2476 88.5588 6.2476C89.1472 6.2476 89.4884 6.33091 89.6657 6.38369Z" fill="#0A1551"/>
<path fill-rule="evenodd" clip-rule="evenodd" d="M78.4184 21.6155L78.6685 21.5411V25.1701L78.5535 25.2245C78.3774 25.3079 78.0941 25.3833 77.767 25.4383C77.4357 25.4939 77.0448 25.5309 76.6465 25.5309C75.0945 25.5309 73.359 24.996 72.4555 24.0325C71.5525 23.0695 71.0545 21.6968 71.0545 20.0546V12.7309H68.7861L68.7861 8.60067L71.0545 8.60067L71.0545 4.11914H75.5979V8.60067L78.6685 8.60067V12.7309L75.5979 12.7309V19.997C75.5979 20.7349 75.8457 21.1597 76.1625 21.4072C76.4893 21.6624 76.9187 21.7516 77.3104 21.7516C77.8994 21.7516 78.2409 21.6683 78.4184 21.6155Z" fill="#0A1551"/>
</g>
<defs>
<clipPath id="clip0_1295_18318">
<rect width="144.941" height="28" fill="white"/>
</clipPath>
</defs>
</svg>
