<svg width="173" height="36" viewBox="0 0 173 36" fill="none" xmlns="http://www.w3.org/2000/svg">
<path d="M46.2857 1.24898H51.0906V20.9535H51.311L54.8816 17.2947L61.2735 11.1233H66.96L57.7469 20.0718L67.9739 33.8694H62.1992L54.2645 22.8049L51.0906 25.7584V33.8694H46.2857V1.24898Z" fill="#242424"/>
<path d="M72.1885 29.9902H78.2277V15.0025H72.1885V11.1233H83.0326V17.1625H83.2971C83.5028 16.369 83.7967 15.6049 84.1787 14.8702C84.5607 14.1355 85.0456 13.5037 85.6334 12.9747C86.2212 12.4163 86.9412 11.9755 87.7934 11.6522C88.6456 11.2996 89.6448 11.1233 90.791 11.1233H93.524V15.7078H89.0277C87.2644 15.7078 85.8244 16.2367 84.7077 17.2947C83.591 18.3233 83.0326 19.7192 83.0326 21.4825V29.9902H91.2759V33.8694H72.1885V29.9902Z" fill="#242424"/>
<path d="M108.495 34.3984C106.819 34.3984 105.306 34.1192 103.954 33.5608C102.632 33.0025 101.5 32.209 100.56 31.1804C99.6488 30.1518 98.9435 28.9029 98.4439 27.4335C97.9443 25.9641 97.6945 24.3184 97.6945 22.4963C97.6945 20.6743 97.9443 19.0286 98.4439 17.5592C98.9435 16.0898 99.6488 14.8408 100.56 13.8122C101.5 12.7837 102.632 11.9902 103.954 11.4318C105.306 10.8735 106.819 10.5943 108.495 10.5943C110.17 10.5943 111.668 10.8735 112.991 11.4318C114.343 11.9902 115.474 12.7837 116.385 13.8122C117.326 14.8408 118.046 16.0898 118.545 17.5592C119.045 19.0286 119.295 20.6743 119.295 22.4963C119.295 24.3184 119.045 25.9641 118.545 27.4335C118.046 28.9029 117.326 30.1518 116.385 31.1804C115.474 32.209 114.343 33.0025 112.991 33.5608C111.668 34.1192 110.17 34.3984 108.495 34.3984ZM108.495 30.6074C110.258 30.6074 111.654 30.0784 112.682 29.0204C113.74 27.9331 114.269 26.3314 114.269 24.2155V20.7771C114.269 18.6612 113.74 17.0743 112.682 16.0163C111.654 14.929 110.258 14.3853 108.495 14.3853C106.731 14.3853 105.321 14.929 104.263 16.0163C103.234 17.0743 102.72 18.6612 102.72 20.7771V24.2155C102.72 26.3314 103.234 27.9331 104.263 29.0204C105.321 30.0784 106.731 30.6074 108.495 30.6074Z" fill="#242424"/>
<path d="M123.641 33.8694V11.1233H127.741V14.0767H127.961C128.314 13.1069 128.814 12.2841 129.46 11.6082C130.136 10.9323 131.091 10.5943 132.325 10.5943C133.53 10.5943 134.456 10.9323 135.103 11.6082C135.779 12.2547 136.205 13.151 136.381 14.2971H136.557C136.969 13.2686 137.542 12.4016 138.277 11.6963C139.011 10.9616 140.069 10.5943 141.45 10.5943C143.214 10.5943 144.433 11.2114 145.109 12.4457C145.814 13.68 146.167 15.4874 146.167 17.8678V33.8694H142.068V18.4849C142.068 16.898 141.877 15.8106 141.494 15.2229C141.112 14.6057 140.495 14.2971 139.643 14.2971C138.879 14.2971 138.232 14.5616 137.703 15.0906C137.204 15.5902 136.954 16.3543 136.954 17.3829V33.8694H132.854V18.4849C132.854 16.898 132.663 15.8106 132.281 15.2229C131.929 14.6057 131.326 14.2971 130.474 14.2971C129.681 14.2971 129.019 14.5616 128.49 15.0906C127.991 15.5902 127.741 16.3543 127.741 17.3829V33.8694H123.641Z" fill="#242424"/>
<path d="M169.822 33.8694C168.441 33.8694 167.397 33.5167 166.692 32.8114C166.016 32.1061 165.605 31.1804 165.458 30.0343H165.237C164.796 31.4155 163.988 32.4882 162.813 33.2522C161.667 34.0163 160.197 34.3984 158.405 34.3984C156.083 34.3984 154.232 33.7959 152.85 32.591C151.469 31.3567 150.778 29.6669 150.778 27.5216C150.778 25.3176 151.587 23.6425 153.203 22.4963C154.849 21.3208 157.361 20.7331 160.741 20.7331H165.105V18.9698C165.105 15.8841 163.474 14.3412 160.212 14.3412C158.743 14.3412 157.552 14.6351 156.641 15.2229C155.73 15.7812 154.966 16.5306 154.349 17.471L151.484 15.1347C152.13 13.9004 153.218 12.8425 154.746 11.9608C156.274 11.0498 158.243 10.5943 160.653 10.5943C163.533 10.5943 165.796 11.2849 167.441 12.6661C169.087 14.0474 169.91 16.0457 169.91 18.6612V30.0784H172.775V33.8694H169.822ZM159.771 30.8718C161.329 30.8718 162.607 30.5192 163.606 29.8139C164.605 29.1086 165.105 28.1976 165.105 27.0808V23.7747H160.829C157.361 23.7747 155.627 24.818 155.627 26.9045V27.7861C155.627 28.8147 155.995 29.5935 156.73 30.1225C157.464 30.622 158.478 30.8718 159.771 30.8718Z" fill="#242424"/>
<path d="M29.3878 24.9796C29.3878 31.066 24.4538 36 18.3673 36C12.2809 36 7.34694 31.066 7.34694 24.9796C7.34694 18.8932 12.2809 13.9592 18.3673 13.9592C24.4538 13.9592 29.3878 18.8932 29.3878 24.9796Z" fill="#242424"/>
<path d="M14.6939 7.34694C14.6939 11.4045 11.4045 14.6939 7.34694 14.6939C3.28934 14.6939 0 11.4045 0 7.34694C0 3.28934 3.28934 0 7.34694 0C11.4045 0 14.6939 3.28934 14.6939 7.34694Z" fill="#242424"/>
<path d="M30.8571 10.2857C30.8571 12.3145 29.2125 13.9592 27.1837 13.9592C25.1549 13.9592 23.5102 12.3145 23.5102 10.2857C23.5102 8.25691 25.1549 6.61225 27.1837 6.61225C29.2125 6.61225 30.8571 8.25691 30.8571 10.2857Z" fill="#242424"/>
</svg>
