<svg width="33" height="33" viewBox="0 0 33 33" fill="none" xmlns="http://www.w3.org/2000/svg">
<g id="Group">
<path id="Vector" d="M11.3672 8.30078C13.4889 8.30078 15.5238 9.14364 17.024 10.6439C18.5243 12.1442 19.3672 14.179 19.3672 16.3008C19.3672 18.4225 18.5243 20.4573 17.024 21.9576C15.5238 23.4579 13.4889 24.3008 11.3672 24.3008C9.24546 24.3008 7.21062 23.4579 5.71033 21.9576C4.21004 20.4573 3.36719 18.4225 3.36719 16.3008C3.36719 14.179 4.21004 12.1442 5.71033 10.6439C7.21062 9.14364 9.24546 8.30078 11.3672 8.30078ZM23.3672 9.63411C25.3672 9.63411 26.7005 12.6194 26.7005 16.3008C26.7005 19.9821 25.3672 22.9674 23.3672 22.9674C21.3672 22.9674 20.0339 19.9821 20.0339 16.3008C20.0339 12.6194 21.3672 9.63411 23.3672 9.63411ZM28.7005 10.3008C29.2072 10.3008 29.6499 11.4034 29.8739 13.2954L29.9365 13.8861L29.9619 14.1994L30.0019 14.8581L30.0152 15.2034L30.0312 15.9248L30.0339 16.3008L30.0312 16.6768L30.0152 17.3981L30.0019 17.7448L29.9619 18.4021L29.9352 18.7154L29.8752 19.3061C29.6499 21.1994 29.2085 22.3008 28.7005 22.3008C28.1939 22.3008 27.7512 21.1981 27.5272 19.3061L27.4645 18.7154C27.4553 18.6111 27.4469 18.5066 27.4392 18.4021L27.3992 17.7434C27.394 17.6284 27.3896 17.5133 27.3859 17.3981L27.3699 16.6768V15.9248L27.3859 15.2034L27.3992 14.8568L27.4392 14.1994L27.4659 13.8861L27.5259 13.2954C27.7512 11.4021 28.1925 10.3008 28.7005 10.3008Z" fill="#44403C"/>
</g>
</svg>
